G75*
G70*
%OFA0B0*%
%FSLAX24Y24*%
%IPPOS*%
%LPD*%
%AMOC8*
5,1,8,0,0,1.08239X$1,22.5*
%
%ADD10C,0.0050*%
%ADD11C,0.0060*%
%ADD12C,0.0100*%
%ADD13C,0.0000*%
%ADD14C,0.0030*%
%ADD15C,0.0004*%
%ADD16C,0.0120*%
%ADD17R,0.0062X0.0002*%
%ADD18R,0.0105X0.0002*%
%ADD19R,0.0133X0.0002*%
%ADD20R,0.0159X0.0002*%
%ADD21R,0.0179X0.0002*%
%ADD22R,0.0199X0.0002*%
%ADD23R,0.0215X0.0002*%
%ADD24R,0.0229X0.0002*%
%ADD25R,0.0246X0.0002*%
%ADD26R,0.0258X0.0002*%
%ADD27R,0.0272X0.0002*%
%ADD28R,0.0284X0.0002*%
%ADD29R,0.0296X0.0002*%
%ADD30R,0.0308X0.0002*%
%ADD31R,0.0320X0.0002*%
%ADD32R,0.0330X0.0002*%
%ADD33R,0.0340X0.0002*%
%ADD34R,0.0346X0.0002*%
%ADD35R,0.0350X0.0002*%
%ADD36R,0.0350X0.0002*%
%ADD37R,0.0354X0.0002*%
%ADD38R,0.0358X0.0002*%
%ADD39R,0.0360X0.0002*%
%ADD40R,0.0362X0.0002*%
%ADD41R,0.0366X0.0002*%
%ADD42R,0.0368X0.0002*%
%ADD43R,0.0368X0.0002*%
%ADD44R,0.0372X0.0002*%
%ADD45R,0.0374X0.0002*%
%ADD46R,0.0378X0.0002*%
%ADD47R,0.0378X0.0002*%
%ADD48R,0.0380X0.0002*%
%ADD49R,0.0382X0.0002*%
%ADD50R,0.0386X0.0002*%
%ADD51R,0.0386X0.0002*%
%ADD52R,0.0388X0.0002*%
%ADD53R,0.0390X0.0002*%
%ADD54R,0.0392X0.0002*%
%ADD55R,0.0392X0.0002*%
%ADD56R,0.0395X0.0002*%
%ADD57R,0.0397X0.0002*%
%ADD58R,0.0399X0.0002*%
%ADD59R,0.0399X0.0002*%
%ADD60R,0.0401X0.0002*%
%ADD61R,0.0403X0.0002*%
%ADD62R,0.0405X0.0002*%
%ADD63R,0.0405X0.0002*%
%ADD64R,0.0407X0.0002*%
%ADD65R,0.0409X0.0002*%
%ADD66R,0.0409X0.0002*%
%ADD67R,0.0411X0.0002*%
%ADD68R,0.0137X0.0002*%
%ADD69R,0.0213X0.0002*%
%ADD70R,0.0119X0.0002*%
%ADD71R,0.0197X0.0002*%
%ADD72R,0.0105X0.0002*%
%ADD73R,0.0189X0.0002*%
%ADD74R,0.0093X0.0002*%
%ADD75R,0.0181X0.0002*%
%ADD76R,0.0085X0.0002*%
%ADD77R,0.0175X0.0002*%
%ADD78R,0.0074X0.0002*%
%ADD79R,0.0167X0.0002*%
%ADD80R,0.0064X0.0002*%
%ADD81R,0.0163X0.0002*%
%ADD82R,0.0056X0.0002*%
%ADD83R,0.0159X0.0002*%
%ADD84R,0.0048X0.0002*%
%ADD85R,0.0155X0.0002*%
%ADD86R,0.0040X0.0002*%
%ADD87R,0.0151X0.0002*%
%ADD88R,0.0030X0.0002*%
%ADD89R,0.0149X0.0002*%
%ADD90R,0.0022X0.0002*%
%ADD91R,0.0145X0.0002*%
%ADD92R,0.0014X0.0002*%
%ADD93R,0.0143X0.0002*%
%ADD94R,0.0006X0.0002*%
%ADD95R,0.0139X0.0002*%
%ADD96R,0.0137X0.0002*%
%ADD97R,0.0133X0.0002*%
%ADD98R,0.0133X0.0002*%
%ADD99R,0.0129X0.0002*%
%ADD100R,0.0129X0.0002*%
%ADD101R,0.0127X0.0002*%
%ADD102R,0.0127X0.0002*%
%ADD103R,0.0125X0.0002*%
%ADD104R,0.0125X0.0002*%
%ADD105R,0.0123X0.0002*%
%ADD106R,0.0123X0.0002*%
%ADD107R,0.0121X0.0002*%
%ADD108R,0.0121X0.0002*%
%ADD109R,0.0119X0.0002*%
%ADD110R,0.0117X0.0002*%
%ADD111R,0.0115X0.0002*%
%ADD112R,0.0117X0.0002*%
%ADD113R,0.0115X0.0002*%
%ADD114R,0.0115X0.0002*%
%ADD115R,0.0113X0.0002*%
%ADD116R,0.0113X0.0002*%
%ADD117R,0.0113X0.0002*%
%ADD118R,0.0111X0.0002*%
%ADD119R,0.0111X0.0002*%
%ADD120R,0.0109X0.0002*%
%ADD121R,0.0109X0.0002*%
%ADD122R,0.0109X0.0002*%
%ADD123R,0.0107X0.0002*%
%ADD124R,0.0107X0.0002*%
%ADD125R,0.0107X0.0002*%
%ADD126R,0.0107X0.0002*%
%ADD127R,0.0105X0.0002*%
%ADD128R,0.0105X0.0002*%
%ADD129R,0.0105X0.0002*%
%ADD130R,0.0054X0.0002*%
%ADD131R,0.0062X0.0002*%
%ADD132R,0.0062X0.0002*%
%ADD133R,0.0085X0.0002*%
%ADD134R,0.0097X0.0002*%
%ADD135R,0.0093X0.0002*%
%ADD136R,0.0095X0.0002*%
%ADD137R,0.0020X0.0002*%
%ADD138R,0.0125X0.0002*%
%ADD139R,0.0107X0.0002*%
%ADD140R,0.0141X0.0002*%
%ADD141R,0.0133X0.0002*%
%ADD142R,0.0038X0.0002*%
%ADD143R,0.0137X0.0002*%
%ADD144R,0.0141X0.0002*%
%ADD145R,0.0157X0.0002*%
%ADD146R,0.0147X0.0002*%
%ADD147R,0.0050X0.0002*%
%ADD148R,0.0153X0.0002*%
%ADD149R,0.0173X0.0002*%
%ADD150R,0.0169X0.0002*%
%ADD151R,0.0169X0.0002*%
%ADD152R,0.0171X0.0002*%
%ADD153R,0.0185X0.0002*%
%ADD154R,0.0326X0.0002*%
%ADD155R,0.0171X0.0002*%
%ADD156R,0.0070X0.0002*%
%ADD157R,0.0131X0.0002*%
%ADD158R,0.0183X0.0002*%
%ADD159R,0.0183X0.0002*%
%ADD160R,0.0183X0.0002*%
%ADD161R,0.0199X0.0002*%
%ADD162R,0.0181X0.0002*%
%ADD163R,0.0074X0.0002*%
%ADD164R,0.0145X0.0002*%
%ADD165R,0.0195X0.0002*%
%ADD166R,0.0195X0.0002*%
%ADD167R,0.0193X0.0002*%
%ADD168R,0.0211X0.0002*%
%ADD169R,0.0352X0.0002*%
%ADD170R,0.0193X0.0002*%
%ADD171R,0.0083X0.0002*%
%ADD172R,0.0157X0.0002*%
%ADD173R,0.0207X0.0002*%
%ADD174R,0.0205X0.0002*%
%ADD175R,0.0201X0.0002*%
%ADD176R,0.0221X0.0002*%
%ADD177R,0.0360X0.0002*%
%ADD178R,0.0203X0.0002*%
%ADD179R,0.0087X0.0002*%
%ADD180R,0.0165X0.0002*%
%ADD181R,0.0217X0.0002*%
%ADD182R,0.0217X0.0002*%
%ADD183R,0.0207X0.0002*%
%ADD184R,0.0231X0.0002*%
%ADD185R,0.0366X0.0002*%
%ADD186R,0.0091X0.0002*%
%ADD187R,0.0175X0.0002*%
%ADD188R,0.0229X0.0002*%
%ADD189R,0.0225X0.0002*%
%ADD190R,0.0213X0.0002*%
%ADD191R,0.0242X0.0002*%
%ADD192R,0.0372X0.0002*%
%ADD193R,0.0221X0.0002*%
%ADD194R,0.0097X0.0002*%
%ADD195R,0.0238X0.0002*%
%ADD196R,0.0237X0.0002*%
%ADD197R,0.0252X0.0002*%
%ADD198R,0.0378X0.0002*%
%ADD199R,0.0101X0.0002*%
%ADD200R,0.0187X0.0002*%
%ADD201R,0.0248X0.0002*%
%ADD202R,0.0246X0.0002*%
%ADD203R,0.0223X0.0002*%
%ADD204R,0.0260X0.0002*%
%ADD205R,0.0384X0.0002*%
%ADD206R,0.0238X0.0002*%
%ADD207R,0.0254X0.0002*%
%ADD208R,0.0227X0.0002*%
%ADD209R,0.0270X0.0002*%
%ADD210R,0.0246X0.0002*%
%ADD211R,0.0266X0.0002*%
%ADD212R,0.0262X0.0002*%
%ADD213R,0.0231X0.0002*%
%ADD214R,0.0280X0.0002*%
%ADD215R,0.0252X0.0002*%
%ADD216R,0.0205X0.0002*%
%ADD217R,0.0274X0.0002*%
%ADD218R,0.0270X0.0002*%
%ADD219R,0.0235X0.0002*%
%ADD220R,0.0288X0.0002*%
%ADD221R,0.0399X0.0002*%
%ADD222R,0.0260X0.0002*%
%ADD223R,0.0282X0.0002*%
%ADD224R,0.0278X0.0002*%
%ADD225R,0.0296X0.0002*%
%ADD226R,0.0215X0.0002*%
%ADD227R,0.0290X0.0002*%
%ADD228R,0.0286X0.0002*%
%ADD229R,0.0241X0.0002*%
%ADD230R,0.0300X0.0002*%
%ADD231R,0.0405X0.0002*%
%ADD232R,0.0272X0.0002*%
%ADD233R,0.0121X0.0002*%
%ADD234R,0.0221X0.0002*%
%ADD235R,0.0298X0.0002*%
%ADD236R,0.0292X0.0002*%
%ADD237R,0.0244X0.0002*%
%ADD238R,0.0308X0.0002*%
%ADD239R,0.0123X0.0002*%
%ADD240R,0.0304X0.0002*%
%ADD241R,0.0294X0.0002*%
%ADD242R,0.0316X0.0002*%
%ADD243R,0.0411X0.0002*%
%ADD244R,0.0312X0.0002*%
%ADD245R,0.0250X0.0002*%
%ADD246R,0.0324X0.0002*%
%ADD247R,0.0415X0.0002*%
%ADD248R,0.0292X0.0002*%
%ADD249R,0.0233X0.0002*%
%ADD250R,0.0318X0.0002*%
%ADD251R,0.0302X0.0002*%
%ADD252R,0.0328X0.0002*%
%ADD253R,0.0417X0.0002*%
%ADD254R,0.0324X0.0002*%
%ADD255R,0.0256X0.0002*%
%ADD256R,0.0336X0.0002*%
%ADD257R,0.0421X0.0002*%
%ADD258R,0.0131X0.0002*%
%ADD259R,0.0330X0.0002*%
%ADD260R,0.0258X0.0002*%
%ADD261R,0.0340X0.0002*%
%ADD262R,0.0423X0.0002*%
%ADD263R,0.0135X0.0002*%
%ADD264R,0.0338X0.0002*%
%ADD265R,0.0310X0.0002*%
%ADD266R,0.0348X0.0002*%
%ADD267R,0.0425X0.0002*%
%ADD268R,0.0342X0.0002*%
%ADD269R,0.0314X0.0002*%
%ADD270R,0.0262X0.0002*%
%ADD271R,0.0429X0.0002*%
%ADD272R,0.0320X0.0002*%
%ADD273R,0.0316X0.0002*%
%ADD274R,0.0264X0.0002*%
%ADD275R,0.0360X0.0002*%
%ADD276R,0.0431X0.0002*%
%ADD277R,0.0324X0.0002*%
%ADD278R,0.0139X0.0002*%
%ADD279R,0.0256X0.0002*%
%ADD280R,0.0318X0.0002*%
%ADD281R,0.0266X0.0002*%
%ADD282R,0.0364X0.0002*%
%ADD283R,0.0433X0.0002*%
%ADD284R,0.0139X0.0002*%
%ADD285R,0.0360X0.0002*%
%ADD286R,0.0322X0.0002*%
%ADD287R,0.0268X0.0002*%
%ADD288R,0.0370X0.0002*%
%ADD289R,0.0435X0.0002*%
%ADD290R,0.0330X0.0002*%
%ADD291R,0.0376X0.0002*%
%ADD292R,0.0437X0.0002*%
%ADD293R,0.0332X0.0002*%
%ADD294R,0.0141X0.0002*%
%ADD295R,0.0326X0.0002*%
%ADD296R,0.0272X0.0002*%
%ADD297R,0.0380X0.0002*%
%ADD298R,0.0439X0.0002*%
%ADD299R,0.0334X0.0002*%
%ADD300R,0.0143X0.0002*%
%ADD301R,0.0268X0.0002*%
%ADD302R,0.0376X0.0002*%
%ADD303R,0.0274X0.0002*%
%ADD304R,0.0441X0.0002*%
%ADD305R,0.0382X0.0002*%
%ADD306R,0.0276X0.0002*%
%ADD307R,0.0391X0.0002*%
%ADD308R,0.0443X0.0002*%
%ADD309R,0.0340X0.0002*%
%ADD310R,0.0274X0.0002*%
%ADD311R,0.0334X0.0002*%
%ADD312R,0.0445X0.0002*%
%ADD313R,0.0342X0.0002*%
%ADD314R,0.0278X0.0002*%
%ADD315R,0.0401X0.0002*%
%ADD316R,0.0445X0.0002*%
%ADD317R,0.0344X0.0002*%
%ADD318R,0.0395X0.0002*%
%ADD319R,0.0280X0.0002*%
%ADD320R,0.0447X0.0002*%
%ADD321R,0.0409X0.0002*%
%ADD322R,0.0449X0.0002*%
%ADD323R,0.0348X0.0002*%
%ADD324R,0.0407X0.0002*%
%ADD325R,0.0344X0.0002*%
%ADD326R,0.0415X0.0002*%
%ADD327R,0.0451X0.0002*%
%ADD328R,0.0350X0.0002*%
%ADD329R,0.0411X0.0002*%
%ADD330R,0.0346X0.0002*%
%ADD331R,0.0284X0.0002*%
%ADD332R,0.0419X0.0002*%
%ADD333R,0.0451X0.0002*%
%ADD334R,0.0352X0.0002*%
%ADD335R,0.0290X0.0002*%
%ADD336R,0.0415X0.0002*%
%ADD337R,0.0286X0.0002*%
%ADD338R,0.0423X0.0002*%
%ADD339R,0.0453X0.0002*%
%ADD340R,0.0354X0.0002*%
%ADD341R,0.0292X0.0002*%
%ADD342R,0.0419X0.0002*%
%ADD343R,0.0427X0.0002*%
%ADD344R,0.0455X0.0002*%
%ADD345R,0.0356X0.0002*%
%ADD346R,0.0288X0.0002*%
%ADD347R,0.0431X0.0002*%
%ADD348R,0.0358X0.0002*%
%ADD349R,0.0296X0.0002*%
%ADD350R,0.0290X0.0002*%
%ADD351R,0.0435X0.0002*%
%ADD352R,0.0457X0.0002*%
%ADD353R,0.0300X0.0002*%
%ADD354R,0.0356X0.0002*%
%ADD355R,0.0290X0.0002*%
%ADD356R,0.0439X0.0002*%
%ADD357R,0.0457X0.0002*%
%ADD358R,0.0362X0.0002*%
%ADD359R,0.0302X0.0002*%
%ADD360R,0.0443X0.0002*%
%ADD361R,0.0459X0.0002*%
%ADD362R,0.0304X0.0002*%
%ADD363R,0.0447X0.0002*%
%ADD364R,0.0461X0.0002*%
%ADD365R,0.0306X0.0002*%
%ADD366R,0.0360X0.0002*%
%ADD367R,0.0294X0.0002*%
%ADD368R,0.0461X0.0002*%
%ADD369R,0.0368X0.0002*%
%ADD370R,0.0447X0.0002*%
%ADD371R,0.0463X0.0002*%
%ADD372R,0.0368X0.0002*%
%ADD373R,0.0457X0.0002*%
%ADD374R,0.0455X0.0002*%
%ADD375R,0.0372X0.0002*%
%ADD376R,0.0314X0.0002*%
%ADD377R,0.0203X0.0002*%
%ADD378R,0.0298X0.0002*%
%ADD379R,0.0201X0.0002*%
%ADD380R,0.0201X0.0002*%
%ADD381R,0.0465X0.0002*%
%ADD382R,0.0121X0.0002*%
%ADD383R,0.0316X0.0002*%
%ADD384R,0.0191X0.0002*%
%ADD385R,0.0298X0.0002*%
%ADD386R,0.0189X0.0002*%
%ADD387R,0.0465X0.0002*%
%ADD388R,0.0300X0.0002*%
%ADD389R,0.0181X0.0002*%
%ADD390R,0.0467X0.0002*%
%ADD391R,0.0103X0.0002*%
%ADD392R,0.0320X0.0002*%
%ADD393R,0.0177X0.0002*%
%ADD394R,0.0171X0.0002*%
%ADD395R,0.0079X0.0002*%
%ADD396R,0.0173X0.0002*%
%ADD397R,0.0169X0.0002*%
%ADD398R,0.0467X0.0002*%
%ADD399R,0.0171X0.0002*%
%ADD400R,0.0091X0.0002*%
%ADD401R,0.0324X0.0002*%
%ADD402R,0.0173X0.0002*%
%ADD403R,0.0072X0.0002*%
%ADD404R,0.0469X0.0002*%
%ADD405R,0.0163X0.0002*%
%ADD406R,0.0066X0.0002*%
%ADD407R,0.0165X0.0002*%
%ADD408R,0.0161X0.0002*%
%ADD409R,0.0149X0.0002*%
%ADD410R,0.0163X0.0002*%
%ADD411R,0.0081X0.0002*%
%ADD412R,0.0139X0.0002*%
%ADD413R,0.0076X0.0002*%
%ADD414R,0.0157X0.0002*%
%ADD415R,0.0058X0.0002*%
%ADD416R,0.0159X0.0002*%
%ADD417R,0.0155X0.0002*%
%ADD418R,0.0137X0.0002*%
%ADD419R,0.0159X0.0002*%
%ADD420R,0.0072X0.0002*%
%ADD421R,0.0195X0.0002*%
%ADD422R,0.0052X0.0002*%
%ADD423R,0.0127X0.0002*%
%ADD424R,0.0153X0.0002*%
%ADD425R,0.0155X0.0002*%
%ADD426R,0.0068X0.0002*%
%ADD427R,0.0189X0.0002*%
%ADD428R,0.0125X0.0002*%
%ADD429R,0.0151X0.0002*%
%ADD430R,0.0064X0.0002*%
%ADD431R,0.0044X0.0002*%
%ADD432R,0.0123X0.0002*%
%ADD433R,0.0103X0.0002*%
%ADD434R,0.0179X0.0002*%
%ADD435R,0.0147X0.0002*%
%ADD436R,0.0040X0.0002*%
%ADD437R,0.0151X0.0002*%
%ADD438R,0.0125X0.0002*%
%ADD439R,0.0099X0.0002*%
%ADD440R,0.0175X0.0002*%
%ADD441R,0.0145X0.0002*%
%ADD442R,0.0036X0.0002*%
%ADD443R,0.0056X0.0002*%
%ADD444R,0.0095X0.0002*%
%ADD445R,0.0032X0.0002*%
%ADD446R,0.0117X0.0002*%
%ADD447R,0.0052X0.0002*%
%ADD448R,0.0028X0.0002*%
%ADD449R,0.0115X0.0002*%
%ADD450R,0.0050X0.0002*%
%ADD451R,0.0141X0.0002*%
%ADD452R,0.0024X0.0002*%
%ADD453R,0.0117X0.0002*%
%ADD454R,0.0046X0.0002*%
%ADD455R,0.0119X0.0002*%
%ADD456R,0.0074X0.0002*%
%ADD457R,0.0143X0.0002*%
%ADD458R,0.0137X0.0002*%
%ADD459R,0.0016X0.0002*%
%ADD460R,0.0042X0.0002*%
%ADD461R,0.0135X0.0002*%
%ADD462R,0.0012X0.0002*%
%ADD463R,0.0038X0.0002*%
%ADD464R,0.0058X0.0002*%
%ADD465R,0.0010X0.0002*%
%ADD466R,0.0135X0.0002*%
%ADD467R,0.0115X0.0002*%
%ADD468R,0.0135X0.0002*%
%ADD469R,0.0036X0.0002*%
%ADD470R,0.0153X0.0002*%
%ADD471R,0.0034X0.0002*%
%ADD472R,0.0034X0.0002*%
%ADD473R,0.0002X0.0002*%
%ADD474R,0.0133X0.0002*%
%ADD475R,0.0030X0.0002*%
%ADD476R,0.0149X0.0002*%
%ADD477R,0.0129X0.0002*%
%ADD478R,0.0131X0.0002*%
%ADD479R,0.0028X0.0002*%
%ADD480R,0.0024X0.0002*%
%ADD481R,0.0022X0.0002*%
%ADD482R,0.0020X0.0002*%
%ADD483R,0.0018X0.0002*%
%ADD484R,0.0121X0.0002*%
%ADD485R,0.0012X0.0002*%
%ADD486R,0.0127X0.0002*%
%ADD487R,0.0010X0.0002*%
%ADD488R,0.0008X0.0002*%
%ADD489R,0.0006X0.0002*%
%ADD490R,0.0119X0.0002*%
%ADD491R,0.0004X0.0002*%
%ADD492R,0.0002X0.0002*%
%ADD493R,0.0117X0.0002*%
%ADD494R,0.0004X0.0002*%
%ADD495R,0.0111X0.0002*%
%ADD496R,0.0111X0.0002*%
%ADD497R,0.0018X0.0002*%
%ADD498R,0.0109X0.0002*%
%ADD499R,0.0022X0.0002*%
%ADD500R,0.0042X0.0002*%
%ADD501R,0.0046X0.0002*%
%ADD502R,0.0056X0.0002*%
%ADD503R,0.0161X0.0002*%
%ADD504R,0.0070X0.0002*%
%ADD505R,0.0109X0.0002*%
%ADD506R,0.0185X0.0002*%
%ADD507R,0.0089X0.0002*%
%ADD508R,0.0093X0.0002*%
%ADD509R,0.0099X0.0002*%
%ADD510R,0.0211X0.0002*%
%ADD511R,0.0231X0.0002*%
%ADD512R,0.0240X0.0002*%
%ADD513R,0.0149X0.0002*%
%ADD514R,0.0264X0.0002*%
%ADD515R,0.0268X0.0002*%
%ADD516R,0.0272X0.0002*%
%ADD517R,0.0167X0.0002*%
%ADD518R,0.0068X0.0002*%
%ADD519R,0.0284X0.0002*%
%ADD520R,0.0018X0.0002*%
%ADD521R,0.0185X0.0002*%
%ADD522R,0.0002X0.0002*%
%ADD523R,0.0197X0.0002*%
%ADD524R,0.0197X0.0002*%
%ADD525R,0.0310X0.0002*%
%ADD526R,0.0199X0.0002*%
%ADD527R,0.0310X0.0002*%
%ADD528R,0.0312X0.0002*%
%ADD529R,0.0312X0.0002*%
%ADD530R,0.0310X0.0002*%
%ADD531R,0.0306X0.0002*%
%ADD532R,0.0199X0.0002*%
%ADD533R,0.0197X0.0002*%
%ADD534R,0.0296X0.0002*%
%ADD535R,0.0254X0.0002*%
%ADD536R,0.0225X0.0002*%
%ADD537R,0.0219X0.0002*%
%ADD538R,0.0157X0.0002*%
%ADD539R,0.0107X0.0002*%
%ADD540R,0.0117X0.0002*%
%ADD541R,0.0197X0.0002*%
%ADD542R,0.0141X0.0002*%
%ADD543R,0.0111X0.0002*%
%ADD544R,0.0119X0.0002*%
%ADD545R,0.0111X0.0002*%
%ADD546R,0.0123X0.0002*%
%ADD547R,0.0197X0.0002*%
%ADD548R,0.0121X0.0002*%
%ADD549R,0.0119X0.0002*%
%ADD550R,0.0127X0.0002*%
%ADD551R,0.0193X0.0002*%
%ADD552R,0.0187X0.0002*%
%ADD553R,0.0131X0.0002*%
%ADD554R,0.0125X0.0002*%
%ADD555R,0.0123X0.0002*%
%ADD556R,0.0177X0.0002*%
%ADD557R,0.0127X0.0002*%
%ADD558R,0.0163X0.0002*%
%ADD559R,0.0135X0.0002*%
%ADD560R,0.0129X0.0002*%
%ADD561R,0.0143X0.0002*%
%ADD562R,0.0139X0.0002*%
%ADD563R,0.0135X0.0002*%
%ADD564R,0.0115X0.0002*%
%ADD565R,0.0129X0.0002*%
%ADD566R,0.0137X0.0002*%
%ADD567R,0.0131X0.0002*%
%ADD568R,0.0141X0.0002*%
%ADD569R,0.0153X0.0002*%
%ADD570R,0.0151X0.0002*%
%ADD571R,0.0155X0.0002*%
%ADD572R,0.0159X0.0002*%
%ADD573R,0.0161X0.0002*%
%ADD574R,0.0143X0.0002*%
%ADD575R,0.0147X0.0002*%
%ADD576R,0.0165X0.0002*%
%ADD577R,0.0167X0.0002*%
%ADD578R,0.0167X0.0002*%
%ADD579R,0.0153X0.0002*%
%ADD580R,0.0175X0.0002*%
%ADD581R,0.0149X0.0002*%
%ADD582R,0.0179X0.0002*%
%ADD583R,0.0153X0.0002*%
%ADD584R,0.0191X0.0002*%
%ADD585R,0.0161X0.0002*%
%ADD586R,0.0195X0.0002*%
%ADD587R,0.0199X0.0002*%
%ADD588R,0.0163X0.0002*%
%ADD589R,0.0207X0.0002*%
%ADD590R,0.0167X0.0002*%
%ADD591R,0.0173X0.0002*%
%ADD592R,0.0316X0.0002*%
%ADD593R,0.0171X0.0002*%
%ADD594R,0.0441X0.0002*%
%ADD595R,0.0177X0.0002*%
%ADD596R,0.0322X0.0002*%
%ADD597R,0.0173X0.0002*%
%ADD598R,0.0229X0.0002*%
%ADD599R,0.0441X0.0002*%
%ADD600R,0.0185X0.0002*%
%ADD601R,0.0320X0.0002*%
%ADD602R,0.0147X0.0002*%
%ADD603R,0.0240X0.0002*%
%ADD604R,0.0179X0.0002*%
%ADD605R,0.0264X0.0002*%
%ADD606R,0.0199X0.0002*%
%ADD607R,0.0201X0.0002*%
%ADD608R,0.0439X0.0002*%
%ADD609R,0.0205X0.0002*%
%ADD610R,0.0211X0.0002*%
%ADD611R,0.0201X0.0002*%
%ADD612R,0.0165X0.0002*%
%ADD613R,0.0286X0.0002*%
%ADD614R,0.0449X0.0002*%
%ADD615R,0.0437X0.0002*%
%ADD616R,0.0473X0.0002*%
%ADD617R,0.0314X0.0002*%
%ADD618R,0.0455X0.0002*%
%ADD619R,0.0702X0.0002*%
%ADD620R,0.0700X0.0002*%
%ADD621R,0.0698X0.0002*%
%ADD622R,0.0445X0.0002*%
%ADD623R,0.0435X0.0002*%
%ADD624R,0.0463X0.0002*%
%ADD625R,0.0308X0.0002*%
%ADD626R,0.0447X0.0002*%
%ADD627R,0.0694X0.0002*%
%ADD628R,0.0433X0.0002*%
%ADD629R,0.0459X0.0002*%
%ADD630R,0.0443X0.0002*%
%ADD631R,0.0694X0.0002*%
%ADD632R,0.0431X0.0002*%
%ADD633R,0.0690X0.0002*%
%ADD634R,0.0427X0.0002*%
%ADD635R,0.0686X0.0002*%
%ADD636R,0.0423X0.0002*%
%ADD637R,0.0429X0.0002*%
%ADD638R,0.0431X0.0002*%
%ADD639R,0.0449X0.0002*%
%ADD640R,0.0298X0.0002*%
%ADD641R,0.0686X0.0002*%
%ADD642R,0.0425X0.0002*%
%ADD643R,0.0429X0.0002*%
%ADD644R,0.0427X0.0002*%
%ADD645R,0.0682X0.0002*%
%ADD646R,0.0421X0.0002*%
%ADD647R,0.0441X0.0002*%
%ADD648R,0.0678X0.0002*%
%ADD649R,0.0676X0.0002*%
%ADD650R,0.0407X0.0002*%
%ADD651R,0.0413X0.0002*%
%ADD652R,0.0425X0.0002*%
%ADD653R,0.0433X0.0002*%
%ADD654R,0.0290X0.0002*%
%ADD655R,0.0415X0.0002*%
%ADD656R,0.0336X0.0002*%
%ADD657R,0.0336X0.0002*%
%ADD658R,0.0403X0.0002*%
%ADD659R,0.0423X0.0002*%
%ADD660R,0.0429X0.0002*%
%ADD661R,0.0286X0.0002*%
%ADD662R,0.0411X0.0002*%
%ADD663R,0.0332X0.0002*%
%ADD664R,0.0399X0.0002*%
%ADD665R,0.0328X0.0002*%
%ADD666R,0.0394X0.0002*%
%ADD667R,0.0390X0.0002*%
%ADD668R,0.0397X0.0002*%
%ADD669R,0.0419X0.0002*%
%ADD670R,0.0417X0.0002*%
%ADD671R,0.0278X0.0002*%
%ADD672R,0.0395X0.0002*%
%ADD673R,0.0324X0.0002*%
%ADD674R,0.0386X0.0002*%
%ADD675R,0.0417X0.0002*%
%ADD676R,0.0413X0.0002*%
%ADD677R,0.0276X0.0002*%
%ADD678R,0.0391X0.0002*%
%ADD679R,0.0382X0.0002*%
%ADD680R,0.0316X0.0002*%
%ADD681R,0.0413X0.0002*%
%ADD682R,0.0372X0.0002*%
%ADD683R,0.0396X0.0002*%
%ADD684R,0.0268X0.0002*%
%ADD685R,0.0376X0.0002*%
%ADD686R,0.0370X0.0002*%
%ADD687R,0.0304X0.0002*%
%ADD688R,0.0380X0.0002*%
%ADD689R,0.0352X0.0002*%
%ADD690R,0.0356X0.0002*%
%ADD691R,0.0403X0.0002*%
%ADD692R,0.0376X0.0002*%
%ADD693R,0.0256X0.0002*%
%ADD694R,0.0354X0.0002*%
%ADD695R,0.0294X0.0002*%
%ADD696R,0.0292X0.0002*%
%ADD697R,0.0350X0.0002*%
%ADD698R,0.0350X0.0002*%
%ADD699R,0.0288X0.0002*%
%ADD700R,0.0346X0.0002*%
%ADD701R,0.0364X0.0002*%
%ADD702R,0.0334X0.0002*%
%ADD703R,0.0280X0.0002*%
%ADD704R,0.0328X0.0002*%
%ADD705R,0.0334X0.0002*%
%ADD706R,0.0242X0.0002*%
%ADD707R,0.0330X0.0002*%
%ADD708R,0.0274X0.0002*%
%ADD709R,0.0276X0.0002*%
%ADD710R,0.0388X0.0002*%
%ADD711R,0.0237X0.0002*%
%ADD712R,0.0270X0.0002*%
%ADD713R,0.0270X0.0002*%
%ADD714R,0.0264X0.0002*%
%ADD715R,0.0304X0.0002*%
%ADD716R,0.0380X0.0002*%
%ADD717R,0.0326X0.0002*%
%ADD718R,0.0225X0.0002*%
%ADD719R,0.0254X0.0002*%
%ADD720R,0.0300X0.0002*%
%ADD721R,0.0298X0.0002*%
%ADD722R,0.0250X0.0002*%
%ADD723R,0.0248X0.0002*%
%ADD724R,0.0244X0.0002*%
%ADD725R,0.0274X0.0002*%
%ADD726R,0.0362X0.0002*%
%ADD727R,0.0296X0.0002*%
%ADD728R,0.0205X0.0002*%
%ADD729R,0.0229X0.0002*%
%ADD730R,0.0231X0.0002*%
%ADD731R,0.0266X0.0002*%
%ADD732R,0.0358X0.0002*%
%ADD733R,0.0223X0.0002*%
%ADD734R,0.0215X0.0002*%
%ADD735R,0.0209X0.0002*%
%ADD736R,0.0240X0.0002*%
%ADD737R,0.0244X0.0002*%
%ADD738R,0.0340X0.0002*%
%ADD739R,0.0262X0.0002*%
%ADD740R,0.0238X0.0002*%
%ADD741R,0.0229X0.0002*%
%ADD742R,0.0231X0.0002*%
%ADD743R,0.0229X0.0002*%
%ADD744R,0.0219X0.0002*%
%ADD745R,0.0223X0.0002*%
%ADD746R,0.0183X0.0002*%
%ADD747R,0.0215X0.0002*%
%ADD748R,0.0195X0.0002*%
%ADD749R,0.0203X0.0002*%
%ADD750R,0.0187X0.0002*%
%ADD751R,0.0169X0.0002*%
%ADD752R,0.0143X0.0002*%
%ADD753R,0.0155X0.0002*%
%ADD754R,0.0095X0.0002*%
%ADD755R,0.0078X0.0002*%
%ADD756R,0.0081X0.0002*%
%ADD757R,0.0072X0.0002*%
%ADD758R,0.0020X0.0002*%
%ADD759R,0.0050X0.0002*%
%ADD760R,0.0060X0.0002*%
%ADD761R,0.0066X0.0002*%
%ADD762R,0.0079X0.0002*%
%ADD763R,0.0089X0.0002*%
%ADD764R,0.0091X0.0002*%
%ADD765R,0.0095X0.0002*%
%ADD766R,0.0099X0.0002*%
%ADD767R,0.0103X0.0002*%
%ADD768R,0.0101X0.0002*%
%ADD769R,0.0087X0.0002*%
%ADD770R,0.0074X0.0002*%
%ADD771R,0.0062X0.0002*%
%ADD772R,0.0054X0.0002*%
%ADD773R,0.0044X0.0002*%
%ADD774R,0.0030X0.0002*%
D10*
X002377Y005976D02*
X002379Y006021D01*
X002385Y006066D01*
X002395Y006111D01*
X002408Y006154D01*
X002426Y006196D01*
X002447Y006236D01*
X002471Y006274D01*
X002499Y006310D01*
X002529Y006344D01*
X002563Y006374D01*
X002599Y006402D01*
X002637Y006426D01*
X002677Y006447D01*
X002719Y006465D01*
X002762Y006478D01*
X002807Y006488D01*
X002852Y006494D01*
X002897Y006496D01*
X002942Y006494D01*
X002987Y006488D01*
X003032Y006478D01*
X003075Y006465D01*
X003117Y006447D01*
X003157Y006426D01*
X003195Y006402D01*
X003231Y006374D01*
X003265Y006344D01*
X003295Y006310D01*
X003323Y006274D01*
X003347Y006236D01*
X003368Y006196D01*
X003386Y006154D01*
X003399Y006111D01*
X003409Y006066D01*
X003415Y006021D01*
X003417Y005976D01*
X003415Y005931D01*
X003409Y005886D01*
X003399Y005841D01*
X003386Y005798D01*
X003368Y005756D01*
X003347Y005716D01*
X003323Y005678D01*
X003295Y005642D01*
X003265Y005608D01*
X003231Y005578D01*
X003195Y005550D01*
X003157Y005526D01*
X003117Y005505D01*
X003075Y005487D01*
X003032Y005474D01*
X002987Y005464D01*
X002942Y005458D01*
X002897Y005456D01*
X002852Y005458D01*
X002807Y005464D01*
X002762Y005474D01*
X002719Y005487D01*
X002677Y005505D01*
X002637Y005526D01*
X002599Y005550D01*
X002563Y005578D01*
X002529Y005608D01*
X002499Y005642D01*
X002471Y005678D01*
X002447Y005716D01*
X002426Y005756D01*
X002408Y005798D01*
X002395Y005841D01*
X002385Y005886D01*
X002379Y005931D01*
X002377Y005976D01*
X003677Y006396D02*
X003679Y006441D01*
X003685Y006486D01*
X003695Y006531D01*
X003708Y006574D01*
X003726Y006616D01*
X003747Y006656D01*
X003771Y006694D01*
X003799Y006730D01*
X003829Y006764D01*
X003863Y006794D01*
X003899Y006822D01*
X003937Y006846D01*
X003977Y006867D01*
X004019Y006885D01*
X004062Y006898D01*
X004107Y006908D01*
X004152Y006914D01*
X004197Y006916D01*
X004242Y006914D01*
X004287Y006908D01*
X004332Y006898D01*
X004375Y006885D01*
X004417Y006867D01*
X004457Y006846D01*
X004495Y006822D01*
X004531Y006794D01*
X004565Y006764D01*
X004595Y006730D01*
X004623Y006694D01*
X004647Y006656D01*
X004668Y006616D01*
X004686Y006574D01*
X004699Y006531D01*
X004709Y006486D01*
X004715Y006441D01*
X004717Y006396D01*
X004715Y006351D01*
X004709Y006306D01*
X004699Y006261D01*
X004686Y006218D01*
X004668Y006176D01*
X004647Y006136D01*
X004623Y006098D01*
X004595Y006062D01*
X004565Y006028D01*
X004531Y005998D01*
X004495Y005970D01*
X004457Y005946D01*
X004417Y005925D01*
X004375Y005907D01*
X004332Y005894D01*
X004287Y005884D01*
X004242Y005878D01*
X004197Y005876D01*
X004152Y005878D01*
X004107Y005884D01*
X004062Y005894D01*
X004019Y005907D01*
X003977Y005925D01*
X003937Y005946D01*
X003899Y005970D01*
X003863Y005998D01*
X003829Y006028D01*
X003799Y006062D01*
X003771Y006098D01*
X003747Y006136D01*
X003726Y006176D01*
X003708Y006218D01*
X003695Y006261D01*
X003685Y006306D01*
X003679Y006351D01*
X003677Y006396D01*
X004907Y005516D02*
X004909Y005561D01*
X004915Y005606D01*
X004925Y005651D01*
X004938Y005694D01*
X004956Y005736D01*
X004977Y005776D01*
X005001Y005814D01*
X005029Y005850D01*
X005059Y005884D01*
X005093Y005914D01*
X005129Y005942D01*
X005167Y005966D01*
X005207Y005987D01*
X005249Y006005D01*
X005292Y006018D01*
X005337Y006028D01*
X005382Y006034D01*
X005427Y006036D01*
X005472Y006034D01*
X005517Y006028D01*
X005562Y006018D01*
X005605Y006005D01*
X005647Y005987D01*
X005687Y005966D01*
X005725Y005942D01*
X005761Y005914D01*
X005795Y005884D01*
X005825Y005850D01*
X005853Y005814D01*
X005877Y005776D01*
X005898Y005736D01*
X005916Y005694D01*
X005929Y005651D01*
X005939Y005606D01*
X005945Y005561D01*
X005947Y005516D01*
X005945Y005471D01*
X005939Y005426D01*
X005929Y005381D01*
X005916Y005338D01*
X005898Y005296D01*
X005877Y005256D01*
X005853Y005218D01*
X005825Y005182D01*
X005795Y005148D01*
X005761Y005118D01*
X005725Y005090D01*
X005687Y005066D01*
X005647Y005045D01*
X005605Y005027D01*
X005562Y005014D01*
X005517Y005004D01*
X005472Y004998D01*
X005427Y004996D01*
X005382Y004998D01*
X005337Y005004D01*
X005292Y005014D01*
X005249Y005027D01*
X005207Y005045D01*
X005167Y005066D01*
X005129Y005090D01*
X005093Y005118D01*
X005059Y005148D01*
X005029Y005182D01*
X005001Y005218D01*
X004977Y005256D01*
X004956Y005296D01*
X004938Y005338D01*
X004925Y005381D01*
X004915Y005426D01*
X004909Y005471D01*
X004907Y005516D01*
X004907Y003616D02*
X004909Y003661D01*
X004915Y003706D01*
X004925Y003751D01*
X004938Y003794D01*
X004956Y003836D01*
X004977Y003876D01*
X005001Y003914D01*
X005029Y003950D01*
X005059Y003984D01*
X005093Y004014D01*
X005129Y004042D01*
X005167Y004066D01*
X005207Y004087D01*
X005249Y004105D01*
X005292Y004118D01*
X005337Y004128D01*
X005382Y004134D01*
X005427Y004136D01*
X005472Y004134D01*
X005517Y004128D01*
X005562Y004118D01*
X005605Y004105D01*
X005647Y004087D01*
X005687Y004066D01*
X005725Y004042D01*
X005761Y004014D01*
X005795Y003984D01*
X005825Y003950D01*
X005853Y003914D01*
X005877Y003876D01*
X005898Y003836D01*
X005916Y003794D01*
X005929Y003751D01*
X005939Y003706D01*
X005945Y003661D01*
X005947Y003616D01*
X005945Y003571D01*
X005939Y003526D01*
X005929Y003481D01*
X005916Y003438D01*
X005898Y003396D01*
X005877Y003356D01*
X005853Y003318D01*
X005825Y003282D01*
X005795Y003248D01*
X005761Y003218D01*
X005725Y003190D01*
X005687Y003166D01*
X005647Y003145D01*
X005605Y003127D01*
X005562Y003114D01*
X005517Y003104D01*
X005472Y003098D01*
X005427Y003096D01*
X005382Y003098D01*
X005337Y003104D01*
X005292Y003114D01*
X005249Y003127D01*
X005207Y003145D01*
X005167Y003166D01*
X005129Y003190D01*
X005093Y003218D01*
X005059Y003248D01*
X005029Y003282D01*
X005001Y003318D01*
X004977Y003356D01*
X004956Y003396D01*
X004938Y003438D01*
X004925Y003481D01*
X004915Y003526D01*
X004909Y003571D01*
X004907Y003616D01*
X007158Y005886D02*
X007158Y008596D01*
X007160Y008637D01*
X007165Y008677D01*
X007174Y008717D01*
X007187Y008756D01*
X007203Y008793D01*
X007222Y008829D01*
X007245Y008863D01*
X007270Y008895D01*
X007299Y008925D01*
X007329Y008952D01*
X007362Y008976D01*
X007397Y008997D01*
X007434Y009014D01*
X007472Y009029D01*
X007512Y009040D01*
X007552Y009047D01*
X007593Y009051D01*
X007633Y009051D01*
X007674Y009047D01*
X007714Y009040D01*
X007754Y009029D01*
X007792Y009014D01*
X007829Y008997D01*
X007864Y008976D01*
X007897Y008952D01*
X007927Y008925D01*
X007956Y008895D01*
X007981Y008863D01*
X008004Y008829D01*
X008023Y008793D01*
X008039Y008756D01*
X008052Y008717D01*
X008061Y008677D01*
X008066Y008637D01*
X008068Y008596D01*
X008068Y005886D01*
X008066Y005845D01*
X008061Y005805D01*
X008052Y005765D01*
X008039Y005726D01*
X008023Y005689D01*
X008004Y005653D01*
X007981Y005619D01*
X007956Y005587D01*
X007927Y005557D01*
X007897Y005530D01*
X007864Y005506D01*
X007829Y005485D01*
X007792Y005468D01*
X007754Y005453D01*
X007714Y005442D01*
X007674Y005435D01*
X007633Y005431D01*
X007593Y005431D01*
X007552Y005435D01*
X007512Y005442D01*
X007472Y005453D01*
X007434Y005468D01*
X007397Y005485D01*
X007362Y005506D01*
X007329Y005530D01*
X007299Y005557D01*
X007270Y005587D01*
X007245Y005619D01*
X007222Y005653D01*
X007203Y005689D01*
X007187Y005726D01*
X007174Y005765D01*
X007165Y005805D01*
X007160Y005845D01*
X007158Y005886D01*
D11*
X005828Y007696D02*
X005968Y007836D01*
X005848Y008016D01*
X005811Y008028D02*
X005489Y008028D01*
X005524Y007970D02*
X005816Y007970D01*
X005798Y007996D02*
X005898Y008246D01*
X006098Y008296D01*
X006098Y008446D01*
X005898Y008446D01*
X005798Y008696D01*
X005948Y008896D01*
X005798Y008996D01*
X005648Y008846D01*
X005448Y008946D01*
X005398Y009146D01*
X005248Y009146D01*
X005198Y008946D01*
X004998Y008846D01*
X004798Y008996D01*
X004698Y008896D01*
X004798Y008696D01*
X004698Y008446D01*
X004498Y008446D01*
X004498Y008296D01*
X004748Y008246D01*
X004798Y007996D01*
X004698Y007846D01*
X004798Y007746D01*
X004948Y007846D01*
X005048Y007796D01*
X005148Y008096D01*
X004998Y008296D01*
X005048Y008546D01*
X005248Y008646D01*
X005448Y008646D01*
X005598Y008496D01*
X005878Y008496D01*
X005918Y008496D02*
X006148Y008456D01*
X006148Y008256D01*
X005928Y008216D01*
X005881Y008204D02*
X005598Y008204D01*
X005598Y008196D02*
X005448Y008096D01*
X005598Y007846D01*
X005648Y007846D01*
X005798Y007746D01*
X005898Y007846D01*
X005798Y007996D01*
X005835Y008087D02*
X005454Y008087D01*
X005428Y008116D02*
X005578Y007776D01*
X005648Y007816D01*
X005828Y007696D01*
X005846Y007794D02*
X005726Y007794D01*
X005855Y007911D02*
X005559Y007911D01*
X005595Y007853D02*
X005894Y007853D01*
X005858Y008145D02*
X005522Y008145D01*
X005598Y008196D02*
X005598Y008496D01*
X005598Y008438D02*
X006098Y008438D01*
X006098Y008379D02*
X005598Y008379D01*
X005598Y008321D02*
X006098Y008321D01*
X005963Y008262D02*
X005598Y008262D01*
X005926Y008200D02*
X005911Y008153D01*
X005893Y008107D01*
X005871Y008063D01*
X005846Y008021D01*
X005855Y008555D02*
X005540Y008555D01*
X005481Y008613D02*
X005832Y008613D01*
X005808Y008672D02*
X004789Y008672D01*
X004788Y008686D02*
X004648Y008876D01*
X004788Y009016D01*
X004988Y008886D01*
X004997Y008847D02*
X004723Y008847D01*
X004708Y008906D02*
X004919Y008906D01*
X004841Y008964D02*
X004766Y008964D01*
X004752Y008789D02*
X005868Y008789D01*
X005912Y008847D02*
X005649Y008847D01*
X005646Y008847D02*
X005000Y008847D01*
X005117Y008906D02*
X005529Y008906D01*
X005458Y008956D02*
X005408Y009196D01*
X005218Y009196D01*
X005168Y008956D01*
X005203Y008964D02*
X005444Y008964D01*
X005429Y009023D02*
X005218Y009023D01*
X005232Y009081D02*
X005415Y009081D01*
X005400Y009140D02*
X005247Y009140D01*
X005638Y008886D02*
X005828Y009016D01*
X005968Y008876D01*
X005838Y008686D01*
X005824Y008730D02*
X004781Y008730D01*
X004765Y008613D02*
X005182Y008613D01*
X005065Y008555D02*
X004742Y008555D01*
X004718Y008496D02*
X005038Y008496D01*
X005027Y008438D02*
X004498Y008438D01*
X004478Y008456D02*
X004478Y008256D01*
X004698Y008216D01*
X004668Y008262D02*
X005024Y008262D01*
X005003Y008321D02*
X004498Y008321D01*
X004498Y008379D02*
X005015Y008379D01*
X005068Y008204D02*
X004757Y008204D01*
X004769Y008145D02*
X005112Y008145D01*
X005145Y008087D02*
X004780Y008087D01*
X004792Y008028D02*
X005126Y008028D01*
X005106Y007970D02*
X004781Y007970D01*
X004778Y008016D02*
X004648Y007836D01*
X004788Y007696D01*
X004968Y007816D01*
X005048Y007776D01*
X005188Y008116D01*
X005087Y007911D02*
X004742Y007911D01*
X004703Y007853D02*
X005067Y007853D01*
X004870Y007794D02*
X004750Y007794D01*
X004698Y008496D02*
X004478Y008456D01*
X004696Y008497D02*
X004708Y008537D01*
X004723Y008576D01*
X004741Y008614D01*
X004761Y008650D01*
X004783Y008685D01*
X005188Y008116D02*
X005160Y008132D01*
X005133Y008151D01*
X005110Y008173D01*
X005089Y008198D01*
X005071Y008226D01*
X005056Y008255D01*
X005046Y008286D01*
X005038Y008317D01*
X005035Y008350D01*
X005036Y008382D01*
X005040Y008415D01*
X005049Y008446D01*
X005061Y008476D01*
X005076Y008505D01*
X005095Y008532D01*
X005117Y008556D01*
X005141Y008577D01*
X005168Y008596D01*
X005197Y008611D01*
X005228Y008622D01*
X005259Y008630D01*
X005292Y008634D01*
X005324Y008634D01*
X005357Y008630D01*
X005388Y008622D01*
X005419Y008611D01*
X005448Y008596D01*
X005475Y008577D01*
X005499Y008556D01*
X005521Y008532D01*
X005540Y008505D01*
X005555Y008476D01*
X005567Y008446D01*
X005576Y008415D01*
X005580Y008382D01*
X005581Y008350D01*
X005578Y008317D01*
X005570Y008286D01*
X005560Y008255D01*
X005545Y008226D01*
X005527Y008198D01*
X005506Y008173D01*
X005483Y008151D01*
X005456Y008132D01*
X005428Y008116D01*
X005636Y008882D02*
X005594Y008905D01*
X005551Y008924D01*
X005506Y008941D01*
X005460Y008953D01*
X005708Y008906D02*
X005934Y008906D01*
X005846Y008964D02*
X005766Y008964D01*
X004699Y008217D02*
X004709Y008175D01*
X004722Y008134D01*
X004738Y008094D01*
X004757Y008055D01*
X004779Y008018D01*
X004989Y008886D02*
X005032Y008909D01*
X005076Y008929D01*
X005122Y008945D01*
X005168Y008957D01*
X005839Y008686D02*
X005860Y008651D01*
X005879Y008614D01*
X005895Y008577D01*
X005909Y008538D01*
X005920Y008498D01*
X003631Y008236D02*
X003581Y008287D01*
X003481Y008287D01*
X003431Y008236D01*
X003431Y008186D01*
X003631Y007986D01*
X003431Y007986D01*
X003300Y008036D02*
X003300Y008236D01*
X003250Y008287D01*
X003150Y008287D01*
X003100Y008236D01*
X003300Y008036D01*
X003250Y007986D01*
X003150Y007986D01*
X003100Y008036D01*
X003100Y008236D01*
X002968Y008236D02*
X002918Y008287D01*
X002818Y008287D01*
X002768Y008236D01*
X002768Y008186D01*
X002968Y007986D01*
X002768Y007986D01*
X002637Y008036D02*
X002637Y008236D01*
X002587Y008287D01*
X002487Y008287D01*
X002437Y008236D01*
X002637Y008036D01*
X002587Y007986D01*
X002487Y007986D01*
X002437Y008036D01*
X002437Y008236D01*
X002388Y008416D02*
X002338Y008416D01*
X002338Y008466D01*
X002388Y008466D01*
X002388Y008416D01*
X002519Y008416D02*
X002720Y008416D01*
X002620Y008416D02*
X002620Y008717D01*
X002720Y008616D01*
X002851Y008516D02*
X002851Y008717D01*
X003051Y008717D02*
X003051Y008516D01*
X002951Y008416D01*
X002851Y008516D01*
X002305Y007986D02*
X002105Y008287D01*
X002122Y008416D02*
X002122Y008717D01*
X002222Y008616D01*
X002222Y008416D02*
X002022Y008416D01*
X001874Y008287D02*
X001974Y008186D01*
X001874Y008287D02*
X001874Y007986D01*
X001974Y007986D02*
X001774Y007986D01*
X001642Y007986D02*
X001442Y008186D01*
X001442Y008236D01*
X001492Y008287D01*
X001592Y008287D01*
X001642Y008236D01*
X001642Y007986D02*
X001442Y007986D01*
D12*
X002254Y002646D02*
X007364Y002832D01*
X007364Y002646D01*
X007330Y002647D01*
X007296Y002644D01*
X007262Y002637D01*
X007229Y002626D01*
X007198Y002611D01*
X007169Y002593D01*
X007142Y002572D01*
X007117Y002548D01*
X007096Y002522D01*
X007077Y002493D01*
X007062Y002462D01*
X007050Y002430D01*
X007043Y002396D01*
X007039Y002362D01*
X007038Y002328D01*
X007042Y002293D01*
X007050Y002260D01*
X007061Y002228D01*
X007076Y002197D01*
X007095Y002168D01*
X007116Y002141D01*
X007141Y002117D01*
X007168Y002096D01*
X007167Y002095D02*
X007167Y000520D01*
X007209Y000473D01*
X007254Y000428D01*
X007302Y000387D01*
X007352Y000348D01*
X007405Y000312D01*
X007459Y000280D01*
X007516Y000251D01*
X007574Y000225D01*
X007633Y000203D01*
X007694Y000185D01*
X007756Y000170D01*
X007819Y000160D01*
X007882Y000153D01*
X007945Y000150D01*
X008009Y000151D01*
X008072Y000156D01*
X008135Y000165D01*
X008197Y000177D01*
X008258Y000194D01*
X008318Y000214D01*
X008377Y000237D01*
X008435Y000265D01*
X008490Y000295D01*
X008544Y000329D01*
X008595Y000367D01*
X008644Y000407D01*
X008690Y000450D01*
X008734Y000496D01*
X008775Y000545D01*
X008813Y000596D01*
X008847Y000649D01*
X008878Y000705D01*
X008906Y000762D01*
X008930Y000820D01*
X008951Y000880D01*
X008968Y000942D01*
X008981Y001004D01*
X008990Y001066D01*
X008995Y001130D01*
X008997Y001193D01*
X008995Y001257D01*
X008988Y001320D01*
X008978Y001382D01*
X008964Y001444D01*
X008947Y001505D01*
X008925Y001565D01*
X008900Y001623D01*
X008900Y002331D01*
X008898Y002364D01*
X008893Y002396D01*
X008885Y002428D01*
X008873Y002459D01*
X008858Y002488D01*
X008840Y002516D01*
X008819Y002542D01*
X008796Y002565D01*
X008770Y002586D01*
X008742Y002604D01*
X008713Y002619D01*
X008682Y002631D01*
X008650Y002639D01*
X008618Y002644D01*
X008585Y002646D01*
X008585Y002901D01*
X008663Y002901D01*
X008663Y002900D02*
X008702Y002902D01*
X008740Y002908D01*
X008777Y002917D01*
X008814Y002930D01*
X008849Y002947D01*
X008882Y002966D01*
X008913Y002989D01*
X008942Y003015D01*
X008968Y003044D01*
X008991Y003075D01*
X009010Y003108D01*
X009027Y003143D01*
X009040Y003180D01*
X009049Y003217D01*
X009055Y003255D01*
X009057Y003294D01*
X009057Y008752D01*
X009057Y008751D02*
X009008Y008752D01*
X008960Y008756D01*
X008912Y008763D01*
X008864Y008774D01*
X008818Y008789D01*
X008773Y008807D01*
X008729Y008828D01*
X008687Y008853D01*
X008647Y008881D01*
X008610Y008911D01*
X008574Y008945D01*
X008541Y008981D01*
X008511Y009019D01*
X008484Y009059D01*
X008460Y009101D01*
X008439Y009145D01*
X008422Y009191D01*
X008408Y009237D01*
X008397Y009285D01*
X008391Y009333D01*
X008387Y009381D01*
X008388Y009382D02*
X008388Y011101D01*
X008073Y011456D02*
X004804Y011456D01*
X004804Y012782D01*
X004802Y012815D01*
X004797Y012847D01*
X004789Y012879D01*
X004777Y012910D01*
X004762Y012939D01*
X004744Y012967D01*
X004723Y012993D01*
X004700Y013016D01*
X004674Y013037D01*
X004646Y013055D01*
X004617Y013070D01*
X004586Y013082D01*
X004554Y013090D01*
X004522Y013095D01*
X004489Y013097D01*
X003107Y013097D01*
X003074Y013095D01*
X003042Y013090D01*
X003010Y013082D01*
X002979Y013070D01*
X002950Y013055D01*
X002922Y013037D01*
X002896Y013016D01*
X002873Y012993D01*
X002852Y012967D01*
X002834Y012939D01*
X002819Y012910D01*
X002807Y012879D01*
X002799Y012847D01*
X002794Y012815D01*
X002792Y012782D01*
X002792Y010573D01*
X002790Y010547D01*
X002785Y010522D01*
X002777Y010498D01*
X002766Y010474D01*
X002751Y010453D01*
X002734Y010434D01*
X002715Y010417D01*
X002693Y010402D01*
X002670Y010391D01*
X002646Y010383D01*
X002621Y010378D01*
X002595Y010376D01*
X002595Y010377D02*
X000904Y010377D01*
X000871Y010375D01*
X000839Y010370D01*
X000807Y010362D01*
X000776Y010350D01*
X000747Y010335D01*
X000719Y010317D01*
X000693Y010296D01*
X000670Y010273D01*
X000649Y010247D01*
X000631Y010219D01*
X000616Y010190D01*
X000604Y010159D01*
X000596Y010127D01*
X000591Y010095D01*
X000589Y010062D01*
X000589Y007489D01*
X000591Y007456D01*
X000596Y007424D01*
X000604Y007392D01*
X000616Y007361D01*
X000631Y007331D01*
X000649Y007304D01*
X000670Y007278D01*
X000693Y007255D01*
X000719Y007234D01*
X000747Y007216D01*
X000776Y007201D01*
X000807Y007189D01*
X000839Y007181D01*
X000871Y007176D01*
X000904Y007174D01*
X001899Y007174D01*
X001900Y007174D02*
X001933Y007176D01*
X001966Y007175D01*
X001999Y007170D01*
X002031Y007162D01*
X002062Y007151D01*
X002092Y007137D01*
X002120Y007119D01*
X002146Y007099D01*
X002170Y007076D01*
X002192Y007050D01*
X002210Y007023D01*
X002226Y006994D01*
X002239Y006963D01*
X002248Y006931D01*
X002254Y006898D01*
X002254Y002646D01*
X008387Y011101D02*
X008388Y011136D01*
X008384Y011171D01*
X008377Y011206D01*
X008367Y011239D01*
X008352Y011271D01*
X008335Y011302D01*
X008315Y011330D01*
X008291Y011356D01*
X008265Y011380D01*
X008237Y011401D01*
X008207Y011419D01*
X008175Y011433D01*
X008142Y011444D01*
X008108Y011452D01*
X008073Y011455D01*
D13*
X008180Y002746D02*
X008182Y002761D01*
X008187Y002775D01*
X008196Y002787D01*
X008208Y002797D01*
X008221Y002803D01*
X008236Y002806D01*
X008251Y002805D01*
X008266Y002800D01*
X008278Y002792D01*
X008289Y002781D01*
X008296Y002768D01*
X008300Y002754D01*
X008300Y002738D01*
X008296Y002724D01*
X008289Y002711D01*
X008278Y002700D01*
X008266Y002692D01*
X008251Y002687D01*
X008236Y002686D01*
X008221Y002689D01*
X008208Y002695D01*
X008196Y002705D01*
X008187Y002717D01*
X008182Y002731D01*
X008180Y002746D01*
X007670Y002746D02*
X007672Y002761D01*
X007677Y002775D01*
X007686Y002787D01*
X007698Y002797D01*
X007711Y002803D01*
X007726Y002806D01*
X007741Y002805D01*
X007756Y002800D01*
X007768Y002792D01*
X007779Y002781D01*
X007786Y002768D01*
X007790Y002754D01*
X007790Y002738D01*
X007786Y002724D01*
X007779Y002711D01*
X007768Y002700D01*
X007756Y002692D01*
X007741Y002687D01*
X007726Y002686D01*
X007711Y002689D01*
X007698Y002695D01*
X007686Y002705D01*
X007677Y002717D01*
X007672Y002731D01*
X007670Y002746D01*
D14*
X008570Y004561D02*
X008515Y004616D01*
X008515Y004671D01*
X008570Y004726D01*
X008845Y004726D01*
X008845Y004671D02*
X008845Y004781D01*
X008845Y004893D02*
X008515Y004893D01*
X008515Y005113D01*
X008570Y005224D02*
X008515Y005279D01*
X008515Y005389D01*
X008570Y005444D01*
X008570Y005556D02*
X008515Y005611D01*
X008515Y005666D01*
X008570Y005721D01*
X008845Y005721D01*
X008845Y005666D02*
X008845Y005776D01*
X008845Y005887D02*
X008515Y005887D01*
X008515Y006107D01*
X008570Y006219D02*
X008515Y006274D01*
X008515Y006384D01*
X008570Y006439D01*
X008570Y006550D02*
X008515Y006605D01*
X008515Y006660D01*
X008570Y006715D01*
X008845Y006715D01*
X008845Y006660D02*
X008845Y006770D01*
X008845Y006882D02*
X008515Y006882D01*
X008515Y007102D01*
X008570Y007213D02*
X008515Y007268D01*
X008515Y007378D01*
X008570Y007433D01*
X008570Y007545D02*
X008515Y007600D01*
X008515Y007655D01*
X008570Y007710D01*
X008845Y007710D01*
X008845Y007655D02*
X008845Y007765D01*
X008845Y007876D02*
X008515Y007876D01*
X008515Y008096D01*
X008570Y008208D02*
X008515Y008263D01*
X008515Y008373D01*
X008570Y008428D01*
X008790Y008428D02*
X008845Y008373D01*
X008845Y008263D01*
X008790Y008208D01*
X008570Y008208D01*
X008790Y007433D02*
X008845Y007378D01*
X008845Y007268D01*
X008790Y007213D01*
X008570Y007213D01*
X008790Y006439D02*
X008845Y006384D01*
X008845Y006274D01*
X008790Y006219D01*
X008570Y006219D01*
X008790Y005444D02*
X008845Y005389D01*
X008845Y005279D01*
X008790Y005224D01*
X008570Y005224D01*
D15*
X006855Y004600D02*
X006855Y004356D01*
X006853Y004336D01*
X006848Y004316D01*
X006839Y004297D01*
X006827Y004280D01*
X006813Y004266D01*
X006796Y004254D01*
X006777Y004245D01*
X006757Y004240D01*
X006737Y004238D01*
X006717Y004240D01*
X006697Y004245D01*
X006678Y004254D01*
X006661Y004266D01*
X006647Y004280D01*
X006635Y004297D01*
X006626Y004316D01*
X006621Y004336D01*
X006619Y004356D01*
X006619Y004600D01*
X006621Y004620D01*
X006626Y004640D01*
X006635Y004659D01*
X006647Y004676D01*
X006661Y004690D01*
X006678Y004702D01*
X006697Y004711D01*
X006717Y004716D01*
X006737Y004718D01*
X006757Y004716D01*
X006777Y004711D01*
X006796Y004702D01*
X006813Y004690D01*
X006827Y004676D01*
X006839Y004659D01*
X006848Y004640D01*
X006853Y004620D01*
X006855Y004600D01*
X006855Y003104D02*
X006855Y002860D01*
X006853Y002840D01*
X006848Y002820D01*
X006839Y002801D01*
X006827Y002784D01*
X006813Y002770D01*
X006796Y002758D01*
X006777Y002749D01*
X006757Y002744D01*
X006737Y002742D01*
X006717Y002744D01*
X006697Y002749D01*
X006678Y002758D01*
X006661Y002770D01*
X006647Y002784D01*
X006635Y002801D01*
X006626Y002820D01*
X006621Y002840D01*
X006619Y002860D01*
X006619Y003104D01*
X006621Y003124D01*
X006626Y003144D01*
X006635Y003163D01*
X006647Y003180D01*
X006661Y003194D01*
X006678Y003206D01*
X006697Y003215D01*
X006717Y003220D01*
X006737Y003222D01*
X006757Y003220D01*
X006777Y003215D01*
X006796Y003206D01*
X006813Y003194D01*
X006827Y003180D01*
X006839Y003163D01*
X006848Y003144D01*
X006853Y003124D01*
X006855Y003104D01*
X003454Y003104D02*
X003454Y002860D01*
X003452Y002840D01*
X003447Y002820D01*
X003438Y002801D01*
X003426Y002784D01*
X003412Y002770D01*
X003395Y002758D01*
X003376Y002749D01*
X003356Y002744D01*
X003336Y002742D01*
X003316Y002744D01*
X003296Y002749D01*
X003277Y002758D01*
X003260Y002770D01*
X003246Y002784D01*
X003234Y002801D01*
X003225Y002820D01*
X003220Y002840D01*
X003218Y002860D01*
X003218Y003104D01*
X003220Y003124D01*
X003225Y003144D01*
X003234Y003163D01*
X003246Y003180D01*
X003260Y003194D01*
X003277Y003206D01*
X003296Y003215D01*
X003316Y003220D01*
X003336Y003222D01*
X003356Y003220D01*
X003376Y003215D01*
X003395Y003206D01*
X003412Y003194D01*
X003426Y003180D01*
X003438Y003163D01*
X003447Y003144D01*
X003452Y003124D01*
X003454Y003104D01*
X003454Y004356D02*
X003454Y004600D01*
X003452Y004620D01*
X003447Y004640D01*
X003438Y004659D01*
X003426Y004676D01*
X003412Y004690D01*
X003395Y004702D01*
X003376Y004711D01*
X003356Y004716D01*
X003336Y004718D01*
X003316Y004716D01*
X003296Y004711D01*
X003277Y004702D01*
X003260Y004690D01*
X003246Y004676D01*
X003234Y004659D01*
X003225Y004640D01*
X003220Y004620D01*
X003218Y004600D01*
X003218Y004356D01*
X003220Y004336D01*
X003225Y004316D01*
X003234Y004297D01*
X003246Y004280D01*
X003260Y004266D01*
X003277Y004254D01*
X003296Y004245D01*
X003316Y004240D01*
X003336Y004238D01*
X003356Y004240D01*
X003376Y004245D01*
X003395Y004254D01*
X003412Y004266D01*
X003426Y004280D01*
X003438Y004297D01*
X003447Y004316D01*
X003452Y004336D01*
X003454Y004356D01*
D16*
X007737Y001246D02*
X007987Y001246D01*
X007987Y001046D01*
X007987Y001246D02*
X008237Y001246D01*
D17*
X006730Y009178D03*
D18*
X006731Y009180D03*
X006490Y009394D03*
X006490Y009396D03*
X006488Y009402D03*
X006488Y009404D03*
X003326Y009468D03*
D19*
X002549Y009893D03*
X002154Y009893D03*
X005232Y009893D03*
X006526Y009893D03*
X006733Y009183D03*
D20*
X006734Y009185D03*
X006873Y009559D03*
X005034Y010036D03*
X004869Y009559D03*
X004005Y009923D03*
X003850Y009452D03*
X002979Y009581D03*
D21*
X003985Y009935D03*
X004291Y009676D03*
X006736Y009187D03*
D22*
X006736Y009189D03*
X005090Y009730D03*
X005054Y009750D03*
X005036Y009760D03*
X005003Y009778D03*
X004963Y009800D03*
X004945Y009810D03*
X004931Y009819D03*
X004909Y009831D03*
X004891Y009841D03*
X004877Y009849D03*
X004859Y009859D03*
X002812Y009470D03*
D23*
X006738Y009191D03*
D24*
X006739Y009193D03*
X004529Y009800D03*
X002827Y010004D03*
X002827Y009482D03*
D25*
X006739Y009195D03*
D26*
X006741Y009197D03*
X006713Y010018D03*
X004509Y009790D03*
X004350Y009706D03*
X002841Y009499D03*
X002841Y009988D03*
X002352Y010018D03*
X002352Y009468D03*
D27*
X006742Y009199D03*
D28*
X006742Y009201D03*
X004484Y009778D03*
X003854Y009482D03*
X002854Y009517D03*
X002854Y009970D03*
D29*
X004386Y009724D03*
X006744Y009203D03*
D30*
X006744Y009205D03*
X006728Y009490D03*
X006714Y010004D03*
X004454Y009762D03*
X004450Y009760D03*
X004408Y009736D03*
X003854Y009490D03*
D31*
X006747Y009207D03*
D32*
X006748Y009209D03*
D33*
X006749Y009211D03*
X004496Y009456D03*
D34*
X004391Y010020D03*
X003865Y009515D03*
X006748Y009213D03*
D35*
X006746Y009215D03*
D36*
X006743Y009217D03*
X002352Y009494D03*
D37*
X002352Y009497D03*
X006741Y009219D03*
X006752Y009529D03*
D38*
X006754Y009533D03*
X006739Y009221D03*
X003831Y009996D03*
D39*
X006738Y009223D03*
D40*
X006735Y009225D03*
X006715Y009986D03*
D41*
X006715Y009984D03*
X006733Y009227D03*
D42*
X006732Y009229D03*
D43*
X006730Y009231D03*
D44*
X006728Y009233D03*
X004404Y010010D03*
D45*
X006727Y009235D03*
D46*
X006725Y009237D03*
D47*
X006723Y009239D03*
X005035Y009982D03*
D48*
X006722Y009241D03*
D49*
X006721Y009243D03*
D50*
X006719Y009245D03*
X005033Y009507D03*
X005035Y009978D03*
X004411Y010002D03*
X003831Y009986D03*
X002352Y009978D03*
X002352Y009509D03*
D51*
X006717Y009247D03*
D52*
X006716Y009249D03*
X004472Y009470D03*
D53*
X006715Y009251D03*
D54*
X006714Y009253D03*
X005036Y009976D03*
X004470Y009472D03*
X003832Y009984D03*
D55*
X004414Y009998D03*
X006712Y009255D03*
D56*
X006711Y009257D03*
D57*
X006710Y009259D03*
X005034Y009511D03*
D58*
X006709Y009261D03*
D59*
X006707Y009263D03*
D60*
X006706Y009265D03*
X005036Y009972D03*
X004466Y009476D03*
X003832Y009980D03*
X002353Y009972D03*
X002353Y009515D03*
D61*
X006705Y009267D03*
D62*
X006704Y009269D03*
D63*
X006702Y009271D03*
D64*
X006701Y009273D03*
D65*
X006700Y009275D03*
D66*
X006698Y009277D03*
X005036Y009967D03*
X004462Y009480D03*
X004422Y009984D03*
D67*
X004423Y009982D03*
X006697Y009279D03*
D68*
X006834Y009281D03*
X006898Y009579D03*
X006898Y009907D03*
X006536Y009313D03*
X004843Y009581D03*
X003326Y009539D03*
X003004Y009605D03*
X003004Y009881D03*
D69*
X002931Y009929D03*
X002931Y009557D03*
X004542Y009806D03*
X006599Y009281D03*
D70*
X006515Y009340D03*
X006501Y009851D03*
X006712Y010040D03*
X006209Y010137D03*
X006209Y010189D03*
X006843Y009283D03*
X005261Y009639D03*
X005261Y009641D03*
X005259Y009637D03*
X005259Y009849D03*
X004802Y009658D03*
X004802Y009656D03*
X004607Y009857D03*
X004253Y009575D03*
X004051Y009623D03*
X004063Y009841D03*
X004059Y009849D03*
X004059Y009851D03*
X003325Y009557D03*
X003325Y009476D03*
X003031Y009649D03*
X003033Y009654D03*
X003033Y009656D03*
X003035Y009827D03*
X003033Y009831D03*
X003033Y009833D03*
X003031Y009835D03*
X003029Y009841D03*
X002578Y009843D03*
X002576Y009849D03*
X002580Y009647D03*
X002578Y009641D03*
X002576Y009639D03*
X002576Y009637D03*
X002129Y009635D03*
X002127Y009639D03*
X002127Y009641D03*
X002125Y009645D03*
X002123Y009649D03*
X002125Y009841D03*
X002125Y009843D03*
X002129Y009851D03*
X001890Y009899D03*
X001580Y009865D03*
X001580Y009859D03*
X001270Y009899D03*
X001268Y009897D03*
D71*
X004862Y009857D03*
X004906Y009833D03*
X004916Y009827D03*
X004924Y009823D03*
X004938Y009815D03*
X004960Y009802D03*
X004974Y009794D03*
X004978Y009792D03*
X004988Y009786D03*
X004992Y009784D03*
X004996Y009782D03*
X005006Y009776D03*
X005010Y009774D03*
X005021Y009768D03*
X005025Y009766D03*
X005039Y009758D03*
X005051Y009752D03*
X005061Y009746D03*
X005069Y009742D03*
X005075Y009738D03*
X005083Y009734D03*
X006589Y009283D03*
D72*
X006488Y009406D03*
X006848Y009285D03*
D73*
X006582Y009285D03*
D74*
X006854Y009287D03*
D75*
X006576Y009287D03*
X004849Y009869D03*
X002802Y010022D03*
D76*
X004801Y009714D03*
X005123Y009680D03*
X006617Y009551D03*
X006858Y009289D03*
D77*
X006571Y009289D03*
X001749Y010028D03*
D78*
X006863Y009291D03*
D79*
X006867Y009555D03*
X006567Y009291D03*
X004881Y009931D03*
X004575Y009825D03*
X003995Y009929D03*
X002506Y009931D03*
X002198Y009931D03*
X002198Y009555D03*
X002506Y009555D03*
D80*
X006866Y009293D03*
D81*
X006563Y009293D03*
X002973Y009577D03*
D82*
X006870Y009295D03*
D83*
X006559Y009295D03*
X006557Y009925D03*
X005199Y009925D03*
X004873Y009925D03*
X002516Y009925D03*
X002188Y009925D03*
D84*
X006599Y009565D03*
X006874Y009297D03*
D85*
X006879Y009563D03*
X006557Y009297D03*
X006553Y009921D03*
X005205Y009921D03*
X005104Y009710D03*
X005205Y009565D03*
X004007Y009921D03*
X002518Y009923D03*
X002186Y009923D03*
X002186Y009563D03*
X002518Y009563D03*
X001749Y010032D03*
X001411Y010032D03*
D86*
X006878Y009299D03*
D87*
X006553Y009299D03*
X005207Y009567D03*
X004273Y009664D03*
X002985Y009899D03*
X001580Y009899D03*
X001300Y009937D03*
D88*
X006881Y009301D03*
D89*
X006550Y009301D03*
X004858Y009911D03*
D90*
X006885Y009303D03*
D91*
X006548Y009303D03*
X005218Y009909D03*
X004020Y009909D03*
X002992Y009893D03*
X002784Y010030D03*
X001865Y009933D03*
X001295Y009933D03*
D92*
X003699Y009607D03*
X003699Y009605D03*
X005142Y009649D03*
X006889Y009305D03*
D93*
X006891Y009573D03*
X006545Y009305D03*
X006543Y009307D03*
X006537Y009907D03*
X004015Y009575D03*
X003325Y009527D03*
X003325Y009525D03*
X003325Y009523D03*
X003325Y009519D03*
X003325Y009517D03*
X003325Y009515D03*
X003325Y009511D03*
X003325Y009509D03*
X003325Y009507D03*
X002997Y009597D03*
X002536Y009579D03*
X002536Y009907D03*
D94*
X006577Y009587D03*
X006893Y009307D03*
D95*
X006541Y009309D03*
X006893Y009911D03*
X002540Y009903D03*
D96*
X006538Y009311D03*
X006896Y009909D03*
D97*
X006907Y009587D03*
X006534Y009315D03*
X006524Y009891D03*
X005234Y009891D03*
X005234Y009595D03*
X004835Y009591D03*
X004598Y009843D03*
X004262Y009563D03*
X004028Y009589D03*
X004036Y009889D03*
X003833Y010040D03*
X003636Y009899D03*
X003634Y009897D03*
X003010Y009873D03*
X003008Y009875D03*
X003010Y009613D03*
X003008Y009611D03*
X002156Y009591D03*
X001875Y009923D03*
X001285Y009923D03*
X001283Y009921D03*
D98*
X002547Y009895D03*
X006532Y009317D03*
X006905Y009585D03*
D99*
X006530Y009319D03*
X006520Y009885D03*
X006210Y010159D03*
X006210Y010167D03*
X005238Y009885D03*
X004600Y009845D03*
X002555Y009885D03*
X001879Y009917D03*
D100*
X002146Y009881D03*
X002144Y009607D03*
X002146Y009605D03*
X002557Y009605D03*
X002559Y009607D03*
X002557Y009881D03*
X003014Y009867D03*
X003016Y009865D03*
X003016Y009621D03*
X003014Y009619D03*
X003630Y009891D03*
X004042Y009881D03*
X004046Y009875D03*
X004036Y009599D03*
X004034Y009597D03*
X004260Y009565D03*
X004258Y009649D03*
X004598Y009923D03*
X004825Y009607D03*
X004827Y009603D03*
X005240Y009603D03*
X005240Y009883D03*
X006210Y010157D03*
X006210Y010161D03*
X006210Y010165D03*
X006518Y009883D03*
X006518Y009881D03*
X006907Y009897D03*
X006913Y009595D03*
X006528Y009321D03*
D101*
X006527Y009323D03*
X006513Y009875D03*
X006912Y009891D03*
X005245Y009875D03*
X005245Y009611D03*
X005243Y009607D03*
X004826Y009605D03*
X004820Y009615D03*
X004818Y009619D03*
X004599Y009921D03*
X004255Y009645D03*
X004039Y009603D03*
X003325Y009551D03*
X003325Y009484D03*
X003325Y009482D03*
X003019Y009627D03*
X003017Y009623D03*
X003019Y009859D03*
X001882Y009913D03*
X001882Y009915D03*
X001278Y009915D03*
D102*
X002560Y009609D03*
X003019Y009625D03*
X003017Y009863D03*
X004037Y009601D03*
X004601Y009847D03*
X004824Y009609D03*
X005243Y009609D03*
X005243Y009879D03*
X006511Y009871D03*
X006914Y009887D03*
X006525Y009325D03*
D103*
X006524Y009327D03*
X006510Y009869D03*
X006915Y009885D03*
X004050Y009869D03*
X002138Y009869D03*
X001275Y009909D03*
D104*
X001277Y009913D03*
X002136Y009865D03*
X002140Y009873D03*
X002136Y009621D03*
X002140Y009615D03*
X002140Y009613D03*
X003020Y009629D03*
X003022Y009631D03*
X003024Y009635D03*
X003024Y009851D03*
X003020Y009857D03*
X003624Y009883D03*
X004050Y009867D03*
X004052Y009865D03*
X004044Y009611D03*
X004042Y009607D03*
X004040Y009605D03*
X004602Y009849D03*
X004813Y009629D03*
X004817Y009621D03*
X005246Y009613D03*
X005248Y009615D03*
X005250Y009619D03*
X005250Y009867D03*
X005246Y009873D03*
X006512Y009873D03*
X006913Y009889D03*
X006917Y009883D03*
X006917Y009599D03*
X006915Y009597D03*
X006522Y009329D03*
D105*
X006521Y009331D03*
X006507Y009865D03*
X006509Y009867D03*
X005251Y009865D03*
X005253Y009623D03*
X005251Y009621D03*
X004816Y009623D03*
X004814Y009627D03*
X004812Y009631D03*
X004810Y009635D03*
X004810Y009637D03*
X004253Y009641D03*
X004055Y009859D03*
X003623Y009881D03*
X003325Y009555D03*
X003027Y009641D03*
X003025Y009637D03*
X003025Y009849D03*
X002568Y009865D03*
X002568Y009623D03*
X002568Y009621D03*
X002137Y009619D03*
X002135Y009623D03*
X002133Y009627D03*
X002133Y009859D03*
X002137Y009867D03*
D106*
X001580Y009871D03*
X006519Y009333D03*
X006918Y009601D03*
X006920Y009879D03*
D107*
X006502Y009853D03*
X006518Y009335D03*
X005258Y009853D03*
X002130Y009853D03*
X001889Y009901D03*
X001271Y009901D03*
D108*
X001887Y009905D03*
X002128Y009849D03*
X002128Y009637D03*
X002130Y009631D03*
X002575Y009635D03*
X002575Y009851D03*
X003028Y009843D03*
X003030Y009647D03*
X003030Y009645D03*
X004048Y009619D03*
X004050Y009621D03*
X004254Y009573D03*
X004803Y009654D03*
X004805Y009649D03*
X004805Y009647D03*
X004807Y009645D03*
X004809Y009639D03*
X005035Y009446D03*
X005113Y009696D03*
X005254Y009627D03*
X005256Y009629D03*
X005256Y009631D03*
X005258Y009635D03*
X005258Y009851D03*
X005256Y009857D03*
X005254Y009859D03*
X006210Y010185D03*
X006504Y009859D03*
X006504Y009857D03*
X006500Y009849D03*
X006923Y009873D03*
X006516Y009337D03*
D109*
X006513Y009342D03*
X006499Y009847D03*
X006209Y010139D03*
X006209Y010187D03*
X005633Y009569D03*
X005261Y009847D03*
X004802Y009660D03*
X004804Y009651D03*
X004051Y009625D03*
X004061Y009847D03*
X003617Y009871D03*
X003035Y009660D03*
X002578Y009643D03*
X002574Y009633D03*
X002580Y009839D03*
X002576Y009847D03*
X002127Y009847D03*
X002125Y009643D03*
X001580Y009863D03*
X001268Y009895D03*
D110*
X001267Y009893D03*
X002581Y009837D03*
X003612Y009861D03*
X003616Y009869D03*
X004064Y009837D03*
X004608Y009861D03*
X004606Y009909D03*
X006210Y010135D03*
X006498Y009845D03*
X006512Y009344D03*
X006937Y009845D03*
X006933Y009853D03*
D111*
X006938Y009843D03*
X006938Y009841D03*
X006938Y009635D03*
X006936Y009631D03*
X006934Y009629D03*
X006934Y009627D03*
X006932Y009623D03*
X006489Y009817D03*
X006489Y009819D03*
X006493Y009831D03*
X006209Y010133D03*
X006209Y010193D03*
X006511Y009346D03*
X005273Y009674D03*
X005271Y009672D03*
X005271Y009670D03*
X005269Y009664D03*
X005269Y009662D03*
X005267Y009658D03*
X005273Y009678D03*
X005275Y009686D03*
X005277Y009696D03*
X005277Y009790D03*
X005275Y009800D03*
X005275Y009802D03*
X005273Y009808D03*
X005273Y009810D03*
X005271Y009815D03*
X005271Y009817D03*
X005271Y009819D03*
X005269Y009823D03*
X005269Y009825D03*
X004792Y009696D03*
X004792Y009694D03*
X004794Y009688D03*
X004794Y009686D03*
X004796Y009678D03*
X004609Y009865D03*
X004609Y009897D03*
X004609Y009899D03*
X004607Y009905D03*
X004247Y009627D03*
X004063Y009649D03*
X004061Y009645D03*
X004059Y009641D03*
X004059Y009639D03*
X004057Y009635D03*
X004069Y009823D03*
X004069Y009825D03*
X004067Y009831D03*
X004065Y009835D03*
X003848Y009446D03*
X003611Y009859D03*
X003325Y009474D03*
X003041Y009678D03*
X003041Y009680D03*
X003043Y009686D03*
X003043Y009688D03*
X003045Y009694D03*
X003045Y009696D03*
X003045Y009790D03*
X003045Y009792D03*
X003043Y009798D03*
X003043Y009800D03*
X003043Y009802D03*
X003041Y009806D03*
X003041Y009808D03*
X003041Y009810D03*
X002592Y009798D03*
X002590Y009806D03*
X002590Y009808D03*
X002588Y009815D03*
X002588Y009817D03*
X002586Y009819D03*
X002586Y009823D03*
X002584Y009827D03*
X002582Y009833D03*
X002592Y009690D03*
X002592Y009688D03*
X002590Y009682D03*
X002590Y009680D03*
X002590Y009678D03*
X002588Y009674D03*
X002588Y009672D03*
X002588Y009670D03*
X002586Y009666D03*
X002586Y009664D03*
X002582Y009654D03*
X002117Y009666D03*
X002117Y009670D03*
X002115Y009672D03*
X002115Y009674D03*
X002113Y009682D03*
X002111Y009694D03*
X002111Y009792D03*
X002113Y009802D03*
X002115Y009810D03*
X002115Y009815D03*
X002117Y009817D03*
X002117Y009819D03*
X001896Y009883D03*
X001580Y009851D03*
X001580Y009849D03*
X001262Y009881D03*
D112*
X001267Y009891D03*
X001579Y009857D03*
X002122Y009835D03*
X002122Y009833D03*
X002122Y009654D03*
X002124Y009647D03*
X002352Y009446D03*
X002579Y009645D03*
X002581Y009649D03*
X002583Y009656D03*
X002583Y009658D03*
X002585Y009662D03*
X002585Y009825D03*
X002583Y009831D03*
X002581Y009835D03*
X002579Y009841D03*
X002352Y010040D03*
X003036Y009825D03*
X003036Y009823D03*
X003036Y009664D03*
X003036Y009662D03*
X003034Y009658D03*
X003326Y009559D03*
X003614Y009865D03*
X003614Y009867D03*
X004062Y009843D03*
X004066Y009833D03*
X004058Y009637D03*
X004608Y009859D03*
X004606Y009907D03*
X004795Y009682D03*
X004795Y009680D03*
X005115Y009694D03*
X005270Y009666D03*
X005268Y009827D03*
X005262Y009843D03*
X005634Y009571D03*
X006494Y009833D03*
X006494Y009835D03*
X006496Y009841D03*
X006498Y009843D03*
X006510Y009348D03*
X006931Y009621D03*
X006935Y009849D03*
X006935Y009851D03*
X006931Y009857D03*
D113*
X006936Y009847D03*
X006493Y009829D03*
X006509Y009350D03*
X005271Y009668D03*
X005273Y009676D03*
X005275Y009684D03*
X005273Y009813D03*
X005267Y009829D03*
X004792Y009692D03*
X004794Y009684D03*
X004609Y009863D03*
X004247Y009625D03*
X004247Y009593D03*
X004061Y009643D03*
X004067Y009829D03*
X003613Y009863D03*
X003609Y009855D03*
X003325Y009561D03*
X003041Y009676D03*
X003043Y009684D03*
X002586Y009668D03*
X002584Y009660D03*
X002592Y009796D03*
X002590Y009804D03*
X002588Y009813D03*
X002586Y009821D03*
X002117Y009821D03*
X002115Y009813D03*
X002113Y009804D03*
X002113Y009684D03*
X002115Y009676D03*
X002117Y009668D03*
X001580Y009855D03*
X001262Y009879D03*
D114*
X001580Y009853D03*
X001896Y009885D03*
X001898Y009877D03*
X004609Y009901D03*
X006209Y010191D03*
X006495Y009837D03*
X006507Y009352D03*
X006940Y009837D03*
D115*
X006941Y009835D03*
X006941Y009833D03*
X006943Y009831D03*
X006943Y009827D03*
X006945Y009823D03*
X006943Y009647D03*
X006941Y009641D03*
X006939Y009639D03*
X006939Y009637D03*
X006484Y009794D03*
X006486Y009806D03*
X006486Y009808D03*
X006488Y009810D03*
X006488Y009815D03*
X006506Y009356D03*
X006506Y009354D03*
X005640Y009581D03*
X005274Y009680D03*
X005274Y009682D03*
X005276Y009688D03*
X005276Y009690D03*
X005276Y009694D03*
X005278Y009698D03*
X005278Y009702D03*
X005278Y009704D03*
X005278Y009706D03*
X005280Y009712D03*
X005280Y009714D03*
X005280Y009718D03*
X005280Y009720D03*
X005280Y009722D03*
X005280Y009726D03*
X005280Y009728D03*
X005280Y009730D03*
X005280Y009734D03*
X005280Y009752D03*
X005280Y009754D03*
X005280Y009758D03*
X005280Y009760D03*
X005280Y009762D03*
X005280Y009766D03*
X005280Y009768D03*
X005280Y009770D03*
X005280Y009774D03*
X005278Y009778D03*
X005278Y009782D03*
X005278Y009784D03*
X005278Y009786D03*
X005276Y009792D03*
X005276Y009794D03*
X005276Y009798D03*
X005274Y009806D03*
X004791Y009702D03*
X004791Y009698D03*
X004793Y009690D03*
X004789Y009710D03*
X004610Y009867D03*
X004610Y009873D03*
X004610Y009889D03*
X004610Y009891D03*
X004246Y009623D03*
X004246Y009621D03*
X004246Y009619D03*
X004246Y009615D03*
X004246Y009613D03*
X004246Y009611D03*
X004246Y009607D03*
X004246Y009605D03*
X004246Y009603D03*
X004246Y009599D03*
X004246Y009597D03*
X004246Y009595D03*
X004248Y009591D03*
X004248Y009589D03*
X004066Y009658D03*
X004064Y009654D03*
X004062Y009647D03*
X004073Y009810D03*
X004073Y009815D03*
X004070Y009817D03*
X004070Y009819D03*
X004068Y009827D03*
X003610Y009857D03*
X003608Y009851D03*
X003048Y009776D03*
X003048Y009774D03*
X003048Y009770D03*
X003048Y009768D03*
X003048Y009766D03*
X003048Y009762D03*
X003048Y009760D03*
X003046Y009782D03*
X003046Y009784D03*
X003046Y009786D03*
X003044Y009794D03*
X003048Y009726D03*
X003048Y009722D03*
X003048Y009720D03*
X003048Y009718D03*
X003048Y009714D03*
X003048Y009712D03*
X003048Y009710D03*
X003046Y009706D03*
X003046Y009704D03*
X003046Y009702D03*
X003046Y009698D03*
X003044Y009690D03*
X003042Y009682D03*
X002597Y009722D03*
X002597Y009726D03*
X002597Y009728D03*
X002597Y009730D03*
X002597Y009734D03*
X002597Y009736D03*
X002597Y009738D03*
X002597Y009742D03*
X002597Y009744D03*
X002597Y009746D03*
X002597Y009750D03*
X002597Y009752D03*
X002597Y009754D03*
X002597Y009758D03*
X002597Y009760D03*
X002597Y009762D03*
X002595Y009774D03*
X002595Y009776D03*
X002595Y009778D03*
X002595Y009782D03*
X002595Y009784D03*
X002593Y009786D03*
X002593Y009790D03*
X002593Y009792D03*
X002593Y009794D03*
X002591Y009800D03*
X002591Y009802D03*
X002589Y009810D03*
X002595Y009714D03*
X002595Y009712D03*
X002595Y009710D03*
X002595Y009706D03*
X002595Y009704D03*
X002595Y009702D03*
X002593Y009698D03*
X002593Y009696D03*
X002593Y009694D03*
X002591Y009686D03*
X002114Y009680D03*
X002114Y009678D03*
X002112Y009686D03*
X002112Y009688D03*
X002112Y009690D03*
X002110Y009696D03*
X002110Y009698D03*
X002110Y009702D03*
X002110Y009704D03*
X002108Y009710D03*
X002108Y009712D03*
X002108Y009714D03*
X002108Y009718D03*
X002108Y009720D03*
X002108Y009722D03*
X002108Y009762D03*
X002108Y009766D03*
X002108Y009768D03*
X002108Y009770D03*
X002108Y009774D03*
X002108Y009776D03*
X002108Y009778D03*
X002110Y009782D03*
X002110Y009784D03*
X002110Y009786D03*
X002110Y009790D03*
X002112Y009794D03*
X002112Y009798D03*
X002112Y009800D03*
X002114Y009806D03*
X002114Y009808D03*
X001899Y009873D03*
X001899Y009875D03*
X001897Y009881D03*
X001261Y009875D03*
X001261Y009873D03*
X001259Y009867D03*
X001259Y009865D03*
D116*
X001579Y009847D03*
X001897Y009879D03*
X001899Y009871D03*
X001901Y009863D03*
X002112Y009796D03*
X002110Y009788D03*
X002108Y009772D03*
X002108Y009764D03*
X002108Y009724D03*
X002108Y009716D03*
X002108Y009708D03*
X002110Y009700D03*
X002112Y009692D03*
X002589Y009676D03*
X002591Y009684D03*
X002593Y009692D03*
X002593Y009700D03*
X002595Y009708D03*
X002597Y009724D03*
X002597Y009732D03*
X002597Y009740D03*
X002597Y009748D03*
X002597Y009756D03*
X002597Y009764D03*
X002595Y009772D03*
X002595Y009780D03*
X002593Y009788D03*
X003042Y009804D03*
X003044Y009796D03*
X003046Y009788D03*
X003046Y009780D03*
X003048Y009772D03*
X003048Y009764D03*
X003048Y009724D03*
X003048Y009716D03*
X003046Y009700D03*
X003044Y009692D03*
X003606Y009847D03*
X004070Y009821D03*
X004073Y009813D03*
X004064Y009651D03*
X004246Y009617D03*
X004246Y009609D03*
X004246Y009601D03*
X004610Y009871D03*
X004610Y009887D03*
X004610Y009895D03*
X004789Y009708D03*
X004791Y009700D03*
X005276Y009692D03*
X005278Y009700D03*
X005278Y009708D03*
X005280Y009716D03*
X005280Y009724D03*
X005280Y009732D03*
X005280Y009756D03*
X005280Y009764D03*
X005280Y009772D03*
X005278Y009780D03*
X005278Y009788D03*
X005276Y009796D03*
X005274Y009804D03*
X005638Y009577D03*
X006210Y010131D03*
X006490Y009821D03*
X006488Y009813D03*
X006486Y009804D03*
X006484Y009796D03*
X006504Y009358D03*
X006937Y009633D03*
X006941Y009643D03*
X006945Y009821D03*
X006943Y009829D03*
X006939Y009839D03*
D117*
X006504Y009360D03*
X004610Y009869D03*
X004610Y009893D03*
X003608Y009853D03*
X001579Y009845D03*
X001261Y009877D03*
D118*
X001258Y009859D03*
X001258Y009857D03*
X001580Y009843D03*
X001580Y009841D03*
X001580Y009835D03*
X001580Y009833D03*
X001580Y009831D03*
X001900Y009865D03*
X001900Y009867D03*
X001902Y009859D03*
X001902Y009857D03*
X002107Y009760D03*
X002107Y009758D03*
X002107Y009754D03*
X002107Y009752D03*
X002107Y009750D03*
X002107Y009746D03*
X002107Y009744D03*
X002107Y009742D03*
X002107Y009738D03*
X002107Y009736D03*
X002107Y009734D03*
X002107Y009730D03*
X002107Y009728D03*
X002107Y009726D03*
X002109Y009706D03*
X002596Y009718D03*
X002596Y009720D03*
X002596Y009766D03*
X002596Y009768D03*
X002596Y009770D03*
X003047Y009778D03*
X003049Y009758D03*
X003049Y009754D03*
X003049Y009752D03*
X003049Y009750D03*
X003049Y009746D03*
X003049Y009744D03*
X003049Y009742D03*
X003049Y009738D03*
X003049Y009736D03*
X003049Y009734D03*
X003049Y009730D03*
X003049Y009728D03*
X003325Y009563D03*
X003607Y009849D03*
X003747Y009547D03*
X004065Y009656D03*
X004067Y009662D03*
X004069Y009666D03*
X004078Y009786D03*
X004076Y009798D03*
X004076Y009800D03*
X004076Y009802D03*
X004074Y009806D03*
X004074Y009808D03*
X004611Y009875D03*
X004611Y009881D03*
X004611Y009883D03*
X004790Y009706D03*
X004790Y009704D03*
X005279Y009710D03*
X005279Y009776D03*
X005641Y009583D03*
X005639Y009579D03*
X006209Y010129D03*
X006485Y009802D03*
X006485Y009800D03*
X006485Y009798D03*
X006483Y009792D03*
X006483Y009790D03*
X006483Y009786D03*
X006483Y009784D03*
X006481Y009776D03*
X006481Y009774D03*
X006499Y009370D03*
X006501Y009364D03*
X006503Y009362D03*
X006942Y009645D03*
X006946Y009656D03*
X006948Y009662D03*
X006952Y009794D03*
X006950Y009802D03*
X006950Y009806D03*
X006948Y009808D03*
X006948Y009810D03*
X006948Y009815D03*
X006946Y009817D03*
X006946Y009819D03*
D119*
X006948Y009813D03*
X006950Y009804D03*
X006952Y009796D03*
X006630Y009545D03*
X006501Y009366D03*
X006481Y009772D03*
X006483Y009788D03*
X006209Y010195D03*
X005116Y009692D03*
X004611Y009879D03*
X004078Y009788D03*
X004076Y009796D03*
X004074Y009804D03*
X004069Y009668D03*
X004067Y009660D03*
X003325Y009472D03*
X003047Y009708D03*
X003049Y009732D03*
X003049Y009740D03*
X003049Y009748D03*
X003049Y009756D03*
X002596Y009716D03*
X002107Y009732D03*
X002107Y009740D03*
X002107Y009748D03*
X002107Y009756D03*
X002109Y009780D03*
X001902Y009855D03*
X001580Y009839D03*
X001260Y009871D03*
X001258Y009863D03*
X001258Y009855D03*
D120*
X001257Y009853D03*
X001257Y009845D03*
X001903Y009845D03*
X001903Y009837D03*
X006496Y009376D03*
X006500Y009368D03*
D121*
X006498Y009372D03*
X006496Y009378D03*
X006480Y009742D03*
X006480Y009744D03*
X006480Y009746D03*
X006480Y009750D03*
X006480Y009752D03*
X006480Y009754D03*
X006480Y009758D03*
X006480Y009760D03*
X006480Y009762D03*
X006480Y009766D03*
X006480Y009768D03*
X006480Y009770D03*
X006482Y009778D03*
X006482Y009782D03*
X006210Y010197D03*
X005645Y009591D03*
X005645Y009589D03*
X005643Y009587D03*
X005117Y009690D03*
X004081Y009736D03*
X004081Y009738D03*
X004081Y009742D03*
X004081Y009744D03*
X004081Y009746D03*
X004081Y009750D03*
X004081Y009752D03*
X004081Y009754D03*
X004081Y009758D03*
X004081Y009760D03*
X004081Y009762D03*
X004079Y009774D03*
X004079Y009776D03*
X004079Y009778D03*
X004079Y009782D03*
X004079Y009784D03*
X004077Y009790D03*
X004077Y009792D03*
X004077Y009794D03*
X004079Y009710D03*
X004077Y009698D03*
X004077Y009696D03*
X004077Y009694D03*
X004075Y009688D03*
X004075Y009686D03*
X004068Y009664D03*
X003595Y009786D03*
X003595Y009790D03*
X003598Y009810D03*
X003600Y009823D03*
X003600Y009825D03*
X003600Y009827D03*
X003326Y009470D03*
X001903Y009831D03*
X001903Y009833D03*
X001903Y009835D03*
X001903Y009841D03*
X001903Y009843D03*
X001903Y009849D03*
X001903Y009851D03*
X001579Y009827D03*
X001579Y009825D03*
X001257Y009841D03*
X001257Y009843D03*
X001257Y009849D03*
X001257Y009851D03*
X006947Y009658D03*
X006949Y009664D03*
X006949Y009666D03*
X006951Y009672D03*
X006951Y009674D03*
X006953Y009682D03*
X006955Y009694D03*
X006957Y009710D03*
X006957Y009712D03*
X006957Y009750D03*
X006957Y009752D03*
X006957Y009754D03*
X006957Y009758D03*
X006957Y009760D03*
X006957Y009762D03*
X006955Y009770D03*
X006955Y009774D03*
X006955Y009776D03*
X006955Y009778D03*
X006955Y009782D03*
X006953Y009784D03*
X006953Y009786D03*
X006953Y009790D03*
X006953Y009792D03*
X006951Y009798D03*
X006951Y009800D03*
D122*
X006953Y009788D03*
X006955Y009780D03*
X006955Y009772D03*
X006957Y009756D03*
X006953Y009684D03*
X006951Y009676D03*
X006949Y009668D03*
X006947Y009660D03*
X006480Y009748D03*
X006480Y009756D03*
X006480Y009764D03*
X006482Y009780D03*
X006494Y009382D03*
X006498Y009374D03*
X005643Y009585D03*
X005645Y009593D03*
X005647Y009601D03*
X004081Y009740D03*
X004081Y009748D03*
X004081Y009756D03*
X004079Y009772D03*
X004079Y009780D03*
X004075Y009684D03*
X003595Y009788D03*
X003598Y009813D03*
X003600Y009821D03*
X001903Y009839D03*
X001903Y009847D03*
X001579Y009829D03*
X001257Y009839D03*
X001257Y009847D03*
D123*
X001256Y009835D03*
X001256Y009833D03*
X001256Y009831D03*
X001256Y009827D03*
X001256Y009825D03*
X001256Y009823D03*
X001256Y009819D03*
X001256Y009817D03*
X001256Y009815D03*
X001256Y009810D03*
X001256Y009808D03*
X001256Y009806D03*
X001256Y009802D03*
X001256Y009800D03*
X001256Y009798D03*
X001256Y009794D03*
X001256Y009792D03*
X001256Y009790D03*
X001256Y009786D03*
X001256Y009784D03*
X001256Y009782D03*
X001256Y009778D03*
X001256Y009776D03*
X001256Y009774D03*
X001256Y009770D03*
X001256Y009768D03*
X001256Y009766D03*
X001256Y009762D03*
X001256Y009760D03*
X001256Y009758D03*
X001256Y009754D03*
X001256Y009752D03*
X001256Y009750D03*
X001256Y009746D03*
X001256Y009744D03*
X001256Y009742D03*
X001256Y009738D03*
X001256Y009736D03*
X001256Y009734D03*
X001256Y009730D03*
X001256Y009728D03*
X001256Y009726D03*
X001256Y009722D03*
X001256Y009720D03*
X001256Y009718D03*
X001256Y009714D03*
X001256Y009712D03*
X001256Y009710D03*
X001256Y009706D03*
X001256Y009704D03*
X001256Y009702D03*
X001256Y009698D03*
X001256Y009696D03*
X001256Y009694D03*
X001256Y009690D03*
X001256Y009688D03*
X001256Y009686D03*
X001256Y009682D03*
X001256Y009680D03*
X001256Y009678D03*
X001256Y009674D03*
X001256Y009672D03*
X001256Y009670D03*
X001256Y009666D03*
X001256Y009664D03*
X001256Y009662D03*
X001256Y009658D03*
X001256Y009656D03*
X001256Y009654D03*
X001256Y009649D03*
X001256Y009647D03*
X001256Y009645D03*
X001256Y009641D03*
X001256Y009639D03*
X001256Y009637D03*
X001256Y009635D03*
X001256Y009631D03*
X001256Y009629D03*
X001256Y009627D03*
X001256Y009623D03*
X001256Y009621D03*
X001256Y009619D03*
X001256Y009615D03*
X001256Y009613D03*
X001256Y009611D03*
X001256Y009607D03*
X001256Y009605D03*
X001256Y009603D03*
X001256Y009599D03*
X001256Y009597D03*
X001256Y009595D03*
X001256Y009591D03*
X001256Y009589D03*
X001256Y009587D03*
X001256Y009583D03*
X001256Y009581D03*
X001256Y009579D03*
X001256Y009575D03*
X001256Y009573D03*
X001256Y009571D03*
X001256Y009567D03*
X001256Y009565D03*
X001256Y009563D03*
X001256Y009559D03*
X001256Y009557D03*
X001256Y009555D03*
X001256Y009551D03*
X001256Y009549D03*
X001256Y009547D03*
X001256Y009543D03*
X001256Y009541D03*
X001256Y009539D03*
X001256Y009535D03*
X001256Y009533D03*
X001256Y009531D03*
X001256Y009527D03*
X001256Y009525D03*
X001256Y009523D03*
X001256Y009519D03*
X001256Y009517D03*
X001256Y009515D03*
X001256Y009511D03*
X001256Y009509D03*
X001256Y009507D03*
X001256Y009503D03*
X001256Y009501D03*
X001256Y009499D03*
X001256Y009494D03*
X001256Y009492D03*
X001256Y009490D03*
X001256Y009486D03*
X001256Y009484D03*
X001256Y009482D03*
X001256Y009478D03*
X001256Y009476D03*
X001256Y009474D03*
X001256Y009470D03*
X001256Y009468D03*
X001256Y009466D03*
X001256Y009462D03*
X001256Y009460D03*
X001256Y009458D03*
X001256Y009454D03*
X001580Y009454D03*
X001580Y009458D03*
X001580Y009460D03*
X001580Y009462D03*
X001580Y009466D03*
X001580Y009468D03*
X001580Y009470D03*
X001580Y009474D03*
X001580Y009476D03*
X001580Y009478D03*
X001580Y009482D03*
X001580Y009484D03*
X001580Y009486D03*
X001580Y009490D03*
X001580Y009492D03*
X001580Y009494D03*
X001580Y009499D03*
X001580Y009501D03*
X001580Y009503D03*
X001580Y009507D03*
X001580Y009509D03*
X001580Y009511D03*
X001580Y009515D03*
X001580Y009517D03*
X001580Y009519D03*
X001580Y009523D03*
X001580Y009525D03*
X001580Y009527D03*
X001580Y009531D03*
X001580Y009533D03*
X001580Y009535D03*
X001580Y009539D03*
X001580Y009541D03*
X001580Y009543D03*
X001580Y009547D03*
X001580Y009549D03*
X001580Y009551D03*
X001580Y009555D03*
X001580Y009557D03*
X001580Y009559D03*
X001580Y009563D03*
X001580Y009565D03*
X001580Y009567D03*
X001580Y009571D03*
X001580Y009573D03*
X001580Y009575D03*
X001580Y009579D03*
X001580Y009581D03*
X001580Y009583D03*
X001580Y009587D03*
X001580Y009589D03*
X001580Y009591D03*
X001580Y009595D03*
X001580Y009597D03*
X001580Y009599D03*
X001580Y009603D03*
X001580Y009605D03*
X001580Y009607D03*
X001580Y009611D03*
X001580Y009613D03*
X001580Y009615D03*
X001580Y009619D03*
X001580Y009621D03*
X001580Y009623D03*
X001580Y009627D03*
X001580Y009629D03*
X001580Y009631D03*
X001580Y009635D03*
X001580Y009637D03*
X001580Y009639D03*
X001580Y009641D03*
X001580Y009645D03*
X001580Y009647D03*
X001580Y009649D03*
X001580Y009654D03*
X001580Y009656D03*
X001580Y009658D03*
X001580Y009662D03*
X001580Y009664D03*
X001580Y009666D03*
X001580Y009670D03*
X001580Y009672D03*
X001580Y009674D03*
X001580Y009678D03*
X001580Y009680D03*
X001580Y009682D03*
X001580Y009686D03*
X001580Y009688D03*
X001580Y009690D03*
X001580Y009694D03*
X001580Y009696D03*
X001580Y009698D03*
X001580Y009702D03*
X001580Y009704D03*
X001580Y009706D03*
X001580Y009710D03*
X001580Y009712D03*
X001580Y009714D03*
X001580Y009718D03*
X001580Y009720D03*
X001580Y009722D03*
X001580Y009726D03*
X001580Y009728D03*
X001580Y009730D03*
X001580Y009734D03*
X001580Y009736D03*
X001580Y009738D03*
X001580Y009742D03*
X001580Y009744D03*
X001580Y009746D03*
X001580Y009750D03*
X001580Y009752D03*
X001580Y009754D03*
X001580Y009758D03*
X001580Y009760D03*
X001580Y009762D03*
X001580Y009766D03*
X001580Y009768D03*
X001580Y009770D03*
X001580Y009774D03*
X001580Y009776D03*
X001580Y009778D03*
X001580Y009782D03*
X001580Y009784D03*
X001580Y009786D03*
X001580Y009790D03*
X001580Y009792D03*
X001580Y009794D03*
X001580Y009798D03*
X001580Y009800D03*
X001580Y009802D03*
X001580Y009806D03*
X001580Y009808D03*
X001580Y009810D03*
X001580Y009815D03*
X001580Y009817D03*
X001580Y009819D03*
X001580Y009823D03*
X001904Y009823D03*
X001904Y009825D03*
X001904Y009827D03*
X001904Y009819D03*
X001904Y009817D03*
X001904Y009815D03*
X001904Y009810D03*
X001904Y009808D03*
X001904Y009806D03*
X001904Y009802D03*
X001904Y009800D03*
X001904Y009798D03*
X001904Y009794D03*
X001904Y009792D03*
X001904Y009790D03*
X001904Y009786D03*
X001904Y009784D03*
X001904Y009782D03*
X001904Y009778D03*
X001904Y009776D03*
X001904Y009774D03*
X001904Y009770D03*
X001904Y009768D03*
X001904Y009766D03*
X001904Y009762D03*
X001904Y009760D03*
X001904Y009758D03*
X001904Y009754D03*
X001904Y009752D03*
X001904Y009750D03*
X001904Y009746D03*
X001904Y009744D03*
X001904Y009742D03*
X001904Y009738D03*
X001904Y009736D03*
X001904Y009734D03*
X001904Y009730D03*
X001904Y009728D03*
X001904Y009726D03*
X001904Y009722D03*
X001904Y009720D03*
X001904Y009718D03*
X001904Y009714D03*
X001904Y009712D03*
X001904Y009710D03*
X001904Y009706D03*
X001904Y009704D03*
X001904Y009702D03*
X001904Y009698D03*
X001904Y009696D03*
X001904Y009694D03*
X001904Y009690D03*
X001904Y009688D03*
X001904Y009686D03*
X001904Y009682D03*
X001904Y009680D03*
X001904Y009678D03*
X001904Y009674D03*
X001904Y009672D03*
X001904Y009670D03*
X001904Y009666D03*
X001904Y009664D03*
X001904Y009662D03*
X001904Y009658D03*
X001904Y009656D03*
X001904Y009654D03*
X001904Y009649D03*
X001904Y009647D03*
X001904Y009645D03*
X001904Y009641D03*
X001904Y009639D03*
X001904Y009637D03*
X001904Y009635D03*
X001904Y009631D03*
X001904Y009629D03*
X001904Y009627D03*
X001904Y009623D03*
X001904Y009621D03*
X001904Y009619D03*
X001904Y009615D03*
X001904Y009613D03*
X001904Y009611D03*
X001904Y009607D03*
X001904Y009605D03*
X001904Y009603D03*
X001904Y009599D03*
X001904Y009597D03*
X001904Y009595D03*
X001904Y009591D03*
X001904Y009589D03*
X001904Y009587D03*
X001904Y009583D03*
X001904Y009581D03*
X001904Y009579D03*
X001904Y009575D03*
X001904Y009573D03*
X001904Y009571D03*
X001904Y009567D03*
X001904Y009565D03*
X001904Y009563D03*
X001904Y009559D03*
X001904Y009557D03*
X001904Y009555D03*
X001904Y009551D03*
X001904Y009549D03*
X001904Y009547D03*
X001904Y009543D03*
X001904Y009541D03*
X001904Y009539D03*
X001904Y009535D03*
X001904Y009533D03*
X001904Y009531D03*
X001904Y009527D03*
X001904Y009525D03*
X001904Y009523D03*
X001904Y009519D03*
X001904Y009517D03*
X001904Y009515D03*
X001904Y009511D03*
X001904Y009509D03*
X001904Y009507D03*
X001904Y009503D03*
X001904Y009501D03*
X001904Y009499D03*
X001904Y009494D03*
X001904Y009492D03*
X001904Y009490D03*
X001904Y009486D03*
X001904Y009484D03*
X001904Y009482D03*
X001904Y009478D03*
X001904Y009476D03*
X001904Y009474D03*
X001904Y009470D03*
X001904Y009468D03*
X001904Y009466D03*
X001904Y009462D03*
X001904Y009460D03*
X001904Y009458D03*
X001904Y009454D03*
X003325Y009565D03*
X003594Y009565D03*
X003594Y009567D03*
X003594Y009571D03*
X003594Y009573D03*
X003594Y009575D03*
X003594Y009579D03*
X003594Y009581D03*
X003594Y009583D03*
X003594Y009587D03*
X003594Y009589D03*
X003594Y009591D03*
X003594Y009595D03*
X003594Y009597D03*
X003594Y009599D03*
X003594Y009603D03*
X003594Y009605D03*
X003594Y009607D03*
X003594Y009611D03*
X003594Y009613D03*
X003594Y009615D03*
X003594Y009619D03*
X003594Y009621D03*
X003594Y009623D03*
X003594Y009627D03*
X003594Y009629D03*
X003594Y009631D03*
X003594Y009635D03*
X003594Y009637D03*
X003594Y009639D03*
X003594Y009641D03*
X003594Y009645D03*
X003594Y009647D03*
X003594Y009649D03*
X003594Y009654D03*
X003594Y009656D03*
X003594Y009658D03*
X003594Y009662D03*
X003594Y009664D03*
X003594Y009666D03*
X003594Y009670D03*
X003594Y009672D03*
X003594Y009674D03*
X003594Y009678D03*
X003594Y009680D03*
X003594Y009682D03*
X003594Y009686D03*
X003594Y009688D03*
X003594Y009690D03*
X003594Y009694D03*
X003594Y009696D03*
X003594Y009698D03*
X003594Y009702D03*
X003594Y009704D03*
X003594Y009706D03*
X003594Y009710D03*
X003594Y009712D03*
X003594Y009714D03*
X003594Y009718D03*
X003594Y009720D03*
X003594Y009722D03*
X003594Y009726D03*
X003594Y009728D03*
X003594Y009730D03*
X003594Y009734D03*
X003594Y009736D03*
X003594Y009738D03*
X003594Y009742D03*
X003594Y009744D03*
X003594Y009746D03*
X003594Y009750D03*
X003594Y009752D03*
X003594Y009754D03*
X003594Y009758D03*
X003594Y009760D03*
X003594Y009762D03*
X003594Y009766D03*
X003594Y009768D03*
X003594Y009770D03*
X003594Y009774D03*
X003594Y009776D03*
X003594Y009778D03*
X003594Y009782D03*
X003594Y009784D03*
X003596Y009792D03*
X003596Y009794D03*
X003596Y009798D03*
X003596Y009800D03*
X003596Y009802D03*
X003596Y009806D03*
X003596Y009808D03*
X003599Y009815D03*
X003599Y009817D03*
X003599Y009819D03*
X003594Y009563D03*
X003594Y009559D03*
X003594Y009557D03*
X003594Y009555D03*
X003594Y009551D03*
X003594Y009549D03*
X003594Y009547D03*
X003594Y009543D03*
X003594Y009541D03*
X003594Y009539D03*
X003594Y009535D03*
X003594Y009533D03*
X003594Y009531D03*
X003594Y009527D03*
X003594Y009525D03*
X003594Y009523D03*
X003594Y009519D03*
X003594Y009517D03*
X003594Y009515D03*
X003594Y009511D03*
X003594Y009509D03*
X003594Y009507D03*
X003594Y009503D03*
X003594Y009501D03*
X003594Y009499D03*
X003594Y009494D03*
X003594Y009492D03*
X003594Y009490D03*
X003594Y009486D03*
X003594Y009484D03*
X003594Y009482D03*
X003594Y009478D03*
X003594Y009476D03*
X003594Y009474D03*
X003594Y009470D03*
X003594Y009468D03*
X003594Y009466D03*
X003594Y009462D03*
X003594Y009460D03*
X003594Y009458D03*
X003594Y009454D03*
X004076Y009690D03*
X004078Y009702D03*
X004078Y009704D03*
X004078Y009706D03*
X004080Y009712D03*
X004080Y009714D03*
X004080Y009718D03*
X004080Y009720D03*
X004080Y009722D03*
X004080Y009726D03*
X004080Y009728D03*
X004080Y009730D03*
X004080Y009734D03*
X004080Y009766D03*
X004080Y009768D03*
X004080Y009770D03*
X005650Y009770D03*
X005650Y009768D03*
X005650Y009766D03*
X005650Y009762D03*
X005650Y009760D03*
X005650Y009758D03*
X005650Y009754D03*
X005650Y009752D03*
X005650Y009750D03*
X005650Y009746D03*
X005650Y009744D03*
X005650Y009742D03*
X005650Y009738D03*
X005650Y009736D03*
X005650Y009734D03*
X005650Y009730D03*
X005650Y009728D03*
X005650Y009726D03*
X005650Y009722D03*
X005650Y009720D03*
X005650Y009718D03*
X005650Y009714D03*
X005650Y009712D03*
X005650Y009710D03*
X005650Y009706D03*
X005650Y009704D03*
X005650Y009702D03*
X005650Y009698D03*
X005650Y009696D03*
X005650Y009694D03*
X005650Y009690D03*
X005650Y009688D03*
X005650Y009686D03*
X005650Y009682D03*
X005650Y009680D03*
X005650Y009678D03*
X005650Y009674D03*
X005650Y009672D03*
X005650Y009670D03*
X005650Y009666D03*
X005650Y009664D03*
X005650Y009662D03*
X005650Y009658D03*
X005650Y009656D03*
X005650Y009654D03*
X005650Y009649D03*
X005650Y009647D03*
X005650Y009645D03*
X005650Y009641D03*
X005650Y009639D03*
X005650Y009637D03*
X005650Y009635D03*
X005650Y009631D03*
X005650Y009629D03*
X005650Y009627D03*
X005650Y009623D03*
X005650Y009621D03*
X005648Y009619D03*
X005648Y009615D03*
X005648Y009613D03*
X005648Y009611D03*
X005648Y009607D03*
X005648Y009605D03*
X005648Y009603D03*
X005646Y009599D03*
X005646Y009597D03*
X005646Y009595D03*
X005650Y009774D03*
X005650Y009776D03*
X005650Y009778D03*
X005650Y009782D03*
X005650Y009784D03*
X005650Y009786D03*
X005650Y009790D03*
X005650Y009792D03*
X005650Y009794D03*
X005650Y009798D03*
X005650Y009800D03*
X005650Y009802D03*
X005650Y009806D03*
X005650Y009808D03*
X005650Y009810D03*
X005650Y009815D03*
X005650Y009817D03*
X005650Y009819D03*
X005650Y009823D03*
X005650Y009825D03*
X005650Y009827D03*
X005650Y009831D03*
X005650Y009833D03*
X005650Y009835D03*
X005650Y009841D03*
X005650Y009843D03*
X005650Y009849D03*
X005650Y009851D03*
X005650Y009857D03*
X005650Y009859D03*
X005650Y009865D03*
X005650Y009867D03*
X005650Y009873D03*
X005650Y009875D03*
X005650Y009881D03*
X005650Y009883D03*
X005650Y009889D03*
X005650Y009891D03*
X005650Y009897D03*
X005650Y009899D03*
X005650Y009905D03*
X005650Y009907D03*
X005650Y009913D03*
X005650Y009915D03*
X005650Y009921D03*
X005650Y009923D03*
X005650Y009929D03*
X005650Y010036D03*
X005650Y010040D03*
X005650Y010044D03*
X005650Y010048D03*
X005650Y010052D03*
X005650Y010056D03*
X005650Y010060D03*
X005650Y010064D03*
X005650Y010068D03*
X005650Y010072D03*
X005650Y010076D03*
X005650Y010080D03*
X005650Y010084D03*
X005650Y010088D03*
X005650Y010092D03*
X005650Y010096D03*
X005650Y010100D03*
X005650Y010104D03*
X005650Y010108D03*
X005650Y010112D03*
X005650Y010116D03*
X005650Y010120D03*
X005650Y010124D03*
X005650Y010129D03*
X005650Y010133D03*
X005650Y010137D03*
X005650Y010141D03*
X005650Y010145D03*
X005650Y010149D03*
X005650Y010153D03*
X005650Y010157D03*
X005650Y010161D03*
X005650Y010165D03*
X005650Y010169D03*
X005650Y010173D03*
X005650Y010177D03*
X006209Y010124D03*
X006209Y010032D03*
X006209Y010028D03*
X006209Y010026D03*
X006209Y010020D03*
X006209Y010018D03*
X006209Y010012D03*
X006209Y010010D03*
X006209Y010004D03*
X006209Y010002D03*
X006209Y009996D03*
X006209Y009994D03*
X006209Y009988D03*
X006209Y009986D03*
X006209Y009980D03*
X006209Y009978D03*
X006209Y009972D03*
X006209Y009970D03*
X006209Y009963D03*
X006209Y009961D03*
X006209Y009955D03*
X006209Y009953D03*
X006209Y009947D03*
X006209Y009945D03*
X006209Y009939D03*
X006209Y009937D03*
X006209Y009931D03*
X006209Y009929D03*
X006209Y009923D03*
X006209Y009921D03*
X006209Y009915D03*
X006209Y009913D03*
X006209Y009907D03*
X006209Y009905D03*
X006209Y009899D03*
X006209Y009897D03*
X006209Y009891D03*
X006209Y009889D03*
X006209Y009883D03*
X006209Y009881D03*
X006209Y009875D03*
X006209Y009873D03*
X006209Y009867D03*
X006209Y009865D03*
X006209Y009859D03*
X006209Y009857D03*
X006209Y009851D03*
X006209Y009849D03*
X006209Y009843D03*
X006209Y009841D03*
X006209Y009835D03*
X006209Y009833D03*
X006209Y009831D03*
X006209Y009827D03*
X006209Y009825D03*
X006209Y009823D03*
X006209Y009819D03*
X006209Y009817D03*
X006209Y009815D03*
X006209Y009810D03*
X006209Y009808D03*
X006209Y009806D03*
X006209Y009802D03*
X006209Y009800D03*
X006209Y009798D03*
X006209Y009794D03*
X006209Y009792D03*
X006209Y009790D03*
X006209Y009786D03*
X006209Y009784D03*
X006209Y009782D03*
X006209Y009778D03*
X006209Y009776D03*
X006209Y009774D03*
X006209Y009770D03*
X006209Y009768D03*
X006209Y009766D03*
X006209Y009762D03*
X006209Y009760D03*
X006209Y009758D03*
X006209Y009754D03*
X006209Y009752D03*
X006209Y009750D03*
X006209Y009746D03*
X006209Y009744D03*
X006209Y009742D03*
X006209Y009738D03*
X006209Y009736D03*
X006209Y009734D03*
X006209Y009730D03*
X006209Y009728D03*
X006209Y009726D03*
X006209Y009722D03*
X006209Y009720D03*
X006209Y009718D03*
X006209Y009714D03*
X006209Y009712D03*
X006209Y009710D03*
X006209Y009706D03*
X006209Y009704D03*
X006209Y009702D03*
X006209Y009698D03*
X006209Y009696D03*
X006209Y009694D03*
X006209Y009690D03*
X006209Y009688D03*
X006209Y009686D03*
X006209Y009682D03*
X006209Y009680D03*
X006209Y009678D03*
X006209Y009674D03*
X006209Y009672D03*
X006209Y009670D03*
X006209Y009666D03*
X006209Y009664D03*
X006209Y009662D03*
X006209Y009658D03*
X006209Y009656D03*
X006209Y009654D03*
X006209Y009649D03*
X006209Y009647D03*
X006209Y009645D03*
X006209Y009641D03*
X006209Y009639D03*
X006209Y009637D03*
X006209Y009635D03*
X006209Y009631D03*
X006209Y009629D03*
X006209Y009627D03*
X006209Y009623D03*
X006209Y009621D03*
X006209Y009619D03*
X006209Y009615D03*
X006209Y009613D03*
X006209Y009611D03*
X006209Y009607D03*
X006209Y009605D03*
X006209Y009603D03*
X006209Y009599D03*
X006209Y009597D03*
X006209Y009595D03*
X006209Y009591D03*
X006209Y009589D03*
X006209Y009587D03*
X006209Y009583D03*
X006209Y009581D03*
X006209Y009579D03*
X006209Y009575D03*
X006209Y009573D03*
X006209Y009571D03*
X006209Y009567D03*
X006209Y009565D03*
X006209Y009563D03*
X006209Y009559D03*
X006209Y009557D03*
X006209Y009555D03*
X006209Y009551D03*
X006209Y009549D03*
X006209Y009547D03*
X006209Y009543D03*
X006209Y009541D03*
X006209Y009539D03*
X006209Y009535D03*
X006209Y009533D03*
X006209Y009531D03*
X006209Y009527D03*
X006209Y009525D03*
X006209Y009523D03*
X006209Y009519D03*
X006209Y009517D03*
X006209Y009515D03*
X006209Y009511D03*
X006209Y009509D03*
X006209Y009507D03*
X006209Y009503D03*
X006209Y009501D03*
X006209Y009499D03*
X006209Y009494D03*
X006209Y009492D03*
X006209Y009490D03*
X006209Y009486D03*
X006209Y009484D03*
X006209Y009482D03*
X006209Y009478D03*
X006209Y009476D03*
X006209Y009474D03*
X006209Y009470D03*
X006209Y009468D03*
X006209Y009466D03*
X006209Y009462D03*
X006209Y009460D03*
X006209Y009458D03*
X006209Y009454D03*
X006479Y009474D03*
X006479Y009476D03*
X006479Y009478D03*
X006479Y009482D03*
X006479Y009484D03*
X006479Y009486D03*
X006479Y009490D03*
X006479Y009492D03*
X006479Y009494D03*
X006479Y009499D03*
X006479Y009501D03*
X006479Y009503D03*
X006479Y009507D03*
X006479Y009509D03*
X006479Y009511D03*
X006479Y009515D03*
X006479Y009517D03*
X006479Y009519D03*
X006479Y009523D03*
X006479Y009525D03*
X006479Y009527D03*
X006479Y009531D03*
X006479Y009533D03*
X006479Y009535D03*
X006479Y009539D03*
X006479Y009541D03*
X006479Y009543D03*
X006479Y009547D03*
X006479Y009549D03*
X006479Y009551D03*
X006479Y009555D03*
X006479Y009557D03*
X006479Y009559D03*
X006479Y009563D03*
X006479Y009565D03*
X006479Y009567D03*
X006479Y009571D03*
X006479Y009573D03*
X006479Y009575D03*
X006479Y009579D03*
X006479Y009581D03*
X006479Y009583D03*
X006479Y009587D03*
X006479Y009589D03*
X006479Y009591D03*
X006479Y009595D03*
X006479Y009597D03*
X006479Y009599D03*
X006479Y009603D03*
X006479Y009605D03*
X006479Y009607D03*
X006479Y009611D03*
X006479Y009613D03*
X006479Y009615D03*
X006479Y009619D03*
X006479Y009621D03*
X006479Y009623D03*
X006479Y009627D03*
X006479Y009629D03*
X006479Y009631D03*
X006479Y009635D03*
X006479Y009637D03*
X006479Y009639D03*
X006479Y009641D03*
X006479Y009645D03*
X006479Y009647D03*
X006479Y009649D03*
X006479Y009654D03*
X006479Y009656D03*
X006479Y009658D03*
X006479Y009662D03*
X006479Y009664D03*
X006479Y009666D03*
X006479Y009670D03*
X006479Y009672D03*
X006479Y009674D03*
X006479Y009678D03*
X006479Y009680D03*
X006479Y009682D03*
X006479Y009686D03*
X006479Y009688D03*
X006479Y009690D03*
X006479Y009694D03*
X006479Y009696D03*
X006479Y009698D03*
X006479Y009702D03*
X006479Y009704D03*
X006479Y009706D03*
X006479Y009710D03*
X006479Y009712D03*
X006479Y009714D03*
X006479Y009718D03*
X006479Y009720D03*
X006479Y009722D03*
X006479Y009726D03*
X006479Y009728D03*
X006479Y009730D03*
X006479Y009734D03*
X006479Y009736D03*
X006479Y009738D03*
X006481Y009454D03*
X006481Y009452D03*
X006481Y009450D03*
X006481Y009446D03*
X006495Y009380D03*
X006950Y009670D03*
X006952Y009678D03*
X006952Y009680D03*
X006954Y009686D03*
X006954Y009688D03*
X006954Y009690D03*
X006956Y009696D03*
X006956Y009698D03*
X006956Y009702D03*
X006956Y009704D03*
X006956Y009706D03*
X006956Y009766D03*
X006956Y009768D03*
D124*
X006489Y009400D03*
X006491Y009392D03*
X006493Y009384D03*
X005909Y009837D03*
X005909Y009845D03*
X005909Y009853D03*
X005909Y009861D03*
X005909Y009869D03*
X005909Y009877D03*
X005909Y009885D03*
X005909Y009893D03*
X005909Y009901D03*
X005909Y009909D03*
X005909Y009917D03*
X005909Y009925D03*
X005909Y009933D03*
X005909Y009941D03*
X005909Y009949D03*
X005909Y009957D03*
X005909Y009965D03*
X005909Y009974D03*
X005909Y009982D03*
X005909Y009990D03*
X005909Y009998D03*
X005909Y010006D03*
X005909Y010014D03*
X005909Y010022D03*
X005909Y010030D03*
X005909Y010038D03*
X005909Y010046D03*
X005909Y010054D03*
X005909Y010062D03*
X005909Y010070D03*
X005909Y010078D03*
X005909Y010086D03*
X005909Y010094D03*
X005909Y010102D03*
X005909Y010110D03*
X005909Y010118D03*
X005909Y010127D03*
X005909Y010135D03*
X005909Y010143D03*
X005909Y010151D03*
X005909Y010159D03*
X005909Y010167D03*
X005909Y010175D03*
X005909Y010183D03*
X005909Y010191D03*
X005909Y010199D03*
X005909Y010207D03*
X005909Y010215D03*
X005909Y010223D03*
X005909Y010231D03*
X005909Y010239D03*
X005909Y010247D03*
X005909Y010255D03*
X005909Y010263D03*
X005909Y010271D03*
X005909Y010279D03*
X005909Y010288D03*
X005909Y010296D03*
D125*
X005909Y010298D03*
X005909Y010292D03*
X005909Y010290D03*
X005909Y010284D03*
X005909Y010281D03*
X005909Y010275D03*
X005909Y010273D03*
X005909Y010267D03*
X005909Y010265D03*
X005909Y010259D03*
X005909Y010257D03*
X005909Y010251D03*
X005909Y010249D03*
X005909Y010243D03*
X005909Y010241D03*
X005909Y010235D03*
X005909Y010233D03*
X005909Y010229D03*
X005909Y010225D03*
X005909Y010221D03*
X005909Y010217D03*
X005909Y010213D03*
X005909Y010209D03*
X005909Y010205D03*
X005909Y010201D03*
X005909Y010197D03*
X005909Y010193D03*
X005909Y010189D03*
X005909Y010185D03*
X005909Y010181D03*
X005909Y010177D03*
X005909Y010173D03*
X005909Y010169D03*
X005909Y010165D03*
X005909Y010161D03*
X005909Y010157D03*
X005909Y010153D03*
X005909Y010149D03*
X005909Y010145D03*
X005909Y010141D03*
X005909Y010137D03*
X005909Y010133D03*
X005909Y010129D03*
X005909Y010124D03*
X005909Y010120D03*
X005909Y010116D03*
X005909Y010112D03*
X005909Y010108D03*
X005909Y010104D03*
X005909Y010100D03*
X005909Y010096D03*
X005909Y010092D03*
X005909Y010088D03*
X005909Y010084D03*
X005909Y010080D03*
X005909Y010076D03*
X005909Y010072D03*
X005909Y010068D03*
X005909Y010064D03*
X005909Y010060D03*
X005909Y010056D03*
X005909Y010052D03*
X005909Y010048D03*
X005909Y010044D03*
X005909Y010040D03*
X005909Y010036D03*
X005909Y010032D03*
X005909Y010028D03*
X005909Y010026D03*
X005909Y010020D03*
X005909Y010018D03*
X005909Y010012D03*
X005909Y010010D03*
X005909Y010004D03*
X005909Y010002D03*
X005909Y009996D03*
X005909Y009994D03*
X005909Y009988D03*
X005909Y009986D03*
X005909Y009980D03*
X005909Y009978D03*
X005909Y009972D03*
X005909Y009970D03*
X005909Y009963D03*
X005909Y009961D03*
X005909Y009955D03*
X005909Y009953D03*
X005909Y009947D03*
X005909Y009945D03*
X005909Y009939D03*
X005909Y009937D03*
X005909Y009931D03*
X005909Y009929D03*
X005909Y009923D03*
X005909Y009921D03*
X005909Y009915D03*
X005909Y009913D03*
X005909Y009907D03*
X005909Y009905D03*
X005909Y009899D03*
X005909Y009897D03*
X005909Y009891D03*
X005909Y009889D03*
X005909Y009883D03*
X005909Y009881D03*
X005909Y009875D03*
X005909Y009873D03*
X005909Y009867D03*
X005909Y009865D03*
X005909Y009859D03*
X005909Y009857D03*
X005909Y009851D03*
X005909Y009849D03*
X005909Y009843D03*
X005909Y009841D03*
X005909Y009835D03*
X005909Y009833D03*
X005909Y009831D03*
X005909Y009827D03*
X005909Y009825D03*
X005909Y009823D03*
X005909Y009819D03*
X005909Y009817D03*
X005909Y009815D03*
X005909Y009810D03*
X005909Y009808D03*
X005909Y009806D03*
X005909Y009802D03*
X005909Y009800D03*
X005909Y009798D03*
X005909Y009794D03*
X005909Y009792D03*
X005909Y009790D03*
X005909Y009786D03*
X005909Y009784D03*
X005909Y009782D03*
X005909Y009778D03*
X005909Y009776D03*
X005909Y009774D03*
X005909Y009770D03*
X005909Y009768D03*
X005909Y009766D03*
X005909Y009762D03*
X005909Y009760D03*
X005909Y009758D03*
X005909Y009754D03*
X005909Y009752D03*
X005909Y009750D03*
X005909Y009746D03*
X005909Y009744D03*
X005909Y009742D03*
X005909Y009738D03*
X005909Y009736D03*
X005909Y009734D03*
X005909Y009730D03*
X005909Y009728D03*
X005909Y009726D03*
X005909Y009722D03*
X005909Y009720D03*
X005909Y009718D03*
X005909Y009714D03*
X005909Y009712D03*
X005909Y009710D03*
X005909Y009706D03*
X005909Y009704D03*
X005909Y009702D03*
X005909Y009698D03*
X005909Y009696D03*
X005909Y009694D03*
X005909Y009690D03*
X005909Y009688D03*
X005909Y009686D03*
X005909Y009682D03*
X005909Y009680D03*
X005909Y009678D03*
X005909Y009674D03*
X005909Y009672D03*
X005909Y009670D03*
X005909Y009666D03*
X005909Y009664D03*
X005909Y009662D03*
X005909Y009658D03*
X005909Y009656D03*
X005909Y009654D03*
X005909Y009649D03*
X005909Y009647D03*
X005909Y009645D03*
X005909Y009641D03*
X005909Y009639D03*
X005909Y009637D03*
X005909Y009635D03*
X005909Y009631D03*
X005909Y009629D03*
X005909Y009627D03*
X005909Y009623D03*
X005909Y009621D03*
X005909Y009619D03*
X005909Y009615D03*
X005909Y009613D03*
X005909Y009611D03*
X005909Y009607D03*
X005909Y009605D03*
X005909Y009603D03*
X005909Y009599D03*
X005909Y009597D03*
X005909Y009595D03*
X005909Y009591D03*
X005909Y009589D03*
X005909Y009587D03*
X005909Y009583D03*
X005909Y009581D03*
X005909Y009579D03*
X005909Y009575D03*
X005909Y009573D03*
X005909Y009571D03*
X005909Y009567D03*
X005909Y009565D03*
X005909Y009563D03*
X005909Y009559D03*
X005909Y009557D03*
X005909Y009555D03*
X005909Y009551D03*
X005909Y009549D03*
X005909Y009547D03*
X005909Y009543D03*
X005909Y009541D03*
X005909Y009539D03*
X005909Y009535D03*
X005909Y009533D03*
X005909Y009531D03*
X005909Y009527D03*
X005909Y009525D03*
X005909Y009523D03*
X005909Y009519D03*
X005909Y009517D03*
X005909Y009515D03*
X005909Y009511D03*
X005909Y009509D03*
X005909Y009507D03*
X005909Y009503D03*
X005909Y009501D03*
X005909Y009499D03*
X005909Y009494D03*
X005909Y009492D03*
X005909Y009490D03*
X005909Y009486D03*
X005909Y009484D03*
X005909Y009482D03*
X005909Y009478D03*
X005909Y009476D03*
X005909Y009474D03*
X005909Y009470D03*
X005909Y009468D03*
X005909Y009466D03*
X005909Y009462D03*
X005909Y009460D03*
X005909Y009458D03*
X005909Y009454D03*
X006493Y009388D03*
X006493Y009386D03*
X006718Y009446D03*
X006958Y009714D03*
X006958Y009718D03*
X006958Y009720D03*
X006958Y009722D03*
X006958Y009726D03*
X006958Y009728D03*
X006958Y009730D03*
X006958Y009734D03*
X006958Y009736D03*
X006958Y009738D03*
X006958Y009742D03*
X006958Y009744D03*
X006958Y009746D03*
X004074Y009682D03*
D126*
X003832Y010042D03*
X005909Y010042D03*
X005909Y010050D03*
X005909Y010058D03*
X005909Y010066D03*
X005909Y010074D03*
X005909Y010082D03*
X005909Y010090D03*
X005909Y010098D03*
X005909Y010106D03*
X005909Y010114D03*
X005909Y010122D03*
X005909Y010131D03*
X005909Y010139D03*
X005909Y010147D03*
X005909Y010155D03*
X005909Y010163D03*
X005909Y010171D03*
X005909Y010179D03*
X005909Y010187D03*
X005909Y010195D03*
X005909Y010203D03*
X005909Y010211D03*
X005909Y010219D03*
X005909Y010227D03*
X005909Y010237D03*
X005909Y010245D03*
X005909Y010253D03*
X005909Y010261D03*
X005909Y010269D03*
X005909Y010277D03*
X005909Y010286D03*
X005909Y010294D03*
X005909Y010034D03*
X005909Y010024D03*
X005909Y010016D03*
X005909Y010008D03*
X005909Y010000D03*
X005909Y009992D03*
X005909Y009984D03*
X005909Y009976D03*
X005909Y009967D03*
X005909Y009959D03*
X005909Y009951D03*
X005909Y009943D03*
X005909Y009935D03*
X005909Y009927D03*
X005909Y009919D03*
X005909Y009911D03*
X005909Y009903D03*
X005909Y009895D03*
X005909Y009887D03*
X005909Y009879D03*
X005909Y009871D03*
X005909Y009863D03*
X005909Y009855D03*
X005909Y009847D03*
X005909Y009839D03*
X005909Y009829D03*
X005909Y009821D03*
X005909Y009813D03*
X005909Y009804D03*
X005909Y009796D03*
X005909Y009788D03*
X005909Y009780D03*
X005909Y009772D03*
X005909Y009764D03*
X005909Y009756D03*
X005909Y009748D03*
X005909Y009740D03*
X005909Y009732D03*
X005909Y009724D03*
X005909Y009716D03*
X005909Y009708D03*
X005909Y009700D03*
X005909Y009692D03*
X005909Y009684D03*
X005909Y009676D03*
X005909Y009668D03*
X005909Y009660D03*
X005909Y009651D03*
X005909Y009643D03*
X005909Y009633D03*
X005909Y009625D03*
X005909Y009617D03*
X005909Y009609D03*
X005909Y009601D03*
X005909Y009593D03*
X005909Y009585D03*
X005909Y009577D03*
X005909Y009569D03*
X005909Y009561D03*
X005909Y009553D03*
X005909Y009545D03*
X005909Y009537D03*
X005909Y009529D03*
X005909Y009521D03*
X005909Y009513D03*
X005909Y009505D03*
X005909Y009497D03*
X005909Y009488D03*
X005909Y009480D03*
X005909Y009472D03*
X005909Y009464D03*
X005909Y009456D03*
X006489Y009398D03*
X006491Y009390D03*
X006958Y009716D03*
X006958Y009724D03*
X006958Y009732D03*
X006958Y009740D03*
X006958Y009748D03*
D127*
X006482Y009440D03*
X006482Y009432D03*
X006484Y009424D03*
X006486Y009416D03*
X006486Y009408D03*
D128*
X006486Y009410D03*
X006486Y009412D03*
X006484Y009418D03*
X006484Y009420D03*
X006484Y009426D03*
X006484Y009428D03*
X006482Y009434D03*
X006482Y009436D03*
X006482Y009442D03*
X006482Y009444D03*
X006480Y009458D03*
X006480Y009460D03*
X006480Y009462D03*
X006480Y009466D03*
X006480Y009468D03*
X006480Y009470D03*
D129*
X006480Y009464D03*
X006480Y009456D03*
X006482Y009438D03*
X006482Y009430D03*
X006484Y009422D03*
X006486Y009414D03*
D130*
X006716Y009442D03*
X001749Y010044D03*
D131*
X003325Y009452D03*
X003723Y009567D03*
X003848Y009442D03*
X005036Y009442D03*
X005130Y009670D03*
X006606Y009559D03*
X006712Y010044D03*
D132*
X002353Y010044D03*
X002353Y009442D03*
D133*
X003734Y009555D03*
X006717Y009444D03*
D134*
X005035Y009444D03*
X003740Y009551D03*
D135*
X003849Y009444D03*
D136*
X002353Y009444D03*
D137*
X003326Y009446D03*
X006584Y009579D03*
D138*
X006719Y009448D03*
X005248Y009871D03*
X004815Y009625D03*
X004819Y009617D03*
X004254Y009643D03*
X004042Y009609D03*
X003326Y009553D03*
X003022Y009855D03*
X002140Y009871D03*
X002138Y009617D03*
X001883Y009911D03*
X001275Y009911D03*
D139*
X001256Y009829D03*
X001256Y009821D03*
X001256Y009813D03*
X001256Y009804D03*
X001256Y009796D03*
X001256Y009788D03*
X001256Y009780D03*
X001256Y009772D03*
X001256Y009764D03*
X001256Y009756D03*
X001256Y009748D03*
X001256Y009740D03*
X001256Y009732D03*
X001256Y009724D03*
X001256Y009716D03*
X001256Y009708D03*
X001256Y009700D03*
X001256Y009692D03*
X001256Y009684D03*
X001256Y009676D03*
X001256Y009668D03*
X001256Y009660D03*
X001256Y009651D03*
X001256Y009643D03*
X001256Y009633D03*
X001256Y009625D03*
X001256Y009617D03*
X001256Y009609D03*
X001256Y009601D03*
X001256Y009593D03*
X001256Y009585D03*
X001256Y009577D03*
X001256Y009569D03*
X001256Y009561D03*
X001256Y009553D03*
X001256Y009545D03*
X001256Y009537D03*
X001256Y009529D03*
X001256Y009521D03*
X001256Y009513D03*
X001256Y009505D03*
X001256Y009497D03*
X001256Y009488D03*
X001256Y009480D03*
X001256Y009472D03*
X001256Y009464D03*
X001256Y009456D03*
X001580Y009456D03*
X001580Y009464D03*
X001580Y009472D03*
X001580Y009480D03*
X001580Y009488D03*
X001580Y009497D03*
X001580Y009505D03*
X001580Y009513D03*
X001580Y009521D03*
X001580Y009529D03*
X001580Y009537D03*
X001580Y009545D03*
X001580Y009553D03*
X001580Y009561D03*
X001580Y009569D03*
X001580Y009577D03*
X001580Y009585D03*
X001580Y009593D03*
X001580Y009601D03*
X001580Y009609D03*
X001580Y009617D03*
X001580Y009625D03*
X001580Y009633D03*
X001580Y009643D03*
X001580Y009651D03*
X001580Y009660D03*
X001580Y009668D03*
X001580Y009676D03*
X001580Y009684D03*
X001580Y009692D03*
X001580Y009700D03*
X001580Y009708D03*
X001580Y009716D03*
X001580Y009724D03*
X001580Y009732D03*
X001580Y009740D03*
X001580Y009748D03*
X001580Y009756D03*
X001580Y009764D03*
X001580Y009772D03*
X001580Y009780D03*
X001580Y009788D03*
X001580Y009796D03*
X001580Y009804D03*
X001580Y009813D03*
X001580Y009821D03*
X001904Y009821D03*
X001904Y009829D03*
X001904Y009813D03*
X001904Y009804D03*
X001904Y009796D03*
X001904Y009788D03*
X001904Y009780D03*
X001904Y009772D03*
X001904Y009764D03*
X001904Y009756D03*
X001904Y009748D03*
X001904Y009740D03*
X001904Y009732D03*
X001904Y009724D03*
X001904Y009716D03*
X001904Y009708D03*
X001904Y009700D03*
X001904Y009692D03*
X001904Y009684D03*
X001904Y009676D03*
X001904Y009668D03*
X001904Y009660D03*
X001904Y009651D03*
X001904Y009643D03*
X001904Y009633D03*
X001904Y009625D03*
X001904Y009617D03*
X001904Y009609D03*
X001904Y009601D03*
X001904Y009593D03*
X001904Y009585D03*
X001904Y009577D03*
X001904Y009569D03*
X001904Y009561D03*
X001904Y009553D03*
X001904Y009545D03*
X001904Y009537D03*
X001904Y009529D03*
X001904Y009521D03*
X001904Y009513D03*
X001904Y009505D03*
X001904Y009497D03*
X001904Y009488D03*
X001904Y009480D03*
X001904Y009472D03*
X001904Y009464D03*
X001904Y009456D03*
X003594Y009456D03*
X003594Y009464D03*
X003594Y009472D03*
X003594Y009480D03*
X003594Y009488D03*
X003594Y009497D03*
X003594Y009505D03*
X003594Y009513D03*
X003594Y009521D03*
X003594Y009529D03*
X003594Y009537D03*
X003594Y009545D03*
X003594Y009553D03*
X003594Y009561D03*
X003594Y009569D03*
X003594Y009577D03*
X003594Y009585D03*
X003594Y009593D03*
X003594Y009601D03*
X003594Y009609D03*
X003594Y009617D03*
X003594Y009625D03*
X003594Y009633D03*
X003594Y009643D03*
X003594Y009651D03*
X003594Y009660D03*
X003594Y009668D03*
X003594Y009676D03*
X003594Y009684D03*
X003594Y009692D03*
X003594Y009700D03*
X003594Y009708D03*
X003594Y009716D03*
X003594Y009724D03*
X003594Y009732D03*
X003594Y009740D03*
X003594Y009748D03*
X003594Y009756D03*
X003594Y009764D03*
X003594Y009772D03*
X003594Y009780D03*
X003596Y009796D03*
X003596Y009804D03*
X004080Y009764D03*
X004080Y009732D03*
X004080Y009724D03*
X004080Y009716D03*
X004078Y009708D03*
X004078Y009700D03*
X004076Y009692D03*
X005648Y009617D03*
X005648Y009609D03*
X005650Y009625D03*
X005650Y009633D03*
X005650Y009643D03*
X005650Y009651D03*
X005650Y009660D03*
X005650Y009668D03*
X005650Y009676D03*
X005650Y009684D03*
X005650Y009692D03*
X005650Y009700D03*
X005650Y009708D03*
X005650Y009716D03*
X005650Y009724D03*
X005650Y009732D03*
X005650Y009740D03*
X005650Y009748D03*
X005650Y009756D03*
X005650Y009764D03*
X005650Y009772D03*
X005650Y009780D03*
X005650Y009788D03*
X005650Y009796D03*
X005650Y009804D03*
X005650Y009813D03*
X005650Y009821D03*
X005650Y009829D03*
X005650Y009839D03*
X005650Y009847D03*
X005650Y009855D03*
X005650Y009863D03*
X005650Y009871D03*
X005650Y009879D03*
X005650Y009887D03*
X005650Y009895D03*
X005650Y009903D03*
X005650Y009911D03*
X005650Y009919D03*
X005650Y009927D03*
X005650Y010034D03*
X005650Y010042D03*
X005650Y010050D03*
X005650Y010058D03*
X005650Y010066D03*
X005650Y010074D03*
X005650Y010082D03*
X005650Y010090D03*
X005650Y010098D03*
X005650Y010106D03*
X005650Y010114D03*
X005650Y010122D03*
X005650Y010131D03*
X005650Y010139D03*
X005650Y010147D03*
X005650Y010155D03*
X005650Y010163D03*
X005650Y010171D03*
X006209Y010024D03*
X006209Y010016D03*
X006209Y010008D03*
X006209Y010000D03*
X006209Y009992D03*
X006209Y009984D03*
X006209Y009976D03*
X006209Y009967D03*
X006209Y009959D03*
X006209Y009951D03*
X006209Y009943D03*
X006209Y009935D03*
X006209Y009927D03*
X006209Y009919D03*
X006209Y009911D03*
X006209Y009903D03*
X006209Y009895D03*
X006209Y009887D03*
X006209Y009879D03*
X006209Y009871D03*
X006209Y009863D03*
X006209Y009855D03*
X006209Y009847D03*
X006209Y009839D03*
X006209Y009829D03*
X006209Y009821D03*
X006209Y009813D03*
X006209Y009804D03*
X006209Y009796D03*
X006209Y009788D03*
X006209Y009780D03*
X006209Y009772D03*
X006209Y009764D03*
X006209Y009756D03*
X006209Y009748D03*
X006209Y009740D03*
X006209Y009732D03*
X006209Y009724D03*
X006209Y009716D03*
X006209Y009708D03*
X006209Y009700D03*
X006209Y009692D03*
X006209Y009684D03*
X006209Y009676D03*
X006209Y009668D03*
X006209Y009660D03*
X006209Y009651D03*
X006209Y009643D03*
X006209Y009633D03*
X006209Y009625D03*
X006209Y009617D03*
X006209Y009609D03*
X006209Y009601D03*
X006209Y009593D03*
X006209Y009585D03*
X006209Y009577D03*
X006209Y009569D03*
X006209Y009561D03*
X006209Y009553D03*
X006209Y009545D03*
X006209Y009537D03*
X006209Y009529D03*
X006209Y009521D03*
X006209Y009513D03*
X006209Y009505D03*
X006209Y009497D03*
X006209Y009488D03*
X006209Y009480D03*
X006209Y009472D03*
X006209Y009464D03*
X006209Y009456D03*
X006479Y009472D03*
X006479Y009480D03*
X006479Y009488D03*
X006479Y009497D03*
X006479Y009505D03*
X006479Y009513D03*
X006479Y009521D03*
X006479Y009529D03*
X006479Y009537D03*
X006479Y009545D03*
X006479Y009553D03*
X006479Y009561D03*
X006479Y009569D03*
X006479Y009577D03*
X006479Y009585D03*
X006479Y009593D03*
X006479Y009601D03*
X006479Y009609D03*
X006479Y009617D03*
X006479Y009625D03*
X006479Y009633D03*
X006479Y009643D03*
X006479Y009651D03*
X006479Y009660D03*
X006479Y009668D03*
X006479Y009676D03*
X006479Y009684D03*
X006479Y009692D03*
X006479Y009700D03*
X006479Y009708D03*
X006479Y009716D03*
X006479Y009724D03*
X006479Y009732D03*
X006479Y009740D03*
X006481Y009448D03*
X006954Y009692D03*
X006956Y009700D03*
X006956Y009708D03*
X006956Y009764D03*
D140*
X006534Y009903D03*
X005035Y009448D03*
X004018Y009577D03*
X004026Y009903D03*
X002998Y009887D03*
X003000Y009601D03*
D141*
X003326Y009545D03*
X003849Y009448D03*
X004260Y009651D03*
X004038Y009887D03*
X005232Y009593D03*
X005624Y009561D03*
X002549Y009593D03*
X002154Y009593D03*
X002156Y009895D03*
D142*
X003325Y009448D03*
X005136Y009660D03*
D143*
X005226Y009585D03*
X004594Y009839D03*
X004032Y009895D03*
X002352Y009448D03*
X001871Y009927D03*
X001289Y009927D03*
D144*
X004024Y009905D03*
X004266Y009658D03*
X004845Y009899D03*
X006719Y009450D03*
X006894Y009575D03*
D145*
X006719Y009452D03*
X006554Y009923D03*
X006713Y010036D03*
X005202Y009923D03*
X005103Y009712D03*
X005202Y009563D03*
X005035Y009450D03*
X004276Y009666D03*
X002978Y009905D03*
D146*
X002530Y009913D03*
X002528Y009915D03*
X002530Y009573D03*
X002528Y009571D03*
X002175Y009571D03*
X002173Y009573D03*
X002173Y009913D03*
X002175Y009915D03*
X001580Y009897D03*
X003649Y009913D03*
X004011Y009571D03*
X003850Y009450D03*
X004587Y009833D03*
X004587Y009929D03*
X004840Y009883D03*
X004859Y009567D03*
X005615Y009557D03*
X006543Y009913D03*
X006883Y009921D03*
D147*
X003325Y009450D03*
D148*
X002986Y009587D03*
X002352Y009450D03*
X002352Y010036D03*
X004584Y009831D03*
X004841Y009881D03*
D149*
X005099Y009718D03*
X005035Y009452D03*
X004288Y009674D03*
X003674Y009931D03*
D150*
X002968Y009573D03*
X002352Y009452D03*
X005190Y009555D03*
X005190Y009931D03*
X006566Y009931D03*
D151*
X006719Y009454D03*
X004572Y009823D03*
X004284Y009672D03*
X003990Y009555D03*
X003670Y009929D03*
D152*
X003832Y010036D03*
X003993Y009931D03*
X004846Y009873D03*
X005472Y009454D03*
D153*
X005035Y009454D03*
X004562Y009817D03*
X006713Y010032D03*
D154*
X004503Y009454D03*
X004380Y010026D03*
X002875Y009555D03*
X001748Y009972D03*
D155*
X001580Y009913D03*
X002964Y009915D03*
X002964Y009571D03*
X003850Y009454D03*
D156*
X003325Y009454D03*
D157*
X003325Y009486D03*
X003325Y009547D03*
X003325Y009549D03*
X003011Y009615D03*
X002777Y009454D03*
X002554Y009599D03*
X002552Y009597D03*
X002550Y009595D03*
X002556Y009603D03*
X002556Y009883D03*
X002552Y009889D03*
X002550Y009891D03*
X002777Y010032D03*
X002153Y009891D03*
X002151Y009889D03*
X002147Y009883D03*
X001876Y009921D03*
X001749Y010036D03*
X001580Y009881D03*
X001411Y010036D03*
X002147Y009603D03*
X002149Y009599D03*
X002151Y009597D03*
X002153Y009595D03*
X004033Y009595D03*
X004041Y009883D03*
X004830Y009599D03*
X004832Y009597D03*
X004832Y009595D03*
X005235Y009597D03*
X005237Y009599D03*
X005235Y009889D03*
X006523Y009889D03*
X006906Y009899D03*
X006910Y009591D03*
X006908Y009589D03*
D158*
X006855Y009549D03*
X006851Y009939D03*
X006577Y009937D03*
X005177Y009937D03*
X005177Y009549D03*
X002954Y009565D03*
X002494Y009549D03*
X002353Y009454D03*
X002210Y009549D03*
X002210Y009937D03*
X002353Y010032D03*
X002494Y009937D03*
D159*
X006720Y009456D03*
D160*
X005478Y009456D03*
X001580Y009919D03*
D161*
X004305Y009684D03*
X004985Y009788D03*
X004999Y009780D03*
X005034Y009456D03*
D162*
X003851Y009456D03*
X002802Y009464D03*
D163*
X003325Y009456D03*
X005126Y009676D03*
D164*
X005218Y009577D03*
X005216Y009911D03*
X004855Y009569D03*
X004268Y009660D03*
X004018Y009911D03*
X003648Y009911D03*
X002992Y009593D03*
X002784Y009456D03*
X002170Y009911D03*
X001579Y009895D03*
X006542Y009911D03*
D165*
X002353Y009456D03*
D166*
X001580Y009923D03*
X003975Y009939D03*
X004301Y009682D03*
X005092Y009728D03*
X006720Y009458D03*
D167*
X005483Y009458D03*
D168*
X005034Y009458D03*
X005034Y010028D03*
X003852Y009462D03*
X002818Y009474D03*
X002818Y010012D03*
D169*
X004394Y010018D03*
X004490Y009458D03*
X005034Y009494D03*
X006751Y009527D03*
D170*
X003851Y009458D03*
X002809Y009468D03*
X002809Y010018D03*
D171*
X003325Y009458D03*
X006209Y010112D03*
X006209Y010213D03*
D172*
X002790Y010028D03*
X002790Y009458D03*
X001854Y009939D03*
X001305Y009939D03*
D173*
X002353Y010028D03*
X002353Y009458D03*
X004547Y009808D03*
D174*
X006719Y009460D03*
D175*
X005488Y009460D03*
D176*
X005035Y009460D03*
D177*
X004486Y009460D03*
X006755Y009535D03*
D178*
X004551Y009810D03*
X004309Y009686D03*
X003852Y009460D03*
X002938Y009559D03*
D179*
X003325Y009575D03*
X003325Y009460D03*
D180*
X002970Y009575D03*
X002794Y009460D03*
X002509Y009557D03*
X002195Y009557D03*
X002195Y009929D03*
X002509Y009929D03*
X002794Y010026D03*
X004282Y009670D03*
X004845Y009875D03*
X004876Y009555D03*
D181*
X005496Y009466D03*
X002352Y009460D03*
X002352Y010026D03*
D182*
X001748Y010018D03*
X006719Y009462D03*
D183*
X005491Y009462D03*
D184*
X005034Y009462D03*
D185*
X005035Y009986D03*
X004483Y009462D03*
X003875Y009535D03*
X002352Y009501D03*
X002352Y009986D03*
X006758Y009543D03*
D186*
X006620Y009549D03*
X003325Y009573D03*
X003325Y009462D03*
D187*
X002799Y009462D03*
X003983Y009551D03*
X004883Y009551D03*
X006859Y009551D03*
X001580Y009915D03*
X001411Y010028D03*
D188*
X002352Y009462D03*
X003853Y009466D03*
D189*
X002825Y009480D03*
X006719Y009464D03*
D190*
X005494Y009464D03*
D191*
X005035Y009464D03*
X004521Y009796D03*
X002833Y009488D03*
D192*
X004480Y009464D03*
X005036Y009984D03*
D193*
X004320Y009692D03*
X003853Y009464D03*
X002823Y010008D03*
D194*
X003326Y009464D03*
X006711Y010042D03*
D195*
X002352Y009464D03*
D196*
X002831Y009486D03*
X001748Y010012D03*
X004525Y009798D03*
X005506Y009476D03*
X006719Y009466D03*
D197*
X005513Y009486D03*
X005034Y009466D03*
X005034Y010020D03*
X002838Y009494D03*
X001580Y009937D03*
D198*
X004477Y009466D03*
X006715Y009980D03*
D199*
X006625Y009547D03*
X004793Y009712D03*
X003326Y009466D03*
X001410Y010040D03*
D200*
X002805Y010020D03*
X002805Y009466D03*
X003981Y009937D03*
X005034Y010032D03*
D201*
X005511Y009482D03*
X004516Y009794D03*
X004341Y009702D03*
X002836Y009492D03*
X002836Y009994D03*
X002353Y010020D03*
X002353Y009466D03*
X006714Y010020D03*
D202*
X006719Y009468D03*
D203*
X005499Y009468D03*
D204*
X005517Y009492D03*
X005034Y009468D03*
X005034Y010018D03*
X001749Y010004D03*
X001411Y010004D03*
D205*
X004474Y009468D03*
D206*
X003853Y009468D03*
D207*
X004346Y009704D03*
X006719Y009470D03*
D208*
X005501Y009470D03*
X004325Y009694D03*
X003832Y010028D03*
D209*
X005035Y009470D03*
D210*
X003853Y009470D03*
X002835Y009490D03*
X002835Y009996D03*
D211*
X002352Y009470D03*
X003853Y009476D03*
D212*
X006719Y009472D03*
D213*
X005503Y009472D03*
D214*
X005034Y009472D03*
X004488Y009780D03*
X004369Y009716D03*
X003854Y009480D03*
X002852Y009513D03*
D215*
X002838Y009992D03*
X003854Y009472D03*
D216*
X002815Y009472D03*
D217*
X002352Y009472D03*
D218*
X002847Y009980D03*
X003831Y010020D03*
X005522Y009503D03*
X006719Y009474D03*
D219*
X005505Y009474D03*
X001411Y010012D03*
D220*
X002856Y009519D03*
X004377Y009720D03*
X004480Y009776D03*
X005034Y009474D03*
X006714Y010010D03*
D221*
X004467Y009474D03*
X004417Y009994D03*
D222*
X003854Y009474D03*
D223*
X002853Y009515D03*
X002853Y009972D03*
X002352Y010012D03*
X002352Y009474D03*
X005528Y009517D03*
X005528Y009519D03*
D224*
X006719Y009476D03*
D225*
X005034Y009476D03*
D226*
X004317Y009690D03*
X002820Y009476D03*
X002820Y010010D03*
X001580Y009929D03*
D227*
X002352Y010010D03*
X002352Y009476D03*
D228*
X004360Y010032D03*
X005035Y010012D03*
X006719Y009478D03*
D229*
X005508Y009478D03*
X001748Y010010D03*
D230*
X005034Y009478D03*
D231*
X005034Y009515D03*
X005036Y009970D03*
X004464Y009478D03*
X004420Y009988D03*
X003832Y009978D03*
D232*
X003854Y009478D03*
X004496Y009784D03*
X002848Y009507D03*
D233*
X003026Y009639D03*
X003326Y009478D03*
X003618Y009873D03*
X004056Y009857D03*
X004252Y009639D03*
X004604Y009851D03*
X004604Y009915D03*
X002571Y009859D03*
X002571Y009857D03*
X002573Y009631D03*
X002571Y009629D03*
X002571Y009627D03*
X002132Y009629D03*
X002132Y009857D03*
X006925Y009611D03*
X006927Y009867D03*
D234*
X002823Y009478D03*
X001579Y009931D03*
D235*
X002352Y009478D03*
X003855Y009486D03*
X004389Y009726D03*
X004469Y009770D03*
X006723Y009484D03*
D236*
X006720Y009480D03*
D237*
X005509Y009480D03*
X004337Y009700D03*
D238*
X005034Y009480D03*
X002866Y009537D03*
D239*
X003023Y009633D03*
X003325Y009480D03*
X003621Y009879D03*
X004053Y009863D03*
X004601Y009919D03*
X004812Y009633D03*
X005249Y009617D03*
X005253Y009625D03*
X005253Y009863D03*
X006507Y009863D03*
X002568Y009863D03*
X002570Y009625D03*
X002135Y009863D03*
D240*
X002353Y009480D03*
X001411Y009984D03*
X003854Y009488D03*
X004400Y009732D03*
X006726Y009488D03*
D241*
X006721Y009482D03*
X005534Y009539D03*
X005035Y010010D03*
X002859Y009961D03*
X002859Y009525D03*
D242*
X003854Y009492D03*
X005034Y009482D03*
X005545Y009937D03*
X005545Y009939D03*
X005545Y009945D03*
X005545Y009947D03*
X005545Y009953D03*
X005545Y009955D03*
X005545Y009961D03*
X005545Y009963D03*
X005545Y009970D03*
X005545Y009972D03*
X005545Y009978D03*
X005545Y009980D03*
X005545Y009986D03*
X005545Y009988D03*
X005545Y009994D03*
X005545Y009996D03*
X005545Y010002D03*
X005545Y010004D03*
X005545Y010010D03*
X005545Y010012D03*
X005545Y010018D03*
X005545Y010020D03*
X005545Y010026D03*
X005545Y010028D03*
X005545Y010032D03*
D243*
X004461Y009482D03*
X006715Y009963D03*
D244*
X004440Y009754D03*
X004436Y009752D03*
X004432Y009750D03*
X004422Y009744D03*
X002868Y009945D03*
X002868Y009541D03*
X002353Y009482D03*
D245*
X005512Y009484D03*
D246*
X005034Y009484D03*
X006736Y009503D03*
X002874Y009931D03*
X001411Y009972D03*
D247*
X004425Y009978D03*
X004459Y009484D03*
X006715Y009961D03*
D248*
X003854Y009484D03*
D249*
X002829Y009484D03*
X002829Y010002D03*
D250*
X002871Y009939D03*
X002871Y009547D03*
X002352Y009484D03*
X002352Y010002D03*
D251*
X004397Y009730D03*
X004465Y009768D03*
X006725Y009486D03*
D252*
X005034Y009486D03*
X003856Y009499D03*
D253*
X004458Y009486D03*
X005036Y009963D03*
D254*
X002353Y009486D03*
D255*
X005515Y009488D03*
D256*
X005034Y009488D03*
X006742Y009513D03*
D257*
X004456Y009488D03*
D258*
X004828Y009601D03*
X004834Y009593D03*
X005110Y009700D03*
X005237Y009887D03*
X006521Y009887D03*
X003633Y009895D03*
X003325Y009488D03*
X003013Y009617D03*
X003011Y009871D03*
X002554Y009887D03*
X002149Y009887D03*
X001878Y009919D03*
X001580Y009879D03*
X002149Y009601D03*
D259*
X002352Y009488D03*
D260*
X005516Y009490D03*
D261*
X005034Y009490D03*
X003832Y010002D03*
X006714Y009994D03*
X006744Y009517D03*
D262*
X004455Y009490D03*
X004429Y009970D03*
D263*
X004261Y009654D03*
X004027Y009587D03*
X004035Y009891D03*
X003325Y009543D03*
X003325Y009541D03*
X003325Y009494D03*
X003325Y009492D03*
X003325Y009490D03*
X003005Y009607D03*
X005229Y009589D03*
X005231Y009591D03*
X005229Y009897D03*
X006529Y009897D03*
X006899Y009905D03*
D264*
X006743Y009515D03*
X005035Y009996D03*
X003861Y009507D03*
X002352Y009490D03*
X002352Y009996D03*
D265*
X002352Y010004D03*
X002867Y009947D03*
X002867Y009539D03*
X004419Y009742D03*
X004447Y009758D03*
X006729Y009492D03*
D266*
X005034Y009492D03*
D267*
X004454Y009492D03*
X003832Y009970D03*
D268*
X002352Y009994D03*
X002352Y009492D03*
D269*
X006731Y009494D03*
D270*
X005518Y009494D03*
X002843Y009501D03*
X002843Y009986D03*
D271*
X004452Y009494D03*
D272*
X003854Y009494D03*
D273*
X006732Y009497D03*
D274*
X005519Y009497D03*
X004504Y009788D03*
X002844Y009984D03*
D275*
X003872Y009529D03*
X005034Y009497D03*
D276*
X004451Y009497D03*
X002352Y009529D03*
D277*
X002353Y010000D03*
X003854Y009497D03*
D278*
X003325Y009497D03*
X003325Y009537D03*
X002542Y009585D03*
X002161Y009585D03*
X002163Y009903D03*
X004838Y009887D03*
X004842Y009895D03*
X005223Y009903D03*
D279*
X002840Y009497D03*
D280*
X006733Y009499D03*
D281*
X005520Y009499D03*
X002845Y009503D03*
X001748Y010002D03*
D282*
X003874Y009533D03*
X005034Y009499D03*
X006757Y009541D03*
D283*
X005036Y009955D03*
X004434Y009953D03*
X004450Y009499D03*
D284*
X004029Y009899D03*
X003641Y009905D03*
X003325Y009535D03*
X003325Y009533D03*
X003325Y009501D03*
X003325Y009499D03*
X003001Y009603D03*
X003001Y009883D03*
X002163Y009583D03*
X001870Y009929D03*
X001580Y009891D03*
X001580Y009889D03*
X001290Y009929D03*
X005108Y009704D03*
X005223Y009583D03*
D285*
X002353Y009499D03*
X002353Y009988D03*
D286*
X002873Y009551D03*
X005035Y010002D03*
X006735Y009501D03*
D287*
X005521Y009501D03*
D288*
X005033Y009501D03*
X003877Y009541D03*
X002352Y009503D03*
D289*
X002352Y009531D03*
X002352Y009955D03*
X004435Y009947D03*
X004449Y009501D03*
D290*
X003857Y009501D03*
X006739Y009507D03*
D291*
X005034Y009503D03*
D292*
X005036Y009953D03*
X004436Y009945D03*
X004448Y009503D03*
X003832Y009963D03*
D293*
X003858Y009503D03*
X006740Y009509D03*
D294*
X006892Y009913D03*
X006890Y009915D03*
X006536Y009905D03*
X005222Y009905D03*
X005220Y009907D03*
X005222Y009581D03*
X005220Y009579D03*
X004851Y009573D03*
X004849Y009575D03*
X004268Y009559D03*
X004020Y009579D03*
X003644Y009907D03*
X003326Y009531D03*
X003326Y009503D03*
X002998Y009599D03*
X002996Y009889D03*
X001867Y009931D03*
X001293Y009931D03*
D295*
X005035Y010000D03*
X006737Y009505D03*
D296*
X005523Y009505D03*
D297*
X005034Y009505D03*
D298*
X004447Y009505D03*
D299*
X004385Y010024D03*
X003859Y009505D03*
D300*
X003325Y009505D03*
X003325Y009513D03*
X003325Y009521D03*
X003325Y009529D03*
X002534Y009577D03*
X002532Y009911D03*
X002169Y009577D03*
X001411Y010034D03*
X004850Y009903D03*
D301*
X002846Y009505D03*
D302*
X002353Y009505D03*
X004406Y010008D03*
D303*
X005524Y009507D03*
D304*
X004446Y009507D03*
D305*
X002352Y009507D03*
X002352Y009980D03*
D306*
X002850Y009511D03*
X004365Y009714D03*
X004492Y009782D03*
X005525Y009511D03*
X005525Y009509D03*
D307*
X005033Y009509D03*
X002352Y009511D03*
D308*
X004445Y009509D03*
X006715Y009947D03*
D309*
X003862Y009509D03*
D310*
X002849Y009509D03*
X002849Y009978D03*
D311*
X006741Y009511D03*
D312*
X006716Y009945D03*
X004444Y009511D03*
D313*
X003863Y009511D03*
D314*
X005526Y009513D03*
D315*
X005034Y009513D03*
X004418Y009992D03*
D316*
X004444Y009513D03*
X003832Y009959D03*
D317*
X003864Y009513D03*
D318*
X002352Y009513D03*
D319*
X005527Y009515D03*
X006714Y010012D03*
D320*
X004443Y009515D03*
D321*
X005034Y009517D03*
D322*
X005036Y009947D03*
X004442Y009517D03*
D323*
X003866Y009517D03*
X006749Y009523D03*
D324*
X004421Y009986D03*
X002352Y009970D03*
X002352Y009517D03*
D325*
X006746Y009519D03*
D326*
X005033Y009519D03*
D327*
X004441Y009519D03*
X002352Y009539D03*
X002352Y009947D03*
D328*
X003867Y009519D03*
X006750Y009525D03*
D329*
X002352Y009519D03*
D330*
X003831Y010000D03*
X006715Y009992D03*
X006748Y009521D03*
D331*
X005529Y009521D03*
D332*
X005033Y009521D03*
X006715Y009959D03*
D333*
X005033Y009537D03*
X004441Y009521D03*
D334*
X003868Y009521D03*
D335*
X002857Y009521D03*
D336*
X002352Y009521D03*
D337*
X005530Y009523D03*
X005530Y009525D03*
D338*
X005033Y009523D03*
X002352Y009525D03*
X002352Y009961D03*
D339*
X003832Y009955D03*
X004440Y009523D03*
X005034Y009539D03*
X005036Y009945D03*
D340*
X003869Y009523D03*
D341*
X004381Y009722D03*
X004476Y009774D03*
X005533Y009535D03*
X005533Y009533D03*
X002858Y009523D03*
X002858Y009963D03*
D342*
X002352Y009963D03*
X002352Y009523D03*
D343*
X002352Y009527D03*
X005033Y009525D03*
D344*
X004439Y009525D03*
X004439Y009527D03*
D345*
X003870Y009525D03*
D346*
X005531Y009527D03*
D347*
X005033Y009527D03*
X004433Y009955D03*
D348*
X003871Y009527D03*
D349*
X002860Y009527D03*
X001411Y009988D03*
X005535Y009543D03*
X005535Y009541D03*
D350*
X005532Y009529D03*
D351*
X005033Y009529D03*
X006715Y009951D03*
D352*
X005036Y009943D03*
X004438Y009529D03*
D353*
X005537Y009553D03*
X002862Y009529D03*
D354*
X006714Y009988D03*
X006753Y009531D03*
D355*
X005532Y009531D03*
D356*
X005033Y009531D03*
X004439Y009931D03*
X004437Y009937D03*
X004437Y009939D03*
X002352Y009953D03*
X002352Y009533D03*
D357*
X003832Y009953D03*
X004438Y009531D03*
D358*
X003873Y009531D03*
X005035Y009988D03*
X006756Y009539D03*
D359*
X004461Y009766D03*
X002863Y009531D03*
X001748Y009986D03*
D360*
X002352Y009535D03*
X005033Y009533D03*
D361*
X004437Y009533D03*
D362*
X003832Y010012D03*
X002864Y009953D03*
X002864Y009533D03*
D363*
X005033Y009535D03*
D364*
X005034Y009543D03*
X004436Y009535D03*
D365*
X004405Y009734D03*
X002865Y009535D03*
D366*
X006755Y009537D03*
D367*
X005534Y009537D03*
D368*
X004436Y009537D03*
D369*
X003876Y009537D03*
D370*
X002352Y009537D03*
D371*
X004435Y009539D03*
X004435Y009541D03*
X004435Y009543D03*
D372*
X004402Y010012D03*
X003876Y009539D03*
D373*
X005034Y009541D03*
D374*
X002352Y009543D03*
X002352Y009541D03*
X002352Y009945D03*
D375*
X003878Y009543D03*
D376*
X002869Y009543D03*
X005035Y010004D03*
X005546Y009931D03*
D377*
X006841Y009545D03*
X002938Y009927D03*
D378*
X005536Y009545D03*
D379*
X005165Y009545D03*
D380*
X004902Y009545D03*
X003966Y009545D03*
X002480Y009545D03*
X002223Y009545D03*
D381*
X004434Y009545D03*
D382*
X004606Y009855D03*
X004056Y009855D03*
X003752Y009545D03*
X003026Y009847D03*
X002573Y009855D03*
X002134Y009625D03*
X006925Y009871D03*
D383*
X005545Y009935D03*
X005545Y009943D03*
X005545Y009951D03*
X005545Y009959D03*
X005545Y009967D03*
X005545Y009976D03*
X005545Y009984D03*
X005545Y009992D03*
X005545Y010000D03*
X005545Y010008D03*
X005545Y010016D03*
X005545Y010024D03*
X002870Y009545D03*
D384*
X002487Y009547D03*
X002216Y009547D03*
X002216Y009939D03*
X002487Y009939D03*
X003687Y009937D03*
X003973Y009547D03*
X004559Y009815D03*
X005094Y009726D03*
X005173Y009547D03*
X005173Y009939D03*
X006849Y009547D03*
D385*
X005536Y009547D03*
X001748Y009988D03*
D386*
X004298Y009680D03*
X004851Y009865D03*
X004894Y009547D03*
D387*
X004434Y009547D03*
X003832Y009947D03*
D388*
X004394Y009728D03*
X005537Y009551D03*
X005537Y009549D03*
X005539Y009555D03*
X002862Y009955D03*
X001411Y009986D03*
D389*
X002953Y009921D03*
X003978Y009549D03*
X004566Y009819D03*
X004888Y009549D03*
X005097Y009722D03*
D390*
X004433Y009551D03*
X004433Y009549D03*
D391*
X003743Y009549D03*
X006209Y010201D03*
D392*
X002872Y009937D03*
X002872Y009549D03*
D393*
X002499Y009551D03*
X002205Y009551D03*
X005097Y009720D03*
X005182Y009551D03*
X006856Y009937D03*
D394*
X006861Y009935D03*
X006863Y009553D03*
D395*
X006614Y009553D03*
X003325Y009577D03*
D396*
X002798Y010024D03*
X002201Y009553D03*
X005186Y009553D03*
D397*
X004880Y009553D03*
D398*
X004433Y009553D03*
D399*
X003987Y009553D03*
X006712Y010034D03*
D400*
X003737Y009553D03*
D401*
X002874Y009553D03*
X006714Y010000D03*
D402*
X002503Y009553D03*
D403*
X006611Y009555D03*
D404*
X004432Y009555D03*
X003832Y009945D03*
D405*
X006871Y009557D03*
D406*
X006608Y009557D03*
X003325Y009581D03*
D407*
X005194Y009557D03*
X005194Y009929D03*
D408*
X005196Y009559D03*
X004872Y009557D03*
X004578Y009827D03*
X003996Y009559D03*
X002976Y009579D03*
X002976Y009907D03*
X002513Y009559D03*
X002191Y009559D03*
X006868Y009931D03*
D409*
X006884Y009567D03*
X006546Y009915D03*
X005212Y009915D03*
X005212Y009571D03*
X004860Y009913D03*
X004270Y009662D03*
X004272Y009557D03*
X004016Y009913D03*
X004014Y009915D03*
X002988Y009897D03*
X002988Y009589D03*
D410*
X003993Y009557D03*
X004879Y009929D03*
X005102Y009714D03*
D411*
X005125Y009678D03*
X003732Y009557D03*
D412*
X004021Y009581D03*
X004023Y009583D03*
X004263Y009656D03*
X004846Y009579D03*
X004844Y009897D03*
X005621Y009559D03*
X002540Y009583D03*
X002538Y009581D03*
X002538Y009905D03*
X002165Y009905D03*
X002165Y009581D03*
D413*
X003730Y009559D03*
D414*
X004843Y009879D03*
X006876Y009561D03*
D415*
X006604Y009561D03*
X003721Y009569D03*
D416*
X002516Y009561D03*
X002188Y009561D03*
X005199Y009561D03*
D417*
X004867Y009561D03*
X004009Y009919D03*
X006875Y009927D03*
D418*
X004592Y009927D03*
X004264Y009561D03*
X003640Y009903D03*
D419*
X003999Y009561D03*
D420*
X003728Y009561D03*
D421*
X002944Y009561D03*
D422*
X004817Y009718D03*
X005133Y009666D03*
X006601Y009563D03*
D423*
X006209Y010149D03*
X006209Y010153D03*
X006209Y010169D03*
X006209Y010173D03*
X006209Y010177D03*
X005627Y009563D03*
X005241Y009605D03*
X005112Y009698D03*
X005241Y009881D03*
X004822Y009613D03*
X004822Y009611D03*
X004257Y009647D03*
X004047Y009873D03*
X001580Y009875D03*
D424*
X001858Y009937D03*
X002181Y009567D03*
X002183Y009565D03*
X002521Y009565D03*
X002523Y009567D03*
X002521Y009921D03*
X002183Y009921D03*
X004004Y009565D03*
X004864Y009563D03*
X006882Y009565D03*
D425*
X004869Y009921D03*
X004001Y009563D03*
X003659Y009921D03*
X002981Y009583D03*
D426*
X003726Y009563D03*
D427*
X002949Y009563D03*
X002949Y009923D03*
X006582Y009939D03*
D428*
X006919Y009603D03*
X005630Y009565D03*
X004258Y009567D03*
X002563Y009613D03*
X002563Y009615D03*
X002561Y009611D03*
X002563Y009873D03*
X002561Y009875D03*
X002142Y009875D03*
X002142Y009611D03*
X001579Y009873D03*
D429*
X004007Y009567D03*
X004861Y009565D03*
D430*
X005129Y009672D03*
X005035Y010044D03*
X003724Y009565D03*
D431*
X003714Y009579D03*
X006597Y009567D03*
D432*
X006920Y009605D03*
X006922Y009607D03*
X006922Y009875D03*
X006918Y009881D03*
X006209Y010141D03*
X006209Y010145D03*
X006209Y010181D03*
X005631Y009567D03*
X005034Y010040D03*
X004808Y009641D03*
X004255Y009571D03*
X004047Y009615D03*
X004045Y009613D03*
X002566Y009619D03*
X002566Y009867D03*
X001886Y009907D03*
X001580Y009867D03*
X001274Y009907D03*
X001272Y009905D03*
D433*
X003325Y009567D03*
X005118Y009688D03*
D434*
X002958Y009567D03*
D435*
X002989Y009895D03*
X004009Y009569D03*
X001298Y009935D03*
X006885Y009919D03*
X006887Y009569D03*
D436*
X006595Y009569D03*
D437*
X005209Y009569D03*
X005207Y009919D03*
X002526Y009569D03*
X002177Y009569D03*
D438*
X002565Y009617D03*
X002563Y009871D03*
X004048Y009871D03*
X004256Y009569D03*
X006210Y010179D03*
D439*
X005034Y010042D03*
X003325Y009569D03*
D440*
X002960Y009569D03*
X004569Y009821D03*
X004889Y009935D03*
X005034Y010034D03*
D441*
X005214Y009913D03*
X005107Y009706D03*
X005216Y009575D03*
X005214Y009573D03*
X004853Y009571D03*
X004851Y009905D03*
X004853Y009907D03*
X004590Y009835D03*
X004022Y009907D03*
X004014Y009573D03*
X002994Y009595D03*
X002994Y009891D03*
X002533Y009575D03*
X002170Y009575D03*
X006890Y009571D03*
D442*
X006593Y009571D03*
X004825Y009720D03*
D443*
X003720Y009571D03*
D444*
X003325Y009571D03*
D445*
X003708Y009589D03*
X005137Y009658D03*
X006591Y009573D03*
D446*
X006929Y009619D03*
X005636Y009573D03*
X005266Y009654D03*
X005266Y009656D03*
X005264Y009649D03*
X005264Y009647D03*
X005266Y009831D03*
X005266Y009833D03*
X005266Y009835D03*
X004797Y009674D03*
X004797Y009672D03*
X004799Y009666D03*
X004250Y009635D03*
X004248Y009631D03*
X004248Y009629D03*
X004250Y009581D03*
X004054Y009629D03*
X003040Y009674D03*
X003038Y009666D03*
X003038Y009819D03*
X002120Y009831D03*
X002118Y009823D03*
X002118Y009664D03*
X002120Y009658D03*
X002120Y009656D03*
X001895Y009889D03*
X001893Y009891D03*
X001265Y009889D03*
D447*
X001410Y010044D03*
X003718Y009573D03*
D448*
X005139Y009656D03*
X006589Y009575D03*
D449*
X006491Y009823D03*
X006491Y009825D03*
X006491Y009827D03*
X005637Y009575D03*
X004249Y009583D03*
X004249Y009587D03*
X003039Y009670D03*
X003039Y009672D03*
X003039Y009815D03*
X003039Y009817D03*
X002119Y009825D03*
X002119Y009827D03*
X002119Y009662D03*
X001264Y009883D03*
D450*
X003717Y009575D03*
D451*
X004847Y009577D03*
X006896Y009577D03*
D452*
X006586Y009577D03*
D453*
X006496Y009839D03*
X006933Y009855D03*
X006933Y009625D03*
X005268Y009660D03*
X005262Y009643D03*
X005270Y009821D03*
X004608Y009903D03*
X004252Y009577D03*
X004064Y009839D03*
X003034Y009829D03*
X002583Y009829D03*
X002581Y009651D03*
X002122Y009651D03*
X002124Y009839D03*
D454*
X003325Y009585D03*
X003715Y009577D03*
D455*
X003619Y009875D03*
X004055Y009631D03*
X004053Y009627D03*
X004251Y009637D03*
X004251Y009579D03*
X004605Y009913D03*
X004798Y009670D03*
X004800Y009664D03*
X004800Y009662D03*
X005263Y009645D03*
X005263Y009841D03*
X006926Y009613D03*
X006928Y009615D03*
X006930Y009859D03*
X006928Y009865D03*
X001892Y009897D03*
D456*
X003325Y009579D03*
X006209Y010108D03*
D457*
X002167Y009907D03*
X002167Y009579D03*
D458*
X002160Y009587D03*
X002158Y009589D03*
X002158Y009897D03*
X002160Y009899D03*
X002543Y009899D03*
X002545Y009897D03*
X002545Y009589D03*
X002543Y009587D03*
X004030Y009897D03*
X004837Y009889D03*
X004839Y009891D03*
X004841Y009583D03*
X005228Y009587D03*
X005228Y009899D03*
X006530Y009899D03*
X006900Y009581D03*
D459*
X006582Y009581D03*
X003700Y009603D03*
D460*
X003713Y009581D03*
D461*
X004838Y009587D03*
X005110Y009702D03*
X006901Y009583D03*
D462*
X006580Y009583D03*
D463*
X006209Y010100D03*
X003711Y009583D03*
D464*
X003325Y009583D03*
D465*
X006579Y009585D03*
D466*
X006901Y009903D03*
X004840Y009585D03*
X001580Y009887D03*
D467*
X002119Y009660D03*
X004249Y009585D03*
D468*
X004025Y009585D03*
X003007Y009609D03*
X003005Y009879D03*
X005231Y009895D03*
X006527Y009895D03*
D469*
X003710Y009585D03*
D470*
X003656Y009919D03*
X002984Y009585D03*
X006550Y009919D03*
D471*
X003709Y009587D03*
D472*
X003325Y009587D03*
D473*
X006575Y009589D03*
D474*
X004837Y009589D03*
X004596Y009841D03*
X004030Y009591D03*
X002547Y009591D03*
X001579Y009883D03*
D475*
X003707Y009591D03*
D476*
X003652Y009915D03*
X002990Y009591D03*
X004862Y009915D03*
X006880Y009923D03*
D477*
X006909Y009895D03*
X006911Y009593D03*
X006210Y010163D03*
X005238Y009601D03*
X004044Y009879D03*
X002559Y009879D03*
X002555Y009601D03*
X002144Y009879D03*
X001281Y009919D03*
D478*
X004031Y009593D03*
D479*
X003706Y009593D03*
D480*
X003704Y009595D03*
D481*
X003703Y009597D03*
D482*
X003702Y009599D03*
D483*
X003701Y009601D03*
D484*
X004048Y009617D03*
X004807Y009643D03*
X005258Y009633D03*
X005256Y009855D03*
X006502Y009855D03*
X006923Y009609D03*
X003032Y009651D03*
X003028Y009643D03*
X003030Y009839D03*
X002130Y009855D03*
X002130Y009633D03*
X001889Y009903D03*
X001271Y009903D03*
D485*
X003698Y009609D03*
D486*
X003627Y009887D03*
X002143Y009609D03*
X006209Y010147D03*
X006209Y010155D03*
X006209Y010171D03*
D487*
X005144Y009647D03*
X003697Y009611D03*
D488*
X003696Y009613D03*
D489*
X003695Y009615D03*
D490*
X004249Y009633D03*
X004605Y009911D03*
X006928Y009863D03*
X006928Y009617D03*
X001892Y009895D03*
D491*
X003694Y009617D03*
D492*
X003693Y009619D03*
D493*
X004056Y009633D03*
X004797Y009676D03*
X004799Y009668D03*
X005266Y009651D03*
X005264Y009839D03*
X003040Y009813D03*
X003038Y009821D03*
X003038Y009668D03*
X002120Y009829D03*
X001895Y009887D03*
X001265Y009887D03*
D494*
X005145Y009645D03*
D495*
X005281Y009736D03*
X005281Y009738D03*
X005281Y009742D03*
X005281Y009744D03*
X005281Y009746D03*
X005281Y009750D03*
X004072Y009674D03*
X003603Y009835D03*
X003605Y009841D03*
X003605Y009843D03*
X006944Y009825D03*
X006944Y009649D03*
D496*
X006944Y009651D03*
X005281Y009740D03*
X005281Y009748D03*
D497*
X005142Y009651D03*
D498*
X004073Y009678D03*
X004073Y009680D03*
X004071Y009672D03*
X004071Y009670D03*
X003602Y009831D03*
X003602Y009833D03*
X006945Y009654D03*
D499*
X005140Y009654D03*
D500*
X005136Y009662D03*
D501*
X005134Y009664D03*
D502*
X005131Y009668D03*
D503*
X005196Y009927D03*
X004876Y009927D03*
X004278Y009668D03*
X002513Y009927D03*
X002191Y009927D03*
X006560Y009927D03*
D504*
X006209Y010217D03*
X005128Y009674D03*
D505*
X004073Y009676D03*
X003602Y009829D03*
X003604Y009839D03*
D506*
X004294Y009678D03*
X001748Y010026D03*
D507*
X005123Y009682D03*
D508*
X005121Y009684D03*
D509*
X005120Y009686D03*
X001749Y010040D03*
D510*
X004313Y009688D03*
D511*
X004329Y009696D03*
D512*
X004333Y009698D03*
X003832Y010026D03*
D513*
X005105Y009708D03*
D514*
X004353Y009708D03*
D515*
X004357Y009710D03*
X004500Y009786D03*
D516*
X004361Y009712D03*
D517*
X005100Y009716D03*
D518*
X004809Y009716D03*
D519*
X004373Y009718D03*
X001749Y009994D03*
X001411Y009994D03*
D520*
X004832Y009722D03*
D521*
X005095Y009724D03*
D522*
X004840Y009724D03*
D523*
X004880Y009847D03*
X004866Y009855D03*
X004942Y009813D03*
X004956Y009804D03*
X004970Y009796D03*
X005029Y009764D03*
X005043Y009756D03*
X005057Y009748D03*
X005087Y009732D03*
X004554Y009813D03*
D524*
X004888Y009843D03*
X004902Y009835D03*
X004920Y009825D03*
X004934Y009817D03*
X004952Y009806D03*
X005033Y009762D03*
X005047Y009754D03*
X005065Y009744D03*
X005079Y009736D03*
D525*
X004411Y009738D03*
D526*
X004895Y009839D03*
X004913Y009829D03*
X004927Y009821D03*
X005072Y009740D03*
X002812Y010016D03*
D527*
X004415Y009740D03*
D528*
X004426Y009746D03*
X003832Y010010D03*
X001749Y009980D03*
X001411Y009980D03*
D529*
X004430Y009748D03*
D530*
X004443Y009756D03*
D531*
X004457Y009764D03*
X002865Y009951D03*
D532*
X003693Y009939D03*
X004873Y009851D03*
X004949Y009808D03*
X004967Y009798D03*
X004981Y009790D03*
X005018Y009770D03*
D533*
X005015Y009772D03*
D534*
X004472Y009772D03*
X002860Y009959D03*
X006714Y010008D03*
D535*
X004513Y009792D03*
D536*
X004533Y009802D03*
D537*
X004538Y009804D03*
D538*
X004582Y009829D03*
D539*
X005650Y009837D03*
X005650Y009845D03*
X005650Y009853D03*
X005650Y009861D03*
X005650Y009869D03*
X005650Y009877D03*
X005650Y009885D03*
X005650Y009893D03*
X005650Y009901D03*
X005650Y009909D03*
X005650Y009917D03*
X005650Y009925D03*
X005650Y010038D03*
X005650Y010046D03*
X005650Y010054D03*
X005650Y010062D03*
X005650Y010070D03*
X005650Y010078D03*
X005650Y010086D03*
X005650Y010094D03*
X005650Y010102D03*
X005650Y010110D03*
X005650Y010118D03*
X005650Y010127D03*
X005650Y010135D03*
X005650Y010143D03*
X005650Y010151D03*
X005650Y010159D03*
X005650Y010167D03*
X005650Y010175D03*
X006209Y010199D03*
X006209Y010127D03*
X006209Y010030D03*
X006209Y010022D03*
X006209Y010014D03*
X006209Y010006D03*
X006209Y009998D03*
X006209Y009990D03*
X006209Y009982D03*
X006209Y009974D03*
X006209Y009965D03*
X006209Y009957D03*
X006209Y009949D03*
X006209Y009941D03*
X006209Y009933D03*
X006209Y009925D03*
X006209Y009917D03*
X006209Y009909D03*
X006209Y009901D03*
X006209Y009893D03*
X006209Y009885D03*
X006209Y009877D03*
X006209Y009869D03*
X006209Y009861D03*
X006209Y009853D03*
X006209Y009845D03*
X006209Y009837D03*
X001256Y009837D03*
D540*
X001410Y010038D03*
X001748Y010038D03*
X001893Y009893D03*
X005264Y009837D03*
D541*
X004898Y009837D03*
X004884Y009845D03*
X006713Y010030D03*
X006844Y009941D03*
D542*
X004592Y009837D03*
D543*
X003605Y009845D03*
X003603Y009837D03*
D544*
X004061Y009845D03*
X003031Y009837D03*
X002578Y009845D03*
X002574Y009853D03*
X002127Y009845D03*
X002123Y009837D03*
X001580Y009861D03*
X005261Y009845D03*
D545*
X004611Y009877D03*
X004611Y009885D03*
X001902Y009861D03*
X001900Y009869D03*
X001902Y009853D03*
X001580Y009837D03*
X001260Y009869D03*
X001258Y009861D03*
D546*
X002570Y009861D03*
X003023Y009853D03*
X003027Y009845D03*
X004605Y009853D03*
X005249Y009869D03*
X005253Y009861D03*
D547*
X004870Y009853D03*
X004855Y009861D03*
D548*
X004602Y009917D03*
X004058Y009853D03*
X004054Y009861D03*
X003620Y009877D03*
X002134Y009861D03*
X006506Y009861D03*
X006925Y009869D03*
D549*
X006930Y009861D03*
D550*
X006910Y009893D03*
X005243Y009877D03*
X004045Y009877D03*
X003019Y009861D03*
X002560Y009877D03*
X001280Y009917D03*
D551*
X001412Y010024D03*
X001748Y010024D03*
X004853Y009863D03*
D552*
X004850Y009867D03*
X004899Y009939D03*
D553*
X004595Y009925D03*
X004039Y009885D03*
X003631Y009893D03*
X003013Y009869D03*
X002149Y009885D03*
D554*
X001885Y009909D03*
X002565Y009869D03*
X003626Y009885D03*
D555*
X001580Y009869D03*
X006209Y010143D03*
X006209Y010183D03*
X006920Y009877D03*
D556*
X006574Y009935D03*
X005182Y009935D03*
X004847Y009871D03*
X002957Y009919D03*
X002499Y009935D03*
X002205Y009935D03*
D557*
X002143Y009877D03*
X001580Y009877D03*
X006209Y010151D03*
X006209Y010175D03*
X006515Y009877D03*
D558*
X004844Y009877D03*
X003665Y009925D03*
X002973Y009909D03*
X001580Y009909D03*
D559*
X001874Y009925D03*
X003007Y009877D03*
X003637Y009901D03*
D560*
X006516Y009879D03*
D561*
X006887Y009917D03*
X005034Y010038D03*
X004838Y009885D03*
X003645Y009909D03*
X002534Y009909D03*
X002169Y009909D03*
X001580Y009893D03*
D562*
X002161Y009901D03*
X002542Y009901D03*
X002999Y009885D03*
X004027Y009901D03*
X006712Y010038D03*
D563*
X004033Y009893D03*
X001580Y009885D03*
X001286Y009925D03*
D564*
X001264Y009885D03*
D565*
X003628Y009889D03*
D566*
X004841Y009893D03*
X005226Y009901D03*
X006532Y009901D03*
X002352Y010038D03*
D567*
X006904Y009901D03*
D568*
X004847Y009901D03*
D569*
X004012Y009917D03*
X002984Y009901D03*
D570*
X002177Y009917D03*
X001580Y009901D03*
X005209Y009917D03*
X006547Y009917D03*
D571*
X002981Y009903D03*
X001580Y009903D03*
D572*
X001580Y009905D03*
X003661Y009923D03*
X004871Y009923D03*
X006871Y009929D03*
D573*
X001579Y009907D03*
D574*
X006539Y009909D03*
D575*
X004854Y009909D03*
D576*
X003668Y009927D03*
X002970Y009911D03*
D577*
X001580Y009911D03*
D578*
X002966Y009913D03*
X006563Y009929D03*
D579*
X006878Y009925D03*
X004864Y009917D03*
X003654Y009917D03*
D580*
X003989Y009933D03*
X002960Y009917D03*
D581*
X002525Y009917D03*
D582*
X001580Y009917D03*
D583*
X002181Y009919D03*
X002523Y009919D03*
X004866Y009919D03*
D584*
X001580Y009921D03*
D585*
X004002Y009925D03*
D586*
X002944Y009925D03*
D587*
X001580Y009925D03*
X004905Y009941D03*
X005034Y010030D03*
D588*
X003999Y009927D03*
D589*
X001580Y009927D03*
D590*
X001411Y010030D03*
X006865Y009933D03*
D591*
X006570Y009933D03*
X005186Y009933D03*
X002201Y009933D03*
D592*
X002870Y009941D03*
X005545Y009941D03*
X005545Y009933D03*
X005545Y009949D03*
X005545Y009957D03*
X005545Y009965D03*
X005545Y009974D03*
X005545Y009982D03*
X005545Y009990D03*
X005545Y009998D03*
X005545Y010006D03*
X005545Y010014D03*
X005545Y010022D03*
X005545Y010030D03*
D593*
X004885Y009933D03*
D594*
X004438Y009933D03*
D595*
X003678Y009933D03*
D596*
X002873Y009933D03*
X001748Y009974D03*
D597*
X002503Y009933D03*
D598*
X001579Y009933D03*
D599*
X004438Y009935D03*
X005036Y009951D03*
D600*
X003682Y009935D03*
D601*
X003832Y010008D03*
X002872Y009935D03*
X001749Y009976D03*
X001411Y009976D03*
D602*
X001861Y009935D03*
D603*
X001580Y009935D03*
D604*
X004893Y009937D03*
D605*
X001580Y009939D03*
D606*
X006590Y009941D03*
D607*
X005165Y009941D03*
X001748Y010022D03*
X001412Y010022D03*
D608*
X004437Y009941D03*
X006715Y009949D03*
D609*
X003968Y009941D03*
D610*
X003701Y009941D03*
D611*
X002480Y009941D03*
X002223Y009941D03*
D612*
X001850Y009941D03*
X001748Y010030D03*
X001309Y009941D03*
D613*
X001579Y009941D03*
D614*
X006716Y009943D03*
D615*
X004436Y009943D03*
D616*
X003832Y009943D03*
D617*
X002869Y009943D03*
D618*
X002352Y009943D03*
D619*
X001580Y009943D03*
D620*
X001579Y009945D03*
D621*
X001580Y009947D03*
D622*
X005036Y009949D03*
D623*
X004435Y009949D03*
D624*
X003833Y009949D03*
D625*
X002866Y009949D03*
X001749Y009982D03*
X001411Y009982D03*
X005034Y010006D03*
D626*
X002352Y009949D03*
D627*
X001580Y009949D03*
D628*
X004434Y009951D03*
D629*
X003833Y009951D03*
D630*
X002352Y009951D03*
D631*
X001580Y009951D03*
D632*
X006715Y009953D03*
D633*
X001580Y009953D03*
D634*
X004431Y009961D03*
X004431Y009963D03*
X006715Y009955D03*
D635*
X001580Y009955D03*
D636*
X006715Y009957D03*
D637*
X005036Y009957D03*
D638*
X004433Y009957D03*
X002352Y009957D03*
D639*
X003832Y009957D03*
D640*
X002861Y009957D03*
D641*
X001580Y009957D03*
D642*
X005036Y009959D03*
D643*
X004432Y009959D03*
D644*
X002352Y009959D03*
D645*
X001580Y009959D03*
D646*
X003832Y009972D03*
X004428Y009972D03*
X005036Y009961D03*
D647*
X003832Y009961D03*
D648*
X001580Y009961D03*
D649*
X001579Y009963D03*
D650*
X006715Y009965D03*
D651*
X005036Y009965D03*
D652*
X004430Y009965D03*
D653*
X003832Y009965D03*
D654*
X002857Y009965D03*
D655*
X002352Y009965D03*
D656*
X001749Y009965D03*
D657*
X001411Y009965D03*
D658*
X006715Y009967D03*
D659*
X004429Y009967D03*
D660*
X003832Y009967D03*
D661*
X002855Y009967D03*
D662*
X002352Y009967D03*
D663*
X001749Y009967D03*
X001411Y009967D03*
D664*
X006715Y009970D03*
D665*
X001749Y009970D03*
X001411Y009970D03*
D666*
X004415Y009996D03*
X006715Y009972D03*
D667*
X006715Y009974D03*
D668*
X005036Y009974D03*
D669*
X004427Y009974D03*
D670*
X003832Y009974D03*
D671*
X002851Y009974D03*
X005035Y010014D03*
D672*
X002352Y009974D03*
D673*
X001411Y009974D03*
D674*
X006715Y009976D03*
D675*
X004426Y009976D03*
D676*
X003832Y009976D03*
D677*
X002850Y009976D03*
D678*
X002352Y009976D03*
D679*
X004409Y010004D03*
X005035Y009980D03*
X006715Y009978D03*
D680*
X006714Y010002D03*
X004375Y010028D03*
X001749Y009978D03*
X001411Y009978D03*
D681*
X004424Y009980D03*
D682*
X006714Y009982D03*
D683*
X003832Y009982D03*
D684*
X002846Y009982D03*
D685*
X002353Y009982D03*
D686*
X002352Y009984D03*
X003831Y009992D03*
D687*
X001749Y009984D03*
D688*
X003832Y009988D03*
D689*
X003832Y009998D03*
X006714Y009990D03*
D690*
X005036Y009990D03*
D691*
X004419Y009990D03*
D692*
X003832Y009990D03*
D693*
X002840Y009990D03*
D694*
X002352Y009990D03*
D695*
X001748Y009990D03*
D696*
X001411Y009990D03*
D697*
X005035Y009992D03*
D698*
X002352Y009992D03*
D699*
X001749Y009992D03*
X001411Y009992D03*
X003832Y010016D03*
D700*
X005035Y009994D03*
D701*
X003832Y009994D03*
D702*
X003831Y010004D03*
X006715Y009996D03*
D703*
X003832Y010018D03*
X001749Y009996D03*
X001411Y009996D03*
D704*
X006714Y009998D03*
D705*
X005035Y009998D03*
D706*
X002833Y009998D03*
D707*
X002352Y009998D03*
D708*
X001748Y009998D03*
D709*
X001411Y009998D03*
D710*
X004412Y010000D03*
D711*
X002831Y010000D03*
D712*
X001748Y010000D03*
D713*
X001412Y010000D03*
X005035Y010016D03*
D714*
X001411Y010002D03*
D715*
X002353Y010006D03*
X004369Y010030D03*
X006714Y010006D03*
D716*
X004408Y010006D03*
D717*
X003831Y010006D03*
D718*
X002825Y010006D03*
D719*
X001748Y010006D03*
X001412Y010006D03*
D720*
X005034Y010008D03*
D721*
X002352Y010008D03*
D722*
X001748Y010008D03*
X003831Y010024D03*
D723*
X001411Y010008D03*
D724*
X001411Y010010D03*
D725*
X002352Y010014D03*
X006713Y010014D03*
D726*
X004399Y010014D03*
D727*
X003832Y010014D03*
D728*
X002815Y010014D03*
D729*
X001748Y010014D03*
D730*
X001411Y010014D03*
D731*
X002352Y010016D03*
X006713Y010016D03*
D732*
X004397Y010016D03*
D733*
X001749Y010016D03*
X001411Y010016D03*
D734*
X001411Y010018D03*
D735*
X001412Y010020D03*
X001748Y010020D03*
X006713Y010028D03*
D736*
X006714Y010022D03*
D737*
X005034Y010022D03*
D738*
X004388Y010022D03*
D739*
X003831Y010022D03*
D740*
X002352Y010022D03*
D741*
X006713Y010024D03*
D742*
X005034Y010024D03*
D743*
X002352Y010024D03*
D744*
X006714Y010026D03*
D745*
X005034Y010026D03*
D746*
X001411Y010026D03*
D747*
X003832Y010030D03*
D748*
X002353Y010030D03*
D749*
X003832Y010032D03*
D750*
X003832Y010034D03*
D751*
X002352Y010034D03*
D752*
X001749Y010034D03*
D753*
X003832Y010038D03*
D754*
X002353Y010042D03*
D755*
X001749Y010042D03*
D756*
X001410Y010042D03*
D757*
X003833Y010044D03*
D758*
X006210Y010098D03*
D759*
X006209Y010102D03*
D760*
X006210Y010104D03*
D761*
X006209Y010106D03*
D762*
X006209Y010110D03*
D763*
X006210Y010114D03*
D764*
X006209Y010116D03*
X006209Y010209D03*
D765*
X006209Y010207D03*
X006209Y010118D03*
D766*
X006209Y010120D03*
X006209Y010205D03*
D767*
X006209Y010122D03*
D768*
X006210Y010203D03*
D769*
X006209Y010211D03*
D770*
X006209Y010215D03*
D771*
X006209Y010219D03*
D772*
X006209Y010221D03*
D773*
X006210Y010223D03*
D774*
X006209Y010225D03*
M02*
