G75*
G70*
%OFA0B0*%
%FSLAX24Y24*%
%IPPOS*%
%LPD*%
%AMOC8*
5,1,8,0,0,1.08239X$1,22.5*
%
%ADD10C,0.0050*%
%ADD11C,0.0040*%
%ADD12C,0.0120*%
%ADD13C,0.0100*%
%ADD14C,0.0000*%
%ADD15C,0.0060*%
%ADD16C,0.0080*%
%ADD17C,0.0256*%
%ADD18C,0.0004*%
%ADD19C,0.0160*%
%ADD20C,0.0001*%
%ADD21C,0.0039*%
%ADD22R,0.0020X0.0197*%
D10*
X007158Y005886D02*
X007158Y008596D01*
X007593Y008596D02*
X007595Y008604D01*
X007600Y008611D01*
X007607Y008615D01*
X007615Y008616D01*
X007623Y008613D01*
X007629Y008608D01*
X007633Y008600D01*
X007633Y008592D01*
X007629Y008584D01*
X007623Y008579D01*
X007615Y008576D01*
X007607Y008577D01*
X007600Y008581D01*
X007595Y008588D01*
X007593Y008596D01*
X007158Y008596D02*
X007160Y008637D01*
X007165Y008677D01*
X007174Y008717D01*
X007187Y008756D01*
X007203Y008793D01*
X007222Y008829D01*
X007245Y008863D01*
X007270Y008895D01*
X007299Y008925D01*
X007329Y008952D01*
X007362Y008976D01*
X007397Y008997D01*
X007434Y009014D01*
X007472Y009029D01*
X007512Y009040D01*
X007552Y009047D01*
X007593Y009051D01*
X007633Y009051D01*
X007674Y009047D01*
X007714Y009040D01*
X007754Y009029D01*
X007792Y009014D01*
X007829Y008997D01*
X007864Y008976D01*
X007897Y008952D01*
X007927Y008925D01*
X007956Y008895D01*
X007981Y008863D01*
X008004Y008829D01*
X008023Y008793D01*
X008039Y008756D01*
X008052Y008717D01*
X008061Y008677D01*
X008066Y008637D01*
X008068Y008596D01*
X008068Y005886D01*
X008066Y005845D01*
X008061Y005805D01*
X008052Y005765D01*
X008039Y005726D01*
X008023Y005689D01*
X008004Y005653D01*
X007981Y005619D01*
X007956Y005587D01*
X007927Y005557D01*
X007897Y005530D01*
X007864Y005506D01*
X007829Y005485D01*
X007792Y005468D01*
X007754Y005453D01*
X007714Y005442D01*
X007674Y005435D01*
X007633Y005431D01*
X007593Y005431D01*
X007552Y005435D01*
X007512Y005442D01*
X007472Y005453D01*
X007434Y005468D01*
X007397Y005485D01*
X007362Y005506D01*
X007329Y005530D01*
X007299Y005557D01*
X007270Y005587D01*
X007245Y005619D01*
X007222Y005653D01*
X007203Y005689D01*
X007187Y005726D01*
X007174Y005765D01*
X007165Y005805D01*
X007160Y005845D01*
X007158Y005886D01*
X007593Y005436D02*
X007595Y005444D01*
X007600Y005451D01*
X007607Y005455D01*
X007615Y005456D01*
X007623Y005453D01*
X007629Y005448D01*
X007633Y005440D01*
X007633Y005432D01*
X007629Y005424D01*
X007623Y005419D01*
X007615Y005416D01*
X007607Y005417D01*
X007600Y005421D01*
X007595Y005428D01*
X007593Y005436D01*
X007593Y006391D02*
X007595Y006399D01*
X007600Y006406D01*
X007607Y006410D01*
X007615Y006411D01*
X007623Y006408D01*
X007629Y006403D01*
X007633Y006395D01*
X007633Y006387D01*
X007629Y006379D01*
X007623Y006374D01*
X007615Y006371D01*
X007607Y006372D01*
X007600Y006376D01*
X007595Y006383D01*
X007593Y006391D01*
X007593Y007471D02*
X007595Y007479D01*
X007600Y007486D01*
X007607Y007490D01*
X007615Y007491D01*
X007623Y007488D01*
X007629Y007483D01*
X007633Y007475D01*
X007633Y007467D01*
X007629Y007459D01*
X007623Y007454D01*
X007615Y007451D01*
X007607Y007452D01*
X007600Y007456D01*
X007595Y007463D01*
X007593Y007471D01*
X009100Y004834D02*
X009100Y004784D01*
X009050Y004784D02*
X009052Y004797D01*
X009057Y004810D01*
X009066Y004821D01*
X009077Y004828D01*
X009090Y004833D01*
X009103Y004834D01*
X009117Y004831D01*
X009129Y004825D01*
X009139Y004816D01*
X009146Y004804D01*
X009150Y004791D01*
X009150Y004777D01*
X009146Y004764D01*
X009139Y004752D01*
X009129Y004743D01*
X009117Y004737D01*
X009103Y004734D01*
X009090Y004735D01*
X009077Y004740D01*
X009066Y004747D01*
X009057Y004758D01*
X009052Y004771D01*
X009050Y004784D01*
D11*
X008862Y005236D02*
X008755Y005236D01*
X008701Y005290D01*
X008701Y005343D01*
X008755Y005396D01*
X008862Y005396D01*
X008915Y005343D01*
X008915Y005290D01*
X008862Y005236D01*
X008862Y005396D02*
X008915Y005450D01*
X008915Y005503D01*
X008862Y005557D01*
X008755Y005557D01*
X008701Y005503D01*
X008701Y005450D01*
X008755Y005396D01*
X008584Y005396D02*
X008530Y005343D01*
X008370Y005343D01*
X008370Y005236D02*
X008370Y005557D01*
X008530Y005557D01*
X008584Y005503D01*
X008584Y005396D01*
X008477Y005343D02*
X008584Y005236D01*
X008357Y004692D02*
X008143Y004692D01*
X008090Y004639D01*
X008090Y004479D01*
X008410Y004479D01*
X008410Y004639D01*
X008357Y004692D01*
X008357Y004092D02*
X008410Y004039D01*
X008410Y003932D01*
X008357Y003879D01*
X008143Y003879D01*
X008090Y003932D01*
X008090Y004039D01*
X008143Y004092D01*
X008250Y003442D02*
X008250Y003229D01*
X008143Y003336D02*
X008357Y003336D01*
X007419Y003388D02*
X007365Y003334D01*
X007419Y003388D02*
X007419Y003494D01*
X007365Y003548D01*
X007312Y003548D01*
X007259Y003494D01*
X007259Y003388D01*
X007205Y003334D01*
X007152Y003334D01*
X007098Y003388D01*
X007098Y003494D01*
X007152Y003548D01*
X007098Y003666D02*
X007098Y003826D01*
X007152Y003879D01*
X007205Y003879D01*
X007259Y003826D01*
X007259Y003666D01*
X007259Y003826D02*
X007312Y003879D01*
X007365Y003879D01*
X007419Y003826D01*
X007419Y003666D01*
X007098Y003666D01*
X007259Y003997D02*
X007259Y004211D01*
X007365Y004329D02*
X007152Y004329D01*
X007098Y004382D01*
X007098Y004489D01*
X007152Y004542D01*
X007365Y004542D02*
X007419Y004489D01*
X007419Y004382D01*
X007365Y004329D01*
X007365Y003216D02*
X007098Y003216D01*
X007098Y003003D02*
X007365Y003003D01*
X007419Y003056D01*
X007419Y003163D01*
X007365Y003216D01*
X006260Y004966D02*
X005940Y004966D01*
X005940Y005126D01*
X005993Y005180D01*
X006100Y005180D01*
X006153Y005126D01*
X006153Y004966D01*
X006153Y005073D02*
X006260Y005180D01*
X006100Y005298D02*
X006100Y005511D01*
X006260Y005458D02*
X005940Y005458D01*
X006100Y005298D01*
X005810Y005351D02*
X005757Y005298D01*
X005810Y005351D02*
X005810Y005458D01*
X005757Y005511D01*
X005703Y005511D01*
X005650Y005458D01*
X005650Y005405D01*
X005650Y005458D02*
X005596Y005511D01*
X005543Y005511D01*
X005490Y005458D01*
X005490Y005351D01*
X005543Y005298D01*
X005543Y005180D02*
X005650Y005180D01*
X005703Y005126D01*
X005703Y004966D01*
X005810Y004966D02*
X005490Y004966D01*
X005490Y005126D01*
X005543Y005180D01*
X005360Y005180D02*
X005253Y005073D01*
X005253Y005126D02*
X005253Y004966D01*
X005360Y004966D02*
X005040Y004966D01*
X005040Y005126D01*
X005093Y005180D01*
X005200Y005180D01*
X005253Y005126D01*
X005360Y005298D02*
X005146Y005511D01*
X005093Y005511D01*
X005040Y005458D01*
X005040Y005351D01*
X005093Y005298D01*
X004910Y005298D02*
X004910Y005511D01*
X004910Y005405D02*
X004590Y005405D01*
X004696Y005298D01*
X004643Y005180D02*
X004750Y005180D01*
X004803Y005126D01*
X004803Y004966D01*
X004910Y004966D02*
X004590Y004966D01*
X004590Y005126D01*
X004643Y005180D01*
X004803Y005073D02*
X004910Y005180D01*
X005360Y005298D02*
X005360Y005511D01*
X005703Y005073D02*
X005810Y005180D01*
X006129Y005736D02*
X006236Y005736D01*
X006289Y005790D01*
X006289Y005896D01*
X006182Y005896D01*
X006076Y005790D02*
X006129Y005736D01*
X006076Y005790D02*
X006076Y006003D01*
X006129Y006057D01*
X006236Y006057D01*
X006289Y006003D01*
X006407Y006057D02*
X006621Y005736D01*
X006621Y006057D01*
X006739Y006057D02*
X006739Y005736D01*
X006899Y005736D01*
X006952Y005790D01*
X006952Y006003D01*
X006899Y006057D01*
X006739Y006057D01*
X006407Y006057D02*
X006407Y005736D01*
X008370Y007985D02*
X008370Y008305D01*
X008530Y008305D01*
X008584Y008252D01*
X008584Y008145D01*
X008530Y008091D01*
X008370Y008091D01*
X008477Y008091D02*
X008584Y007985D01*
X008701Y007985D02*
X008701Y008038D01*
X008915Y008252D01*
X008915Y008305D01*
X008701Y008305D01*
X007579Y009441D02*
X007525Y009388D01*
X007419Y009388D01*
X007365Y009441D01*
X007247Y009441D02*
X007194Y009388D01*
X007087Y009388D01*
X007034Y009441D01*
X007034Y009655D01*
X007087Y009708D01*
X007194Y009708D01*
X007247Y009655D01*
X007365Y009655D02*
X007419Y009708D01*
X007525Y009708D01*
X007579Y009655D01*
X007579Y009601D01*
X007525Y009548D01*
X007579Y009495D01*
X007579Y009441D01*
X007525Y009548D02*
X007472Y009548D01*
X006733Y009547D02*
X006519Y009547D01*
X006733Y009760D01*
X006733Y009813D01*
X006679Y009867D01*
X006573Y009867D01*
X006519Y009813D01*
X006401Y009813D02*
X006348Y009867D01*
X006241Y009867D01*
X006188Y009813D01*
X006188Y009600D01*
X006241Y009547D01*
X006348Y009547D01*
X006401Y009600D01*
X006074Y009547D02*
X005967Y009547D01*
X006020Y009547D02*
X006020Y009867D01*
X005967Y009867D02*
X006074Y009867D01*
X006218Y011017D02*
X006218Y011338D01*
X006379Y011338D01*
X006432Y011284D01*
X006432Y011178D01*
X006379Y011124D01*
X006218Y011124D01*
X006325Y011124D02*
X006432Y011017D01*
X006550Y011071D02*
X006603Y011017D01*
X006710Y011017D01*
X006763Y011071D01*
X006763Y011124D01*
X006710Y011178D01*
X006550Y011178D01*
X006550Y011071D01*
X006550Y011178D02*
X006657Y011284D01*
X006763Y011338D01*
X004710Y010779D02*
X004710Y010672D01*
X004657Y010619D01*
X004657Y010501D02*
X004710Y010447D01*
X004710Y010341D01*
X004657Y010287D01*
X004443Y010287D01*
X004390Y010341D01*
X004390Y010447D01*
X004443Y010501D01*
X004443Y010619D02*
X004390Y010672D01*
X004390Y010779D01*
X004443Y010832D01*
X004496Y010832D01*
X004550Y010779D01*
X004603Y010832D01*
X004657Y010832D01*
X004710Y010779D01*
X004550Y010779D02*
X004550Y010726D01*
X004710Y010173D02*
X004710Y010066D01*
X004710Y010120D02*
X004390Y010120D01*
X004390Y010173D02*
X004390Y010066D01*
X003860Y009457D02*
X003913Y009403D01*
X003913Y009350D01*
X003700Y009136D01*
X003913Y009136D01*
X003860Y009457D02*
X003753Y009457D01*
X003700Y009403D01*
X003582Y009403D02*
X003529Y009457D01*
X003422Y009457D01*
X003368Y009403D01*
X003368Y009190D01*
X003422Y009136D01*
X003529Y009136D01*
X003582Y009190D01*
X003258Y010271D02*
X002938Y010271D01*
X002938Y010431D01*
X002992Y010485D01*
X003098Y010485D01*
X003152Y010431D01*
X003152Y010271D01*
X003152Y010378D02*
X003258Y010485D01*
X003205Y010603D02*
X003258Y010656D01*
X003258Y010763D01*
X003205Y010816D01*
X003098Y010816D01*
X003045Y010763D01*
X003045Y010710D01*
X003098Y010603D01*
X002938Y010603D01*
X002938Y010816D01*
X002265Y009916D02*
X002051Y009916D01*
X002158Y009916D02*
X002158Y010236D01*
X002051Y010129D01*
X001934Y010183D02*
X001880Y010236D01*
X001773Y010236D01*
X001720Y010183D01*
X001720Y009969D01*
X001773Y009916D01*
X001880Y009916D01*
X001934Y009969D01*
X001010Y009839D02*
X001010Y009733D01*
X000957Y009679D01*
X000743Y009679D01*
X000690Y009733D01*
X000690Y009839D01*
X000743Y009893D01*
X000957Y009893D02*
X001010Y009839D01*
X000957Y009561D02*
X001010Y009508D01*
X001010Y009401D01*
X000957Y009348D01*
X000743Y009348D01*
X000690Y009401D01*
X000690Y009508D01*
X000743Y009561D01*
X000690Y009230D02*
X000903Y009230D01*
X001010Y009123D01*
X000903Y009016D01*
X000690Y009016D01*
X002470Y007250D02*
X002470Y007036D01*
X002470Y007196D02*
X002684Y007196D01*
X002684Y007250D02*
X002684Y007036D01*
X002684Y007250D02*
X002577Y007357D01*
X002470Y007250D01*
X003070Y007196D02*
X003230Y007196D01*
X003284Y007143D01*
X003284Y007090D01*
X003230Y007036D01*
X003070Y007036D01*
X003070Y007357D01*
X003230Y007357D01*
X003284Y007303D01*
X003284Y007250D01*
X003230Y007196D01*
X003561Y006943D02*
X003881Y006943D01*
X003881Y006836D02*
X003881Y007050D01*
X003668Y006836D02*
X003561Y006943D01*
X003614Y006718D02*
X003561Y006665D01*
X003561Y006558D01*
X003614Y006505D01*
X003828Y006505D01*
X003881Y006558D01*
X003881Y006665D01*
X003828Y006718D01*
X003881Y006391D02*
X003881Y006284D01*
X003881Y006337D02*
X003561Y006337D01*
X003561Y006284D02*
X003561Y006391D01*
X003060Y004411D02*
X003060Y004198D01*
X002846Y004411D01*
X002793Y004411D01*
X002740Y004358D01*
X002740Y004251D01*
X002793Y004198D01*
X002660Y004198D02*
X002660Y004411D01*
X002660Y004305D02*
X002340Y004305D01*
X002446Y004198D01*
X002660Y004080D02*
X002660Y003866D01*
X002340Y003866D01*
X002740Y003866D02*
X003060Y003866D01*
X003060Y004080D01*
X007377Y000626D02*
X007377Y000466D01*
X007431Y000413D01*
X007644Y000413D01*
X007698Y000466D01*
X007698Y000626D01*
X007377Y000626D01*
X007877Y000573D02*
X007877Y000466D01*
X007931Y000413D01*
X007877Y000573D02*
X007931Y000626D01*
X008144Y000626D01*
X008198Y000573D01*
X008198Y000466D01*
X008144Y000413D01*
X008356Y000542D02*
X008569Y000542D01*
X008462Y000648D02*
X008462Y000435D01*
X008601Y000931D02*
X008814Y000931D01*
X008868Y000985D01*
X008868Y001091D01*
X008814Y001145D01*
X008761Y001145D01*
X008708Y001091D01*
X008708Y000931D01*
X008601Y000931D02*
X008547Y000985D01*
X008547Y001091D01*
X008601Y001145D01*
X008547Y001263D02*
X008654Y001370D01*
X008654Y001316D02*
X008654Y001476D01*
X008547Y001476D02*
X008868Y001476D01*
X008868Y001316D01*
X008814Y001263D01*
X008708Y001263D01*
X008654Y001316D01*
X004005Y011792D02*
X003898Y011792D01*
X003845Y011846D01*
X003952Y011952D02*
X004005Y011952D01*
X004058Y011899D01*
X004058Y011846D01*
X004005Y011792D01*
X004005Y011952D02*
X004058Y012006D01*
X004058Y012059D01*
X004005Y012112D01*
X003898Y012112D01*
X003845Y012059D01*
X003727Y012112D02*
X003620Y012112D01*
X003674Y012112D02*
X003674Y011846D01*
X003620Y011792D01*
X003567Y011792D01*
X003513Y011846D01*
D12*
X007387Y002826D02*
X008587Y002846D01*
X008587Y002891D01*
X007387Y002826D01*
X007387Y002656D01*
X008587Y002656D01*
X008587Y002846D01*
X008587Y002746D02*
X007387Y002746D01*
D13*
X007364Y002832D02*
X002254Y002646D01*
X002254Y006898D01*
X002248Y006931D01*
X002239Y006963D01*
X002226Y006994D01*
X002210Y007023D01*
X002192Y007050D01*
X002170Y007076D01*
X002146Y007099D01*
X002120Y007119D01*
X002092Y007137D01*
X002062Y007151D01*
X002031Y007162D01*
X001999Y007170D01*
X001966Y007175D01*
X001933Y007176D01*
X001900Y007174D01*
X001899Y007174D02*
X000904Y007174D01*
X000871Y007176D01*
X000839Y007181D01*
X000807Y007189D01*
X000776Y007201D01*
X000747Y007216D01*
X000719Y007234D01*
X000693Y007255D01*
X000670Y007278D01*
X000649Y007304D01*
X000631Y007331D01*
X000616Y007361D01*
X000604Y007392D01*
X000596Y007424D01*
X000591Y007456D01*
X000589Y007489D01*
X000589Y010062D01*
X000591Y010095D01*
X000596Y010127D01*
X000604Y010159D01*
X000616Y010190D01*
X000631Y010219D01*
X000649Y010247D01*
X000670Y010273D01*
X000693Y010296D01*
X000719Y010317D01*
X000747Y010335D01*
X000776Y010350D01*
X000807Y010362D01*
X000839Y010370D01*
X000871Y010375D01*
X000904Y010377D01*
X002595Y010377D01*
X002595Y010376D02*
X002621Y010378D01*
X002646Y010383D01*
X002670Y010391D01*
X002693Y010402D01*
X002715Y010417D01*
X002734Y010434D01*
X002751Y010453D01*
X002766Y010474D01*
X002777Y010498D01*
X002785Y010522D01*
X002790Y010547D01*
X002792Y010573D01*
X002792Y012782D01*
X002794Y012815D01*
X002799Y012847D01*
X002807Y012879D01*
X002819Y012910D01*
X002834Y012939D01*
X002852Y012967D01*
X002873Y012993D01*
X002896Y013016D01*
X002922Y013037D01*
X002950Y013055D01*
X002979Y013070D01*
X003010Y013082D01*
X003042Y013090D01*
X003074Y013095D01*
X003107Y013097D01*
X004489Y013097D01*
X004522Y013095D01*
X004554Y013090D01*
X004586Y013082D01*
X004617Y013070D01*
X004646Y013055D01*
X004674Y013037D01*
X004700Y013016D01*
X004723Y012993D01*
X004744Y012967D01*
X004762Y012939D01*
X004777Y012910D01*
X004789Y012879D01*
X004797Y012847D01*
X004802Y012815D01*
X004804Y012782D01*
X004804Y011456D01*
X008073Y011456D01*
X008073Y011455D02*
X008108Y011452D01*
X008142Y011444D01*
X008175Y011433D01*
X008207Y011419D01*
X008237Y011401D01*
X008265Y011380D01*
X008291Y011356D01*
X008315Y011330D01*
X008335Y011302D01*
X008352Y011271D01*
X008367Y011239D01*
X008377Y011206D01*
X008384Y011171D01*
X008388Y011136D01*
X008387Y011101D01*
X008388Y011101D02*
X008388Y009382D01*
X008387Y009381D02*
X008391Y009333D01*
X008397Y009285D01*
X008408Y009237D01*
X008422Y009191D01*
X008439Y009145D01*
X008460Y009101D01*
X008484Y009059D01*
X008511Y009019D01*
X008541Y008981D01*
X008574Y008945D01*
X008610Y008911D01*
X008647Y008881D01*
X008687Y008853D01*
X008729Y008828D01*
X008773Y008807D01*
X008818Y008789D01*
X008864Y008774D01*
X008912Y008763D01*
X008960Y008756D01*
X009008Y008752D01*
X009057Y008751D01*
X009057Y008752D02*
X009057Y003294D01*
X009055Y003255D01*
X009049Y003217D01*
X009040Y003180D01*
X009027Y003143D01*
X009010Y003108D01*
X008991Y003075D01*
X008968Y003044D01*
X008942Y003015D01*
X008913Y002989D01*
X008882Y002966D01*
X008849Y002947D01*
X008814Y002930D01*
X008777Y002917D01*
X008740Y002908D01*
X008702Y002902D01*
X008663Y002900D01*
X008663Y002901D02*
X008585Y002901D01*
X008585Y002646D01*
X008618Y002644D01*
X008650Y002639D01*
X008682Y002631D01*
X008713Y002619D01*
X008742Y002604D01*
X008770Y002586D01*
X008796Y002565D01*
X008819Y002542D01*
X008840Y002516D01*
X008858Y002488D01*
X008873Y002459D01*
X008885Y002428D01*
X008893Y002396D01*
X008898Y002364D01*
X008900Y002331D01*
X008900Y001623D01*
X008925Y001565D01*
X008947Y001505D01*
X008964Y001444D01*
X008978Y001382D01*
X008988Y001320D01*
X008995Y001257D01*
X008997Y001193D01*
X008995Y001130D01*
X008990Y001066D01*
X008981Y001004D01*
X008968Y000942D01*
X008951Y000880D01*
X008930Y000820D01*
X008906Y000762D01*
X008878Y000705D01*
X008847Y000649D01*
X008813Y000596D01*
X008775Y000545D01*
X008734Y000496D01*
X008690Y000450D01*
X008644Y000407D01*
X008595Y000367D01*
X008544Y000329D01*
X008490Y000295D01*
X008435Y000265D01*
X008377Y000237D01*
X008318Y000214D01*
X008258Y000194D01*
X008197Y000177D01*
X008135Y000165D01*
X008072Y000156D01*
X008009Y000151D01*
X007945Y000150D01*
X007882Y000153D01*
X007819Y000160D01*
X007756Y000170D01*
X007694Y000185D01*
X007633Y000203D01*
X007574Y000225D01*
X007516Y000251D01*
X007459Y000280D01*
X007405Y000312D01*
X007352Y000348D01*
X007302Y000387D01*
X007254Y000428D01*
X007209Y000473D01*
X007167Y000520D01*
X007167Y002095D01*
X007168Y002096D02*
X007141Y002117D01*
X007116Y002141D01*
X007095Y002168D01*
X007076Y002197D01*
X007061Y002228D01*
X007050Y002260D01*
X007042Y002293D01*
X007038Y002328D01*
X007039Y002362D01*
X007043Y002396D01*
X007050Y002430D01*
X007062Y002462D01*
X007077Y002493D01*
X007096Y002522D01*
X007117Y002548D01*
X007142Y002572D01*
X007169Y002593D01*
X007198Y002611D01*
X007229Y002626D01*
X007262Y002637D01*
X007296Y002644D01*
X007330Y002647D01*
X007364Y002646D01*
X007364Y002832D01*
D14*
X007670Y002746D02*
X007672Y002761D01*
X007677Y002775D01*
X007686Y002787D01*
X007698Y002797D01*
X007711Y002803D01*
X007726Y002806D01*
X007741Y002805D01*
X007756Y002800D01*
X007768Y002792D01*
X007779Y002781D01*
X007786Y002768D01*
X007790Y002754D01*
X007790Y002738D01*
X007786Y002724D01*
X007779Y002711D01*
X007768Y002700D01*
X007756Y002692D01*
X007741Y002687D01*
X007726Y002686D01*
X007711Y002689D01*
X007698Y002695D01*
X007686Y002705D01*
X007677Y002717D01*
X007672Y002731D01*
X007670Y002746D01*
X008180Y002746D02*
X008182Y002761D01*
X008187Y002775D01*
X008196Y002787D01*
X008208Y002797D01*
X008221Y002803D01*
X008236Y002806D01*
X008251Y002805D01*
X008266Y002800D01*
X008278Y002792D01*
X008289Y002781D01*
X008296Y002768D01*
X008300Y002754D01*
X008300Y002738D01*
X008296Y002724D01*
X008289Y002711D01*
X008278Y002700D01*
X008266Y002692D01*
X008251Y002687D01*
X008236Y002686D01*
X008221Y002689D01*
X008208Y002695D01*
X008196Y002705D01*
X008187Y002717D01*
X008182Y002731D01*
X008180Y002746D01*
X008239Y001343D02*
X008278Y001343D01*
X008280Y001328D01*
X008286Y001314D01*
X008296Y001301D01*
X008308Y001292D01*
X008322Y001286D01*
X008337Y001284D01*
X008353Y001286D01*
X008367Y001292D01*
X008379Y001301D01*
X008389Y001314D01*
X008394Y001328D01*
X008396Y001343D01*
X008436Y001343D01*
X008436Y001225D01*
X008239Y001225D01*
X008239Y001343D01*
X008086Y001343D02*
X008086Y001225D01*
X007889Y001225D01*
X007889Y001343D01*
X007928Y001343D01*
X007930Y001328D01*
X007936Y001314D01*
X007946Y001301D01*
X007958Y001292D01*
X007972Y001286D01*
X007987Y001284D01*
X008003Y001286D01*
X008017Y001292D01*
X008029Y001301D01*
X008039Y001314D01*
X008044Y001328D01*
X008046Y001343D01*
X008086Y001343D01*
X008086Y001068D02*
X007889Y001068D01*
X007889Y000949D01*
X007928Y000949D01*
X007930Y000965D01*
X007936Y000979D01*
X007946Y000991D01*
X007958Y001001D01*
X007972Y001006D01*
X007987Y001008D01*
X008003Y001006D01*
X008017Y001001D01*
X008029Y000991D01*
X008039Y000979D01*
X008044Y000965D01*
X008046Y000949D01*
X008086Y000949D01*
X008086Y001068D01*
X008239Y001068D02*
X008436Y001068D01*
X008436Y000949D01*
X008396Y000949D01*
X008394Y000965D01*
X008389Y000979D01*
X008379Y000991D01*
X008367Y001001D01*
X008353Y001006D01*
X008337Y001008D01*
X008322Y001006D01*
X008308Y001001D01*
X008296Y000991D01*
X008286Y000979D01*
X008280Y000965D01*
X008278Y000949D01*
X008239Y000949D01*
X008239Y001068D01*
X007736Y001068D02*
X007539Y001068D01*
X007539Y000949D01*
X007578Y000949D01*
X007580Y000965D01*
X007586Y000979D01*
X007596Y000991D01*
X007608Y001001D01*
X007622Y001006D01*
X007637Y001008D01*
X007653Y001006D01*
X007667Y001001D01*
X007679Y000991D01*
X007689Y000979D01*
X007694Y000965D01*
X007696Y000949D01*
X007736Y000949D01*
X007736Y001068D01*
X007736Y001225D02*
X007539Y001225D01*
X007539Y001343D01*
X007578Y001343D01*
X007580Y001328D01*
X007586Y001314D01*
X007596Y001301D01*
X007608Y001292D01*
X007622Y001286D01*
X007637Y001284D01*
X007653Y001286D01*
X007667Y001292D01*
X007679Y001301D01*
X007689Y001314D01*
X007694Y001328D01*
X007696Y001343D01*
X007736Y001343D01*
X007736Y001225D01*
X002948Y003112D02*
X002909Y003112D01*
X002907Y003127D01*
X002901Y003142D01*
X002892Y003154D01*
X002880Y003163D01*
X002865Y003169D01*
X002850Y003171D01*
X002835Y003169D01*
X002820Y003163D01*
X002808Y003154D01*
X002799Y003142D01*
X002793Y003127D01*
X002791Y003112D01*
X002752Y003112D01*
X002752Y003230D01*
X002948Y003230D01*
X002948Y003112D01*
X002948Y003388D02*
X002752Y003388D01*
X002752Y003506D01*
X002791Y003506D01*
X002793Y003490D01*
X002799Y003476D01*
X002808Y003464D01*
X002820Y003455D01*
X002835Y003449D01*
X002850Y003447D01*
X002865Y003449D01*
X002880Y003455D01*
X002892Y003464D01*
X002901Y003476D01*
X002907Y003490D01*
X002909Y003506D01*
X002948Y003506D01*
X002948Y003388D01*
X002598Y003388D02*
X002402Y003388D01*
X002402Y003506D01*
X002441Y003506D01*
X002443Y003490D01*
X002449Y003476D01*
X002458Y003464D01*
X002470Y003455D01*
X002485Y003449D01*
X002500Y003447D01*
X002515Y003449D01*
X002530Y003455D01*
X002542Y003464D01*
X002551Y003476D01*
X002557Y003490D01*
X002559Y003506D01*
X002598Y003506D01*
X002598Y003388D01*
X002598Y003230D02*
X002402Y003230D01*
X002402Y003112D01*
X002441Y003112D01*
X002443Y003127D01*
X002449Y003142D01*
X002458Y003154D01*
X002470Y003163D01*
X002485Y003169D01*
X002500Y003171D01*
X002515Y003169D01*
X002530Y003163D01*
X002542Y003154D01*
X002551Y003142D01*
X002557Y003127D01*
X002559Y003112D01*
X002598Y003112D01*
X002598Y003230D01*
D15*
X002846Y005074D02*
X002354Y005074D01*
X002354Y006019D01*
X002846Y006019D01*
X002846Y005074D01*
X002904Y005074D02*
X003396Y005074D01*
X003396Y006019D01*
X002904Y006019D01*
X002904Y005074D01*
X003454Y005074D02*
X003454Y006019D01*
X003946Y006019D01*
X003946Y005074D01*
X003454Y005074D01*
X004004Y005074D02*
X004004Y006019D01*
X004496Y006019D01*
X004496Y005074D01*
X004004Y005074D01*
X003375Y006121D02*
X002375Y006121D01*
X002358Y006123D01*
X002341Y006127D01*
X002325Y006134D01*
X002311Y006144D01*
X002298Y006157D01*
X002288Y006171D01*
X002281Y006187D01*
X002277Y006204D01*
X002275Y006221D01*
X002275Y006821D01*
X002277Y006838D01*
X002281Y006855D01*
X002288Y006871D01*
X002298Y006885D01*
X002311Y006898D01*
X002325Y006908D01*
X002341Y006915D01*
X002358Y006919D01*
X002375Y006921D01*
X003375Y006921D01*
X003392Y006919D01*
X003409Y006915D01*
X003425Y006908D01*
X003439Y006898D01*
X003452Y006885D01*
X003462Y006871D01*
X003469Y006855D01*
X003473Y006838D01*
X003475Y006821D01*
X003475Y006221D01*
X003473Y006204D01*
X003469Y006187D01*
X003462Y006171D01*
X003452Y006157D01*
X003439Y006144D01*
X003425Y006134D01*
X003409Y006127D01*
X003392Y006123D01*
X003375Y006121D01*
X003398Y007896D02*
X003298Y007896D01*
X003348Y007896D02*
X003348Y008197D01*
X003298Y008197D02*
X003398Y008197D01*
X003408Y008346D02*
X003558Y008346D01*
X003608Y008396D01*
X003608Y008446D01*
X003558Y008496D01*
X003408Y008496D01*
X003277Y008446D02*
X003277Y008396D01*
X003227Y008346D01*
X003127Y008346D01*
X003077Y008396D01*
X003127Y008496D02*
X003227Y008496D01*
X003277Y008446D01*
X003277Y008596D02*
X003227Y008647D01*
X003127Y008647D01*
X003077Y008596D01*
X003077Y008546D01*
X003127Y008496D01*
X002946Y008396D02*
X002946Y008647D01*
X002946Y008396D02*
X002895Y008346D01*
X002795Y008346D01*
X002745Y008396D01*
X002745Y008647D01*
X002882Y009001D02*
X002882Y009848D01*
X001030Y009848D01*
X001030Y009001D01*
X002882Y009001D01*
X003082Y009560D02*
X003082Y010133D01*
X004323Y010133D01*
X004323Y009560D01*
X003082Y009560D01*
X003371Y010250D02*
X003371Y010742D01*
X004316Y010742D01*
X004316Y010250D01*
X003371Y010250D01*
X003408Y008647D02*
X003558Y008647D01*
X003608Y008596D01*
X003608Y008546D01*
X003558Y008496D01*
X003408Y008346D02*
X003408Y008647D01*
X003519Y008197D02*
X003719Y008197D01*
X003619Y008197D02*
X003619Y007896D01*
X003167Y007896D02*
X003016Y008046D01*
X002966Y007996D02*
X003167Y008197D01*
X002966Y008197D02*
X002966Y007896D01*
X002504Y007946D02*
X002504Y008046D01*
X002403Y008046D01*
X002303Y007946D02*
X002353Y007896D01*
X002453Y007896D01*
X002504Y007946D01*
X002504Y008146D02*
X002453Y008197D01*
X002353Y008197D01*
X002303Y008146D01*
X002303Y007946D01*
X002172Y007896D02*
X002072Y007996D01*
X002122Y007996D02*
X001972Y007996D01*
X001972Y007896D02*
X001972Y008197D01*
X002122Y008197D01*
X002172Y008146D01*
X002172Y008046D01*
X002122Y007996D01*
X002132Y008346D02*
X002233Y008346D01*
X002283Y008396D01*
X002283Y008596D02*
X002233Y008647D01*
X002132Y008647D01*
X002082Y008596D01*
X002082Y008396D01*
X002132Y008346D01*
X001951Y008396D02*
X001901Y008346D01*
X001751Y008346D01*
X001751Y008647D01*
X001901Y008647D01*
X001951Y008596D01*
X001951Y008546D01*
X001901Y008496D01*
X001751Y008496D01*
X001620Y008496D02*
X001519Y008496D01*
X001620Y008496D02*
X001620Y008396D01*
X001570Y008346D01*
X001469Y008346D01*
X001419Y008396D01*
X001419Y008596D01*
X001469Y008647D01*
X001570Y008647D01*
X001620Y008596D01*
X001901Y008496D02*
X001951Y008446D01*
X001951Y008396D01*
X001841Y008197D02*
X001841Y007896D01*
X001841Y008046D02*
X001640Y008046D01*
X001640Y007896D02*
X001640Y008197D01*
X001509Y008146D02*
X001459Y008197D01*
X001359Y008197D01*
X001309Y008146D01*
X001309Y007946D01*
X001359Y007896D01*
X001459Y007896D01*
X001509Y007946D01*
X004760Y008060D02*
X006180Y008060D01*
X006863Y009826D02*
X007436Y009826D01*
X007436Y011067D01*
X006863Y011067D01*
X006863Y009826D01*
X006679Y009974D02*
X006187Y009974D01*
X006187Y010919D01*
X006679Y010919D01*
X006679Y009974D01*
X005910Y010127D02*
X005873Y010127D01*
X005910Y010127D02*
X005910Y010765D01*
X005873Y010765D01*
X005556Y010765D02*
X005519Y010765D01*
X005181Y010765D02*
X005144Y010765D01*
X004827Y010765D02*
X004790Y010765D01*
X004790Y010127D01*
X004827Y010127D01*
X004917Y010269D02*
X004919Y010281D01*
X004924Y010292D01*
X004933Y010301D01*
X004944Y010306D01*
X004956Y010308D01*
X004968Y010306D01*
X004979Y010301D01*
X004988Y010292D01*
X004993Y010281D01*
X004995Y010269D01*
X004993Y010257D01*
X004988Y010246D01*
X004979Y010237D01*
X004968Y010232D01*
X004956Y010230D01*
X004944Y010232D01*
X004933Y010237D01*
X004924Y010246D01*
X004919Y010257D01*
X004917Y010269D01*
X005144Y010127D02*
X005181Y010127D01*
X005519Y010127D02*
X005556Y010127D01*
X006180Y006200D02*
X004760Y006200D01*
X007515Y002092D02*
X007515Y001600D01*
X008460Y001600D01*
X008460Y002092D01*
X007515Y002092D01*
X008354Y005691D02*
X008354Y006636D01*
X008846Y006636D01*
X008846Y005691D01*
X008354Y005691D01*
X008354Y006891D02*
X008354Y007836D01*
X008846Y007836D01*
X008846Y006891D01*
X008354Y006891D01*
D16*
X006737Y004008D02*
X006737Y003411D01*
X005023Y007840D02*
X005025Y007855D01*
X005031Y007868D01*
X005040Y007880D01*
X005051Y007889D01*
X005065Y007895D01*
X005080Y007897D01*
X005095Y007895D01*
X005108Y007889D01*
X005120Y007880D01*
X005129Y007869D01*
X005135Y007855D01*
X005137Y007840D01*
X005135Y007825D01*
X005129Y007812D01*
X005120Y007800D01*
X005109Y007791D01*
X005095Y007785D01*
X005080Y007783D01*
X005065Y007785D01*
X005052Y007791D01*
X005040Y007800D01*
X005031Y007811D01*
X005025Y007825D01*
X005023Y007840D01*
X004504Y008366D02*
X004504Y009468D01*
X006196Y009468D01*
X006196Y008366D01*
X004504Y008366D01*
X004601Y011340D02*
X004246Y011340D01*
X003360Y011340D02*
X002986Y011340D01*
X003037Y012664D02*
X003037Y013038D01*
X003039Y013041D02*
X004548Y013041D01*
X004545Y013038D02*
X004545Y012664D01*
X003336Y004008D02*
X003336Y003411D01*
D17*
X004710Y009173D03*
D18*
X003454Y004600D02*
X003454Y004356D01*
X003452Y004336D01*
X003447Y004316D01*
X003438Y004297D01*
X003426Y004280D01*
X003412Y004266D01*
X003395Y004254D01*
X003376Y004245D01*
X003356Y004240D01*
X003336Y004238D01*
X003316Y004240D01*
X003296Y004245D01*
X003277Y004254D01*
X003260Y004266D01*
X003246Y004280D01*
X003234Y004297D01*
X003225Y004316D01*
X003220Y004336D01*
X003218Y004356D01*
X003218Y004600D01*
X003220Y004620D01*
X003225Y004640D01*
X003234Y004659D01*
X003246Y004676D01*
X003260Y004690D01*
X003277Y004702D01*
X003296Y004711D01*
X003316Y004716D01*
X003336Y004718D01*
X003356Y004716D01*
X003376Y004711D01*
X003395Y004702D01*
X003412Y004690D01*
X003426Y004676D01*
X003438Y004659D01*
X003447Y004640D01*
X003452Y004620D01*
X003454Y004600D01*
X003454Y003104D02*
X003454Y002860D01*
X003452Y002840D01*
X003447Y002820D01*
X003438Y002801D01*
X003426Y002784D01*
X003412Y002770D01*
X003395Y002758D01*
X003376Y002749D01*
X003356Y002744D01*
X003336Y002742D01*
X003316Y002744D01*
X003296Y002749D01*
X003277Y002758D01*
X003260Y002770D01*
X003246Y002784D01*
X003234Y002801D01*
X003225Y002820D01*
X003220Y002840D01*
X003218Y002860D01*
X003218Y003104D01*
X003220Y003124D01*
X003225Y003144D01*
X003234Y003163D01*
X003246Y003180D01*
X003260Y003194D01*
X003277Y003206D01*
X003296Y003215D01*
X003316Y003220D01*
X003336Y003222D01*
X003356Y003220D01*
X003376Y003215D01*
X003395Y003206D01*
X003412Y003194D01*
X003426Y003180D01*
X003438Y003163D01*
X003447Y003144D01*
X003452Y003124D01*
X003454Y003104D01*
X006619Y003104D02*
X006619Y002860D01*
X006621Y002840D01*
X006626Y002820D01*
X006635Y002801D01*
X006647Y002784D01*
X006661Y002770D01*
X006678Y002758D01*
X006697Y002749D01*
X006717Y002744D01*
X006737Y002742D01*
X006757Y002744D01*
X006777Y002749D01*
X006796Y002758D01*
X006813Y002770D01*
X006827Y002784D01*
X006839Y002801D01*
X006848Y002820D01*
X006853Y002840D01*
X006855Y002860D01*
X006855Y003104D01*
X006853Y003124D01*
X006848Y003144D01*
X006839Y003163D01*
X006827Y003180D01*
X006813Y003194D01*
X006796Y003206D01*
X006777Y003215D01*
X006757Y003220D01*
X006737Y003222D01*
X006717Y003220D01*
X006697Y003215D01*
X006678Y003206D01*
X006661Y003194D01*
X006647Y003180D01*
X006635Y003163D01*
X006626Y003144D01*
X006621Y003124D01*
X006619Y003104D01*
X006619Y004356D02*
X006619Y004600D01*
X006621Y004620D01*
X006626Y004640D01*
X006635Y004659D01*
X006647Y004676D01*
X006661Y004690D01*
X006678Y004702D01*
X006697Y004711D01*
X006717Y004716D01*
X006737Y004718D01*
X006757Y004716D01*
X006777Y004711D01*
X006796Y004702D01*
X006813Y004690D01*
X006827Y004676D01*
X006839Y004659D01*
X006848Y004640D01*
X006853Y004620D01*
X006855Y004600D01*
X006855Y004356D01*
X006853Y004336D01*
X006848Y004316D01*
X006839Y004297D01*
X006827Y004280D01*
X006813Y004266D01*
X006796Y004254D01*
X006777Y004245D01*
X006757Y004240D01*
X006737Y004238D01*
X006717Y004240D01*
X006697Y004245D01*
X006678Y004254D01*
X006661Y004266D01*
X006647Y004280D01*
X006635Y004297D01*
X006626Y004316D01*
X006621Y004336D01*
X006619Y004356D01*
D19*
X004348Y011114D02*
X004350Y011127D01*
X004356Y011139D01*
X004365Y011148D01*
X004376Y011155D01*
X004389Y011158D01*
X004402Y011157D01*
X004414Y011152D01*
X004424Y011144D01*
X004432Y011133D01*
X004436Y011121D01*
X004436Y011107D01*
X004432Y011095D01*
X004424Y011084D01*
X004414Y011076D01*
X004402Y011071D01*
X004389Y011070D01*
X004376Y011073D01*
X004365Y011080D01*
X004356Y011089D01*
X004350Y011101D01*
X004348Y011114D01*
D20*
X002948Y003505D02*
X002909Y003505D01*
X002909Y003504D02*
X002948Y003504D01*
X002948Y003503D02*
X002909Y003503D01*
X002909Y003502D02*
X002948Y003502D01*
X002948Y003501D02*
X002908Y003501D01*
X002908Y003500D02*
X002948Y003500D01*
X002948Y003499D02*
X002908Y003499D01*
X002908Y003498D02*
X002948Y003498D01*
X002948Y003497D02*
X002908Y003497D01*
X002908Y003496D02*
X002948Y003496D01*
X002948Y003495D02*
X002908Y003495D01*
X002908Y003494D02*
X002948Y003494D01*
X002948Y003493D02*
X002907Y003493D01*
X002907Y003492D02*
X002948Y003492D01*
X002948Y003491D02*
X002907Y003491D01*
X002907Y003490D02*
X002948Y003490D01*
X002948Y003489D02*
X002907Y003489D01*
X002906Y003488D02*
X002948Y003488D01*
X002948Y003487D02*
X002906Y003487D01*
X002905Y003486D02*
X002948Y003486D01*
X002948Y003485D02*
X002905Y003485D01*
X002905Y003484D02*
X002948Y003484D01*
X002948Y003483D02*
X002904Y003483D01*
X002904Y003482D02*
X002948Y003482D01*
X002948Y003481D02*
X002903Y003481D01*
X002903Y003480D02*
X002948Y003480D01*
X002948Y003479D02*
X002902Y003479D01*
X002902Y003478D02*
X002948Y003478D01*
X002948Y003477D02*
X002902Y003477D01*
X002901Y003476D02*
X002948Y003476D01*
X002948Y003475D02*
X002901Y003475D01*
X002900Y003474D02*
X002948Y003474D01*
X002948Y003473D02*
X002899Y003473D01*
X002898Y003472D02*
X002948Y003472D01*
X002948Y003471D02*
X002898Y003471D01*
X002897Y003470D02*
X002948Y003470D01*
X002948Y003469D02*
X002896Y003469D01*
X002895Y003468D02*
X002948Y003468D01*
X002948Y003467D02*
X002894Y003467D01*
X002894Y003466D02*
X002948Y003466D01*
X002948Y003465D02*
X002893Y003465D01*
X002892Y003464D02*
X002948Y003464D01*
X002948Y003463D02*
X002891Y003463D01*
X002890Y003462D02*
X002948Y003462D01*
X002948Y003461D02*
X002889Y003461D01*
X002887Y003460D02*
X002948Y003460D01*
X002948Y003459D02*
X002886Y003459D01*
X002885Y003458D02*
X002948Y003458D01*
X002948Y003457D02*
X002883Y003457D01*
X002882Y003456D02*
X002948Y003456D01*
X002948Y003455D02*
X002881Y003455D01*
X002879Y003454D02*
X002948Y003454D01*
X002948Y003453D02*
X002877Y003453D01*
X002874Y003452D02*
X002948Y003452D01*
X002948Y003451D02*
X002872Y003451D01*
X002870Y003450D02*
X002948Y003450D01*
X002948Y003449D02*
X002867Y003449D01*
X002864Y003448D02*
X002948Y003448D01*
X002948Y003447D02*
X002856Y003447D01*
X002844Y003447D02*
X002752Y003447D01*
X002752Y003446D02*
X002948Y003446D01*
X002948Y003445D02*
X002752Y003445D01*
X002752Y003444D02*
X002948Y003444D01*
X002948Y003443D02*
X002752Y003443D01*
X002752Y003442D02*
X002948Y003442D01*
X002948Y003441D02*
X002752Y003441D01*
X002752Y003440D02*
X002948Y003440D01*
X002948Y003439D02*
X002752Y003439D01*
X002752Y003438D02*
X002948Y003438D01*
X002948Y003437D02*
X002752Y003437D01*
X002752Y003436D02*
X002948Y003436D01*
X002752Y003436D01*
X002752Y003435D02*
X002948Y003435D01*
X002948Y003434D02*
X002752Y003434D01*
X002752Y003433D02*
X002948Y003433D01*
X002948Y003432D02*
X002752Y003432D01*
X002752Y003431D02*
X002948Y003431D01*
X002948Y003430D02*
X002752Y003430D01*
X002752Y003429D02*
X002948Y003429D01*
X002948Y003428D02*
X002752Y003428D01*
X002752Y003427D02*
X002948Y003427D01*
X002948Y003426D02*
X002752Y003426D01*
X002752Y003425D02*
X002948Y003425D01*
X002948Y003424D02*
X002752Y003424D01*
X002752Y003423D02*
X002948Y003423D01*
X002948Y003422D02*
X002752Y003422D01*
X002752Y003421D02*
X002948Y003421D01*
X002948Y003420D02*
X002752Y003420D01*
X002752Y003419D02*
X002948Y003419D01*
X002948Y003418D02*
X002752Y003418D01*
X002752Y003417D02*
X002948Y003417D01*
X002948Y003416D02*
X002752Y003416D01*
X002752Y003415D02*
X002948Y003415D01*
X002948Y003414D02*
X002752Y003414D01*
X002752Y003413D02*
X002948Y003413D01*
X002948Y003412D02*
X002752Y003412D01*
X002752Y003411D02*
X002948Y003411D01*
X002948Y003410D02*
X002752Y003410D01*
X002752Y003409D02*
X002948Y003409D01*
X002948Y003408D02*
X002752Y003408D01*
X002752Y003407D02*
X002948Y003407D01*
X002948Y003406D02*
X002752Y003406D01*
X002752Y003405D02*
X002948Y003405D01*
X002948Y003404D02*
X002752Y003404D01*
X002752Y003403D02*
X002948Y003403D01*
X002948Y003402D02*
X002752Y003402D01*
X002752Y003401D02*
X002948Y003401D01*
X002948Y003400D02*
X002752Y003400D01*
X002752Y003399D02*
X002948Y003399D01*
X002948Y003398D02*
X002752Y003398D01*
X002752Y003397D02*
X002948Y003397D01*
X002948Y003396D02*
X002752Y003396D01*
X002752Y003395D02*
X002948Y003395D01*
X002948Y003394D02*
X002752Y003394D01*
X002752Y003393D02*
X002948Y003393D01*
X002948Y003392D02*
X002752Y003392D01*
X002752Y003391D02*
X002948Y003391D01*
X002948Y003390D02*
X002752Y003390D01*
X002752Y003389D02*
X002948Y003389D01*
X002836Y003448D02*
X002752Y003448D01*
X002752Y003449D02*
X002833Y003449D01*
X002830Y003450D02*
X002752Y003450D01*
X002752Y003451D02*
X002828Y003451D01*
X002826Y003452D02*
X002752Y003452D01*
X002752Y003453D02*
X002823Y003453D01*
X002821Y003454D02*
X002752Y003454D01*
X002752Y003455D02*
X002819Y003455D01*
X002818Y003456D02*
X002752Y003456D01*
X002752Y003457D02*
X002817Y003457D01*
X002815Y003458D02*
X002752Y003458D01*
X002752Y003459D02*
X002814Y003459D01*
X002813Y003460D02*
X002752Y003460D01*
X002752Y003461D02*
X002811Y003461D01*
X002810Y003462D02*
X002752Y003462D01*
X002752Y003463D02*
X002809Y003463D01*
X002808Y003464D02*
X002752Y003464D01*
X002752Y003465D02*
X002807Y003465D01*
X002806Y003466D02*
X002752Y003466D01*
X002752Y003467D02*
X002806Y003467D01*
X002805Y003468D02*
X002752Y003468D01*
X002752Y003469D02*
X002804Y003469D01*
X002803Y003470D02*
X002752Y003470D01*
X002752Y003471D02*
X002802Y003471D01*
X002802Y003472D02*
X002752Y003472D01*
X002752Y003473D02*
X002801Y003473D01*
X002800Y003474D02*
X002752Y003474D01*
X002752Y003475D02*
X002799Y003475D01*
X002799Y003476D02*
X002752Y003476D01*
X002752Y003477D02*
X002798Y003477D01*
X002798Y003478D02*
X002752Y003478D01*
X002752Y003479D02*
X002798Y003479D01*
X002797Y003480D02*
X002752Y003480D01*
X002752Y003481D02*
X002797Y003481D01*
X002796Y003482D02*
X002752Y003482D01*
X002752Y003483D02*
X002796Y003483D01*
X002795Y003484D02*
X002752Y003484D01*
X002752Y003485D02*
X002795Y003485D01*
X002795Y003486D02*
X002752Y003486D01*
X002752Y003487D02*
X002794Y003487D01*
X002794Y003488D02*
X002752Y003488D01*
X002752Y003489D02*
X002793Y003489D01*
X002793Y003490D02*
X002752Y003490D01*
X002752Y003491D02*
X002793Y003491D01*
X002793Y003492D02*
X002752Y003492D01*
X002752Y003493D02*
X002793Y003493D01*
X002792Y003494D02*
X002752Y003494D01*
X002752Y003495D02*
X002792Y003495D01*
X002792Y003496D02*
X002752Y003496D01*
X002752Y003497D02*
X002792Y003497D01*
X002792Y003498D02*
X002752Y003498D01*
X002752Y003499D02*
X002792Y003499D01*
X002792Y003500D02*
X002752Y003500D01*
X002752Y003501D02*
X002792Y003501D01*
X002791Y003502D02*
X002752Y003502D01*
X002752Y003503D02*
X002791Y003503D01*
X002791Y003504D02*
X002752Y003504D01*
X002752Y003505D02*
X002791Y003505D01*
X002598Y003505D02*
X002559Y003505D01*
X002559Y003504D02*
X002598Y003504D01*
X002598Y003503D02*
X002559Y003503D01*
X002559Y003502D02*
X002598Y003502D01*
X002598Y003501D02*
X002558Y003501D01*
X002558Y003500D02*
X002598Y003500D01*
X002598Y003499D02*
X002558Y003499D01*
X002558Y003498D02*
X002598Y003498D01*
X002598Y003497D02*
X002558Y003497D01*
X002558Y003496D02*
X002598Y003496D01*
X002598Y003495D02*
X002558Y003495D01*
X002558Y003494D02*
X002598Y003494D01*
X002598Y003493D02*
X002557Y003493D01*
X002557Y003492D02*
X002598Y003492D01*
X002598Y003491D02*
X002557Y003491D01*
X002557Y003490D02*
X002598Y003490D01*
X002598Y003489D02*
X002557Y003489D01*
X002556Y003488D02*
X002598Y003488D01*
X002598Y003487D02*
X002556Y003487D01*
X002555Y003486D02*
X002598Y003486D01*
X002598Y003485D02*
X002555Y003485D01*
X002555Y003484D02*
X002598Y003484D01*
X002598Y003483D02*
X002554Y003483D01*
X002554Y003482D02*
X002598Y003482D01*
X002598Y003481D02*
X002553Y003481D01*
X002553Y003480D02*
X002598Y003480D01*
X002598Y003479D02*
X002552Y003479D01*
X002552Y003478D02*
X002598Y003478D01*
X002598Y003477D02*
X002552Y003477D01*
X002551Y003476D02*
X002598Y003476D01*
X002598Y003475D02*
X002551Y003475D01*
X002550Y003474D02*
X002598Y003474D01*
X002598Y003473D02*
X002549Y003473D01*
X002548Y003472D02*
X002598Y003472D01*
X002598Y003471D02*
X002548Y003471D01*
X002547Y003470D02*
X002598Y003470D01*
X002598Y003469D02*
X002546Y003469D01*
X002545Y003468D02*
X002598Y003468D01*
X002598Y003467D02*
X002544Y003467D01*
X002544Y003466D02*
X002598Y003466D01*
X002598Y003465D02*
X002543Y003465D01*
X002542Y003464D02*
X002598Y003464D01*
X002598Y003463D02*
X002541Y003463D01*
X002540Y003462D02*
X002598Y003462D01*
X002598Y003461D02*
X002539Y003461D01*
X002537Y003460D02*
X002598Y003460D01*
X002598Y003459D02*
X002536Y003459D01*
X002535Y003458D02*
X002598Y003458D01*
X002598Y003457D02*
X002533Y003457D01*
X002532Y003456D02*
X002598Y003456D01*
X002598Y003455D02*
X002531Y003455D01*
X002529Y003454D02*
X002598Y003454D01*
X002598Y003453D02*
X002527Y003453D01*
X002524Y003452D02*
X002598Y003452D01*
X002598Y003451D02*
X002522Y003451D01*
X002520Y003450D02*
X002598Y003450D01*
X002598Y003449D02*
X002517Y003449D01*
X002514Y003448D02*
X002598Y003448D01*
X002598Y003447D02*
X002506Y003447D01*
X002494Y003447D02*
X002402Y003447D01*
X002402Y003446D02*
X002598Y003446D01*
X002598Y003445D02*
X002402Y003445D01*
X002402Y003444D02*
X002598Y003444D01*
X002598Y003443D02*
X002402Y003443D01*
X002402Y003442D02*
X002598Y003442D01*
X002598Y003441D02*
X002402Y003441D01*
X002402Y003440D02*
X002598Y003440D01*
X002598Y003439D02*
X002402Y003439D01*
X002402Y003438D02*
X002598Y003438D01*
X002598Y003437D02*
X002402Y003437D01*
X002402Y003436D02*
X002598Y003436D01*
X002402Y003436D01*
X002402Y003435D02*
X002598Y003435D01*
X002598Y003434D02*
X002402Y003434D01*
X002402Y003433D02*
X002598Y003433D01*
X002598Y003432D02*
X002402Y003432D01*
X002402Y003431D02*
X002598Y003431D01*
X002598Y003430D02*
X002402Y003430D01*
X002402Y003429D02*
X002598Y003429D01*
X002598Y003428D02*
X002402Y003428D01*
X002402Y003427D02*
X002598Y003427D01*
X002598Y003426D02*
X002402Y003426D01*
X002402Y003425D02*
X002598Y003425D01*
X002598Y003424D02*
X002402Y003424D01*
X002402Y003423D02*
X002598Y003423D01*
X002598Y003422D02*
X002402Y003422D01*
X002402Y003421D02*
X002598Y003421D01*
X002598Y003420D02*
X002402Y003420D01*
X002402Y003419D02*
X002598Y003419D01*
X002598Y003418D02*
X002402Y003418D01*
X002402Y003417D02*
X002598Y003417D01*
X002598Y003416D02*
X002402Y003416D01*
X002402Y003415D02*
X002598Y003415D01*
X002598Y003414D02*
X002402Y003414D01*
X002402Y003413D02*
X002598Y003413D01*
X002598Y003412D02*
X002402Y003412D01*
X002402Y003411D02*
X002598Y003411D01*
X002598Y003410D02*
X002402Y003410D01*
X002402Y003409D02*
X002598Y003409D01*
X002598Y003408D02*
X002402Y003408D01*
X002402Y003407D02*
X002598Y003407D01*
X002598Y003406D02*
X002402Y003406D01*
X002402Y003405D02*
X002598Y003405D01*
X002598Y003404D02*
X002402Y003404D01*
X002402Y003403D02*
X002598Y003403D01*
X002598Y003402D02*
X002402Y003402D01*
X002402Y003401D02*
X002598Y003401D01*
X002598Y003400D02*
X002402Y003400D01*
X002402Y003399D02*
X002598Y003399D01*
X002598Y003398D02*
X002402Y003398D01*
X002402Y003397D02*
X002598Y003397D01*
X002598Y003396D02*
X002402Y003396D01*
X002402Y003395D02*
X002598Y003395D01*
X002598Y003394D02*
X002402Y003394D01*
X002402Y003393D02*
X002598Y003393D01*
X002598Y003392D02*
X002402Y003392D01*
X002402Y003391D02*
X002598Y003391D01*
X002598Y003390D02*
X002402Y003390D01*
X002402Y003389D02*
X002598Y003389D01*
X002486Y003448D02*
X002402Y003448D01*
X002402Y003449D02*
X002483Y003449D01*
X002480Y003450D02*
X002402Y003450D01*
X002402Y003451D02*
X002478Y003451D01*
X002476Y003452D02*
X002402Y003452D01*
X002402Y003453D02*
X002473Y003453D01*
X002471Y003454D02*
X002402Y003454D01*
X002402Y003455D02*
X002469Y003455D01*
X002468Y003456D02*
X002402Y003456D01*
X002402Y003457D02*
X002467Y003457D01*
X002465Y003458D02*
X002402Y003458D01*
X002402Y003459D02*
X002464Y003459D01*
X002463Y003460D02*
X002402Y003460D01*
X002402Y003461D02*
X002461Y003461D01*
X002460Y003462D02*
X002402Y003462D01*
X002402Y003463D02*
X002459Y003463D01*
X002458Y003464D02*
X002402Y003464D01*
X002402Y003465D02*
X002457Y003465D01*
X002456Y003466D02*
X002402Y003466D01*
X002402Y003467D02*
X002456Y003467D01*
X002455Y003468D02*
X002402Y003468D01*
X002402Y003469D02*
X002454Y003469D01*
X002453Y003470D02*
X002402Y003470D01*
X002402Y003471D02*
X002452Y003471D01*
X002452Y003472D02*
X002402Y003472D01*
X002402Y003473D02*
X002451Y003473D01*
X002450Y003474D02*
X002402Y003474D01*
X002402Y003475D02*
X002449Y003475D01*
X002449Y003476D02*
X002402Y003476D01*
X002402Y003477D02*
X002448Y003477D01*
X002448Y003478D02*
X002402Y003478D01*
X002402Y003479D02*
X002448Y003479D01*
X002447Y003480D02*
X002402Y003480D01*
X002402Y003481D02*
X002447Y003481D01*
X002446Y003482D02*
X002402Y003482D01*
X002402Y003483D02*
X002446Y003483D01*
X002445Y003484D02*
X002402Y003484D01*
X002402Y003485D02*
X002445Y003485D01*
X002445Y003486D02*
X002402Y003486D01*
X002402Y003487D02*
X002444Y003487D01*
X002444Y003488D02*
X002402Y003488D01*
X002402Y003489D02*
X002443Y003489D01*
X002443Y003490D02*
X002402Y003490D01*
X002402Y003491D02*
X002443Y003491D01*
X002443Y003492D02*
X002402Y003492D01*
X002402Y003493D02*
X002443Y003493D01*
X002442Y003494D02*
X002402Y003494D01*
X002402Y003495D02*
X002442Y003495D01*
X002442Y003496D02*
X002402Y003496D01*
X002402Y003497D02*
X002442Y003497D01*
X002442Y003498D02*
X002402Y003498D01*
X002402Y003499D02*
X002442Y003499D01*
X002442Y003500D02*
X002402Y003500D01*
X002402Y003501D02*
X002442Y003501D01*
X002441Y003502D02*
X002402Y003502D01*
X002402Y003503D02*
X002441Y003503D01*
X002441Y003504D02*
X002402Y003504D01*
X002402Y003505D02*
X002441Y003505D01*
X002402Y003230D02*
X002598Y003230D01*
X002598Y003229D02*
X002402Y003229D01*
X002402Y003228D02*
X002598Y003228D01*
X002598Y003227D02*
X002402Y003227D01*
X002402Y003226D02*
X002598Y003226D01*
X002598Y003225D02*
X002402Y003225D01*
X002402Y003224D02*
X002598Y003224D01*
X002598Y003223D02*
X002402Y003223D01*
X002402Y003222D02*
X002598Y003222D01*
X002598Y003221D02*
X002402Y003221D01*
X002402Y003220D02*
X002598Y003220D01*
X002598Y003219D02*
X002402Y003219D01*
X002402Y003218D02*
X002598Y003218D01*
X002598Y003217D02*
X002402Y003217D01*
X002402Y003216D02*
X002598Y003216D01*
X002598Y003215D02*
X002402Y003215D01*
X002402Y003214D02*
X002598Y003214D01*
X002598Y003213D02*
X002402Y003213D01*
X002402Y003212D02*
X002598Y003212D01*
X002598Y003211D02*
X002402Y003211D01*
X002402Y003210D02*
X002598Y003210D01*
X002598Y003209D02*
X002402Y003209D01*
X002402Y003208D02*
X002598Y003208D01*
X002598Y003207D02*
X002402Y003207D01*
X002402Y003206D02*
X002598Y003206D01*
X002598Y003205D02*
X002402Y003205D01*
X002402Y003204D02*
X002598Y003204D01*
X002598Y003203D02*
X002402Y003203D01*
X002402Y003202D02*
X002598Y003202D01*
X002598Y003201D02*
X002402Y003201D01*
X002402Y003200D02*
X002598Y003200D01*
X002598Y003199D02*
X002402Y003199D01*
X002402Y003198D02*
X002598Y003198D01*
X002598Y003197D02*
X002402Y003197D01*
X002402Y003196D02*
X002598Y003196D01*
X002598Y003195D02*
X002402Y003195D01*
X002402Y003194D02*
X002598Y003194D01*
X002598Y003193D02*
X002402Y003193D01*
X002402Y003192D02*
X002598Y003192D01*
X002598Y003191D02*
X002402Y003191D01*
X002402Y003190D02*
X002598Y003190D01*
X002598Y003189D02*
X002402Y003189D01*
X002402Y003188D02*
X002598Y003188D01*
X002598Y003187D02*
X002402Y003187D01*
X002402Y003186D02*
X002598Y003186D01*
X002598Y003185D02*
X002402Y003185D01*
X002402Y003184D02*
X002598Y003184D01*
X002598Y003183D02*
X002402Y003183D01*
X002402Y003182D02*
X002598Y003182D01*
X002598Y003181D02*
X002402Y003181D01*
X002402Y003180D02*
X002598Y003180D01*
X002598Y003179D02*
X002402Y003179D01*
X002402Y003178D02*
X002598Y003178D01*
X002598Y003177D02*
X002402Y003177D01*
X002402Y003176D02*
X002598Y003176D01*
X002598Y003175D02*
X002402Y003175D01*
X002402Y003174D02*
X002598Y003174D01*
X002598Y003173D02*
X002402Y003173D01*
X002402Y003172D02*
X002598Y003172D01*
X002598Y003171D02*
X002502Y003171D01*
X002498Y003171D02*
X002402Y003171D01*
X002402Y003170D02*
X002490Y003170D01*
X002484Y003169D02*
X002402Y003169D01*
X002402Y003168D02*
X002482Y003168D01*
X002479Y003167D02*
X002402Y003167D01*
X002402Y003166D02*
X002477Y003166D01*
X002474Y003165D02*
X002402Y003165D01*
X002402Y003164D02*
X002472Y003164D01*
X002470Y003163D02*
X002402Y003163D01*
X002402Y003162D02*
X002469Y003162D01*
X002467Y003161D02*
X002402Y003161D01*
X002402Y003160D02*
X002466Y003160D01*
X002465Y003159D02*
X002402Y003159D01*
X002402Y003158D02*
X002463Y003158D01*
X002462Y003157D02*
X002402Y003157D01*
X002402Y003156D02*
X002461Y003156D01*
X002460Y003155D02*
X002402Y003155D01*
X002402Y003154D02*
X002458Y003154D01*
X002457Y003153D02*
X002402Y003153D01*
X002402Y003152D02*
X002457Y003152D01*
X002456Y003151D02*
X002402Y003151D01*
X002402Y003150D02*
X002455Y003150D01*
X002454Y003149D02*
X002402Y003149D01*
X002402Y003148D02*
X002454Y003148D01*
X002453Y003147D02*
X002402Y003147D01*
X002402Y003146D02*
X002452Y003146D01*
X002451Y003145D02*
X002402Y003145D01*
X002402Y003144D02*
X002451Y003144D01*
X002450Y003143D02*
X002402Y003143D01*
X002402Y003142D02*
X002449Y003142D01*
X002449Y003141D02*
X002402Y003141D01*
X002402Y003140D02*
X002448Y003140D01*
X002448Y003139D02*
X002402Y003139D01*
X002402Y003138D02*
X002447Y003138D01*
X002447Y003137D02*
X002402Y003137D01*
X002402Y003136D02*
X002446Y003136D01*
X002446Y003135D02*
X002402Y003135D01*
X002402Y003134D02*
X002446Y003134D01*
X002445Y003133D02*
X002402Y003133D01*
X002402Y003132D02*
X002445Y003132D01*
X002444Y003131D02*
X002402Y003131D01*
X002402Y003130D02*
X002444Y003130D01*
X002444Y003129D02*
X002402Y003129D01*
X002402Y003128D02*
X002443Y003128D01*
X002443Y003127D02*
X002402Y003127D01*
X002402Y003126D02*
X002443Y003126D01*
X002443Y003125D02*
X002402Y003125D01*
X002402Y003124D02*
X002442Y003124D01*
X002442Y003123D02*
X002402Y003123D01*
X002402Y003122D02*
X002442Y003122D01*
X002442Y003121D02*
X002402Y003121D01*
X002402Y003120D02*
X002442Y003120D01*
X002442Y003119D02*
X002402Y003119D01*
X002402Y003118D02*
X002442Y003118D01*
X002442Y003117D02*
X002402Y003117D01*
X002402Y003116D02*
X002441Y003116D01*
X002441Y003115D02*
X002402Y003115D01*
X002402Y003114D02*
X002441Y003114D01*
X002441Y003113D02*
X002402Y003113D01*
X002510Y003170D02*
X002598Y003170D01*
X002598Y003169D02*
X002516Y003169D01*
X002518Y003168D02*
X002598Y003168D01*
X002598Y003167D02*
X002521Y003167D01*
X002523Y003166D02*
X002598Y003166D01*
X002598Y003165D02*
X002526Y003165D01*
X002528Y003164D02*
X002598Y003164D01*
X002598Y003163D02*
X002530Y003163D01*
X002531Y003162D02*
X002598Y003162D01*
X002598Y003161D02*
X002533Y003161D01*
X002534Y003160D02*
X002598Y003160D01*
X002598Y003159D02*
X002535Y003159D01*
X002537Y003158D02*
X002598Y003158D01*
X002598Y003157D02*
X002538Y003157D01*
X002539Y003156D02*
X002598Y003156D01*
X002598Y003155D02*
X002540Y003155D01*
X002542Y003154D02*
X002598Y003154D01*
X002598Y003153D02*
X002543Y003153D01*
X002543Y003152D02*
X002598Y003152D01*
X002598Y003151D02*
X002544Y003151D01*
X002545Y003150D02*
X002598Y003150D01*
X002598Y003149D02*
X002546Y003149D01*
X002546Y003148D02*
X002598Y003148D01*
X002598Y003147D02*
X002547Y003147D01*
X002548Y003146D02*
X002598Y003146D01*
X002598Y003145D02*
X002549Y003145D01*
X002549Y003144D02*
X002598Y003144D01*
X002598Y003143D02*
X002550Y003143D01*
X002551Y003142D02*
X002598Y003142D01*
X002598Y003141D02*
X002551Y003141D01*
X002552Y003140D02*
X002598Y003140D01*
X002598Y003139D02*
X002552Y003139D01*
X002553Y003138D02*
X002598Y003138D01*
X002598Y003137D02*
X002553Y003137D01*
X002554Y003136D02*
X002598Y003136D01*
X002598Y003135D02*
X002554Y003135D01*
X002554Y003134D02*
X002598Y003134D01*
X002598Y003133D02*
X002555Y003133D01*
X002555Y003132D02*
X002598Y003132D01*
X002598Y003131D02*
X002556Y003131D01*
X002556Y003130D02*
X002598Y003130D01*
X002598Y003129D02*
X002556Y003129D01*
X002557Y003128D02*
X002598Y003128D01*
X002598Y003127D02*
X002557Y003127D01*
X002557Y003126D02*
X002598Y003126D01*
X002598Y003125D02*
X002557Y003125D01*
X002558Y003124D02*
X002598Y003124D01*
X002598Y003123D02*
X002558Y003123D01*
X002558Y003122D02*
X002598Y003122D01*
X002598Y003121D02*
X002558Y003121D01*
X002558Y003120D02*
X002598Y003120D01*
X002598Y003119D02*
X002558Y003119D01*
X002558Y003118D02*
X002598Y003118D01*
X002598Y003117D02*
X002558Y003117D01*
X002559Y003116D02*
X002598Y003116D01*
X002598Y003115D02*
X002559Y003115D01*
X002559Y003114D02*
X002598Y003114D01*
X002598Y003113D02*
X002559Y003113D01*
X002752Y003113D02*
X002791Y003113D01*
X002791Y003114D02*
X002752Y003114D01*
X002752Y003115D02*
X002791Y003115D01*
X002791Y003116D02*
X002752Y003116D01*
X002752Y003117D02*
X002792Y003117D01*
X002792Y003118D02*
X002752Y003118D01*
X002752Y003119D02*
X002792Y003119D01*
X002792Y003120D02*
X002752Y003120D01*
X002752Y003121D02*
X002792Y003121D01*
X002792Y003122D02*
X002752Y003122D01*
X002752Y003123D02*
X002792Y003123D01*
X002792Y003124D02*
X002752Y003124D01*
X002752Y003125D02*
X002793Y003125D01*
X002793Y003126D02*
X002752Y003126D01*
X002752Y003127D02*
X002793Y003127D01*
X002793Y003128D02*
X002752Y003128D01*
X002752Y003129D02*
X002794Y003129D01*
X002794Y003130D02*
X002752Y003130D01*
X002752Y003131D02*
X002794Y003131D01*
X002795Y003132D02*
X002752Y003132D01*
X002752Y003133D02*
X002795Y003133D01*
X002796Y003134D02*
X002752Y003134D01*
X002752Y003135D02*
X002796Y003135D01*
X002796Y003136D02*
X002752Y003136D01*
X002752Y003137D02*
X002797Y003137D01*
X002797Y003138D02*
X002752Y003138D01*
X002752Y003139D02*
X002798Y003139D01*
X002798Y003140D02*
X002752Y003140D01*
X002752Y003141D02*
X002799Y003141D01*
X002799Y003142D02*
X002752Y003142D01*
X002752Y003143D02*
X002800Y003143D01*
X002801Y003144D02*
X002752Y003144D01*
X002752Y003145D02*
X002801Y003145D01*
X002802Y003146D02*
X002752Y003146D01*
X002752Y003147D02*
X002803Y003147D01*
X002804Y003148D02*
X002752Y003148D01*
X002752Y003149D02*
X002804Y003149D01*
X002805Y003150D02*
X002752Y003150D01*
X002752Y003151D02*
X002806Y003151D01*
X002807Y003152D02*
X002752Y003152D01*
X002752Y003153D02*
X002807Y003153D01*
X002808Y003154D02*
X002752Y003154D01*
X002752Y003155D02*
X002810Y003155D01*
X002811Y003156D02*
X002752Y003156D01*
X002752Y003157D02*
X002812Y003157D01*
X002813Y003158D02*
X002752Y003158D01*
X002752Y003159D02*
X002815Y003159D01*
X002816Y003160D02*
X002752Y003160D01*
X002752Y003161D02*
X002817Y003161D01*
X002819Y003162D02*
X002752Y003162D01*
X002752Y003163D02*
X002820Y003163D01*
X002822Y003164D02*
X002752Y003164D01*
X002752Y003165D02*
X002824Y003165D01*
X002827Y003166D02*
X002752Y003166D01*
X002752Y003167D02*
X002829Y003167D01*
X002832Y003168D02*
X002752Y003168D01*
X002752Y003169D02*
X002834Y003169D01*
X002840Y003170D02*
X002752Y003170D01*
X002752Y003171D02*
X002848Y003171D01*
X002852Y003171D02*
X002948Y003171D01*
X002948Y003172D02*
X002752Y003172D01*
X002752Y003173D02*
X002948Y003173D01*
X002948Y003174D02*
X002752Y003174D01*
X002752Y003175D02*
X002948Y003175D01*
X002948Y003176D02*
X002752Y003176D01*
X002752Y003177D02*
X002948Y003177D01*
X002948Y003178D02*
X002752Y003178D01*
X002752Y003179D02*
X002948Y003179D01*
X002948Y003180D02*
X002752Y003180D01*
X002752Y003181D02*
X002948Y003181D01*
X002948Y003182D02*
X002752Y003182D01*
X002752Y003183D02*
X002948Y003183D01*
X002948Y003184D02*
X002752Y003184D01*
X002752Y003185D02*
X002948Y003185D01*
X002948Y003186D02*
X002752Y003186D01*
X002752Y003187D02*
X002948Y003187D01*
X002948Y003188D02*
X002752Y003188D01*
X002752Y003189D02*
X002948Y003189D01*
X002948Y003190D02*
X002752Y003190D01*
X002752Y003191D02*
X002948Y003191D01*
X002948Y003192D02*
X002752Y003192D01*
X002752Y003193D02*
X002948Y003193D01*
X002948Y003194D02*
X002752Y003194D01*
X002752Y003195D02*
X002948Y003195D01*
X002948Y003196D02*
X002752Y003196D01*
X002752Y003197D02*
X002948Y003197D01*
X002948Y003198D02*
X002752Y003198D01*
X002752Y003199D02*
X002948Y003199D01*
X002948Y003200D02*
X002752Y003200D01*
X002752Y003201D02*
X002948Y003201D01*
X002948Y003202D02*
X002752Y003202D01*
X002752Y003203D02*
X002948Y003203D01*
X002948Y003204D02*
X002752Y003204D01*
X002752Y003205D02*
X002948Y003205D01*
X002948Y003206D02*
X002752Y003206D01*
X002752Y003207D02*
X002948Y003207D01*
X002948Y003208D02*
X002752Y003208D01*
X002752Y003209D02*
X002948Y003209D01*
X002948Y003210D02*
X002752Y003210D01*
X002752Y003211D02*
X002948Y003211D01*
X002948Y003212D02*
X002752Y003212D01*
X002752Y003213D02*
X002948Y003213D01*
X002948Y003214D02*
X002752Y003214D01*
X002752Y003215D02*
X002948Y003215D01*
X002948Y003216D02*
X002752Y003216D01*
X002752Y003217D02*
X002948Y003217D01*
X002948Y003218D02*
X002752Y003218D01*
X002752Y003219D02*
X002948Y003219D01*
X002948Y003220D02*
X002752Y003220D01*
X002752Y003221D02*
X002948Y003221D01*
X002948Y003222D02*
X002752Y003222D01*
X002752Y003223D02*
X002948Y003223D01*
X002948Y003224D02*
X002752Y003224D01*
X002752Y003225D02*
X002948Y003225D01*
X002948Y003226D02*
X002752Y003226D01*
X002752Y003227D02*
X002948Y003227D01*
X002948Y003228D02*
X002752Y003228D01*
X002752Y003229D02*
X002948Y003229D01*
X002948Y003230D02*
X002752Y003230D01*
X002860Y003170D02*
X002948Y003170D01*
X002948Y003169D02*
X002866Y003169D01*
X002868Y003168D02*
X002948Y003168D01*
X002948Y003167D02*
X002871Y003167D01*
X002873Y003166D02*
X002948Y003166D01*
X002948Y003165D02*
X002876Y003165D01*
X002878Y003164D02*
X002948Y003164D01*
X002948Y003163D02*
X002880Y003163D01*
X002881Y003162D02*
X002948Y003162D01*
X002948Y003161D02*
X002883Y003161D01*
X002884Y003160D02*
X002948Y003160D01*
X002948Y003159D02*
X002885Y003159D01*
X002887Y003158D02*
X002948Y003158D01*
X002948Y003157D02*
X002888Y003157D01*
X002889Y003156D02*
X002948Y003156D01*
X002948Y003155D02*
X002890Y003155D01*
X002892Y003154D02*
X002948Y003154D01*
X002948Y003153D02*
X002893Y003153D01*
X002893Y003152D02*
X002948Y003152D01*
X002948Y003151D02*
X002894Y003151D01*
X002895Y003150D02*
X002948Y003150D01*
X002948Y003149D02*
X002896Y003149D01*
X002896Y003148D02*
X002948Y003148D01*
X002948Y003147D02*
X002897Y003147D01*
X002898Y003146D02*
X002948Y003146D01*
X002948Y003145D02*
X002899Y003145D01*
X002899Y003144D02*
X002948Y003144D01*
X002948Y003143D02*
X002900Y003143D01*
X002901Y003142D02*
X002948Y003142D01*
X002948Y003141D02*
X002901Y003141D01*
X002902Y003140D02*
X002948Y003140D01*
X002948Y003139D02*
X002902Y003139D01*
X002903Y003138D02*
X002948Y003138D01*
X002948Y003137D02*
X002903Y003137D01*
X002904Y003136D02*
X002948Y003136D01*
X002948Y003135D02*
X002904Y003135D01*
X002904Y003134D02*
X002948Y003134D01*
X002948Y003133D02*
X002905Y003133D01*
X002905Y003132D02*
X002948Y003132D01*
X002948Y003131D02*
X002906Y003131D01*
X002906Y003130D02*
X002948Y003130D01*
X002948Y003129D02*
X002906Y003129D01*
X002907Y003128D02*
X002948Y003128D01*
X002948Y003127D02*
X002907Y003127D01*
X002907Y003126D02*
X002948Y003126D01*
X002948Y003125D02*
X002907Y003125D01*
X002908Y003124D02*
X002948Y003124D01*
X002948Y003123D02*
X002908Y003123D01*
X002908Y003122D02*
X002948Y003122D01*
X002948Y003121D02*
X002908Y003121D01*
X002908Y003120D02*
X002948Y003120D01*
X002948Y003119D02*
X002908Y003119D01*
X002908Y003118D02*
X002948Y003118D01*
X002948Y003117D02*
X002908Y003117D01*
X002909Y003116D02*
X002948Y003116D01*
X002948Y003115D02*
X002909Y003115D01*
X002909Y003114D02*
X002948Y003114D01*
X002948Y003113D02*
X002909Y003113D01*
X007539Y001343D02*
X007578Y001343D01*
X007579Y001342D02*
X007539Y001342D01*
X007539Y001341D02*
X007579Y001341D01*
X007579Y001340D02*
X007539Y001340D01*
X007539Y001339D02*
X007579Y001339D01*
X007579Y001338D02*
X007539Y001338D01*
X007539Y001337D02*
X007579Y001337D01*
X007579Y001336D02*
X007539Y001336D01*
X007539Y001335D02*
X007579Y001335D01*
X007580Y001334D02*
X007539Y001334D01*
X007539Y001333D02*
X007580Y001333D01*
X007580Y001332D02*
X007539Y001332D01*
X007539Y001331D02*
X007580Y001331D01*
X007580Y001330D02*
X007539Y001330D01*
X007539Y001329D02*
X007580Y001329D01*
X007580Y001328D02*
X007539Y001328D01*
X007539Y001327D02*
X007581Y001327D01*
X007581Y001326D02*
X007539Y001326D01*
X007539Y001325D02*
X007582Y001325D01*
X007582Y001324D02*
X007539Y001324D01*
X007539Y001323D02*
X007583Y001323D01*
X007583Y001322D02*
X007539Y001322D01*
X007539Y001321D02*
X007583Y001321D01*
X007584Y001320D02*
X007539Y001320D01*
X007539Y001319D02*
X007584Y001319D01*
X007585Y001318D02*
X007539Y001318D01*
X007539Y001317D02*
X007585Y001317D01*
X007585Y001316D02*
X007539Y001316D01*
X007539Y001315D02*
X007586Y001315D01*
X007586Y001314D02*
X007539Y001314D01*
X007539Y001313D02*
X007587Y001313D01*
X007588Y001312D02*
X007539Y001312D01*
X007539Y001311D02*
X007589Y001311D01*
X007589Y001310D02*
X007539Y001310D01*
X007539Y001309D02*
X007590Y001309D01*
X007591Y001308D02*
X007539Y001308D01*
X007539Y001307D02*
X007592Y001307D01*
X007592Y001306D02*
X007539Y001306D01*
X007539Y001305D02*
X007593Y001305D01*
X007594Y001304D02*
X007539Y001304D01*
X007539Y001303D02*
X007595Y001303D01*
X007595Y001302D02*
X007539Y001302D01*
X007539Y001301D02*
X007597Y001301D01*
X007598Y001300D02*
X007539Y001300D01*
X007539Y001299D02*
X007599Y001299D01*
X007601Y001298D02*
X007539Y001298D01*
X007539Y001297D02*
X007602Y001297D01*
X007603Y001296D02*
X007539Y001296D01*
X007539Y001295D02*
X007604Y001295D01*
X007606Y001294D02*
X007539Y001294D01*
X007539Y001293D02*
X007607Y001293D01*
X007609Y001292D02*
X007539Y001292D01*
X007539Y001291D02*
X007611Y001291D01*
X007614Y001290D02*
X007539Y001290D01*
X007539Y001289D02*
X007616Y001289D01*
X007618Y001288D02*
X007539Y001288D01*
X007539Y001287D02*
X007621Y001287D01*
X007626Y001286D02*
X007539Y001286D01*
X007539Y001285D02*
X007633Y001285D01*
X007642Y001285D02*
X007736Y001285D01*
X007736Y001286D02*
X007649Y001286D01*
X007654Y001287D02*
X007736Y001287D01*
X007736Y001288D02*
X007656Y001288D01*
X007659Y001289D02*
X007736Y001289D01*
X007736Y001290D02*
X007661Y001290D01*
X007664Y001291D02*
X007736Y001291D01*
X007736Y001292D02*
X007666Y001292D01*
X007668Y001293D02*
X007736Y001293D01*
X007736Y001294D02*
X007669Y001294D01*
X007670Y001295D02*
X007736Y001295D01*
X007736Y001296D02*
X007672Y001296D01*
X007673Y001297D02*
X007736Y001297D01*
X007736Y001298D02*
X007674Y001298D01*
X007676Y001299D02*
X007736Y001299D01*
X007736Y001300D02*
X007677Y001300D01*
X007678Y001301D02*
X007736Y001301D01*
X007736Y001302D02*
X007679Y001302D01*
X007680Y001303D02*
X007736Y001303D01*
X007736Y001304D02*
X007681Y001304D01*
X007682Y001305D02*
X007736Y001305D01*
X007736Y001306D02*
X007682Y001306D01*
X007683Y001307D02*
X007736Y001307D01*
X007736Y001308D02*
X007684Y001308D01*
X007685Y001309D02*
X007736Y001309D01*
X007736Y001310D02*
X007685Y001310D01*
X007686Y001311D02*
X007736Y001311D01*
X007736Y001312D02*
X007687Y001312D01*
X007688Y001313D02*
X007736Y001313D01*
X007736Y001314D02*
X007689Y001314D01*
X007689Y001315D02*
X007736Y001315D01*
X007736Y001316D02*
X007689Y001316D01*
X007690Y001317D02*
X007736Y001317D01*
X007736Y001318D02*
X007690Y001318D01*
X007691Y001319D02*
X007736Y001319D01*
X007736Y001320D02*
X007691Y001320D01*
X007691Y001321D02*
X007736Y001321D01*
X007736Y001322D02*
X007692Y001322D01*
X007692Y001323D02*
X007736Y001323D01*
X007736Y001324D02*
X007693Y001324D01*
X007693Y001325D02*
X007736Y001325D01*
X007736Y001326D02*
X007694Y001326D01*
X007694Y001327D02*
X007736Y001327D01*
X007736Y001328D02*
X007694Y001328D01*
X007695Y001329D02*
X007736Y001329D01*
X007736Y001330D02*
X007695Y001330D01*
X007695Y001331D02*
X007736Y001331D01*
X007736Y001332D02*
X007695Y001332D01*
X007695Y001333D02*
X007736Y001333D01*
X007736Y001334D02*
X007695Y001334D01*
X007695Y001335D02*
X007736Y001335D01*
X007736Y001336D02*
X007695Y001336D01*
X007696Y001337D02*
X007736Y001337D01*
X007736Y001338D02*
X007696Y001338D01*
X007696Y001339D02*
X007736Y001339D01*
X007736Y001340D02*
X007696Y001340D01*
X007696Y001341D02*
X007736Y001341D01*
X007736Y001342D02*
X007696Y001342D01*
X007696Y001343D02*
X007736Y001343D01*
X007736Y001284D02*
X007539Y001284D01*
X007539Y001283D02*
X007736Y001283D01*
X007736Y001282D02*
X007539Y001282D01*
X007539Y001281D02*
X007736Y001281D01*
X007736Y001280D02*
X007539Y001280D01*
X007539Y001279D02*
X007736Y001279D01*
X007736Y001278D02*
X007539Y001278D01*
X007539Y001277D02*
X007736Y001277D01*
X007736Y001276D02*
X007539Y001276D01*
X007539Y001275D02*
X007736Y001275D01*
X007736Y001274D02*
X007539Y001274D01*
X007539Y001273D02*
X007736Y001273D01*
X007736Y001272D02*
X007539Y001272D01*
X007539Y001271D02*
X007736Y001271D01*
X007736Y001270D02*
X007539Y001270D01*
X007539Y001269D02*
X007736Y001269D01*
X007736Y001268D02*
X007539Y001268D01*
X007539Y001267D02*
X007736Y001267D01*
X007736Y001266D02*
X007539Y001266D01*
X007539Y001265D02*
X007736Y001265D01*
X007736Y001264D02*
X007539Y001264D01*
X007539Y001263D02*
X007736Y001263D01*
X007736Y001262D02*
X007539Y001262D01*
X007539Y001261D02*
X007736Y001261D01*
X007736Y001260D02*
X007539Y001260D01*
X007539Y001259D02*
X007736Y001259D01*
X007736Y001258D02*
X007539Y001258D01*
X007539Y001257D02*
X007736Y001257D01*
X007736Y001256D02*
X007539Y001256D01*
X007539Y001255D02*
X007736Y001255D01*
X007736Y001254D02*
X007539Y001254D01*
X007539Y001253D02*
X007736Y001253D01*
X007736Y001252D02*
X007539Y001252D01*
X007539Y001251D02*
X007736Y001251D01*
X007736Y001250D02*
X007539Y001250D01*
X007539Y001249D02*
X007736Y001249D01*
X007736Y001248D02*
X007539Y001248D01*
X007539Y001247D02*
X007736Y001247D01*
X007736Y001246D02*
X007539Y001246D01*
X007539Y001245D02*
X007736Y001245D01*
X007736Y001244D02*
X007539Y001244D01*
X007539Y001243D02*
X007736Y001243D01*
X007736Y001242D02*
X007539Y001242D01*
X007539Y001241D02*
X007736Y001241D01*
X007736Y001240D02*
X007539Y001240D01*
X007539Y001239D02*
X007736Y001239D01*
X007736Y001238D02*
X007539Y001238D01*
X007539Y001237D02*
X007736Y001237D01*
X007736Y001236D02*
X007539Y001236D01*
X007539Y001235D02*
X007736Y001235D01*
X007736Y001234D02*
X007539Y001234D01*
X007539Y001233D02*
X007736Y001233D01*
X007736Y001232D02*
X007539Y001232D01*
X007539Y001231D02*
X007736Y001231D01*
X007736Y001230D02*
X007539Y001230D01*
X007539Y001229D02*
X007736Y001229D01*
X007736Y001228D02*
X007539Y001228D01*
X007539Y001227D02*
X007736Y001227D01*
X007736Y001226D02*
X007539Y001226D01*
X007539Y001067D02*
X007736Y001067D01*
X007736Y001066D02*
X007539Y001066D01*
X007539Y001065D02*
X007736Y001065D01*
X007736Y001064D02*
X007539Y001064D01*
X007539Y001063D02*
X007736Y001063D01*
X007736Y001062D02*
X007539Y001062D01*
X007539Y001061D02*
X007736Y001061D01*
X007736Y001060D02*
X007539Y001060D01*
X007539Y001059D02*
X007736Y001059D01*
X007736Y001058D02*
X007539Y001058D01*
X007539Y001057D02*
X007736Y001057D01*
X007736Y001056D02*
X007539Y001056D01*
X007539Y001055D02*
X007736Y001055D01*
X007736Y001054D02*
X007539Y001054D01*
X007539Y001053D02*
X007736Y001053D01*
X007736Y001052D02*
X007539Y001052D01*
X007539Y001051D02*
X007736Y001051D01*
X007736Y001050D02*
X007539Y001050D01*
X007539Y001049D02*
X007736Y001049D01*
X007736Y001048D02*
X007539Y001048D01*
X007539Y001047D02*
X007736Y001047D01*
X007736Y001046D02*
X007539Y001046D01*
X007539Y001045D02*
X007736Y001045D01*
X007736Y001044D02*
X007539Y001044D01*
X007539Y001043D02*
X007736Y001043D01*
X007736Y001042D02*
X007539Y001042D01*
X007539Y001041D02*
X007736Y001041D01*
X007736Y001040D02*
X007539Y001040D01*
X007539Y001039D02*
X007736Y001039D01*
X007736Y001038D02*
X007539Y001038D01*
X007539Y001037D02*
X007736Y001037D01*
X007736Y001036D02*
X007539Y001036D01*
X007539Y001035D02*
X007736Y001035D01*
X007736Y001034D02*
X007539Y001034D01*
X007539Y001033D02*
X007736Y001033D01*
X007736Y001032D02*
X007539Y001032D01*
X007539Y001031D02*
X007736Y001031D01*
X007736Y001030D02*
X007539Y001030D01*
X007539Y001029D02*
X007736Y001029D01*
X007736Y001028D02*
X007539Y001028D01*
X007539Y001027D02*
X007736Y001027D01*
X007736Y001026D02*
X007539Y001026D01*
X007539Y001025D02*
X007736Y001025D01*
X007736Y001024D02*
X007539Y001024D01*
X007539Y001023D02*
X007736Y001023D01*
X007736Y001022D02*
X007539Y001022D01*
X007539Y001021D02*
X007736Y001021D01*
X007736Y001020D02*
X007539Y001020D01*
X007539Y001019D02*
X007736Y001019D01*
X007736Y001018D02*
X007539Y001018D01*
X007539Y001017D02*
X007736Y001017D01*
X007736Y001016D02*
X007539Y001016D01*
X007539Y001015D02*
X007736Y001015D01*
X007736Y001014D02*
X007539Y001014D01*
X007539Y001013D02*
X007736Y001013D01*
X007736Y001012D02*
X007539Y001012D01*
X007539Y001011D02*
X007736Y001011D01*
X007736Y001010D02*
X007539Y001010D01*
X007539Y001009D02*
X007736Y001009D01*
X007736Y001008D02*
X007642Y001008D01*
X007649Y001007D02*
X007736Y001007D01*
X007736Y001006D02*
X007654Y001006D01*
X007656Y001005D02*
X007736Y001005D01*
X007736Y001004D02*
X007659Y001004D01*
X007661Y001003D02*
X007736Y001003D01*
X007736Y001002D02*
X007664Y001002D01*
X007666Y001001D02*
X007736Y001001D01*
X007736Y001000D02*
X007668Y001000D01*
X007669Y000999D02*
X007736Y000999D01*
X007736Y000998D02*
X007670Y000998D01*
X007672Y000997D02*
X007736Y000997D01*
X007736Y000996D02*
X007673Y000996D01*
X007674Y000995D02*
X007736Y000995D01*
X007736Y000994D02*
X007676Y000994D01*
X007677Y000993D02*
X007736Y000993D01*
X007736Y000992D02*
X007678Y000992D01*
X007679Y000991D02*
X007736Y000991D01*
X007736Y000990D02*
X007680Y000990D01*
X007681Y000989D02*
X007736Y000989D01*
X007736Y000988D02*
X007682Y000988D01*
X007682Y000987D02*
X007736Y000987D01*
X007736Y000986D02*
X007683Y000986D01*
X007684Y000985D02*
X007736Y000985D01*
X007736Y000984D02*
X007685Y000984D01*
X007686Y000983D02*
X007736Y000983D01*
X007736Y000982D02*
X007686Y000982D01*
X007687Y000981D02*
X007736Y000981D01*
X007736Y000980D02*
X007688Y000980D01*
X007689Y000979D02*
X007736Y000979D01*
X007736Y000978D02*
X007689Y000978D01*
X007689Y000977D02*
X007736Y000977D01*
X007736Y000976D02*
X007690Y000976D01*
X007690Y000975D02*
X007736Y000975D01*
X007736Y000974D02*
X007691Y000974D01*
X007691Y000973D02*
X007736Y000973D01*
X007736Y000972D02*
X007691Y000972D01*
X007692Y000971D02*
X007736Y000971D01*
X007736Y000970D02*
X007692Y000970D01*
X007693Y000969D02*
X007736Y000969D01*
X007736Y000968D02*
X007693Y000968D01*
X007694Y000967D02*
X007736Y000967D01*
X007736Y000966D02*
X007694Y000966D01*
X007694Y000965D02*
X007736Y000965D01*
X007736Y000964D02*
X007695Y000964D01*
X007695Y000963D02*
X007736Y000963D01*
X007736Y000962D02*
X007695Y000962D01*
X007695Y000961D02*
X007736Y000961D01*
X007736Y000960D02*
X007695Y000960D01*
X007695Y000959D02*
X007736Y000959D01*
X007736Y000958D02*
X007695Y000958D01*
X007695Y000957D02*
X007736Y000957D01*
X007736Y000956D02*
X007696Y000956D01*
X007696Y000955D02*
X007736Y000955D01*
X007736Y000954D02*
X007696Y000954D01*
X007696Y000953D02*
X007736Y000953D01*
X007736Y000952D02*
X007696Y000952D01*
X007696Y000951D02*
X007736Y000951D01*
X007736Y000950D02*
X007696Y000950D01*
X007633Y001008D02*
X007539Y001008D01*
X007539Y001007D02*
X007625Y001007D01*
X007621Y001006D02*
X007539Y001006D01*
X007539Y001005D02*
X007618Y001005D01*
X007616Y001004D02*
X007539Y001004D01*
X007539Y001003D02*
X007613Y001003D01*
X007611Y001002D02*
X007539Y001002D01*
X007539Y001001D02*
X007609Y001001D01*
X007607Y001000D02*
X007539Y001000D01*
X007539Y000999D02*
X007606Y000999D01*
X007604Y000998D02*
X007539Y000998D01*
X007539Y000997D02*
X007603Y000997D01*
X007602Y000996D02*
X007539Y000996D01*
X007539Y000995D02*
X007600Y000995D01*
X007599Y000994D02*
X007539Y000994D01*
X007539Y000993D02*
X007598Y000993D01*
X007597Y000992D02*
X007539Y000992D01*
X007539Y000991D02*
X007595Y000991D01*
X007595Y000990D02*
X007539Y000990D01*
X007539Y000989D02*
X007594Y000989D01*
X007593Y000988D02*
X007539Y000988D01*
X007539Y000987D02*
X007592Y000987D01*
X007592Y000986D02*
X007539Y000986D01*
X007539Y000985D02*
X007591Y000985D01*
X007590Y000984D02*
X007539Y000984D01*
X007539Y000983D02*
X007589Y000983D01*
X007589Y000982D02*
X007539Y000982D01*
X007539Y000981D02*
X007588Y000981D01*
X007587Y000980D02*
X007539Y000980D01*
X007539Y000979D02*
X007586Y000979D01*
X007586Y000978D02*
X007539Y000978D01*
X007539Y000977D02*
X007585Y000977D01*
X007585Y000976D02*
X007539Y000976D01*
X007539Y000975D02*
X007585Y000975D01*
X007584Y000974D02*
X007539Y000974D01*
X007539Y000973D02*
X007584Y000973D01*
X007583Y000972D02*
X007539Y000972D01*
X007539Y000971D02*
X007583Y000971D01*
X007583Y000970D02*
X007539Y000970D01*
X007539Y000969D02*
X007582Y000969D01*
X007582Y000968D02*
X007539Y000968D01*
X007539Y000967D02*
X007581Y000967D01*
X007581Y000966D02*
X007539Y000966D01*
X007539Y000965D02*
X007580Y000965D01*
X007580Y000964D02*
X007539Y000964D01*
X007539Y000963D02*
X007580Y000963D01*
X007580Y000962D02*
X007539Y000962D01*
X007539Y000961D02*
X007580Y000961D01*
X007580Y000960D02*
X007539Y000960D01*
X007539Y000959D02*
X007580Y000959D01*
X007579Y000958D02*
X007539Y000958D01*
X007539Y000957D02*
X007579Y000957D01*
X007579Y000956D02*
X007539Y000956D01*
X007539Y000955D02*
X007579Y000955D01*
X007579Y000954D02*
X007539Y000954D01*
X007539Y000953D02*
X007579Y000953D01*
X007579Y000952D02*
X007539Y000952D01*
X007539Y000951D02*
X007579Y000951D01*
X007578Y000950D02*
X007539Y000950D01*
X007889Y000950D02*
X007928Y000950D01*
X007929Y000951D02*
X007889Y000951D01*
X007889Y000952D02*
X007929Y000952D01*
X007929Y000953D02*
X007889Y000953D01*
X007889Y000954D02*
X007929Y000954D01*
X007929Y000955D02*
X007889Y000955D01*
X007889Y000956D02*
X007929Y000956D01*
X007929Y000957D02*
X007889Y000957D01*
X007889Y000958D02*
X007929Y000958D01*
X007930Y000959D02*
X007889Y000959D01*
X007889Y000960D02*
X007930Y000960D01*
X007930Y000961D02*
X007889Y000961D01*
X007889Y000962D02*
X007930Y000962D01*
X007930Y000963D02*
X007889Y000963D01*
X007889Y000964D02*
X007930Y000964D01*
X007930Y000965D02*
X007889Y000965D01*
X007889Y000966D02*
X007931Y000966D01*
X007931Y000967D02*
X007889Y000967D01*
X007889Y000968D02*
X007932Y000968D01*
X007932Y000969D02*
X007889Y000969D01*
X007889Y000970D02*
X007933Y000970D01*
X007933Y000971D02*
X007889Y000971D01*
X007889Y000972D02*
X007933Y000972D01*
X007934Y000973D02*
X007889Y000973D01*
X007889Y000974D02*
X007934Y000974D01*
X007935Y000975D02*
X007889Y000975D01*
X007889Y000976D02*
X007935Y000976D01*
X007935Y000977D02*
X007889Y000977D01*
X007889Y000978D02*
X007936Y000978D01*
X007936Y000979D02*
X007889Y000979D01*
X007889Y000980D02*
X007937Y000980D01*
X007938Y000981D02*
X007889Y000981D01*
X007889Y000982D02*
X007939Y000982D01*
X007939Y000983D02*
X007889Y000983D01*
X007889Y000984D02*
X007940Y000984D01*
X007941Y000985D02*
X007889Y000985D01*
X007889Y000986D02*
X007942Y000986D01*
X007942Y000987D02*
X007889Y000987D01*
X007889Y000988D02*
X007943Y000988D01*
X007944Y000989D02*
X007889Y000989D01*
X007889Y000990D02*
X007945Y000990D01*
X007945Y000991D02*
X007889Y000991D01*
X007889Y000992D02*
X007947Y000992D01*
X007948Y000993D02*
X007889Y000993D01*
X007889Y000994D02*
X007949Y000994D01*
X007950Y000995D02*
X007889Y000995D01*
X007889Y000996D02*
X007952Y000996D01*
X007953Y000997D02*
X007889Y000997D01*
X007889Y000998D02*
X007954Y000998D01*
X007956Y000999D02*
X007889Y000999D01*
X007889Y001000D02*
X007957Y001000D01*
X007959Y001001D02*
X007889Y001001D01*
X007889Y001002D02*
X007961Y001002D01*
X007963Y001003D02*
X007889Y001003D01*
X007889Y001004D02*
X007966Y001004D01*
X007968Y001005D02*
X007889Y001005D01*
X007889Y001006D02*
X007971Y001006D01*
X007975Y001007D02*
X007889Y001007D01*
X007889Y001008D02*
X007983Y001008D01*
X007992Y001008D02*
X008086Y001008D01*
X008086Y001009D02*
X007889Y001009D01*
X007889Y001010D02*
X008086Y001010D01*
X008086Y001011D02*
X007889Y001011D01*
X007889Y001012D02*
X008086Y001012D01*
X008086Y001013D02*
X007889Y001013D01*
X007889Y001014D02*
X008086Y001014D01*
X008086Y001015D02*
X007889Y001015D01*
X007889Y001016D02*
X008086Y001016D01*
X008086Y001017D02*
X007889Y001017D01*
X007889Y001018D02*
X008086Y001018D01*
X008086Y001019D02*
X007889Y001019D01*
X007889Y001020D02*
X008086Y001020D01*
X008086Y001021D02*
X007889Y001021D01*
X007889Y001022D02*
X008086Y001022D01*
X008086Y001023D02*
X007889Y001023D01*
X007889Y001024D02*
X008086Y001024D01*
X008086Y001025D02*
X007889Y001025D01*
X007889Y001026D02*
X008086Y001026D01*
X008086Y001027D02*
X007889Y001027D01*
X007889Y001028D02*
X008086Y001028D01*
X008086Y001029D02*
X007889Y001029D01*
X007889Y001030D02*
X008086Y001030D01*
X008086Y001031D02*
X007889Y001031D01*
X007889Y001032D02*
X008086Y001032D01*
X008086Y001033D02*
X007889Y001033D01*
X007889Y001034D02*
X008086Y001034D01*
X008086Y001035D02*
X007889Y001035D01*
X007889Y001036D02*
X008086Y001036D01*
X008086Y001037D02*
X007889Y001037D01*
X007889Y001038D02*
X008086Y001038D01*
X008086Y001039D02*
X007889Y001039D01*
X007889Y001040D02*
X008086Y001040D01*
X008086Y001041D02*
X007889Y001041D01*
X007889Y001042D02*
X008086Y001042D01*
X008086Y001043D02*
X007889Y001043D01*
X007889Y001044D02*
X008086Y001044D01*
X008086Y001045D02*
X007889Y001045D01*
X007889Y001046D02*
X008086Y001046D01*
X008086Y001047D02*
X007889Y001047D01*
X007889Y001048D02*
X008086Y001048D01*
X008086Y001049D02*
X007889Y001049D01*
X007889Y001050D02*
X008086Y001050D01*
X008086Y001051D02*
X007889Y001051D01*
X007889Y001052D02*
X008086Y001052D01*
X008086Y001053D02*
X007889Y001053D01*
X007889Y001054D02*
X008086Y001054D01*
X008086Y001055D02*
X007889Y001055D01*
X007889Y001056D02*
X008086Y001056D01*
X008086Y001057D02*
X007889Y001057D01*
X007889Y001058D02*
X008086Y001058D01*
X008086Y001059D02*
X007889Y001059D01*
X007889Y001060D02*
X008086Y001060D01*
X008086Y001061D02*
X007889Y001061D01*
X007889Y001062D02*
X008086Y001062D01*
X008086Y001063D02*
X007889Y001063D01*
X007889Y001064D02*
X008086Y001064D01*
X008086Y001065D02*
X007889Y001065D01*
X007889Y001066D02*
X008086Y001066D01*
X008086Y001067D02*
X007889Y001067D01*
X007999Y001007D02*
X008086Y001007D01*
X008086Y001006D02*
X008004Y001006D01*
X008006Y001005D02*
X008086Y001005D01*
X008086Y001004D02*
X008009Y001004D01*
X008011Y001003D02*
X008086Y001003D01*
X008086Y001002D02*
X008014Y001002D01*
X008016Y001001D02*
X008086Y001001D01*
X008086Y001000D02*
X008018Y001000D01*
X008019Y000999D02*
X008086Y000999D01*
X008086Y000998D02*
X008020Y000998D01*
X008022Y000997D02*
X008086Y000997D01*
X008086Y000996D02*
X008023Y000996D01*
X008024Y000995D02*
X008086Y000995D01*
X008086Y000994D02*
X008026Y000994D01*
X008027Y000993D02*
X008086Y000993D01*
X008086Y000992D02*
X008028Y000992D01*
X008029Y000991D02*
X008086Y000991D01*
X008086Y000990D02*
X008030Y000990D01*
X008031Y000989D02*
X008086Y000989D01*
X008086Y000988D02*
X008032Y000988D01*
X008032Y000987D02*
X008086Y000987D01*
X008086Y000986D02*
X008033Y000986D01*
X008034Y000985D02*
X008086Y000985D01*
X008086Y000984D02*
X008035Y000984D01*
X008036Y000983D02*
X008086Y000983D01*
X008086Y000982D02*
X008036Y000982D01*
X008037Y000981D02*
X008086Y000981D01*
X008086Y000980D02*
X008038Y000980D01*
X008039Y000979D02*
X008086Y000979D01*
X008086Y000978D02*
X008039Y000978D01*
X008039Y000977D02*
X008086Y000977D01*
X008086Y000976D02*
X008040Y000976D01*
X008040Y000975D02*
X008086Y000975D01*
X008086Y000974D02*
X008041Y000974D01*
X008041Y000973D02*
X008086Y000973D01*
X008086Y000972D02*
X008041Y000972D01*
X008042Y000971D02*
X008086Y000971D01*
X008086Y000970D02*
X008042Y000970D01*
X008043Y000969D02*
X008086Y000969D01*
X008086Y000968D02*
X008043Y000968D01*
X008044Y000967D02*
X008086Y000967D01*
X008086Y000966D02*
X008044Y000966D01*
X008044Y000965D02*
X008086Y000965D01*
X008086Y000964D02*
X008045Y000964D01*
X008045Y000963D02*
X008086Y000963D01*
X008086Y000962D02*
X008045Y000962D01*
X008045Y000961D02*
X008086Y000961D01*
X008086Y000960D02*
X008045Y000960D01*
X008045Y000959D02*
X008086Y000959D01*
X008086Y000958D02*
X008045Y000958D01*
X008045Y000957D02*
X008086Y000957D01*
X008086Y000956D02*
X008046Y000956D01*
X008046Y000955D02*
X008086Y000955D01*
X008086Y000954D02*
X008046Y000954D01*
X008046Y000953D02*
X008086Y000953D01*
X008086Y000952D02*
X008046Y000952D01*
X008046Y000951D02*
X008086Y000951D01*
X008086Y000950D02*
X008046Y000950D01*
X008239Y000950D02*
X008278Y000950D01*
X008279Y000951D02*
X008239Y000951D01*
X008239Y000952D02*
X008279Y000952D01*
X008279Y000953D02*
X008239Y000953D01*
X008239Y000954D02*
X008279Y000954D01*
X008279Y000955D02*
X008239Y000955D01*
X008239Y000956D02*
X008279Y000956D01*
X008279Y000957D02*
X008239Y000957D01*
X008239Y000958D02*
X008279Y000958D01*
X008280Y000959D02*
X008239Y000959D01*
X008239Y000960D02*
X008280Y000960D01*
X008280Y000961D02*
X008239Y000961D01*
X008239Y000962D02*
X008280Y000962D01*
X008280Y000963D02*
X008239Y000963D01*
X008239Y000964D02*
X008280Y000964D01*
X008280Y000965D02*
X008239Y000965D01*
X008239Y000966D02*
X008281Y000966D01*
X008281Y000967D02*
X008239Y000967D01*
X008239Y000968D02*
X008282Y000968D01*
X008282Y000969D02*
X008239Y000969D01*
X008239Y000970D02*
X008283Y000970D01*
X008283Y000971D02*
X008239Y000971D01*
X008239Y000972D02*
X008283Y000972D01*
X008284Y000973D02*
X008239Y000973D01*
X008239Y000974D02*
X008284Y000974D01*
X008285Y000975D02*
X008239Y000975D01*
X008239Y000976D02*
X008285Y000976D01*
X008285Y000977D02*
X008239Y000977D01*
X008239Y000978D02*
X008286Y000978D01*
X008286Y000979D02*
X008239Y000979D01*
X008239Y000980D02*
X008287Y000980D01*
X008288Y000981D02*
X008239Y000981D01*
X008239Y000982D02*
X008289Y000982D01*
X008289Y000983D02*
X008239Y000983D01*
X008239Y000984D02*
X008290Y000984D01*
X008291Y000985D02*
X008239Y000985D01*
X008239Y000986D02*
X008292Y000986D01*
X008292Y000987D02*
X008239Y000987D01*
X008239Y000988D02*
X008293Y000988D01*
X008294Y000989D02*
X008239Y000989D01*
X008239Y000990D02*
X008295Y000990D01*
X008295Y000991D02*
X008239Y000991D01*
X008239Y000992D02*
X008297Y000992D01*
X008298Y000993D02*
X008239Y000993D01*
X008239Y000994D02*
X008299Y000994D01*
X008300Y000995D02*
X008239Y000995D01*
X008239Y000996D02*
X008302Y000996D01*
X008303Y000997D02*
X008239Y000997D01*
X008239Y000998D02*
X008304Y000998D01*
X008306Y000999D02*
X008239Y000999D01*
X008239Y001000D02*
X008307Y001000D01*
X008309Y001001D02*
X008239Y001001D01*
X008239Y001002D02*
X008311Y001002D01*
X008313Y001003D02*
X008239Y001003D01*
X008239Y001004D02*
X008316Y001004D01*
X008318Y001005D02*
X008239Y001005D01*
X008239Y001006D02*
X008321Y001006D01*
X008325Y001007D02*
X008239Y001007D01*
X008239Y001008D02*
X008333Y001008D01*
X008342Y001008D02*
X008436Y001008D01*
X008436Y001009D02*
X008239Y001009D01*
X008239Y001010D02*
X008436Y001010D01*
X008436Y001011D02*
X008239Y001011D01*
X008239Y001012D02*
X008436Y001012D01*
X008436Y001013D02*
X008239Y001013D01*
X008239Y001014D02*
X008436Y001014D01*
X008436Y001015D02*
X008239Y001015D01*
X008239Y001016D02*
X008436Y001016D01*
X008436Y001017D02*
X008239Y001017D01*
X008239Y001018D02*
X008436Y001018D01*
X008436Y001019D02*
X008239Y001019D01*
X008239Y001020D02*
X008436Y001020D01*
X008436Y001021D02*
X008239Y001021D01*
X008239Y001022D02*
X008436Y001022D01*
X008436Y001023D02*
X008239Y001023D01*
X008239Y001024D02*
X008436Y001024D01*
X008436Y001025D02*
X008239Y001025D01*
X008239Y001026D02*
X008436Y001026D01*
X008436Y001027D02*
X008239Y001027D01*
X008239Y001028D02*
X008436Y001028D01*
X008436Y001029D02*
X008239Y001029D01*
X008239Y001030D02*
X008436Y001030D01*
X008436Y001031D02*
X008239Y001031D01*
X008239Y001032D02*
X008436Y001032D01*
X008436Y001033D02*
X008239Y001033D01*
X008239Y001034D02*
X008436Y001034D01*
X008436Y001035D02*
X008239Y001035D01*
X008239Y001036D02*
X008436Y001036D01*
X008436Y001037D02*
X008239Y001037D01*
X008239Y001038D02*
X008436Y001038D01*
X008436Y001039D02*
X008239Y001039D01*
X008239Y001040D02*
X008436Y001040D01*
X008436Y001041D02*
X008239Y001041D01*
X008239Y001042D02*
X008436Y001042D01*
X008436Y001043D02*
X008239Y001043D01*
X008239Y001044D02*
X008436Y001044D01*
X008436Y001045D02*
X008239Y001045D01*
X008239Y001046D02*
X008436Y001046D01*
X008436Y001047D02*
X008239Y001047D01*
X008239Y001048D02*
X008436Y001048D01*
X008436Y001049D02*
X008239Y001049D01*
X008239Y001050D02*
X008436Y001050D01*
X008436Y001051D02*
X008239Y001051D01*
X008239Y001052D02*
X008436Y001052D01*
X008436Y001053D02*
X008239Y001053D01*
X008239Y001054D02*
X008436Y001054D01*
X008436Y001055D02*
X008239Y001055D01*
X008239Y001056D02*
X008436Y001056D01*
X008436Y001057D02*
X008239Y001057D01*
X008239Y001058D02*
X008436Y001058D01*
X008436Y001059D02*
X008239Y001059D01*
X008239Y001060D02*
X008436Y001060D01*
X008436Y001061D02*
X008239Y001061D01*
X008239Y001062D02*
X008436Y001062D01*
X008436Y001063D02*
X008239Y001063D01*
X008239Y001064D02*
X008436Y001064D01*
X008436Y001065D02*
X008239Y001065D01*
X008239Y001066D02*
X008436Y001066D01*
X008436Y001067D02*
X008239Y001067D01*
X008349Y001007D02*
X008436Y001007D01*
X008436Y001006D02*
X008354Y001006D01*
X008356Y001005D02*
X008436Y001005D01*
X008436Y001004D02*
X008359Y001004D01*
X008361Y001003D02*
X008436Y001003D01*
X008436Y001002D02*
X008364Y001002D01*
X008366Y001001D02*
X008436Y001001D01*
X008436Y001000D02*
X008368Y001000D01*
X008369Y000999D02*
X008436Y000999D01*
X008436Y000998D02*
X008370Y000998D01*
X008372Y000997D02*
X008436Y000997D01*
X008436Y000996D02*
X008373Y000996D01*
X008374Y000995D02*
X008436Y000995D01*
X008436Y000994D02*
X008376Y000994D01*
X008377Y000993D02*
X008436Y000993D01*
X008436Y000992D02*
X008378Y000992D01*
X008379Y000991D02*
X008436Y000991D01*
X008436Y000990D02*
X008380Y000990D01*
X008381Y000989D02*
X008436Y000989D01*
X008436Y000988D02*
X008382Y000988D01*
X008382Y000987D02*
X008436Y000987D01*
X008436Y000986D02*
X008383Y000986D01*
X008384Y000985D02*
X008436Y000985D01*
X008436Y000984D02*
X008385Y000984D01*
X008386Y000983D02*
X008436Y000983D01*
X008436Y000982D02*
X008386Y000982D01*
X008387Y000981D02*
X008436Y000981D01*
X008436Y000980D02*
X008388Y000980D01*
X008389Y000979D02*
X008436Y000979D01*
X008436Y000978D02*
X008389Y000978D01*
X008389Y000977D02*
X008436Y000977D01*
X008436Y000976D02*
X008390Y000976D01*
X008390Y000975D02*
X008436Y000975D01*
X008436Y000974D02*
X008391Y000974D01*
X008391Y000973D02*
X008436Y000973D01*
X008436Y000972D02*
X008391Y000972D01*
X008392Y000971D02*
X008436Y000971D01*
X008436Y000970D02*
X008392Y000970D01*
X008393Y000969D02*
X008436Y000969D01*
X008436Y000968D02*
X008393Y000968D01*
X008394Y000967D02*
X008436Y000967D01*
X008436Y000966D02*
X008394Y000966D01*
X008394Y000965D02*
X008436Y000965D01*
X008436Y000964D02*
X008395Y000964D01*
X008395Y000963D02*
X008436Y000963D01*
X008436Y000962D02*
X008395Y000962D01*
X008395Y000961D02*
X008436Y000961D01*
X008436Y000960D02*
X008395Y000960D01*
X008395Y000959D02*
X008436Y000959D01*
X008436Y000958D02*
X008395Y000958D01*
X008395Y000957D02*
X008436Y000957D01*
X008436Y000956D02*
X008396Y000956D01*
X008396Y000955D02*
X008436Y000955D01*
X008436Y000954D02*
X008396Y000954D01*
X008396Y000953D02*
X008436Y000953D01*
X008436Y000952D02*
X008396Y000952D01*
X008396Y000951D02*
X008436Y000951D01*
X008436Y000950D02*
X008396Y000950D01*
X008436Y001226D02*
X008239Y001226D01*
X008239Y001227D02*
X008436Y001227D01*
X008436Y001228D02*
X008239Y001228D01*
X008239Y001229D02*
X008436Y001229D01*
X008436Y001230D02*
X008239Y001230D01*
X008239Y001231D02*
X008436Y001231D01*
X008436Y001232D02*
X008239Y001232D01*
X008239Y001233D02*
X008436Y001233D01*
X008436Y001234D02*
X008239Y001234D01*
X008239Y001235D02*
X008436Y001235D01*
X008436Y001236D02*
X008239Y001236D01*
X008239Y001237D02*
X008436Y001237D01*
X008436Y001238D02*
X008239Y001238D01*
X008239Y001239D02*
X008436Y001239D01*
X008436Y001240D02*
X008239Y001240D01*
X008239Y001241D02*
X008436Y001241D01*
X008436Y001242D02*
X008239Y001242D01*
X008239Y001243D02*
X008436Y001243D01*
X008436Y001244D02*
X008239Y001244D01*
X008239Y001245D02*
X008436Y001245D01*
X008436Y001246D02*
X008239Y001246D01*
X008239Y001247D02*
X008436Y001247D01*
X008436Y001248D02*
X008239Y001248D01*
X008239Y001249D02*
X008436Y001249D01*
X008436Y001250D02*
X008239Y001250D01*
X008239Y001251D02*
X008436Y001251D01*
X008436Y001252D02*
X008239Y001252D01*
X008239Y001253D02*
X008436Y001253D01*
X008436Y001254D02*
X008239Y001254D01*
X008239Y001255D02*
X008436Y001255D01*
X008436Y001256D02*
X008239Y001256D01*
X008239Y001257D02*
X008436Y001257D01*
X008436Y001258D02*
X008239Y001258D01*
X008239Y001259D02*
X008436Y001259D01*
X008436Y001260D02*
X008239Y001260D01*
X008239Y001261D02*
X008436Y001261D01*
X008436Y001262D02*
X008239Y001262D01*
X008239Y001263D02*
X008436Y001263D01*
X008436Y001264D02*
X008239Y001264D01*
X008239Y001265D02*
X008436Y001265D01*
X008436Y001266D02*
X008239Y001266D01*
X008239Y001267D02*
X008436Y001267D01*
X008436Y001268D02*
X008239Y001268D01*
X008239Y001269D02*
X008436Y001269D01*
X008436Y001270D02*
X008239Y001270D01*
X008239Y001271D02*
X008436Y001271D01*
X008436Y001272D02*
X008239Y001272D01*
X008239Y001273D02*
X008436Y001273D01*
X008436Y001274D02*
X008239Y001274D01*
X008239Y001275D02*
X008436Y001275D01*
X008436Y001276D02*
X008239Y001276D01*
X008239Y001277D02*
X008436Y001277D01*
X008436Y001278D02*
X008239Y001278D01*
X008239Y001279D02*
X008436Y001279D01*
X008436Y001280D02*
X008239Y001280D01*
X008239Y001281D02*
X008436Y001281D01*
X008436Y001282D02*
X008239Y001282D01*
X008239Y001283D02*
X008436Y001283D01*
X008436Y001284D02*
X008239Y001284D01*
X008239Y001285D02*
X008333Y001285D01*
X008326Y001286D02*
X008239Y001286D01*
X008239Y001287D02*
X008321Y001287D01*
X008318Y001288D02*
X008239Y001288D01*
X008239Y001289D02*
X008316Y001289D01*
X008314Y001290D02*
X008239Y001290D01*
X008239Y001291D02*
X008311Y001291D01*
X008309Y001292D02*
X008239Y001292D01*
X008239Y001293D02*
X008307Y001293D01*
X008306Y001294D02*
X008239Y001294D01*
X008239Y001295D02*
X008304Y001295D01*
X008303Y001296D02*
X008239Y001296D01*
X008239Y001297D02*
X008302Y001297D01*
X008301Y001298D02*
X008239Y001298D01*
X008239Y001299D02*
X008299Y001299D01*
X008298Y001300D02*
X008239Y001300D01*
X008239Y001301D02*
X008297Y001301D01*
X008295Y001302D02*
X008239Y001302D01*
X008239Y001303D02*
X008295Y001303D01*
X008294Y001304D02*
X008239Y001304D01*
X008239Y001305D02*
X008293Y001305D01*
X008292Y001306D02*
X008239Y001306D01*
X008239Y001307D02*
X008292Y001307D01*
X008291Y001308D02*
X008239Y001308D01*
X008239Y001309D02*
X008290Y001309D01*
X008289Y001310D02*
X008239Y001310D01*
X008239Y001311D02*
X008289Y001311D01*
X008288Y001312D02*
X008239Y001312D01*
X008239Y001313D02*
X008287Y001313D01*
X008286Y001314D02*
X008239Y001314D01*
X008239Y001315D02*
X008286Y001315D01*
X008285Y001316D02*
X008239Y001316D01*
X008239Y001317D02*
X008285Y001317D01*
X008285Y001318D02*
X008239Y001318D01*
X008239Y001319D02*
X008284Y001319D01*
X008284Y001320D02*
X008239Y001320D01*
X008239Y001321D02*
X008283Y001321D01*
X008283Y001322D02*
X008239Y001322D01*
X008239Y001323D02*
X008283Y001323D01*
X008282Y001324D02*
X008239Y001324D01*
X008239Y001325D02*
X008282Y001325D01*
X008281Y001326D02*
X008239Y001326D01*
X008239Y001327D02*
X008281Y001327D01*
X008280Y001328D02*
X008239Y001328D01*
X008239Y001329D02*
X008280Y001329D01*
X008280Y001330D02*
X008239Y001330D01*
X008239Y001331D02*
X008280Y001331D01*
X008280Y001332D02*
X008239Y001332D01*
X008239Y001333D02*
X008280Y001333D01*
X008280Y001334D02*
X008239Y001334D01*
X008239Y001335D02*
X008279Y001335D01*
X008279Y001336D02*
X008239Y001336D01*
X008239Y001337D02*
X008279Y001337D01*
X008279Y001338D02*
X008239Y001338D01*
X008239Y001339D02*
X008279Y001339D01*
X008279Y001340D02*
X008239Y001340D01*
X008239Y001341D02*
X008279Y001341D01*
X008279Y001342D02*
X008239Y001342D01*
X008239Y001343D02*
X008278Y001343D01*
X008342Y001285D02*
X008436Y001285D01*
X008436Y001286D02*
X008349Y001286D01*
X008354Y001287D02*
X008436Y001287D01*
X008436Y001288D02*
X008356Y001288D01*
X008359Y001289D02*
X008436Y001289D01*
X008436Y001290D02*
X008361Y001290D01*
X008364Y001291D02*
X008436Y001291D01*
X008436Y001292D02*
X008366Y001292D01*
X008368Y001293D02*
X008436Y001293D01*
X008436Y001294D02*
X008369Y001294D01*
X008370Y001295D02*
X008436Y001295D01*
X008436Y001296D02*
X008372Y001296D01*
X008373Y001297D02*
X008436Y001297D01*
X008436Y001298D02*
X008374Y001298D01*
X008376Y001299D02*
X008436Y001299D01*
X008436Y001300D02*
X008377Y001300D01*
X008378Y001301D02*
X008436Y001301D01*
X008436Y001302D02*
X008379Y001302D01*
X008380Y001303D02*
X008436Y001303D01*
X008436Y001304D02*
X008381Y001304D01*
X008382Y001305D02*
X008436Y001305D01*
X008436Y001306D02*
X008382Y001306D01*
X008383Y001307D02*
X008436Y001307D01*
X008436Y001308D02*
X008384Y001308D01*
X008385Y001309D02*
X008436Y001309D01*
X008436Y001310D02*
X008385Y001310D01*
X008386Y001311D02*
X008436Y001311D01*
X008436Y001312D02*
X008387Y001312D01*
X008388Y001313D02*
X008436Y001313D01*
X008436Y001314D02*
X008389Y001314D01*
X008389Y001315D02*
X008436Y001315D01*
X008436Y001316D02*
X008389Y001316D01*
X008390Y001317D02*
X008436Y001317D01*
X008436Y001318D02*
X008390Y001318D01*
X008391Y001319D02*
X008436Y001319D01*
X008436Y001320D02*
X008391Y001320D01*
X008391Y001321D02*
X008436Y001321D01*
X008436Y001322D02*
X008392Y001322D01*
X008392Y001323D02*
X008436Y001323D01*
X008436Y001324D02*
X008393Y001324D01*
X008393Y001325D02*
X008436Y001325D01*
X008436Y001326D02*
X008394Y001326D01*
X008394Y001327D02*
X008436Y001327D01*
X008436Y001328D02*
X008394Y001328D01*
X008395Y001329D02*
X008436Y001329D01*
X008436Y001330D02*
X008395Y001330D01*
X008395Y001331D02*
X008436Y001331D01*
X008436Y001332D02*
X008395Y001332D01*
X008395Y001333D02*
X008436Y001333D01*
X008436Y001334D02*
X008395Y001334D01*
X008395Y001335D02*
X008436Y001335D01*
X008436Y001336D02*
X008395Y001336D01*
X008396Y001337D02*
X008436Y001337D01*
X008436Y001338D02*
X008396Y001338D01*
X008396Y001339D02*
X008436Y001339D01*
X008436Y001340D02*
X008396Y001340D01*
X008396Y001341D02*
X008436Y001341D01*
X008436Y001342D02*
X008396Y001342D01*
X008396Y001343D02*
X008436Y001343D01*
X008086Y001343D02*
X008046Y001343D01*
X008046Y001342D02*
X008086Y001342D01*
X008086Y001341D02*
X008046Y001341D01*
X008046Y001340D02*
X008086Y001340D01*
X008086Y001339D02*
X008046Y001339D01*
X008046Y001338D02*
X008086Y001338D01*
X008086Y001337D02*
X008046Y001337D01*
X008045Y001336D02*
X008086Y001336D01*
X008086Y001335D02*
X008045Y001335D01*
X008045Y001334D02*
X008086Y001334D01*
X008086Y001333D02*
X008045Y001333D01*
X008045Y001332D02*
X008086Y001332D01*
X008086Y001331D02*
X008045Y001331D01*
X008045Y001330D02*
X008086Y001330D01*
X008086Y001329D02*
X008045Y001329D01*
X008044Y001328D02*
X008086Y001328D01*
X008086Y001327D02*
X008044Y001327D01*
X008044Y001326D02*
X008086Y001326D01*
X008086Y001325D02*
X008043Y001325D01*
X008043Y001324D02*
X008086Y001324D01*
X008086Y001323D02*
X008042Y001323D01*
X008042Y001322D02*
X008086Y001322D01*
X008086Y001321D02*
X008041Y001321D01*
X008041Y001320D02*
X008086Y001320D01*
X008086Y001319D02*
X008041Y001319D01*
X008040Y001318D02*
X008086Y001318D01*
X008086Y001317D02*
X008040Y001317D01*
X008039Y001316D02*
X008086Y001316D01*
X008086Y001315D02*
X008039Y001315D01*
X008039Y001314D02*
X008086Y001314D01*
X008086Y001313D02*
X008038Y001313D01*
X008037Y001312D02*
X008086Y001312D01*
X008086Y001311D02*
X008036Y001311D01*
X008035Y001310D02*
X008086Y001310D01*
X008086Y001309D02*
X008035Y001309D01*
X008034Y001308D02*
X008086Y001308D01*
X008086Y001307D02*
X008033Y001307D01*
X008032Y001306D02*
X008086Y001306D01*
X008086Y001305D02*
X008032Y001305D01*
X008031Y001304D02*
X008086Y001304D01*
X008086Y001303D02*
X008030Y001303D01*
X008029Y001302D02*
X008086Y001302D01*
X008086Y001301D02*
X008028Y001301D01*
X008027Y001300D02*
X008086Y001300D01*
X008086Y001299D02*
X008026Y001299D01*
X008024Y001298D02*
X008086Y001298D01*
X008086Y001297D02*
X008023Y001297D01*
X008022Y001296D02*
X008086Y001296D01*
X008086Y001295D02*
X008020Y001295D01*
X008019Y001294D02*
X008086Y001294D01*
X008086Y001293D02*
X008018Y001293D01*
X008016Y001292D02*
X008086Y001292D01*
X008086Y001291D02*
X008014Y001291D01*
X008011Y001290D02*
X008086Y001290D01*
X008086Y001289D02*
X008009Y001289D01*
X008006Y001288D02*
X008086Y001288D01*
X008086Y001287D02*
X008004Y001287D01*
X007999Y001286D02*
X008086Y001286D01*
X008086Y001285D02*
X007992Y001285D01*
X007983Y001285D02*
X007889Y001285D01*
X007889Y001286D02*
X007976Y001286D01*
X007971Y001287D02*
X007889Y001287D01*
X007889Y001288D02*
X007968Y001288D01*
X007966Y001289D02*
X007889Y001289D01*
X007889Y001290D02*
X007964Y001290D01*
X007961Y001291D02*
X007889Y001291D01*
X007889Y001292D02*
X007959Y001292D01*
X007957Y001293D02*
X007889Y001293D01*
X007889Y001294D02*
X007956Y001294D01*
X007954Y001295D02*
X007889Y001295D01*
X007889Y001296D02*
X007953Y001296D01*
X007952Y001297D02*
X007889Y001297D01*
X007889Y001298D02*
X007951Y001298D01*
X007949Y001299D02*
X007889Y001299D01*
X007889Y001300D02*
X007948Y001300D01*
X007947Y001301D02*
X007889Y001301D01*
X007889Y001302D02*
X007945Y001302D01*
X007945Y001303D02*
X007889Y001303D01*
X007889Y001304D02*
X007944Y001304D01*
X007943Y001305D02*
X007889Y001305D01*
X007889Y001306D02*
X007942Y001306D01*
X007942Y001307D02*
X007889Y001307D01*
X007889Y001308D02*
X007941Y001308D01*
X007940Y001309D02*
X007889Y001309D01*
X007889Y001310D02*
X007939Y001310D01*
X007939Y001311D02*
X007889Y001311D01*
X007889Y001312D02*
X007938Y001312D01*
X007937Y001313D02*
X007889Y001313D01*
X007889Y001314D02*
X007936Y001314D01*
X007936Y001315D02*
X007889Y001315D01*
X007889Y001316D02*
X007935Y001316D01*
X007935Y001317D02*
X007889Y001317D01*
X007889Y001318D02*
X007935Y001318D01*
X007934Y001319D02*
X007889Y001319D01*
X007889Y001320D02*
X007934Y001320D01*
X007933Y001321D02*
X007889Y001321D01*
X007889Y001322D02*
X007933Y001322D01*
X007933Y001323D02*
X007889Y001323D01*
X007889Y001324D02*
X007932Y001324D01*
X007932Y001325D02*
X007889Y001325D01*
X007889Y001326D02*
X007931Y001326D01*
X007931Y001327D02*
X007889Y001327D01*
X007889Y001328D02*
X007930Y001328D01*
X007930Y001329D02*
X007889Y001329D01*
X007889Y001330D02*
X007930Y001330D01*
X007930Y001331D02*
X007889Y001331D01*
X007889Y001332D02*
X007930Y001332D01*
X007930Y001333D02*
X007889Y001333D01*
X007889Y001334D02*
X007930Y001334D01*
X007929Y001335D02*
X007889Y001335D01*
X007889Y001336D02*
X007929Y001336D01*
X007929Y001337D02*
X007889Y001337D01*
X007889Y001338D02*
X007929Y001338D01*
X007929Y001339D02*
X007889Y001339D01*
X007889Y001340D02*
X007929Y001340D01*
X007929Y001341D02*
X007889Y001341D01*
X007889Y001342D02*
X007929Y001342D01*
X007928Y001343D02*
X007889Y001343D01*
X007889Y001284D02*
X008086Y001284D01*
X008086Y001283D02*
X007889Y001283D01*
X007889Y001282D02*
X008086Y001282D01*
X008086Y001281D02*
X007889Y001281D01*
X007889Y001280D02*
X008086Y001280D01*
X008086Y001279D02*
X007889Y001279D01*
X007889Y001278D02*
X008086Y001278D01*
X008086Y001277D02*
X007889Y001277D01*
X007889Y001276D02*
X008086Y001276D01*
X008086Y001275D02*
X007889Y001275D01*
X007889Y001274D02*
X008086Y001274D01*
X008086Y001273D02*
X007889Y001273D01*
X007889Y001272D02*
X008086Y001272D01*
X008086Y001271D02*
X007889Y001271D01*
X007889Y001270D02*
X008086Y001270D01*
X008086Y001269D02*
X007889Y001269D01*
X007889Y001268D02*
X008086Y001268D01*
X008086Y001267D02*
X007889Y001267D01*
X007889Y001266D02*
X008086Y001266D01*
X008086Y001265D02*
X007889Y001265D01*
X007889Y001264D02*
X008086Y001264D01*
X008086Y001263D02*
X007889Y001263D01*
X007889Y001262D02*
X008086Y001262D01*
X008086Y001261D02*
X007889Y001261D01*
X007889Y001260D02*
X008086Y001260D01*
X008086Y001259D02*
X007889Y001259D01*
X007889Y001258D02*
X008086Y001258D01*
X008086Y001257D02*
X007889Y001257D01*
X007889Y001256D02*
X008086Y001256D01*
X008086Y001255D02*
X007889Y001255D01*
X007889Y001254D02*
X008086Y001254D01*
X008086Y001253D02*
X007889Y001253D01*
X007889Y001252D02*
X008086Y001252D01*
X008086Y001251D02*
X007889Y001251D01*
X007889Y001250D02*
X008086Y001250D01*
X008086Y001249D02*
X007889Y001249D01*
X007889Y001248D02*
X008086Y001248D01*
X008086Y001247D02*
X007889Y001247D01*
X007889Y001246D02*
X008086Y001246D01*
X008086Y001245D02*
X007889Y001245D01*
X007889Y001244D02*
X008086Y001244D01*
X008086Y001243D02*
X007889Y001243D01*
X007889Y001242D02*
X008086Y001242D01*
X008086Y001241D02*
X007889Y001241D01*
X007889Y001240D02*
X008086Y001240D01*
X008086Y001239D02*
X007889Y001239D01*
X007889Y001238D02*
X008086Y001238D01*
X008086Y001237D02*
X007889Y001237D01*
X007889Y001236D02*
X008086Y001236D01*
X008086Y001235D02*
X007889Y001235D01*
X007889Y001234D02*
X008086Y001234D01*
X008086Y001233D02*
X007889Y001233D01*
X007889Y001232D02*
X008086Y001232D01*
X008086Y001231D02*
X007889Y001231D01*
X007889Y001230D02*
X008086Y001230D01*
X008086Y001229D02*
X007889Y001229D01*
X007889Y001228D02*
X008086Y001228D01*
X008086Y001227D02*
X007889Y001227D01*
X007889Y001226D02*
X008086Y001226D01*
D21*
X008145Y001225D02*
X008145Y001560D01*
X007830Y001560D01*
X007830Y001225D01*
X007795Y001225D02*
X007795Y001560D01*
X007480Y001560D01*
X007480Y001225D01*
X007559Y001107D02*
X007637Y001107D01*
X007637Y001186D01*
X007637Y001107D02*
X007716Y001107D01*
X007795Y001068D02*
X007795Y000733D01*
X007480Y000733D01*
X007480Y001068D01*
X007830Y001068D02*
X007830Y000733D01*
X008145Y000733D01*
X008145Y001068D01*
X008180Y001068D02*
X008180Y000733D01*
X008495Y000733D01*
X008495Y001068D01*
X008416Y001107D02*
X008337Y001107D01*
X008337Y001186D01*
X008337Y001107D02*
X008259Y001107D01*
X008180Y001225D02*
X008180Y001560D01*
X008495Y001560D01*
X008495Y001225D01*
X008066Y001107D02*
X007987Y001107D01*
X007987Y001186D01*
X007987Y001107D02*
X007909Y001107D01*
X003007Y002895D02*
X003007Y003230D01*
X002929Y003270D02*
X002850Y003270D01*
X002850Y003348D01*
X002850Y003270D02*
X002771Y003270D01*
X002693Y003230D02*
X002693Y002895D01*
X003007Y002895D01*
X002657Y002895D02*
X002657Y003230D01*
X002579Y003270D02*
X002500Y003270D01*
X002500Y003348D01*
X002500Y003270D02*
X002421Y003270D01*
X002343Y003230D02*
X002343Y002895D01*
X002657Y002895D01*
X002657Y003388D02*
X002657Y003722D01*
X002343Y003722D01*
X002343Y003388D01*
X002693Y003388D02*
X002693Y003722D01*
X003007Y003722D01*
X003007Y003388D01*
D22*
X002939Y003309D03*
X002761Y003309D03*
X002589Y003309D03*
X002411Y003309D03*
X007549Y001146D03*
X007726Y001146D03*
X007899Y001146D03*
X008076Y001146D03*
X008249Y001146D03*
X008426Y001146D03*
M02*
