%
M48
M72
T01C0.0120
T02C0.0160
T03C0.0260
T04C0.0500
T05C0.0860
%
T01
X2500Y2896
X2500Y4046
X2750Y4346
X2750Y4621
X2750Y4896
X2875Y6971
X2950Y7796
X3250Y7796
X3550Y7796
X4000Y7381
X3250Y8846
X2950Y8846
X2650Y8846
X2350Y8846
X2050Y8846
X2350Y7796
X2650Y7796
X6050Y8946
X6050Y9246
X6050Y9546
X6650Y8221
X6650Y7381
X6900Y6896
X6350Y5696
X6350Y5396
X6350Y5096
X6650Y5246
X6650Y5546
X7700Y4096
X8150Y3546
X8550Y3646
X8800Y4296
X8240Y2746
X7730Y2746
X7700Y2096
X8533Y980
X7200Y3546
X8800Y6896
X8350Y8046
X7800Y9596
X7800Y9896
X7800Y10196
X7800Y10496
X7800Y10796
X7800Y11096
T02
X7150Y9546
X6250Y8196
X4950Y10446
X4100Y10446
T03
X5300Y7946
X4984Y6380
X6250Y6296
T04
X600Y8396
T05
X7615Y5436
M30
