G75*
G70*
%OFA0B0*%
%FSLAX24Y24*%
%IPPOS*%
%LPD*%
%AMOC8*
5,1,8,0,0,1.08239X$1,22.5*
%
%ADD10C,0.0050*%
%ADD11R,0.0433X0.0394*%
%ADD12R,0.0354X0.0250*%
%ADD13R,0.0197X0.0220*%
%ADD14R,0.0810X0.0240*%
%ADD15R,0.0900X0.0900*%
%ADD16R,0.0217X0.0472*%
%ADD17R,0.0472X0.0138*%
%ADD18R,0.0315X0.0472*%
%ADD19R,0.0250X0.0472*%
%ADD20C,0.0004*%
%ADD21C,0.0433*%
%ADD22R,0.0220X0.0197*%
%ADD23C,0.0300*%
%ADD24R,0.0600X0.0236*%
%ADD25R,0.1450X0.0350*%
%ADD26C,0.0250*%
%ADD27R,0.0197X0.0250*%
%ADD28C,0.0512*%
%ADD29C,0.0984*%
%ADD30C,0.0591*%
%ADD31C,0.0000*%
%ADD32C,0.0080*%
%ADD33C,0.0240*%
%ADD34C,0.0140*%
%ADD35C,0.0220*%
%ADD36C,0.0400*%
%ADD37C,0.0240*%
%ADD38C,0.0100*%
%ADD39C,0.0390*%
%ADD40C,0.0130*%
%ADD41C,0.0220*%
%ADD42C,0.0280*%
%ADD43C,0.0120*%
%ADD44C,0.0200*%
D10*
X000929Y000534D02*
X024328Y000534D01*
X024327Y000533D02*
X024374Y000530D01*
X024420Y000531D01*
X024466Y000536D01*
X024512Y000544D01*
X024556Y000557D01*
X024600Y000573D01*
X024642Y000592D01*
X024682Y000615D01*
X024720Y000641D01*
X024756Y000671D01*
X024790Y000703D01*
X024821Y000737D01*
X024848Y000775D01*
X024873Y000814D01*
X024894Y000855D01*
X024912Y000898D01*
X024926Y000942D01*
X024936Y000987D01*
X024943Y001033D01*
X024943Y001034D02*
X024943Y017752D01*
X024943Y017753D02*
X024936Y017798D01*
X024926Y017844D01*
X024911Y017888D01*
X024894Y017930D01*
X024872Y017971D01*
X024848Y018011D01*
X024820Y018048D01*
X024789Y018082D01*
X024756Y018114D01*
X024720Y018143D01*
X024682Y018170D01*
X024641Y018192D01*
X024599Y018212D01*
X024556Y018228D01*
X024511Y018240D01*
X024466Y018248D01*
X024420Y018253D01*
X024374Y018254D01*
X024327Y018251D01*
X024328Y018250D02*
X000929Y018250D01*
X000930Y018250D02*
X000889Y018243D01*
X000849Y018233D01*
X000809Y018219D01*
X000772Y018201D01*
X000736Y018180D01*
X000702Y018156D01*
X000671Y018129D01*
X000642Y018099D01*
X000616Y018066D01*
X000593Y018032D01*
X000574Y017995D01*
X000558Y017956D01*
X000546Y017917D01*
X000537Y017876D01*
X000532Y017835D01*
X000531Y017793D01*
X000534Y017752D01*
X000534Y001034D01*
X000531Y000993D01*
X000532Y000951D01*
X000537Y000910D01*
X000545Y000869D01*
X000558Y000829D01*
X000574Y000791D01*
X000593Y000754D01*
X000616Y000719D01*
X000642Y000686D01*
X000670Y000656D01*
X000702Y000629D01*
X000736Y000604D01*
X000772Y000583D01*
X000809Y000565D01*
X000848Y000551D01*
X000889Y000541D01*
X000930Y000534D01*
X009337Y008375D02*
X009294Y008543D01*
X009242Y008708D01*
X009183Y008870D01*
X009115Y009030D01*
X009040Y009186D01*
X008957Y009338D01*
X008867Y009486D01*
X008770Y009629D01*
X008666Y009767D01*
X008556Y009900D01*
X008439Y010028D01*
X008316Y010150D01*
X008187Y010266D01*
X008053Y010375D01*
X007913Y010477D01*
X007769Y010573D01*
X007620Y010662D01*
X007467Y010743D01*
X007311Y010816D01*
X007151Y010882D01*
X006987Y010940D01*
X006822Y010990D01*
X006654Y011032D01*
X006484Y011066D01*
X006484Y011065D02*
X004578Y011065D01*
X004548Y011067D01*
X004518Y011072D01*
X004489Y011081D01*
X004462Y011094D01*
X004436Y011109D01*
X004412Y011128D01*
X004391Y011149D01*
X004372Y011173D01*
X004357Y011199D01*
X004344Y011226D01*
X004335Y011255D01*
X004330Y011285D01*
X004328Y011315D01*
X004328Y013595D01*
X004326Y013649D01*
X004320Y013702D01*
X004311Y013754D01*
X004298Y013806D01*
X004281Y013857D01*
X004260Y013907D01*
X004236Y013954D01*
X004209Y014000D01*
X004178Y014044D01*
X004145Y014086D01*
X004108Y014125D01*
X004069Y014162D01*
X004027Y014195D01*
X003983Y014226D01*
X003937Y014253D01*
X003890Y014277D01*
X003840Y014298D01*
X003789Y014315D01*
X003737Y014328D01*
X003685Y014337D01*
X003632Y014343D01*
X003578Y014345D01*
X002387Y014345D01*
X002341Y014350D01*
X002296Y014359D01*
X002251Y014371D01*
X002207Y014386D01*
X002165Y014405D01*
X002124Y014428D01*
X002085Y014453D01*
X002048Y014481D01*
X002014Y014512D01*
X001982Y014546D01*
X001953Y014582D01*
X001927Y014621D01*
X001903Y014661D01*
X001884Y014703D01*
X001867Y014746D01*
X001854Y014791D01*
X001844Y014836D01*
X001838Y014882D01*
X001836Y014928D01*
X001837Y014975D01*
X001837Y016756D01*
X001839Y016801D01*
X001845Y016847D01*
X001854Y016891D01*
X001867Y016935D01*
X001883Y016977D01*
X001903Y017018D01*
X001927Y017057D01*
X001953Y017094D01*
X001982Y017129D01*
X002014Y017161D01*
X002049Y017190D01*
X002086Y017216D01*
X002125Y017240D01*
X002166Y017260D01*
X002208Y017276D01*
X002252Y017289D01*
X002296Y017298D01*
X002342Y017304D01*
X002387Y017306D01*
X005733Y017306D01*
X005733Y016215D01*
X005078Y016215D01*
X005055Y016217D01*
X005032Y016222D01*
X005010Y016231D01*
X004990Y016244D01*
X004972Y016259D01*
X004957Y016277D01*
X004944Y016297D01*
X004935Y016319D01*
X004930Y016342D01*
X004928Y016365D01*
X004928Y016665D01*
X004926Y016688D01*
X004921Y016711D01*
X004912Y016733D01*
X004899Y016753D01*
X004884Y016771D01*
X004866Y016786D01*
X004846Y016799D01*
X004824Y016808D01*
X004801Y016813D01*
X004778Y016815D01*
X002928Y016815D01*
X002883Y016813D01*
X002837Y016807D01*
X002793Y016798D01*
X002749Y016785D01*
X002707Y016769D01*
X002666Y016749D01*
X002627Y016725D01*
X002590Y016699D01*
X002555Y016670D01*
X002523Y016638D01*
X002494Y016603D01*
X002468Y016566D01*
X002444Y016527D01*
X002424Y016486D01*
X002408Y016444D01*
X002395Y016400D01*
X002386Y016356D01*
X002380Y016310D01*
X002378Y016265D01*
X002378Y015495D01*
X002380Y015450D01*
X002386Y015404D01*
X002395Y015360D01*
X002408Y015316D01*
X002424Y015274D01*
X002444Y015233D01*
X002468Y015194D01*
X002494Y015157D01*
X002523Y015122D01*
X002555Y015090D01*
X002590Y015061D01*
X002627Y015035D01*
X002666Y015011D01*
X002707Y014991D01*
X002749Y014975D01*
X002793Y014962D01*
X002837Y014953D01*
X002883Y014947D01*
X002928Y014945D01*
X004178Y014945D01*
X004232Y014943D01*
X004285Y014937D01*
X004337Y014928D01*
X004389Y014915D01*
X004440Y014898D01*
X004490Y014877D01*
X004537Y014853D01*
X004583Y014826D01*
X004627Y014795D01*
X004669Y014762D01*
X004708Y014725D01*
X004745Y014686D01*
X004778Y014644D01*
X004809Y014600D01*
X004836Y014554D01*
X004860Y014507D01*
X004881Y014457D01*
X004898Y014406D01*
X004911Y014354D01*
X004920Y014302D01*
X004926Y014249D01*
X004928Y014195D01*
X004928Y011915D01*
X004930Y011885D01*
X004935Y011855D01*
X004944Y011826D01*
X004957Y011799D01*
X004972Y011773D01*
X004991Y011749D01*
X005012Y011728D01*
X005036Y011709D01*
X005062Y011694D01*
X005089Y011681D01*
X005118Y011672D01*
X005148Y011667D01*
X005178Y011665D01*
X006878Y011665D01*
X007228Y012515D02*
X006378Y012515D01*
X006348Y012517D01*
X006318Y012522D01*
X006289Y012531D01*
X006262Y012544D01*
X006236Y012559D01*
X006212Y012578D01*
X006191Y012599D01*
X006172Y012623D01*
X006157Y012649D01*
X006144Y012676D01*
X006135Y012705D01*
X006130Y012735D01*
X006128Y012765D01*
X006128Y013765D01*
X006130Y013795D01*
X006135Y013825D01*
X006144Y013854D01*
X006157Y013881D01*
X006172Y013907D01*
X006191Y013931D01*
X006212Y013952D01*
X006236Y013971D01*
X006262Y013986D01*
X006289Y013999D01*
X006318Y014008D01*
X006348Y014013D01*
X006378Y014015D01*
X006978Y014015D01*
X007008Y014017D01*
X007038Y014022D01*
X007067Y014031D01*
X007094Y014044D01*
X007120Y014059D01*
X007144Y014078D01*
X007165Y014099D01*
X007184Y014123D01*
X007199Y014149D01*
X007212Y014176D01*
X007221Y014205D01*
X007226Y014235D01*
X007228Y014265D01*
X007228Y014604D01*
X007228Y014614D02*
X007228Y015648D01*
X007228Y015628D02*
X007228Y015965D01*
X007226Y015995D01*
X007221Y016025D01*
X007212Y016054D01*
X007199Y016081D01*
X007184Y016107D01*
X007165Y016131D01*
X007144Y016152D01*
X007120Y016171D01*
X007094Y016186D01*
X007067Y016199D01*
X007038Y016208D01*
X007008Y016213D01*
X006978Y016215D01*
X006521Y016215D01*
X006521Y017306D01*
X007568Y017306D01*
X007569Y017306D02*
X007599Y017304D01*
X007628Y017299D01*
X007657Y017291D01*
X007684Y017279D01*
X007710Y017263D01*
X007734Y017245D01*
X007755Y017224D01*
X007774Y017201D01*
X007790Y017175D01*
X007802Y017148D01*
X007811Y017119D01*
X007817Y017090D01*
X007819Y017060D01*
X007818Y017060D02*
X007818Y013156D01*
X010657Y011256D02*
X016120Y011256D01*
X016120Y010259D01*
X010328Y010259D01*
X009928Y008965D02*
X014478Y008965D01*
X014506Y008964D01*
X014533Y008960D01*
X014560Y008953D01*
X014585Y008942D01*
X014609Y008928D01*
X014630Y008911D01*
X014650Y008891D01*
X014666Y008869D01*
X014680Y008845D01*
X014690Y008819D01*
X014697Y008792D01*
X014700Y008765D01*
X014699Y008765D02*
X014699Y007521D01*
X014698Y007485D01*
X014701Y007450D01*
X014708Y007415D01*
X014718Y007381D01*
X014732Y007348D01*
X014749Y007316D01*
X014770Y007287D01*
X014793Y007260D01*
X014819Y007236D01*
X014847Y007214D01*
X014878Y007195D01*
X014910Y007180D01*
X014944Y007169D01*
X014979Y007160D01*
X015014Y007156D01*
X016009Y007156D01*
X016010Y007156D02*
X016042Y007155D01*
X016074Y007152D01*
X016106Y007144D01*
X016137Y007133D01*
X016166Y007119D01*
X016193Y007101D01*
X016219Y007081D01*
X016242Y007058D01*
X016262Y007032D01*
X016279Y007005D01*
X016293Y006975D01*
X016303Y006944D01*
X016310Y006913D01*
X016314Y006880D01*
X016314Y006881D02*
X016314Y005956D01*
X015468Y005956D01*
X015468Y006220D01*
X015466Y006253D01*
X015460Y006286D01*
X015450Y006318D01*
X015437Y006349D01*
X015421Y006378D01*
X015401Y006406D01*
X015378Y006430D01*
X015353Y006452D01*
X015325Y006471D01*
X015296Y006487D01*
X015264Y006499D01*
X015232Y006508D01*
X015199Y006513D01*
X015165Y006514D01*
X015132Y006511D01*
X015099Y006505D01*
X015067Y006495D01*
X015036Y006481D01*
X015007Y006464D01*
X014980Y006444D01*
X014956Y006421D01*
X014935Y006395D01*
X014916Y006367D01*
X014917Y006367D02*
X013342Y006367D01*
X013341Y006367D02*
X013294Y006325D01*
X013249Y006280D01*
X013208Y006232D01*
X013169Y006182D01*
X013133Y006129D01*
X013101Y006075D01*
X013072Y006018D01*
X013046Y005960D01*
X013024Y005901D01*
X013006Y005840D01*
X012991Y005778D01*
X012981Y005715D01*
X012974Y005652D01*
X012971Y005589D01*
X012972Y005525D01*
X012977Y005462D01*
X012986Y005399D01*
X012998Y005337D01*
X013015Y005276D01*
X013035Y005216D01*
X013058Y005157D01*
X013086Y005099D01*
X013116Y005044D01*
X013150Y004990D01*
X013188Y004939D01*
X013228Y004890D01*
X013271Y004844D01*
X013317Y004800D01*
X013366Y004759D01*
X013417Y004721D01*
X013470Y004687D01*
X013526Y004656D01*
X013583Y004628D01*
X013641Y004604D01*
X013701Y004583D01*
X013763Y004566D01*
X013825Y004553D01*
X013887Y004544D01*
X013951Y004539D01*
X014014Y004537D01*
X014078Y004539D01*
X014141Y004546D01*
X014203Y004556D01*
X014265Y004570D01*
X014326Y004587D01*
X014386Y004609D01*
X014444Y004634D01*
X015153Y004634D01*
X015186Y004633D01*
X015218Y004636D01*
X015250Y004642D01*
X015281Y004652D01*
X015311Y004665D01*
X015339Y004682D01*
X015365Y004701D01*
X015389Y004724D01*
X015410Y004749D01*
X015428Y004776D01*
X015443Y004805D01*
X015455Y004835D01*
X015463Y004867D01*
X015468Y004899D01*
X015468Y005167D01*
X016314Y005167D01*
X016314Y002729D01*
X016316Y002699D01*
X016321Y002669D01*
X016330Y002640D01*
X016343Y002613D01*
X016358Y002587D01*
X016377Y002563D01*
X016398Y002542D01*
X016422Y002523D01*
X016448Y002508D01*
X016475Y002495D01*
X016504Y002486D01*
X016534Y002481D01*
X016564Y002479D01*
X021424Y002565D01*
X022873Y002683D02*
X022906Y002685D01*
X022938Y002690D01*
X022970Y002699D01*
X023001Y002712D01*
X023029Y002728D01*
X023056Y002747D01*
X023081Y002769D01*
X023103Y002794D01*
X023122Y002821D01*
X023138Y002849D01*
X023151Y002880D01*
X023160Y002912D01*
X023165Y002944D01*
X023167Y002977D01*
X023167Y004915D01*
X023167Y004916D02*
X023168Y004952D01*
X023166Y004988D01*
X023160Y005024D01*
X023150Y005059D01*
X023137Y005094D01*
X023121Y005126D01*
X023102Y005157D01*
X023080Y005186D01*
X023055Y005213D01*
X023028Y005237D01*
X022998Y005258D01*
X022967Y005276D01*
X022933Y005291D01*
X022899Y005303D01*
X022863Y005311D01*
X022827Y005316D01*
X022828Y005315D02*
X021728Y005315D01*
X021689Y005314D01*
X021649Y005317D01*
X021611Y005324D01*
X021573Y005334D01*
X021536Y005348D01*
X021500Y005365D01*
X021467Y005386D01*
X021435Y005409D01*
X021406Y005435D01*
X021379Y005464D01*
X021355Y005495D01*
X021333Y005528D01*
X021315Y005563D01*
X021301Y005600D01*
X021290Y005637D01*
X021282Y005676D01*
X021278Y005715D01*
X021278Y006464D01*
X023758Y006464D01*
X023758Y002186D01*
X023756Y002153D01*
X023751Y002120D01*
X023742Y002088D01*
X023730Y002058D01*
X023714Y002028D01*
X023695Y002001D01*
X023673Y001976D01*
X023648Y001954D01*
X023621Y001935D01*
X023592Y001918D01*
X023562Y001905D01*
X023530Y001896D01*
X023497Y001890D01*
X023464Y001888D01*
X011983Y001888D01*
X011984Y001888D02*
X011954Y001891D01*
X011925Y001897D01*
X011897Y001907D01*
X011871Y001920D01*
X011846Y001936D01*
X011823Y001955D01*
X011803Y001977D01*
X011786Y002001D01*
X011771Y002027D01*
X011760Y002054D01*
X011752Y002083D01*
X011748Y002112D01*
X011747Y002141D01*
X011747Y002142D02*
X011747Y008175D01*
X011744Y008202D01*
X011737Y008229D01*
X011727Y008255D01*
X011713Y008279D01*
X011697Y008301D01*
X011677Y008321D01*
X011656Y008338D01*
X011632Y008352D01*
X011607Y008363D01*
X011580Y008370D01*
X011553Y008374D01*
X011525Y008375D01*
X009337Y008375D01*
X010657Y011256D02*
X010530Y011434D01*
X010394Y011605D01*
X010250Y011770D01*
X010099Y011928D01*
X009940Y012078D01*
X009774Y012221D01*
X009601Y012356D01*
X009422Y012482D01*
X009238Y012599D01*
X009047Y012707D01*
X008852Y012806D01*
X008653Y012896D01*
X008449Y012976D01*
X008242Y013046D01*
X008031Y013106D01*
X007818Y013156D01*
X003728Y015815D02*
X003728Y015965D01*
X003726Y016004D01*
X003720Y016043D01*
X003711Y016081D01*
X003698Y016118D01*
X003681Y016154D01*
X003661Y016187D01*
X003637Y016219D01*
X003611Y016248D01*
X003582Y016274D01*
X003550Y016298D01*
X003517Y016318D01*
X003481Y016335D01*
X003444Y016348D01*
X003406Y016357D01*
X003367Y016363D01*
X003328Y016365D01*
X003289Y016363D01*
X003250Y016357D01*
X003212Y016348D01*
X003175Y016335D01*
X003139Y016318D01*
X003106Y016298D01*
X003074Y016274D01*
X003045Y016248D01*
X003019Y016219D01*
X002995Y016187D01*
X002975Y016154D01*
X002958Y016118D01*
X002945Y016081D01*
X002936Y016043D01*
X002930Y016004D01*
X002928Y015965D01*
X002928Y015815D01*
X002930Y015776D01*
X002936Y015737D01*
X002945Y015699D01*
X002958Y015662D01*
X002975Y015626D01*
X002995Y015593D01*
X003019Y015561D01*
X003045Y015532D01*
X003074Y015506D01*
X003106Y015482D01*
X003139Y015462D01*
X003175Y015445D01*
X003212Y015432D01*
X003250Y015423D01*
X003289Y015417D01*
X003328Y015415D01*
X003367Y015417D01*
X003406Y015423D01*
X003444Y015432D01*
X003481Y015445D01*
X003517Y015462D01*
X003550Y015482D01*
X003582Y015506D01*
X003611Y015532D01*
X003637Y015561D01*
X003661Y015593D01*
X003681Y015626D01*
X003698Y015662D01*
X003711Y015699D01*
X003720Y015737D01*
X003726Y015776D01*
X003728Y015815D01*
X007228Y012515D02*
X007443Y012468D01*
X007655Y012410D01*
X007864Y012342D01*
X008070Y012264D01*
X008271Y012176D01*
X008469Y012079D01*
X008661Y011972D01*
X008847Y011856D01*
X009028Y011730D01*
X009203Y011597D01*
X009371Y011455D01*
X009532Y011305D01*
X009685Y011147D01*
X009831Y010983D01*
X009968Y010811D01*
X010097Y010633D01*
X010217Y010449D01*
X010328Y010259D01*
X009928Y008965D02*
X009877Y009137D01*
X009818Y009307D01*
X009751Y009474D01*
X009675Y009637D01*
X009592Y009797D01*
X009501Y009952D01*
X009403Y010102D01*
X009298Y010248D01*
X009185Y010388D01*
X009066Y010523D01*
X008941Y010652D01*
X008809Y010774D01*
X008671Y010890D01*
X008528Y010999D01*
X008380Y011101D01*
X008227Y011195D01*
X008070Y011282D01*
X007909Y011362D01*
X007744Y011433D01*
X007576Y011496D01*
X007404Y011551D01*
X007231Y011598D01*
X007055Y011636D01*
X006878Y011665D01*
X016908Y011256D02*
X016908Y010259D01*
X021028Y010259D01*
X021058Y010258D01*
X021087Y010253D01*
X021116Y010244D01*
X021143Y010232D01*
X021169Y010217D01*
X021192Y010199D01*
X021214Y010178D01*
X021232Y010155D01*
X021248Y010130D01*
X021261Y010103D01*
X021270Y010074D01*
X021276Y010045D01*
X021278Y010015D01*
X021278Y007252D01*
X023758Y007252D01*
X023758Y010915D01*
X023757Y010916D02*
X023756Y010951D01*
X023751Y010985D01*
X023742Y011019D01*
X023730Y011052D01*
X023715Y011084D01*
X023696Y011114D01*
X023674Y011141D01*
X023650Y011166D01*
X023623Y011189D01*
X023594Y011208D01*
X023563Y011225D01*
X023531Y011238D01*
X023497Y011248D01*
X023462Y011254D01*
X023427Y011256D01*
X023428Y011256D02*
X016908Y011256D01*
X021424Y002565D02*
X022150Y002608D01*
X022873Y002683D01*
D11*
X016839Y008879D03*
X016839Y009588D03*
D12*
X017939Y009357D03*
X017939Y008810D03*
X020610Y008960D03*
X020610Y009507D03*
D13*
X020093Y009457D03*
X020093Y009010D03*
X017409Y009217D03*
X017409Y008770D03*
X017360Y006852D03*
X017360Y006405D03*
X016960Y004508D03*
X016600Y004508D03*
X016600Y004061D03*
X016960Y004061D03*
X016960Y003415D03*
X016600Y003415D03*
X016600Y002968D03*
X016960Y002968D03*
X021410Y003842D03*
X021796Y003842D03*
X021796Y004289D03*
X021410Y004289D03*
D14*
X020340Y005262D03*
X020340Y005762D03*
X020340Y006262D03*
X020340Y006762D03*
X018220Y006762D03*
X018220Y006262D03*
X018220Y005762D03*
X018220Y005262D03*
D15*
X019280Y006012D03*
D16*
X019210Y008722D03*
X019584Y008722D03*
X018836Y008722D03*
X018836Y009746D03*
X019210Y009746D03*
X019584Y009746D03*
D17*
X020262Y008133D03*
X020262Y007877D03*
X020262Y007621D03*
X020262Y007365D03*
X017959Y007365D03*
X017959Y007621D03*
X017959Y007877D03*
X017959Y008133D03*
D18*
X018064Y004411D03*
X018548Y004411D03*
X019745Y004411D03*
X020229Y004411D03*
D19*
X019343Y004411D03*
X018950Y004411D03*
D20*
X017554Y004483D02*
X017554Y004238D01*
X017552Y004218D01*
X017547Y004199D01*
X017538Y004181D01*
X017526Y004165D01*
X017511Y004152D01*
X017494Y004141D01*
X017476Y004134D01*
X017456Y004130D01*
X017436Y004130D01*
X017416Y004134D01*
X017398Y004141D01*
X017381Y004152D01*
X017366Y004165D01*
X017354Y004181D01*
X017345Y004199D01*
X017340Y004218D01*
X017338Y004238D01*
X017338Y004483D01*
X017340Y004503D01*
X017345Y004522D01*
X017354Y004540D01*
X017366Y004556D01*
X017381Y004569D01*
X017398Y004580D01*
X017416Y004587D01*
X017436Y004591D01*
X017456Y004591D01*
X017476Y004587D01*
X017494Y004580D01*
X017511Y004569D01*
X017526Y004556D01*
X017538Y004540D01*
X017547Y004522D01*
X017552Y004503D01*
X017554Y004483D01*
X017554Y002986D02*
X017554Y002742D01*
X017552Y002722D01*
X017547Y002703D01*
X017538Y002685D01*
X017526Y002669D01*
X017511Y002656D01*
X017494Y002645D01*
X017476Y002638D01*
X017456Y002634D01*
X017436Y002634D01*
X017416Y002638D01*
X017398Y002645D01*
X017381Y002656D01*
X017366Y002669D01*
X017354Y002685D01*
X017345Y002703D01*
X017340Y002722D01*
X017338Y002742D01*
X017338Y002986D01*
X017340Y003006D01*
X017345Y003025D01*
X017354Y003043D01*
X017366Y003059D01*
X017381Y003072D01*
X017398Y003083D01*
X017416Y003090D01*
X017436Y003094D01*
X017456Y003094D01*
X017476Y003090D01*
X017494Y003083D01*
X017511Y003072D01*
X017526Y003059D01*
X017538Y003043D01*
X017547Y003025D01*
X017552Y003006D01*
X017554Y002986D01*
X020739Y002986D02*
X020739Y002742D01*
X020741Y002722D01*
X020746Y002703D01*
X020755Y002685D01*
X020767Y002669D01*
X020782Y002656D01*
X020799Y002645D01*
X020817Y002638D01*
X020837Y002634D01*
X020857Y002634D01*
X020877Y002638D01*
X020895Y002645D01*
X020912Y002656D01*
X020927Y002669D01*
X020939Y002685D01*
X020948Y002703D01*
X020953Y002722D01*
X020955Y002742D01*
X020956Y002742D02*
X020956Y002986D01*
X020955Y002986D02*
X020953Y003006D01*
X020948Y003025D01*
X020939Y003043D01*
X020927Y003059D01*
X020912Y003072D01*
X020895Y003083D01*
X020877Y003090D01*
X020857Y003094D01*
X020837Y003094D01*
X020817Y003090D01*
X020799Y003083D01*
X020782Y003072D01*
X020767Y003059D01*
X020755Y003043D01*
X020746Y003025D01*
X020741Y003006D01*
X020739Y002986D01*
X020739Y004238D02*
X020739Y004483D01*
X020741Y004503D01*
X020746Y004522D01*
X020755Y004540D01*
X020767Y004556D01*
X020782Y004569D01*
X020799Y004580D01*
X020817Y004587D01*
X020837Y004591D01*
X020857Y004591D01*
X020877Y004587D01*
X020895Y004580D01*
X020912Y004569D01*
X020927Y004556D01*
X020939Y004540D01*
X020948Y004522D01*
X020953Y004503D01*
X020955Y004483D01*
X020956Y004483D02*
X020956Y004238D01*
X020955Y004238D02*
X020953Y004218D01*
X020948Y004199D01*
X020939Y004181D01*
X020927Y004165D01*
X020912Y004152D01*
X020895Y004141D01*
X020877Y004134D01*
X020857Y004130D01*
X020837Y004130D01*
X020817Y004134D01*
X020799Y004141D01*
X020782Y004152D01*
X020767Y004165D01*
X020755Y004181D01*
X020746Y004199D01*
X020741Y004218D01*
X020739Y004238D01*
D21*
X020847Y004477D02*
X020847Y004477D01*
X020847Y004241D01*
X020847Y004241D01*
X020847Y004477D01*
X020847Y002980D02*
X020847Y002980D01*
X020847Y002744D01*
X020847Y002744D01*
X020847Y002980D01*
X017446Y002980D02*
X017446Y002980D01*
X017446Y002744D01*
X017446Y002744D01*
X017446Y002980D01*
X017446Y004477D02*
X017446Y004477D01*
X017446Y004241D01*
X017446Y004241D01*
X017446Y004477D01*
D22*
X014191Y004877D03*
X014191Y005237D03*
X014191Y005597D03*
X014191Y005957D03*
X013745Y005957D03*
X013745Y005597D03*
X013745Y005237D03*
X013745Y004877D03*
D23*
X015168Y004947D03*
X015168Y005547D03*
X015168Y006147D03*
D24*
X005334Y014918D03*
X005334Y015312D03*
D25*
X006378Y015924D03*
X006378Y014307D03*
D26*
X001321Y017463D03*
X001321Y001321D03*
X024156Y001321D03*
D27*
X016660Y005744D03*
X016660Y006184D03*
D28*
X022810Y004866D03*
X022810Y003966D03*
X022810Y003066D03*
D29*
X021725Y005319D03*
X014710Y008279D03*
D30*
X014040Y009846D03*
X015490Y009846D03*
D31*
X023229Y001042D02*
X023231Y001072D01*
X023237Y001101D01*
X023246Y001129D01*
X023259Y001155D01*
X023276Y001180D01*
X023295Y001203D01*
X023318Y001222D01*
X023342Y001239D01*
X023369Y001252D01*
X023397Y001261D01*
X023426Y001267D01*
X023456Y001269D01*
X023486Y001267D01*
X023515Y001261D01*
X023543Y001252D01*
X023569Y001239D01*
X023594Y001222D01*
X023617Y001203D01*
X023636Y001180D01*
X023653Y001156D01*
X023666Y001129D01*
X023675Y001101D01*
X023681Y001072D01*
X023683Y001042D01*
X023681Y001012D01*
X023675Y000983D01*
X023666Y000955D01*
X023653Y000929D01*
X023636Y000904D01*
X023617Y000881D01*
X023594Y000862D01*
X023570Y000845D01*
X023543Y000832D01*
X023515Y000823D01*
X023486Y000817D01*
X023456Y000815D01*
X023426Y000817D01*
X023397Y000823D01*
X023369Y000832D01*
X023343Y000845D01*
X023318Y000862D01*
X023295Y000881D01*
X023276Y000904D01*
X023259Y000928D01*
X023246Y000955D01*
X023237Y000983D01*
X023231Y001012D01*
X023229Y001042D01*
X000700Y016790D02*
X000702Y016820D01*
X000708Y016849D01*
X000717Y016877D01*
X000730Y016903D01*
X000747Y016928D01*
X000766Y016951D01*
X000789Y016970D01*
X000813Y016987D01*
X000840Y017000D01*
X000868Y017009D01*
X000897Y017015D01*
X000927Y017017D01*
X000957Y017015D01*
X000986Y017009D01*
X001014Y017000D01*
X001040Y016987D01*
X001065Y016970D01*
X001088Y016951D01*
X001107Y016928D01*
X001124Y016904D01*
X001137Y016877D01*
X001146Y016849D01*
X001152Y016820D01*
X001154Y016790D01*
X001152Y016760D01*
X001146Y016731D01*
X001137Y016703D01*
X001124Y016677D01*
X001107Y016652D01*
X001088Y016629D01*
X001065Y016610D01*
X001041Y016593D01*
X001014Y016580D01*
X000986Y016571D01*
X000957Y016565D01*
X000927Y016563D01*
X000897Y016565D01*
X000868Y016571D01*
X000840Y016580D01*
X000814Y016593D01*
X000789Y016610D01*
X000766Y016629D01*
X000747Y016652D01*
X000730Y016676D01*
X000717Y016703D01*
X000708Y016731D01*
X000702Y016760D01*
X000700Y016790D01*
D32*
X000799Y017242D02*
X000799Y017715D01*
X000803Y017730D01*
X000799Y017767D01*
X000799Y017805D01*
X000797Y017810D01*
X000796Y017819D01*
X000816Y017888D01*
X000861Y017944D01*
X000924Y017979D01*
X000952Y017985D01*
X024289Y017985D01*
X024303Y017981D01*
X024342Y017985D01*
X024381Y017985D01*
X024385Y017987D01*
X024413Y017987D01*
X024524Y017954D01*
X024613Y017882D01*
X024668Y017781D01*
X024678Y017732D01*
X024678Y001054D01*
X024668Y001004D01*
X024613Y000903D01*
X024524Y000830D01*
X024413Y000797D01*
X024384Y000797D01*
X024381Y000799D01*
X024341Y000799D01*
X024303Y000803D01*
X024289Y000799D01*
X023861Y000799D01*
X023923Y000949D01*
X023923Y001123D01*
X023983Y001063D01*
X024095Y001016D01*
X024216Y001016D01*
X024329Y001063D01*
X024414Y001148D01*
X024461Y001260D01*
X024461Y001382D01*
X024414Y001494D01*
X024329Y001580D01*
X024216Y001626D01*
X024095Y001626D01*
X023983Y001580D01*
X023897Y001494D01*
X023851Y001382D01*
X023851Y001307D01*
X023720Y001437D01*
X023549Y001509D01*
X023363Y001509D01*
X023191Y001437D01*
X023060Y001306D01*
X022989Y001134D01*
X022989Y000949D01*
X023051Y000799D01*
X000952Y000799D01*
X000924Y000805D01*
X000861Y000840D01*
X000816Y000897D01*
X000796Y000967D01*
X000796Y000976D01*
X000799Y000981D01*
X000799Y001018D01*
X000803Y001055D01*
X000799Y001071D01*
X000799Y016337D01*
X000835Y016323D01*
X001020Y016323D01*
X001192Y016394D01*
X001323Y016525D01*
X001394Y016697D01*
X001394Y016882D01*
X001323Y017054D01*
X001192Y017186D01*
X001020Y017257D01*
X000835Y017257D01*
X000799Y017242D01*
X000799Y017254D02*
X000829Y017254D01*
X000799Y017333D02*
X001045Y017333D01*
X001063Y017290D02*
X001148Y017204D01*
X001260Y017158D01*
X001382Y017158D01*
X001494Y017204D01*
X001580Y017290D01*
X001626Y017402D01*
X001626Y017524D01*
X001580Y017636D01*
X001494Y017721D01*
X001382Y017768D01*
X001260Y017768D01*
X001148Y017721D01*
X001063Y017636D01*
X001016Y017524D01*
X001016Y017402D01*
X001063Y017290D01*
X001098Y017254D02*
X001026Y017254D01*
X001016Y017411D02*
X000799Y017411D01*
X000799Y017490D02*
X001016Y017490D01*
X001035Y017568D02*
X000799Y017568D01*
X000799Y017647D02*
X001074Y017647D01*
X001158Y017725D02*
X000802Y017725D01*
X000799Y017804D02*
X024656Y017804D01*
X024678Y017725D02*
X001485Y017725D01*
X001569Y017647D02*
X024678Y017647D01*
X024678Y017568D02*
X007710Y017568D01*
X007703Y017572D02*
X007703Y017572D01*
X007567Y017571D01*
X006468Y017571D01*
X006463Y017569D01*
X005791Y017569D01*
X005786Y017571D01*
X002225Y017571D01*
X001926Y017447D01*
X001926Y017447D01*
X001696Y017217D01*
X001572Y016918D01*
X001572Y014984D01*
X001561Y014823D01*
X001670Y014500D01*
X001894Y014243D01*
X002200Y014092D01*
X002326Y014084D01*
X002335Y014080D01*
X002378Y014080D01*
X002422Y014077D01*
X002431Y014080D01*
X003578Y014080D01*
X003654Y014074D01*
X003798Y014027D01*
X003921Y013938D01*
X004010Y013815D01*
X004057Y013671D01*
X004063Y013595D01*
X004063Y011213D01*
X004141Y011023D01*
X004286Y010879D01*
X004286Y010879D01*
X004475Y010800D01*
X006456Y010800D01*
X006751Y010734D01*
X007349Y010505D01*
X007890Y010165D01*
X008356Y009726D01*
X008727Y009205D01*
X008991Y008622D01*
X009072Y008339D01*
X009072Y008322D01*
X009084Y008293D01*
X009091Y008263D01*
X009104Y008245D01*
X009113Y008225D01*
X009135Y008203D01*
X009153Y008177D01*
X009172Y008166D01*
X009187Y008150D01*
X009216Y008138D01*
X009242Y008122D01*
X009264Y008118D01*
X009285Y008110D01*
X009316Y008110D01*
X009346Y008105D01*
X009368Y008110D01*
X011479Y008110D01*
X011482Y008109D01*
X011482Y002146D01*
X011478Y002049D01*
X011550Y001859D01*
X011688Y001711D01*
X011873Y001627D01*
X011926Y001625D01*
X011931Y001623D01*
X011979Y001623D01*
X012027Y001621D01*
X012031Y001623D01*
X023412Y001623D01*
X023413Y001623D01*
X023465Y001623D01*
X023517Y001623D01*
X023518Y001623D01*
X023578Y001624D01*
X023783Y001711D01*
X023940Y001870D01*
X024024Y002076D01*
X024023Y002187D01*
X024023Y006375D01*
X024027Y006379D01*
X024027Y007337D01*
X024023Y007342D01*
X024023Y010913D01*
X024025Y011030D01*
X023937Y011252D01*
X023937Y011252D01*
X023771Y011424D01*
X023771Y011424D01*
X023551Y011519D01*
X023483Y011520D01*
X023481Y011521D01*
X023430Y011521D01*
X023379Y011522D01*
X023377Y011521D01*
X016988Y011521D01*
X016988Y011521D01*
X016030Y011521D01*
X016029Y011521D01*
X010798Y011521D01*
X010668Y011712D01*
X010161Y012255D01*
X009578Y012714D01*
X008931Y013078D01*
X008236Y013339D01*
X008236Y013339D01*
X008083Y013371D01*
X008083Y017009D01*
X008084Y017010D01*
X008083Y017061D01*
X008083Y017113D01*
X008083Y017114D01*
X008082Y017200D01*
X007943Y017437D01*
X007943Y017437D01*
X007943Y017437D01*
X007703Y017572D01*
X007849Y017490D02*
X024678Y017490D01*
X024678Y017411D02*
X007958Y017411D01*
X008004Y017333D02*
X024678Y017333D01*
X024678Y017254D02*
X008050Y017254D01*
X008082Y017200D02*
X008082Y017200D01*
X008082Y017176D02*
X024678Y017176D01*
X024678Y017097D02*
X008083Y017097D01*
X008084Y017019D02*
X024678Y017019D01*
X024678Y016940D02*
X008083Y016940D01*
X008083Y016862D02*
X024678Y016862D01*
X024678Y016783D02*
X008083Y016783D01*
X008083Y016705D02*
X024678Y016705D01*
X024678Y016626D02*
X008083Y016626D01*
X008083Y016548D02*
X024678Y016548D01*
X024678Y016469D02*
X008083Y016469D01*
X008083Y016391D02*
X024678Y016391D01*
X024678Y016312D02*
X008083Y016312D01*
X008083Y016234D02*
X024678Y016234D01*
X024678Y016155D02*
X008083Y016155D01*
X008083Y016077D02*
X024678Y016077D01*
X024678Y015998D02*
X008083Y015998D01*
X008083Y015920D02*
X024678Y015920D01*
X024678Y015841D02*
X008083Y015841D01*
X008083Y015763D02*
X024678Y015763D01*
X024678Y015684D02*
X008083Y015684D01*
X008083Y015606D02*
X024678Y015606D01*
X024678Y015527D02*
X008083Y015527D01*
X008083Y015449D02*
X024678Y015449D01*
X024678Y015370D02*
X008083Y015370D01*
X008083Y015292D02*
X024678Y015292D01*
X024678Y015213D02*
X008083Y015213D01*
X008083Y015135D02*
X024678Y015135D01*
X024678Y015056D02*
X008083Y015056D01*
X008083Y014978D02*
X024678Y014978D01*
X024678Y014899D02*
X008083Y014899D01*
X008083Y014821D02*
X024678Y014821D01*
X024678Y014742D02*
X008083Y014742D01*
X008083Y014664D02*
X024678Y014664D01*
X024678Y014585D02*
X008083Y014585D01*
X008083Y014507D02*
X024678Y014507D01*
X024678Y014428D02*
X008083Y014428D01*
X008083Y014350D02*
X024678Y014350D01*
X024678Y014271D02*
X008083Y014271D01*
X008083Y014193D02*
X024678Y014193D01*
X024678Y014114D02*
X008083Y014114D01*
X008083Y014036D02*
X024678Y014036D01*
X024678Y013957D02*
X008083Y013957D01*
X008083Y013879D02*
X024678Y013879D01*
X024678Y013800D02*
X008083Y013800D01*
X008083Y013722D02*
X024678Y013722D01*
X024678Y013643D02*
X008083Y013643D01*
X008083Y013565D02*
X024678Y013565D01*
X024678Y013486D02*
X008083Y013486D01*
X008083Y013408D02*
X024678Y013408D01*
X024678Y013329D02*
X008263Y013329D01*
X008472Y013251D02*
X024678Y013251D01*
X024678Y013172D02*
X008680Y013172D01*
X008889Y013094D02*
X024678Y013094D01*
X024678Y013015D02*
X009043Y013015D01*
X008931Y013078D02*
X008931Y013078D01*
X009182Y012937D02*
X024678Y012937D01*
X024678Y012858D02*
X009321Y012858D01*
X009461Y012780D02*
X024678Y012780D01*
X024678Y012701D02*
X009594Y012701D01*
X009693Y012623D02*
X024678Y012623D01*
X024678Y012544D02*
X009793Y012544D01*
X009893Y012466D02*
X024678Y012466D01*
X024678Y012387D02*
X009993Y012387D01*
X010093Y012309D02*
X024678Y012309D01*
X024678Y012230D02*
X010184Y012230D01*
X010161Y012255D02*
X010161Y012255D01*
X010257Y012152D02*
X024678Y012152D01*
X024678Y012073D02*
X010331Y012073D01*
X010404Y011995D02*
X024678Y011995D01*
X024678Y011916D02*
X010477Y011916D01*
X010550Y011838D02*
X024678Y011838D01*
X024678Y011759D02*
X010623Y011759D01*
X010689Y011681D02*
X024678Y011681D01*
X024678Y011602D02*
X010742Y011602D01*
X010796Y011524D02*
X024678Y011524D01*
X024678Y011445D02*
X023721Y011445D01*
X023826Y011367D02*
X024678Y011367D01*
X024678Y011288D02*
X023902Y011288D01*
X023954Y011210D02*
X024678Y011210D01*
X024678Y011131D02*
X023985Y011131D01*
X024016Y011053D02*
X024678Y011053D01*
X024678Y010974D02*
X024024Y010974D01*
X024025Y011030D02*
X024025Y011030D01*
X024023Y010896D02*
X024678Y010896D01*
X024678Y010817D02*
X024023Y010817D01*
X024023Y010739D02*
X024678Y010739D01*
X024678Y010660D02*
X024023Y010660D01*
X024023Y010582D02*
X024678Y010582D01*
X024678Y010503D02*
X024023Y010503D01*
X024023Y010425D02*
X024678Y010425D01*
X024678Y010346D02*
X024023Y010346D01*
X024023Y010268D02*
X024678Y010268D01*
X024678Y010189D02*
X024023Y010189D01*
X024023Y010111D02*
X024678Y010111D01*
X024678Y010032D02*
X024023Y010032D01*
X024023Y009954D02*
X024678Y009954D01*
X024678Y009875D02*
X024023Y009875D01*
X024023Y009797D02*
X024678Y009797D01*
X024678Y009718D02*
X024023Y009718D01*
X024023Y009640D02*
X024678Y009640D01*
X024678Y009561D02*
X024023Y009561D01*
X024023Y009483D02*
X024678Y009483D01*
X024678Y009404D02*
X024023Y009404D01*
X024023Y009326D02*
X024678Y009326D01*
X024678Y009247D02*
X024023Y009247D01*
X024023Y009169D02*
X024678Y009169D01*
X024678Y009090D02*
X024023Y009090D01*
X024023Y009012D02*
X024678Y009012D01*
X024678Y008933D02*
X024023Y008933D01*
X024023Y008855D02*
X024678Y008855D01*
X024678Y008776D02*
X024023Y008776D01*
X024023Y008698D02*
X024678Y008698D01*
X024678Y008619D02*
X024023Y008619D01*
X024023Y008541D02*
X024678Y008541D01*
X024678Y008462D02*
X024023Y008462D01*
X024023Y008384D02*
X024678Y008384D01*
X024678Y008305D02*
X024023Y008305D01*
X024023Y008227D02*
X024678Y008227D01*
X024678Y008148D02*
X024023Y008148D01*
X024023Y008070D02*
X024678Y008070D01*
X024678Y007991D02*
X024023Y007991D01*
X024023Y007913D02*
X024678Y007913D01*
X024678Y007834D02*
X024023Y007834D01*
X024023Y007756D02*
X024678Y007756D01*
X024678Y007677D02*
X024023Y007677D01*
X024023Y007599D02*
X024678Y007599D01*
X024678Y007520D02*
X024023Y007520D01*
X024023Y007442D02*
X024678Y007442D01*
X024678Y007363D02*
X024023Y007363D01*
X024027Y007285D02*
X024678Y007285D01*
X024678Y007206D02*
X024027Y007206D01*
X024027Y007128D02*
X024678Y007128D01*
X024678Y007049D02*
X024027Y007049D01*
X024027Y006971D02*
X024678Y006971D01*
X024678Y006892D02*
X024027Y006892D01*
X024027Y006814D02*
X024678Y006814D01*
X024678Y006735D02*
X024027Y006735D01*
X024027Y006657D02*
X024678Y006657D01*
X024678Y006578D02*
X024027Y006578D01*
X024027Y006500D02*
X024678Y006500D01*
X024678Y006421D02*
X024027Y006421D01*
X024023Y006343D02*
X024678Y006343D01*
X024678Y006264D02*
X024023Y006264D01*
X024023Y006186D02*
X024678Y006186D01*
X024678Y006107D02*
X024023Y006107D01*
X024023Y006029D02*
X024678Y006029D01*
X024678Y005950D02*
X024023Y005950D01*
X024023Y005872D02*
X024678Y005872D01*
X024678Y005793D02*
X024023Y005793D01*
X024023Y005715D02*
X024678Y005715D01*
X024678Y005636D02*
X024023Y005636D01*
X024023Y005558D02*
X024678Y005558D01*
X024678Y005479D02*
X024023Y005479D01*
X024023Y005401D02*
X024678Y005401D01*
X024678Y005322D02*
X024023Y005322D01*
X024023Y005244D02*
X024678Y005244D01*
X024678Y005165D02*
X024023Y005165D01*
X024023Y005087D02*
X024678Y005087D01*
X024678Y005008D02*
X024023Y005008D01*
X024023Y004930D02*
X024678Y004930D01*
X024678Y004851D02*
X024023Y004851D01*
X024023Y004773D02*
X024678Y004773D01*
X024678Y004694D02*
X024023Y004694D01*
X024023Y004616D02*
X024678Y004616D01*
X024678Y004537D02*
X024023Y004537D01*
X024023Y004459D02*
X024678Y004459D01*
X024678Y004380D02*
X024023Y004380D01*
X024023Y004302D02*
X024678Y004302D01*
X024678Y004223D02*
X024023Y004223D01*
X024023Y004145D02*
X024678Y004145D01*
X024678Y004066D02*
X024023Y004066D01*
X024023Y003988D02*
X024678Y003988D01*
X024678Y003909D02*
X024023Y003909D01*
X024023Y003831D02*
X024678Y003831D01*
X024678Y003752D02*
X024023Y003752D01*
X024023Y003674D02*
X024678Y003674D01*
X024678Y003595D02*
X024023Y003595D01*
X024023Y003517D02*
X024678Y003517D01*
X024678Y003438D02*
X024023Y003438D01*
X024023Y003360D02*
X024678Y003360D01*
X024678Y003281D02*
X024023Y003281D01*
X024023Y003203D02*
X024678Y003203D01*
X024678Y003124D02*
X024023Y003124D01*
X024023Y003046D02*
X024678Y003046D01*
X024678Y002967D02*
X024023Y002967D01*
X024023Y002889D02*
X024678Y002889D01*
X024678Y002810D02*
X024023Y002810D01*
X024023Y002732D02*
X024678Y002732D01*
X024678Y002653D02*
X024023Y002653D01*
X024023Y002575D02*
X024678Y002575D01*
X024678Y002496D02*
X024023Y002496D01*
X024023Y002418D02*
X024678Y002418D01*
X024678Y002339D02*
X024023Y002339D01*
X024023Y002261D02*
X024678Y002261D01*
X024678Y002182D02*
X024023Y002182D01*
X024023Y002104D02*
X024678Y002104D01*
X024678Y002025D02*
X024003Y002025D01*
X024024Y002076D02*
X024024Y002076D01*
X023971Y001947D02*
X024678Y001947D01*
X024678Y001868D02*
X023938Y001868D01*
X023940Y001870D02*
X023940Y001870D01*
X023861Y001790D02*
X024678Y001790D01*
X024678Y001711D02*
X023783Y001711D01*
X023783Y001711D01*
X023598Y001633D02*
X024678Y001633D01*
X024678Y001554D02*
X024354Y001554D01*
X024422Y001476D02*
X024678Y001476D01*
X024678Y001397D02*
X024454Y001397D01*
X024461Y001319D02*
X024678Y001319D01*
X024678Y001240D02*
X024452Y001240D01*
X024420Y001162D02*
X024678Y001162D01*
X024678Y001083D02*
X024349Y001083D01*
X024545Y000848D02*
X023881Y000848D01*
X023913Y000926D02*
X024626Y000926D01*
X024668Y001005D02*
X023923Y001005D01*
X023923Y001083D02*
X023962Y001083D01*
X023851Y001319D02*
X023839Y001319D01*
X023857Y001397D02*
X023761Y001397D01*
X023890Y001476D02*
X023628Y001476D01*
X023578Y001624D02*
X023578Y001624D01*
X023284Y001476D02*
X001587Y001476D01*
X001580Y001494D02*
X001494Y001580D01*
X001382Y001626D01*
X001260Y001626D01*
X001148Y001580D01*
X001063Y001494D01*
X001016Y001382D01*
X001016Y001260D01*
X001063Y001148D01*
X001148Y001063D01*
X001260Y001016D01*
X001382Y001016D01*
X001494Y001063D01*
X001580Y001148D01*
X001626Y001260D01*
X001626Y001382D01*
X001580Y001494D01*
X001519Y001554D02*
X023958Y001554D01*
X023151Y001397D02*
X001620Y001397D01*
X001626Y001319D02*
X023072Y001319D01*
X023033Y001240D02*
X001618Y001240D01*
X001585Y001162D02*
X023000Y001162D01*
X022989Y001083D02*
X001515Y001083D01*
X001128Y001083D02*
X000799Y001083D01*
X000799Y001005D02*
X022989Y001005D01*
X022998Y000926D02*
X000808Y000926D01*
X000855Y000848D02*
X023031Y000848D01*
X022055Y003044D02*
X021578Y003005D01*
X021566Y003006D01*
X021541Y003016D01*
X021522Y003033D01*
X021525Y003040D01*
X021507Y003103D01*
X021504Y003168D01*
X021480Y003191D01*
X021458Y003266D01*
X021400Y003335D01*
X021773Y003335D01*
X022026Y003588D01*
X022026Y003609D01*
X022074Y003657D01*
X022074Y004026D01*
X022007Y004094D01*
X022024Y004125D01*
X022034Y004160D01*
X022034Y004279D01*
X021805Y004279D01*
X021805Y004298D01*
X021786Y004298D01*
X021786Y004279D01*
X021557Y004279D01*
X021419Y004279D01*
X021419Y004298D01*
X021401Y004298D01*
X021401Y004539D01*
X021293Y004539D01*
X021258Y004529D01*
X021244Y004521D01*
X021244Y004556D01*
X021184Y004701D01*
X021072Y004813D01*
X020926Y004873D01*
X020769Y004873D01*
X020623Y004813D01*
X020515Y004705D01*
X020499Y004733D01*
X020473Y004759D01*
X020441Y004778D01*
X020405Y004787D01*
X020268Y004787D01*
X020268Y004450D01*
X020191Y004450D01*
X020191Y004787D01*
X020053Y004787D01*
X020044Y004785D01*
X020016Y004853D01*
X020117Y004895D01*
X020185Y004962D01*
X020819Y004962D01*
X020925Y005068D01*
X020925Y005457D01*
X020869Y005512D01*
X020925Y005568D01*
X020925Y005681D01*
X020934Y005703D01*
X020934Y005822D01*
X020925Y005844D01*
X020925Y005957D01*
X020869Y006012D01*
X020925Y006068D01*
X020925Y006181D01*
X020934Y006203D01*
X020934Y006322D01*
X020925Y006344D01*
X020925Y006457D01*
X020909Y006472D01*
X020914Y006472D01*
X021013Y006513D01*
X021013Y005760D01*
X021010Y005752D01*
X021013Y005707D01*
X021013Y005662D01*
X021016Y005655D01*
X021021Y005562D01*
X021098Y005403D01*
X021093Y005368D01*
X021093Y005359D01*
X021120Y005359D01*
X021141Y005315D01*
X021182Y005279D01*
X021093Y005279D01*
X021093Y005269D01*
X021109Y005171D01*
X021139Y005076D01*
X021184Y004987D01*
X021243Y004907D01*
X021313Y004836D01*
X021394Y004778D01*
X021482Y004733D01*
X021577Y004702D01*
X021675Y004686D01*
X021685Y004686D01*
X021685Y005047D01*
X021736Y005050D01*
X021765Y005050D01*
X021765Y004686D01*
X021775Y004686D01*
X021873Y004702D01*
X021968Y004733D01*
X022056Y004778D01*
X022137Y004836D01*
X022207Y004907D01*
X022266Y004987D01*
X022298Y005050D01*
X022415Y005050D01*
X022374Y004953D01*
X022374Y004876D01*
X022358Y004870D01*
X022273Y004785D01*
X022228Y004675D01*
X022228Y004556D01*
X022273Y004445D01*
X022358Y004361D01*
X022468Y004315D01*
X022543Y004315D01*
X022441Y004213D01*
X022374Y004053D01*
X022374Y003976D01*
X022358Y003970D01*
X022273Y003885D01*
X022228Y003775D01*
X022228Y003656D01*
X022273Y003545D01*
X022358Y003461D01*
X022468Y003415D01*
X022543Y003415D01*
X022441Y003313D01*
X022374Y003153D01*
X022374Y003090D01*
X022221Y003065D01*
X022055Y003044D01*
X022068Y003046D02*
X021524Y003046D01*
X021506Y003124D02*
X022374Y003124D01*
X022395Y003203D02*
X021477Y003203D01*
X021458Y003266D02*
X021458Y003266D01*
X021445Y003281D02*
X022427Y003281D01*
X022487Y003360D02*
X021798Y003360D01*
X021876Y003438D02*
X022413Y003438D01*
X022302Y003517D02*
X021955Y003517D01*
X022026Y003595D02*
X022253Y003595D01*
X022228Y003674D02*
X022074Y003674D01*
X022074Y003752D02*
X022228Y003752D01*
X022251Y003831D02*
X022074Y003831D01*
X022074Y003909D02*
X022298Y003909D01*
X022374Y003988D02*
X022074Y003988D01*
X022034Y004066D02*
X022380Y004066D01*
X022412Y004145D02*
X022030Y004145D01*
X022034Y004223D02*
X022451Y004223D01*
X022529Y004302D02*
X022034Y004302D01*
X022034Y004298D02*
X022034Y004417D01*
X022024Y004453D01*
X022006Y004485D01*
X021980Y004511D01*
X021948Y004529D01*
X021912Y004539D01*
X021805Y004539D01*
X021805Y004298D01*
X022034Y004298D01*
X022034Y004380D02*
X022339Y004380D01*
X022268Y004459D02*
X022021Y004459D01*
X021917Y004537D02*
X022235Y004537D01*
X022228Y004616D02*
X021219Y004616D01*
X021244Y004537D02*
X021288Y004537D01*
X021401Y004537D02*
X021419Y004537D01*
X021419Y004539D02*
X021419Y004298D01*
X021786Y004298D01*
X021786Y004539D01*
X021679Y004539D01*
X021643Y004529D01*
X021611Y004511D01*
X021603Y004502D01*
X021595Y004511D01*
X021563Y004529D01*
X021527Y004539D01*
X021419Y004539D01*
X021419Y004459D02*
X021401Y004459D01*
X021401Y004380D02*
X021419Y004380D01*
X021419Y004302D02*
X021401Y004302D01*
X021786Y004302D02*
X021805Y004302D01*
X021805Y004380D02*
X021786Y004380D01*
X021786Y004459D02*
X021805Y004459D01*
X021805Y004537D02*
X021786Y004537D01*
X021674Y004537D02*
X021532Y004537D01*
X021627Y004694D02*
X021186Y004694D01*
X021112Y004773D02*
X021404Y004773D01*
X021299Y004851D02*
X020979Y004851D01*
X020865Y005008D02*
X021174Y005008D01*
X021136Y005087D02*
X020925Y005087D01*
X020925Y005165D02*
X021110Y005165D01*
X021097Y005244D02*
X020925Y005244D01*
X020925Y005322D02*
X021138Y005322D01*
X021141Y005315D02*
X021141Y005315D01*
X021098Y005401D02*
X020925Y005401D01*
X020903Y005479D02*
X021062Y005479D01*
X021024Y005558D02*
X020915Y005558D01*
X020925Y005636D02*
X021017Y005636D01*
X021021Y005562D02*
X021021Y005562D01*
X021012Y005715D02*
X020934Y005715D01*
X020934Y005793D02*
X021013Y005793D01*
X021013Y005872D02*
X020925Y005872D01*
X020925Y005950D02*
X021013Y005950D01*
X021013Y006029D02*
X020886Y006029D01*
X020925Y006107D02*
X021013Y006107D01*
X021013Y006186D02*
X020927Y006186D01*
X020934Y006264D02*
X021013Y006264D01*
X021013Y006343D02*
X020925Y006343D01*
X020925Y006421D02*
X021013Y006421D01*
X021013Y006500D02*
X020980Y006500D01*
X020744Y007062D02*
X019320Y007062D01*
X019208Y007109D01*
X019059Y007109D01*
X018921Y007052D01*
X018816Y006946D01*
X018765Y006823D01*
X018765Y006901D01*
X018755Y006937D01*
X018737Y006968D01*
X018711Y006995D01*
X018679Y007013D01*
X018643Y007022D01*
X018240Y007022D01*
X018240Y006782D01*
X018200Y006782D01*
X018200Y006742D01*
X017675Y006742D01*
X017675Y006624D01*
X017684Y006588D01*
X017703Y006557D01*
X017718Y006541D01*
X017670Y006492D01*
X017639Y006492D01*
X017639Y006590D01*
X017571Y006657D01*
X017589Y006688D01*
X017599Y006724D01*
X017599Y006843D01*
X017369Y006843D01*
X017369Y006861D01*
X017351Y006861D01*
X017351Y006843D01*
X017122Y006843D01*
X017122Y006724D01*
X017131Y006688D01*
X017149Y006657D01*
X017082Y006590D01*
X017082Y006221D01*
X017187Y006115D01*
X017274Y006115D01*
X017312Y006057D01*
X017338Y006052D01*
X017358Y006032D01*
X017429Y006032D01*
X017498Y006018D01*
X017521Y006032D01*
X017670Y006032D01*
X017718Y005984D01*
X017703Y005968D01*
X017684Y005937D01*
X017675Y005901D01*
X017675Y005782D01*
X018200Y005782D01*
X018200Y005742D01*
X017675Y005742D01*
X017675Y005624D01*
X017684Y005588D01*
X017703Y005557D01*
X017718Y005541D01*
X017635Y005457D01*
X017635Y005068D01*
X017740Y004962D01*
X018248Y004962D01*
X018248Y004785D01*
X018240Y004787D01*
X018103Y004787D01*
X018103Y004450D01*
X018025Y004450D01*
X018025Y004787D01*
X017888Y004787D01*
X017852Y004778D01*
X017820Y004759D01*
X017794Y004733D01*
X017778Y004705D01*
X017670Y004813D01*
X017575Y004852D01*
X017584Y004874D01*
X017584Y004993D01*
X017538Y005104D01*
X017533Y005109D01*
X017538Y005114D01*
X017584Y005224D01*
X017584Y005343D01*
X017538Y005454D01*
X017454Y005538D01*
X017343Y005584D01*
X017236Y005584D01*
X017278Y005684D01*
X017278Y005804D01*
X017232Y005914D01*
X017148Y005998D01*
X017037Y006044D01*
X016939Y006044D01*
X016939Y006354D01*
X016960Y006406D01*
X016960Y006525D01*
X016914Y006635D01*
X016830Y006720D01*
X016720Y006765D01*
X016600Y006765D01*
X016579Y006756D01*
X016579Y006835D01*
X016581Y006841D01*
X016579Y006887D01*
X016579Y006933D01*
X016576Y006940D01*
X016573Y007004D01*
X016488Y007184D01*
X017443Y007184D01*
X017542Y007225D01*
X017542Y007222D01*
X017648Y007116D01*
X018269Y007116D01*
X018273Y007120D01*
X018587Y007120D01*
X018813Y007214D01*
X018985Y007386D01*
X018985Y007386D01*
X018985Y007386D01*
X019079Y007612D01*
X019079Y008306D01*
X019339Y008306D01*
X019339Y007685D01*
X019339Y007612D01*
X019339Y007612D01*
X019432Y007386D01*
X019605Y007214D01*
X019830Y007120D01*
X019947Y007120D01*
X019951Y007116D01*
X020572Y007116D01*
X020678Y007222D01*
X020678Y007509D01*
X020638Y007549D01*
X020638Y007621D01*
X020262Y007621D01*
X020262Y007621D01*
X020638Y007621D01*
X020638Y007708D01*
X020628Y007744D01*
X020625Y007749D01*
X020628Y007754D01*
X020638Y007790D01*
X020638Y007877D01*
X020262Y007877D01*
X020262Y007877D01*
X020638Y007877D01*
X020638Y007949D01*
X020678Y007989D01*
X020678Y008276D01*
X020572Y008382D01*
X019951Y008382D01*
X019845Y008276D01*
X019845Y007989D01*
X019885Y007949D01*
X019885Y007877D01*
X019885Y007790D01*
X019895Y007754D01*
X019898Y007749D01*
X019895Y007744D01*
X019885Y007708D01*
X019885Y007630D01*
X019884Y007631D01*
X019850Y007665D01*
X019831Y007710D01*
X019829Y007734D01*
X019829Y008367D01*
X019872Y008411D01*
X019872Y008831D01*
X019882Y008814D01*
X019908Y008788D01*
X019940Y008770D01*
X019976Y008760D01*
X020084Y008760D01*
X020084Y009001D01*
X020102Y009001D01*
X020102Y008760D01*
X020210Y008760D01*
X020245Y008770D01*
X020277Y008788D01*
X020296Y008807D01*
X020302Y008781D01*
X020321Y008749D01*
X020347Y008723D01*
X020379Y008705D01*
X020414Y008695D01*
X020588Y008695D01*
X020588Y008938D01*
X020633Y008938D01*
X020633Y008695D01*
X020744Y008695D01*
X020744Y007062D01*
X020744Y007128D02*
X020584Y007128D01*
X020662Y007206D02*
X020744Y007206D01*
X020744Y007285D02*
X020678Y007285D01*
X020678Y007363D02*
X020744Y007363D01*
X020744Y007442D02*
X020678Y007442D01*
X020666Y007520D02*
X020744Y007520D01*
X020744Y007599D02*
X020638Y007599D01*
X020638Y007677D02*
X020744Y007677D01*
X020744Y007756D02*
X020629Y007756D01*
X020638Y007834D02*
X020744Y007834D01*
X020744Y007913D02*
X020638Y007913D01*
X020678Y007991D02*
X020744Y007991D01*
X020744Y008070D02*
X020678Y008070D01*
X020678Y008148D02*
X020744Y008148D01*
X020744Y008227D02*
X020678Y008227D01*
X020649Y008305D02*
X020744Y008305D01*
X020744Y008384D02*
X019845Y008384D01*
X019829Y008305D02*
X019874Y008305D01*
X019845Y008227D02*
X019829Y008227D01*
X019829Y008148D02*
X019845Y008148D01*
X019845Y008070D02*
X019829Y008070D01*
X019829Y007991D02*
X019845Y007991D01*
X019829Y007913D02*
X019885Y007913D01*
X019885Y007877D02*
X020262Y007877D01*
X020262Y007668D01*
X020262Y007621D01*
X020262Y007621D01*
X020262Y007877D01*
X020262Y007877D01*
X019885Y007877D01*
X019885Y007834D02*
X019829Y007834D01*
X019829Y007756D02*
X019895Y007756D01*
X019885Y007677D02*
X019844Y007677D01*
X019377Y007520D02*
X019041Y007520D01*
X019008Y007442D02*
X019409Y007442D01*
X019432Y007386D02*
X019432Y007386D01*
X019455Y007363D02*
X018962Y007363D01*
X018884Y007285D02*
X019534Y007285D01*
X019605Y007214D02*
X019605Y007214D01*
X019623Y007206D02*
X018795Y007206D01*
X018919Y007049D02*
X017569Y007049D01*
X017571Y007048D02*
X017545Y007074D01*
X017513Y007092D01*
X017477Y007102D01*
X017369Y007102D01*
X017369Y006861D01*
X017599Y006861D01*
X017599Y006980D01*
X017589Y007016D01*
X017571Y007048D01*
X017599Y006971D02*
X017705Y006971D01*
X017703Y006968D02*
X017684Y006937D01*
X017675Y006901D01*
X017675Y006782D01*
X018200Y006782D01*
X018200Y007022D01*
X017796Y007022D01*
X017761Y007013D01*
X017729Y006995D01*
X017703Y006968D01*
X017675Y006892D02*
X017599Y006892D01*
X017599Y006814D02*
X017675Y006814D01*
X017675Y006735D02*
X017599Y006735D01*
X017572Y006657D02*
X017675Y006657D01*
X017690Y006578D02*
X017639Y006578D01*
X017639Y006500D02*
X017677Y006500D01*
X017674Y006029D02*
X017515Y006029D01*
X017446Y006029D02*
X017074Y006029D01*
X017196Y005950D02*
X017692Y005950D01*
X017675Y005872D02*
X017250Y005872D01*
X017278Y005793D02*
X017675Y005793D01*
X017675Y005715D02*
X017278Y005715D01*
X017258Y005636D02*
X017675Y005636D01*
X017702Y005558D02*
X017406Y005558D01*
X017512Y005479D02*
X017657Y005479D01*
X017635Y005401D02*
X017560Y005401D01*
X017584Y005322D02*
X017635Y005322D01*
X017635Y005244D02*
X017584Y005244D01*
X017559Y005165D02*
X017635Y005165D01*
X017635Y005087D02*
X017545Y005087D01*
X017578Y005008D02*
X017694Y005008D01*
X017584Y004930D02*
X018248Y004930D01*
X018248Y004851D02*
X017578Y004851D01*
X017711Y004773D02*
X017844Y004773D01*
X018025Y004773D02*
X018103Y004773D01*
X018103Y004694D02*
X018025Y004694D01*
X018025Y004616D02*
X018103Y004616D01*
X018103Y004537D02*
X018025Y004537D01*
X018025Y004459D02*
X018103Y004459D01*
X018103Y004372D02*
X018103Y004035D01*
X018240Y004035D01*
X018268Y004043D01*
X018316Y003995D01*
X018723Y003995D01*
X018854Y003863D01*
X019333Y003385D01*
X020325Y003385D01*
X020273Y003336D01*
X020234Y003247D01*
X020198Y003210D01*
X020198Y003163D01*
X020179Y003119D01*
X020187Y003098D01*
X020182Y003096D01*
X020181Y003095D01*
X020173Y003095D01*
X020083Y003095D01*
X020079Y003092D01*
X018208Y003020D01*
X018208Y003050D01*
X018104Y003300D01*
X018104Y003300D01*
X017913Y003492D01*
X017663Y003595D01*
X017395Y003595D01*
X017428Y003676D01*
X017428Y003795D01*
X017407Y003844D01*
X017525Y003844D01*
X017670Y003904D01*
X017782Y004016D01*
X017807Y004076D01*
X017820Y004063D01*
X017852Y004044D01*
X017888Y004035D01*
X018025Y004035D01*
X018025Y004372D01*
X018103Y004372D01*
X018103Y004302D02*
X018025Y004302D01*
X018025Y004223D02*
X018103Y004223D01*
X018103Y004145D02*
X018025Y004145D01*
X018025Y004066D02*
X018103Y004066D01*
X017817Y004066D02*
X017803Y004066D01*
X017754Y003988D02*
X018730Y003988D01*
X018809Y003909D02*
X017675Y003909D01*
X017413Y003831D02*
X018887Y003831D01*
X018966Y003752D02*
X017428Y003752D01*
X017427Y003674D02*
X019044Y003674D01*
X019123Y003595D02*
X017395Y003595D01*
X017853Y003517D02*
X019201Y003517D01*
X019280Y003438D02*
X017966Y003438D01*
X017913Y003492D02*
X017913Y003492D01*
X017913Y003492D01*
X018045Y003360D02*
X020298Y003360D01*
X020273Y003336D02*
X020273Y003336D01*
X020249Y003281D02*
X018112Y003281D01*
X018145Y003203D02*
X020198Y003203D01*
X020181Y003124D02*
X018177Y003124D01*
X018208Y003046D02*
X018887Y003046D01*
X020191Y004459D02*
X020268Y004459D01*
X020268Y004537D02*
X020191Y004537D01*
X020191Y004616D02*
X020268Y004616D01*
X020268Y004694D02*
X020191Y004694D01*
X020191Y004773D02*
X020268Y004773D01*
X020450Y004773D02*
X020583Y004773D01*
X020715Y004851D02*
X020016Y004851D01*
X020152Y004930D02*
X021226Y004930D01*
X021685Y004930D02*
X021765Y004930D01*
X021765Y005008D02*
X021685Y005008D01*
X021685Y004851D02*
X021765Y004851D01*
X021765Y004773D02*
X021685Y004773D01*
X021685Y004694D02*
X021765Y004694D01*
X021824Y004694D02*
X022236Y004694D01*
X022268Y004773D02*
X022046Y004773D01*
X022152Y004851D02*
X022340Y004851D01*
X022374Y004930D02*
X022224Y004930D01*
X022276Y005008D02*
X022397Y005008D01*
X019812Y007128D02*
X018605Y007128D01*
X018735Y006971D02*
X018840Y006971D01*
X018793Y006892D02*
X018765Y006892D01*
X018240Y006892D02*
X018200Y006892D01*
X018200Y006814D02*
X018240Y006814D01*
X018240Y006971D02*
X018200Y006971D01*
X017636Y007128D02*
X016514Y007128D01*
X016551Y007049D02*
X017151Y007049D01*
X017150Y007048D02*
X017131Y007016D01*
X017122Y006980D01*
X017122Y006861D01*
X017351Y006861D01*
X017351Y007102D01*
X017243Y007102D01*
X017208Y007092D01*
X017176Y007074D01*
X017150Y007048D01*
X017122Y006971D02*
X016574Y006971D01*
X016573Y007004D02*
X016573Y007004D01*
X016579Y006892D02*
X017122Y006892D01*
X017122Y006814D02*
X016579Y006814D01*
X016792Y006735D02*
X017122Y006735D01*
X017148Y006657D02*
X016893Y006657D01*
X016938Y006578D02*
X017082Y006578D01*
X017082Y006500D02*
X016960Y006500D01*
X016960Y006421D02*
X017082Y006421D01*
X017082Y006343D02*
X016939Y006343D01*
X016939Y006264D02*
X017082Y006264D01*
X017117Y006186D02*
X016939Y006186D01*
X016939Y006107D02*
X017279Y006107D01*
X016660Y005744D02*
X016598Y005806D01*
X016194Y005806D01*
X016302Y005564D02*
X016384Y005485D01*
X016909Y005485D01*
X016978Y005415D01*
X016748Y005165D02*
X016598Y005317D01*
X015399Y005317D01*
X015168Y005547D01*
X015168Y006025D02*
X015678Y005564D01*
X016302Y005564D01*
X016628Y005765D02*
X016649Y005744D01*
X016660Y005744D01*
X017351Y006892D02*
X017369Y006892D01*
X017369Y006971D02*
X017351Y006971D01*
X017351Y007049D02*
X017369Y007049D01*
X017498Y007206D02*
X017558Y007206D01*
X017259Y007784D02*
X015983Y007784D01*
X015973Y007787D01*
X015924Y007784D01*
X015898Y007784D01*
X015871Y007793D01*
X015849Y007812D01*
X015835Y007839D01*
X015834Y007850D01*
X015834Y008889D01*
X015715Y009176D01*
X015715Y009176D01*
X015520Y009371D01*
X015584Y009371D01*
X015759Y009443D01*
X015862Y009546D01*
X016003Y009546D01*
X016035Y009532D01*
X016185Y009532D01*
X016322Y009589D01*
X016428Y009695D01*
X016485Y009833D01*
X016485Y009982D01*
X016479Y009996D01*
X016849Y009996D01*
X016855Y009994D01*
X018548Y009994D01*
X018548Y009922D01*
X018314Y009688D01*
X018314Y009688D01*
X018239Y009613D01*
X018191Y009662D01*
X017725Y009662D01*
X017680Y009770D01*
X017590Y009860D01*
X017472Y009909D01*
X017345Y009909D01*
X017228Y009860D01*
X017191Y009823D01*
X017186Y009839D01*
X017168Y009871D01*
X017142Y009897D01*
X017110Y009916D01*
X017074Y009925D01*
X016879Y009925D01*
X016879Y009628D01*
X016799Y009628D01*
X016799Y009548D01*
X016483Y009548D01*
X016483Y009373D01*
X016492Y009337D01*
X016511Y009306D01*
X016537Y009279D01*
X016569Y009261D01*
X016588Y009256D01*
X016548Y009256D01*
X016443Y009150D01*
X016443Y008608D01*
X016548Y008502D01*
X016548Y008502D01*
X016519Y008432D01*
X016519Y008304D01*
X016568Y008187D01*
X016658Y008097D01*
X016776Y008048D01*
X016903Y008048D01*
X017021Y008097D01*
X017111Y008187D01*
X017159Y008304D01*
X017159Y008432D01*
X017130Y008502D01*
X017130Y008502D01*
X017148Y008520D01*
X017196Y008520D01*
X017236Y008480D01*
X017582Y008480D01*
X017647Y008545D01*
X017687Y008505D01*
X018184Y008505D01*
X018184Y008382D01*
X017648Y008382D01*
X017542Y008276D01*
X017542Y008029D01*
X017479Y008003D01*
X017259Y007784D01*
X017310Y007834D02*
X015838Y007834D01*
X015834Y007913D02*
X017388Y007913D01*
X017467Y007991D02*
X015834Y007991D01*
X015834Y008070D02*
X016724Y008070D01*
X016607Y008148D02*
X015834Y008148D01*
X015834Y008227D02*
X016551Y008227D01*
X016519Y008305D02*
X015834Y008305D01*
X015834Y008384D02*
X016519Y008384D01*
X016532Y008462D02*
X015834Y008462D01*
X015834Y008541D02*
X016510Y008541D01*
X016443Y008619D02*
X015834Y008619D01*
X015834Y008698D02*
X016443Y008698D01*
X016443Y008776D02*
X015834Y008776D01*
X015834Y008855D02*
X016443Y008855D01*
X016443Y008933D02*
X015815Y008933D01*
X015783Y009012D02*
X016443Y009012D01*
X016443Y009090D02*
X015750Y009090D01*
X015718Y009169D02*
X016461Y009169D01*
X016539Y009247D02*
X015644Y009247D01*
X015565Y009326D02*
X016499Y009326D01*
X016483Y009404D02*
X015665Y009404D01*
X015799Y009483D02*
X016483Y009483D01*
X016483Y009628D02*
X016799Y009628D01*
X016799Y009925D01*
X016604Y009925D01*
X016569Y009916D01*
X016537Y009897D01*
X016511Y009871D01*
X016492Y009839D01*
X016483Y009804D01*
X016483Y009628D01*
X016483Y009640D02*
X016373Y009640D01*
X016438Y009718D02*
X016483Y009718D01*
X016483Y009797D02*
X016470Y009797D01*
X016485Y009875D02*
X016515Y009875D01*
X016485Y009954D02*
X018548Y009954D01*
X018501Y009875D02*
X017553Y009875D01*
X017653Y009797D02*
X018422Y009797D01*
X018344Y009718D02*
X017702Y009718D01*
X017264Y009875D02*
X017164Y009875D01*
X016879Y009875D02*
X016799Y009875D01*
X016799Y009797D02*
X016879Y009797D01*
X016879Y009718D02*
X016799Y009718D01*
X016799Y009640D02*
X016879Y009640D01*
X016799Y009561D02*
X016254Y009561D01*
X015148Y009515D02*
X014324Y009515D01*
X014372Y009562D01*
X014412Y009618D01*
X014443Y009679D01*
X014464Y009744D01*
X014474Y009806D01*
X014080Y009806D01*
X014080Y009886D01*
X014474Y009886D01*
X014464Y009948D01*
X014449Y009994D01*
X015036Y009994D01*
X015014Y009940D01*
X015014Y009751D01*
X015087Y009577D01*
X015148Y009515D01*
X015102Y009561D02*
X014371Y009561D01*
X014423Y009640D02*
X015061Y009640D01*
X015028Y009718D02*
X014456Y009718D01*
X014473Y009797D02*
X015014Y009797D01*
X015014Y009875D02*
X014080Y009875D01*
X014000Y009875D02*
X010186Y009875D01*
X010168Y009921D02*
X009777Y010553D01*
X009282Y011106D01*
X008698Y011566D01*
X008044Y011916D01*
X008193Y011916D01*
X008234Y011900D02*
X008872Y011516D01*
X009433Y011028D01*
X009901Y010449D01*
X010090Y010140D01*
X010103Y010109D01*
X010114Y010098D01*
X010121Y010085D01*
X010151Y010061D01*
X010178Y010034D01*
X010192Y010028D01*
X010204Y010019D01*
X010240Y010008D01*
X010275Y009994D01*
X010290Y009994D01*
X010305Y009990D01*
X010343Y009994D01*
X013630Y009994D01*
X013615Y009948D01*
X013605Y009886D01*
X014000Y009886D01*
X014000Y009806D01*
X013605Y009806D01*
X013615Y009744D01*
X013636Y009679D01*
X013667Y009618D01*
X013708Y009562D01*
X013755Y009515D01*
X010331Y009515D01*
X010328Y009523D01*
X010328Y009525D01*
X010306Y009578D01*
X010284Y009632D01*
X010283Y009633D01*
X010168Y009921D01*
X010148Y009954D02*
X013617Y009954D01*
X013607Y009797D02*
X010218Y009797D01*
X010249Y009718D02*
X013623Y009718D01*
X013656Y009640D02*
X010280Y009640D01*
X010313Y009561D02*
X013709Y009561D01*
X014462Y009954D02*
X015020Y009954D01*
X017147Y008462D02*
X018184Y008462D01*
X018184Y008384D02*
X017159Y008384D01*
X017159Y008305D02*
X017571Y008305D01*
X017542Y008227D02*
X017127Y008227D01*
X017072Y008148D02*
X017542Y008148D01*
X017542Y008070D02*
X016955Y008070D01*
X017642Y008541D02*
X017652Y008541D01*
X019079Y008305D02*
X019339Y008305D01*
X019339Y008227D02*
X019079Y008227D01*
X019079Y008148D02*
X019339Y008148D01*
X019339Y008070D02*
X019079Y008070D01*
X019079Y007991D02*
X019339Y007991D01*
X019339Y007913D02*
X019079Y007913D01*
X019079Y007834D02*
X019339Y007834D01*
X019339Y007756D02*
X019079Y007756D01*
X019079Y007677D02*
X019339Y007677D01*
X019344Y007599D02*
X019073Y007599D01*
X019872Y008462D02*
X020744Y008462D01*
X020744Y008541D02*
X019872Y008541D01*
X019872Y008619D02*
X020744Y008619D01*
X020633Y008698D02*
X020588Y008698D01*
X020588Y008776D02*
X020633Y008776D01*
X020633Y008855D02*
X020588Y008855D01*
X020588Y008933D02*
X020633Y008933D01*
X020406Y008698D02*
X019872Y008698D01*
X019872Y008776D02*
X019929Y008776D01*
X020084Y008776D02*
X020102Y008776D01*
X020102Y008855D02*
X020084Y008855D01*
X020084Y008933D02*
X020102Y008933D01*
X020256Y008776D02*
X020305Y008776D01*
X020262Y007877D02*
X020262Y007877D01*
X020262Y007834D02*
X020262Y007834D01*
X020262Y007756D02*
X020262Y007756D01*
X020262Y007677D02*
X020262Y007677D01*
X018265Y009640D02*
X018213Y009640D01*
X023551Y011519D02*
X023551Y011519D01*
X024613Y017882D02*
X000815Y017882D01*
X000891Y017961D02*
X024502Y017961D01*
X011482Y008070D02*
X006401Y008070D01*
X006401Y008148D02*
X009191Y008148D01*
X009112Y008227D02*
X006401Y008227D01*
X006401Y008305D02*
X009079Y008305D01*
X009059Y008384D02*
X006401Y008384D01*
X006401Y008462D02*
X009037Y008462D01*
X009014Y008541D02*
X006401Y008541D01*
X006401Y008619D02*
X008992Y008619D01*
X008957Y008698D02*
X006350Y008698D01*
X006401Y008646D02*
X006296Y008751D01*
X004547Y008751D01*
X004441Y008646D01*
X004441Y008127D01*
X004380Y008276D01*
X004217Y008343D01*
X004054Y008276D01*
X003987Y008113D01*
X004054Y007950D01*
X004217Y007883D01*
X004380Y007950D01*
X004441Y008099D01*
X004441Y006997D01*
X004547Y006891D01*
X006296Y006891D01*
X006401Y006997D01*
X006401Y008646D01*
X006401Y007991D02*
X011482Y007991D01*
X011482Y007913D02*
X006401Y007913D01*
X006401Y007834D02*
X011482Y007834D01*
X011482Y007756D02*
X006401Y007756D01*
X006401Y007677D02*
X011482Y007677D01*
X011482Y007599D02*
X006401Y007599D01*
X006401Y007520D02*
X011482Y007520D01*
X011482Y007442D02*
X006401Y007442D01*
X006401Y007363D02*
X011482Y007363D01*
X011482Y007285D02*
X006401Y007285D01*
X006401Y007206D02*
X011482Y007206D01*
X011482Y007128D02*
X006401Y007128D01*
X006401Y007049D02*
X011482Y007049D01*
X011482Y006971D02*
X006375Y006971D01*
X006297Y006892D02*
X011482Y006892D01*
X011482Y006814D02*
X000799Y006814D01*
X000799Y006892D02*
X004546Y006892D01*
X004468Y006971D02*
X000799Y006971D01*
X000799Y007049D02*
X004441Y007049D01*
X004441Y007128D02*
X000799Y007128D01*
X000799Y007206D02*
X004441Y007206D01*
X004441Y007285D02*
X000799Y007285D01*
X000799Y007363D02*
X004441Y007363D01*
X004441Y007442D02*
X000799Y007442D01*
X000799Y007520D02*
X004441Y007520D01*
X004441Y007599D02*
X000799Y007599D01*
X000799Y007677D02*
X004441Y007677D01*
X004441Y007756D02*
X000799Y007756D01*
X000799Y007834D02*
X004441Y007834D01*
X004441Y007913D02*
X004289Y007913D01*
X004397Y007991D02*
X004441Y007991D01*
X004429Y008070D02*
X004441Y008070D01*
X004433Y008148D02*
X004441Y008148D01*
X004441Y008227D02*
X004400Y008227D01*
X004441Y008305D02*
X004308Y008305D01*
X004441Y008384D02*
X000799Y008384D01*
X000799Y008462D02*
X004441Y008462D01*
X004441Y008541D02*
X000799Y008541D01*
X000799Y008619D02*
X004441Y008619D01*
X004493Y008698D02*
X000799Y008698D01*
X000799Y008776D02*
X008921Y008776D01*
X008886Y008855D02*
X000799Y008855D01*
X000799Y008933D02*
X008850Y008933D01*
X008815Y009012D02*
X000799Y009012D01*
X000799Y009090D02*
X008779Y009090D01*
X008744Y009169D02*
X000799Y009169D01*
X000799Y009247D02*
X008697Y009247D01*
X008641Y009326D02*
X000799Y009326D01*
X000799Y009404D02*
X008585Y009404D01*
X008529Y009483D02*
X000799Y009483D01*
X000799Y009561D02*
X008473Y009561D01*
X008417Y009640D02*
X000799Y009640D01*
X000799Y009718D02*
X008361Y009718D01*
X008356Y009726D02*
X008356Y009726D01*
X008280Y009797D02*
X000799Y009797D01*
X000799Y009875D02*
X008197Y009875D01*
X008114Y009954D02*
X000799Y009954D01*
X000799Y010032D02*
X008031Y010032D01*
X007947Y010111D02*
X000799Y010111D01*
X000799Y010189D02*
X007851Y010189D01*
X007726Y010268D02*
X000799Y010268D01*
X000799Y010346D02*
X007601Y010346D01*
X007476Y010425D02*
X000799Y010425D01*
X000799Y010503D02*
X007352Y010503D01*
X007149Y010582D02*
X000799Y010582D01*
X000799Y010660D02*
X006944Y010660D01*
X006731Y010739D02*
X000799Y010739D01*
X000799Y010817D02*
X004434Y010817D01*
X004269Y010896D02*
X000799Y010896D01*
X000799Y010974D02*
X004190Y010974D01*
X004141Y011023D02*
X004141Y011023D01*
X004129Y011053D02*
X000799Y011053D01*
X000799Y011131D02*
X004097Y011131D01*
X004064Y011210D02*
X000799Y011210D01*
X000799Y011288D02*
X004063Y011288D01*
X004063Y011367D02*
X000799Y011367D01*
X000799Y011445D02*
X004063Y011445D01*
X004063Y011524D02*
X000799Y011524D01*
X000799Y011602D02*
X004063Y011602D01*
X004063Y011681D02*
X000799Y011681D01*
X000799Y011759D02*
X004063Y011759D01*
X004063Y011838D02*
X000799Y011838D01*
X000799Y011916D02*
X004063Y011916D01*
X004063Y011995D02*
X000799Y011995D01*
X000799Y012073D02*
X004063Y012073D01*
X004063Y012152D02*
X000799Y012152D01*
X000799Y012230D02*
X004063Y012230D01*
X004063Y012309D02*
X000799Y012309D01*
X000799Y012387D02*
X004063Y012387D01*
X004063Y012466D02*
X000799Y012466D01*
X000799Y012544D02*
X004063Y012544D01*
X004063Y012623D02*
X000799Y012623D01*
X000799Y012701D02*
X004063Y012701D01*
X004063Y012780D02*
X000799Y012780D01*
X000799Y012858D02*
X004063Y012858D01*
X004063Y012937D02*
X000799Y012937D01*
X000799Y013015D02*
X004063Y013015D01*
X004063Y013094D02*
X000799Y013094D01*
X000799Y013172D02*
X004063Y013172D01*
X004063Y013251D02*
X000799Y013251D01*
X000799Y013329D02*
X004063Y013329D01*
X004063Y013408D02*
X000799Y013408D01*
X000799Y013486D02*
X004063Y013486D01*
X004063Y013565D02*
X000799Y013565D01*
X000799Y013643D02*
X004059Y013643D01*
X004040Y013722D02*
X000799Y013722D01*
X000799Y013800D02*
X004015Y013800D01*
X003964Y013879D02*
X000799Y013879D01*
X000799Y013957D02*
X003894Y013957D01*
X003772Y014036D02*
X000799Y014036D01*
X000799Y014114D02*
X002155Y014114D01*
X002200Y014092D02*
X002200Y014092D01*
X001997Y014193D02*
X000799Y014193D01*
X000799Y014271D02*
X001870Y014271D01*
X001894Y014243D02*
X001894Y014243D01*
X001801Y014350D02*
X000799Y014350D01*
X000799Y014428D02*
X001733Y014428D01*
X001670Y014500D02*
X001670Y014500D01*
X001668Y014507D02*
X000799Y014507D01*
X000799Y014585D02*
X001641Y014585D01*
X001615Y014664D02*
X000799Y014664D01*
X000799Y014742D02*
X001588Y014742D01*
X001562Y014821D02*
X000799Y014821D01*
X000799Y014899D02*
X001567Y014899D01*
X001561Y014823D02*
X001561Y014823D01*
X001572Y014978D02*
X000799Y014978D01*
X000799Y015056D02*
X001572Y015056D01*
X001572Y015135D02*
X000799Y015135D01*
X000799Y015213D02*
X001572Y015213D01*
X001572Y015292D02*
X000799Y015292D01*
X000799Y015370D02*
X001572Y015370D01*
X001572Y015449D02*
X000799Y015449D01*
X000799Y015527D02*
X001572Y015527D01*
X001572Y015606D02*
X000799Y015606D01*
X000799Y015684D02*
X001572Y015684D01*
X001572Y015763D02*
X000799Y015763D01*
X000799Y015841D02*
X001572Y015841D01*
X001572Y015920D02*
X000799Y015920D01*
X000799Y015998D02*
X001572Y015998D01*
X001572Y016077D02*
X000799Y016077D01*
X000799Y016155D02*
X001572Y016155D01*
X001572Y016234D02*
X000799Y016234D01*
X000799Y016312D02*
X001572Y016312D01*
X001572Y016391D02*
X001185Y016391D01*
X001267Y016469D02*
X001572Y016469D01*
X001572Y016548D02*
X001333Y016548D01*
X001365Y016626D02*
X001572Y016626D01*
X001572Y016705D02*
X001394Y016705D01*
X001394Y016783D02*
X001572Y016783D01*
X001572Y016862D02*
X001394Y016862D01*
X001370Y016940D02*
X001582Y016940D01*
X001614Y017019D02*
X001338Y017019D01*
X001280Y017097D02*
X001647Y017097D01*
X001679Y017176D02*
X001425Y017176D01*
X001544Y017254D02*
X001733Y017254D01*
X001696Y017217D02*
X001696Y017217D01*
X001597Y017333D02*
X001812Y017333D01*
X001890Y017411D02*
X001626Y017411D01*
X001626Y017490D02*
X002030Y017490D01*
X002219Y017568D02*
X001608Y017568D01*
X001217Y017176D02*
X001202Y017176D01*
X005467Y014620D02*
X005537Y014620D01*
X005473Y014556D01*
X005473Y014057D01*
X005578Y013952D01*
X005898Y013952D01*
X005863Y013868D01*
X005863Y012663D01*
X005941Y012473D01*
X006086Y012329D01*
X006086Y012329D01*
X006275Y012250D01*
X007197Y012250D01*
X007539Y012168D01*
X008234Y011900D01*
X008190Y011838D02*
X008338Y011838D01*
X008337Y011759D02*
X008469Y011759D01*
X008483Y011681D02*
X008599Y011681D01*
X008630Y011602D02*
X008729Y011602D01*
X008698Y011566D02*
X008698Y011566D01*
X008751Y011524D02*
X008860Y011524D01*
X008851Y011445D02*
X008954Y011445D01*
X008951Y011367D02*
X009044Y011367D01*
X009050Y011288D02*
X009134Y011288D01*
X009150Y011210D02*
X009224Y011210D01*
X009250Y011131D02*
X009314Y011131D01*
X009282Y011106D02*
X009282Y011106D01*
X009329Y011053D02*
X009404Y011053D01*
X009400Y010974D02*
X009477Y010974D01*
X009470Y010896D02*
X009540Y010896D01*
X009540Y010817D02*
X009603Y010817D01*
X009610Y010739D02*
X009667Y010739D01*
X009680Y010660D02*
X009730Y010660D01*
X009750Y010582D02*
X009794Y010582D01*
X009807Y010503D02*
X009857Y010503D01*
X009856Y010425D02*
X009916Y010425D01*
X009904Y010346D02*
X009964Y010346D01*
X009953Y010268D02*
X010012Y010268D01*
X010002Y010189D02*
X010060Y010189D01*
X010050Y010111D02*
X010102Y010111D01*
X010099Y010032D02*
X010183Y010032D01*
X008044Y011916D02*
X008044Y011916D01*
X007338Y012149D01*
X007008Y012196D01*
X006987Y012205D01*
X006949Y012205D01*
X006912Y012210D01*
X006890Y012205D01*
X005576Y012205D01*
X005565Y012208D01*
X005517Y012205D01*
X005496Y012205D01*
X005485Y012208D01*
X005474Y012218D01*
X005468Y012230D01*
X007280Y012230D01*
X007316Y012152D02*
X007581Y012152D01*
X007567Y012073D02*
X007785Y012073D01*
X007806Y011995D02*
X007989Y011995D01*
X007338Y012149D02*
X007338Y012149D01*
X006134Y012309D02*
X005467Y012309D01*
X005467Y012233D02*
X005467Y014620D01*
X005467Y014585D02*
X005502Y014585D01*
X005473Y014507D02*
X005467Y014507D01*
X005467Y014428D02*
X005473Y014428D01*
X005467Y014350D02*
X005473Y014350D01*
X005467Y014271D02*
X005473Y014271D01*
X005467Y014193D02*
X005473Y014193D01*
X005467Y014114D02*
X005473Y014114D01*
X005467Y014036D02*
X005494Y014036D01*
X005467Y013957D02*
X005573Y013957D01*
X005467Y013879D02*
X005867Y013879D01*
X005863Y013800D02*
X005467Y013800D01*
X005467Y013722D02*
X005863Y013722D01*
X005863Y013643D02*
X005467Y013643D01*
X005467Y013565D02*
X005863Y013565D01*
X005863Y013486D02*
X005467Y013486D01*
X005467Y013408D02*
X005863Y013408D01*
X005863Y013329D02*
X005467Y013329D01*
X005467Y013251D02*
X005863Y013251D01*
X005863Y013172D02*
X005467Y013172D01*
X005467Y013094D02*
X005863Y013094D01*
X005863Y013015D02*
X005467Y013015D01*
X005467Y012937D02*
X005863Y012937D01*
X005863Y012858D02*
X005467Y012858D01*
X005467Y012780D02*
X005863Y012780D01*
X005863Y012701D02*
X005467Y012701D01*
X005467Y012623D02*
X005879Y012623D01*
X005912Y012544D02*
X005467Y012544D01*
X005467Y012466D02*
X005949Y012466D01*
X005941Y012473D02*
X005941Y012473D01*
X006027Y012387D02*
X005467Y012387D01*
X005467Y012233D02*
X005468Y012230D01*
X004126Y008305D02*
X000799Y008305D01*
X000799Y008227D02*
X004034Y008227D01*
X004002Y008148D02*
X000799Y008148D01*
X000799Y008070D02*
X004005Y008070D01*
X004037Y007991D02*
X000799Y007991D01*
X000799Y007913D02*
X004145Y007913D01*
X000799Y006735D02*
X011482Y006735D01*
X011482Y006657D02*
X000799Y006657D01*
X000799Y006578D02*
X011482Y006578D01*
X011482Y006500D02*
X000799Y006500D01*
X000799Y006421D02*
X011482Y006421D01*
X011482Y006343D02*
X000799Y006343D01*
X000799Y006264D02*
X011482Y006264D01*
X011482Y006186D02*
X000799Y006186D01*
X000799Y006107D02*
X011482Y006107D01*
X011482Y006029D02*
X000799Y006029D01*
X000799Y005950D02*
X011482Y005950D01*
X011482Y005872D02*
X000799Y005872D01*
X000799Y005793D02*
X011482Y005793D01*
X011482Y005715D02*
X000799Y005715D01*
X000799Y005636D02*
X011482Y005636D01*
X011482Y005558D02*
X000799Y005558D01*
X000799Y005479D02*
X011482Y005479D01*
X011482Y005401D02*
X000799Y005401D01*
X000799Y005322D02*
X011482Y005322D01*
X011482Y005244D02*
X000799Y005244D01*
X000799Y005165D02*
X011482Y005165D01*
X011482Y005087D02*
X000799Y005087D01*
X000799Y005008D02*
X011482Y005008D01*
X011482Y004930D02*
X000799Y004930D01*
X000799Y004851D02*
X011482Y004851D01*
X011482Y004773D02*
X000799Y004773D01*
X000799Y004694D02*
X011482Y004694D01*
X011482Y004616D02*
X000799Y004616D01*
X000799Y004537D02*
X011482Y004537D01*
X011482Y004459D02*
X000799Y004459D01*
X000799Y004380D02*
X011482Y004380D01*
X011482Y004302D02*
X000799Y004302D01*
X000799Y004223D02*
X011482Y004223D01*
X011482Y004145D02*
X000799Y004145D01*
X000799Y004066D02*
X011482Y004066D01*
X011482Y003988D02*
X000799Y003988D01*
X000799Y003909D02*
X011482Y003909D01*
X011482Y003831D02*
X000799Y003831D01*
X000799Y003752D02*
X011482Y003752D01*
X011482Y003674D02*
X000799Y003674D01*
X000799Y003595D02*
X011482Y003595D01*
X011482Y003517D02*
X000799Y003517D01*
X000799Y003438D02*
X011482Y003438D01*
X011482Y003360D02*
X000799Y003360D01*
X000799Y003281D02*
X011482Y003281D01*
X011482Y003203D02*
X000799Y003203D01*
X000799Y003124D02*
X011482Y003124D01*
X011482Y003046D02*
X000799Y003046D01*
X000799Y002967D02*
X011482Y002967D01*
X011482Y002889D02*
X000799Y002889D01*
X000799Y002810D02*
X011482Y002810D01*
X011482Y002732D02*
X000799Y002732D01*
X000799Y002653D02*
X011482Y002653D01*
X011482Y002575D02*
X000799Y002575D01*
X000799Y002496D02*
X011482Y002496D01*
X011482Y002418D02*
X000799Y002418D01*
X000799Y002339D02*
X011482Y002339D01*
X011482Y002261D02*
X000799Y002261D01*
X000799Y002182D02*
X011482Y002182D01*
X011480Y002104D02*
X000799Y002104D01*
X000799Y002025D02*
X011487Y002025D01*
X011478Y002049D02*
X011478Y002049D01*
X011517Y001947D02*
X000799Y001947D01*
X000799Y001868D02*
X011546Y001868D01*
X011550Y001859D02*
X011550Y001859D01*
X011614Y001790D02*
X000799Y001790D01*
X000799Y001711D02*
X011688Y001711D01*
X011688Y001711D01*
X011860Y001633D02*
X000799Y001633D01*
X000799Y001554D02*
X001123Y001554D01*
X001055Y001476D02*
X000799Y001476D01*
X000799Y001397D02*
X001022Y001397D01*
X001016Y001319D02*
X000799Y001319D01*
X000799Y001240D02*
X001024Y001240D01*
X001057Y001162D02*
X000799Y001162D01*
X011873Y001627D02*
X011873Y001627D01*
D33*
X014578Y004915D03*
X013303Y005990D03*
X013159Y005547D03*
X013778Y006165D03*
X016194Y005806D03*
X016978Y005744D03*
X017284Y005284D03*
X017284Y004934D03*
X017128Y003735D03*
X016778Y003735D03*
X016778Y002715D03*
X018118Y003417D03*
X018418Y003417D03*
X018718Y003417D03*
X018868Y003167D03*
X018568Y003167D03*
X018268Y003167D03*
X019745Y004198D03*
X021334Y005034D03*
X021725Y004834D03*
X022134Y005034D03*
X022528Y004615D03*
X022528Y003715D03*
X022168Y003217D03*
X021868Y003217D03*
X021568Y003217D03*
X020634Y005762D03*
X020634Y006262D03*
X019218Y007867D03*
X019218Y008167D03*
X020018Y008517D03*
X020318Y008517D03*
X020618Y008517D03*
X017018Y007017D03*
X016718Y007017D03*
X017018Y006717D03*
X016660Y006465D03*
X016168Y008067D03*
X016168Y008367D03*
X016168Y008667D03*
X016168Y008967D03*
X016168Y009267D03*
X015084Y008629D03*
X015134Y008279D03*
X015084Y007929D03*
X012458Y009610D03*
X012158Y009610D03*
X011858Y009610D03*
X011558Y009610D03*
X011258Y009610D03*
X008215Y013484D03*
X005658Y013410D03*
X005658Y013110D03*
X005658Y012810D03*
D34*
X016839Y008879D02*
X016839Y008368D01*
X016948Y008770D02*
X016839Y008879D01*
X016948Y008770D02*
X017409Y008770D01*
X017409Y009217D02*
X017409Y009357D01*
X017939Y009357D01*
X017415Y009234D02*
X017409Y009217D01*
X017409Y009589D01*
X018884Y009234D02*
X019034Y009234D01*
X019210Y009410D01*
X019210Y009746D01*
X019384Y009234D02*
X019734Y009234D01*
X019957Y009457D01*
X020093Y009457D01*
X019384Y009234D02*
X019210Y009060D01*
X019210Y008722D01*
X018440Y007877D02*
X017959Y007877D01*
X017959Y007621D02*
X018471Y007621D01*
X018484Y007734D01*
X018484Y007834D02*
X018440Y007877D01*
X018220Y006762D02*
X017712Y006762D01*
X017584Y006634D01*
D35*
X017684Y005934D02*
X017855Y005762D01*
X018220Y005762D01*
X020340Y006762D02*
X020812Y006762D01*
X020812Y006763D02*
X020841Y006765D01*
X020869Y006771D01*
X020897Y006780D01*
X020922Y006793D01*
X020947Y006809D01*
X020968Y006828D01*
X020987Y006849D01*
X021003Y006873D01*
X021016Y006899D01*
X021025Y006927D01*
X021031Y006955D01*
X021033Y006984D01*
X021034Y006984D02*
X021034Y009234D01*
X021033Y009234D02*
X021031Y009265D01*
X021026Y009295D01*
X021018Y009324D01*
X021006Y009352D01*
X020991Y009379D01*
X020973Y009404D01*
X020953Y009427D01*
X020930Y009447D01*
X020905Y009465D01*
X020878Y009480D01*
X020850Y009492D01*
X020821Y009500D01*
X020791Y009505D01*
X020760Y009507D01*
X020610Y009507D01*
X018484Y008884D02*
X018407Y008810D01*
X017939Y008810D01*
D36*
X021725Y005319D02*
X021725Y004834D01*
D37*
X020340Y005262D02*
X019955Y005262D01*
X019905Y005212D01*
X019745Y004722D02*
X019234Y005234D01*
X018719Y005234D01*
X018698Y005212D01*
X018648Y005262D01*
X018484Y005262D01*
X018220Y005262D01*
X018484Y005262D02*
X018548Y005198D01*
X018548Y004411D01*
X018698Y005212D02*
X018484Y005262D01*
X019745Y004722D02*
X019745Y004411D01*
X019134Y006734D02*
X019205Y006762D01*
X020340Y006762D01*
X018484Y007734D02*
X018484Y007834D01*
X018484Y008884D01*
X018484Y009434D01*
X018784Y009734D01*
X020610Y009907D02*
X020610Y009507D01*
X018299Y007749D02*
X017649Y007749D01*
X017384Y007484D01*
X015934Y007484D01*
X015897Y007483D01*
X015860Y007486D01*
X015824Y007493D01*
X015789Y007503D01*
X015754Y007516D01*
X015721Y007533D01*
X015690Y007553D01*
X015661Y007576D01*
X015635Y007602D01*
X015611Y007630D01*
X015590Y007660D01*
X015572Y007692D01*
X015557Y007726D01*
X015546Y007761D01*
X015538Y007797D01*
X015534Y007834D01*
X015534Y008734D01*
X015533Y008734D02*
X015531Y008776D01*
X015526Y008818D01*
X015517Y008858D01*
X015504Y008899D01*
X015488Y008937D01*
X015469Y008974D01*
X015446Y009010D01*
X015420Y009043D01*
X015392Y009074D01*
X015361Y009102D01*
X015328Y009128D01*
X015293Y009151D01*
X015255Y009170D01*
X015217Y009186D01*
X015176Y009199D01*
X015136Y009208D01*
X015094Y009213D01*
X015052Y009215D01*
X010128Y009215D01*
X010028Y009465D01*
X010027Y009465D01*
X013269Y009846D02*
X014040Y009846D01*
X015490Y009846D02*
X016049Y009846D01*
X016110Y009907D01*
X006928Y011905D02*
X005528Y011905D01*
X005528Y011904D02*
X005493Y011903D01*
X005458Y011906D01*
X005423Y011913D01*
X005389Y011923D01*
X005357Y011936D01*
X005326Y011953D01*
X005297Y011974D01*
X005270Y011997D01*
X005246Y012022D01*
X005224Y012050D01*
X005206Y012080D01*
X005191Y012112D01*
X005179Y012146D01*
X005171Y012180D01*
X005167Y012215D01*
X005167Y014802D01*
X005334Y014918D01*
X005334Y015312D02*
X005153Y015312D01*
X005167Y015337D01*
X005167Y015794D01*
X006928Y011905D02*
X007113Y011873D01*
X007296Y011833D01*
X007478Y011785D01*
X007656Y011728D01*
X007832Y011662D01*
X008005Y011588D01*
X008174Y011506D01*
X008338Y011416D01*
X008499Y011318D01*
X008654Y011213D01*
X008804Y011100D01*
X008949Y010981D01*
X009088Y010854D01*
X009220Y010722D01*
X009347Y010583D01*
X009466Y010438D01*
X009579Y010287D01*
X009684Y010132D01*
X009781Y009972D01*
X009871Y009807D01*
X009953Y009638D01*
X010027Y009465D01*
D38*
X013745Y006132D02*
X013778Y006165D01*
X013745Y006132D02*
X013745Y005957D01*
X013745Y005597D01*
X013453Y005415D02*
X013453Y005840D01*
X013303Y005990D01*
X013159Y005547D02*
X013159Y005384D01*
X013666Y004877D01*
X013745Y004877D01*
X013745Y005237D02*
X013631Y005237D01*
X013453Y005415D01*
X014191Y005237D02*
X014191Y004877D01*
X014578Y004915D02*
X015136Y004915D01*
X015136Y004916D02*
X015146Y004918D01*
X015154Y004922D01*
X015161Y004929D01*
X015165Y004937D01*
X015167Y004947D01*
X015168Y005547D02*
X015118Y005597D01*
X014191Y005597D01*
X014191Y005957D02*
X014381Y006147D01*
X015168Y006147D01*
X015168Y006025D01*
X016660Y006184D02*
X016660Y006433D01*
X016664Y006439D01*
X016667Y006445D01*
X016667Y006453D01*
X016664Y006459D01*
X016660Y006465D01*
X017360Y006405D02*
X017453Y006262D01*
X018220Y006262D01*
X016978Y005744D02*
X016660Y005744D01*
X017234Y005284D02*
X017284Y005284D01*
X017234Y005284D02*
X016600Y004650D01*
X016600Y004508D01*
X016960Y004508D02*
X016960Y004710D01*
X017184Y004934D01*
X017284Y004934D01*
X016960Y004061D02*
X017128Y003893D01*
X017128Y003735D01*
X017128Y003582D01*
X016960Y003415D01*
X016978Y003397D01*
X016978Y003365D01*
X017528Y003365D01*
X017570Y003363D01*
X017611Y003357D01*
X017651Y003348D01*
X017691Y003335D01*
X017729Y003318D01*
X017765Y003298D01*
X017799Y003274D01*
X017831Y003248D01*
X017861Y003218D01*
X017887Y003186D01*
X017911Y003152D01*
X017931Y003116D01*
X017948Y003078D01*
X017961Y003038D01*
X017970Y002998D01*
X017976Y002957D01*
X017978Y002915D01*
X017979Y002895D01*
X017983Y002876D01*
X017989Y002858D01*
X017999Y002841D01*
X018011Y002825D01*
X018026Y002812D01*
X018042Y002801D01*
X018060Y002793D01*
X018079Y002787D01*
X018098Y002785D01*
X020178Y002865D01*
X020208Y002867D01*
X020238Y002872D01*
X020267Y002881D01*
X020294Y002894D01*
X020320Y002909D01*
X020344Y002928D01*
X020365Y002949D01*
X020384Y002973D01*
X020399Y002999D01*
X020412Y003026D01*
X020421Y003055D01*
X020426Y003085D01*
X020428Y003115D01*
X020428Y003116D02*
X020446Y003153D01*
X020467Y003188D01*
X020492Y003221D01*
X020519Y003251D01*
X020549Y003279D01*
X020581Y003305D01*
X020615Y003327D01*
X020651Y003346D01*
X020689Y003362D01*
X020728Y003374D01*
X020768Y003383D01*
X020809Y003388D01*
X020850Y003389D01*
X020891Y003387D01*
X020932Y003380D01*
X020971Y003371D01*
X021010Y003357D01*
X021048Y003341D01*
X021083Y003321D01*
X021117Y003297D01*
X021149Y003271D01*
X021178Y003242D01*
X021204Y003211D01*
X021227Y003177D01*
X021248Y003142D01*
X021265Y003104D01*
X021278Y003066D01*
X021278Y003065D02*
X021281Y003031D01*
X021288Y002999D01*
X021298Y002967D01*
X021312Y002936D01*
X021329Y002907D01*
X021350Y002880D01*
X021373Y002856D01*
X021399Y002834D01*
X021427Y002816D01*
X021457Y002801D01*
X021488Y002789D01*
X021521Y002780D01*
X021554Y002776D01*
X021588Y002775D01*
X022078Y002815D01*
X022428Y002865D02*
X022476Y002875D01*
X022522Y002888D01*
X022568Y002904D01*
X022613Y002924D01*
X022656Y002947D01*
X022698Y002972D01*
X022737Y003001D01*
X022775Y003032D01*
X022810Y003066D01*
X022528Y003715D02*
X022628Y003784D01*
X022810Y003966D01*
X022528Y004615D02*
X022779Y004866D01*
X022810Y004866D01*
X021796Y003842D02*
X021796Y003683D01*
X021678Y003565D01*
X021228Y003565D01*
X021178Y003615D01*
X019428Y003615D01*
X018950Y004093D01*
X018950Y004411D01*
X019343Y004411D02*
X019343Y004000D01*
X019528Y003815D01*
X021383Y003815D01*
X021410Y003842D01*
X019745Y004198D02*
X019745Y004411D01*
X020340Y005762D02*
X020634Y005762D01*
X020634Y006262D02*
X020340Y006262D01*
X022078Y002815D02*
X022253Y002837D01*
X022428Y002865D01*
X016960Y002968D02*
X016600Y002968D01*
X016778Y002968D01*
X016778Y002715D01*
X016600Y003415D02*
X016600Y003735D01*
X016778Y003735D01*
X016600Y003735D02*
X016600Y004061D01*
D39*
X018698Y005212D03*
X019905Y005212D03*
X019134Y006734D03*
X020610Y009907D03*
X016110Y009907D03*
X005167Y015794D03*
D40*
X017959Y007365D02*
X018465Y007365D01*
X018465Y007366D02*
X018501Y007368D01*
X018537Y007373D01*
X018572Y007382D01*
X018606Y007394D01*
X018638Y007409D01*
X018669Y007428D01*
X018698Y007450D01*
X018725Y007474D01*
X018749Y007501D01*
X018771Y007530D01*
X018790Y007561D01*
X018805Y007593D01*
X018817Y007627D01*
X018826Y007662D01*
X018831Y007698D01*
X018833Y007734D01*
X018834Y007734D02*
X018834Y008664D01*
X018836Y008722D01*
X019584Y008722D02*
X019584Y008666D01*
X019584Y007734D01*
X019586Y007698D01*
X019591Y007662D01*
X019600Y007627D01*
X019612Y007593D01*
X019627Y007561D01*
X019646Y007530D01*
X019668Y007501D01*
X019692Y007474D01*
X019719Y007450D01*
X019748Y007428D01*
X019779Y007409D01*
X019811Y007394D01*
X019845Y007382D01*
X019880Y007373D01*
X019916Y007368D01*
X019952Y007366D01*
X019952Y007365D02*
X020262Y007365D01*
X018220Y005262D02*
X017905Y005262D01*
D41*
X016978Y005415D03*
X016748Y005165D03*
D42*
X016839Y008368D03*
X017409Y009589D03*
X018884Y009234D03*
D43*
X018299Y007749D02*
X017959Y007877D01*
D44*
X018784Y009734D02*
X018796Y009746D01*
X018836Y009746D01*
M02*
