G75*
G70*
%OFA0B0*%
%FSLAX24Y24*%
%IPPOS*%
%LPD*%
%AMOC8*
5,1,8,0,0,1.08239X$1,22.5*
%
%ADD10C,0.0050*%
%ADD11C,0.0100*%
%ADD12C,0.0000*%
%ADD13C,0.0120*%
%ADD14R,0.0630X0.0709*%
%ADD15R,0.0433X0.0394*%
%ADD16R,0.0394X0.0433*%
%ADD17R,0.0354X0.0250*%
%ADD18R,0.0250X0.0354*%
%ADD19R,0.0810X0.0240*%
%ADD20R,0.0900X0.0900*%
%ADD21R,0.0217X0.0472*%
%ADD22R,0.0472X0.0138*%
%ADD23R,0.0315X0.0472*%
%ADD24R,0.0299X0.0472*%
%ADD25C,0.0004*%
%ADD26C,0.0500*%
%ADD27C,0.0394*%
%ADD28R,0.0250X0.0500*%
%ADD29C,0.0400*%
%ADD30C,0.0300*%
%ADD31R,0.0236X0.0610*%
%ADD32R,0.0480X0.1000*%
%ADD33R,0.0236X0.0315*%
%ADD34C,0.1000*%
%ADD35C,0.1400*%
D10*
X007158Y005436D02*
X007158Y008596D01*
X007160Y008637D01*
X007165Y008677D01*
X007174Y008717D01*
X007187Y008756D01*
X007203Y008793D01*
X007222Y008829D01*
X007245Y008863D01*
X007270Y008895D01*
X007299Y008925D01*
X007329Y008952D01*
X007362Y008976D01*
X007397Y008997D01*
X007434Y009014D01*
X007472Y009029D01*
X007512Y009040D01*
X007552Y009047D01*
X007593Y009051D01*
X007633Y009051D01*
X007674Y009047D01*
X007714Y009040D01*
X007754Y009029D01*
X007792Y009014D01*
X007829Y008997D01*
X007864Y008976D01*
X007897Y008952D01*
X007927Y008925D01*
X007956Y008895D01*
X007981Y008863D01*
X008004Y008829D01*
X008023Y008793D01*
X008039Y008756D01*
X008052Y008717D01*
X008061Y008677D01*
X008066Y008637D01*
X008068Y008596D01*
X008068Y005436D01*
X008066Y005395D01*
X008061Y005355D01*
X008052Y005315D01*
X008039Y005276D01*
X008023Y005239D01*
X008004Y005203D01*
X007981Y005169D01*
X007956Y005137D01*
X007927Y005107D01*
X007897Y005080D01*
X007864Y005056D01*
X007829Y005035D01*
X007792Y005018D01*
X007754Y005003D01*
X007714Y004992D01*
X007674Y004985D01*
X007633Y004981D01*
X007593Y004981D01*
X007552Y004985D01*
X007512Y004992D01*
X007472Y005003D01*
X007434Y005018D01*
X007397Y005035D01*
X007362Y005056D01*
X007329Y005080D01*
X007299Y005107D01*
X007270Y005137D01*
X007245Y005169D01*
X007222Y005203D01*
X007203Y005239D01*
X007187Y005276D01*
X007174Y005315D01*
X007165Y005355D01*
X007160Y005395D01*
X007158Y005436D01*
D11*
X007364Y002832D02*
X002254Y002646D01*
X002254Y006898D01*
X002248Y006931D01*
X002239Y006963D01*
X002226Y006994D01*
X002210Y007023D01*
X002192Y007050D01*
X002170Y007076D01*
X002146Y007099D01*
X002120Y007119D01*
X002092Y007137D01*
X002062Y007151D01*
X002031Y007162D01*
X001999Y007170D01*
X001966Y007175D01*
X001933Y007176D01*
X001900Y007174D01*
X001899Y007174D02*
X000904Y007174D01*
X000871Y007176D01*
X000839Y007181D01*
X000807Y007189D01*
X000776Y007201D01*
X000747Y007216D01*
X000719Y007234D01*
X000693Y007255D01*
X000670Y007278D01*
X000649Y007304D01*
X000631Y007331D01*
X000616Y007361D01*
X000604Y007392D01*
X000596Y007424D01*
X000591Y007456D01*
X000589Y007489D01*
X000589Y010062D01*
X000591Y010095D01*
X000596Y010127D01*
X000604Y010159D01*
X000616Y010190D01*
X000631Y010219D01*
X000649Y010247D01*
X000670Y010273D01*
X000693Y010296D01*
X000719Y010317D01*
X000747Y010335D01*
X000776Y010350D01*
X000807Y010362D01*
X000839Y010370D01*
X000871Y010375D01*
X000904Y010377D01*
X002595Y010377D01*
X002595Y010376D02*
X002621Y010378D01*
X002646Y010383D01*
X002670Y010391D01*
X002693Y010402D01*
X002715Y010417D01*
X002734Y010434D01*
X002751Y010453D01*
X002766Y010474D01*
X002777Y010498D01*
X002785Y010522D01*
X002790Y010547D01*
X002792Y010573D01*
X002792Y012782D01*
X002794Y012815D01*
X002799Y012847D01*
X002807Y012879D01*
X002819Y012910D01*
X002834Y012939D01*
X002852Y012967D01*
X002873Y012993D01*
X002896Y013016D01*
X002922Y013037D01*
X002950Y013055D01*
X002979Y013070D01*
X003010Y013082D01*
X003042Y013090D01*
X003074Y013095D01*
X003107Y013097D01*
X004489Y013097D01*
X004522Y013095D01*
X004554Y013090D01*
X004586Y013082D01*
X004617Y013070D01*
X004646Y013055D01*
X004674Y013037D01*
X004700Y013016D01*
X004723Y012993D01*
X004744Y012967D01*
X004762Y012939D01*
X004777Y012910D01*
X004789Y012879D01*
X004797Y012847D01*
X004802Y012815D01*
X004804Y012782D01*
X004804Y011456D01*
X008073Y011456D01*
X008073Y011455D02*
X008108Y011452D01*
X008142Y011444D01*
X008175Y011433D01*
X008207Y011419D01*
X008237Y011401D01*
X008265Y011380D01*
X008291Y011356D01*
X008315Y011330D01*
X008335Y011302D01*
X008352Y011271D01*
X008367Y011239D01*
X008377Y011206D01*
X008384Y011171D01*
X008388Y011136D01*
X008387Y011101D01*
X008388Y011101D02*
X008388Y009382D01*
X008387Y009381D02*
X008391Y009333D01*
X008397Y009285D01*
X008408Y009237D01*
X008422Y009191D01*
X008439Y009145D01*
X008460Y009101D01*
X008484Y009059D01*
X008511Y009019D01*
X008541Y008981D01*
X008574Y008945D01*
X008610Y008911D01*
X008647Y008881D01*
X008687Y008853D01*
X008729Y008828D01*
X008773Y008807D01*
X008818Y008789D01*
X008864Y008774D01*
X008912Y008763D01*
X008960Y008756D01*
X009008Y008752D01*
X009057Y008751D01*
X009057Y008752D02*
X009057Y003294D01*
X009055Y003255D01*
X009049Y003217D01*
X009040Y003180D01*
X009027Y003143D01*
X009010Y003108D01*
X008991Y003075D01*
X008968Y003044D01*
X008942Y003015D01*
X008913Y002989D01*
X008882Y002966D01*
X008849Y002947D01*
X008814Y002930D01*
X008777Y002917D01*
X008740Y002908D01*
X008702Y002902D01*
X008663Y002900D01*
X008663Y002901D02*
X008585Y002901D01*
X008585Y002646D01*
X008618Y002644D01*
X008650Y002639D01*
X008682Y002631D01*
X008713Y002619D01*
X008742Y002604D01*
X008770Y002586D01*
X008796Y002565D01*
X008819Y002542D01*
X008840Y002516D01*
X008858Y002488D01*
X008873Y002459D01*
X008885Y002428D01*
X008893Y002396D01*
X008898Y002364D01*
X008900Y002331D01*
X008900Y001623D01*
X008925Y001565D01*
X008947Y001505D01*
X008964Y001444D01*
X008978Y001382D01*
X008988Y001320D01*
X008995Y001257D01*
X008997Y001193D01*
X008995Y001130D01*
X008990Y001066D01*
X008981Y001004D01*
X008968Y000942D01*
X008951Y000880D01*
X008930Y000820D01*
X008906Y000762D01*
X008878Y000705D01*
X008847Y000649D01*
X008813Y000596D01*
X008775Y000545D01*
X008734Y000496D01*
X008690Y000450D01*
X008644Y000407D01*
X008595Y000367D01*
X008544Y000329D01*
X008490Y000295D01*
X008435Y000265D01*
X008377Y000237D01*
X008318Y000214D01*
X008258Y000194D01*
X008197Y000177D01*
X008135Y000165D01*
X008072Y000156D01*
X008009Y000151D01*
X007945Y000150D01*
X007882Y000153D01*
X007819Y000160D01*
X007756Y000170D01*
X007694Y000185D01*
X007633Y000203D01*
X007574Y000225D01*
X007516Y000251D01*
X007459Y000280D01*
X007405Y000312D01*
X007352Y000348D01*
X007302Y000387D01*
X007254Y000428D01*
X007209Y000473D01*
X007167Y000520D01*
X007167Y002095D01*
X007168Y002096D02*
X007141Y002117D01*
X007116Y002141D01*
X007095Y002168D01*
X007076Y002197D01*
X007061Y002228D01*
X007050Y002260D01*
X007042Y002293D01*
X007038Y002328D01*
X007039Y002362D01*
X007043Y002396D01*
X007050Y002430D01*
X007062Y002462D01*
X007077Y002493D01*
X007096Y002522D01*
X007117Y002548D01*
X007142Y002572D01*
X007169Y002593D01*
X007198Y002611D01*
X007229Y002626D01*
X007262Y002637D01*
X007296Y002644D01*
X007330Y002647D01*
X007364Y002646D01*
X007364Y002832D01*
D12*
X007670Y002746D02*
X007672Y002761D01*
X007677Y002775D01*
X007686Y002787D01*
X007698Y002797D01*
X007711Y002803D01*
X007726Y002806D01*
X007741Y002805D01*
X007756Y002800D01*
X007768Y002792D01*
X007779Y002781D01*
X007786Y002768D01*
X007790Y002754D01*
X007790Y002738D01*
X007786Y002724D01*
X007779Y002711D01*
X007768Y002700D01*
X007756Y002692D01*
X007741Y002687D01*
X007726Y002686D01*
X007711Y002689D01*
X007698Y002695D01*
X007686Y002705D01*
X007677Y002717D01*
X007672Y002731D01*
X007670Y002746D01*
X008180Y002746D02*
X008182Y002761D01*
X008187Y002775D01*
X008196Y002787D01*
X008208Y002797D01*
X008221Y002803D01*
X008236Y002806D01*
X008251Y002805D01*
X008266Y002800D01*
X008278Y002792D01*
X008289Y002781D01*
X008296Y002768D01*
X008300Y002754D01*
X008300Y002738D01*
X008296Y002724D01*
X008289Y002711D01*
X008278Y002700D01*
X008266Y002692D01*
X008251Y002687D01*
X008236Y002686D01*
X008221Y002689D01*
X008208Y002695D01*
X008196Y002705D01*
X008187Y002717D01*
X008182Y002731D01*
X008180Y002746D01*
D13*
X008240Y002746D03*
X007730Y002746D03*
D14*
X002496Y009426D03*
X001414Y009426D03*
D15*
X007150Y010092D03*
X007150Y010801D03*
D16*
X004056Y009846D03*
X003347Y009846D03*
D17*
X003150Y005820D03*
X003150Y005273D03*
X003700Y005273D03*
X003700Y005820D03*
X004250Y005820D03*
X004250Y005273D03*
X002600Y005273D03*
X002600Y005820D03*
X006433Y010173D03*
X006433Y010720D03*
X008600Y007637D03*
X008600Y007090D03*
X008600Y006437D03*
X008600Y005890D03*
D18*
X008261Y001846D03*
X007714Y001846D03*
X004117Y010496D03*
X003570Y010496D03*
D19*
X004410Y007880D03*
X004410Y007380D03*
X004410Y006880D03*
X004410Y006380D03*
X006530Y006380D03*
X006530Y006880D03*
X006530Y007380D03*
X006530Y007880D03*
D20*
X005470Y007130D03*
D21*
X005350Y009934D03*
X004976Y009934D03*
X004976Y010958D03*
X005350Y010958D03*
X005724Y010958D03*
X005724Y009934D03*
D22*
X006502Y009301D03*
X006502Y009045D03*
X006502Y008789D03*
X006502Y008533D03*
X004198Y008533D03*
X004198Y008789D03*
X004198Y009045D03*
X004198Y009301D03*
D23*
X004438Y004504D03*
X003954Y004504D03*
X005635Y004504D03*
X006119Y004504D03*
D24*
X005233Y004504D03*
X004840Y004504D03*
D25*
X003454Y004600D02*
X003454Y004356D01*
X003452Y004336D01*
X003447Y004316D01*
X003438Y004297D01*
X003426Y004280D01*
X003412Y004266D01*
X003395Y004254D01*
X003376Y004245D01*
X003356Y004240D01*
X003336Y004238D01*
X003316Y004240D01*
X003296Y004245D01*
X003277Y004254D01*
X003260Y004266D01*
X003246Y004280D01*
X003234Y004297D01*
X003225Y004316D01*
X003220Y004336D01*
X003218Y004356D01*
X003218Y004600D01*
X003220Y004620D01*
X003225Y004640D01*
X003234Y004659D01*
X003246Y004676D01*
X003260Y004690D01*
X003277Y004702D01*
X003296Y004711D01*
X003316Y004716D01*
X003336Y004718D01*
X003356Y004716D01*
X003376Y004711D01*
X003395Y004702D01*
X003412Y004690D01*
X003426Y004676D01*
X003438Y004659D01*
X003447Y004640D01*
X003452Y004620D01*
X003454Y004600D01*
X003454Y003104D02*
X003454Y002860D01*
X003452Y002840D01*
X003447Y002820D01*
X003438Y002801D01*
X003426Y002784D01*
X003412Y002770D01*
X003395Y002758D01*
X003376Y002749D01*
X003356Y002744D01*
X003336Y002742D01*
X003316Y002744D01*
X003296Y002749D01*
X003277Y002758D01*
X003260Y002770D01*
X003246Y002784D01*
X003234Y002801D01*
X003225Y002820D01*
X003220Y002840D01*
X003218Y002860D01*
X003218Y003104D01*
X003220Y003124D01*
X003225Y003144D01*
X003234Y003163D01*
X003246Y003180D01*
X003260Y003194D01*
X003277Y003206D01*
X003296Y003215D01*
X003316Y003220D01*
X003336Y003222D01*
X003356Y003220D01*
X003376Y003215D01*
X003395Y003206D01*
X003412Y003194D01*
X003426Y003180D01*
X003438Y003163D01*
X003447Y003144D01*
X003452Y003124D01*
X003454Y003104D01*
X006619Y003104D02*
X006619Y002860D01*
X006621Y002840D01*
X006626Y002820D01*
X006635Y002801D01*
X006647Y002784D01*
X006661Y002770D01*
X006678Y002758D01*
X006697Y002749D01*
X006717Y002744D01*
X006737Y002742D01*
X006757Y002744D01*
X006777Y002749D01*
X006796Y002758D01*
X006813Y002770D01*
X006827Y002784D01*
X006839Y002801D01*
X006848Y002820D01*
X006853Y002840D01*
X006855Y002860D01*
X006855Y003104D01*
X006853Y003124D01*
X006848Y003144D01*
X006839Y003163D01*
X006827Y003180D01*
X006813Y003194D01*
X006796Y003206D01*
X006777Y003215D01*
X006757Y003220D01*
X006737Y003222D01*
X006717Y003220D01*
X006697Y003215D01*
X006678Y003206D01*
X006661Y003194D01*
X006647Y003180D01*
X006635Y003163D01*
X006626Y003144D01*
X006621Y003124D01*
X006619Y003104D01*
X006619Y004356D02*
X006619Y004600D01*
X006621Y004620D01*
X006626Y004640D01*
X006635Y004659D01*
X006647Y004676D01*
X006661Y004690D01*
X006678Y004702D01*
X006697Y004711D01*
X006717Y004716D01*
X006737Y004718D01*
X006757Y004716D01*
X006777Y004711D01*
X006796Y004702D01*
X006813Y004690D01*
X006827Y004676D01*
X006839Y004659D01*
X006848Y004640D01*
X006853Y004620D01*
X006855Y004600D01*
X006855Y004356D01*
X006853Y004336D01*
X006848Y004316D01*
X006839Y004297D01*
X006827Y004280D01*
X006813Y004266D01*
X006796Y004254D01*
X006777Y004245D01*
X006757Y004240D01*
X006737Y004238D01*
X006717Y004240D01*
X006697Y004245D01*
X006678Y004254D01*
X006661Y004266D01*
X006647Y004280D01*
X006635Y004297D01*
X006626Y004316D01*
X006621Y004336D01*
X006619Y004356D01*
D26*
X005930Y003146D02*
X005932Y003169D01*
X005938Y003192D01*
X005947Y003214D01*
X005960Y003233D01*
X005976Y003250D01*
X005994Y003265D01*
X006015Y003276D01*
X006037Y003284D01*
X006060Y003288D01*
X006084Y003288D01*
X006107Y003284D01*
X006129Y003276D01*
X006150Y003265D01*
X006168Y003250D01*
X006184Y003233D01*
X006197Y003214D01*
X006206Y003192D01*
X006212Y003169D01*
X006214Y003146D01*
X006212Y003123D01*
X006206Y003100D01*
X006197Y003078D01*
X006184Y003059D01*
X006168Y003042D01*
X006150Y003027D01*
X006129Y003016D01*
X006107Y003008D01*
X006084Y003004D01*
X006060Y003004D01*
X006037Y003008D01*
X006015Y003016D01*
X005994Y003027D01*
X005976Y003042D01*
X005960Y003059D01*
X005947Y003078D01*
X005938Y003100D01*
X005932Y003123D01*
X005930Y003146D01*
X003845Y003146D02*
X003847Y003169D01*
X003853Y003192D01*
X003862Y003214D01*
X003875Y003233D01*
X003891Y003250D01*
X003909Y003265D01*
X003930Y003276D01*
X003952Y003284D01*
X003975Y003288D01*
X003999Y003288D01*
X004022Y003284D01*
X004044Y003276D01*
X004065Y003265D01*
X004083Y003250D01*
X004099Y003233D01*
X004112Y003214D01*
X004121Y003192D01*
X004127Y003169D01*
X004129Y003146D01*
X004127Y003123D01*
X004121Y003100D01*
X004112Y003078D01*
X004099Y003059D01*
X004083Y003042D01*
X004065Y003027D01*
X004044Y003016D01*
X004022Y003008D01*
X003999Y003004D01*
X003975Y003004D01*
X003952Y003008D01*
X003930Y003016D01*
X003909Y003027D01*
X003891Y003042D01*
X003875Y003059D01*
X003862Y003078D01*
X003853Y003100D01*
X003847Y003123D01*
X003845Y003146D01*
X003651Y012396D02*
X003653Y012419D01*
X003659Y012442D01*
X003668Y012464D01*
X003681Y012483D01*
X003697Y012500D01*
X003715Y012515D01*
X003736Y012526D01*
X003758Y012534D01*
X003781Y012538D01*
X003805Y012538D01*
X003828Y012534D01*
X003850Y012526D01*
X003871Y012515D01*
X003889Y012500D01*
X003905Y012483D01*
X003918Y012464D01*
X003927Y012442D01*
X003933Y012419D01*
X003935Y012396D01*
X003933Y012373D01*
X003927Y012350D01*
X003918Y012328D01*
X003905Y012309D01*
X003889Y012292D01*
X003871Y012277D01*
X003850Y012266D01*
X003828Y012258D01*
X003805Y012254D01*
X003781Y012254D01*
X003758Y012258D01*
X003736Y012266D01*
X003715Y012277D01*
X003697Y012292D01*
X003681Y012309D01*
X003668Y012328D01*
X003659Y012350D01*
X003653Y012373D01*
X003651Y012396D01*
D27*
X003793Y012396D03*
X003987Y003146D03*
X006072Y003146D03*
D28*
X003195Y006521D03*
X002875Y006521D03*
X002555Y006521D03*
D29*
X008700Y004784D03*
X008700Y004084D03*
X008700Y003384D03*
D30*
X008587Y002346D03*
X007987Y002346D03*
X007387Y002346D03*
D31*
X003990Y011202D03*
X003597Y011202D03*
D32*
X002985Y011996D03*
X004602Y011996D03*
D33*
X002850Y003525D03*
X002500Y003525D03*
X002500Y003092D03*
X002850Y003092D03*
X007637Y001363D03*
X007987Y001363D03*
X008337Y001363D03*
X008337Y000930D03*
X007987Y000930D03*
X007637Y000930D03*
D34*
X000600Y008396D03*
D35*
X007615Y005436D03*
M02*
