G75*
G70*
%OFA0B0*%
%FSLAX24Y24*%
%IPPOS*%
%LPD*%
%AMOC8*
5,1,8,0,0,1.08239X$1,22.5*
%
%ADD10C,0.0050*%
%ADD11C,0.0000*%
%ADD12C,0.0004*%
D10*
X000500Y001000D02*
X000500Y015750D01*
X000502Y015794D01*
X000508Y015837D01*
X000517Y015879D01*
X000530Y015921D01*
X000547Y015961D01*
X000567Y016000D01*
X000590Y016037D01*
X000617Y016071D01*
X000646Y016104D01*
X000679Y016133D01*
X000713Y016160D01*
X000750Y016183D01*
X000789Y016203D01*
X000829Y016220D01*
X000871Y016233D01*
X000913Y016242D01*
X000956Y016248D01*
X001000Y016250D01*
X011800Y016250D01*
X011844Y016248D01*
X011887Y016242D01*
X011929Y016233D01*
X011971Y016220D01*
X012011Y016203D01*
X012050Y016183D01*
X012087Y016160D01*
X012121Y016133D01*
X012154Y016104D01*
X012183Y016071D01*
X012210Y016037D01*
X012233Y016000D01*
X012253Y015961D01*
X012270Y015921D01*
X012283Y015879D01*
X012292Y015837D01*
X012298Y015794D01*
X012300Y015750D01*
X012300Y001000D01*
X012298Y000956D01*
X012292Y000913D01*
X012283Y000871D01*
X012270Y000829D01*
X012253Y000789D01*
X012233Y000750D01*
X012210Y000713D01*
X012183Y000679D01*
X012154Y000646D01*
X012121Y000617D01*
X012087Y000590D01*
X012050Y000567D01*
X012011Y000547D01*
X011971Y000530D01*
X011929Y000517D01*
X011887Y000508D01*
X011844Y000502D01*
X011800Y000500D01*
X001000Y000500D01*
X000956Y000502D01*
X000913Y000508D01*
X000871Y000517D01*
X000829Y000530D01*
X000789Y000547D01*
X000750Y000567D01*
X000713Y000590D01*
X000679Y000617D01*
X000646Y000646D01*
X000617Y000679D01*
X000590Y000713D01*
X000567Y000750D01*
X000547Y000789D01*
X000530Y000829D01*
X000517Y000871D01*
X000508Y000913D01*
X000502Y000956D01*
X000500Y001000D01*
X003336Y004163D02*
X008300Y004163D01*
X008300Y002187D01*
X008750Y002337D02*
X008750Y003912D01*
X008749Y003912D02*
X008721Y003931D01*
X008695Y003952D01*
X008672Y003976D01*
X008652Y004003D01*
X008635Y004032D01*
X008621Y004063D01*
X008611Y004095D01*
X008605Y004128D01*
X008602Y004161D01*
X008603Y004195D01*
X008608Y004228D01*
X008617Y004260D01*
X008629Y004292D01*
X008645Y004321D01*
X008664Y004349D01*
X008686Y004374D01*
X008710Y004397D01*
X008738Y004417D01*
X008767Y004433D01*
X008798Y004446D01*
X008830Y004456D01*
X008863Y004462D01*
X008896Y004464D01*
X008896Y004463D02*
X008896Y004650D01*
X003836Y004463D01*
X003836Y006988D01*
X003336Y006988D01*
X003336Y004163D01*
X003336Y008022D02*
X003836Y008022D01*
X003836Y008715D01*
X003830Y008748D01*
X003821Y008780D01*
X003808Y008811D01*
X003792Y008840D01*
X003774Y008867D01*
X003752Y008893D01*
X003728Y008916D01*
X003702Y008936D01*
X003674Y008954D01*
X003644Y008968D01*
X003613Y008979D01*
X003581Y008987D01*
X003548Y008992D01*
X003515Y008993D01*
X003482Y008991D01*
X003481Y008991D02*
X002487Y008991D01*
X002454Y008993D01*
X002422Y008998D01*
X002390Y009006D01*
X002359Y009018D01*
X002330Y009033D01*
X002302Y009051D01*
X002276Y009072D01*
X002253Y009095D01*
X002232Y009121D01*
X002214Y009148D01*
X002199Y009178D01*
X002187Y009209D01*
X002179Y009241D01*
X002174Y009273D01*
X002172Y009306D01*
X002172Y011879D01*
X001872Y012179D02*
X001874Y012212D01*
X001879Y012244D01*
X001887Y012276D01*
X001899Y012307D01*
X001914Y012336D01*
X001932Y012364D01*
X001953Y012390D01*
X001976Y012413D01*
X002002Y012434D01*
X002030Y012452D01*
X002059Y012467D01*
X002090Y012479D01*
X002122Y012487D01*
X002154Y012492D01*
X002187Y012494D01*
X003877Y012494D01*
X003901Y012499D01*
X003925Y012508D01*
X003946Y012520D01*
X003966Y012535D01*
X003984Y012552D01*
X003999Y012572D01*
X004010Y012594D01*
X004019Y012617D01*
X004024Y012642D01*
X004026Y012666D01*
X004024Y012691D01*
X004024Y014600D01*
X004324Y014600D02*
X004324Y012391D01*
X004326Y012366D01*
X004324Y012342D01*
X004319Y012317D01*
X004310Y012294D01*
X004299Y012272D01*
X004284Y012252D01*
X004266Y012235D01*
X004246Y012220D01*
X004225Y012208D01*
X004201Y012199D01*
X004177Y012194D01*
X002487Y012194D01*
X002454Y012192D01*
X002422Y012187D01*
X002390Y012179D01*
X002359Y012167D01*
X002330Y012152D01*
X002302Y012134D01*
X002276Y012113D01*
X002253Y012090D01*
X002232Y012064D01*
X002214Y012036D01*
X002199Y012007D01*
X002187Y011976D01*
X002179Y011944D01*
X002174Y011912D01*
X002172Y011879D01*
X001872Y012179D02*
X001872Y009006D01*
X001874Y008973D01*
X001879Y008941D01*
X001887Y008909D01*
X001899Y008878D01*
X001914Y008848D01*
X001932Y008821D01*
X001953Y008795D01*
X001976Y008772D01*
X002002Y008751D01*
X002030Y008733D01*
X002059Y008718D01*
X002090Y008706D01*
X002122Y008698D01*
X002154Y008693D01*
X002187Y008691D01*
X002981Y008691D01*
X002982Y008691D02*
X003015Y008693D01*
X003048Y008692D01*
X003081Y008687D01*
X003113Y008679D01*
X003144Y008668D01*
X003174Y008654D01*
X003202Y008636D01*
X003228Y008616D01*
X003252Y008593D01*
X003274Y008567D01*
X003292Y008540D01*
X003308Y008511D01*
X003321Y008480D01*
X003330Y008448D01*
X003336Y008415D01*
X003336Y008022D01*
X006436Y013273D02*
X006436Y014600D01*
X006736Y014600D02*
X006732Y014650D01*
X006724Y014700D01*
X006712Y014749D01*
X006696Y014796D01*
X006677Y014843D01*
X006654Y014888D01*
X006628Y014930D01*
X006599Y014971D01*
X006566Y015009D01*
X006531Y015045D01*
X006492Y015078D01*
X006452Y015107D01*
X006409Y015133D01*
X006364Y015156D01*
X006318Y015175D01*
X006270Y015191D01*
X006221Y015203D01*
X006171Y015211D01*
X006121Y015215D01*
X006071Y015215D01*
X004689Y015215D01*
X004689Y014915D02*
X006071Y014915D01*
X006107Y014916D01*
X006142Y014913D01*
X006177Y014906D01*
X006211Y014896D01*
X006244Y014882D01*
X006276Y014865D01*
X006305Y014844D01*
X006332Y014821D01*
X006356Y014795D01*
X006378Y014767D01*
X006397Y014736D01*
X006412Y014704D01*
X006423Y014670D01*
X006432Y014635D01*
X006436Y014600D01*
X006736Y014600D02*
X006736Y013673D01*
X009855Y013673D01*
X009655Y013273D02*
X006436Y013273D01*
X004689Y015215D02*
X004641Y015215D01*
X004593Y015211D01*
X004546Y015204D01*
X004499Y015193D01*
X004454Y015179D01*
X004409Y015162D01*
X004366Y015141D01*
X004324Y015117D01*
X004285Y015091D01*
X004247Y015061D01*
X004212Y015028D01*
X004180Y014993D01*
X004150Y014956D01*
X004123Y014916D01*
X004099Y014875D01*
X004078Y014832D01*
X004060Y014787D01*
X004046Y014742D01*
X004035Y014695D01*
X004028Y014648D01*
X004024Y014600D01*
X004324Y014600D02*
X004328Y014635D01*
X004337Y014670D01*
X004348Y014704D01*
X004363Y014736D01*
X004382Y014767D01*
X004404Y014795D01*
X004428Y014821D01*
X004455Y014844D01*
X004484Y014865D01*
X004516Y014882D01*
X004549Y014896D01*
X004583Y014906D01*
X004618Y014913D01*
X004653Y014916D01*
X004689Y014915D01*
X008741Y010413D02*
X008741Y007703D01*
X008743Y007662D01*
X008748Y007622D01*
X008757Y007582D01*
X008770Y007543D01*
X008786Y007506D01*
X008805Y007470D01*
X008828Y007436D01*
X008853Y007404D01*
X008882Y007374D01*
X008912Y007347D01*
X008945Y007323D01*
X008980Y007302D01*
X009017Y007285D01*
X009055Y007270D01*
X009095Y007259D01*
X009135Y007252D01*
X009176Y007248D01*
X009216Y007248D01*
X009257Y007252D01*
X009297Y007259D01*
X009337Y007270D01*
X009375Y007285D01*
X009412Y007302D01*
X009447Y007323D01*
X009480Y007347D01*
X009510Y007374D01*
X009539Y007404D01*
X009564Y007436D01*
X009587Y007470D01*
X009606Y007506D01*
X009622Y007543D01*
X009635Y007582D01*
X009644Y007622D01*
X009649Y007662D01*
X009651Y007703D01*
X009651Y010413D01*
X009649Y010454D01*
X009644Y010494D01*
X009635Y010534D01*
X009622Y010573D01*
X009606Y010610D01*
X009587Y010646D01*
X009564Y010680D01*
X009539Y010712D01*
X009510Y010742D01*
X009480Y010769D01*
X009447Y010793D01*
X009412Y010814D01*
X009375Y010831D01*
X009337Y010846D01*
X009297Y010857D01*
X009257Y010864D01*
X009216Y010868D01*
X009176Y010868D01*
X009135Y010864D01*
X009095Y010857D01*
X009055Y010846D01*
X009017Y010831D01*
X008980Y010814D01*
X008945Y010793D01*
X008912Y010769D01*
X008882Y010742D01*
X008853Y010712D01*
X008828Y010680D01*
X008805Y010646D01*
X008786Y010610D01*
X008770Y010573D01*
X008757Y010534D01*
X008748Y010494D01*
X008743Y010454D01*
X008741Y010413D01*
X009970Y011199D02*
X009970Y012919D01*
X010270Y013218D02*
X010270Y013258D01*
X010266Y013299D01*
X010258Y013338D01*
X010247Y013377D01*
X010233Y013414D01*
X010215Y013450D01*
X010194Y013484D01*
X010169Y013516D01*
X010142Y013546D01*
X010113Y013573D01*
X010080Y013597D01*
X010046Y013618D01*
X010010Y013636D01*
X009973Y013651D01*
X009934Y013662D01*
X009895Y013669D01*
X009855Y013673D01*
X010270Y013219D02*
X010270Y011499D01*
X009970Y011199D02*
X009974Y011151D01*
X009980Y011103D01*
X009991Y011055D01*
X010005Y011009D01*
X010022Y010963D01*
X010043Y010919D01*
X010067Y010877D01*
X010094Y010837D01*
X010124Y010799D01*
X010157Y010763D01*
X010193Y010729D01*
X010230Y010699D01*
X010270Y010671D01*
X010312Y010646D01*
X010356Y010625D01*
X010401Y010607D01*
X010447Y010592D01*
X010495Y010581D01*
X010543Y010574D01*
X010591Y010570D01*
X010640Y010569D01*
X010639Y010569D02*
X010639Y008022D01*
X011039Y008022D01*
X011039Y010869D01*
X010939Y010869D01*
X010940Y010869D02*
X010891Y010870D01*
X010843Y010874D01*
X010795Y010881D01*
X010747Y010892D01*
X010701Y010907D01*
X010656Y010925D01*
X010612Y010946D01*
X010570Y010971D01*
X010530Y010999D01*
X010493Y011029D01*
X010457Y011063D01*
X010424Y011099D01*
X010394Y011137D01*
X010367Y011177D01*
X010343Y011219D01*
X010322Y011263D01*
X010305Y011309D01*
X010291Y011355D01*
X010280Y011403D01*
X010274Y011451D01*
X010270Y011499D01*
X009969Y012918D02*
X009970Y012953D01*
X009966Y012988D01*
X009959Y013023D01*
X009949Y013056D01*
X009934Y013088D01*
X009917Y013119D01*
X009897Y013147D01*
X009873Y013173D01*
X009847Y013197D01*
X009819Y013218D01*
X009789Y013236D01*
X009757Y013250D01*
X009724Y013261D01*
X009690Y013269D01*
X009655Y013272D01*
X010639Y006988D02*
X011039Y006988D01*
X011039Y003511D01*
X010482Y003440D02*
X010482Y004148D01*
X010483Y004181D01*
X010480Y004213D01*
X010474Y004245D01*
X010464Y004276D01*
X010451Y004306D01*
X010434Y004334D01*
X010415Y004360D01*
X010392Y004384D01*
X010367Y004405D01*
X010340Y004423D01*
X010311Y004438D01*
X010281Y004450D01*
X010249Y004458D01*
X010217Y004463D01*
X010217Y004718D01*
X010246Y004718D01*
X010246Y004717D02*
X010285Y004719D01*
X010323Y004725D01*
X010360Y004734D01*
X010397Y004747D01*
X010432Y004764D01*
X010465Y004783D01*
X010496Y004806D01*
X010525Y004832D01*
X010551Y004861D01*
X010574Y004892D01*
X010593Y004925D01*
X010610Y004960D01*
X010623Y004997D01*
X010632Y005034D01*
X010638Y005072D01*
X010640Y005111D01*
X010639Y005111D02*
X010639Y006988D01*
X011039Y003512D02*
X011062Y003438D01*
X011081Y003362D01*
X011095Y003286D01*
X011106Y003209D01*
X011114Y003132D01*
X011117Y003055D01*
X011116Y002977D01*
X011111Y002900D01*
X011103Y002823D01*
X011091Y002746D01*
X011074Y002670D01*
X011054Y002595D01*
X011030Y002522D01*
X011003Y002449D01*
X010972Y002378D01*
X010937Y002309D01*
X010899Y002241D01*
X010857Y002176D01*
X010813Y002112D01*
X010765Y002052D01*
X010714Y001993D01*
X010660Y001937D01*
X010603Y001884D01*
X010544Y001834D01*
X010483Y001787D01*
X010419Y001743D01*
X010353Y001702D01*
X010285Y001665D01*
X010215Y001631D01*
X010143Y001601D01*
X010070Y001575D01*
X009996Y001552D01*
X009921Y001533D01*
X009845Y001518D01*
X009768Y001506D01*
X009691Y001499D01*
X009614Y001495D01*
X009536Y001496D01*
X009459Y001500D01*
X009382Y001508D01*
X009305Y001520D01*
X009229Y001536D01*
X009154Y001556D01*
X009080Y001579D01*
X009008Y001606D01*
X008937Y001637D01*
X008867Y001672D01*
X008799Y001710D01*
X008734Y001751D01*
X008670Y001795D01*
X008609Y001843D01*
X008550Y001893D01*
X008494Y001947D01*
X008441Y002003D01*
X008390Y002062D01*
X008343Y002124D01*
X008299Y002187D01*
X008749Y002337D02*
X008791Y002290D01*
X008836Y002245D01*
X008884Y002204D01*
X008934Y002165D01*
X008987Y002129D01*
X009041Y002097D01*
X009098Y002068D01*
X009156Y002042D01*
X009215Y002020D01*
X009276Y002002D01*
X009338Y001987D01*
X009401Y001977D01*
X009464Y001970D01*
X009527Y001967D01*
X009591Y001968D01*
X009654Y001973D01*
X009717Y001982D01*
X009779Y001994D01*
X009840Y002011D01*
X009900Y002031D01*
X009959Y002054D01*
X010017Y002082D01*
X010072Y002112D01*
X010126Y002146D01*
X010177Y002184D01*
X010226Y002224D01*
X010272Y002267D01*
X010316Y002313D01*
X010357Y002362D01*
X010395Y002413D01*
X010429Y002466D01*
X010460Y002522D01*
X010488Y002579D01*
X010512Y002637D01*
X010533Y002697D01*
X010550Y002759D01*
X010563Y002821D01*
X010572Y002883D01*
X010577Y002947D01*
X010579Y003010D01*
X010577Y003074D01*
X010570Y003137D01*
X010560Y003199D01*
X010546Y003261D01*
X010529Y003322D01*
X010507Y003382D01*
X010482Y003440D01*
D11*
X009680Y004563D02*
X009682Y004585D01*
X009688Y004606D01*
X009697Y004625D01*
X009709Y004643D01*
X009725Y004659D01*
X009742Y004671D01*
X009762Y004680D01*
X009783Y004686D01*
X009805Y004688D01*
X009827Y004686D01*
X009848Y004680D01*
X009867Y004671D01*
X009885Y004659D01*
X009901Y004643D01*
X009913Y004625D01*
X009922Y004606D01*
X009928Y004585D01*
X009930Y004563D01*
X009928Y004541D01*
X009922Y004520D01*
X009913Y004501D01*
X009901Y004483D01*
X009885Y004467D01*
X009868Y004455D01*
X009848Y004446D01*
X009827Y004440D01*
X009805Y004438D01*
X009783Y004440D01*
X009762Y004446D01*
X009742Y004455D01*
X009725Y004467D01*
X009709Y004483D01*
X009697Y004500D01*
X009688Y004520D01*
X009682Y004541D01*
X009680Y004563D01*
X009185Y004563D02*
X009187Y004585D01*
X009193Y004606D01*
X009202Y004625D01*
X009214Y004643D01*
X009230Y004659D01*
X009247Y004671D01*
X009267Y004680D01*
X009288Y004686D01*
X009310Y004688D01*
X009332Y004686D01*
X009353Y004680D01*
X009372Y004671D01*
X009390Y004659D01*
X009406Y004643D01*
X009418Y004625D01*
X009427Y004606D01*
X009433Y004585D01*
X009435Y004563D01*
X009433Y004541D01*
X009427Y004520D01*
X009418Y004501D01*
X009406Y004483D01*
X009390Y004467D01*
X009373Y004455D01*
X009353Y004446D01*
X009332Y004440D01*
X009310Y004438D01*
X009288Y004440D01*
X009267Y004446D01*
X009247Y004455D01*
X009230Y004467D01*
X009214Y004483D01*
X009202Y004500D01*
X009193Y004520D01*
X009187Y004541D01*
X009185Y004563D01*
X010659Y007155D02*
X010661Y007172D01*
X010666Y007189D01*
X010675Y007203D01*
X010687Y007216D01*
X010702Y007226D01*
X010718Y007232D01*
X010735Y007235D01*
X010752Y007234D01*
X010769Y007229D01*
X010784Y007221D01*
X010797Y007210D01*
X010808Y007196D01*
X010815Y007181D01*
X010819Y007164D01*
X010819Y007146D01*
X010815Y007129D01*
X010808Y007114D01*
X010797Y007100D01*
X010784Y007089D01*
X010769Y007081D01*
X010752Y007076D01*
X010735Y007075D01*
X010718Y007078D01*
X010702Y007084D01*
X010687Y007094D01*
X010675Y007107D01*
X010666Y007121D01*
X010661Y007138D01*
X010659Y007155D01*
X010659Y007380D02*
X010661Y007397D01*
X010666Y007414D01*
X010675Y007428D01*
X010687Y007441D01*
X010702Y007451D01*
X010718Y007457D01*
X010735Y007460D01*
X010752Y007459D01*
X010769Y007454D01*
X010784Y007446D01*
X010797Y007435D01*
X010808Y007421D01*
X010815Y007406D01*
X010819Y007389D01*
X010819Y007371D01*
X010815Y007354D01*
X010808Y007339D01*
X010797Y007325D01*
X010784Y007314D01*
X010769Y007306D01*
X010752Y007301D01*
X010735Y007300D01*
X010718Y007303D01*
X010702Y007309D01*
X010687Y007319D01*
X010675Y007332D01*
X010666Y007346D01*
X010661Y007363D01*
X010659Y007380D01*
X010659Y007605D02*
X010661Y007622D01*
X010666Y007639D01*
X010675Y007653D01*
X010687Y007666D01*
X010702Y007676D01*
X010718Y007682D01*
X010735Y007685D01*
X010752Y007684D01*
X010769Y007679D01*
X010784Y007671D01*
X010797Y007660D01*
X010808Y007646D01*
X010815Y007631D01*
X010819Y007614D01*
X010819Y007596D01*
X010815Y007579D01*
X010808Y007564D01*
X010797Y007550D01*
X010784Y007539D01*
X010769Y007531D01*
X010752Y007526D01*
X010735Y007525D01*
X010718Y007528D01*
X010702Y007534D01*
X010687Y007544D01*
X010675Y007557D01*
X010666Y007571D01*
X010661Y007588D01*
X010659Y007605D01*
X010659Y007830D02*
X010661Y007847D01*
X010666Y007864D01*
X010675Y007878D01*
X010687Y007891D01*
X010702Y007901D01*
X010718Y007907D01*
X010735Y007910D01*
X010752Y007909D01*
X010769Y007904D01*
X010784Y007896D01*
X010797Y007885D01*
X010808Y007871D01*
X010815Y007856D01*
X010819Y007839D01*
X010819Y007821D01*
X010815Y007804D01*
X010808Y007789D01*
X010797Y007775D01*
X010784Y007764D01*
X010769Y007756D01*
X010752Y007751D01*
X010735Y007750D01*
X010718Y007753D01*
X010702Y007759D01*
X010687Y007769D01*
X010675Y007782D01*
X010666Y007796D01*
X010661Y007813D01*
X010659Y007830D01*
X003656Y007858D02*
X003658Y007875D01*
X003663Y007892D01*
X003672Y007906D01*
X003684Y007919D01*
X003699Y007929D01*
X003715Y007935D01*
X003732Y007938D01*
X003749Y007937D01*
X003766Y007932D01*
X003781Y007924D01*
X003794Y007913D01*
X003805Y007899D01*
X003812Y007884D01*
X003816Y007867D01*
X003816Y007849D01*
X003812Y007832D01*
X003805Y007817D01*
X003794Y007803D01*
X003781Y007792D01*
X003766Y007784D01*
X003749Y007779D01*
X003732Y007778D01*
X003715Y007781D01*
X003699Y007787D01*
X003684Y007797D01*
X003672Y007810D01*
X003663Y007824D01*
X003658Y007841D01*
X003656Y007858D01*
X003656Y007633D02*
X003658Y007650D01*
X003663Y007667D01*
X003672Y007681D01*
X003684Y007694D01*
X003699Y007704D01*
X003715Y007710D01*
X003732Y007713D01*
X003749Y007712D01*
X003766Y007707D01*
X003781Y007699D01*
X003794Y007688D01*
X003805Y007674D01*
X003812Y007659D01*
X003816Y007642D01*
X003816Y007624D01*
X003812Y007607D01*
X003805Y007592D01*
X003794Y007578D01*
X003781Y007567D01*
X003766Y007559D01*
X003749Y007554D01*
X003732Y007553D01*
X003715Y007556D01*
X003699Y007562D01*
X003684Y007572D01*
X003672Y007585D01*
X003663Y007599D01*
X003658Y007616D01*
X003656Y007633D01*
X003656Y007408D02*
X003658Y007425D01*
X003663Y007442D01*
X003672Y007456D01*
X003684Y007469D01*
X003699Y007479D01*
X003715Y007485D01*
X003732Y007488D01*
X003749Y007487D01*
X003766Y007482D01*
X003781Y007474D01*
X003794Y007463D01*
X003805Y007449D01*
X003812Y007434D01*
X003816Y007417D01*
X003816Y007399D01*
X003812Y007382D01*
X003805Y007367D01*
X003794Y007353D01*
X003781Y007342D01*
X003766Y007334D01*
X003749Y007329D01*
X003732Y007328D01*
X003715Y007331D01*
X003699Y007337D01*
X003684Y007347D01*
X003672Y007360D01*
X003663Y007374D01*
X003658Y007391D01*
X003656Y007408D01*
X003656Y007183D02*
X003658Y007200D01*
X003663Y007217D01*
X003672Y007231D01*
X003684Y007244D01*
X003699Y007254D01*
X003715Y007260D01*
X003732Y007263D01*
X003749Y007262D01*
X003766Y007257D01*
X003781Y007249D01*
X003794Y007238D01*
X003805Y007224D01*
X003812Y007209D01*
X003816Y007192D01*
X003816Y007174D01*
X003812Y007157D01*
X003805Y007142D01*
X003794Y007128D01*
X003781Y007117D01*
X003766Y007109D01*
X003749Y007104D01*
X003732Y007103D01*
X003715Y007106D01*
X003699Y007112D01*
X003684Y007122D01*
X003672Y007135D01*
X003663Y007149D01*
X003658Y007166D01*
X003656Y007183D01*
D12*
X004810Y006417D02*
X004810Y006173D01*
X004812Y006153D01*
X004817Y006134D01*
X004826Y006116D01*
X004838Y006100D01*
X004853Y006087D01*
X004870Y006076D01*
X004888Y006069D01*
X004908Y006065D01*
X004928Y006065D01*
X004948Y006069D01*
X004966Y006076D01*
X004983Y006087D01*
X004998Y006100D01*
X005010Y006116D01*
X005019Y006134D01*
X005024Y006153D01*
X005026Y006173D01*
X005026Y006417D01*
X005024Y006437D01*
X005019Y006456D01*
X005010Y006474D01*
X004998Y006490D01*
X004983Y006503D01*
X004966Y006514D01*
X004948Y006521D01*
X004928Y006525D01*
X004908Y006525D01*
X004888Y006521D01*
X004870Y006514D01*
X004853Y006503D01*
X004838Y006490D01*
X004826Y006474D01*
X004817Y006456D01*
X004812Y006437D01*
X004810Y006417D01*
X004810Y004921D02*
X004810Y004677D01*
X004812Y004657D01*
X004817Y004638D01*
X004826Y004620D01*
X004838Y004604D01*
X004853Y004591D01*
X004870Y004580D01*
X004888Y004573D01*
X004908Y004569D01*
X004928Y004569D01*
X004948Y004573D01*
X004966Y004580D01*
X004983Y004591D01*
X004998Y004604D01*
X005010Y004620D01*
X005019Y004638D01*
X005024Y004657D01*
X005026Y004677D01*
X005026Y004921D01*
X005024Y004941D01*
X005019Y004960D01*
X005010Y004978D01*
X004998Y004994D01*
X004983Y005007D01*
X004966Y005018D01*
X004948Y005025D01*
X004928Y005029D01*
X004908Y005029D01*
X004888Y005025D01*
X004870Y005018D01*
X004853Y005007D01*
X004838Y004994D01*
X004826Y004978D01*
X004817Y004960D01*
X004812Y004941D01*
X004810Y004921D01*
X008211Y004921D02*
X008211Y004677D01*
X008212Y004677D02*
X008214Y004657D01*
X008219Y004638D01*
X008228Y004620D01*
X008240Y004604D01*
X008255Y004591D01*
X008272Y004580D01*
X008290Y004573D01*
X008310Y004569D01*
X008330Y004569D01*
X008350Y004573D01*
X008368Y004580D01*
X008385Y004591D01*
X008400Y004604D01*
X008412Y004620D01*
X008421Y004638D01*
X008426Y004657D01*
X008428Y004677D01*
X008428Y004921D01*
X008426Y004941D01*
X008421Y004960D01*
X008412Y004978D01*
X008400Y004994D01*
X008385Y005007D01*
X008368Y005018D01*
X008350Y005025D01*
X008330Y005029D01*
X008310Y005029D01*
X008290Y005025D01*
X008272Y005018D01*
X008255Y005007D01*
X008240Y004994D01*
X008228Y004978D01*
X008219Y004960D01*
X008214Y004941D01*
X008212Y004921D01*
X008211Y006173D02*
X008211Y006417D01*
X008212Y006417D02*
X008214Y006437D01*
X008219Y006456D01*
X008228Y006474D01*
X008240Y006490D01*
X008255Y006503D01*
X008272Y006514D01*
X008290Y006521D01*
X008310Y006525D01*
X008330Y006525D01*
X008350Y006521D01*
X008368Y006514D01*
X008385Y006503D01*
X008400Y006490D01*
X008412Y006474D01*
X008421Y006456D01*
X008426Y006437D01*
X008428Y006417D01*
X008428Y006173D01*
X008426Y006153D01*
X008421Y006134D01*
X008412Y006116D01*
X008400Y006100D01*
X008385Y006087D01*
X008368Y006076D01*
X008350Y006069D01*
X008330Y006065D01*
X008310Y006065D01*
X008290Y006069D01*
X008272Y006076D01*
X008255Y006087D01*
X008240Y006100D01*
X008228Y006116D01*
X008219Y006134D01*
X008214Y006153D01*
X008212Y006173D01*
M02*
