%
M48
M72
T01C0.0120
T02C0.0140
T03C0.0160
T04C0.0250
T05C0.0260
T06C0.0500
T07C0.0860
%
T01
X4082Y4713
X4082Y5863
X4232Y6413
X4232Y6738
X4232Y7063
X4732Y8838
X4232Y9363
X3932Y9363
X3632Y9363
X3332Y9363
X3032Y9363
X3032Y10663
X3332Y10663
X3632Y10663
X3932Y10663
X4232Y10663
X5582Y9198
X7632Y10763
X7632Y11063
X7632Y11363
X8232Y10038
X8232Y9198
X8482Y8713
X7932Y7513
X7932Y7213
X7932Y6913
X8232Y7063
X8232Y7363
X9282Y5913
X9732Y5363
X10132Y5463
X10382Y6113
X11902Y6863
X11902Y7963
X10382Y9113
X9932Y10213
X9232Y12163
X9232Y12463
X9232Y12763
X9532Y12613
X9532Y12313
X8782Y5363
X9282Y3913
X10116Y2797
X902Y6963
X902Y7963
T02
X2475Y9500
X2475Y9850
X2475Y10575
X2475Y10925
T03
X3736Y7858
X3736Y7633
X3736Y7408
X3736Y7183
X5682Y12263
X6532Y12263
X10739Y7830
X10739Y7605
X10739Y7380
X10739Y7155
T04
X9805Y4563
X9310Y4563
T05
X7832Y8113
X6882Y9763
X7800Y9850
X8700Y11400
X6566Y8197
T06
X2182Y10213
T07
X9197Y7253
M30
