G75*
G70*
%OFA0B0*%
%FSLAX24Y24*%
%IPPOS*%
%LPD*%
%AMOC8*
5,1,8,0,0,1.08239X$1,22.5*
%
%ADD10C,0.0050*%
%ADD11C,0.0000*%
%ADD12C,0.0004*%
%ADD13C,0.0433*%
%ADD14C,0.0900*%
%ADD15C,0.0500*%
%ADD16C,0.1000*%
%ADD17C,0.1400*%
%ADD18C,0.0080*%
%ADD19C,0.0240*%
%ADD20C,0.1500*%
%ADD21C,0.0200*%
%ADD22C,0.0100*%
%ADD23C,0.0390*%
%ADD24C,0.0240*%
%ADD25C,0.0260*%
%ADD26C,0.0400*%
%ADD27C,0.0160*%
%ADD28C,0.0280*%
%ADD29C,0.0140*%
D10*
X000500Y001000D02*
X000500Y015750D01*
X000502Y015794D01*
X000508Y015837D01*
X000517Y015879D01*
X000530Y015921D01*
X000547Y015961D01*
X000567Y016000D01*
X000590Y016037D01*
X000617Y016071D01*
X000646Y016104D01*
X000679Y016133D01*
X000713Y016160D01*
X000750Y016183D01*
X000789Y016203D01*
X000829Y016220D01*
X000871Y016233D01*
X000913Y016242D01*
X000956Y016248D01*
X001000Y016250D01*
X011800Y016250D01*
X011844Y016248D01*
X011887Y016242D01*
X011929Y016233D01*
X011971Y016220D01*
X012011Y016203D01*
X012050Y016183D01*
X012087Y016160D01*
X012121Y016133D01*
X012154Y016104D01*
X012183Y016071D01*
X012210Y016037D01*
X012233Y016000D01*
X012253Y015961D01*
X012270Y015921D01*
X012283Y015879D01*
X012292Y015837D01*
X012298Y015794D01*
X012300Y015750D01*
X012300Y001000D01*
X012298Y000956D01*
X012292Y000913D01*
X012283Y000871D01*
X012270Y000829D01*
X012253Y000789D01*
X012233Y000750D01*
X012210Y000713D01*
X012183Y000679D01*
X012154Y000646D01*
X012121Y000617D01*
X012087Y000590D01*
X012050Y000567D01*
X012011Y000547D01*
X011971Y000530D01*
X011929Y000517D01*
X011887Y000508D01*
X011844Y000502D01*
X011800Y000500D01*
X001000Y000500D01*
X000956Y000502D01*
X000913Y000508D01*
X000871Y000517D01*
X000829Y000530D01*
X000789Y000547D01*
X000750Y000567D01*
X000713Y000590D01*
X000679Y000617D01*
X000646Y000646D01*
X000617Y000679D01*
X000590Y000713D01*
X000567Y000750D01*
X000547Y000789D01*
X000530Y000829D01*
X000517Y000871D01*
X000508Y000913D01*
X000502Y000956D01*
X000500Y001000D01*
X003336Y004163D02*
X008300Y004163D01*
X008300Y002187D01*
X008750Y002337D02*
X008750Y003912D01*
X008749Y003912D02*
X008721Y003931D01*
X008695Y003952D01*
X008672Y003976D01*
X008652Y004003D01*
X008635Y004032D01*
X008621Y004063D01*
X008611Y004095D01*
X008605Y004128D01*
X008602Y004161D01*
X008603Y004195D01*
X008608Y004228D01*
X008617Y004260D01*
X008629Y004292D01*
X008645Y004321D01*
X008664Y004349D01*
X008686Y004374D01*
X008710Y004397D01*
X008738Y004417D01*
X008767Y004433D01*
X008798Y004446D01*
X008830Y004456D01*
X008863Y004462D01*
X008896Y004464D01*
X008896Y004463D02*
X008896Y004650D01*
X003836Y004463D01*
X003836Y006988D01*
X003336Y006988D01*
X003336Y004163D01*
X003336Y008022D02*
X003836Y008022D01*
X003836Y008715D01*
X003830Y008748D01*
X003821Y008780D01*
X003808Y008811D01*
X003792Y008840D01*
X003774Y008867D01*
X003752Y008893D01*
X003728Y008916D01*
X003702Y008936D01*
X003674Y008954D01*
X003644Y008968D01*
X003613Y008979D01*
X003581Y008987D01*
X003548Y008992D01*
X003515Y008993D01*
X003482Y008991D01*
X003481Y008991D02*
X002487Y008991D01*
X002454Y008993D01*
X002422Y008998D01*
X002390Y009006D01*
X002359Y009018D01*
X002330Y009033D01*
X002302Y009051D01*
X002276Y009072D01*
X002253Y009095D01*
X002232Y009121D01*
X002214Y009148D01*
X002199Y009178D01*
X002187Y009209D01*
X002179Y009241D01*
X002174Y009273D01*
X002172Y009306D01*
X002172Y011879D01*
X001872Y012179D02*
X001874Y012212D01*
X001879Y012244D01*
X001887Y012276D01*
X001899Y012307D01*
X001914Y012336D01*
X001932Y012364D01*
X001953Y012390D01*
X001976Y012413D01*
X002002Y012434D01*
X002030Y012452D01*
X002059Y012467D01*
X002090Y012479D01*
X002122Y012487D01*
X002154Y012492D01*
X002187Y012494D01*
X003877Y012494D01*
X003901Y012499D01*
X003925Y012508D01*
X003946Y012520D01*
X003966Y012535D01*
X003984Y012552D01*
X003999Y012572D01*
X004010Y012594D01*
X004019Y012617D01*
X004024Y012642D01*
X004026Y012666D01*
X004024Y012691D01*
X004024Y014600D01*
X004324Y014600D02*
X004324Y012391D01*
X004326Y012366D01*
X004324Y012342D01*
X004319Y012317D01*
X004310Y012294D01*
X004299Y012272D01*
X004284Y012252D01*
X004266Y012235D01*
X004246Y012220D01*
X004225Y012208D01*
X004201Y012199D01*
X004177Y012194D01*
X002487Y012194D01*
X002454Y012192D01*
X002422Y012187D01*
X002390Y012179D01*
X002359Y012167D01*
X002330Y012152D01*
X002302Y012134D01*
X002276Y012113D01*
X002253Y012090D01*
X002232Y012064D01*
X002214Y012036D01*
X002199Y012007D01*
X002187Y011976D01*
X002179Y011944D01*
X002174Y011912D01*
X002172Y011879D01*
X001872Y012179D02*
X001872Y009006D01*
X001874Y008973D01*
X001879Y008941D01*
X001887Y008909D01*
X001899Y008878D01*
X001914Y008848D01*
X001932Y008821D01*
X001953Y008795D01*
X001976Y008772D01*
X002002Y008751D01*
X002030Y008733D01*
X002059Y008718D01*
X002090Y008706D01*
X002122Y008698D01*
X002154Y008693D01*
X002187Y008691D01*
X002981Y008691D01*
X002982Y008691D02*
X003015Y008693D01*
X003048Y008692D01*
X003081Y008687D01*
X003113Y008679D01*
X003144Y008668D01*
X003174Y008654D01*
X003202Y008636D01*
X003228Y008616D01*
X003252Y008593D01*
X003274Y008567D01*
X003292Y008540D01*
X003308Y008511D01*
X003321Y008480D01*
X003330Y008448D01*
X003336Y008415D01*
X003336Y008022D01*
X006436Y013273D02*
X006436Y014600D01*
X006736Y014600D02*
X006732Y014650D01*
X006724Y014700D01*
X006712Y014749D01*
X006696Y014796D01*
X006677Y014843D01*
X006654Y014888D01*
X006628Y014930D01*
X006599Y014971D01*
X006566Y015009D01*
X006531Y015045D01*
X006492Y015078D01*
X006452Y015107D01*
X006409Y015133D01*
X006364Y015156D01*
X006318Y015175D01*
X006270Y015191D01*
X006221Y015203D01*
X006171Y015211D01*
X006121Y015215D01*
X006071Y015215D01*
X004689Y015215D01*
X004689Y014915D02*
X006071Y014915D01*
X006107Y014916D01*
X006142Y014913D01*
X006177Y014906D01*
X006211Y014896D01*
X006244Y014882D01*
X006276Y014865D01*
X006305Y014844D01*
X006332Y014821D01*
X006356Y014795D01*
X006378Y014767D01*
X006397Y014736D01*
X006412Y014704D01*
X006423Y014670D01*
X006432Y014635D01*
X006436Y014600D01*
X006736Y014600D02*
X006736Y013673D01*
X009855Y013673D01*
X009655Y013273D02*
X006436Y013273D01*
X004689Y015215D02*
X004641Y015215D01*
X004593Y015211D01*
X004546Y015204D01*
X004499Y015193D01*
X004454Y015179D01*
X004409Y015162D01*
X004366Y015141D01*
X004324Y015117D01*
X004285Y015091D01*
X004247Y015061D01*
X004212Y015028D01*
X004180Y014993D01*
X004150Y014956D01*
X004123Y014916D01*
X004099Y014875D01*
X004078Y014832D01*
X004060Y014787D01*
X004046Y014742D01*
X004035Y014695D01*
X004028Y014648D01*
X004024Y014600D01*
X004324Y014600D02*
X004328Y014635D01*
X004337Y014670D01*
X004348Y014704D01*
X004363Y014736D01*
X004382Y014767D01*
X004404Y014795D01*
X004428Y014821D01*
X004455Y014844D01*
X004484Y014865D01*
X004516Y014882D01*
X004549Y014896D01*
X004583Y014906D01*
X004618Y014913D01*
X004653Y014916D01*
X004689Y014915D01*
X008741Y010413D02*
X008741Y007703D01*
X008743Y007662D01*
X008748Y007622D01*
X008757Y007582D01*
X008770Y007543D01*
X008786Y007506D01*
X008805Y007470D01*
X008828Y007436D01*
X008853Y007404D01*
X008882Y007374D01*
X008912Y007347D01*
X008945Y007323D01*
X008980Y007302D01*
X009017Y007285D01*
X009055Y007270D01*
X009095Y007259D01*
X009135Y007252D01*
X009176Y007248D01*
X009216Y007248D01*
X009257Y007252D01*
X009297Y007259D01*
X009337Y007270D01*
X009375Y007285D01*
X009412Y007302D01*
X009447Y007323D01*
X009480Y007347D01*
X009510Y007374D01*
X009539Y007404D01*
X009564Y007436D01*
X009587Y007470D01*
X009606Y007506D01*
X009622Y007543D01*
X009635Y007582D01*
X009644Y007622D01*
X009649Y007662D01*
X009651Y007703D01*
X009651Y010413D01*
X009649Y010454D01*
X009644Y010494D01*
X009635Y010534D01*
X009622Y010573D01*
X009606Y010610D01*
X009587Y010646D01*
X009564Y010680D01*
X009539Y010712D01*
X009510Y010742D01*
X009480Y010769D01*
X009447Y010793D01*
X009412Y010814D01*
X009375Y010831D01*
X009337Y010846D01*
X009297Y010857D01*
X009257Y010864D01*
X009216Y010868D01*
X009176Y010868D01*
X009135Y010864D01*
X009095Y010857D01*
X009055Y010846D01*
X009017Y010831D01*
X008980Y010814D01*
X008945Y010793D01*
X008912Y010769D01*
X008882Y010742D01*
X008853Y010712D01*
X008828Y010680D01*
X008805Y010646D01*
X008786Y010610D01*
X008770Y010573D01*
X008757Y010534D01*
X008748Y010494D01*
X008743Y010454D01*
X008741Y010413D01*
X009970Y011199D02*
X009970Y012919D01*
X010270Y013218D02*
X010270Y013258D01*
X010266Y013299D01*
X010258Y013338D01*
X010247Y013377D01*
X010233Y013414D01*
X010215Y013450D01*
X010194Y013484D01*
X010169Y013516D01*
X010142Y013546D01*
X010113Y013573D01*
X010080Y013597D01*
X010046Y013618D01*
X010010Y013636D01*
X009973Y013651D01*
X009934Y013662D01*
X009895Y013669D01*
X009855Y013673D01*
X010270Y013219D02*
X010270Y011499D01*
X009970Y011199D02*
X009974Y011151D01*
X009980Y011103D01*
X009991Y011055D01*
X010005Y011009D01*
X010022Y010963D01*
X010043Y010919D01*
X010067Y010877D01*
X010094Y010837D01*
X010124Y010799D01*
X010157Y010763D01*
X010193Y010729D01*
X010230Y010699D01*
X010270Y010671D01*
X010312Y010646D01*
X010356Y010625D01*
X010401Y010607D01*
X010447Y010592D01*
X010495Y010581D01*
X010543Y010574D01*
X010591Y010570D01*
X010640Y010569D01*
X010639Y010569D02*
X010639Y008022D01*
X011039Y008022D01*
X011039Y010869D01*
X010939Y010869D01*
X010940Y010869D02*
X010891Y010870D01*
X010843Y010874D01*
X010795Y010881D01*
X010747Y010892D01*
X010701Y010907D01*
X010656Y010925D01*
X010612Y010946D01*
X010570Y010971D01*
X010530Y010999D01*
X010493Y011029D01*
X010457Y011063D01*
X010424Y011099D01*
X010394Y011137D01*
X010367Y011177D01*
X010343Y011219D01*
X010322Y011263D01*
X010305Y011309D01*
X010291Y011355D01*
X010280Y011403D01*
X010274Y011451D01*
X010270Y011499D01*
X009969Y012918D02*
X009970Y012953D01*
X009966Y012988D01*
X009959Y013023D01*
X009949Y013056D01*
X009934Y013088D01*
X009917Y013119D01*
X009897Y013147D01*
X009873Y013173D01*
X009847Y013197D01*
X009819Y013218D01*
X009789Y013236D01*
X009757Y013250D01*
X009724Y013261D01*
X009690Y013269D01*
X009655Y013272D01*
X010639Y006988D02*
X011039Y006988D01*
X011039Y003511D01*
X010482Y003440D02*
X010482Y004148D01*
X010483Y004181D01*
X010480Y004213D01*
X010474Y004245D01*
X010464Y004276D01*
X010451Y004306D01*
X010434Y004334D01*
X010415Y004360D01*
X010392Y004384D01*
X010367Y004405D01*
X010340Y004423D01*
X010311Y004438D01*
X010281Y004450D01*
X010249Y004458D01*
X010217Y004463D01*
X010217Y004718D01*
X010246Y004718D01*
X010246Y004717D02*
X010285Y004719D01*
X010323Y004725D01*
X010360Y004734D01*
X010397Y004747D01*
X010432Y004764D01*
X010465Y004783D01*
X010496Y004806D01*
X010525Y004832D01*
X010551Y004861D01*
X010574Y004892D01*
X010593Y004925D01*
X010610Y004960D01*
X010623Y004997D01*
X010632Y005034D01*
X010638Y005072D01*
X010640Y005111D01*
X010639Y005111D02*
X010639Y006988D01*
X011039Y003512D02*
X011062Y003438D01*
X011081Y003362D01*
X011095Y003286D01*
X011106Y003209D01*
X011114Y003132D01*
X011117Y003055D01*
X011116Y002977D01*
X011111Y002900D01*
X011103Y002823D01*
X011091Y002746D01*
X011074Y002670D01*
X011054Y002595D01*
X011030Y002522D01*
X011003Y002449D01*
X010972Y002378D01*
X010937Y002309D01*
X010899Y002241D01*
X010857Y002176D01*
X010813Y002112D01*
X010765Y002052D01*
X010714Y001993D01*
X010660Y001937D01*
X010603Y001884D01*
X010544Y001834D01*
X010483Y001787D01*
X010419Y001743D01*
X010353Y001702D01*
X010285Y001665D01*
X010215Y001631D01*
X010143Y001601D01*
X010070Y001575D01*
X009996Y001552D01*
X009921Y001533D01*
X009845Y001518D01*
X009768Y001506D01*
X009691Y001499D01*
X009614Y001495D01*
X009536Y001496D01*
X009459Y001500D01*
X009382Y001508D01*
X009305Y001520D01*
X009229Y001536D01*
X009154Y001556D01*
X009080Y001579D01*
X009008Y001606D01*
X008937Y001637D01*
X008867Y001672D01*
X008799Y001710D01*
X008734Y001751D01*
X008670Y001795D01*
X008609Y001843D01*
X008550Y001893D01*
X008494Y001947D01*
X008441Y002003D01*
X008390Y002062D01*
X008343Y002124D01*
X008299Y002187D01*
X008749Y002337D02*
X008791Y002290D01*
X008836Y002245D01*
X008884Y002204D01*
X008934Y002165D01*
X008987Y002129D01*
X009041Y002097D01*
X009098Y002068D01*
X009156Y002042D01*
X009215Y002020D01*
X009276Y002002D01*
X009338Y001987D01*
X009401Y001977D01*
X009464Y001970D01*
X009527Y001967D01*
X009591Y001968D01*
X009654Y001973D01*
X009717Y001982D01*
X009779Y001994D01*
X009840Y002011D01*
X009900Y002031D01*
X009959Y002054D01*
X010017Y002082D01*
X010072Y002112D01*
X010126Y002146D01*
X010177Y002184D01*
X010226Y002224D01*
X010272Y002267D01*
X010316Y002313D01*
X010357Y002362D01*
X010395Y002413D01*
X010429Y002466D01*
X010460Y002522D01*
X010488Y002579D01*
X010512Y002637D01*
X010533Y002697D01*
X010550Y002759D01*
X010563Y002821D01*
X010572Y002883D01*
X010577Y002947D01*
X010579Y003010D01*
X010577Y003074D01*
X010570Y003137D01*
X010560Y003199D01*
X010546Y003261D01*
X010529Y003322D01*
X010507Y003382D01*
X010482Y003440D01*
D11*
X009680Y004563D02*
X009682Y004585D01*
X009688Y004606D01*
X009697Y004625D01*
X009709Y004643D01*
X009725Y004659D01*
X009742Y004671D01*
X009762Y004680D01*
X009783Y004686D01*
X009805Y004688D01*
X009827Y004686D01*
X009848Y004680D01*
X009867Y004671D01*
X009885Y004659D01*
X009901Y004643D01*
X009913Y004625D01*
X009922Y004606D01*
X009928Y004585D01*
X009930Y004563D01*
X009928Y004541D01*
X009922Y004520D01*
X009913Y004501D01*
X009901Y004483D01*
X009885Y004467D01*
X009868Y004455D01*
X009848Y004446D01*
X009827Y004440D01*
X009805Y004438D01*
X009783Y004440D01*
X009762Y004446D01*
X009742Y004455D01*
X009725Y004467D01*
X009709Y004483D01*
X009697Y004500D01*
X009688Y004520D01*
X009682Y004541D01*
X009680Y004563D01*
X009185Y004563D02*
X009187Y004585D01*
X009193Y004606D01*
X009202Y004625D01*
X009214Y004643D01*
X009230Y004659D01*
X009247Y004671D01*
X009267Y004680D01*
X009288Y004686D01*
X009310Y004688D01*
X009332Y004686D01*
X009353Y004680D01*
X009372Y004671D01*
X009390Y004659D01*
X009406Y004643D01*
X009418Y004625D01*
X009427Y004606D01*
X009433Y004585D01*
X009435Y004563D01*
X009433Y004541D01*
X009427Y004520D01*
X009418Y004501D01*
X009406Y004483D01*
X009390Y004467D01*
X009373Y004455D01*
X009353Y004446D01*
X009332Y004440D01*
X009310Y004438D01*
X009288Y004440D01*
X009267Y004446D01*
X009247Y004455D01*
X009230Y004467D01*
X009214Y004483D01*
X009202Y004500D01*
X009193Y004520D01*
X009187Y004541D01*
X009185Y004563D01*
X010659Y007155D02*
X010661Y007172D01*
X010666Y007189D01*
X010675Y007203D01*
X010687Y007216D01*
X010702Y007226D01*
X010718Y007232D01*
X010735Y007235D01*
X010752Y007234D01*
X010769Y007229D01*
X010784Y007221D01*
X010797Y007210D01*
X010808Y007196D01*
X010815Y007181D01*
X010819Y007164D01*
X010819Y007146D01*
X010815Y007129D01*
X010808Y007114D01*
X010797Y007100D01*
X010784Y007089D01*
X010769Y007081D01*
X010752Y007076D01*
X010735Y007075D01*
X010718Y007078D01*
X010702Y007084D01*
X010687Y007094D01*
X010675Y007107D01*
X010666Y007121D01*
X010661Y007138D01*
X010659Y007155D01*
X010659Y007380D02*
X010661Y007397D01*
X010666Y007414D01*
X010675Y007428D01*
X010687Y007441D01*
X010702Y007451D01*
X010718Y007457D01*
X010735Y007460D01*
X010752Y007459D01*
X010769Y007454D01*
X010784Y007446D01*
X010797Y007435D01*
X010808Y007421D01*
X010815Y007406D01*
X010819Y007389D01*
X010819Y007371D01*
X010815Y007354D01*
X010808Y007339D01*
X010797Y007325D01*
X010784Y007314D01*
X010769Y007306D01*
X010752Y007301D01*
X010735Y007300D01*
X010718Y007303D01*
X010702Y007309D01*
X010687Y007319D01*
X010675Y007332D01*
X010666Y007346D01*
X010661Y007363D01*
X010659Y007380D01*
X010659Y007605D02*
X010661Y007622D01*
X010666Y007639D01*
X010675Y007653D01*
X010687Y007666D01*
X010702Y007676D01*
X010718Y007682D01*
X010735Y007685D01*
X010752Y007684D01*
X010769Y007679D01*
X010784Y007671D01*
X010797Y007660D01*
X010808Y007646D01*
X010815Y007631D01*
X010819Y007614D01*
X010819Y007596D01*
X010815Y007579D01*
X010808Y007564D01*
X010797Y007550D01*
X010784Y007539D01*
X010769Y007531D01*
X010752Y007526D01*
X010735Y007525D01*
X010718Y007528D01*
X010702Y007534D01*
X010687Y007544D01*
X010675Y007557D01*
X010666Y007571D01*
X010661Y007588D01*
X010659Y007605D01*
X010659Y007830D02*
X010661Y007847D01*
X010666Y007864D01*
X010675Y007878D01*
X010687Y007891D01*
X010702Y007901D01*
X010718Y007907D01*
X010735Y007910D01*
X010752Y007909D01*
X010769Y007904D01*
X010784Y007896D01*
X010797Y007885D01*
X010808Y007871D01*
X010815Y007856D01*
X010819Y007839D01*
X010819Y007821D01*
X010815Y007804D01*
X010808Y007789D01*
X010797Y007775D01*
X010784Y007764D01*
X010769Y007756D01*
X010752Y007751D01*
X010735Y007750D01*
X010718Y007753D01*
X010702Y007759D01*
X010687Y007769D01*
X010675Y007782D01*
X010666Y007796D01*
X010661Y007813D01*
X010659Y007830D01*
X003656Y007858D02*
X003658Y007875D01*
X003663Y007892D01*
X003672Y007906D01*
X003684Y007919D01*
X003699Y007929D01*
X003715Y007935D01*
X003732Y007938D01*
X003749Y007937D01*
X003766Y007932D01*
X003781Y007924D01*
X003794Y007913D01*
X003805Y007899D01*
X003812Y007884D01*
X003816Y007867D01*
X003816Y007849D01*
X003812Y007832D01*
X003805Y007817D01*
X003794Y007803D01*
X003781Y007792D01*
X003766Y007784D01*
X003749Y007779D01*
X003732Y007778D01*
X003715Y007781D01*
X003699Y007787D01*
X003684Y007797D01*
X003672Y007810D01*
X003663Y007824D01*
X003658Y007841D01*
X003656Y007858D01*
X003656Y007633D02*
X003658Y007650D01*
X003663Y007667D01*
X003672Y007681D01*
X003684Y007694D01*
X003699Y007704D01*
X003715Y007710D01*
X003732Y007713D01*
X003749Y007712D01*
X003766Y007707D01*
X003781Y007699D01*
X003794Y007688D01*
X003805Y007674D01*
X003812Y007659D01*
X003816Y007642D01*
X003816Y007624D01*
X003812Y007607D01*
X003805Y007592D01*
X003794Y007578D01*
X003781Y007567D01*
X003766Y007559D01*
X003749Y007554D01*
X003732Y007553D01*
X003715Y007556D01*
X003699Y007562D01*
X003684Y007572D01*
X003672Y007585D01*
X003663Y007599D01*
X003658Y007616D01*
X003656Y007633D01*
X003656Y007408D02*
X003658Y007425D01*
X003663Y007442D01*
X003672Y007456D01*
X003684Y007469D01*
X003699Y007479D01*
X003715Y007485D01*
X003732Y007488D01*
X003749Y007487D01*
X003766Y007482D01*
X003781Y007474D01*
X003794Y007463D01*
X003805Y007449D01*
X003812Y007434D01*
X003816Y007417D01*
X003816Y007399D01*
X003812Y007382D01*
X003805Y007367D01*
X003794Y007353D01*
X003781Y007342D01*
X003766Y007334D01*
X003749Y007329D01*
X003732Y007328D01*
X003715Y007331D01*
X003699Y007337D01*
X003684Y007347D01*
X003672Y007360D01*
X003663Y007374D01*
X003658Y007391D01*
X003656Y007408D01*
X003656Y007183D02*
X003658Y007200D01*
X003663Y007217D01*
X003672Y007231D01*
X003684Y007244D01*
X003699Y007254D01*
X003715Y007260D01*
X003732Y007263D01*
X003749Y007262D01*
X003766Y007257D01*
X003781Y007249D01*
X003794Y007238D01*
X003805Y007224D01*
X003812Y007209D01*
X003816Y007192D01*
X003816Y007174D01*
X003812Y007157D01*
X003805Y007142D01*
X003794Y007128D01*
X003781Y007117D01*
X003766Y007109D01*
X003749Y007104D01*
X003732Y007103D01*
X003715Y007106D01*
X003699Y007112D01*
X003684Y007122D01*
X003672Y007135D01*
X003663Y007149D01*
X003658Y007166D01*
X003656Y007183D01*
D12*
X004810Y006417D02*
X004810Y006173D01*
X004812Y006153D01*
X004817Y006134D01*
X004826Y006116D01*
X004838Y006100D01*
X004853Y006087D01*
X004870Y006076D01*
X004888Y006069D01*
X004908Y006065D01*
X004928Y006065D01*
X004948Y006069D01*
X004966Y006076D01*
X004983Y006087D01*
X004998Y006100D01*
X005010Y006116D01*
X005019Y006134D01*
X005024Y006153D01*
X005026Y006173D01*
X005026Y006417D01*
X005024Y006437D01*
X005019Y006456D01*
X005010Y006474D01*
X004998Y006490D01*
X004983Y006503D01*
X004966Y006514D01*
X004948Y006521D01*
X004928Y006525D01*
X004908Y006525D01*
X004888Y006521D01*
X004870Y006514D01*
X004853Y006503D01*
X004838Y006490D01*
X004826Y006474D01*
X004817Y006456D01*
X004812Y006437D01*
X004810Y006417D01*
X004810Y004921D02*
X004810Y004677D01*
X004812Y004657D01*
X004817Y004638D01*
X004826Y004620D01*
X004838Y004604D01*
X004853Y004591D01*
X004870Y004580D01*
X004888Y004573D01*
X004908Y004569D01*
X004928Y004569D01*
X004948Y004573D01*
X004966Y004580D01*
X004983Y004591D01*
X004998Y004604D01*
X005010Y004620D01*
X005019Y004638D01*
X005024Y004657D01*
X005026Y004677D01*
X005026Y004921D01*
X005024Y004941D01*
X005019Y004960D01*
X005010Y004978D01*
X004998Y004994D01*
X004983Y005007D01*
X004966Y005018D01*
X004948Y005025D01*
X004928Y005029D01*
X004908Y005029D01*
X004888Y005025D01*
X004870Y005018D01*
X004853Y005007D01*
X004838Y004994D01*
X004826Y004978D01*
X004817Y004960D01*
X004812Y004941D01*
X004810Y004921D01*
X008211Y004921D02*
X008211Y004677D01*
X008212Y004677D02*
X008214Y004657D01*
X008219Y004638D01*
X008228Y004620D01*
X008240Y004604D01*
X008255Y004591D01*
X008272Y004580D01*
X008290Y004573D01*
X008310Y004569D01*
X008330Y004569D01*
X008350Y004573D01*
X008368Y004580D01*
X008385Y004591D01*
X008400Y004604D01*
X008412Y004620D01*
X008421Y004638D01*
X008426Y004657D01*
X008428Y004677D01*
X008428Y004921D01*
X008426Y004941D01*
X008421Y004960D01*
X008412Y004978D01*
X008400Y004994D01*
X008385Y005007D01*
X008368Y005018D01*
X008350Y005025D01*
X008330Y005029D01*
X008310Y005029D01*
X008290Y005025D01*
X008272Y005018D01*
X008255Y005007D01*
X008240Y004994D01*
X008228Y004978D01*
X008219Y004960D01*
X008214Y004941D01*
X008212Y004921D01*
X008211Y006173D02*
X008211Y006417D01*
X008212Y006417D02*
X008214Y006437D01*
X008219Y006456D01*
X008228Y006474D01*
X008240Y006490D01*
X008255Y006503D01*
X008272Y006514D01*
X008290Y006521D01*
X008310Y006525D01*
X008330Y006525D01*
X008350Y006521D01*
X008368Y006514D01*
X008385Y006503D01*
X008400Y006490D01*
X008412Y006474D01*
X008421Y006456D01*
X008426Y006437D01*
X008428Y006417D01*
X008428Y006173D01*
X008426Y006153D01*
X008421Y006134D01*
X008412Y006116D01*
X008400Y006100D01*
X008385Y006087D01*
X008368Y006076D01*
X008350Y006069D01*
X008330Y006065D01*
X008310Y006065D01*
X008290Y006069D01*
X008272Y006076D01*
X008255Y006087D01*
X008240Y006100D01*
X008228Y006116D01*
X008219Y006134D01*
X008214Y006153D01*
X008212Y006173D01*
D13*
X008320Y006175D02*
X008320Y006175D01*
X008320Y006411D01*
X008320Y006411D01*
X008320Y006175D01*
X008320Y004679D02*
X008320Y004679D01*
X008320Y004915D01*
X008320Y004915D01*
X008320Y004679D01*
X004918Y004679D02*
X004918Y004679D01*
X004918Y004915D01*
X004918Y004915D01*
X004918Y004679D01*
X004918Y006175D02*
X004918Y006175D01*
X004918Y006411D01*
X004918Y006411D01*
X004918Y006175D01*
D14*
X004480Y007793D03*
X005780Y008213D03*
X007010Y007333D03*
X007010Y005433D03*
D15*
X009570Y003463D03*
X009570Y002463D03*
D16*
X002182Y010213D03*
D17*
X009197Y007253D03*
D18*
X009233Y007517D02*
X009159Y007517D01*
X009157Y007518D01*
X009157Y008093D01*
X009142Y008093D01*
X009033Y008079D01*
X009006Y008072D01*
X009006Y010413D01*
X009009Y010450D01*
X009038Y010519D01*
X009090Y010571D01*
X009159Y010600D01*
X009233Y010600D01*
X009301Y010571D01*
X009354Y010519D01*
X009382Y010450D01*
X009386Y010413D01*
X009386Y008073D01*
X009362Y008079D01*
X009252Y008093D01*
X009237Y008093D01*
X009237Y007519D01*
X009233Y007517D01*
X009237Y007565D02*
X009157Y007565D01*
X009157Y007644D02*
X009237Y007644D01*
X009237Y007722D02*
X009157Y007722D01*
X009157Y007801D02*
X009237Y007801D01*
X009237Y007879D02*
X009157Y007879D01*
X009157Y007958D02*
X009237Y007958D01*
X009237Y008036D02*
X009157Y008036D01*
X009006Y008115D02*
X009386Y008115D01*
X009386Y008193D02*
X009006Y008193D01*
X009006Y008272D02*
X009386Y008272D01*
X009386Y008350D02*
X009006Y008350D01*
X009006Y008429D02*
X009386Y008429D01*
X009386Y008507D02*
X009006Y008507D01*
X009006Y008586D02*
X009386Y008586D01*
X009386Y008664D02*
X009006Y008664D01*
X009006Y008743D02*
X009386Y008743D01*
X009386Y008821D02*
X009006Y008821D01*
X009006Y008900D02*
X009386Y008900D01*
X009386Y008978D02*
X009006Y008978D01*
X009006Y009057D02*
X009386Y009057D01*
X009386Y009135D02*
X009006Y009135D01*
X009006Y009214D02*
X009386Y009214D01*
X009386Y009292D02*
X009006Y009292D01*
X009006Y009371D02*
X009386Y009371D01*
X009386Y009449D02*
X009006Y009449D01*
X009006Y009528D02*
X009386Y009528D01*
X009386Y009606D02*
X009006Y009606D01*
X009006Y009685D02*
X009386Y009685D01*
X009386Y009763D02*
X009006Y009763D01*
X009006Y009842D02*
X009386Y009842D01*
X009386Y009920D02*
X009006Y009920D01*
X009006Y009999D02*
X009386Y009999D01*
X009386Y010077D02*
X009006Y010077D01*
X009006Y010156D02*
X009386Y010156D01*
X009386Y010234D02*
X009006Y010234D01*
X009006Y010313D02*
X009386Y010313D01*
X009386Y010391D02*
X009006Y010391D01*
X009017Y010470D02*
X009374Y010470D01*
X009325Y010548D02*
X009067Y010548D01*
X009075Y011343D02*
X009075Y011475D01*
X009018Y011612D01*
X008912Y011718D01*
X008775Y011775D01*
X008625Y011775D01*
X008488Y011718D01*
X008382Y011612D01*
X008325Y011475D01*
X008325Y011349D01*
X007546Y010570D01*
X007500Y010460D01*
X007500Y010370D01*
X007402Y010468D01*
X007292Y010513D01*
X002837Y010513D01*
X002837Y011339D01*
X002779Y011479D01*
X002673Y011586D01*
X002533Y011643D01*
X002437Y011643D01*
X002437Y011826D01*
X002437Y011879D01*
X002438Y011889D01*
X002445Y011907D01*
X002459Y011920D01*
X002477Y011928D01*
X002487Y011929D01*
X004144Y011929D01*
X004163Y011924D01*
X004196Y011929D01*
X004230Y011929D01*
X004248Y011936D01*
X004331Y011948D01*
X004331Y011948D01*
X004516Y012094D01*
X004516Y012094D01*
X004516Y012094D01*
X004603Y012312D01*
X004603Y012312D01*
X004589Y012410D01*
X004589Y014584D01*
X004591Y014595D01*
X004604Y014621D01*
X004626Y014641D01*
X004653Y014650D01*
X004679Y014650D01*
X004722Y014646D01*
X004731Y014650D01*
X006028Y014650D01*
X006038Y014646D01*
X006081Y014650D01*
X006106Y014650D01*
X006134Y014641D01*
X006156Y014621D01*
X006169Y014595D01*
X006171Y014584D01*
X006171Y013220D01*
X006211Y013123D01*
X006286Y013048D01*
X006383Y013008D01*
X009642Y013008D01*
X009653Y013006D01*
X009678Y012994D01*
X009696Y012974D01*
X009705Y012948D01*
X009705Y012946D01*
X009705Y012926D01*
X009702Y012881D01*
X009705Y012874D01*
X009705Y011247D01*
X009704Y011244D01*
X009705Y011206D01*
X009466Y011329D01*
X009385Y011336D01*
X009378Y011343D01*
X009292Y011343D01*
X009206Y011351D01*
X009205Y011350D01*
X009123Y011343D01*
X009075Y011343D01*
X009075Y011412D02*
X009705Y011412D01*
X009705Y011490D02*
X009069Y011490D01*
X009036Y011569D02*
X009705Y011569D01*
X009705Y011647D02*
X008983Y011647D01*
X008894Y011726D02*
X009705Y011726D01*
X009705Y011804D02*
X002437Y011804D01*
X002437Y011726D02*
X008506Y011726D01*
X008417Y011647D02*
X002437Y011647D01*
X002437Y011883D02*
X009705Y011883D01*
X009705Y011961D02*
X006638Y011961D01*
X006596Y011943D02*
X006469Y011943D01*
X006351Y011992D01*
X006330Y012013D01*
X005885Y012013D01*
X005864Y011992D01*
X005746Y011943D01*
X005619Y011943D01*
X005501Y011992D01*
X005411Y012082D01*
X005362Y012200D01*
X005362Y012327D01*
X005411Y012445D01*
X005501Y012535D01*
X005619Y012583D01*
X005746Y012583D01*
X005864Y012535D01*
X005885Y012513D01*
X006330Y012513D01*
X006351Y012535D01*
X006469Y012583D01*
X006596Y012583D01*
X006714Y012535D01*
X006804Y012445D01*
X006852Y012327D01*
X006852Y012200D01*
X006804Y012082D01*
X006714Y011992D01*
X006596Y011943D01*
X006761Y012040D02*
X009705Y012040D01*
X009705Y012118D02*
X006818Y012118D01*
X006851Y012197D02*
X009705Y012197D01*
X009705Y012275D02*
X006852Y012275D01*
X006841Y012354D02*
X009705Y012354D01*
X009705Y012432D02*
X006809Y012432D01*
X006738Y012511D02*
X009705Y012511D01*
X009705Y012589D02*
X004589Y012589D01*
X004589Y012511D02*
X005477Y012511D01*
X005406Y012432D02*
X004589Y012432D01*
X004597Y012354D02*
X005373Y012354D01*
X005362Y012275D02*
X004588Y012275D01*
X004557Y012197D02*
X005364Y012197D01*
X005396Y012118D02*
X004526Y012118D01*
X004447Y012040D02*
X005454Y012040D01*
X005576Y011961D02*
X004347Y011961D01*
X004589Y012668D02*
X009705Y012668D01*
X009705Y012746D02*
X004589Y012746D01*
X004589Y012825D02*
X009705Y012825D01*
X009704Y012903D02*
X004589Y012903D01*
X004589Y012982D02*
X009689Y012982D01*
X010446Y013608D02*
X010258Y013813D01*
X010006Y013931D01*
X009914Y013935D01*
X009908Y013938D01*
X009861Y013938D01*
X009814Y013940D01*
X009809Y013938D01*
X007001Y013938D01*
X007001Y014552D01*
X007003Y014557D01*
X007001Y014605D01*
X007001Y014652D01*
X006999Y014657D01*
X006994Y014790D01*
X006843Y015117D01*
X006843Y015117D01*
X006579Y015362D01*
X006241Y015486D01*
X006241Y015486D01*
X006066Y015480D01*
X004694Y015480D01*
X004556Y015485D01*
X004556Y015485D01*
X004280Y015407D01*
X004280Y015407D01*
X004041Y015248D01*
X003864Y015022D01*
X003765Y014753D01*
X003761Y014657D01*
X003759Y014652D01*
X003759Y014605D01*
X003757Y014557D01*
X003759Y014552D01*
X003759Y012759D01*
X002071Y012759D01*
X001858Y012670D01*
X001695Y012507D01*
X001607Y012294D01*
X001607Y010599D01*
X001606Y010599D01*
X001502Y010349D01*
X001502Y010078D01*
X001606Y009828D01*
X001607Y009827D01*
X001607Y008891D01*
X001695Y008677D01*
X001858Y008514D01*
X002071Y008426D01*
X002946Y008426D01*
X002962Y008421D01*
X002998Y008426D01*
X003033Y008426D01*
X003044Y008423D01*
X003060Y008410D01*
X003071Y008393D01*
X003071Y008392D01*
X003071Y007970D01*
X003111Y007872D01*
X003186Y007798D01*
X003283Y007757D01*
X003431Y007757D01*
X003436Y007745D01*
X003416Y007696D01*
X003416Y007569D01*
X003436Y007520D01*
X003416Y007471D01*
X003416Y007344D01*
X003436Y007295D01*
X003419Y007253D01*
X003283Y007253D01*
X003186Y007213D01*
X003111Y007138D01*
X003071Y007041D01*
X003071Y004111D01*
X000765Y004111D01*
X000765Y004033D02*
X003103Y004033D01*
X003111Y004013D02*
X003071Y004111D01*
X003071Y004190D02*
X000765Y004190D01*
X000765Y004268D02*
X003071Y004268D01*
X003071Y004347D02*
X000765Y004347D01*
X000765Y004425D02*
X003071Y004425D01*
X003071Y004504D02*
X000765Y004504D01*
X000765Y004582D02*
X003071Y004582D01*
X003071Y004661D02*
X000765Y004661D01*
X000765Y004739D02*
X003071Y004739D01*
X003071Y004818D02*
X000765Y004818D01*
X000765Y004896D02*
X003071Y004896D01*
X003071Y004975D02*
X000765Y004975D01*
X000765Y005053D02*
X003071Y005053D01*
X003071Y005132D02*
X000765Y005132D01*
X000765Y005210D02*
X003071Y005210D01*
X003071Y005289D02*
X000765Y005289D01*
X000765Y005367D02*
X003071Y005367D01*
X003071Y005446D02*
X000765Y005446D01*
X000765Y005524D02*
X003071Y005524D01*
X003071Y005603D02*
X000765Y005603D01*
X000765Y005681D02*
X003071Y005681D01*
X003071Y005760D02*
X000765Y005760D01*
X000765Y005838D02*
X003071Y005838D01*
X003071Y005917D02*
X000765Y005917D01*
X000765Y005995D02*
X003071Y005995D01*
X003071Y006074D02*
X000765Y006074D01*
X000765Y006152D02*
X003071Y006152D01*
X003071Y006231D02*
X000765Y006231D01*
X000765Y006309D02*
X003071Y006309D01*
X003071Y006388D02*
X000765Y006388D01*
X000765Y006466D02*
X003071Y006466D01*
X003071Y006545D02*
X000765Y006545D01*
X000765Y006623D02*
X003071Y006623D01*
X003071Y006702D02*
X000765Y006702D01*
X000765Y006780D02*
X003071Y006780D01*
X003071Y006859D02*
X000765Y006859D01*
X000765Y006937D02*
X003071Y006937D01*
X003071Y007016D02*
X000765Y007016D01*
X000765Y007094D02*
X003093Y007094D01*
X003146Y007173D02*
X000765Y007173D01*
X000765Y007251D02*
X003278Y007251D01*
X003422Y007330D02*
X000765Y007330D01*
X000765Y007408D02*
X003416Y007408D01*
X003422Y007487D02*
X000765Y007487D01*
X000765Y007565D02*
X003418Y007565D01*
X003416Y007644D02*
X000765Y007644D01*
X000765Y007722D02*
X003426Y007722D01*
X003183Y007801D02*
X000765Y007801D01*
X000765Y007879D02*
X003108Y007879D01*
X003076Y007958D02*
X000765Y007958D01*
X000765Y008036D02*
X003071Y008036D01*
X003071Y008115D02*
X000765Y008115D01*
X000765Y008193D02*
X003071Y008193D01*
X003071Y008272D02*
X000765Y008272D01*
X000765Y008350D02*
X003071Y008350D01*
X002837Y009256D02*
X002837Y009913D01*
X006539Y009913D01*
X006507Y009838D01*
X006507Y009813D01*
X006312Y009617D01*
X006266Y009507D01*
X006266Y008618D01*
X006137Y008748D01*
X005905Y008843D01*
X005654Y008843D01*
X005423Y008748D01*
X005246Y008570D01*
X005150Y008339D01*
X005150Y008088D01*
X005246Y007857D01*
X005423Y007679D01*
X005654Y007583D01*
X005905Y007583D01*
X006137Y007679D01*
X006314Y007857D01*
X006332Y007901D01*
X006354Y007879D01*
X006492Y007822D01*
X006608Y007822D01*
X006476Y007690D01*
X006380Y007459D01*
X006380Y007208D01*
X006476Y006977D01*
X006653Y006799D01*
X006884Y006703D01*
X007135Y006703D01*
X007367Y006799D01*
X007544Y006977D01*
X007640Y007208D01*
X007640Y007459D01*
X007544Y007690D01*
X007367Y007868D01*
X007135Y007963D01*
X006884Y007963D01*
X006847Y007948D01*
X006884Y007985D01*
X006941Y008123D01*
X006941Y008272D01*
X006884Y008410D01*
X006866Y008428D01*
X006866Y009323D01*
X006932Y009388D01*
X006957Y009388D01*
X007082Y009440D01*
X007082Y008504D01*
X007128Y008393D01*
X007457Y008064D01*
X007457Y008039D01*
X007514Y007901D01*
X007620Y007796D01*
X007758Y007738D01*
X007907Y007738D01*
X008045Y007796D01*
X008150Y007901D01*
X008207Y008039D01*
X008207Y008188D01*
X008150Y008326D01*
X008045Y008431D01*
X007907Y008488D01*
X007882Y008488D01*
X007682Y008688D01*
X007682Y009493D01*
X007725Y009475D01*
X007875Y009475D01*
X008002Y009528D01*
X008002Y009393D01*
X007978Y009368D01*
X007932Y009258D01*
X007932Y009139D01*
X007978Y009028D01*
X008062Y008944D01*
X008173Y008898D01*
X008243Y008898D01*
X008228Y008883D01*
X008182Y008773D01*
X008182Y008654D01*
X008228Y008543D01*
X008312Y008459D01*
X008423Y008413D01*
X008476Y008413D01*
X008476Y007684D01*
X008442Y007626D01*
X008400Y007524D01*
X008372Y007418D01*
X008357Y007308D01*
X008357Y007293D01*
X008587Y007293D01*
X008667Y007213D01*
X008357Y007213D01*
X008357Y007198D01*
X008372Y007089D01*
X008400Y006983D01*
X008442Y006881D01*
X008497Y006786D01*
X008518Y006758D01*
X008398Y006808D01*
X008241Y006808D01*
X008095Y006748D01*
X007983Y006636D01*
X007923Y006490D01*
X007923Y006096D01*
X007983Y005951D01*
X008095Y005839D01*
X008241Y005779D01*
X008398Y005779D01*
X008544Y005839D01*
X008656Y005951D01*
X008716Y006096D01*
X008716Y006490D01*
X008672Y006598D01*
X008730Y006553D01*
X008825Y006498D01*
X008927Y006456D01*
X009033Y006428D01*
X009142Y006413D01*
X009157Y006413D01*
X009157Y006983D01*
X009237Y006983D01*
X009237Y006413D01*
X009252Y006413D01*
X009362Y006428D01*
X009468Y006456D01*
X009570Y006498D01*
X009665Y006553D01*
X009752Y006621D01*
X009830Y006698D01*
X009897Y006786D01*
X009952Y006881D01*
X009994Y006983D01*
X010023Y007089D01*
X010037Y007198D01*
X010037Y007213D01*
X009724Y007213D01*
X009804Y007293D01*
X010037Y007293D01*
X010037Y007308D01*
X010023Y007418D01*
X009994Y007524D01*
X009952Y007626D01*
X009916Y007689D01*
X009916Y009913D01*
X009992Y009913D01*
X010102Y009959D01*
X010187Y010043D01*
X010232Y010154D01*
X010232Y010273D01*
X010187Y010383D01*
X010114Y010456D01*
X010224Y010381D01*
X010224Y010381D01*
X010374Y010337D01*
X010374Y009413D01*
X010323Y009413D01*
X010212Y009368D01*
X010128Y009283D01*
X010082Y009173D01*
X010082Y009054D01*
X010128Y008943D01*
X010202Y008869D01*
X010202Y006358D01*
X010128Y006283D01*
X010082Y006173D01*
X010082Y006054D01*
X010128Y005943D01*
X010212Y005859D01*
X010323Y005813D01*
X010374Y005813D01*
X010374Y005646D01*
X010362Y005658D01*
X010362Y005659D01*
X010228Y005793D01*
X010228Y005793D01*
X010012Y006009D01*
X009878Y006143D01*
X009477Y006143D01*
X009452Y006168D01*
X009342Y006213D01*
X009223Y006213D01*
X009112Y006168D01*
X009028Y006083D01*
X008982Y005973D01*
X008982Y005854D01*
X009028Y005743D01*
X009112Y005659D01*
X009223Y005613D01*
X009342Y005613D01*
X009452Y005659D01*
X009477Y005683D01*
X009687Y005683D01*
X009707Y005663D01*
X009673Y005663D01*
X009562Y005618D01*
X009538Y005593D01*
X008977Y005593D01*
X008952Y005618D01*
X008842Y005663D01*
X008723Y005663D01*
X008612Y005618D01*
X008528Y005533D01*
X008482Y005423D01*
X008482Y005304D01*
X008496Y005272D01*
X008398Y005312D01*
X008241Y005312D01*
X008095Y005252D01*
X007983Y005140D01*
X007923Y004994D01*
X007923Y004879D01*
X007258Y004855D01*
X007367Y004899D01*
X007544Y005077D01*
X007640Y005308D01*
X007640Y005559D01*
X007544Y005790D01*
X007367Y005968D01*
X007135Y006063D01*
X006884Y006063D01*
X006653Y005968D01*
X006476Y005790D01*
X006380Y005559D01*
X006380Y005308D01*
X006476Y005077D01*
X006653Y004899D01*
X006802Y004838D01*
X005315Y004783D01*
X005315Y004994D01*
X005254Y005140D01*
X005143Y005252D01*
X004997Y005312D01*
X004839Y005312D01*
X004693Y005252D01*
X004582Y005140D01*
X004521Y004994D01*
X004521Y004754D01*
X004382Y004749D01*
X004382Y004773D01*
X004337Y004883D01*
X004312Y004908D01*
X004312Y005669D01*
X004337Y005693D01*
X004382Y005804D01*
X004382Y005923D01*
X004337Y006033D01*
X004252Y006118D01*
X004142Y006163D01*
X004101Y006163D01*
X004101Y007041D01*
X004060Y007138D01*
X004056Y007143D01*
X004056Y007246D01*
X004036Y007295D01*
X004051Y007332D01*
X004123Y007259D01*
X004354Y007163D01*
X004605Y007163D01*
X004837Y007259D01*
X005014Y007437D01*
X005110Y007668D01*
X005110Y007919D01*
X005014Y008150D01*
X004837Y008328D01*
X004605Y008423D01*
X004354Y008423D01*
X004123Y008328D01*
X004101Y008306D01*
X004101Y008680D01*
X004105Y008696D01*
X004101Y008732D01*
X004101Y008768D01*
X004094Y008784D01*
X004084Y008863D01*
X004084Y008863D01*
X003970Y009065D01*
X003787Y009207D01*
X003564Y009268D01*
X003564Y009268D01*
X003465Y009256D01*
X002837Y009256D01*
X002837Y009292D02*
X004674Y009292D01*
X004647Y009268D02*
X004637Y009268D01*
X004576Y009207D01*
X004510Y009150D01*
X004509Y009140D01*
X004502Y009134D01*
X004502Y009047D01*
X004501Y009032D01*
X004478Y009008D01*
X004432Y008898D01*
X004432Y008779D01*
X004478Y008668D01*
X004562Y008584D01*
X004673Y008538D01*
X004792Y008538D01*
X004902Y008584D01*
X004987Y008668D01*
X005032Y008779D01*
X005032Y008898D01*
X005003Y008968D01*
X005388Y008968D01*
X005412Y008944D01*
X005523Y008898D01*
X005642Y008898D01*
X005752Y008944D01*
X005837Y009028D01*
X005882Y009139D01*
X005882Y009258D01*
X005837Y009368D01*
X005752Y009453D01*
X005642Y009498D01*
X005523Y009498D01*
X005412Y009453D01*
X005388Y009428D01*
X004926Y009428D01*
X004839Y009435D01*
X004832Y009428D01*
X004822Y009428D01*
X004761Y009367D01*
X004647Y009268D01*
X004582Y009214D02*
X003763Y009214D01*
X003787Y009207D02*
X003787Y009207D01*
X003879Y009135D02*
X004504Y009135D01*
X004502Y009057D02*
X003974Y009057D01*
X003970Y009065D02*
X003970Y009065D01*
X003970Y009065D01*
X004019Y008978D02*
X004465Y008978D01*
X004433Y008900D02*
X004064Y008900D01*
X004090Y008821D02*
X004432Y008821D01*
X004447Y008743D02*
X004101Y008743D01*
X004101Y008664D02*
X004482Y008664D01*
X004561Y008586D02*
X004101Y008586D01*
X004101Y008507D02*
X005219Y008507D01*
X005187Y008429D02*
X004101Y008429D01*
X004101Y008350D02*
X004177Y008350D01*
X004782Y008350D02*
X005154Y008350D01*
X005150Y008272D02*
X004893Y008272D01*
X004971Y008193D02*
X005150Y008193D01*
X005150Y008115D02*
X005029Y008115D01*
X005061Y008036D02*
X005171Y008036D01*
X005204Y007958D02*
X005094Y007958D01*
X005110Y007879D02*
X005236Y007879D01*
X005302Y007801D02*
X005110Y007801D01*
X005110Y007722D02*
X005380Y007722D01*
X005509Y007644D02*
X005099Y007644D01*
X005067Y007565D02*
X006424Y007565D01*
X006456Y007644D02*
X006050Y007644D01*
X006179Y007722D02*
X006507Y007722D01*
X006586Y007801D02*
X006258Y007801D01*
X006323Y007879D02*
X006355Y007879D01*
X006391Y007487D02*
X005034Y007487D01*
X004985Y007408D02*
X006380Y007408D01*
X006380Y007330D02*
X004907Y007330D01*
X004816Y007251D02*
X006380Y007251D01*
X006394Y007173D02*
X004627Y007173D01*
X004772Y006780D02*
X004101Y006780D01*
X004101Y006702D02*
X004647Y006702D01*
X004693Y006748D02*
X004582Y006636D01*
X004521Y006490D01*
X004521Y006096D01*
X004582Y005951D01*
X004693Y005839D01*
X004839Y005779D01*
X004997Y005779D01*
X005143Y005839D01*
X005254Y005951D01*
X005315Y006096D01*
X005315Y006490D01*
X005254Y006636D01*
X005143Y006748D01*
X004997Y006808D01*
X004839Y006808D01*
X004693Y006748D01*
X004576Y006623D02*
X004101Y006623D01*
X004101Y006545D02*
X004544Y006545D01*
X004521Y006466D02*
X004101Y006466D01*
X004101Y006388D02*
X004521Y006388D01*
X004521Y006309D02*
X004101Y006309D01*
X004101Y006231D02*
X004521Y006231D01*
X004521Y006152D02*
X004169Y006152D01*
X004296Y006074D02*
X004531Y006074D01*
X004563Y005995D02*
X004352Y005995D01*
X004382Y005917D02*
X004616Y005917D01*
X004696Y005838D02*
X004382Y005838D01*
X004364Y005760D02*
X006463Y005760D01*
X006430Y005681D02*
X004324Y005681D01*
X004312Y005603D02*
X006398Y005603D01*
X006380Y005524D02*
X004312Y005524D01*
X004312Y005446D02*
X006380Y005446D01*
X006380Y005367D02*
X004312Y005367D01*
X004312Y005289D02*
X004783Y005289D01*
X004652Y005210D02*
X004312Y005210D01*
X004312Y005132D02*
X004578Y005132D01*
X004546Y005053D02*
X004312Y005053D01*
X004312Y004975D02*
X004521Y004975D01*
X004521Y004896D02*
X004324Y004896D01*
X004364Y004818D02*
X004521Y004818D01*
X005053Y005289D02*
X006388Y005289D01*
X006420Y005210D02*
X005184Y005210D01*
X005258Y005132D02*
X006453Y005132D01*
X006499Y005053D02*
X005290Y005053D01*
X005315Y004975D02*
X006578Y004975D01*
X006661Y004896D02*
X005315Y004896D01*
X005315Y004818D02*
X006252Y004818D01*
X006523Y005838D02*
X005140Y005838D01*
X005220Y005917D02*
X006602Y005917D01*
X006719Y005995D02*
X005273Y005995D01*
X005305Y006074D02*
X007933Y006074D01*
X007923Y006152D02*
X005315Y006152D01*
X005315Y006231D02*
X007923Y006231D01*
X007923Y006309D02*
X005315Y006309D01*
X005315Y006388D02*
X007923Y006388D01*
X007923Y006466D02*
X005315Y006466D01*
X005292Y006545D02*
X007946Y006545D01*
X007978Y006623D02*
X005260Y006623D01*
X005189Y006702D02*
X008049Y006702D01*
X008173Y006780D02*
X007320Y006780D01*
X007426Y006859D02*
X008455Y006859D01*
X008466Y006780D02*
X008502Y006780D01*
X008419Y006937D02*
X007504Y006937D01*
X007560Y007016D02*
X008391Y007016D01*
X008371Y007094D02*
X007592Y007094D01*
X007625Y007173D02*
X008361Y007173D01*
X008360Y007330D02*
X007640Y007330D01*
X007640Y007408D02*
X008370Y007408D01*
X008390Y007487D02*
X007628Y007487D01*
X007596Y007565D02*
X008417Y007565D01*
X008453Y007644D02*
X007563Y007644D01*
X007512Y007722D02*
X008476Y007722D01*
X008476Y007801D02*
X008050Y007801D01*
X008128Y007879D02*
X008476Y007879D01*
X008476Y007958D02*
X008174Y007958D01*
X008206Y008036D02*
X008476Y008036D01*
X008476Y008115D02*
X008207Y008115D01*
X008205Y008193D02*
X008476Y008193D01*
X008476Y008272D02*
X008173Y008272D01*
X008126Y008350D02*
X008476Y008350D01*
X008386Y008429D02*
X008048Y008429D01*
X007863Y008507D02*
X008264Y008507D01*
X008211Y008586D02*
X007784Y008586D01*
X007706Y008664D02*
X008182Y008664D01*
X008182Y008743D02*
X007682Y008743D01*
X007682Y008821D02*
X008202Y008821D01*
X008170Y008900D02*
X007682Y008900D01*
X007682Y008978D02*
X008028Y008978D01*
X007966Y009057D02*
X007682Y009057D01*
X007682Y009135D02*
X007934Y009135D01*
X007932Y009214D02*
X007682Y009214D01*
X007682Y009292D02*
X007946Y009292D01*
X007980Y009371D02*
X007682Y009371D01*
X007682Y009449D02*
X008002Y009449D01*
X008001Y009528D02*
X008002Y009528D01*
X007500Y010391D02*
X007479Y010391D01*
X007504Y010470D02*
X007398Y010470D01*
X007537Y010548D02*
X002837Y010548D01*
X002837Y010627D02*
X007602Y010627D01*
X007681Y010705D02*
X002837Y010705D01*
X002837Y010784D02*
X007759Y010784D01*
X007838Y010862D02*
X002837Y010862D01*
X002837Y010941D02*
X007916Y010941D01*
X007995Y011019D02*
X002837Y011019D01*
X002837Y011098D02*
X008073Y011098D01*
X008152Y011176D02*
X002837Y011176D01*
X002837Y011255D02*
X008230Y011255D01*
X008309Y011333D02*
X002837Y011333D01*
X002807Y011412D02*
X008325Y011412D01*
X008331Y011490D02*
X002768Y011490D01*
X002690Y011569D02*
X008364Y011569D01*
X009417Y011333D02*
X009705Y011333D01*
X009705Y011255D02*
X009611Y011255D01*
X009466Y011329D02*
X009466Y011329D01*
X010179Y010391D02*
X010209Y010391D01*
X010216Y010313D02*
X010374Y010313D01*
X010374Y010234D02*
X010232Y010234D01*
X010232Y010156D02*
X010374Y010156D01*
X010374Y010077D02*
X010201Y010077D01*
X010142Y009999D02*
X010374Y009999D01*
X010374Y009920D02*
X010008Y009920D01*
X009916Y009842D02*
X010374Y009842D01*
X010374Y009763D02*
X009916Y009763D01*
X009916Y009685D02*
X010374Y009685D01*
X010374Y009606D02*
X009916Y009606D01*
X009916Y009528D02*
X010374Y009528D01*
X010374Y009449D02*
X009916Y009449D01*
X009916Y009371D02*
X010219Y009371D01*
X010137Y009292D02*
X009916Y009292D01*
X009916Y009214D02*
X010099Y009214D01*
X010082Y009135D02*
X009916Y009135D01*
X009916Y009057D02*
X010082Y009057D01*
X010114Y008978D02*
X009916Y008978D01*
X009916Y008900D02*
X010172Y008900D01*
X010202Y008821D02*
X009916Y008821D01*
X009916Y008743D02*
X010202Y008743D01*
X010202Y008664D02*
X009916Y008664D01*
X009916Y008586D02*
X010202Y008586D01*
X010202Y008507D02*
X009916Y008507D01*
X009916Y008429D02*
X010202Y008429D01*
X010202Y008350D02*
X009916Y008350D01*
X009916Y008272D02*
X010202Y008272D01*
X010202Y008193D02*
X009916Y008193D01*
X009916Y008115D02*
X010202Y008115D01*
X010202Y008036D02*
X009916Y008036D01*
X009916Y007958D02*
X010202Y007958D01*
X010202Y007879D02*
X009916Y007879D01*
X009916Y007801D02*
X010202Y007801D01*
X010202Y007722D02*
X009916Y007722D01*
X009942Y007644D02*
X010202Y007644D01*
X010202Y007565D02*
X009977Y007565D01*
X010004Y007487D02*
X010202Y007487D01*
X010202Y007408D02*
X010024Y007408D01*
X010035Y007330D02*
X010202Y007330D01*
X010202Y007251D02*
X009762Y007251D01*
X010034Y007173D02*
X010202Y007173D01*
X010202Y007094D02*
X010024Y007094D01*
X010003Y007016D02*
X010202Y007016D01*
X010202Y006937D02*
X009975Y006937D01*
X009939Y006859D02*
X010202Y006859D01*
X010202Y006780D02*
X009893Y006780D01*
X009833Y006702D02*
X010202Y006702D01*
X010202Y006623D02*
X009755Y006623D01*
X009649Y006545D02*
X010202Y006545D01*
X010202Y006466D02*
X009491Y006466D01*
X009237Y006466D02*
X009157Y006466D01*
X009157Y006545D02*
X009237Y006545D01*
X009237Y006623D02*
X009157Y006623D01*
X009157Y006702D02*
X009237Y006702D01*
X009237Y006780D02*
X009157Y006780D01*
X009157Y006859D02*
X009237Y006859D01*
X009237Y006937D02*
X009157Y006937D01*
X008903Y006466D02*
X008716Y006466D01*
X008716Y006388D02*
X010202Y006388D01*
X010154Y006309D02*
X008716Y006309D01*
X008716Y006231D02*
X010106Y006231D01*
X010082Y006152D02*
X009468Y006152D01*
X009097Y006152D02*
X008716Y006152D01*
X008707Y006074D02*
X009024Y006074D01*
X008991Y005995D02*
X008674Y005995D01*
X008622Y005917D02*
X008982Y005917D01*
X008989Y005838D02*
X008542Y005838D01*
X008597Y005603D02*
X007622Y005603D01*
X007640Y005524D02*
X008524Y005524D01*
X008492Y005446D02*
X007640Y005446D01*
X007640Y005367D02*
X008482Y005367D01*
X008489Y005289D02*
X008455Y005289D01*
X008184Y005289D02*
X007632Y005289D01*
X007599Y005210D02*
X008053Y005210D01*
X007980Y005132D02*
X007567Y005132D01*
X007520Y005053D02*
X007947Y005053D01*
X007923Y004975D02*
X007442Y004975D01*
X007359Y004896D02*
X007923Y004896D01*
X007589Y005681D02*
X009090Y005681D01*
X009021Y005760D02*
X007557Y005760D01*
X007496Y005838D02*
X008098Y005838D01*
X008018Y005917D02*
X007418Y005917D01*
X007300Y005995D02*
X007965Y005995D01*
X008694Y006545D02*
X008745Y006545D01*
X008630Y007251D02*
X007640Y007251D01*
X007615Y007801D02*
X007434Y007801D01*
X007339Y007879D02*
X007536Y007879D01*
X007491Y007958D02*
X007149Y007958D01*
X006905Y008036D02*
X007458Y008036D01*
X007407Y008115D02*
X006938Y008115D01*
X006941Y008193D02*
X007328Y008193D01*
X007250Y008272D02*
X006941Y008272D01*
X006909Y008350D02*
X007171Y008350D01*
X007113Y008429D02*
X006866Y008429D01*
X006866Y008507D02*
X007082Y008507D01*
X007082Y008586D02*
X006866Y008586D01*
X006866Y008664D02*
X007082Y008664D01*
X007082Y008743D02*
X006866Y008743D01*
X006866Y008821D02*
X007082Y008821D01*
X007082Y008900D02*
X006866Y008900D01*
X006866Y008978D02*
X007082Y008978D01*
X007082Y009057D02*
X006866Y009057D01*
X006866Y009135D02*
X007082Y009135D01*
X007082Y009214D02*
X006866Y009214D01*
X006866Y009292D02*
X007082Y009292D01*
X007082Y009371D02*
X006914Y009371D01*
X006509Y009842D02*
X002837Y009842D01*
X002837Y009763D02*
X006458Y009763D01*
X006379Y009685D02*
X002837Y009685D01*
X002837Y009606D02*
X006307Y009606D01*
X006275Y009528D02*
X002837Y009528D01*
X002837Y009449D02*
X005409Y009449D01*
X005756Y009449D02*
X006266Y009449D01*
X006266Y009371D02*
X005834Y009371D01*
X005868Y009292D02*
X006266Y009292D01*
X006266Y009214D02*
X005882Y009214D01*
X005881Y009135D02*
X006266Y009135D01*
X006266Y009057D02*
X005848Y009057D01*
X005786Y008978D02*
X006266Y008978D01*
X006266Y008900D02*
X005645Y008900D01*
X005600Y008821D02*
X005032Y008821D01*
X005032Y008900D02*
X005520Y008900D01*
X005418Y008743D02*
X005017Y008743D01*
X004982Y008664D02*
X005339Y008664D01*
X005261Y008586D02*
X004904Y008586D01*
X004764Y009371D02*
X002837Y009371D01*
X002065Y008429D02*
X000765Y008429D01*
X000765Y008507D02*
X001876Y008507D01*
X001858Y008514D02*
X001858Y008514D01*
X001858Y008514D01*
X001787Y008586D02*
X000765Y008586D01*
X000765Y008664D02*
X001708Y008664D01*
X001695Y008677D02*
X001695Y008677D01*
X001668Y008743D02*
X000765Y008743D01*
X000765Y008821D02*
X001635Y008821D01*
X001607Y008900D02*
X000765Y008900D01*
X000765Y008978D02*
X001607Y008978D01*
X001607Y009057D02*
X000765Y009057D01*
X000765Y009135D02*
X001607Y009135D01*
X001607Y009214D02*
X000765Y009214D01*
X000765Y009292D02*
X001607Y009292D01*
X001607Y009371D02*
X000765Y009371D01*
X000765Y009449D02*
X001607Y009449D01*
X001607Y009528D02*
X000765Y009528D01*
X000765Y009606D02*
X001607Y009606D01*
X001607Y009685D02*
X000765Y009685D01*
X000765Y009763D02*
X001607Y009763D01*
X001600Y009842D02*
X000765Y009842D01*
X000765Y009920D02*
X001568Y009920D01*
X001535Y009999D02*
X000765Y009999D01*
X000765Y010077D02*
X001503Y010077D01*
X001502Y010156D02*
X000765Y010156D01*
X000765Y010234D02*
X001502Y010234D01*
X001502Y010313D02*
X000765Y010313D01*
X000765Y010391D02*
X001520Y010391D01*
X001552Y010470D02*
X000765Y010470D01*
X000765Y010548D02*
X001585Y010548D01*
X001607Y010627D02*
X000765Y010627D01*
X000765Y010705D02*
X001607Y010705D01*
X001607Y010784D02*
X000765Y010784D01*
X000765Y010862D02*
X001607Y010862D01*
X001607Y010941D02*
X000765Y010941D01*
X000765Y011019D02*
X001607Y011019D01*
X001607Y011098D02*
X000765Y011098D01*
X000765Y011176D02*
X001607Y011176D01*
X001607Y011255D02*
X000765Y011255D01*
X000765Y011333D02*
X001607Y011333D01*
X001607Y011412D02*
X000765Y011412D01*
X000765Y011490D02*
X001607Y011490D01*
X001607Y011569D02*
X000765Y011569D01*
X000765Y011647D02*
X001607Y011647D01*
X001607Y011726D02*
X000765Y011726D01*
X000765Y011804D02*
X001607Y011804D01*
X001607Y011883D02*
X000765Y011883D01*
X000765Y011961D02*
X001607Y011961D01*
X001607Y012040D02*
X000765Y012040D01*
X000765Y012118D02*
X001607Y012118D01*
X001607Y012197D02*
X000765Y012197D01*
X000765Y012275D02*
X001607Y012275D01*
X001631Y012354D02*
X000765Y012354D01*
X000765Y012432D02*
X001664Y012432D01*
X001695Y012507D02*
X001695Y012507D01*
X001698Y012511D02*
X000765Y012511D01*
X000765Y012589D02*
X001777Y012589D01*
X001855Y012668D02*
X000765Y012668D01*
X000765Y012746D02*
X002041Y012746D01*
X001858Y012670D02*
X001858Y012670D01*
X000765Y012825D02*
X003759Y012825D01*
X003759Y012903D02*
X000765Y012903D01*
X000765Y012982D02*
X003759Y012982D01*
X003759Y013060D02*
X000765Y013060D01*
X000765Y013139D02*
X003759Y013139D01*
X003759Y013217D02*
X000765Y013217D01*
X000765Y013296D02*
X003759Y013296D01*
X003759Y013374D02*
X000765Y013374D01*
X000765Y013453D02*
X003759Y013453D01*
X003759Y013531D02*
X000765Y013531D01*
X000765Y013610D02*
X003759Y013610D01*
X003759Y013688D02*
X000765Y013688D01*
X000765Y013767D02*
X003759Y013767D01*
X003759Y013845D02*
X000765Y013845D01*
X000765Y013924D02*
X003759Y013924D01*
X003759Y014002D02*
X000765Y014002D01*
X000765Y014081D02*
X003759Y014081D01*
X003759Y014159D02*
X000765Y014159D01*
X000765Y014238D02*
X003759Y014238D01*
X003759Y014316D02*
X000765Y014316D01*
X000765Y014395D02*
X003759Y014395D01*
X003759Y014473D02*
X000765Y014473D01*
X000765Y014552D02*
X003759Y014552D01*
X003759Y014630D02*
X000765Y014630D01*
X000765Y014709D02*
X003763Y014709D01*
X003765Y014753D02*
X003765Y014753D01*
X003777Y014787D02*
X000765Y014787D01*
X000765Y014866D02*
X003806Y014866D01*
X003835Y014944D02*
X000765Y014944D01*
X000765Y015023D02*
X003864Y015023D01*
X003864Y015022D02*
X003864Y015022D01*
X003926Y015101D02*
X000765Y015101D01*
X000765Y015180D02*
X003988Y015180D01*
X004041Y015248D02*
X004041Y015248D01*
X004041Y015248D01*
X004057Y015258D02*
X000765Y015258D01*
X000765Y015337D02*
X004174Y015337D01*
X004308Y015415D02*
X000765Y015415D01*
X000765Y015494D02*
X012035Y015494D01*
X012035Y015572D02*
X000765Y015572D01*
X000765Y015651D02*
X012035Y015651D01*
X012035Y015729D02*
X000765Y015729D01*
X000765Y015750D02*
X000770Y015796D01*
X000805Y015881D01*
X000869Y015945D01*
X000954Y015980D01*
X001000Y015985D01*
X011800Y015985D01*
X011846Y015980D01*
X011931Y015945D01*
X011995Y015881D01*
X012030Y015796D01*
X012035Y015750D01*
X012035Y001000D01*
X012030Y000954D01*
X011995Y000869D01*
X011931Y000805D01*
X011846Y000770D01*
X011800Y000765D01*
X001000Y000765D01*
X000954Y000770D01*
X000869Y000805D01*
X000805Y000869D01*
X000770Y000954D01*
X000765Y001000D01*
X000765Y015750D01*
X000774Y015808D02*
X012026Y015808D01*
X011990Y015886D02*
X000810Y015886D01*
X000916Y015965D02*
X011884Y015965D01*
X012035Y015415D02*
X006434Y015415D01*
X006579Y015362D02*
X006579Y015362D01*
X006606Y015337D02*
X012035Y015337D01*
X012035Y015258D02*
X006691Y015258D01*
X006776Y015180D02*
X012035Y015180D01*
X012035Y015101D02*
X006851Y015101D01*
X006887Y015023D02*
X012035Y015023D01*
X012035Y014944D02*
X006923Y014944D01*
X006959Y014866D02*
X012035Y014866D01*
X012035Y014787D02*
X006994Y014787D01*
X006994Y014790D02*
X006994Y014790D01*
X006997Y014709D02*
X012035Y014709D01*
X012035Y014630D02*
X007001Y014630D01*
X007001Y014552D02*
X012035Y014552D01*
X012035Y014473D02*
X007001Y014473D01*
X007001Y014395D02*
X012035Y014395D01*
X012035Y014316D02*
X007001Y014316D01*
X007001Y014238D02*
X012035Y014238D01*
X012035Y014159D02*
X007001Y014159D01*
X007001Y014081D02*
X012035Y014081D01*
X012035Y014002D02*
X007001Y014002D01*
X006274Y013060D02*
X004589Y013060D01*
X004589Y013139D02*
X006205Y013139D01*
X006172Y013217D02*
X004589Y013217D01*
X004589Y013296D02*
X006171Y013296D01*
X006171Y013374D02*
X004589Y013374D01*
X004589Y013453D02*
X006171Y013453D01*
X006171Y013531D02*
X004589Y013531D01*
X004589Y013610D02*
X006171Y013610D01*
X006171Y013688D02*
X004589Y013688D01*
X004589Y013767D02*
X006171Y013767D01*
X006171Y013845D02*
X004589Y013845D01*
X004589Y013924D02*
X006171Y013924D01*
X006171Y014002D02*
X004589Y014002D01*
X004589Y014081D02*
X006171Y014081D01*
X006171Y014159D02*
X004589Y014159D01*
X004589Y014238D02*
X006171Y014238D01*
X006171Y014316D02*
X004589Y014316D01*
X004589Y014395D02*
X006171Y014395D01*
X006171Y014473D02*
X004589Y014473D01*
X004589Y014552D02*
X006171Y014552D01*
X006146Y014630D02*
X004614Y014630D01*
X005788Y011961D02*
X006426Y011961D01*
X006266Y008821D02*
X005959Y008821D01*
X006142Y008743D02*
X006266Y008743D01*
X006266Y008664D02*
X006220Y008664D01*
X006857Y007958D02*
X006870Y007958D01*
X006427Y007094D02*
X004079Y007094D01*
X004101Y007016D02*
X006459Y007016D01*
X006515Y006937D02*
X004101Y006937D01*
X004101Y006859D02*
X006594Y006859D01*
X006699Y006780D02*
X005064Y006780D01*
X004332Y007173D02*
X004056Y007173D01*
X004054Y007251D02*
X004143Y007251D01*
X004053Y007330D02*
X004050Y007330D01*
X003111Y004013D02*
X003186Y003939D01*
X003283Y003898D01*
X008035Y003898D01*
X008035Y002215D01*
X008029Y002190D01*
X008035Y002162D01*
X008035Y002135D01*
X008044Y002111D01*
X008049Y002086D01*
X008064Y002063D01*
X008075Y002037D01*
X008093Y002019D01*
X008208Y001844D01*
X008562Y001529D01*
X008985Y001316D01*
X009449Y001220D01*
X009922Y001247D01*
X009922Y001247D01*
X010372Y001396D01*
X010768Y001656D01*
X010768Y001656D01*
X011083Y002009D01*
X011083Y002009D01*
X011296Y002433D01*
X011393Y002897D01*
X011365Y003370D01*
X011304Y003554D01*
X011304Y007041D01*
X011264Y007138D01*
X011189Y007213D01*
X011092Y007253D01*
X011045Y007253D01*
X011039Y007267D01*
X011059Y007316D01*
X011059Y007443D01*
X011039Y007492D01*
X011059Y007541D01*
X011059Y007668D01*
X011039Y007717D01*
X011056Y007757D01*
X011092Y007757D01*
X011189Y007798D01*
X011264Y007872D01*
X011304Y007970D01*
X011304Y010922D01*
X011264Y011019D01*
X012035Y011019D01*
X012035Y010941D02*
X011297Y010941D01*
X011304Y010862D02*
X012035Y010862D01*
X012035Y010784D02*
X011304Y010784D01*
X011304Y010705D02*
X012035Y010705D01*
X012035Y010627D02*
X011304Y010627D01*
X011304Y010548D02*
X012035Y010548D01*
X012035Y010470D02*
X011304Y010470D01*
X011304Y010391D02*
X012035Y010391D01*
X012035Y010313D02*
X011304Y010313D01*
X011304Y010234D02*
X012035Y010234D01*
X012035Y010156D02*
X011304Y010156D01*
X011304Y010077D02*
X012035Y010077D01*
X012035Y009999D02*
X011304Y009999D01*
X011304Y009920D02*
X012035Y009920D01*
X012035Y009842D02*
X011304Y009842D01*
X011304Y009763D02*
X012035Y009763D01*
X012035Y009685D02*
X011304Y009685D01*
X011304Y009606D02*
X012035Y009606D01*
X012035Y009528D02*
X011304Y009528D01*
X011304Y009449D02*
X012035Y009449D01*
X012035Y009371D02*
X011304Y009371D01*
X011304Y009292D02*
X012035Y009292D01*
X012035Y009214D02*
X011304Y009214D01*
X011304Y009135D02*
X012035Y009135D01*
X012035Y009057D02*
X011304Y009057D01*
X011304Y008978D02*
X012035Y008978D01*
X012035Y008900D02*
X011304Y008900D01*
X011304Y008821D02*
X012035Y008821D01*
X012035Y008743D02*
X011304Y008743D01*
X011304Y008664D02*
X012035Y008664D01*
X012035Y008586D02*
X011304Y008586D01*
X011304Y008507D02*
X012035Y008507D01*
X012035Y008429D02*
X011304Y008429D01*
X011304Y008350D02*
X012035Y008350D01*
X012035Y008272D02*
X011304Y008272D01*
X011304Y008193D02*
X012035Y008193D01*
X012035Y008115D02*
X011304Y008115D01*
X011304Y008036D02*
X012035Y008036D01*
X012035Y007958D02*
X011299Y007958D01*
X011267Y007879D02*
X012035Y007879D01*
X012035Y007801D02*
X011192Y007801D01*
X011059Y007644D02*
X012035Y007644D01*
X012035Y007722D02*
X011041Y007722D01*
X011059Y007565D02*
X012035Y007565D01*
X012035Y007487D02*
X011041Y007487D01*
X011059Y007408D02*
X012035Y007408D01*
X012035Y007330D02*
X011059Y007330D01*
X011097Y007251D02*
X012035Y007251D01*
X012035Y007173D02*
X011230Y007173D01*
X011282Y007094D02*
X012035Y007094D01*
X012035Y007016D02*
X011304Y007016D01*
X011304Y006937D02*
X012035Y006937D01*
X012035Y006859D02*
X011304Y006859D01*
X011304Y006780D02*
X012035Y006780D01*
X012035Y006702D02*
X011304Y006702D01*
X011304Y006623D02*
X012035Y006623D01*
X012035Y006545D02*
X011304Y006545D01*
X011304Y006466D02*
X012035Y006466D01*
X012035Y006388D02*
X011304Y006388D01*
X011304Y006309D02*
X012035Y006309D01*
X012035Y006231D02*
X011304Y006231D01*
X011304Y006152D02*
X012035Y006152D01*
X012035Y006074D02*
X011304Y006074D01*
X011304Y005995D02*
X012035Y005995D01*
X012035Y005917D02*
X011304Y005917D01*
X011304Y005838D02*
X012035Y005838D01*
X012035Y005760D02*
X011304Y005760D01*
X011304Y005681D02*
X012035Y005681D01*
X012035Y005603D02*
X011304Y005603D01*
X011304Y005524D02*
X012035Y005524D01*
X012035Y005446D02*
X011304Y005446D01*
X011304Y005367D02*
X012035Y005367D01*
X012035Y005289D02*
X011304Y005289D01*
X011304Y005210D02*
X012035Y005210D01*
X012035Y005132D02*
X011304Y005132D01*
X011304Y005053D02*
X012035Y005053D01*
X012035Y004975D02*
X011304Y004975D01*
X011304Y004896D02*
X012035Y004896D01*
X012035Y004818D02*
X011304Y004818D01*
X011304Y004739D02*
X012035Y004739D01*
X012035Y004661D02*
X011304Y004661D01*
X011304Y004582D02*
X012035Y004582D01*
X012035Y004504D02*
X011304Y004504D01*
X011304Y004425D02*
X012035Y004425D01*
X012035Y004347D02*
X011304Y004347D01*
X011304Y004268D02*
X012035Y004268D01*
X012035Y004190D02*
X011304Y004190D01*
X011304Y004111D02*
X012035Y004111D01*
X012035Y004033D02*
X011304Y004033D01*
X011304Y003954D02*
X012035Y003954D01*
X012035Y003876D02*
X011304Y003876D01*
X011304Y003797D02*
X012035Y003797D01*
X012035Y003719D02*
X011304Y003719D01*
X011304Y003640D02*
X012035Y003640D01*
X012035Y003562D02*
X011304Y003562D01*
X011328Y003483D02*
X012035Y003483D01*
X012035Y003405D02*
X011354Y003405D01*
X011365Y003370D02*
X011365Y003370D01*
X011368Y003326D02*
X012035Y003326D01*
X012035Y003248D02*
X011372Y003248D01*
X011377Y003169D02*
X012035Y003169D01*
X012035Y003091D02*
X011381Y003091D01*
X011386Y003012D02*
X012035Y003012D01*
X012035Y002934D02*
X011390Y002934D01*
X011393Y002897D02*
X011393Y002897D01*
X011384Y002855D02*
X012035Y002855D01*
X012035Y002777D02*
X011368Y002777D01*
X011351Y002698D02*
X012035Y002698D01*
X012035Y002620D02*
X011335Y002620D01*
X011319Y002541D02*
X012035Y002541D01*
X012035Y002463D02*
X011303Y002463D01*
X011296Y002433D02*
X011296Y002433D01*
X011272Y002384D02*
X012035Y002384D01*
X012035Y002306D02*
X011232Y002306D01*
X011193Y002227D02*
X012035Y002227D01*
X012035Y002149D02*
X011153Y002149D01*
X011114Y002070D02*
X012035Y002070D01*
X012035Y001992D02*
X011068Y001992D01*
X010998Y001913D02*
X012035Y001913D01*
X012035Y001835D02*
X010928Y001835D01*
X010858Y001756D02*
X012035Y001756D01*
X012035Y001678D02*
X010788Y001678D01*
X010682Y001599D02*
X012035Y001599D01*
X012035Y001521D02*
X010562Y001521D01*
X010443Y001442D02*
X012035Y001442D01*
X012035Y001364D02*
X010275Y001364D01*
X010372Y001396D02*
X010372Y001396D01*
X010038Y001285D02*
X012035Y001285D01*
X012035Y001207D02*
X000765Y001207D01*
X000765Y001285D02*
X009133Y001285D01*
X008985Y001316D02*
X008985Y001316D01*
X008890Y001364D02*
X000765Y001364D01*
X000765Y001442D02*
X008734Y001442D01*
X008578Y001521D02*
X000765Y001521D01*
X000765Y001599D02*
X008483Y001599D01*
X008562Y001529D02*
X008562Y001529D01*
X008395Y001678D02*
X000765Y001678D01*
X000765Y001756D02*
X008307Y001756D01*
X008219Y001835D02*
X000765Y001835D01*
X000765Y001913D02*
X008163Y001913D01*
X008208Y001844D02*
X008208Y001844D01*
X008111Y001992D02*
X000765Y001992D01*
X000765Y002070D02*
X008060Y002070D01*
X008035Y002149D02*
X000765Y002149D01*
X000765Y002227D02*
X008035Y002227D01*
X008035Y002306D02*
X000765Y002306D01*
X000765Y002384D02*
X008035Y002384D01*
X008035Y002463D02*
X000765Y002463D01*
X000765Y002541D02*
X008035Y002541D01*
X008035Y002620D02*
X000765Y002620D01*
X000765Y002698D02*
X008035Y002698D01*
X008035Y002777D02*
X000765Y002777D01*
X000765Y002855D02*
X008035Y002855D01*
X008035Y002934D02*
X000765Y002934D01*
X000765Y003012D02*
X008035Y003012D01*
X008035Y003091D02*
X000765Y003091D01*
X000765Y003169D02*
X008035Y003169D01*
X008035Y003248D02*
X000765Y003248D01*
X000765Y003326D02*
X008035Y003326D01*
X008035Y003405D02*
X000765Y003405D01*
X000765Y003483D02*
X008035Y003483D01*
X008035Y003562D02*
X000765Y003562D01*
X000765Y003640D02*
X008035Y003640D01*
X008035Y003719D02*
X000765Y003719D01*
X000765Y003797D02*
X008035Y003797D01*
X008035Y003876D02*
X000765Y003876D01*
X000765Y003954D02*
X003170Y003954D01*
X000765Y001128D02*
X012035Y001128D01*
X012035Y001050D02*
X000765Y001050D01*
X000768Y000971D02*
X012032Y000971D01*
X012005Y000893D02*
X000795Y000893D01*
X000860Y000814D02*
X011940Y000814D01*
X009449Y001220D02*
X009449Y001220D01*
X009547Y005603D02*
X008967Y005603D01*
X009474Y005681D02*
X009689Y005681D01*
X010026Y005995D02*
X010107Y005995D01*
X010104Y005917D02*
X010155Y005917D01*
X010183Y005838D02*
X010263Y005838D01*
X010261Y005760D02*
X010374Y005760D01*
X010374Y005681D02*
X010340Y005681D01*
X010082Y006074D02*
X009947Y006074D01*
X011264Y011019D02*
X011189Y011094D01*
X011092Y011134D01*
X010988Y011134D01*
X010984Y011135D01*
X010935Y011134D01*
X010929Y011134D01*
X010871Y011137D01*
X010755Y011170D01*
X010656Y011238D01*
X010582Y011333D01*
X010542Y011447D01*
X010535Y011506D01*
X010535Y013213D01*
X010541Y013346D01*
X010446Y013608D01*
X010446Y013608D01*
X010444Y013610D02*
X012035Y013610D01*
X012035Y013688D02*
X010373Y013688D01*
X010301Y013767D02*
X012035Y013767D01*
X012035Y013845D02*
X010190Y013845D01*
X010023Y013924D02*
X012035Y013924D01*
X012035Y013531D02*
X010474Y013531D01*
X010502Y013453D02*
X012035Y013453D01*
X012035Y013374D02*
X010531Y013374D01*
X010541Y013346D02*
X010541Y013346D01*
X010539Y013296D02*
X012035Y013296D01*
X012035Y013217D02*
X010535Y013217D01*
X010535Y013139D02*
X012035Y013139D01*
X012035Y013060D02*
X010535Y013060D01*
X010535Y012982D02*
X012035Y012982D01*
X012035Y012903D02*
X010535Y012903D01*
X010535Y012825D02*
X012035Y012825D01*
X012035Y012746D02*
X010535Y012746D01*
X010535Y012668D02*
X012035Y012668D01*
X012035Y012589D02*
X010535Y012589D01*
X010535Y012511D02*
X012035Y012511D01*
X012035Y012432D02*
X010535Y012432D01*
X010535Y012354D02*
X012035Y012354D01*
X012035Y012275D02*
X010535Y012275D01*
X010535Y012197D02*
X012035Y012197D01*
X012035Y012118D02*
X010535Y012118D01*
X010535Y012040D02*
X012035Y012040D01*
X012035Y011961D02*
X010535Y011961D01*
X010535Y011883D02*
X012035Y011883D01*
X012035Y011804D02*
X010535Y011804D01*
X010535Y011726D02*
X012035Y011726D01*
X012035Y011647D02*
X010535Y011647D01*
X010535Y011569D02*
X012035Y011569D01*
X012035Y011490D02*
X010537Y011490D01*
X010554Y011412D02*
X012035Y011412D01*
X012035Y011333D02*
X010583Y011333D01*
X010643Y011255D02*
X012035Y011255D01*
X012035Y011176D02*
X010747Y011176D01*
X011180Y011098D02*
X012035Y011098D01*
D19*
X010382Y009113D03*
X009932Y010213D03*
X008482Y008713D03*
X008232Y009198D03*
X008232Y010038D03*
X007632Y010763D03*
X007632Y011063D03*
X007632Y011363D03*
X009232Y012163D03*
X009232Y012463D03*
X009232Y012763D03*
X009532Y012613D03*
X009532Y012313D03*
X011902Y007963D03*
X011902Y006863D03*
X010382Y006113D03*
X010132Y005463D03*
X009732Y005363D03*
X009282Y005913D03*
X008782Y005363D03*
X009282Y003913D03*
X010116Y002797D03*
X007932Y006913D03*
X007932Y007213D03*
X007932Y007513D03*
X008232Y007363D03*
X008232Y007063D03*
X005582Y009198D03*
X004732Y008838D03*
X004232Y009363D03*
X003932Y009363D03*
X003632Y009363D03*
X003332Y009363D03*
X003032Y009363D03*
X003032Y010663D03*
X003332Y010663D03*
X003632Y010663D03*
X003932Y010663D03*
X004232Y010663D03*
X004232Y007063D03*
X004232Y006738D03*
X004232Y006413D03*
X004082Y005863D03*
X004082Y004713D03*
X000902Y006963D03*
X000902Y007963D03*
D20*
X009182Y007253D02*
X009197Y007253D01*
D21*
X009182Y007253D02*
X008232Y007253D01*
X008232Y007063D01*
X002500Y010900D02*
X002475Y010900D01*
X002475Y010925D01*
X002475Y010575D01*
X002500Y010900D02*
X002500Y011263D01*
X002475Y011263D01*
X002475Y010975D01*
X002475Y010925D01*
X002457Y011263D02*
X002475Y011263D01*
X002457Y010213D02*
X002182Y010213D01*
X002457Y010213D02*
X002457Y010200D01*
D22*
X004732Y009038D02*
X004732Y008838D01*
X004732Y009038D02*
X004917Y009198D01*
X005582Y009198D01*
X004082Y005863D02*
X004082Y004713D01*
X008232Y009198D02*
X008232Y010038D01*
X008532Y010413D02*
X008532Y008763D01*
X008482Y008713D01*
X008532Y010413D02*
X008530Y010462D01*
X008532Y010510D01*
X008537Y010559D01*
X008546Y010607D01*
X008559Y010654D01*
X008575Y010700D01*
X008594Y010745D01*
X008617Y010788D01*
X008643Y010829D01*
X008671Y010869D01*
X008703Y010906D01*
X008738Y010940D01*
X008774Y010972D01*
X008814Y011001D01*
X008855Y011027D01*
X008898Y011050D01*
X008943Y011069D01*
X008989Y011086D01*
X009036Y011098D01*
X009084Y011108D01*
X009132Y011113D01*
X009282Y011113D01*
X009329Y011107D01*
X009375Y011098D01*
X009421Y011085D01*
X009465Y011068D01*
X009508Y011048D01*
X009549Y011025D01*
X009588Y010998D01*
X009625Y010969D01*
X009660Y010937D01*
X009692Y010902D01*
X009721Y010865D01*
X009747Y010825D01*
X009770Y010784D01*
X009789Y010741D01*
X009805Y010696D01*
X009818Y010651D01*
X009827Y010604D01*
X009832Y010557D01*
X009834Y010510D01*
X009832Y010463D01*
X009832Y010313D01*
X009932Y010213D01*
X010382Y009113D02*
X010432Y009063D01*
X010432Y006163D01*
X010382Y006113D01*
X010132Y005563D02*
X010132Y005463D01*
X010132Y005563D02*
X009782Y005913D01*
X009282Y005913D01*
X009732Y005363D02*
X008782Y005363D01*
X009282Y003913D02*
X009082Y003713D01*
X009082Y002763D01*
X009382Y002463D01*
X009570Y002463D01*
X010116Y002917D02*
X010114Y002962D01*
X010109Y003007D01*
X010099Y003051D01*
X010086Y003094D01*
X010070Y003136D01*
X010050Y003177D01*
X010027Y003216D01*
X010001Y003252D01*
X009972Y003287D01*
X009940Y003319D01*
X009905Y003348D01*
X009869Y003374D01*
X009830Y003397D01*
X009789Y003417D01*
X009747Y003433D01*
X009704Y003446D01*
X009660Y003456D01*
X009615Y003461D01*
X009570Y003463D01*
X010116Y002917D02*
X010116Y002797D01*
D23*
X007832Y008113D03*
X006882Y009763D03*
X007800Y009850D03*
X008700Y011400D03*
X006566Y008197D03*
D24*
X006566Y009447D01*
X006882Y009763D01*
X007232Y010213D02*
X007382Y010063D01*
X007382Y008563D01*
X007832Y008113D01*
X007800Y009850D02*
X007800Y010400D01*
X008700Y011300D01*
X008700Y011400D01*
X007232Y010213D02*
X002182Y010213D01*
D25*
X002475Y010575D03*
X002475Y010925D03*
X002475Y009850D03*
X002475Y009500D03*
D26*
X002457Y009500D02*
X002457Y009300D01*
X002457Y009500D02*
X002457Y010200D01*
X002457Y011263D01*
D27*
X002475Y009500D02*
X002457Y009500D01*
D28*
X005682Y012263D03*
X006532Y012263D03*
D29*
X005682Y012263D01*
M02*
