G75*
G70*
%OFA0B0*%
%FSLAX24Y24*%
%IPPOS*%
%LPD*%
%AMOC8*
5,1,8,0,0,1.08239X$1,22.5*
%
%ADD10C,0.0050*%
%ADD11C,0.0000*%
%ADD12R,0.0433X0.0630*%
%ADD13R,0.0433X0.0394*%
%ADD14R,0.0394X0.0433*%
%ADD15R,0.0354X0.0250*%
%ADD16R,0.0250X0.0354*%
%ADD17R,0.0810X0.0240*%
%ADD18R,0.0900X0.0900*%
%ADD19R,0.0217X0.0472*%
%ADD20R,0.0472X0.0138*%
%ADD21R,0.0315X0.0472*%
%ADD22R,0.0250X0.0472*%
%ADD23C,0.0004*%
%ADD24C,0.0433*%
%ADD25C,0.0400*%
%ADD26C,0.0300*%
%ADD27R,0.0236X0.0600*%
%ADD28R,0.0400X0.1450*%
%ADD29R,0.0197X0.0276*%
%ADD30C,0.1000*%
%ADD31C,0.1400*%
%ADD32C,0.0250*%
%ADD33C,0.0669*%
%ADD34C,0.0080*%
%ADD35C,0.0240*%
%ADD36C,0.0100*%
%ADD37C,0.0070*%
%ADD38C,0.0240*%
%ADD39C,0.0390*%
%ADD40C,0.0140*%
%ADD41C,0.0160*%
%ADD42C,0.0260*%
%ADD43C,0.0400*%
%ADD44C,0.0200*%
%ADD45C,0.0120*%
%ADD46C,0.0280*%
D10*
X000500Y001000D02*
X000500Y015750D01*
X000502Y015794D01*
X000508Y015837D01*
X000517Y015879D01*
X000530Y015921D01*
X000547Y015961D01*
X000567Y016000D01*
X000590Y016037D01*
X000617Y016071D01*
X000646Y016104D01*
X000679Y016133D01*
X000713Y016160D01*
X000750Y016183D01*
X000789Y016203D01*
X000829Y016220D01*
X000871Y016233D01*
X000913Y016242D01*
X000956Y016248D01*
X001000Y016250D01*
X011800Y016250D01*
X011844Y016248D01*
X011887Y016242D01*
X011929Y016233D01*
X011971Y016220D01*
X012011Y016203D01*
X012050Y016183D01*
X012087Y016160D01*
X012121Y016133D01*
X012154Y016104D01*
X012183Y016071D01*
X012210Y016037D01*
X012233Y016000D01*
X012253Y015961D01*
X012270Y015921D01*
X012283Y015879D01*
X012292Y015837D01*
X012298Y015794D01*
X012300Y015750D01*
X012300Y001000D01*
X012298Y000956D01*
X012292Y000913D01*
X012283Y000871D01*
X012270Y000829D01*
X012253Y000789D01*
X012233Y000750D01*
X012210Y000713D01*
X012183Y000679D01*
X012154Y000646D01*
X012121Y000617D01*
X012087Y000590D01*
X012050Y000567D01*
X012011Y000547D01*
X011971Y000530D01*
X011929Y000517D01*
X011887Y000508D01*
X011844Y000502D01*
X011800Y000500D01*
X001000Y000500D01*
X000956Y000502D01*
X000913Y000508D01*
X000871Y000517D01*
X000829Y000530D01*
X000789Y000547D01*
X000750Y000567D01*
X000713Y000590D01*
X000679Y000617D01*
X000646Y000646D01*
X000617Y000679D01*
X000590Y000713D01*
X000567Y000750D01*
X000547Y000789D01*
X000530Y000829D01*
X000517Y000871D01*
X000508Y000913D01*
X000502Y000956D01*
X000500Y001000D01*
X003336Y004163D02*
X008300Y004163D01*
X008300Y002187D01*
X008750Y002337D02*
X008750Y003912D01*
X008749Y003912D02*
X008721Y003931D01*
X008695Y003952D01*
X008672Y003976D01*
X008652Y004003D01*
X008635Y004032D01*
X008621Y004063D01*
X008611Y004095D01*
X008605Y004128D01*
X008602Y004161D01*
X008603Y004195D01*
X008608Y004228D01*
X008617Y004260D01*
X008629Y004292D01*
X008645Y004321D01*
X008664Y004349D01*
X008686Y004374D01*
X008710Y004397D01*
X008738Y004417D01*
X008767Y004433D01*
X008798Y004446D01*
X008830Y004456D01*
X008863Y004462D01*
X008896Y004464D01*
X008896Y004463D02*
X008896Y004650D01*
X003836Y004463D01*
X003836Y006988D01*
X003336Y006988D01*
X003336Y004163D01*
X003336Y008022D02*
X003836Y008022D01*
X003836Y008715D01*
X003830Y008748D01*
X003821Y008780D01*
X003808Y008811D01*
X003792Y008840D01*
X003774Y008867D01*
X003752Y008893D01*
X003728Y008916D01*
X003702Y008936D01*
X003674Y008954D01*
X003644Y008968D01*
X003613Y008979D01*
X003581Y008987D01*
X003548Y008992D01*
X003515Y008993D01*
X003482Y008991D01*
X003481Y008991D02*
X002487Y008991D01*
X002454Y008993D01*
X002422Y008998D01*
X002390Y009006D01*
X002359Y009018D01*
X002330Y009033D01*
X002302Y009051D01*
X002276Y009072D01*
X002253Y009095D01*
X002232Y009121D01*
X002214Y009148D01*
X002199Y009178D01*
X002187Y009209D01*
X002179Y009241D01*
X002174Y009273D01*
X002172Y009306D01*
X002172Y011879D01*
X001872Y012179D02*
X001874Y012212D01*
X001879Y012244D01*
X001887Y012276D01*
X001899Y012307D01*
X001914Y012336D01*
X001932Y012364D01*
X001953Y012390D01*
X001976Y012413D01*
X002002Y012434D01*
X002030Y012452D01*
X002059Y012467D01*
X002090Y012479D01*
X002122Y012487D01*
X002154Y012492D01*
X002187Y012494D01*
X003877Y012494D01*
X003901Y012499D01*
X003925Y012508D01*
X003946Y012520D01*
X003966Y012535D01*
X003984Y012552D01*
X003999Y012572D01*
X004010Y012594D01*
X004019Y012617D01*
X004024Y012642D01*
X004026Y012666D01*
X004024Y012691D01*
X004024Y014600D01*
X004324Y014600D02*
X004324Y012391D01*
X004326Y012366D01*
X004324Y012342D01*
X004319Y012317D01*
X004310Y012294D01*
X004299Y012272D01*
X004284Y012252D01*
X004266Y012235D01*
X004246Y012220D01*
X004225Y012208D01*
X004201Y012199D01*
X004177Y012194D01*
X002487Y012194D01*
X002454Y012192D01*
X002422Y012187D01*
X002390Y012179D01*
X002359Y012167D01*
X002330Y012152D01*
X002302Y012134D01*
X002276Y012113D01*
X002253Y012090D01*
X002232Y012064D01*
X002214Y012036D01*
X002199Y012007D01*
X002187Y011976D01*
X002179Y011944D01*
X002174Y011912D01*
X002172Y011879D01*
X001872Y012179D02*
X001872Y009006D01*
X001874Y008973D01*
X001879Y008941D01*
X001887Y008909D01*
X001899Y008878D01*
X001914Y008848D01*
X001932Y008821D01*
X001953Y008795D01*
X001976Y008772D01*
X002002Y008751D01*
X002030Y008733D01*
X002059Y008718D01*
X002090Y008706D01*
X002122Y008698D01*
X002154Y008693D01*
X002187Y008691D01*
X002981Y008691D01*
X002982Y008691D02*
X003015Y008693D01*
X003048Y008692D01*
X003081Y008687D01*
X003113Y008679D01*
X003144Y008668D01*
X003174Y008654D01*
X003202Y008636D01*
X003228Y008616D01*
X003252Y008593D01*
X003274Y008567D01*
X003292Y008540D01*
X003308Y008511D01*
X003321Y008480D01*
X003330Y008448D01*
X003336Y008415D01*
X003336Y008022D01*
X006436Y013273D02*
X006436Y014600D01*
X006736Y014600D02*
X006732Y014650D01*
X006724Y014700D01*
X006712Y014749D01*
X006696Y014796D01*
X006677Y014843D01*
X006654Y014888D01*
X006628Y014930D01*
X006599Y014971D01*
X006566Y015009D01*
X006531Y015045D01*
X006492Y015078D01*
X006452Y015107D01*
X006409Y015133D01*
X006364Y015156D01*
X006318Y015175D01*
X006270Y015191D01*
X006221Y015203D01*
X006171Y015211D01*
X006121Y015215D01*
X006071Y015215D01*
X004689Y015215D01*
X004689Y014915D02*
X006071Y014915D01*
X006107Y014916D01*
X006142Y014913D01*
X006177Y014906D01*
X006211Y014896D01*
X006244Y014882D01*
X006276Y014865D01*
X006305Y014844D01*
X006332Y014821D01*
X006356Y014795D01*
X006378Y014767D01*
X006397Y014736D01*
X006412Y014704D01*
X006423Y014670D01*
X006432Y014635D01*
X006436Y014600D01*
X006736Y014600D02*
X006736Y013673D01*
X009855Y013673D01*
X009655Y013273D02*
X006436Y013273D01*
X004689Y015215D02*
X004641Y015215D01*
X004593Y015211D01*
X004546Y015204D01*
X004499Y015193D01*
X004454Y015179D01*
X004409Y015162D01*
X004366Y015141D01*
X004324Y015117D01*
X004285Y015091D01*
X004247Y015061D01*
X004212Y015028D01*
X004180Y014993D01*
X004150Y014956D01*
X004123Y014916D01*
X004099Y014875D01*
X004078Y014832D01*
X004060Y014787D01*
X004046Y014742D01*
X004035Y014695D01*
X004028Y014648D01*
X004024Y014600D01*
X004324Y014600D02*
X004328Y014635D01*
X004337Y014670D01*
X004348Y014704D01*
X004363Y014736D01*
X004382Y014767D01*
X004404Y014795D01*
X004428Y014821D01*
X004455Y014844D01*
X004484Y014865D01*
X004516Y014882D01*
X004549Y014896D01*
X004583Y014906D01*
X004618Y014913D01*
X004653Y014916D01*
X004689Y014915D01*
X008741Y010413D02*
X008741Y007703D01*
X008743Y007662D01*
X008748Y007622D01*
X008757Y007582D01*
X008770Y007543D01*
X008786Y007506D01*
X008805Y007470D01*
X008828Y007436D01*
X008853Y007404D01*
X008882Y007374D01*
X008912Y007347D01*
X008945Y007323D01*
X008980Y007302D01*
X009017Y007285D01*
X009055Y007270D01*
X009095Y007259D01*
X009135Y007252D01*
X009176Y007248D01*
X009216Y007248D01*
X009257Y007252D01*
X009297Y007259D01*
X009337Y007270D01*
X009375Y007285D01*
X009412Y007302D01*
X009447Y007323D01*
X009480Y007347D01*
X009510Y007374D01*
X009539Y007404D01*
X009564Y007436D01*
X009587Y007470D01*
X009606Y007506D01*
X009622Y007543D01*
X009635Y007582D01*
X009644Y007622D01*
X009649Y007662D01*
X009651Y007703D01*
X009651Y010413D01*
X009649Y010454D01*
X009644Y010494D01*
X009635Y010534D01*
X009622Y010573D01*
X009606Y010610D01*
X009587Y010646D01*
X009564Y010680D01*
X009539Y010712D01*
X009510Y010742D01*
X009480Y010769D01*
X009447Y010793D01*
X009412Y010814D01*
X009375Y010831D01*
X009337Y010846D01*
X009297Y010857D01*
X009257Y010864D01*
X009216Y010868D01*
X009176Y010868D01*
X009135Y010864D01*
X009095Y010857D01*
X009055Y010846D01*
X009017Y010831D01*
X008980Y010814D01*
X008945Y010793D01*
X008912Y010769D01*
X008882Y010742D01*
X008853Y010712D01*
X008828Y010680D01*
X008805Y010646D01*
X008786Y010610D01*
X008770Y010573D01*
X008757Y010534D01*
X008748Y010494D01*
X008743Y010454D01*
X008741Y010413D01*
X009970Y011199D02*
X009970Y012919D01*
X010270Y013218D02*
X010270Y013258D01*
X010266Y013299D01*
X010258Y013338D01*
X010247Y013377D01*
X010233Y013414D01*
X010215Y013450D01*
X010194Y013484D01*
X010169Y013516D01*
X010142Y013546D01*
X010113Y013573D01*
X010080Y013597D01*
X010046Y013618D01*
X010010Y013636D01*
X009973Y013651D01*
X009934Y013662D01*
X009895Y013669D01*
X009855Y013673D01*
X010270Y013219D02*
X010270Y011499D01*
X009970Y011199D02*
X009974Y011151D01*
X009980Y011103D01*
X009991Y011055D01*
X010005Y011009D01*
X010022Y010963D01*
X010043Y010919D01*
X010067Y010877D01*
X010094Y010837D01*
X010124Y010799D01*
X010157Y010763D01*
X010193Y010729D01*
X010230Y010699D01*
X010270Y010671D01*
X010312Y010646D01*
X010356Y010625D01*
X010401Y010607D01*
X010447Y010592D01*
X010495Y010581D01*
X010543Y010574D01*
X010591Y010570D01*
X010640Y010569D01*
X010639Y010569D02*
X010639Y008022D01*
X011039Y008022D01*
X011039Y010869D01*
X010939Y010869D01*
X010940Y010869D02*
X010891Y010870D01*
X010843Y010874D01*
X010795Y010881D01*
X010747Y010892D01*
X010701Y010907D01*
X010656Y010925D01*
X010612Y010946D01*
X010570Y010971D01*
X010530Y010999D01*
X010493Y011029D01*
X010457Y011063D01*
X010424Y011099D01*
X010394Y011137D01*
X010367Y011177D01*
X010343Y011219D01*
X010322Y011263D01*
X010305Y011309D01*
X010291Y011355D01*
X010280Y011403D01*
X010274Y011451D01*
X010270Y011499D01*
X009969Y012918D02*
X009970Y012953D01*
X009966Y012988D01*
X009959Y013023D01*
X009949Y013056D01*
X009934Y013088D01*
X009917Y013119D01*
X009897Y013147D01*
X009873Y013173D01*
X009847Y013197D01*
X009819Y013218D01*
X009789Y013236D01*
X009757Y013250D01*
X009724Y013261D01*
X009690Y013269D01*
X009655Y013272D01*
X010639Y006988D02*
X011039Y006988D01*
X011039Y003511D01*
X010482Y003440D02*
X010482Y004148D01*
X010483Y004181D01*
X010480Y004213D01*
X010474Y004245D01*
X010464Y004276D01*
X010451Y004306D01*
X010434Y004334D01*
X010415Y004360D01*
X010392Y004384D01*
X010367Y004405D01*
X010340Y004423D01*
X010311Y004438D01*
X010281Y004450D01*
X010249Y004458D01*
X010217Y004463D01*
X010217Y004718D01*
X010246Y004718D01*
X010246Y004717D02*
X010285Y004719D01*
X010323Y004725D01*
X010360Y004734D01*
X010397Y004747D01*
X010432Y004764D01*
X010465Y004783D01*
X010496Y004806D01*
X010525Y004832D01*
X010551Y004861D01*
X010574Y004892D01*
X010593Y004925D01*
X010610Y004960D01*
X010623Y004997D01*
X010632Y005034D01*
X010638Y005072D01*
X010640Y005111D01*
X010639Y005111D02*
X010639Y006988D01*
X011039Y003512D02*
X011062Y003438D01*
X011081Y003362D01*
X011095Y003286D01*
X011106Y003209D01*
X011114Y003132D01*
X011117Y003055D01*
X011116Y002977D01*
X011111Y002900D01*
X011103Y002823D01*
X011091Y002746D01*
X011074Y002670D01*
X011054Y002595D01*
X011030Y002522D01*
X011003Y002449D01*
X010972Y002378D01*
X010937Y002309D01*
X010899Y002241D01*
X010857Y002176D01*
X010813Y002112D01*
X010765Y002052D01*
X010714Y001993D01*
X010660Y001937D01*
X010603Y001884D01*
X010544Y001834D01*
X010483Y001787D01*
X010419Y001743D01*
X010353Y001702D01*
X010285Y001665D01*
X010215Y001631D01*
X010143Y001601D01*
X010070Y001575D01*
X009996Y001552D01*
X009921Y001533D01*
X009845Y001518D01*
X009768Y001506D01*
X009691Y001499D01*
X009614Y001495D01*
X009536Y001496D01*
X009459Y001500D01*
X009382Y001508D01*
X009305Y001520D01*
X009229Y001536D01*
X009154Y001556D01*
X009080Y001579D01*
X009008Y001606D01*
X008937Y001637D01*
X008867Y001672D01*
X008799Y001710D01*
X008734Y001751D01*
X008670Y001795D01*
X008609Y001843D01*
X008550Y001893D01*
X008494Y001947D01*
X008441Y002003D01*
X008390Y002062D01*
X008343Y002124D01*
X008299Y002187D01*
X008749Y002337D02*
X008791Y002290D01*
X008836Y002245D01*
X008884Y002204D01*
X008934Y002165D01*
X008987Y002129D01*
X009041Y002097D01*
X009098Y002068D01*
X009156Y002042D01*
X009215Y002020D01*
X009276Y002002D01*
X009338Y001987D01*
X009401Y001977D01*
X009464Y001970D01*
X009527Y001967D01*
X009591Y001968D01*
X009654Y001973D01*
X009717Y001982D01*
X009779Y001994D01*
X009840Y002011D01*
X009900Y002031D01*
X009959Y002054D01*
X010017Y002082D01*
X010072Y002112D01*
X010126Y002146D01*
X010177Y002184D01*
X010226Y002224D01*
X010272Y002267D01*
X010316Y002313D01*
X010357Y002362D01*
X010395Y002413D01*
X010429Y002466D01*
X010460Y002522D01*
X010488Y002579D01*
X010512Y002637D01*
X010533Y002697D01*
X010550Y002759D01*
X010563Y002821D01*
X010572Y002883D01*
X010577Y002947D01*
X010579Y003010D01*
X010577Y003074D01*
X010570Y003137D01*
X010560Y003199D01*
X010546Y003261D01*
X010529Y003322D01*
X010507Y003382D01*
X010482Y003440D01*
D11*
X009680Y004563D02*
X009682Y004585D01*
X009688Y004606D01*
X009697Y004625D01*
X009709Y004643D01*
X009725Y004659D01*
X009742Y004671D01*
X009762Y004680D01*
X009783Y004686D01*
X009805Y004688D01*
X009827Y004686D01*
X009848Y004680D01*
X009867Y004671D01*
X009885Y004659D01*
X009901Y004643D01*
X009913Y004625D01*
X009922Y004606D01*
X009928Y004585D01*
X009930Y004563D01*
X009928Y004541D01*
X009922Y004520D01*
X009913Y004501D01*
X009901Y004483D01*
X009885Y004467D01*
X009868Y004455D01*
X009848Y004446D01*
X009827Y004440D01*
X009805Y004438D01*
X009783Y004440D01*
X009762Y004446D01*
X009742Y004455D01*
X009725Y004467D01*
X009709Y004483D01*
X009697Y004500D01*
X009688Y004520D01*
X009682Y004541D01*
X009680Y004563D01*
X009185Y004563D02*
X009187Y004585D01*
X009193Y004606D01*
X009202Y004625D01*
X009214Y004643D01*
X009230Y004659D01*
X009247Y004671D01*
X009267Y004680D01*
X009288Y004686D01*
X009310Y004688D01*
X009332Y004686D01*
X009353Y004680D01*
X009372Y004671D01*
X009390Y004659D01*
X009406Y004643D01*
X009418Y004625D01*
X009427Y004606D01*
X009433Y004585D01*
X009435Y004563D01*
X009433Y004541D01*
X009427Y004520D01*
X009418Y004501D01*
X009406Y004483D01*
X009390Y004467D01*
X009373Y004455D01*
X009353Y004446D01*
X009332Y004440D01*
X009310Y004438D01*
X009288Y004440D01*
X009267Y004446D01*
X009247Y004455D01*
X009230Y004467D01*
X009214Y004483D01*
X009202Y004500D01*
X009193Y004520D01*
X009187Y004541D01*
X009185Y004563D01*
X010659Y007155D02*
X010661Y007172D01*
X010666Y007189D01*
X010675Y007203D01*
X010687Y007216D01*
X010702Y007226D01*
X010718Y007232D01*
X010735Y007235D01*
X010752Y007234D01*
X010769Y007229D01*
X010784Y007221D01*
X010797Y007210D01*
X010808Y007196D01*
X010815Y007181D01*
X010819Y007164D01*
X010819Y007146D01*
X010815Y007129D01*
X010808Y007114D01*
X010797Y007100D01*
X010784Y007089D01*
X010769Y007081D01*
X010752Y007076D01*
X010735Y007075D01*
X010718Y007078D01*
X010702Y007084D01*
X010687Y007094D01*
X010675Y007107D01*
X010666Y007121D01*
X010661Y007138D01*
X010659Y007155D01*
X010659Y007380D02*
X010661Y007397D01*
X010666Y007414D01*
X010675Y007428D01*
X010687Y007441D01*
X010702Y007451D01*
X010718Y007457D01*
X010735Y007460D01*
X010752Y007459D01*
X010769Y007454D01*
X010784Y007446D01*
X010797Y007435D01*
X010808Y007421D01*
X010815Y007406D01*
X010819Y007389D01*
X010819Y007371D01*
X010815Y007354D01*
X010808Y007339D01*
X010797Y007325D01*
X010784Y007314D01*
X010769Y007306D01*
X010752Y007301D01*
X010735Y007300D01*
X010718Y007303D01*
X010702Y007309D01*
X010687Y007319D01*
X010675Y007332D01*
X010666Y007346D01*
X010661Y007363D01*
X010659Y007380D01*
X010659Y007605D02*
X010661Y007622D01*
X010666Y007639D01*
X010675Y007653D01*
X010687Y007666D01*
X010702Y007676D01*
X010718Y007682D01*
X010735Y007685D01*
X010752Y007684D01*
X010769Y007679D01*
X010784Y007671D01*
X010797Y007660D01*
X010808Y007646D01*
X010815Y007631D01*
X010819Y007614D01*
X010819Y007596D01*
X010815Y007579D01*
X010808Y007564D01*
X010797Y007550D01*
X010784Y007539D01*
X010769Y007531D01*
X010752Y007526D01*
X010735Y007525D01*
X010718Y007528D01*
X010702Y007534D01*
X010687Y007544D01*
X010675Y007557D01*
X010666Y007571D01*
X010661Y007588D01*
X010659Y007605D01*
X010659Y007830D02*
X010661Y007847D01*
X010666Y007864D01*
X010675Y007878D01*
X010687Y007891D01*
X010702Y007901D01*
X010718Y007907D01*
X010735Y007910D01*
X010752Y007909D01*
X010769Y007904D01*
X010784Y007896D01*
X010797Y007885D01*
X010808Y007871D01*
X010815Y007856D01*
X010819Y007839D01*
X010819Y007821D01*
X010815Y007804D01*
X010808Y007789D01*
X010797Y007775D01*
X010784Y007764D01*
X010769Y007756D01*
X010752Y007751D01*
X010735Y007750D01*
X010718Y007753D01*
X010702Y007759D01*
X010687Y007769D01*
X010675Y007782D01*
X010666Y007796D01*
X010661Y007813D01*
X010659Y007830D01*
X003656Y007858D02*
X003658Y007875D01*
X003663Y007892D01*
X003672Y007906D01*
X003684Y007919D01*
X003699Y007929D01*
X003715Y007935D01*
X003732Y007938D01*
X003749Y007937D01*
X003766Y007932D01*
X003781Y007924D01*
X003794Y007913D01*
X003805Y007899D01*
X003812Y007884D01*
X003816Y007867D01*
X003816Y007849D01*
X003812Y007832D01*
X003805Y007817D01*
X003794Y007803D01*
X003781Y007792D01*
X003766Y007784D01*
X003749Y007779D01*
X003732Y007778D01*
X003715Y007781D01*
X003699Y007787D01*
X003684Y007797D01*
X003672Y007810D01*
X003663Y007824D01*
X003658Y007841D01*
X003656Y007858D01*
X003656Y007633D02*
X003658Y007650D01*
X003663Y007667D01*
X003672Y007681D01*
X003684Y007694D01*
X003699Y007704D01*
X003715Y007710D01*
X003732Y007713D01*
X003749Y007712D01*
X003766Y007707D01*
X003781Y007699D01*
X003794Y007688D01*
X003805Y007674D01*
X003812Y007659D01*
X003816Y007642D01*
X003816Y007624D01*
X003812Y007607D01*
X003805Y007592D01*
X003794Y007578D01*
X003781Y007567D01*
X003766Y007559D01*
X003749Y007554D01*
X003732Y007553D01*
X003715Y007556D01*
X003699Y007562D01*
X003684Y007572D01*
X003672Y007585D01*
X003663Y007599D01*
X003658Y007616D01*
X003656Y007633D01*
X003656Y007408D02*
X003658Y007425D01*
X003663Y007442D01*
X003672Y007456D01*
X003684Y007469D01*
X003699Y007479D01*
X003715Y007485D01*
X003732Y007488D01*
X003749Y007487D01*
X003766Y007482D01*
X003781Y007474D01*
X003794Y007463D01*
X003805Y007449D01*
X003812Y007434D01*
X003816Y007417D01*
X003816Y007399D01*
X003812Y007382D01*
X003805Y007367D01*
X003794Y007353D01*
X003781Y007342D01*
X003766Y007334D01*
X003749Y007329D01*
X003732Y007328D01*
X003715Y007331D01*
X003699Y007337D01*
X003684Y007347D01*
X003672Y007360D01*
X003663Y007374D01*
X003658Y007391D01*
X003656Y007408D01*
X003656Y007183D02*
X003658Y007200D01*
X003663Y007217D01*
X003672Y007231D01*
X003684Y007244D01*
X003699Y007254D01*
X003715Y007260D01*
X003732Y007263D01*
X003749Y007262D01*
X003766Y007257D01*
X003781Y007249D01*
X003794Y007238D01*
X003805Y007224D01*
X003812Y007209D01*
X003816Y007192D01*
X003816Y007174D01*
X003812Y007157D01*
X003805Y007142D01*
X003794Y007128D01*
X003781Y007117D01*
X003766Y007109D01*
X003749Y007104D01*
X003732Y007103D01*
X003715Y007106D01*
X003699Y007112D01*
X003684Y007122D01*
X003672Y007135D01*
X003663Y007149D01*
X003658Y007166D01*
X003656Y007183D01*
D12*
X003946Y011243D03*
X003119Y011243D03*
D13*
X008732Y011909D03*
X008732Y012618D03*
D14*
X005639Y011663D03*
X004929Y011663D03*
D15*
X008015Y011990D03*
X008015Y012537D03*
X010182Y009854D03*
X010182Y009307D03*
X010182Y008654D03*
X010182Y008107D03*
X005832Y007637D03*
X005832Y007090D03*
X005282Y007090D03*
X005282Y007637D03*
X004732Y007637D03*
X004732Y007090D03*
D16*
X005152Y012313D03*
X005699Y012313D03*
X009296Y003663D03*
X009843Y003663D03*
D17*
X008112Y008197D03*
X008112Y008697D03*
X008112Y009197D03*
X008112Y009697D03*
X005992Y009697D03*
X005992Y009197D03*
X005992Y008697D03*
X005992Y008197D03*
D18*
X007052Y008947D03*
D19*
X006932Y011752D03*
X006558Y011752D03*
X007306Y011752D03*
X007306Y012775D03*
X006932Y012775D03*
X006558Y012775D03*
D20*
X005781Y011118D03*
X005781Y010862D03*
X005781Y010606D03*
X005781Y010350D03*
X008084Y010350D03*
X008084Y010606D03*
X008084Y010862D03*
X008084Y011118D03*
D21*
X007701Y006346D03*
X007217Y006346D03*
X006020Y006346D03*
X005536Y006346D03*
D22*
X006422Y006346D03*
X006816Y006346D03*
D23*
X008211Y006417D02*
X008211Y006173D01*
X008212Y006173D02*
X008214Y006153D01*
X008219Y006134D01*
X008228Y006116D01*
X008240Y006100D01*
X008255Y006087D01*
X008272Y006076D01*
X008290Y006069D01*
X008310Y006065D01*
X008330Y006065D01*
X008350Y006069D01*
X008368Y006076D01*
X008385Y006087D01*
X008400Y006100D01*
X008412Y006116D01*
X008421Y006134D01*
X008426Y006153D01*
X008428Y006173D01*
X008428Y006417D01*
X008426Y006437D01*
X008421Y006456D01*
X008412Y006474D01*
X008400Y006490D01*
X008385Y006503D01*
X008368Y006514D01*
X008350Y006521D01*
X008330Y006525D01*
X008310Y006525D01*
X008290Y006521D01*
X008272Y006514D01*
X008255Y006503D01*
X008240Y006490D01*
X008228Y006474D01*
X008219Y006456D01*
X008214Y006437D01*
X008212Y006417D01*
X008211Y004921D02*
X008211Y004677D01*
X008212Y004677D02*
X008214Y004657D01*
X008219Y004638D01*
X008228Y004620D01*
X008240Y004604D01*
X008255Y004591D01*
X008272Y004580D01*
X008290Y004573D01*
X008310Y004569D01*
X008330Y004569D01*
X008350Y004573D01*
X008368Y004580D01*
X008385Y004591D01*
X008400Y004604D01*
X008412Y004620D01*
X008421Y004638D01*
X008426Y004657D01*
X008428Y004677D01*
X008428Y004921D01*
X008426Y004941D01*
X008421Y004960D01*
X008412Y004978D01*
X008400Y004994D01*
X008385Y005007D01*
X008368Y005018D01*
X008350Y005025D01*
X008330Y005029D01*
X008310Y005029D01*
X008290Y005025D01*
X008272Y005018D01*
X008255Y005007D01*
X008240Y004994D01*
X008228Y004978D01*
X008219Y004960D01*
X008214Y004941D01*
X008212Y004921D01*
X005026Y004921D02*
X005026Y004677D01*
X005024Y004657D01*
X005019Y004638D01*
X005010Y004620D01*
X004998Y004604D01*
X004983Y004591D01*
X004966Y004580D01*
X004948Y004573D01*
X004928Y004569D01*
X004908Y004569D01*
X004888Y004573D01*
X004870Y004580D01*
X004853Y004591D01*
X004838Y004604D01*
X004826Y004620D01*
X004817Y004638D01*
X004812Y004657D01*
X004810Y004677D01*
X004810Y004921D01*
X004812Y004941D01*
X004817Y004960D01*
X004826Y004978D01*
X004838Y004994D01*
X004853Y005007D01*
X004870Y005018D01*
X004888Y005025D01*
X004908Y005029D01*
X004928Y005029D01*
X004948Y005025D01*
X004966Y005018D01*
X004983Y005007D01*
X004998Y004994D01*
X005010Y004978D01*
X005019Y004960D01*
X005024Y004941D01*
X005026Y004921D01*
X005026Y006173D02*
X005026Y006417D01*
X005024Y006437D01*
X005019Y006456D01*
X005010Y006474D01*
X004998Y006490D01*
X004983Y006503D01*
X004966Y006514D01*
X004948Y006521D01*
X004928Y006525D01*
X004908Y006525D01*
X004888Y006521D01*
X004870Y006514D01*
X004853Y006503D01*
X004838Y006490D01*
X004826Y006474D01*
X004817Y006456D01*
X004812Y006437D01*
X004810Y006417D01*
X004810Y006173D01*
X004812Y006153D01*
X004817Y006134D01*
X004826Y006116D01*
X004838Y006100D01*
X004853Y006087D01*
X004870Y006076D01*
X004888Y006069D01*
X004908Y006065D01*
X004928Y006065D01*
X004948Y006069D01*
X004966Y006076D01*
X004983Y006087D01*
X004998Y006100D01*
X005010Y006116D01*
X005019Y006134D01*
X005024Y006153D01*
X005026Y006173D01*
D24*
X004918Y006411D02*
X004918Y006411D01*
X004918Y006175D01*
X004918Y006175D01*
X004918Y006411D01*
X004918Y004915D02*
X004918Y004915D01*
X004918Y004679D01*
X004918Y004679D01*
X004918Y004915D01*
X008320Y004915D02*
X008320Y004915D01*
X008320Y004679D01*
X008320Y004679D01*
X008320Y004915D01*
X008320Y006411D02*
X008320Y006411D01*
X008320Y006175D01*
X008320Y006175D01*
X008320Y006411D01*
D25*
X010282Y006601D03*
X010282Y005901D03*
X010282Y005201D03*
D26*
X010170Y004163D03*
X009570Y004163D03*
X008970Y004163D03*
D27*
X005573Y013019D03*
X005179Y013019D03*
D28*
X004567Y014063D03*
X006184Y014063D03*
D29*
X004432Y005343D03*
X004082Y005343D03*
X004082Y004909D03*
X004432Y004909D03*
X009220Y003180D03*
X009570Y003180D03*
X009920Y003180D03*
X009920Y002747D03*
X009570Y002747D03*
X009220Y002747D03*
D30*
X002182Y010213D03*
D31*
X009197Y007253D03*
D32*
X011524Y001287D03*
X001287Y001287D03*
X001287Y015461D03*
D33*
X009500Y011613D03*
D34*
X009129Y011970D02*
X009129Y012180D01*
X009023Y012286D01*
X008984Y012286D01*
X009003Y012291D01*
X009035Y012309D01*
X009061Y012335D01*
X009079Y012367D01*
X009089Y012403D01*
X009089Y012578D01*
X008772Y012578D01*
X008772Y012658D01*
X008692Y012658D01*
X008692Y012578D01*
X008376Y012578D01*
X008376Y012403D01*
X008385Y012367D01*
X008404Y012335D01*
X008430Y012309D01*
X008462Y012291D01*
X008481Y012286D01*
X008441Y012286D01*
X008359Y012203D01*
X008268Y012294D01*
X008278Y012300D01*
X008304Y012326D01*
X008323Y012358D01*
X008332Y012393D01*
X008332Y012514D01*
X008037Y012514D01*
X008037Y012559D01*
X007992Y012559D01*
X007992Y012514D01*
X007698Y012514D01*
X007698Y012413D01*
X007544Y012413D01*
X007595Y012464D01*
X007595Y013008D01*
X009642Y013008D01*
X009653Y013006D01*
X009678Y012994D01*
X009696Y012974D01*
X009705Y012948D01*
X009705Y012946D01*
X009705Y012926D01*
X009702Y012881D01*
X009705Y012874D01*
X009705Y012086D01*
X009602Y012128D01*
X009398Y012128D01*
X009208Y012050D01*
X009129Y011970D01*
X009129Y012040D02*
X009198Y012040D01*
X009129Y012118D02*
X009373Y012118D01*
X009627Y012118D02*
X009705Y012118D01*
X009705Y012197D02*
X009112Y012197D01*
X009034Y012275D02*
X009705Y012275D01*
X009705Y012354D02*
X009071Y012354D01*
X009089Y012432D02*
X009705Y012432D01*
X009705Y012511D02*
X009089Y012511D01*
X009089Y012658D02*
X009089Y012833D01*
X009079Y012869D01*
X009061Y012901D01*
X009035Y012927D01*
X009003Y012945D01*
X008967Y012955D01*
X008772Y012955D01*
X008772Y012658D01*
X009089Y012658D01*
X009089Y012668D02*
X009705Y012668D01*
X009705Y012746D02*
X009089Y012746D01*
X009089Y012825D02*
X009705Y012825D01*
X009704Y012903D02*
X009059Y012903D01*
X008772Y012903D02*
X008692Y012903D01*
X008692Y012955D02*
X008497Y012955D01*
X008462Y012945D01*
X008430Y012927D01*
X008404Y012901D01*
X008385Y012869D01*
X008376Y012833D01*
X008376Y012658D01*
X008692Y012658D01*
X008692Y012955D01*
X008692Y012825D02*
X008772Y012825D01*
X008772Y012746D02*
X008692Y012746D01*
X008692Y012668D02*
X008772Y012668D01*
X008772Y012589D02*
X009705Y012589D01*
X009689Y012982D02*
X007595Y012982D01*
X007595Y012903D02*
X008406Y012903D01*
X008376Y012825D02*
X007595Y012825D01*
X007595Y012746D02*
X007725Y012746D01*
X007726Y012748D02*
X007707Y012716D01*
X007698Y012680D01*
X007698Y012559D01*
X007992Y012559D01*
X007992Y012802D01*
X007819Y012802D01*
X007784Y012792D01*
X007752Y012774D01*
X007726Y012748D01*
X007698Y012668D02*
X007595Y012668D01*
X007595Y012589D02*
X007698Y012589D01*
X007698Y012511D02*
X007595Y012511D01*
X007562Y012432D02*
X007698Y012432D01*
X007992Y012589D02*
X008037Y012589D01*
X008037Y012559D02*
X008037Y012802D01*
X008211Y012802D01*
X008246Y012792D01*
X008278Y012774D01*
X008304Y012748D01*
X008323Y012716D01*
X008332Y012680D01*
X008332Y012559D01*
X008037Y012559D01*
X008037Y012668D02*
X007992Y012668D01*
X007992Y012746D02*
X008037Y012746D01*
X008305Y012746D02*
X008376Y012746D01*
X008376Y012668D02*
X008332Y012668D01*
X008332Y012589D02*
X008692Y012589D01*
X008376Y012511D02*
X008332Y012511D01*
X008332Y012432D02*
X008376Y012432D01*
X008393Y012354D02*
X008320Y012354D01*
X008287Y012275D02*
X008431Y012275D01*
X008336Y011754D02*
X008267Y011685D01*
X007763Y011685D01*
X007658Y011791D01*
X007658Y011834D01*
X007620Y011872D01*
X007595Y011898D01*
X007595Y011441D01*
X007556Y011403D01*
X007556Y010693D01*
X007649Y010600D01*
X007708Y010600D01*
X007708Y010606D01*
X008084Y010606D01*
X008084Y010606D01*
X008084Y010653D01*
X008084Y010862D01*
X008084Y010862D01*
X007708Y010862D01*
X007556Y010862D01*
X007556Y010784D02*
X007708Y010784D01*
X007708Y010775D02*
X007717Y010739D01*
X007720Y010734D01*
X007717Y010729D01*
X007708Y010693D01*
X007708Y010606D01*
X008084Y010606D01*
X008084Y010862D01*
X008084Y010862D01*
X007708Y010862D01*
X007708Y010934D01*
X007668Y010974D01*
X007668Y011261D01*
X007773Y011367D01*
X008325Y011367D01*
X008325Y011475D01*
X008376Y011597D01*
X008336Y011637D01*
X008336Y011754D01*
X008336Y011726D02*
X008307Y011726D01*
X008336Y011647D02*
X007595Y011647D01*
X007595Y011569D02*
X008364Y011569D01*
X008331Y011490D02*
X007595Y011490D01*
X007565Y011412D02*
X008325Y011412D01*
X008084Y010784D02*
X008084Y010784D01*
X008084Y010705D02*
X008084Y010705D01*
X008084Y010627D02*
X008084Y010627D01*
X008084Y010606D02*
X008084Y010606D01*
X007708Y010627D02*
X007623Y010627D01*
X007556Y010705D02*
X007711Y010705D01*
X007708Y010775D02*
X007708Y010862D01*
X007701Y010941D02*
X007556Y010941D01*
X007556Y011019D02*
X007668Y011019D01*
X007668Y011098D02*
X007556Y011098D01*
X007556Y011176D02*
X007668Y011176D01*
X007668Y011255D02*
X007556Y011255D01*
X007556Y011333D02*
X007739Y011333D01*
X007723Y011726D02*
X007595Y011726D01*
X007595Y011804D02*
X007658Y011804D01*
X007610Y011883D02*
X007595Y011883D01*
X007056Y011335D02*
X007056Y010540D01*
X007094Y010448D01*
X007404Y010138D01*
X007496Y010100D01*
X007520Y010100D01*
X007482Y010062D01*
X007455Y009997D01*
X007179Y009997D01*
X007095Y010081D01*
X006957Y010138D01*
X006808Y010138D01*
X006670Y010081D01*
X006564Y009976D01*
X006524Y009878D01*
X006509Y009903D01*
X006483Y009929D01*
X006451Y009948D01*
X006415Y009957D01*
X006012Y009957D01*
X006012Y009717D01*
X005972Y009717D01*
X005972Y009677D01*
X005447Y009677D01*
X005447Y009559D01*
X005457Y009523D01*
X005475Y009491D01*
X005484Y009482D01*
X005412Y009453D01*
X005328Y009368D01*
X005282Y009258D01*
X005282Y009139D01*
X005328Y009028D01*
X005412Y008944D01*
X005485Y008914D01*
X005475Y008903D01*
X005457Y008871D01*
X005447Y008836D01*
X005447Y008717D01*
X005972Y008717D01*
X005972Y008677D01*
X005447Y008677D01*
X005447Y008559D01*
X005457Y008523D01*
X005475Y008491D01*
X005491Y008476D01*
X005407Y008392D01*
X005407Y008003D01*
X005512Y007897D01*
X005620Y007897D01*
X005601Y007892D01*
X005569Y007874D01*
X005557Y007862D01*
X005545Y007874D01*
X005513Y007892D01*
X005478Y007902D01*
X005305Y007902D01*
X005305Y007659D01*
X005599Y007659D01*
X005810Y007659D01*
X005810Y007614D01*
X005305Y007614D01*
X005305Y007659D01*
X005260Y007659D01*
X005260Y007902D01*
X005087Y007902D01*
X005051Y007892D01*
X005040Y007886D01*
X004984Y007942D01*
X004962Y007942D01*
X004962Y008644D01*
X004987Y008668D01*
X005032Y008779D01*
X005032Y008898D01*
X004987Y009008D01*
X004902Y009093D01*
X004792Y009138D01*
X004673Y009138D01*
X004562Y009093D01*
X004478Y009008D01*
X004432Y008898D01*
X004432Y008779D01*
X004478Y008668D01*
X004502Y008644D01*
X004502Y007942D01*
X004481Y007942D01*
X004375Y007836D01*
X004375Y007437D01*
X004479Y007333D01*
X004469Y007327D01*
X004443Y007301D01*
X004425Y007269D01*
X004415Y007234D01*
X004415Y007113D01*
X004710Y007113D01*
X004710Y007068D01*
X004415Y007068D01*
X004415Y006947D01*
X004425Y006911D01*
X004443Y006879D01*
X004469Y006853D01*
X004501Y006835D01*
X004537Y006825D01*
X004710Y006825D01*
X004710Y007068D01*
X004755Y007068D01*
X004755Y006825D01*
X004928Y006825D01*
X004963Y006835D01*
X004975Y006841D01*
X005015Y006800D01*
X004997Y006808D01*
X004839Y006808D01*
X004693Y006748D01*
X004582Y006636D01*
X004521Y006490D01*
X004521Y006096D01*
X004543Y006043D01*
X004327Y006043D01*
X004252Y006118D01*
X004142Y006163D01*
X004101Y006163D01*
X004101Y007041D01*
X004060Y007138D01*
X004056Y007143D01*
X004056Y007246D01*
X004036Y007295D01*
X004056Y007344D01*
X004056Y007471D01*
X004036Y007520D01*
X004056Y007569D01*
X004056Y007696D01*
X004036Y007745D01*
X004056Y007794D01*
X004056Y007867D01*
X004060Y007872D01*
X004101Y007970D01*
X004101Y008680D01*
X004105Y008696D01*
X004101Y008732D01*
X004101Y008768D01*
X004094Y008784D01*
X004084Y008863D01*
X004084Y008863D01*
X003970Y009065D01*
X003787Y009207D01*
X003564Y009268D01*
X003564Y009268D01*
X003465Y009256D01*
X002837Y009256D01*
X002837Y010018D01*
X002862Y010078D01*
X002862Y010349D01*
X002837Y010409D01*
X002837Y010748D01*
X003410Y010748D01*
X003515Y010853D01*
X003515Y011613D01*
X003600Y011613D01*
X003599Y011612D01*
X003589Y011576D01*
X003589Y011283D01*
X003906Y011283D01*
X003906Y011203D01*
X003986Y011203D01*
X003986Y011283D01*
X004302Y011283D01*
X004302Y011576D01*
X004293Y011612D01*
X004292Y011613D01*
X004492Y011613D01*
X004552Y011638D01*
X004552Y011372D01*
X004658Y011267D01*
X004702Y011267D01*
X004720Y011222D01*
X004791Y011151D01*
X005364Y010578D01*
X005364Y010207D01*
X005470Y010101D01*
X005728Y010101D01*
X005731Y010100D01*
X006419Y010100D01*
X006511Y010138D01*
X006774Y010401D01*
X006844Y010472D01*
X006882Y010564D01*
X006882Y011335D01*
X007056Y011335D01*
X007056Y011333D02*
X006882Y011333D01*
X006882Y011255D02*
X007056Y011255D01*
X007056Y011176D02*
X006882Y011176D01*
X006882Y011098D02*
X007056Y011098D01*
X007056Y011019D02*
X006882Y011019D01*
X006882Y010941D02*
X007056Y010941D01*
X007056Y010862D02*
X006882Y010862D01*
X006882Y010784D02*
X007056Y010784D01*
X007056Y010705D02*
X006882Y010705D01*
X006882Y010627D02*
X007056Y010627D01*
X007056Y010548D02*
X006876Y010548D01*
X006842Y010470D02*
X007085Y010470D01*
X007151Y010391D02*
X006763Y010391D01*
X006685Y010313D02*
X007230Y010313D01*
X007308Y010234D02*
X006606Y010234D01*
X006528Y010156D02*
X007387Y010156D01*
X007497Y010077D02*
X007099Y010077D01*
X007178Y009999D02*
X007456Y009999D01*
X006666Y010077D02*
X002862Y010077D01*
X002862Y010156D02*
X005416Y010156D01*
X005364Y010234D02*
X002862Y010234D01*
X002862Y010313D02*
X005364Y010313D01*
X005364Y010391D02*
X002845Y010391D01*
X002837Y010470D02*
X005364Y010470D01*
X005364Y010548D02*
X002837Y010548D01*
X002837Y010627D02*
X005316Y010627D01*
X005237Y010705D02*
X002837Y010705D01*
X002837Y009999D02*
X006587Y009999D01*
X006541Y009920D02*
X006492Y009920D01*
X006012Y009920D02*
X005972Y009920D01*
X005972Y009957D02*
X005569Y009957D01*
X005533Y009948D01*
X005501Y009929D01*
X005475Y009903D01*
X005457Y009871D01*
X005447Y009836D01*
X005447Y009717D01*
X005972Y009717D01*
X005972Y009957D01*
X005972Y009842D02*
X006012Y009842D01*
X006012Y009763D02*
X005972Y009763D01*
X005972Y009685D02*
X002837Y009685D01*
X002837Y009763D02*
X005447Y009763D01*
X005449Y009842D02*
X002837Y009842D01*
X002837Y009920D02*
X005492Y009920D01*
X005447Y009606D02*
X002837Y009606D01*
X002837Y009528D02*
X005455Y009528D01*
X005409Y009449D02*
X002837Y009449D01*
X002837Y009371D02*
X005330Y009371D01*
X005296Y009292D02*
X002837Y009292D01*
X002946Y008426D02*
X002962Y008421D01*
X002998Y008426D01*
X003033Y008426D01*
X003044Y008423D01*
X003060Y008410D01*
X003071Y008393D01*
X003071Y008392D01*
X003071Y007970D01*
X003111Y007872D01*
X003186Y007798D01*
X003283Y007757D01*
X003431Y007757D01*
X003436Y007745D01*
X003416Y007696D01*
X003416Y007569D01*
X003436Y007520D01*
X003416Y007471D01*
X003416Y007344D01*
X003436Y007295D01*
X003419Y007253D01*
X003283Y007253D01*
X003186Y007213D01*
X003111Y007138D01*
X003071Y007041D01*
X003071Y004111D01*
X000765Y004111D01*
X000765Y004033D02*
X003103Y004033D01*
X003111Y004013D02*
X003071Y004111D01*
X003071Y004190D02*
X000765Y004190D01*
X000765Y004268D02*
X003071Y004268D01*
X003071Y004347D02*
X000765Y004347D01*
X000765Y004425D02*
X003071Y004425D01*
X003071Y004504D02*
X000765Y004504D01*
X000765Y004582D02*
X003071Y004582D01*
X003071Y004661D02*
X000765Y004661D01*
X000765Y004739D02*
X003071Y004739D01*
X003071Y004818D02*
X000765Y004818D01*
X000765Y004896D02*
X003071Y004896D01*
X003071Y004975D02*
X000765Y004975D01*
X000765Y005053D02*
X003071Y005053D01*
X003071Y005132D02*
X000765Y005132D01*
X000765Y005210D02*
X003071Y005210D01*
X003071Y005289D02*
X000765Y005289D01*
X000765Y005367D02*
X003071Y005367D01*
X003071Y005446D02*
X000765Y005446D01*
X000765Y005524D02*
X003071Y005524D01*
X003071Y005603D02*
X000765Y005603D01*
X000765Y005681D02*
X003071Y005681D01*
X003071Y005760D02*
X000765Y005760D01*
X000765Y005838D02*
X003071Y005838D01*
X003071Y005917D02*
X000765Y005917D01*
X000765Y005995D02*
X003071Y005995D01*
X003071Y006074D02*
X000765Y006074D01*
X000765Y006152D02*
X003071Y006152D01*
X003071Y006231D02*
X000765Y006231D01*
X000765Y006309D02*
X003071Y006309D01*
X003071Y006388D02*
X000765Y006388D01*
X000765Y006466D02*
X003071Y006466D01*
X003071Y006545D02*
X000765Y006545D01*
X000765Y006623D02*
X003071Y006623D01*
X003071Y006702D02*
X000765Y006702D01*
X000765Y006780D02*
X003071Y006780D01*
X003071Y006859D02*
X000765Y006859D01*
X000765Y006937D02*
X003071Y006937D01*
X003071Y007016D02*
X000765Y007016D01*
X000765Y007094D02*
X003093Y007094D01*
X003146Y007173D02*
X000765Y007173D01*
X000765Y007251D02*
X003278Y007251D01*
X003422Y007330D02*
X000765Y007330D01*
X000765Y007408D02*
X003416Y007408D01*
X003422Y007487D02*
X000765Y007487D01*
X000765Y007565D02*
X003418Y007565D01*
X003416Y007644D02*
X000765Y007644D01*
X000765Y007722D02*
X003426Y007722D01*
X003183Y007801D02*
X000765Y007801D01*
X000765Y007879D02*
X003108Y007879D01*
X003076Y007958D02*
X000765Y007958D01*
X000765Y008036D02*
X003071Y008036D01*
X003071Y008115D02*
X000765Y008115D01*
X000765Y008193D02*
X003071Y008193D01*
X003071Y008272D02*
X000765Y008272D01*
X000765Y008350D02*
X003071Y008350D01*
X002946Y008426D02*
X002071Y008426D01*
X001858Y008514D01*
X001858Y008514D01*
X001858Y008514D01*
X001695Y008677D01*
X001695Y008677D01*
X001607Y008891D01*
X001607Y009827D01*
X001606Y009828D01*
X001502Y010078D01*
X001502Y010349D01*
X001606Y010599D01*
X001607Y010599D01*
X001607Y012294D01*
X001695Y012507D01*
X001695Y012507D01*
X001858Y012670D01*
X001858Y012670D01*
X002071Y012759D01*
X003759Y012759D01*
X003759Y014552D01*
X003757Y014557D01*
X003759Y014605D01*
X003759Y014652D01*
X003761Y014657D01*
X003765Y014753D01*
X003765Y014753D01*
X003864Y015022D01*
X003864Y015022D01*
X004041Y015248D01*
X004041Y015248D01*
X004041Y015248D01*
X004280Y015407D01*
X004280Y015407D01*
X004556Y015485D01*
X004556Y015485D01*
X004694Y015480D01*
X006066Y015480D01*
X006241Y015486D01*
X006241Y015486D01*
X006579Y015362D01*
X006579Y015362D01*
X006843Y015117D01*
X006843Y015117D01*
X006994Y014790D01*
X006994Y014790D01*
X006999Y014657D01*
X007001Y014652D01*
X007001Y014605D01*
X007003Y014557D01*
X007001Y014552D01*
X007001Y013938D01*
X009809Y013938D01*
X009814Y013940D01*
X009861Y013938D01*
X009908Y013938D01*
X009914Y013935D01*
X010006Y013931D01*
X010258Y013813D01*
X010446Y013608D01*
X010446Y013608D01*
X010541Y013346D01*
X010541Y013346D01*
X010535Y013213D01*
X010535Y011506D01*
X010542Y011447D01*
X010582Y011333D01*
X010656Y011238D01*
X010755Y011170D01*
X010871Y011137D01*
X010929Y011134D01*
X010935Y011134D01*
X010984Y011135D01*
X010988Y011134D01*
X011092Y011134D01*
X011189Y011094D01*
X011264Y011019D01*
X012035Y011019D01*
X012035Y010941D02*
X011297Y010941D01*
X011304Y010922D02*
X011264Y011019D01*
X011304Y010922D02*
X011304Y007970D01*
X011264Y007872D01*
X011189Y007798D01*
X011092Y007757D01*
X011056Y007757D01*
X011039Y007717D01*
X011059Y007668D01*
X011059Y007541D01*
X011039Y007492D01*
X011059Y007443D01*
X011059Y007316D01*
X011039Y007267D01*
X011045Y007253D01*
X011092Y007253D01*
X011189Y007213D01*
X011264Y007138D01*
X011304Y007041D01*
X011304Y003554D01*
X011365Y003370D01*
X011365Y003370D01*
X011393Y002897D01*
X011393Y002897D01*
X011296Y002433D01*
X011296Y002433D01*
X011083Y002009D01*
X011083Y002009D01*
X010768Y001656D01*
X010768Y001656D01*
X010372Y001396D01*
X010372Y001396D01*
X009922Y001247D01*
X009922Y001247D01*
X009449Y001220D01*
X009449Y001220D01*
X008985Y001316D01*
X008985Y001316D01*
X008562Y001529D01*
X008562Y001529D01*
X008208Y001844D01*
X008208Y001844D01*
X008093Y002019D01*
X008075Y002037D01*
X008064Y002063D01*
X008049Y002086D01*
X008044Y002111D01*
X008035Y002135D01*
X008035Y002162D01*
X008029Y002190D01*
X008035Y002215D01*
X008035Y003898D01*
X003283Y003898D01*
X003186Y003939D01*
X003111Y004013D01*
X003170Y003954D02*
X000765Y003954D01*
X000765Y003876D02*
X008035Y003876D01*
X008035Y003797D02*
X000765Y003797D01*
X000765Y003719D02*
X008035Y003719D01*
X008035Y003640D02*
X000765Y003640D01*
X000765Y003562D02*
X008035Y003562D01*
X008035Y003483D02*
X000765Y003483D01*
X000765Y003405D02*
X008035Y003405D01*
X008035Y003326D02*
X000765Y003326D01*
X000765Y003248D02*
X008035Y003248D01*
X008035Y003169D02*
X000765Y003169D01*
X000765Y003091D02*
X008035Y003091D01*
X008035Y003012D02*
X000765Y003012D01*
X000765Y002934D02*
X008035Y002934D01*
X008035Y002855D02*
X000765Y002855D01*
X000765Y002777D02*
X008035Y002777D01*
X008035Y002698D02*
X000765Y002698D01*
X000765Y002620D02*
X008035Y002620D01*
X008035Y002541D02*
X000765Y002541D01*
X000765Y002463D02*
X008035Y002463D01*
X008035Y002384D02*
X000765Y002384D01*
X000765Y002306D02*
X008035Y002306D01*
X008035Y002227D02*
X000765Y002227D01*
X000765Y002149D02*
X008035Y002149D01*
X008060Y002070D02*
X000765Y002070D01*
X000765Y001992D02*
X008111Y001992D01*
X008163Y001913D02*
X000765Y001913D01*
X000765Y001835D02*
X008219Y001835D01*
X008307Y001756D02*
X000765Y001756D01*
X000765Y001678D02*
X008395Y001678D01*
X008483Y001599D02*
X000765Y001599D01*
X000765Y001521D02*
X001089Y001521D01*
X001115Y001546D02*
X001029Y001460D01*
X000982Y001348D01*
X000982Y001227D01*
X001029Y001115D01*
X001115Y001029D01*
X001227Y000982D01*
X001348Y000982D01*
X001460Y001029D01*
X001546Y001115D01*
X001592Y001227D01*
X001592Y001348D01*
X001546Y001460D01*
X001460Y001546D01*
X001348Y001592D01*
X001227Y001592D01*
X001115Y001546D01*
X001021Y001442D02*
X000765Y001442D01*
X000765Y001364D02*
X000989Y001364D01*
X000982Y001285D02*
X000765Y001285D01*
X000765Y001207D02*
X000991Y001207D01*
X001023Y001128D02*
X000765Y001128D01*
X000765Y001050D02*
X001094Y001050D01*
X001000Y000765D02*
X000954Y000770D01*
X000869Y000805D01*
X000805Y000869D01*
X000770Y000954D01*
X000765Y001000D01*
X000765Y015750D01*
X000770Y015796D01*
X000805Y015881D01*
X000869Y015945D01*
X000954Y015980D01*
X001000Y015985D01*
X011800Y015985D01*
X011846Y015980D01*
X011931Y015945D01*
X011995Y015881D01*
X012030Y015796D01*
X012035Y015750D01*
X012035Y001000D01*
X012030Y000954D01*
X011995Y000869D01*
X011931Y000805D01*
X011846Y000770D01*
X011800Y000765D01*
X001000Y000765D01*
X000860Y000814D02*
X011940Y000814D01*
X012005Y000893D02*
X000795Y000893D01*
X000768Y000971D02*
X012032Y000971D01*
X012035Y001050D02*
X011717Y001050D01*
X011696Y001029D02*
X011782Y001115D01*
X011829Y001227D01*
X011829Y001348D01*
X011782Y001460D01*
X011696Y001546D01*
X011584Y001592D01*
X011463Y001592D01*
X011351Y001546D01*
X011265Y001460D01*
X011219Y001348D01*
X011219Y001227D01*
X011265Y001115D01*
X011351Y001029D01*
X011463Y000982D01*
X011584Y000982D01*
X011696Y001029D01*
X011788Y001128D02*
X012035Y001128D01*
X012035Y001207D02*
X011820Y001207D01*
X011829Y001285D02*
X012035Y001285D01*
X012035Y001364D02*
X011822Y001364D01*
X011790Y001442D02*
X012035Y001442D01*
X012035Y001521D02*
X011722Y001521D01*
X012035Y001599D02*
X010682Y001599D01*
X010788Y001678D02*
X012035Y001678D01*
X012035Y001756D02*
X010858Y001756D01*
X010928Y001835D02*
X012035Y001835D01*
X012035Y001913D02*
X010998Y001913D01*
X011068Y001992D02*
X012035Y001992D01*
X012035Y002070D02*
X011114Y002070D01*
X011153Y002149D02*
X012035Y002149D01*
X012035Y002227D02*
X011193Y002227D01*
X011232Y002306D02*
X012035Y002306D01*
X012035Y002384D02*
X011272Y002384D01*
X011303Y002463D02*
X012035Y002463D01*
X012035Y002541D02*
X011319Y002541D01*
X011335Y002620D02*
X012035Y002620D01*
X012035Y002698D02*
X011351Y002698D01*
X011368Y002777D02*
X012035Y002777D01*
X012035Y002855D02*
X011384Y002855D01*
X011390Y002934D02*
X012035Y002934D01*
X012035Y003012D02*
X011386Y003012D01*
X011381Y003091D02*
X012035Y003091D01*
X012035Y003169D02*
X011377Y003169D01*
X011372Y003248D02*
X012035Y003248D01*
X012035Y003326D02*
X011368Y003326D01*
X011354Y003405D02*
X012035Y003405D01*
X012035Y003483D02*
X011328Y003483D01*
X011304Y003562D02*
X012035Y003562D01*
X012035Y003640D02*
X011304Y003640D01*
X011304Y003719D02*
X012035Y003719D01*
X012035Y003797D02*
X011304Y003797D01*
X011304Y003876D02*
X012035Y003876D01*
X012035Y003954D02*
X011304Y003954D01*
X011304Y004033D02*
X012035Y004033D01*
X012035Y004111D02*
X011304Y004111D01*
X011304Y004190D02*
X012035Y004190D01*
X012035Y004268D02*
X011304Y004268D01*
X011304Y004347D02*
X012035Y004347D01*
X012035Y004425D02*
X011304Y004425D01*
X011304Y004504D02*
X012035Y004504D01*
X012035Y004582D02*
X011304Y004582D01*
X011304Y004661D02*
X012035Y004661D01*
X012035Y004739D02*
X011304Y004739D01*
X011304Y004818D02*
X012035Y004818D01*
X012035Y004896D02*
X011304Y004896D01*
X011304Y004975D02*
X012035Y004975D01*
X012035Y005053D02*
X011304Y005053D01*
X011304Y005132D02*
X012035Y005132D01*
X012035Y005210D02*
X011304Y005210D01*
X011304Y005289D02*
X012035Y005289D01*
X012035Y005367D02*
X011304Y005367D01*
X011304Y005446D02*
X012035Y005446D01*
X012035Y005524D02*
X011304Y005524D01*
X011304Y005603D02*
X012035Y005603D01*
X012035Y005681D02*
X011304Y005681D01*
X011304Y005760D02*
X012035Y005760D01*
X012035Y005838D02*
X011304Y005838D01*
X011304Y005917D02*
X012035Y005917D01*
X012035Y005995D02*
X011304Y005995D01*
X011304Y006074D02*
X012035Y006074D01*
X012035Y006152D02*
X011304Y006152D01*
X011304Y006231D02*
X012035Y006231D01*
X012035Y006309D02*
X011304Y006309D01*
X011304Y006388D02*
X012035Y006388D01*
X012035Y006466D02*
X011304Y006466D01*
X011304Y006545D02*
X012035Y006545D01*
X012035Y006623D02*
X011304Y006623D01*
X011304Y006702D02*
X012035Y006702D01*
X012035Y006780D02*
X011304Y006780D01*
X011304Y006859D02*
X012035Y006859D01*
X012035Y006937D02*
X011304Y006937D01*
X011304Y007016D02*
X012035Y007016D01*
X012035Y007094D02*
X011282Y007094D01*
X011230Y007173D02*
X012035Y007173D01*
X012035Y007251D02*
X011097Y007251D01*
X011059Y007330D02*
X012035Y007330D01*
X012035Y007408D02*
X011059Y007408D01*
X011041Y007487D02*
X012035Y007487D01*
X012035Y007565D02*
X011059Y007565D01*
X011059Y007644D02*
X012035Y007644D01*
X012035Y007722D02*
X011041Y007722D01*
X011192Y007801D02*
X012035Y007801D01*
X012035Y007879D02*
X011267Y007879D01*
X011299Y007958D02*
X012035Y007958D01*
X012035Y008036D02*
X011304Y008036D01*
X011304Y008115D02*
X012035Y008115D01*
X012035Y008193D02*
X011304Y008193D01*
X011304Y008272D02*
X012035Y008272D01*
X012035Y008350D02*
X011304Y008350D01*
X011304Y008429D02*
X012035Y008429D01*
X012035Y008507D02*
X011304Y008507D01*
X011304Y008586D02*
X012035Y008586D01*
X012035Y008664D02*
X011304Y008664D01*
X011304Y008743D02*
X012035Y008743D01*
X012035Y008821D02*
X011304Y008821D01*
X011304Y008900D02*
X012035Y008900D01*
X012035Y008978D02*
X011304Y008978D01*
X011304Y009057D02*
X012035Y009057D01*
X012035Y009135D02*
X011304Y009135D01*
X011304Y009214D02*
X012035Y009214D01*
X012035Y009292D02*
X011304Y009292D01*
X011304Y009371D02*
X012035Y009371D01*
X012035Y009449D02*
X011304Y009449D01*
X011304Y009528D02*
X012035Y009528D01*
X012035Y009606D02*
X011304Y009606D01*
X011304Y009685D02*
X012035Y009685D01*
X012035Y009763D02*
X011304Y009763D01*
X011304Y009842D02*
X012035Y009842D01*
X012035Y009920D02*
X011304Y009920D01*
X011304Y009999D02*
X012035Y009999D01*
X012035Y010077D02*
X011304Y010077D01*
X011304Y010156D02*
X012035Y010156D01*
X012035Y010234D02*
X011304Y010234D01*
X011304Y010313D02*
X012035Y010313D01*
X012035Y010391D02*
X011304Y010391D01*
X011304Y010470D02*
X012035Y010470D01*
X012035Y010548D02*
X011304Y010548D01*
X011304Y010627D02*
X012035Y010627D01*
X012035Y010705D02*
X011304Y010705D01*
X011304Y010784D02*
X012035Y010784D01*
X012035Y010862D02*
X011304Y010862D01*
X011180Y011098D02*
X012035Y011098D01*
X012035Y011176D02*
X010747Y011176D01*
X010643Y011255D02*
X012035Y011255D01*
X012035Y011333D02*
X010583Y011333D01*
X010554Y011412D02*
X012035Y011412D01*
X012035Y011490D02*
X010537Y011490D01*
X010535Y011569D02*
X012035Y011569D01*
X012035Y011647D02*
X010535Y011647D01*
X010535Y011726D02*
X012035Y011726D01*
X012035Y011804D02*
X010535Y011804D01*
X010535Y011883D02*
X012035Y011883D01*
X012035Y011961D02*
X010535Y011961D01*
X010535Y012040D02*
X012035Y012040D01*
X012035Y012118D02*
X010535Y012118D01*
X010535Y012197D02*
X012035Y012197D01*
X012035Y012275D02*
X010535Y012275D01*
X010535Y012354D02*
X012035Y012354D01*
X012035Y012432D02*
X010535Y012432D01*
X010535Y012511D02*
X012035Y012511D01*
X012035Y012589D02*
X010535Y012589D01*
X010535Y012668D02*
X012035Y012668D01*
X012035Y012746D02*
X010535Y012746D01*
X010535Y012825D02*
X012035Y012825D01*
X012035Y012903D02*
X010535Y012903D01*
X010535Y012982D02*
X012035Y012982D01*
X012035Y013060D02*
X010535Y013060D01*
X010535Y013139D02*
X012035Y013139D01*
X012035Y013217D02*
X010535Y013217D01*
X010539Y013296D02*
X012035Y013296D01*
X012035Y013374D02*
X010531Y013374D01*
X010502Y013453D02*
X012035Y013453D01*
X012035Y013531D02*
X010474Y013531D01*
X010444Y013610D02*
X012035Y013610D01*
X012035Y013688D02*
X010373Y013688D01*
X010301Y013767D02*
X012035Y013767D01*
X012035Y013845D02*
X010190Y013845D01*
X010023Y013924D02*
X012035Y013924D01*
X012035Y014002D02*
X007001Y014002D01*
X007001Y014081D02*
X012035Y014081D01*
X012035Y014159D02*
X007001Y014159D01*
X007001Y014238D02*
X012035Y014238D01*
X012035Y014316D02*
X007001Y014316D01*
X007001Y014395D02*
X012035Y014395D01*
X012035Y014473D02*
X007001Y014473D01*
X007001Y014552D02*
X012035Y014552D01*
X012035Y014630D02*
X007001Y014630D01*
X006997Y014709D02*
X012035Y014709D01*
X012035Y014787D02*
X006994Y014787D01*
X006959Y014866D02*
X012035Y014866D01*
X012035Y014944D02*
X006923Y014944D01*
X006887Y015023D02*
X012035Y015023D01*
X012035Y015101D02*
X006851Y015101D01*
X006776Y015180D02*
X012035Y015180D01*
X012035Y015258D02*
X006691Y015258D01*
X006606Y015337D02*
X012035Y015337D01*
X012035Y015415D02*
X006434Y015415D01*
X004308Y015415D02*
X001592Y015415D01*
X001592Y015400D02*
X001546Y015288D01*
X001460Y015202D01*
X001348Y015156D01*
X001227Y015156D01*
X001115Y015202D01*
X001029Y015288D01*
X000982Y015400D01*
X000982Y015521D01*
X001029Y015633D01*
X001115Y015719D01*
X001227Y015766D01*
X001348Y015766D01*
X001460Y015719D01*
X001546Y015633D01*
X001592Y015521D01*
X001592Y015400D01*
X001566Y015337D02*
X004174Y015337D01*
X004057Y015258D02*
X001516Y015258D01*
X001406Y015180D02*
X003988Y015180D01*
X003926Y015101D02*
X000765Y015101D01*
X000765Y015023D02*
X003864Y015023D01*
X003835Y014944D02*
X000765Y014944D01*
X000765Y014866D02*
X003806Y014866D01*
X003777Y014787D02*
X000765Y014787D01*
X000765Y014709D02*
X003763Y014709D01*
X003759Y014630D02*
X000765Y014630D01*
X000765Y014552D02*
X003759Y014552D01*
X003759Y014473D02*
X000765Y014473D01*
X000765Y014395D02*
X003759Y014395D01*
X003759Y014316D02*
X000765Y014316D01*
X000765Y014238D02*
X003759Y014238D01*
X003759Y014159D02*
X000765Y014159D01*
X000765Y014081D02*
X003759Y014081D01*
X003759Y014002D02*
X000765Y014002D01*
X000765Y013924D02*
X003759Y013924D01*
X003759Y013845D02*
X000765Y013845D01*
X000765Y013767D02*
X003759Y013767D01*
X003759Y013688D02*
X000765Y013688D01*
X000765Y013610D02*
X003759Y013610D01*
X003759Y013531D02*
X000765Y013531D01*
X000765Y013453D02*
X003759Y013453D01*
X003759Y013374D02*
X000765Y013374D01*
X000765Y013296D02*
X003759Y013296D01*
X003759Y013217D02*
X000765Y013217D01*
X000765Y013139D02*
X003759Y013139D01*
X003759Y013060D02*
X000765Y013060D01*
X000765Y012982D02*
X003759Y012982D01*
X003759Y012903D02*
X000765Y012903D01*
X000765Y012825D02*
X003759Y012825D01*
X003589Y011569D02*
X003515Y011569D01*
X003515Y011490D02*
X003589Y011490D01*
X003589Y011412D02*
X003515Y011412D01*
X003515Y011333D02*
X003589Y011333D01*
X003515Y011255D02*
X003906Y011255D01*
X003906Y011203D02*
X003589Y011203D01*
X003589Y010910D01*
X003599Y010874D01*
X003617Y010842D01*
X003643Y010816D01*
X003675Y010798D01*
X003711Y010788D01*
X003906Y010788D01*
X003906Y011203D01*
X003906Y011176D02*
X003986Y011176D01*
X003986Y011203D02*
X003986Y010788D01*
X004181Y010788D01*
X004216Y010798D01*
X004248Y010816D01*
X004274Y010842D01*
X004293Y010874D01*
X004302Y010910D01*
X004302Y011203D01*
X003986Y011203D01*
X003986Y011255D02*
X004707Y011255D01*
X004766Y011176D02*
X004302Y011176D01*
X004302Y011098D02*
X004845Y011098D01*
X004923Y011019D02*
X004302Y011019D01*
X004302Y010941D02*
X005002Y010941D01*
X005080Y010862D02*
X004286Y010862D01*
X003986Y010862D02*
X003906Y010862D01*
X003906Y010941D02*
X003986Y010941D01*
X003986Y011019D02*
X003906Y011019D01*
X003906Y011098D02*
X003986Y011098D01*
X004302Y011333D02*
X004592Y011333D01*
X004552Y011412D02*
X004302Y011412D01*
X004302Y011490D02*
X004552Y011490D01*
X004552Y011569D02*
X004302Y011569D01*
X003606Y010862D02*
X003515Y010862D01*
X003515Y010941D02*
X003589Y010941D01*
X003589Y011019D02*
X003515Y011019D01*
X003515Y011098D02*
X003589Y011098D01*
X003589Y011176D02*
X003515Y011176D01*
X003446Y010784D02*
X005159Y010784D01*
X005282Y009214D02*
X003763Y009214D01*
X003787Y009207D02*
X003787Y009207D01*
X003879Y009135D02*
X004664Y009135D01*
X004800Y009135D02*
X005284Y009135D01*
X005316Y009057D02*
X004938Y009057D01*
X004999Y008978D02*
X005378Y008978D01*
X005473Y008900D02*
X005032Y008900D01*
X005032Y008821D02*
X005447Y008821D01*
X005447Y008743D02*
X005017Y008743D01*
X004982Y008664D02*
X005447Y008664D01*
X005447Y008586D02*
X004962Y008586D01*
X004962Y008507D02*
X005466Y008507D01*
X005444Y008429D02*
X004962Y008429D01*
X004962Y008350D02*
X005407Y008350D01*
X005407Y008272D02*
X004962Y008272D01*
X004962Y008193D02*
X005407Y008193D01*
X005407Y008115D02*
X004962Y008115D01*
X004962Y008036D02*
X005407Y008036D01*
X005452Y007958D02*
X004962Y007958D01*
X005260Y007879D02*
X005305Y007879D01*
X005305Y007801D02*
X005260Y007801D01*
X005260Y007722D02*
X005305Y007722D01*
X005305Y007644D02*
X005810Y007644D01*
X005855Y007644D02*
X006778Y007644D01*
X006699Y007722D02*
X006149Y007722D01*
X006149Y007780D02*
X006140Y007816D01*
X006121Y007848D01*
X006095Y007874D01*
X006063Y007892D01*
X006045Y007897D01*
X006336Y007897D01*
X006354Y007879D01*
X006492Y007822D01*
X006599Y007822D01*
X006917Y007504D01*
X006917Y006804D01*
X006911Y006810D01*
X006578Y007143D01*
X006189Y007143D01*
X006189Y007290D01*
X006085Y007394D01*
X006095Y007400D01*
X006121Y007426D01*
X006140Y007458D01*
X006149Y007493D01*
X006149Y007614D01*
X005855Y007614D01*
X005855Y007659D01*
X006149Y007659D01*
X006149Y007780D01*
X006144Y007801D02*
X006621Y007801D01*
X006355Y007879D02*
X006086Y007879D01*
X006149Y007565D02*
X006856Y007565D01*
X006917Y007487D02*
X006148Y007487D01*
X006104Y007408D02*
X006917Y007408D01*
X006917Y007330D02*
X006150Y007330D01*
X006189Y007251D02*
X006917Y007251D01*
X006917Y007173D02*
X006189Y007173D01*
X006627Y007094D02*
X006917Y007094D01*
X006917Y007016D02*
X006705Y007016D01*
X006784Y006937D02*
X006917Y006937D01*
X006917Y006859D02*
X006862Y006859D01*
X007517Y006859D02*
X008455Y006859D01*
X008442Y006881D02*
X008497Y006786D01*
X008518Y006758D01*
X008398Y006808D01*
X008241Y006808D01*
X008095Y006748D01*
X007987Y006640D01*
X007971Y006668D01*
X007945Y006694D01*
X007913Y006713D01*
X007877Y006722D01*
X007740Y006722D01*
X007740Y006385D01*
X007663Y006385D01*
X007663Y006722D01*
X007526Y006722D01*
X007517Y006720D01*
X007517Y007688D01*
X007472Y007798D01*
X007387Y007883D01*
X006953Y008317D01*
X007511Y008317D01*
X007457Y008188D01*
X007457Y008039D01*
X007514Y007901D01*
X007620Y007796D01*
X007758Y007738D01*
X007907Y007738D01*
X008045Y007796D01*
X008146Y007897D01*
X008476Y007897D01*
X008476Y007684D01*
X008442Y007626D01*
X008400Y007524D01*
X008372Y007418D01*
X008357Y007308D01*
X008357Y007293D01*
X008587Y007293D01*
X008667Y007213D01*
X008357Y007213D01*
X008357Y007198D01*
X008372Y007089D01*
X008400Y006983D01*
X008442Y006881D01*
X008419Y006937D02*
X007517Y006937D01*
X007517Y007016D02*
X008391Y007016D01*
X008371Y007094D02*
X007517Y007094D01*
X007517Y007173D02*
X008361Y007173D01*
X008360Y007330D02*
X007517Y007330D01*
X007517Y007408D02*
X008370Y007408D01*
X008390Y007487D02*
X007517Y007487D01*
X007517Y007565D02*
X008417Y007565D01*
X008453Y007644D02*
X007517Y007644D01*
X007503Y007722D02*
X008476Y007722D01*
X008476Y007801D02*
X008050Y007801D01*
X008128Y007879D02*
X008476Y007879D01*
X009006Y008072D02*
X009006Y010413D01*
X009009Y010450D01*
X009038Y010519D01*
X009090Y010571D01*
X009159Y010600D01*
X009233Y010600D01*
X009301Y010571D01*
X009354Y010519D01*
X009382Y010450D01*
X009386Y010413D01*
X009386Y008073D01*
X009362Y008079D01*
X009252Y008093D01*
X009237Y008093D01*
X009237Y007519D01*
X009233Y007517D01*
X009159Y007517D01*
X009157Y007518D01*
X009157Y008093D01*
X009142Y008093D01*
X009033Y008079D01*
X009006Y008072D01*
X009006Y008115D02*
X009386Y008115D01*
X009386Y008193D02*
X009006Y008193D01*
X009006Y008272D02*
X009386Y008272D01*
X009386Y008350D02*
X009006Y008350D01*
X009006Y008429D02*
X009386Y008429D01*
X009386Y008507D02*
X009006Y008507D01*
X009006Y008586D02*
X009386Y008586D01*
X009386Y008664D02*
X009006Y008664D01*
X009006Y008743D02*
X009386Y008743D01*
X009386Y008821D02*
X009006Y008821D01*
X009006Y008900D02*
X009386Y008900D01*
X009386Y008978D02*
X009006Y008978D01*
X009006Y009057D02*
X009386Y009057D01*
X009386Y009135D02*
X009006Y009135D01*
X009006Y009214D02*
X009386Y009214D01*
X009386Y009292D02*
X009006Y009292D01*
X009006Y009371D02*
X009386Y009371D01*
X009386Y009449D02*
X009006Y009449D01*
X009006Y009528D02*
X009386Y009528D01*
X009386Y009606D02*
X009006Y009606D01*
X009006Y009685D02*
X009386Y009685D01*
X009386Y009763D02*
X009006Y009763D01*
X009006Y009842D02*
X009386Y009842D01*
X009386Y009920D02*
X009006Y009920D01*
X009006Y009999D02*
X009386Y009999D01*
X009386Y010077D02*
X009006Y010077D01*
X009006Y010156D02*
X009386Y010156D01*
X009386Y010234D02*
X009006Y010234D01*
X009006Y010313D02*
X009386Y010313D01*
X009386Y010391D02*
X009006Y010391D01*
X009017Y010470D02*
X009374Y010470D01*
X009325Y010548D02*
X009067Y010548D01*
X007492Y008272D02*
X006998Y008272D01*
X007077Y008193D02*
X007459Y008193D01*
X007457Y008115D02*
X007155Y008115D01*
X007234Y008036D02*
X007458Y008036D01*
X007491Y007958D02*
X007312Y007958D01*
X007391Y007879D02*
X007536Y007879D01*
X007469Y007801D02*
X007615Y007801D01*
X007517Y007251D02*
X008630Y007251D01*
X008502Y006780D02*
X008466Y006780D01*
X008672Y006598D02*
X008730Y006553D01*
X008825Y006498D01*
X008927Y006456D01*
X009033Y006428D01*
X009142Y006413D01*
X009157Y006413D01*
X009157Y006983D01*
X009237Y006983D01*
X009237Y006413D01*
X009252Y006413D01*
X009362Y006428D01*
X009468Y006456D01*
X009570Y006498D01*
X009665Y006553D01*
X009752Y006621D01*
X009830Y006698D01*
X009897Y006786D01*
X009952Y006881D01*
X009994Y006983D01*
X010023Y007089D01*
X010037Y007198D01*
X010037Y007213D01*
X009724Y007213D01*
X009804Y007293D01*
X010037Y007293D01*
X010037Y007308D01*
X010023Y007418D01*
X009994Y007524D01*
X009952Y007626D01*
X009916Y007689D01*
X009916Y007817D01*
X009931Y007802D01*
X010102Y007802D01*
X010102Y006938D01*
X010067Y006923D01*
X009960Y006816D01*
X009902Y006676D01*
X009902Y006525D01*
X009922Y006478D01*
X009532Y006088D01*
X009452Y006168D01*
X009342Y006213D01*
X009223Y006213D01*
X009112Y006168D01*
X009028Y006083D01*
X009011Y006043D01*
X008694Y006043D01*
X008716Y006096D01*
X008716Y006490D01*
X008672Y006598D01*
X008694Y006545D02*
X008745Y006545D01*
X008716Y006466D02*
X008903Y006466D01*
X008716Y006388D02*
X009831Y006388D01*
X009910Y006466D02*
X009491Y006466D01*
X009649Y006545D02*
X009902Y006545D01*
X009902Y006623D02*
X009755Y006623D01*
X009833Y006702D02*
X009913Y006702D01*
X009893Y006780D02*
X009945Y006780D01*
X009939Y006859D02*
X010003Y006859D01*
X009975Y006937D02*
X010101Y006937D01*
X010102Y007016D02*
X010003Y007016D01*
X010024Y007094D02*
X010102Y007094D01*
X010102Y007173D02*
X010034Y007173D01*
X010102Y007251D02*
X009762Y007251D01*
X010035Y007330D02*
X010102Y007330D01*
X010102Y007408D02*
X010024Y007408D01*
X010004Y007487D02*
X010102Y007487D01*
X010102Y007565D02*
X009977Y007565D01*
X009942Y007644D02*
X010102Y007644D01*
X010102Y007722D02*
X009916Y007722D01*
X009916Y007801D02*
X010102Y007801D01*
X009237Y007801D02*
X009157Y007801D01*
X009157Y007879D02*
X009237Y007879D01*
X009237Y007958D02*
X009157Y007958D01*
X009157Y008036D02*
X009237Y008036D01*
X009237Y007722D02*
X009157Y007722D01*
X009157Y007644D02*
X009237Y007644D01*
X009237Y007565D02*
X009157Y007565D01*
X009157Y006937D02*
X009237Y006937D01*
X009237Y006859D02*
X009157Y006859D01*
X009157Y006780D02*
X009237Y006780D01*
X009237Y006702D02*
X009157Y006702D01*
X009157Y006623D02*
X009237Y006623D01*
X009237Y006545D02*
X009157Y006545D01*
X009157Y006466D02*
X009237Y006466D01*
X009097Y006152D02*
X008716Y006152D01*
X008716Y006231D02*
X009674Y006231D01*
X009753Y006309D02*
X008716Y006309D01*
X008707Y006074D02*
X009024Y006074D01*
X009468Y006152D02*
X009596Y006152D01*
X008173Y006780D02*
X007517Y006780D01*
X007663Y006702D02*
X007740Y006702D01*
X007740Y006623D02*
X007663Y006623D01*
X007663Y006545D02*
X007740Y006545D01*
X007740Y006466D02*
X007663Y006466D01*
X007663Y006388D02*
X007740Y006388D01*
X007932Y006702D02*
X008049Y006702D01*
X005578Y007879D02*
X005536Y007879D01*
X004755Y007016D02*
X004710Y007016D01*
X004710Y007094D02*
X004079Y007094D01*
X004101Y007016D02*
X004415Y007016D01*
X004418Y006937D02*
X004101Y006937D01*
X004101Y006859D02*
X004464Y006859D01*
X004576Y006623D02*
X004101Y006623D01*
X004101Y006545D02*
X004544Y006545D01*
X004521Y006466D02*
X004101Y006466D01*
X004101Y006388D02*
X004521Y006388D01*
X004521Y006309D02*
X004101Y006309D01*
X004101Y006231D02*
X004521Y006231D01*
X004521Y006152D02*
X004169Y006152D01*
X004296Y006074D02*
X004531Y006074D01*
X004647Y006702D02*
X004101Y006702D01*
X004101Y006780D02*
X004772Y006780D01*
X004755Y006859D02*
X004710Y006859D01*
X004710Y006937D02*
X004755Y006937D01*
X004473Y007330D02*
X004050Y007330D01*
X004056Y007408D02*
X004404Y007408D01*
X004375Y007487D02*
X004050Y007487D01*
X004054Y007565D02*
X004375Y007565D01*
X004375Y007644D02*
X004056Y007644D01*
X004045Y007722D02*
X004375Y007722D01*
X004375Y007801D02*
X004056Y007801D01*
X004063Y007879D02*
X004418Y007879D01*
X004502Y007958D02*
X004096Y007958D01*
X004101Y008036D02*
X004502Y008036D01*
X004502Y008115D02*
X004101Y008115D01*
X004101Y008193D02*
X004502Y008193D01*
X004502Y008272D02*
X004101Y008272D01*
X004101Y008350D02*
X004502Y008350D01*
X004502Y008429D02*
X004101Y008429D01*
X004101Y008507D02*
X004502Y008507D01*
X004502Y008586D02*
X004101Y008586D01*
X004101Y008664D02*
X004482Y008664D01*
X004447Y008743D02*
X004101Y008743D01*
X004090Y008821D02*
X004432Y008821D01*
X004433Y008900D02*
X004064Y008900D01*
X004019Y008978D02*
X004465Y008978D01*
X004526Y009057D02*
X003974Y009057D01*
X003970Y009065D02*
X003970Y009065D01*
X003970Y009065D01*
X004054Y007251D02*
X004420Y007251D01*
X004415Y007173D02*
X004056Y007173D01*
X002065Y008429D02*
X000765Y008429D01*
X000765Y008507D02*
X001876Y008507D01*
X001787Y008586D02*
X000765Y008586D01*
X000765Y008664D02*
X001708Y008664D01*
X001668Y008743D02*
X000765Y008743D01*
X000765Y008821D02*
X001635Y008821D01*
X001607Y008900D02*
X000765Y008900D01*
X000765Y008978D02*
X001607Y008978D01*
X001607Y009057D02*
X000765Y009057D01*
X000765Y009135D02*
X001607Y009135D01*
X001607Y009214D02*
X000765Y009214D01*
X000765Y009292D02*
X001607Y009292D01*
X001607Y009371D02*
X000765Y009371D01*
X000765Y009449D02*
X001607Y009449D01*
X001607Y009528D02*
X000765Y009528D01*
X000765Y009606D02*
X001607Y009606D01*
X001607Y009685D02*
X000765Y009685D01*
X000765Y009763D02*
X001607Y009763D01*
X001600Y009842D02*
X000765Y009842D01*
X000765Y009920D02*
X001568Y009920D01*
X001535Y009999D02*
X000765Y009999D01*
X000765Y010077D02*
X001503Y010077D01*
X001502Y010156D02*
X000765Y010156D01*
X000765Y010234D02*
X001502Y010234D01*
X001502Y010313D02*
X000765Y010313D01*
X000765Y010391D02*
X001520Y010391D01*
X001552Y010470D02*
X000765Y010470D01*
X000765Y010548D02*
X001585Y010548D01*
X001607Y010627D02*
X000765Y010627D01*
X000765Y010705D02*
X001607Y010705D01*
X001607Y010784D02*
X000765Y010784D01*
X000765Y010862D02*
X001607Y010862D01*
X001607Y010941D02*
X000765Y010941D01*
X000765Y011019D02*
X001607Y011019D01*
X001607Y011098D02*
X000765Y011098D01*
X000765Y011176D02*
X001607Y011176D01*
X001607Y011255D02*
X000765Y011255D01*
X000765Y011333D02*
X001607Y011333D01*
X001607Y011412D02*
X000765Y011412D01*
X000765Y011490D02*
X001607Y011490D01*
X001607Y011569D02*
X000765Y011569D01*
X000765Y011647D02*
X001607Y011647D01*
X001607Y011726D02*
X000765Y011726D01*
X000765Y011804D02*
X001607Y011804D01*
X001607Y011883D02*
X000765Y011883D01*
X000765Y011961D02*
X001607Y011961D01*
X001607Y012040D02*
X000765Y012040D01*
X000765Y012118D02*
X001607Y012118D01*
X001607Y012197D02*
X000765Y012197D01*
X000765Y012275D02*
X001607Y012275D01*
X001631Y012354D02*
X000765Y012354D01*
X000765Y012432D02*
X001664Y012432D01*
X001698Y012511D02*
X000765Y012511D01*
X000765Y012589D02*
X001777Y012589D01*
X001855Y012668D02*
X000765Y012668D01*
X000765Y012746D02*
X002041Y012746D01*
X001169Y015180D02*
X000765Y015180D01*
X000765Y015258D02*
X001059Y015258D01*
X001009Y015337D02*
X000765Y015337D01*
X000765Y015415D02*
X000982Y015415D01*
X000982Y015494D02*
X000765Y015494D01*
X000765Y015572D02*
X001003Y015572D01*
X001046Y015651D02*
X000765Y015651D01*
X000765Y015729D02*
X001138Y015729D01*
X001436Y015729D02*
X012035Y015729D01*
X012035Y015651D02*
X001529Y015651D01*
X001571Y015572D02*
X012035Y015572D01*
X012035Y015494D02*
X001592Y015494D01*
X000916Y015965D02*
X011884Y015965D01*
X011990Y015886D02*
X000810Y015886D01*
X000774Y015808D02*
X012026Y015808D01*
X011325Y001521D02*
X010562Y001521D01*
X010443Y001442D02*
X011258Y001442D01*
X011225Y001364D02*
X010275Y001364D01*
X010038Y001285D02*
X011219Y001285D01*
X011227Y001207D02*
X001584Y001207D01*
X001592Y001285D02*
X009133Y001285D01*
X008890Y001364D02*
X001586Y001364D01*
X001553Y001442D02*
X008734Y001442D01*
X008578Y001521D02*
X001486Y001521D01*
X001552Y001128D02*
X011260Y001128D01*
X011330Y001050D02*
X001481Y001050D01*
D35*
X004082Y004713D03*
X004082Y005863D03*
X004232Y006413D03*
X004232Y006738D03*
X004232Y007063D03*
X004732Y008838D03*
X004232Y009363D03*
X003932Y009363D03*
X003632Y009363D03*
X003332Y009363D03*
X003032Y009363D03*
X003032Y010663D03*
X003332Y010663D03*
X003632Y010663D03*
X003932Y010663D03*
X004232Y010663D03*
X005582Y009198D03*
X007632Y010763D03*
X007632Y011063D03*
X007632Y011363D03*
X008232Y010038D03*
X008232Y009198D03*
X008482Y008713D03*
X007932Y007513D03*
X007932Y007213D03*
X007932Y006913D03*
X008232Y007063D03*
X008232Y007363D03*
X009282Y005913D03*
X009732Y005363D03*
X010132Y005463D03*
X010382Y006113D03*
X011902Y006863D03*
X011902Y007963D03*
X010382Y009113D03*
X009932Y010213D03*
X009232Y012163D03*
X009232Y012463D03*
X009232Y012763D03*
X009532Y012613D03*
X009532Y012313D03*
X008782Y005363D03*
X009282Y003913D03*
X010116Y002797D03*
X000902Y006963D03*
X000902Y007963D03*
D36*
X004082Y005863D02*
X004132Y005813D01*
X006032Y005813D01*
X006020Y005825D01*
X006020Y006346D01*
X006282Y006713D02*
X006422Y006574D01*
X006422Y006346D01*
X006282Y006713D02*
X005659Y006713D01*
X005282Y007090D01*
X005282Y006813D02*
X005536Y006560D01*
X005536Y006346D01*
X005282Y006813D02*
X004882Y006813D01*
X004732Y006963D01*
X004732Y007090D01*
X004732Y007637D02*
X004732Y008838D01*
X005582Y009198D02*
X005958Y009163D01*
X005992Y009197D01*
X005832Y007090D02*
X005832Y006963D01*
X005882Y006913D01*
X006482Y006913D01*
X006816Y006580D01*
X006816Y006346D01*
X007217Y005848D02*
X007182Y005813D01*
X009182Y005813D01*
X009282Y005913D01*
X009382Y005613D02*
X009062Y005613D01*
X004132Y005613D01*
X004082Y005563D01*
X004082Y005343D01*
X004432Y005343D02*
X004453Y005363D01*
X004453Y005384D01*
X004482Y005413D01*
X008732Y005413D01*
X008782Y005363D01*
X009382Y005613D02*
X010270Y006501D01*
X010282Y006601D01*
X010332Y006651D01*
X010332Y007963D01*
X010326Y007963D01*
X010182Y008107D01*
X010178Y008650D02*
X009950Y008650D01*
X009832Y008768D01*
X009832Y010113D01*
X009932Y010213D01*
X009932Y010513D02*
X009832Y010613D01*
X009932Y010513D02*
X010082Y010513D01*
X010232Y010363D01*
X010232Y009904D01*
X010182Y009854D01*
X010182Y009307D02*
X010376Y009113D01*
X010382Y009113D01*
X010182Y008654D02*
X010178Y008650D01*
X008532Y010413D02*
X008530Y010462D01*
X008532Y010510D01*
X008537Y010559D01*
X008546Y010607D01*
X008559Y010654D01*
X008575Y010700D01*
X008594Y010745D01*
X008617Y010788D01*
X008643Y010829D01*
X008671Y010869D01*
X008703Y010906D01*
X008738Y010940D01*
X008774Y010972D01*
X008814Y011001D01*
X008855Y011027D01*
X008898Y011050D01*
X008943Y011069D01*
X008989Y011086D01*
X009036Y011098D01*
X009084Y011108D01*
X009132Y011113D01*
X009282Y011113D01*
X009282Y011114D02*
X009329Y011108D01*
X009375Y011099D01*
X009420Y011086D01*
X009464Y011070D01*
X009507Y011050D01*
X009548Y011027D01*
X009587Y011001D01*
X009624Y010973D01*
X009659Y010941D01*
X009691Y010907D01*
X009721Y010870D01*
X009748Y010831D01*
X009771Y010791D01*
X009791Y010748D01*
X009809Y010704D01*
X009822Y010659D01*
X009832Y010613D01*
X008532Y010413D02*
X008532Y010238D01*
X008332Y010038D01*
X008232Y010038D01*
X008232Y009198D02*
X008232Y009177D01*
X008112Y009197D01*
X008112Y008697D02*
X008466Y008697D01*
X008482Y008713D01*
X010182Y006701D02*
X010282Y006601D01*
X010382Y006113D02*
X010382Y006013D01*
X010282Y005913D01*
X010282Y005901D01*
X009970Y005901D01*
X009570Y005501D01*
X009570Y005363D01*
X009732Y005363D01*
X010132Y005351D02*
X010282Y005201D01*
X010270Y005201D01*
X010132Y005351D02*
X010132Y005463D01*
X010170Y004176D02*
X010170Y004163D01*
X010232Y004113D01*
X010282Y004163D01*
X010282Y003413D01*
X009920Y003587D02*
X009920Y003180D01*
X010282Y003413D02*
X010312Y003371D01*
X010338Y003327D01*
X010362Y003281D01*
X010382Y003233D01*
X010399Y003184D01*
X010412Y003134D01*
X010422Y003084D01*
X010428Y003032D01*
X010431Y002981D01*
X010430Y002929D01*
X010425Y002878D01*
X010417Y002827D01*
X010406Y002776D01*
X010391Y002727D01*
X010372Y002679D01*
X010350Y002632D01*
X010325Y002587D01*
X010297Y002543D01*
X010266Y002502D01*
X010232Y002463D01*
X009732Y002463D01*
X009570Y002626D01*
X009570Y002747D01*
X009220Y002747D01*
X009220Y003180D02*
X008970Y003430D01*
X008970Y004163D01*
X008970Y004201D01*
X009282Y003913D02*
X009282Y003677D01*
X009296Y003663D01*
X009570Y003180D02*
X009570Y004163D01*
X009843Y003663D02*
X009920Y003587D01*
X009970Y002797D02*
X010116Y002797D01*
X009970Y002797D02*
X009957Y002795D01*
X009945Y002790D01*
X009935Y002782D01*
X009927Y002772D01*
X009922Y002760D01*
X009920Y002747D01*
X007217Y005848D02*
X007217Y006346D01*
X007182Y005813D02*
X006032Y005813D01*
X004432Y005363D02*
X004432Y005343D01*
X004432Y004909D02*
X004082Y004909D01*
X004082Y004713D01*
D37*
X008970Y004201D02*
X009062Y004243D01*
X009062Y005613D01*
X009557Y005363D02*
X009557Y004176D01*
X009570Y004163D01*
X010052Y004193D02*
X010052Y004963D01*
X010270Y005201D01*
X009570Y005363D02*
X009557Y005363D01*
X010052Y004193D02*
X010170Y004176D01*
D38*
X007217Y006346D02*
X007217Y007628D01*
X006648Y008197D01*
X006566Y008197D01*
X005992Y008197D01*
X006948Y009697D02*
X006882Y009763D01*
X006948Y009697D02*
X007998Y009697D01*
X008112Y009697D01*
X007832Y009713D02*
X007750Y009713D01*
X007800Y009850D01*
X008700Y011400D02*
X008700Y011600D01*
X008713Y011613D01*
X009500Y011613D01*
X008700Y011600D02*
X008700Y011876D01*
X008732Y011909D01*
X006494Y012775D02*
X006170Y012775D01*
X006132Y012813D01*
X006132Y012913D01*
X006032Y013013D01*
X005637Y013013D01*
X005600Y013050D01*
X005573Y013077D01*
X005573Y013019D01*
X005152Y012993D02*
X005126Y013019D01*
X004888Y013019D01*
X004682Y012813D01*
X004682Y012163D01*
X004432Y011913D01*
X002632Y011913D01*
X002482Y011763D01*
X002482Y011263D01*
X002503Y011243D01*
X003119Y011243D01*
X005781Y010733D02*
X006202Y010733D01*
X006282Y010813D01*
X006282Y011313D01*
X006132Y011463D01*
X006132Y012813D01*
X007916Y008197D02*
X007832Y008113D01*
X007916Y008197D02*
X008112Y008197D01*
D39*
X007832Y008113D03*
X006882Y009763D03*
X007800Y009850D03*
X008700Y011400D03*
X006566Y008197D03*
D40*
X007832Y009713D02*
X007998Y009697D01*
X008084Y010350D02*
X007546Y010350D01*
X007306Y010589D01*
X007306Y011752D01*
X006932Y011752D02*
X006932Y012063D01*
X007032Y012163D01*
X007682Y012163D01*
X007832Y012013D01*
X007992Y012013D01*
X006932Y012463D02*
X006932Y012775D01*
X006932Y012463D02*
X006732Y012263D01*
X006532Y012263D01*
X006558Y011752D02*
X006532Y011726D01*
X006532Y011513D01*
X006632Y011413D01*
X006632Y010613D01*
X006369Y010350D01*
X005781Y010350D01*
X005702Y010733D02*
X005562Y010733D01*
X004932Y011363D01*
X004932Y011660D01*
X004929Y011663D01*
X005639Y011663D02*
X005699Y011724D01*
D41*
X005682Y011707D02*
X005639Y011663D01*
X005682Y011707D02*
X005682Y012263D01*
X005699Y012280D01*
X005699Y012313D01*
X005152Y012313D02*
X005152Y012993D01*
X005179Y013019D01*
X007992Y012013D02*
X008015Y011990D01*
D42*
X002475Y010925D03*
X002475Y010575D03*
X002475Y009850D03*
X002475Y009500D03*
D43*
X002457Y009500D02*
X002457Y009300D01*
X002457Y009500D02*
X002457Y011263D01*
D44*
X002475Y011263D02*
X002475Y010575D01*
X002482Y011263D02*
X002475Y011263D01*
X002475Y009850D02*
X002475Y009500D01*
X002457Y009500D01*
X006494Y012775D02*
X006558Y012775D01*
D45*
X005781Y010862D02*
X005781Y010733D01*
X005702Y010733D01*
X005781Y010733D02*
X005781Y010606D01*
D46*
X005682Y012263D03*
X006532Y012263D03*
M02*
