%
M48
M72
T01C0.0100
T02C0.0120
T03C0.0160
T04C0.0260
T05C0.0394
T06C0.0492
%
T01
X16660Y6604
X16660Y6854
X16660Y7104
X16660Y7354
T02
X13398Y4190
X13398Y4490
X14323Y5340
X14623Y5340
X14584Y3980
X14797Y3670
X16784Y2734
X17964Y3709
X16960Y3762
X16760Y5514
X18653Y5726
X18653Y5996
X18953Y5996
X18953Y5726
X18953Y6266
X18953Y6536
X18653Y6536
X18653Y6266
X19284Y6934
X20009Y7314
X18603Y8216
X18303Y8216
X18303Y8516
X18303Y8816
X18603Y8816
X18603Y8516
X18984Y9646
X20064Y9646
X20308Y10015
X20608Y10015
X20908Y10015
X17200Y7314
X15084Y7929
X15084Y8629
X12958Y9965
X12658Y9965
X12358Y9965
X12058Y9965
X11758Y9965
X11458Y9965
X11158Y9965
X10858Y9965
X10558Y9965
X8215Y13484
X5658Y13385
X5658Y13035
X5658Y12685
X5658Y12335
X5658Y13735
X19823Y5823
X20083Y3935
X20383Y3935
X22484Y4034
X22484Y3704
T03
X17924Y9215
X17624Y9215
T04
X5167Y15794
T05
X14477Y5728
T06
X14710Y8279
X21725Y5319
M30
