G75*
G70*
%OFA0B0*%
%FSLAX24Y24*%
%IPPOS*%
%LPD*%
%AMOC8*
5,1,8,0,0,1.08239X$1,22.5*
%
%ADD10C,0.0050*%
%ADD11C,0.0080*%
%ADD12C,0.0100*%
%ADD13C,0.0060*%
%ADD14C,0.0004*%
%ADD15C,0.0120*%
%ADD16C,0.0020*%
%ADD17C,0.0040*%
D10*
X000929Y000534D02*
X015972Y000534D01*
X015972Y000562D01*
X015976Y000590D01*
X015983Y000617D01*
X015994Y000643D01*
X016008Y000667D01*
X016025Y000689D01*
X016045Y000709D01*
X016067Y000726D01*
X016091Y000740D01*
X016117Y000751D01*
X016144Y000758D01*
X016172Y000762D01*
X016322Y000762D01*
X016350Y000758D01*
X016377Y000751D01*
X016403Y000740D01*
X016427Y000726D01*
X016449Y000709D01*
X016469Y000689D01*
X016486Y000667D01*
X016500Y000643D01*
X016511Y000617D01*
X016518Y000590D01*
X016522Y000562D01*
X016522Y000534D01*
X021709Y000534D01*
X021709Y000562D01*
X021713Y000590D01*
X021720Y000617D01*
X021731Y000643D01*
X021745Y000667D01*
X021762Y000689D01*
X021782Y000709D01*
X021804Y000726D01*
X021828Y000740D01*
X021854Y000751D01*
X021881Y000758D01*
X021909Y000762D01*
X022059Y000762D01*
X022088Y000758D01*
X022115Y000751D01*
X022141Y000741D01*
X022166Y000727D01*
X022189Y000710D01*
X022209Y000690D01*
X022227Y000668D01*
X022241Y000643D01*
X022253Y000617D01*
X022260Y000590D01*
X022264Y000562D01*
X022265Y000534D01*
X022264Y000534D02*
X024328Y000534D01*
X024327Y000533D02*
X024374Y000530D01*
X024420Y000531D01*
X024466Y000536D01*
X024512Y000544D01*
X024556Y000557D01*
X024600Y000573D01*
X024642Y000592D01*
X024682Y000615D01*
X024720Y000641D01*
X024756Y000671D01*
X024790Y000703D01*
X024821Y000737D01*
X024848Y000775D01*
X024873Y000814D01*
X024894Y000855D01*
X024912Y000898D01*
X024926Y000942D01*
X024936Y000987D01*
X024943Y001033D01*
X024943Y001034D02*
X024943Y017752D01*
X024943Y017753D02*
X024936Y017798D01*
X024926Y017844D01*
X024911Y017888D01*
X024894Y017930D01*
X024872Y017971D01*
X024848Y018011D01*
X024820Y018048D01*
X024789Y018082D01*
X024756Y018114D01*
X024720Y018143D01*
X024682Y018170D01*
X024641Y018192D01*
X024599Y018212D01*
X024556Y018228D01*
X024511Y018240D01*
X024466Y018248D01*
X024420Y018253D01*
X024374Y018254D01*
X024327Y018251D01*
X024328Y018250D02*
X000929Y018250D01*
X000930Y018250D02*
X000889Y018243D01*
X000849Y018233D01*
X000809Y018219D01*
X000772Y018201D01*
X000736Y018180D01*
X000702Y018156D01*
X000671Y018129D01*
X000642Y018099D01*
X000616Y018066D01*
X000593Y018032D01*
X000574Y017995D01*
X000558Y017956D01*
X000546Y017917D01*
X000537Y017876D01*
X000532Y017835D01*
X000531Y017793D01*
X000534Y017752D01*
X000534Y001034D01*
X000531Y000993D01*
X000532Y000951D01*
X000537Y000910D01*
X000545Y000869D01*
X000558Y000829D01*
X000574Y000791D01*
X000593Y000754D01*
X000616Y000719D01*
X000642Y000686D01*
X000670Y000656D01*
X000702Y000629D01*
X000736Y000604D01*
X000772Y000583D01*
X000809Y000565D01*
X000848Y000551D01*
X000889Y000541D01*
X000930Y000534D01*
X009437Y007981D02*
X009399Y008165D01*
X009352Y008348D01*
X009296Y008528D01*
X009232Y008705D01*
X009159Y008878D01*
X009077Y009048D01*
X008988Y009214D01*
X008890Y009375D01*
X008785Y009532D01*
X008672Y009683D01*
X008552Y009828D01*
X008425Y009967D01*
X008291Y010100D01*
X008151Y010226D01*
X008005Y010345D01*
X007854Y010457D01*
X007697Y010562D01*
X007535Y010659D01*
X007369Y010747D01*
X007199Y010828D01*
X007025Y010900D01*
X006847Y010964D01*
X006667Y011019D01*
X006484Y011065D01*
X004578Y011065D01*
X004548Y011067D01*
X004518Y011072D01*
X004489Y011081D01*
X004462Y011094D01*
X004436Y011109D01*
X004412Y011128D01*
X004391Y011149D01*
X004372Y011173D01*
X004357Y011199D01*
X004344Y011226D01*
X004335Y011255D01*
X004330Y011285D01*
X004328Y011315D01*
X004328Y013595D01*
X004326Y013649D01*
X004320Y013702D01*
X004311Y013754D01*
X004298Y013806D01*
X004281Y013857D01*
X004260Y013907D01*
X004236Y013954D01*
X004209Y014000D01*
X004178Y014044D01*
X004145Y014086D01*
X004108Y014125D01*
X004069Y014162D01*
X004027Y014195D01*
X003983Y014226D01*
X003937Y014253D01*
X003890Y014277D01*
X003840Y014298D01*
X003789Y014315D01*
X003737Y014328D01*
X003685Y014337D01*
X003632Y014343D01*
X003578Y014345D01*
X002387Y014345D01*
X002341Y014350D01*
X002296Y014359D01*
X002251Y014371D01*
X002207Y014386D01*
X002165Y014405D01*
X002124Y014428D01*
X002085Y014453D01*
X002048Y014481D01*
X002014Y014512D01*
X001982Y014546D01*
X001953Y014582D01*
X001927Y014621D01*
X001903Y014661D01*
X001884Y014703D01*
X001867Y014746D01*
X001854Y014791D01*
X001844Y014836D01*
X001838Y014882D01*
X001836Y014928D01*
X001837Y014975D01*
X001837Y016756D01*
X001839Y016801D01*
X001845Y016847D01*
X001854Y016891D01*
X001867Y016935D01*
X001883Y016977D01*
X001903Y017018D01*
X001927Y017057D01*
X001953Y017094D01*
X001982Y017129D01*
X002014Y017161D01*
X002049Y017190D01*
X002086Y017216D01*
X002125Y017240D01*
X002166Y017260D01*
X002208Y017276D01*
X002252Y017289D01*
X002296Y017298D01*
X002342Y017304D01*
X002387Y017306D01*
X005733Y017306D01*
X005733Y016215D01*
X005078Y016215D01*
X005055Y016217D01*
X005032Y016222D01*
X005010Y016231D01*
X004990Y016244D01*
X004972Y016259D01*
X004957Y016277D01*
X004944Y016297D01*
X004935Y016319D01*
X004930Y016342D01*
X004928Y016365D01*
X004928Y016665D01*
X004926Y016688D01*
X004921Y016711D01*
X004912Y016733D01*
X004899Y016753D01*
X004884Y016771D01*
X004866Y016786D01*
X004846Y016799D01*
X004824Y016808D01*
X004801Y016813D01*
X004778Y016815D01*
X002928Y016815D01*
X002883Y016813D01*
X002837Y016807D01*
X002793Y016798D01*
X002749Y016785D01*
X002707Y016769D01*
X002666Y016749D01*
X002627Y016725D01*
X002590Y016699D01*
X002555Y016670D01*
X002523Y016638D01*
X002494Y016603D01*
X002468Y016566D01*
X002444Y016527D01*
X002424Y016486D01*
X002408Y016444D01*
X002395Y016400D01*
X002386Y016356D01*
X002380Y016310D01*
X002378Y016265D01*
X002378Y015495D01*
X002380Y015450D01*
X002386Y015404D01*
X002395Y015360D01*
X002408Y015316D01*
X002424Y015274D01*
X002444Y015233D01*
X002468Y015194D01*
X002494Y015157D01*
X002523Y015122D01*
X002555Y015090D01*
X002590Y015061D01*
X002627Y015035D01*
X002666Y015011D01*
X002707Y014991D01*
X002749Y014975D01*
X002793Y014962D01*
X002837Y014953D01*
X002883Y014947D01*
X002928Y014945D01*
X004178Y014945D01*
X004232Y014943D01*
X004285Y014937D01*
X004337Y014928D01*
X004389Y014915D01*
X004440Y014898D01*
X004490Y014877D01*
X004537Y014853D01*
X004583Y014826D01*
X004627Y014795D01*
X004669Y014762D01*
X004708Y014725D01*
X004745Y014686D01*
X004778Y014644D01*
X004809Y014600D01*
X004836Y014554D01*
X004860Y014507D01*
X004881Y014457D01*
X004898Y014406D01*
X004911Y014354D01*
X004920Y014302D01*
X004926Y014249D01*
X004928Y014195D01*
X004928Y011915D01*
X004930Y011885D01*
X004935Y011855D01*
X004944Y011826D01*
X004957Y011799D01*
X004972Y011773D01*
X004991Y011749D01*
X005012Y011728D01*
X005036Y011709D01*
X005062Y011694D01*
X005089Y011681D01*
X005118Y011672D01*
X005148Y011667D01*
X005178Y011665D01*
X006878Y011665D01*
X007228Y012515D02*
X006378Y012515D01*
X006348Y012517D01*
X006318Y012522D01*
X006289Y012531D01*
X006262Y012544D01*
X006236Y012559D01*
X006212Y012578D01*
X006191Y012599D01*
X006172Y012623D01*
X006157Y012649D01*
X006144Y012676D01*
X006135Y012705D01*
X006130Y012735D01*
X006128Y012765D01*
X006128Y013765D01*
X006130Y013795D01*
X006135Y013825D01*
X006144Y013854D01*
X006157Y013881D01*
X006172Y013907D01*
X006191Y013931D01*
X006212Y013952D01*
X006236Y013971D01*
X006262Y013986D01*
X006289Y013999D01*
X006318Y014008D01*
X006348Y014013D01*
X006378Y014015D01*
X006978Y014015D01*
X007008Y014017D01*
X007038Y014022D01*
X007067Y014031D01*
X007094Y014044D01*
X007120Y014059D01*
X007144Y014078D01*
X007165Y014099D01*
X007184Y014123D01*
X007199Y014149D01*
X007212Y014176D01*
X007221Y014205D01*
X007226Y014235D01*
X007228Y014265D01*
X007228Y015965D01*
X007226Y015995D01*
X007221Y016025D01*
X007212Y016054D01*
X007199Y016081D01*
X007184Y016107D01*
X007165Y016131D01*
X007144Y016152D01*
X007120Y016171D01*
X007094Y016186D01*
X007067Y016199D01*
X007038Y016208D01*
X007008Y016213D01*
X006978Y016215D01*
X006521Y016215D01*
X006521Y017306D01*
X007568Y017306D01*
X007569Y017306D02*
X007599Y017304D01*
X007628Y017299D01*
X007657Y017291D01*
X007684Y017279D01*
X007710Y017263D01*
X007734Y017245D01*
X007755Y017224D01*
X007774Y017201D01*
X007790Y017175D01*
X007802Y017148D01*
X007811Y017119D01*
X007817Y017090D01*
X007819Y017060D01*
X007818Y017060D02*
X007818Y013156D01*
X010657Y011256D02*
X016908Y011256D01*
X016908Y010259D01*
X010328Y010259D01*
X011709Y009704D02*
X011751Y009754D01*
X011774Y009769D01*
X011836Y009769D01*
X011889Y009734D01*
X011911Y009689D01*
X011911Y009629D01*
X011891Y009591D01*
X011869Y009564D01*
X011836Y009549D01*
X011801Y009541D02*
X011736Y009569D01*
X011704Y009631D01*
X011709Y009704D01*
X011747Y008965D02*
X011747Y002142D01*
X011747Y002141D02*
X011748Y002112D01*
X011752Y002083D01*
X011760Y002054D01*
X011771Y002027D01*
X011786Y002001D01*
X011803Y001977D01*
X011823Y001955D01*
X011846Y001936D01*
X011871Y001920D01*
X011897Y001907D01*
X011925Y001897D01*
X011954Y001891D01*
X011984Y001888D01*
X011983Y001888D02*
X015972Y001888D01*
X015972Y001860D01*
X015976Y001832D01*
X015983Y001805D01*
X015994Y001779D01*
X016008Y001755D01*
X016025Y001733D01*
X016045Y001713D01*
X016067Y001696D01*
X016091Y001682D01*
X016117Y001671D01*
X016144Y001664D01*
X016172Y001660D01*
X016322Y001660D01*
X016350Y001664D01*
X016377Y001671D01*
X016403Y001682D01*
X016427Y001696D01*
X016449Y001713D01*
X016469Y001733D01*
X016486Y001755D01*
X016500Y001779D01*
X016511Y001805D01*
X016518Y001832D01*
X016522Y001860D01*
X016522Y001888D01*
X021709Y001888D01*
X021709Y001860D01*
X021713Y001832D01*
X021720Y001805D01*
X021731Y001779D01*
X021745Y001755D01*
X021762Y001733D01*
X021782Y001713D01*
X021804Y001696D01*
X021828Y001682D01*
X021854Y001671D01*
X021881Y001664D01*
X021909Y001660D01*
X022059Y001660D01*
X022088Y001664D01*
X022115Y001671D01*
X022141Y001681D01*
X022166Y001695D01*
X022189Y001712D01*
X022209Y001732D01*
X022227Y001754D01*
X022241Y001779D01*
X022253Y001805D01*
X022260Y001832D01*
X022264Y001860D01*
X022265Y001888D01*
X022264Y001888D02*
X023464Y001888D01*
X023497Y001890D01*
X023530Y001896D01*
X023562Y001905D01*
X023592Y001918D01*
X023621Y001935D01*
X023648Y001954D01*
X023673Y001976D01*
X023695Y002001D01*
X023714Y002028D01*
X023730Y002058D01*
X023742Y002088D01*
X023751Y002120D01*
X023756Y002153D01*
X023758Y002186D01*
X023758Y006464D01*
X021278Y006464D01*
X021278Y005715D01*
X021282Y005676D01*
X021290Y005637D01*
X021301Y005600D01*
X021315Y005563D01*
X021333Y005528D01*
X021355Y005495D01*
X021379Y005464D01*
X021406Y005435D01*
X021435Y005409D01*
X021467Y005386D01*
X021500Y005365D01*
X021536Y005348D01*
X021573Y005334D01*
X021611Y005324D01*
X021649Y005317D01*
X021689Y005314D01*
X021728Y005315D01*
X022828Y005315D01*
X022827Y005316D02*
X022863Y005311D01*
X022899Y005303D01*
X022933Y005291D01*
X022967Y005276D01*
X022998Y005258D01*
X023028Y005237D01*
X023055Y005213D01*
X023080Y005186D01*
X023102Y005157D01*
X023121Y005126D01*
X023137Y005094D01*
X023150Y005059D01*
X023160Y005024D01*
X023166Y004988D01*
X023168Y004952D01*
X023167Y004916D01*
X023167Y004915D02*
X023167Y002977D01*
X023165Y002944D01*
X023160Y002912D01*
X023151Y002880D01*
X023138Y002849D01*
X023122Y002821D01*
X023103Y002794D01*
X023081Y002769D01*
X023056Y002747D01*
X023029Y002728D01*
X023001Y002712D01*
X022970Y002699D01*
X022938Y002690D01*
X022906Y002685D01*
X022873Y002683D01*
X021424Y002565D02*
X016564Y002479D01*
X016534Y002481D01*
X016504Y002486D01*
X016475Y002495D01*
X016448Y002508D01*
X016422Y002523D01*
X016398Y002542D01*
X016377Y002563D01*
X016358Y002587D01*
X016343Y002613D01*
X016330Y002640D01*
X016321Y002669D01*
X016316Y002699D01*
X016314Y002729D01*
X016314Y003798D01*
X015645Y003798D01*
X015622Y003799D01*
X015599Y003796D01*
X015576Y003790D01*
X015555Y003780D01*
X015535Y003768D01*
X015517Y003753D01*
X015502Y003736D01*
X015489Y003716D01*
X015479Y003695D01*
X015472Y003673D01*
X015469Y003650D01*
X015468Y003649D02*
X015467Y003616D01*
X015462Y003583D01*
X015453Y003551D01*
X015442Y003520D01*
X015427Y003490D01*
X015409Y003462D01*
X015388Y003436D01*
X015365Y003412D01*
X015340Y003391D01*
X015312Y003372D01*
X015282Y003357D01*
X015251Y003345D01*
X015219Y003336D01*
X015186Y003330D01*
X015153Y003328D01*
X014493Y003328D01*
X014436Y003302D01*
X014377Y003280D01*
X014317Y003262D01*
X014255Y003248D01*
X014193Y003237D01*
X014131Y003230D01*
X014068Y003226D01*
X014005Y003227D01*
X013942Y003231D01*
X013880Y003239D01*
X013818Y003251D01*
X013757Y003267D01*
X013697Y003286D01*
X013639Y003309D01*
X013582Y003335D01*
X013526Y003365D01*
X013473Y003398D01*
X013421Y003434D01*
X013372Y003473D01*
X013326Y003515D01*
X013281Y003560D01*
X013240Y003608D01*
X013202Y003658D01*
X013167Y003710D01*
X013135Y003764D01*
X013106Y003820D01*
X013081Y003878D01*
X013059Y003937D01*
X013041Y003997D01*
X013027Y004058D01*
X013016Y004120D01*
X013009Y004183D01*
X013006Y004246D01*
X013007Y004308D01*
X013011Y004371D01*
X013020Y004434D01*
X013032Y004495D01*
X013048Y004556D01*
X013067Y004616D01*
X013090Y004675D01*
X013117Y004732D01*
X013147Y004787D01*
X013180Y004840D01*
X013216Y004892D01*
X013256Y004941D01*
X013298Y004987D01*
X013343Y005031D01*
X013391Y005072D01*
X013441Y005110D01*
X013928Y005738D02*
X015028Y005738D01*
X015028Y005288D01*
X015029Y005288D02*
X015028Y005264D01*
X015031Y005241D01*
X015038Y005219D01*
X015047Y005197D01*
X015059Y005177D01*
X015075Y005160D01*
X015092Y005144D01*
X015112Y005131D01*
X015133Y005121D01*
X015155Y005114D01*
X015178Y005111D01*
X015178Y005110D02*
X015318Y005110D01*
X015341Y005106D01*
X015363Y005100D01*
X015384Y005091D01*
X015403Y005078D01*
X015421Y005063D01*
X015436Y005046D01*
X015448Y005027D01*
X015458Y005006D01*
X015464Y004984D01*
X015468Y004961D01*
X015468Y004938D01*
X015468Y004876D01*
X015469Y004876D02*
X015468Y004853D01*
X015471Y004830D01*
X015477Y004808D01*
X015486Y004787D01*
X015498Y004767D01*
X015512Y004749D01*
X015529Y004733D01*
X015548Y004720D01*
X015569Y004710D01*
X015591Y004703D01*
X015614Y004699D01*
X015613Y004698D02*
X016314Y004698D01*
X016314Y006881D01*
X016314Y006880D02*
X016310Y006913D01*
X016303Y006944D01*
X016293Y006975D01*
X016279Y007005D01*
X016262Y007032D01*
X016242Y007058D01*
X016219Y007081D01*
X016193Y007101D01*
X016166Y007119D01*
X016137Y007133D01*
X016106Y007144D01*
X016074Y007152D01*
X016042Y007155D01*
X016010Y007156D01*
X016009Y007156D02*
X015014Y007156D01*
X014979Y007160D01*
X014944Y007169D01*
X014910Y007180D01*
X014878Y007195D01*
X014847Y007214D01*
X014819Y007236D01*
X014793Y007260D01*
X014770Y007287D01*
X014749Y007316D01*
X014732Y007348D01*
X014718Y007381D01*
X014708Y007415D01*
X014701Y007450D01*
X014698Y007485D01*
X014699Y007521D01*
X014699Y008765D01*
X014700Y008765D02*
X014697Y008792D01*
X014690Y008819D01*
X014680Y008845D01*
X014666Y008869D01*
X014650Y008891D01*
X014630Y008911D01*
X014609Y008928D01*
X014585Y008942D01*
X014560Y008953D01*
X014533Y008960D01*
X014506Y008964D01*
X014478Y008965D01*
X011747Y008965D01*
X010960Y008965D02*
X010960Y007981D01*
X009437Y007981D01*
X009928Y008965D02*
X010960Y008965D01*
X013928Y005738D02*
X013910Y005678D01*
X013888Y005619D01*
X013862Y005562D01*
X013833Y005506D01*
X013801Y005453D01*
X013765Y005401D01*
X013727Y005351D01*
X013686Y005304D01*
X013641Y005259D01*
X013595Y005218D01*
X013545Y005179D01*
X013494Y005143D01*
X013440Y005110D01*
X010657Y011256D02*
X010530Y011434D01*
X010394Y011605D01*
X010250Y011770D01*
X010099Y011928D01*
X009940Y012078D01*
X009774Y012221D01*
X009601Y012356D01*
X009422Y012482D01*
X009238Y012599D01*
X009047Y012707D01*
X008852Y012806D01*
X008653Y012896D01*
X008449Y012976D01*
X008242Y013046D01*
X008031Y013106D01*
X007818Y013156D01*
X003728Y015815D02*
X003728Y015965D01*
X003726Y016004D01*
X003720Y016043D01*
X003711Y016081D01*
X003698Y016118D01*
X003681Y016154D01*
X003661Y016187D01*
X003637Y016219D01*
X003611Y016248D01*
X003582Y016274D01*
X003550Y016298D01*
X003517Y016318D01*
X003481Y016335D01*
X003444Y016348D01*
X003406Y016357D01*
X003367Y016363D01*
X003328Y016365D01*
X003289Y016363D01*
X003250Y016357D01*
X003212Y016348D01*
X003175Y016335D01*
X003139Y016318D01*
X003106Y016298D01*
X003074Y016274D01*
X003045Y016248D01*
X003019Y016219D01*
X002995Y016187D01*
X002975Y016154D01*
X002958Y016118D01*
X002945Y016081D01*
X002936Y016043D01*
X002930Y016004D01*
X002928Y015965D01*
X002928Y015815D01*
X002930Y015776D01*
X002936Y015737D01*
X002945Y015699D01*
X002958Y015662D01*
X002975Y015626D01*
X002995Y015593D01*
X003019Y015561D01*
X003045Y015532D01*
X003074Y015506D01*
X003106Y015482D01*
X003139Y015462D01*
X003175Y015445D01*
X003212Y015432D01*
X003250Y015423D01*
X003289Y015417D01*
X003328Y015415D01*
X003367Y015417D01*
X003406Y015423D01*
X003444Y015432D01*
X003481Y015445D01*
X003517Y015462D01*
X003550Y015482D01*
X003582Y015506D01*
X003611Y015532D01*
X003637Y015561D01*
X003661Y015593D01*
X003681Y015626D01*
X003698Y015662D01*
X003711Y015699D01*
X003720Y015737D01*
X003726Y015776D01*
X003728Y015815D01*
X013318Y013874D02*
X013318Y013573D01*
X013518Y013874D01*
X013518Y013573D01*
X013640Y013624D02*
X013640Y013824D01*
X013690Y013874D01*
X013790Y013874D01*
X013840Y013824D01*
X013840Y013624D01*
X013790Y013573D01*
X013690Y013573D01*
X013640Y013624D01*
X013955Y013573D02*
X014055Y013573D01*
X014005Y013573D02*
X014005Y013874D01*
X014055Y013874D02*
X013955Y013874D01*
X014177Y013874D02*
X014377Y013874D01*
X014277Y013874D02*
X014277Y013573D01*
X014499Y013573D02*
X014499Y013774D01*
X014600Y013874D01*
X014700Y013774D01*
X014700Y013573D01*
X014822Y013573D02*
X015022Y013573D01*
X015022Y013874D01*
X015144Y013573D02*
X015344Y013573D01*
X015344Y013874D01*
X015466Y013774D02*
X015466Y013573D01*
X015466Y013724D02*
X015666Y013724D01*
X015666Y013774D02*
X015566Y013874D01*
X015466Y013774D01*
X015666Y013774D02*
X015666Y013573D01*
X015889Y013573D02*
X015889Y013874D01*
X015989Y013874D02*
X015789Y013874D01*
X015881Y014123D02*
X015681Y014123D01*
X015781Y014274D02*
X015881Y014274D01*
X015881Y014424D02*
X015881Y014123D01*
X016003Y014174D02*
X016003Y014374D01*
X016053Y014424D01*
X016204Y014424D01*
X016204Y014123D01*
X016053Y014123D01*
X016003Y014174D01*
X015881Y014424D02*
X015681Y014424D01*
X015237Y014424D02*
X015237Y014123D01*
X015237Y014274D02*
X015137Y014274D01*
X015237Y014424D02*
X015037Y014424D01*
X014915Y014374D02*
X014915Y014174D01*
X014864Y014123D01*
X014764Y014123D01*
X014714Y014174D01*
X014714Y014374D01*
X014764Y014424D01*
X014864Y014424D01*
X014915Y014374D01*
X014592Y014424D02*
X014592Y014123D01*
X014592Y014224D02*
X014442Y014224D01*
X014392Y014274D01*
X014392Y014374D01*
X014442Y014424D01*
X014592Y014424D01*
X014492Y014224D02*
X014392Y014123D01*
X014499Y013724D02*
X014700Y013724D01*
X013948Y014123D02*
X013948Y014324D01*
X013848Y014424D01*
X013748Y014324D01*
X013748Y014123D01*
X013748Y014274D02*
X013948Y014274D01*
X016111Y013824D02*
X016161Y013874D01*
X016261Y013874D01*
X016311Y013824D01*
X016311Y013774D01*
X016261Y013724D01*
X016161Y013724D01*
X016111Y013674D01*
X016111Y013624D01*
X016161Y013573D01*
X016261Y013573D01*
X016311Y013624D01*
X016433Y013573D02*
X016433Y013874D01*
X016633Y013874D02*
X016433Y013573D01*
X016633Y013573D02*
X016633Y013874D01*
X016748Y013874D02*
X016848Y013874D01*
X016798Y013874D02*
X016798Y013573D01*
X016848Y013573D02*
X016748Y013573D01*
X017293Y013573D02*
X017493Y013573D01*
X017493Y013874D01*
X017615Y013874D02*
X017615Y013624D01*
X017665Y013573D01*
X017765Y013573D01*
X017815Y013624D01*
X017815Y013874D01*
X017937Y013874D02*
X018137Y013874D01*
X018137Y013573D01*
X018259Y013624D02*
X018309Y013573D01*
X018410Y013573D01*
X018460Y013624D01*
X018410Y013724D02*
X018309Y013724D01*
X018259Y013674D01*
X018259Y013624D01*
X018137Y013724D02*
X018037Y013724D01*
X018259Y013824D02*
X018309Y013874D01*
X018410Y013874D01*
X018460Y013824D01*
X018460Y013774D01*
X018410Y013724D01*
X018582Y013674D02*
X018582Y013624D01*
X018632Y013573D01*
X018732Y013573D01*
X018782Y013624D01*
X018732Y013724D02*
X018632Y013724D01*
X018582Y013674D01*
X018582Y013824D02*
X018632Y013874D01*
X018732Y013874D01*
X018782Y013824D01*
X018782Y013774D01*
X018732Y013724D01*
X018904Y013874D02*
X019104Y013874D01*
X019104Y013573D01*
X018904Y013573D01*
X019004Y013724D02*
X019104Y013724D01*
X019226Y013824D02*
X019276Y013874D01*
X019376Y013874D01*
X019426Y013824D01*
X019426Y013624D01*
X019376Y013573D01*
X019276Y013573D01*
X019226Y013624D01*
X019548Y013624D02*
X019599Y013573D01*
X019699Y013573D01*
X019749Y013624D01*
X019749Y013824D01*
X019699Y013874D01*
X019599Y013874D01*
X019548Y013824D01*
X019871Y013874D02*
X019871Y013624D01*
X019921Y013573D01*
X020021Y013573D01*
X020071Y013624D01*
X020071Y013874D01*
X020193Y013824D02*
X020243Y013874D01*
X020343Y013874D01*
X020393Y013824D01*
X020393Y013774D01*
X020343Y013724D01*
X020243Y013724D01*
X020193Y013674D01*
X020193Y013624D01*
X020243Y013573D01*
X020343Y013573D01*
X020393Y013624D01*
X019963Y014123D02*
X019963Y014424D01*
X019813Y014424D01*
X019763Y014374D01*
X019763Y014274D01*
X019813Y014224D01*
X019963Y014224D01*
X019863Y014224D02*
X019763Y014123D01*
X019641Y014123D02*
X019441Y014123D01*
X019319Y014123D02*
X019319Y014324D01*
X019219Y014424D01*
X019119Y014324D01*
X019119Y014123D01*
X018997Y014123D02*
X018997Y014424D01*
X018847Y014424D01*
X018796Y014374D01*
X018796Y014174D01*
X018847Y014123D01*
X018997Y014123D01*
X019119Y014274D02*
X019319Y014274D01*
X019441Y014424D02*
X019641Y014424D01*
X019641Y014123D01*
X019641Y014274D02*
X019541Y014274D01*
X018352Y014424D02*
X018152Y014424D01*
X018252Y014424D02*
X018252Y014123D01*
X018030Y014123D02*
X018030Y014424D01*
X018030Y014274D02*
X017830Y014274D01*
X017708Y014274D02*
X017607Y014274D01*
X017507Y014424D02*
X017708Y014424D01*
X017708Y014123D01*
X017507Y014123D01*
X017830Y014123D02*
X017830Y014424D01*
X017063Y014374D02*
X017063Y014174D01*
X017013Y014123D01*
X016913Y014123D01*
X016863Y014174D01*
X016863Y014274D01*
X016963Y014274D01*
X017063Y014374D02*
X017013Y014424D01*
X016913Y014424D01*
X016863Y014374D01*
X016741Y014424D02*
X016741Y014174D01*
X016691Y014123D01*
X016591Y014123D01*
X016541Y014174D01*
X016541Y014424D01*
X016418Y014424D02*
X016318Y014424D01*
X016368Y014424D02*
X016368Y014123D01*
X016418Y014123D02*
X016318Y014123D01*
X017695Y011256D02*
X017695Y010259D01*
X021028Y010259D01*
X021058Y010258D01*
X021087Y010253D01*
X021116Y010244D01*
X021143Y010232D01*
X021169Y010217D01*
X021192Y010199D01*
X021214Y010178D01*
X021232Y010155D01*
X021248Y010130D01*
X021261Y010103D01*
X021270Y010074D01*
X021276Y010045D01*
X021278Y010015D01*
X021278Y007252D01*
X023758Y007252D01*
X023758Y010915D01*
X023757Y010916D02*
X023756Y010951D01*
X023751Y010985D01*
X023742Y011019D01*
X023730Y011052D01*
X023715Y011084D01*
X023696Y011114D01*
X023674Y011141D01*
X023650Y011166D01*
X023623Y011189D01*
X023594Y011208D01*
X023563Y011225D01*
X023531Y011238D01*
X023497Y011248D01*
X023462Y011254D01*
X023427Y011256D01*
X023428Y011256D02*
X017695Y011256D01*
X021424Y002565D02*
X022150Y002608D01*
X022873Y002683D01*
X009928Y008965D02*
X009877Y009137D01*
X009818Y009307D01*
X009751Y009474D01*
X009675Y009637D01*
X009592Y009797D01*
X009501Y009952D01*
X009403Y010102D01*
X009298Y010248D01*
X009185Y010388D01*
X009066Y010523D01*
X008941Y010652D01*
X008809Y010774D01*
X008671Y010890D01*
X008528Y010999D01*
X008380Y011101D01*
X008227Y011195D01*
X008070Y011282D01*
X007909Y011362D01*
X007744Y011433D01*
X007576Y011496D01*
X007404Y011551D01*
X007231Y011598D01*
X007055Y011636D01*
X006878Y011665D01*
X007228Y012515D02*
X007443Y012468D01*
X007655Y012410D01*
X007864Y012342D01*
X008070Y012264D01*
X008271Y012176D01*
X008469Y012079D01*
X008661Y011972D01*
X008847Y011856D01*
X009028Y011730D01*
X009203Y011597D01*
X009371Y011455D01*
X009532Y011305D01*
X009685Y011147D01*
X009831Y010983D01*
X009968Y010811D01*
X010097Y010633D01*
X010217Y010449D01*
X010328Y010259D01*
D11*
X012928Y013246D02*
X012928Y014746D01*
X020678Y014746D01*
X020678Y013246D01*
X012928Y013246D01*
X016778Y015096D02*
X016878Y015096D01*
X016878Y015496D01*
X016828Y015496D01*
X016778Y015496D01*
X016778Y015096D01*
X016828Y015096D02*
X016828Y015496D01*
X016878Y015496D02*
X017028Y015496D01*
X016828Y015996D01*
X016628Y015496D01*
X016778Y015496D01*
X016728Y015546D02*
X016978Y015546D01*
X016878Y015796D01*
X016778Y015596D01*
X016878Y015596D01*
X016878Y015696D01*
X016828Y015846D02*
X016728Y015546D01*
X016665Y017057D02*
X016665Y017478D01*
X016455Y017478D01*
X016385Y017407D01*
X016385Y017267D01*
X016455Y017197D01*
X016665Y017197D01*
X016845Y017127D02*
X016915Y017057D01*
X017055Y017057D01*
X017125Y017127D01*
X017125Y017407D01*
X017055Y017478D01*
X016915Y017478D01*
X016845Y017407D01*
X016845Y017127D01*
X017306Y017057D02*
X017306Y017478D01*
X017306Y017267D02*
X017586Y017267D01*
X017766Y017197D02*
X017766Y017127D01*
X017836Y017057D01*
X017976Y017057D01*
X018046Y017127D01*
X017976Y017267D02*
X017836Y017267D01*
X017766Y017197D01*
X017766Y017407D02*
X017836Y017478D01*
X017976Y017478D01*
X018046Y017407D01*
X018046Y017337D01*
X017976Y017267D01*
X017586Y017057D02*
X017586Y017478D01*
X018226Y017478D02*
X018507Y017057D01*
X018687Y017478D02*
X018967Y017057D01*
X019127Y017057D02*
X019127Y017127D01*
X019197Y017127D01*
X019197Y017057D01*
X019127Y017057D01*
X019127Y017267D02*
X019197Y017267D01*
X019197Y017337D01*
X019127Y017337D01*
X019127Y017267D01*
X019377Y017197D02*
X019377Y017127D01*
X019447Y017057D01*
X019587Y017057D01*
X019658Y017127D01*
X019587Y017267D02*
X019658Y017337D01*
X019658Y017407D01*
X019587Y017478D01*
X019447Y017478D01*
X019377Y017407D01*
X019447Y017267D02*
X019377Y017197D01*
X019447Y017267D02*
X019587Y017267D01*
X019838Y017267D02*
X019838Y017407D01*
X019908Y017478D01*
X020118Y017478D01*
X020118Y017057D01*
X020118Y017197D02*
X019908Y017197D01*
X019838Y017267D01*
X020298Y017478D02*
X020578Y017478D01*
X020438Y017478D02*
X020438Y017057D01*
X020899Y017057D02*
X020899Y017478D01*
X021039Y017478D02*
X020758Y017478D01*
X021219Y017478D02*
X021219Y017057D01*
X021219Y017267D02*
X021499Y017267D01*
X021499Y017057D02*
X021499Y017478D01*
X022120Y017337D02*
X022120Y017267D01*
X022190Y017267D01*
X022190Y017337D01*
X022120Y017337D01*
X022120Y017127D02*
X022120Y017057D01*
X022190Y017057D01*
X022190Y017127D01*
X022120Y017127D01*
X022370Y017057D02*
X022650Y017057D01*
X022650Y017478D01*
X022370Y017478D01*
X022510Y017267D02*
X022650Y017267D01*
X022830Y017127D02*
X022900Y017057D01*
X023110Y017057D01*
X023110Y017478D01*
X022900Y017478D01*
X022830Y017407D01*
X022830Y017127D01*
X023277Y017057D02*
X023417Y017057D01*
X023347Y017057D02*
X023347Y017478D01*
X023417Y017478D02*
X023277Y017478D01*
X023598Y017478D02*
X023598Y017127D01*
X023668Y017057D01*
X023808Y017057D01*
X023878Y017127D01*
X023878Y017478D01*
X024058Y017407D02*
X024128Y017478D01*
X024268Y017478D01*
X024338Y017407D01*
X024338Y017127D01*
X024268Y017057D01*
X024128Y017057D01*
X024058Y017127D01*
X024058Y017267D01*
X024198Y017267D01*
X016205Y017127D02*
X016205Y017057D01*
X016135Y017057D01*
X016135Y017127D01*
X016205Y017127D01*
X015974Y017127D02*
X015904Y017057D01*
X015764Y017057D01*
X015694Y017127D01*
X015694Y017267D01*
X015834Y017267D01*
X015974Y017407D02*
X015974Y017127D01*
X015974Y017407D02*
X015904Y017478D01*
X015764Y017478D01*
X015694Y017407D01*
X015514Y017478D02*
X015374Y017478D01*
X015444Y017478D02*
X015444Y017057D01*
X015514Y017057D02*
X015374Y017057D01*
X015207Y017057D02*
X014927Y017057D01*
X015207Y017057D02*
X015207Y017478D01*
X014747Y017478D02*
X014466Y017478D01*
X014607Y017478D02*
X014607Y017057D01*
X014286Y017057D02*
X014006Y017057D01*
X013826Y017127D02*
X013756Y017057D01*
X013616Y017057D01*
X013546Y017127D01*
X013546Y017197D01*
X013616Y017267D01*
X013756Y017267D01*
X013826Y017337D01*
X013826Y017407D01*
X013756Y017478D01*
X013616Y017478D01*
X013546Y017407D01*
X013366Y017337D02*
X013225Y017478D01*
X013085Y017337D01*
X013085Y017057D01*
X012905Y017057D02*
X012905Y017127D01*
X012835Y017127D01*
X012835Y017057D01*
X012905Y017057D01*
X012675Y017127D02*
X012605Y017057D01*
X012465Y017057D01*
X012395Y017127D01*
X012215Y017127D02*
X012144Y017057D01*
X012004Y017057D01*
X011934Y017127D01*
X011934Y017407D01*
X012004Y017478D01*
X012144Y017478D01*
X012215Y017407D01*
X012215Y017127D01*
X012395Y017407D02*
X012465Y017478D01*
X012605Y017478D01*
X012675Y017407D01*
X012675Y017127D01*
X013085Y017267D02*
X013366Y017267D01*
X013366Y017337D02*
X013366Y017057D01*
X014006Y017478D02*
X014286Y017478D01*
X014286Y017057D01*
X014286Y017267D02*
X014146Y017267D01*
X011754Y017057D02*
X011754Y017478D01*
X011614Y017337D01*
X011474Y017478D01*
X011474Y017057D01*
X011294Y017057D02*
X011014Y017478D01*
X010833Y017407D02*
X010763Y017478D01*
X010623Y017478D01*
X010553Y017407D01*
X010553Y017337D01*
X010693Y017197D01*
X010693Y017127D02*
X010693Y017057D01*
X010373Y017057D02*
X010373Y017478D01*
X010163Y017478D01*
X010093Y017407D01*
X010093Y017267D01*
X010163Y017197D01*
X010373Y017197D01*
X009913Y017197D02*
X009632Y017197D01*
X009632Y017337D02*
X009913Y017337D01*
X009452Y017337D02*
X009312Y017478D01*
X009312Y017057D01*
X009452Y017057D02*
X009172Y017057D01*
X008992Y017057D02*
X008712Y017057D01*
X008852Y017057D02*
X008852Y017478D01*
X008992Y017337D01*
X006127Y005011D02*
X005917Y005011D01*
X005847Y004941D01*
X005847Y004871D01*
X005917Y004801D01*
X006127Y004801D01*
X005917Y004801D02*
X005847Y004731D01*
X005847Y004661D01*
X005917Y004591D01*
X006127Y004591D01*
X006127Y005011D01*
X005667Y005011D02*
X005667Y004941D01*
X005527Y004801D01*
X005527Y004591D01*
X005527Y004801D02*
X005387Y004941D01*
X005387Y005011D01*
X004827Y005011D02*
X004827Y004591D01*
X004547Y004591D02*
X004547Y005011D01*
X004367Y004941D02*
X004367Y004661D01*
X004297Y004591D01*
X004157Y004591D01*
X004087Y004661D01*
X004547Y004591D02*
X004827Y005011D01*
X004367Y004941D02*
X004297Y005011D01*
X004157Y005011D01*
X004087Y004941D01*
X003527Y004941D02*
X003527Y004871D01*
X003457Y004801D01*
X003317Y004801D01*
X003247Y004731D01*
X003247Y004661D01*
X003317Y004591D01*
X003457Y004591D01*
X003527Y004661D01*
X003067Y004591D02*
X003067Y004871D01*
X002927Y005011D01*
X002787Y004871D01*
X002787Y004591D01*
X002787Y004801D02*
X003067Y004801D01*
X003247Y004941D02*
X003317Y005011D01*
X003457Y005011D01*
X003527Y004941D01*
D12*
X002557Y004401D02*
X002534Y004403D01*
X002511Y004408D01*
X002489Y004417D01*
X002469Y004430D01*
X002451Y004445D01*
X002436Y004463D01*
X002423Y004483D01*
X002414Y004505D01*
X002409Y004528D01*
X002407Y004551D01*
X002407Y006551D01*
X002409Y006574D01*
X002414Y006597D01*
X002423Y006619D01*
X002436Y006639D01*
X002451Y006657D01*
X002469Y006672D01*
X002489Y006685D01*
X002511Y006694D01*
X002534Y006699D01*
X002557Y006701D01*
X008107Y006701D01*
X008130Y006699D01*
X008153Y006694D01*
X008175Y006685D01*
X008195Y006672D01*
X008213Y006657D01*
X008228Y006639D01*
X008241Y006619D01*
X008250Y006597D01*
X008255Y006574D01*
X008257Y006551D01*
X008257Y004551D01*
X008255Y004528D01*
X008250Y004505D01*
X008241Y004483D01*
X008228Y004463D01*
X008213Y004445D01*
X008195Y004430D01*
X008175Y004417D01*
X008153Y004408D01*
X008130Y004403D01*
X008107Y004401D01*
X002557Y004401D01*
X002407Y005201D02*
X006457Y005201D01*
X005767Y005601D02*
X005697Y005601D01*
X005697Y005871D01*
X005627Y005871D01*
X005627Y006031D01*
X005837Y006031D01*
X005837Y005871D01*
X005767Y005871D01*
X005767Y005601D01*
X005787Y005931D02*
X005717Y005931D01*
X005717Y005981D01*
X005216Y005951D02*
X005218Y005997D01*
X005224Y006042D01*
X005233Y006087D01*
X005247Y006131D01*
X005264Y006174D01*
X005285Y006215D01*
X005309Y006254D01*
X005336Y006291D01*
X005366Y006325D01*
X005400Y006357D01*
X005435Y006386D01*
X005473Y006412D01*
X005513Y006434D01*
X005555Y006453D01*
X005599Y006468D01*
X005643Y006480D01*
X005688Y006488D01*
X005734Y006492D01*
X005780Y006492D01*
X005826Y006488D01*
X005871Y006480D01*
X005915Y006468D01*
X005959Y006453D01*
X006001Y006434D01*
X006041Y006412D01*
X006079Y006386D01*
X006114Y006357D01*
X006148Y006325D01*
X006178Y006291D01*
X006205Y006254D01*
X006229Y006215D01*
X006250Y006174D01*
X006267Y006131D01*
X006281Y006087D01*
X006290Y006042D01*
X006296Y005997D01*
X006298Y005951D01*
X006296Y005905D01*
X006290Y005860D01*
X006281Y005815D01*
X006267Y005771D01*
X006250Y005728D01*
X006229Y005687D01*
X006205Y005648D01*
X006178Y005611D01*
X006148Y005577D01*
X006114Y005545D01*
X006079Y005516D01*
X006041Y005490D01*
X006001Y005468D01*
X005959Y005449D01*
X005915Y005434D01*
X005871Y005422D01*
X005826Y005414D01*
X005780Y005410D01*
X005734Y005410D01*
X005688Y005414D01*
X005643Y005422D01*
X005599Y005434D01*
X005555Y005449D01*
X005513Y005468D01*
X005473Y005490D01*
X005435Y005516D01*
X005400Y005545D01*
X005366Y005577D01*
X005336Y005611D01*
X005309Y005648D01*
X005285Y005687D01*
X005264Y005728D01*
X005247Y005771D01*
X005233Y005815D01*
X005224Y005860D01*
X005218Y005905D01*
X005216Y005951D01*
X004937Y006161D02*
X003977Y005721D01*
X004457Y005681D02*
X004457Y005601D01*
X004396Y005701D02*
X004380Y005713D01*
X004365Y005728D01*
X004354Y005745D01*
X004345Y005764D01*
X004340Y005784D01*
X004338Y005805D01*
X004340Y005826D01*
X004345Y005846D01*
X004354Y005865D01*
X004365Y005882D01*
X004380Y005897D01*
X004397Y005909D01*
X004415Y005918D01*
X004435Y005924D01*
X004456Y005927D01*
X004476Y005926D01*
X004497Y005921D01*
X003916Y005951D02*
X003918Y005997D01*
X003924Y006042D01*
X003933Y006087D01*
X003947Y006131D01*
X003964Y006174D01*
X003985Y006215D01*
X004009Y006254D01*
X004036Y006291D01*
X004066Y006325D01*
X004100Y006357D01*
X004135Y006386D01*
X004173Y006412D01*
X004213Y006434D01*
X004255Y006453D01*
X004299Y006468D01*
X004343Y006480D01*
X004388Y006488D01*
X004434Y006492D01*
X004480Y006492D01*
X004526Y006488D01*
X004571Y006480D01*
X004615Y006468D01*
X004659Y006453D01*
X004701Y006434D01*
X004741Y006412D01*
X004779Y006386D01*
X004814Y006357D01*
X004848Y006325D01*
X004878Y006291D01*
X004905Y006254D01*
X004929Y006215D01*
X004950Y006174D01*
X004967Y006131D01*
X004981Y006087D01*
X004990Y006042D01*
X004996Y005997D01*
X004998Y005951D01*
X004996Y005905D01*
X004990Y005860D01*
X004981Y005815D01*
X004967Y005771D01*
X004950Y005728D01*
X004929Y005687D01*
X004905Y005648D01*
X004878Y005611D01*
X004848Y005577D01*
X004814Y005545D01*
X004779Y005516D01*
X004741Y005490D01*
X004701Y005468D01*
X004659Y005449D01*
X004615Y005434D01*
X004571Y005422D01*
X004526Y005414D01*
X004480Y005410D01*
X004434Y005410D01*
X004388Y005414D01*
X004343Y005422D01*
X004299Y005434D01*
X004255Y005449D01*
X004213Y005468D01*
X004173Y005490D01*
X004135Y005516D01*
X004100Y005545D01*
X004066Y005577D01*
X004036Y005611D01*
X004009Y005648D01*
X003985Y005687D01*
X003964Y005728D01*
X003947Y005771D01*
X003933Y005815D01*
X003924Y005860D01*
X003918Y005905D01*
X003916Y005951D01*
X003517Y005961D02*
X003397Y005841D01*
X003317Y005981D01*
X003517Y005961D01*
X002616Y005951D02*
X002618Y005997D01*
X002624Y006042D01*
X002633Y006087D01*
X002647Y006131D01*
X002664Y006174D01*
X002685Y006215D01*
X002709Y006254D01*
X002736Y006291D01*
X002766Y006325D01*
X002800Y006357D01*
X002835Y006386D01*
X002873Y006412D01*
X002913Y006434D01*
X002955Y006453D01*
X002999Y006468D01*
X003043Y006480D01*
X003088Y006488D01*
X003134Y006492D01*
X003180Y006492D01*
X003226Y006488D01*
X003271Y006480D01*
X003315Y006468D01*
X003359Y006453D01*
X003401Y006434D01*
X003441Y006412D01*
X003479Y006386D01*
X003514Y006357D01*
X003548Y006325D01*
X003578Y006291D01*
X003605Y006254D01*
X003629Y006215D01*
X003650Y006174D01*
X003667Y006131D01*
X003681Y006087D01*
X003690Y006042D01*
X003696Y005997D01*
X003698Y005951D01*
X003696Y005905D01*
X003690Y005860D01*
X003681Y005815D01*
X003667Y005771D01*
X003650Y005728D01*
X003629Y005687D01*
X003605Y005648D01*
X003578Y005611D01*
X003548Y005577D01*
X003514Y005545D01*
X003479Y005516D01*
X003441Y005490D01*
X003401Y005468D01*
X003359Y005449D01*
X003315Y005434D01*
X003271Y005422D01*
X003226Y005414D01*
X003180Y005410D01*
X003134Y005410D01*
X003088Y005414D01*
X003043Y005422D01*
X002999Y005434D01*
X002955Y005449D01*
X002913Y005468D01*
X002873Y005490D01*
X002835Y005516D01*
X002800Y005545D01*
X002766Y005577D01*
X002736Y005611D01*
X002709Y005648D01*
X002685Y005687D01*
X002664Y005728D01*
X002647Y005771D01*
X002633Y005815D01*
X002624Y005860D01*
X002618Y005905D01*
X002616Y005951D01*
X003277Y005661D02*
X003246Y005646D01*
X003213Y005634D01*
X003179Y005627D01*
X003144Y005623D01*
X003110Y005622D01*
X003075Y005626D01*
X003041Y005634D01*
X003008Y005645D01*
X002977Y005660D01*
X002947Y005678D01*
X002920Y005700D01*
X002895Y005724D01*
X002873Y005751D01*
X002854Y005781D01*
X002839Y005812D01*
X002827Y005844D01*
X002819Y005878D01*
X002815Y005913D01*
X002814Y005948D01*
X002818Y005982D01*
X002825Y006016D01*
X002836Y006049D01*
X002851Y006081D01*
X002869Y006111D01*
X002890Y006138D01*
X002914Y006163D01*
X002941Y006185D01*
X002970Y006204D01*
X003001Y006220D01*
X003034Y006232D01*
X003068Y006240D01*
X003102Y006245D01*
X003137Y006246D01*
X003172Y006243D01*
X003206Y006236D01*
X003239Y006225D01*
X003270Y006211D01*
X003300Y006193D01*
X003328Y006172D01*
X003353Y006148D01*
X003376Y006121D01*
X003395Y006092D01*
X003411Y006061D01*
X003423Y006029D01*
X003432Y005995D01*
X003437Y005961D01*
X004357Y006101D02*
X004373Y006114D01*
X004391Y006125D01*
X004410Y006132D01*
X004431Y006136D01*
X004451Y006135D01*
X004472Y006132D01*
X004491Y006124D01*
X004509Y006113D01*
X004524Y006099D01*
X004537Y006083D01*
X004546Y006065D01*
X004552Y006045D01*
X004555Y006024D01*
X004554Y006004D01*
X004549Y005984D01*
X004540Y005965D01*
X004529Y005948D01*
X004514Y005933D01*
X004497Y005921D01*
X004577Y005741D02*
X004562Y005724D01*
X004545Y005709D01*
X004526Y005698D01*
X004505Y005689D01*
X004483Y005684D01*
X004461Y005683D01*
X004439Y005686D01*
X004417Y005692D01*
X004397Y005701D01*
X004457Y006161D02*
X004457Y006241D01*
X005687Y006231D02*
X005689Y006244D01*
X005694Y006257D01*
X005703Y006268D01*
X005714Y006275D01*
X005727Y006280D01*
X005740Y006281D01*
X005754Y006278D01*
X005766Y006272D01*
X005776Y006263D01*
X005783Y006251D01*
X005787Y006238D01*
X005787Y006224D01*
X005783Y006211D01*
X005776Y006199D01*
X005766Y006190D01*
X005754Y006184D01*
X005740Y006181D01*
X005727Y006182D01*
X005714Y006187D01*
X005703Y006194D01*
X005694Y006205D01*
X005689Y006218D01*
X005687Y006231D01*
X005787Y006001D02*
X005787Y005931D01*
X005797Y006001D02*
X005787Y006001D01*
X006550Y005751D02*
X006552Y005804D01*
X006558Y005856D01*
X006568Y005908D01*
X006581Y005959D01*
X006599Y006009D01*
X006620Y006058D01*
X006645Y006105D01*
X006673Y006149D01*
X006704Y006192D01*
X006739Y006232D01*
X006776Y006269D01*
X006816Y006304D01*
X006859Y006335D01*
X006904Y006363D01*
X006950Y006388D01*
X006999Y006409D01*
X007049Y006427D01*
X007100Y006440D01*
X007152Y006450D01*
X007204Y006456D01*
X007257Y006458D01*
X007310Y006456D01*
X007362Y006450D01*
X007414Y006440D01*
X007465Y006427D01*
X007515Y006409D01*
X007564Y006388D01*
X007611Y006363D01*
X007655Y006335D01*
X007698Y006304D01*
X007738Y006269D01*
X007775Y006232D01*
X007810Y006192D01*
X007841Y006149D01*
X007869Y006104D01*
X007894Y006058D01*
X007915Y006009D01*
X007933Y005959D01*
X007946Y005908D01*
X007956Y005856D01*
X007962Y005804D01*
X007964Y005751D01*
X007962Y005698D01*
X007956Y005646D01*
X007946Y005594D01*
X007933Y005543D01*
X007915Y005493D01*
X007894Y005444D01*
X007869Y005397D01*
X007841Y005353D01*
X007810Y005310D01*
X007775Y005270D01*
X007738Y005233D01*
X007698Y005198D01*
X007655Y005167D01*
X007610Y005139D01*
X007564Y005114D01*
X007515Y005093D01*
X007465Y005075D01*
X007414Y005062D01*
X007362Y005052D01*
X007310Y005046D01*
X007257Y005044D01*
X007204Y005046D01*
X007152Y005052D01*
X007100Y005062D01*
X007049Y005075D01*
X006999Y005093D01*
X006950Y005114D01*
X006903Y005139D01*
X006859Y005167D01*
X006816Y005198D01*
X006776Y005233D01*
X006739Y005270D01*
X006704Y005310D01*
X006673Y005353D01*
X006645Y005398D01*
X006620Y005444D01*
X006599Y005493D01*
X006581Y005543D01*
X006568Y005594D01*
X006558Y005646D01*
X006552Y005698D01*
X006550Y005751D01*
X006457Y005201D02*
X006488Y005151D01*
X006522Y005103D01*
X006559Y005058D01*
X006598Y005015D01*
X006641Y004974D01*
X006686Y004937D01*
X006733Y004902D01*
X006782Y004870D01*
X006834Y004842D01*
X006887Y004817D01*
X006941Y004795D01*
X006997Y004776D01*
X007053Y004762D01*
X007111Y004751D01*
X007169Y004743D01*
X007228Y004739D01*
X007286Y004739D01*
X007345Y004743D01*
X007403Y004751D01*
X007461Y004762D01*
X007517Y004776D01*
X007573Y004795D01*
X007627Y004817D01*
X007680Y004842D01*
X007732Y004870D01*
X007781Y004902D01*
X007828Y004937D01*
X007873Y004974D01*
X007916Y005015D01*
X007955Y005058D01*
X007992Y005103D01*
X008026Y005151D01*
X008057Y005201D01*
X008257Y005201D01*
X008699Y016825D02*
X024399Y016825D01*
D13*
X019883Y009789D02*
X019783Y009789D01*
X019733Y009739D01*
X019733Y009689D01*
X019933Y009489D01*
X019733Y009489D01*
X019602Y009539D02*
X019401Y009739D01*
X019401Y009539D01*
X019451Y009489D01*
X019552Y009489D01*
X019602Y009539D01*
X019602Y009739D01*
X019552Y009789D01*
X019451Y009789D01*
X019401Y009739D01*
X019270Y009739D02*
X019220Y009789D01*
X019120Y009789D01*
X019070Y009739D01*
X019070Y009689D01*
X019270Y009489D01*
X019070Y009489D01*
X018939Y009539D02*
X018889Y009489D01*
X018788Y009489D01*
X018738Y009539D01*
X018738Y009589D01*
X018788Y009639D01*
X018839Y009639D01*
X018788Y009639D02*
X018738Y009689D01*
X018738Y009739D01*
X018788Y009789D01*
X018889Y009789D01*
X018939Y009739D01*
X018607Y009489D02*
X018407Y009789D01*
X018276Y009739D02*
X018226Y009789D01*
X018125Y009789D01*
X018075Y009739D01*
X018276Y009539D01*
X018226Y009489D01*
X018125Y009489D01*
X018075Y009539D01*
X018075Y009739D01*
X017944Y009739D02*
X017944Y009689D01*
X017894Y009639D01*
X017744Y009639D01*
X017744Y009739D02*
X017794Y009789D01*
X017894Y009789D01*
X017944Y009739D01*
X017744Y009739D02*
X017744Y009539D01*
X017794Y009489D01*
X017894Y009489D01*
X017944Y009539D01*
X018276Y009539D02*
X018276Y009739D01*
X017281Y009789D02*
X017281Y009589D01*
X017181Y009489D01*
X017081Y009589D01*
X017081Y009789D01*
X016950Y009739D02*
X016900Y009789D01*
X016800Y009789D01*
X016750Y009739D01*
X016750Y009689D01*
X016950Y009489D01*
X016750Y009489D01*
X016618Y009489D02*
X016568Y009489D01*
X016568Y009539D01*
X016618Y009539D01*
X016618Y009489D01*
X016452Y009539D02*
X016452Y009739D01*
X016402Y009789D01*
X016302Y009789D01*
X016252Y009739D01*
X016452Y009539D01*
X016402Y009489D01*
X016302Y009489D01*
X016252Y009539D01*
X016252Y009739D01*
X016221Y008434D02*
X016165Y008378D01*
X016165Y008151D01*
X016221Y008094D01*
X016335Y008094D01*
X016391Y008151D01*
X016391Y008378D01*
X016335Y008434D01*
X016221Y008434D01*
X016023Y008434D02*
X016023Y008151D01*
X015966Y008094D01*
X015853Y008094D01*
X015796Y008151D01*
X015796Y008434D01*
X015655Y008434D02*
X015428Y008434D01*
X015541Y008434D02*
X015541Y008094D01*
X016533Y008434D02*
X016760Y008434D01*
X016646Y008434D02*
X016646Y008094D01*
X016901Y008094D02*
X016901Y008321D01*
X017015Y008434D01*
X017128Y008321D01*
X017128Y008094D01*
X017269Y008151D02*
X017326Y008094D01*
X017496Y008094D01*
X017496Y008434D01*
X017326Y008434D01*
X017269Y008378D01*
X017269Y008321D01*
X017326Y008264D01*
X017496Y008264D01*
X017326Y008264D02*
X017269Y008207D01*
X017269Y008151D01*
X017128Y008264D02*
X016901Y008264D01*
X019883Y009789D02*
X019933Y009739D01*
X021341Y004703D02*
X021511Y004703D01*
X021511Y004363D01*
X021341Y004363D01*
X021284Y004420D01*
X021284Y004646D01*
X021341Y004703D01*
X021652Y004703D02*
X021652Y004363D01*
X021879Y004703D01*
X021879Y004363D01*
X022021Y004420D02*
X022021Y004533D01*
X022134Y004533D01*
X022021Y004420D02*
X022077Y004363D01*
X022191Y004363D01*
X022248Y004420D01*
X022248Y004646D01*
X022191Y004703D01*
X022077Y004703D01*
X022021Y004646D01*
X015087Y004240D02*
X015044Y004284D01*
X014914Y004284D01*
X014914Y004370D02*
X014914Y004110D01*
X015044Y004110D01*
X015087Y004154D01*
X015087Y004240D01*
X006699Y014334D02*
X006359Y014334D01*
X006359Y014504D01*
X006416Y014561D01*
X006472Y014561D01*
X006529Y014504D01*
X006529Y014334D01*
X006529Y014504D02*
X006586Y014561D01*
X006643Y014561D01*
X006699Y014504D01*
X006699Y014334D01*
X006586Y014702D02*
X006359Y014702D01*
X006529Y014702D02*
X006529Y014929D01*
X006586Y014929D02*
X006359Y014929D01*
X006586Y014929D02*
X006699Y014816D01*
X006586Y014702D01*
X006699Y015070D02*
X006699Y015297D01*
X006699Y015184D02*
X006359Y015184D01*
X006359Y015439D02*
X006359Y015552D01*
X006359Y015495D02*
X006699Y015495D01*
X006699Y015439D02*
X006699Y015552D01*
X006699Y015684D02*
X006359Y015911D01*
X006699Y015911D01*
X006699Y015684D02*
X006359Y015684D01*
D14*
X017338Y004483D02*
X017338Y004238D01*
X017340Y004218D01*
X017345Y004199D01*
X017354Y004181D01*
X017366Y004165D01*
X017381Y004152D01*
X017398Y004141D01*
X017416Y004134D01*
X017436Y004130D01*
X017456Y004130D01*
X017476Y004134D01*
X017494Y004141D01*
X017511Y004152D01*
X017526Y004165D01*
X017538Y004181D01*
X017547Y004199D01*
X017552Y004218D01*
X017554Y004238D01*
X017554Y004483D01*
X017552Y004503D01*
X017547Y004522D01*
X017538Y004540D01*
X017526Y004556D01*
X017511Y004569D01*
X017494Y004580D01*
X017476Y004587D01*
X017456Y004591D01*
X017436Y004591D01*
X017416Y004587D01*
X017398Y004580D01*
X017381Y004569D01*
X017366Y004556D01*
X017354Y004540D01*
X017345Y004522D01*
X017340Y004503D01*
X017338Y004483D01*
X017338Y002986D02*
X017338Y002742D01*
X017340Y002722D01*
X017345Y002703D01*
X017354Y002685D01*
X017366Y002669D01*
X017381Y002656D01*
X017398Y002645D01*
X017416Y002638D01*
X017436Y002634D01*
X017456Y002634D01*
X017476Y002638D01*
X017494Y002645D01*
X017511Y002656D01*
X017526Y002669D01*
X017538Y002685D01*
X017547Y002703D01*
X017552Y002722D01*
X017554Y002742D01*
X017554Y002986D01*
X017552Y003006D01*
X017547Y003025D01*
X017538Y003043D01*
X017526Y003059D01*
X017511Y003072D01*
X017494Y003083D01*
X017476Y003090D01*
X017456Y003094D01*
X017436Y003094D01*
X017416Y003090D01*
X017398Y003083D01*
X017381Y003072D01*
X017366Y003059D01*
X017354Y003043D01*
X017345Y003025D01*
X017340Y003006D01*
X017338Y002986D01*
X020739Y002986D02*
X020739Y002742D01*
X020741Y002722D01*
X020746Y002703D01*
X020755Y002685D01*
X020767Y002669D01*
X020782Y002656D01*
X020799Y002645D01*
X020817Y002638D01*
X020837Y002634D01*
X020857Y002634D01*
X020877Y002638D01*
X020895Y002645D01*
X020912Y002656D01*
X020927Y002669D01*
X020939Y002685D01*
X020948Y002703D01*
X020953Y002722D01*
X020955Y002742D01*
X020956Y002742D02*
X020956Y002986D01*
X020955Y002986D02*
X020953Y003006D01*
X020948Y003025D01*
X020939Y003043D01*
X020927Y003059D01*
X020912Y003072D01*
X020895Y003083D01*
X020877Y003090D01*
X020857Y003094D01*
X020837Y003094D01*
X020817Y003090D01*
X020799Y003083D01*
X020782Y003072D01*
X020767Y003059D01*
X020755Y003043D01*
X020746Y003025D01*
X020741Y003006D01*
X020739Y002986D01*
X020739Y004238D02*
X020739Y004483D01*
X020741Y004503D01*
X020746Y004522D01*
X020755Y004540D01*
X020767Y004556D01*
X020782Y004569D01*
X020799Y004580D01*
X020817Y004587D01*
X020837Y004591D01*
X020857Y004591D01*
X020877Y004587D01*
X020895Y004580D01*
X020912Y004569D01*
X020927Y004556D01*
X020939Y004540D01*
X020948Y004522D01*
X020953Y004503D01*
X020955Y004483D01*
X020956Y004483D02*
X020956Y004238D01*
X020955Y004238D02*
X020953Y004218D01*
X020948Y004199D01*
X020939Y004181D01*
X020927Y004165D01*
X020912Y004152D01*
X020895Y004141D01*
X020877Y004134D01*
X020857Y004130D01*
X020837Y004130D01*
X020817Y004134D01*
X020799Y004141D01*
X020782Y004152D01*
X020767Y004165D01*
X020755Y004181D01*
X020746Y004199D01*
X020741Y004218D01*
X020739Y004238D01*
D15*
X014068Y004240D02*
X014068Y003990D01*
X014068Y004240D02*
X013868Y004240D01*
X014068Y004240D02*
X014068Y004490D01*
X007357Y005601D02*
X007377Y005579D01*
X007400Y005560D01*
X007425Y005544D01*
X007452Y005531D01*
X007480Y005522D01*
X007510Y005516D01*
X007539Y005514D01*
X007569Y005516D01*
X007598Y005521D01*
X007627Y005530D01*
X007654Y005543D01*
X007679Y005559D01*
X007702Y005578D01*
X007722Y005600D01*
X007740Y005624D01*
X007754Y005650D01*
X007765Y005678D01*
X007773Y005707D01*
X007777Y005736D01*
X007777Y005766D01*
X007773Y005795D01*
X007765Y005824D01*
X007754Y005852D01*
X007740Y005878D01*
X007722Y005902D01*
X007702Y005924D01*
X007679Y005943D01*
X007654Y005959D01*
X007627Y005972D01*
X007598Y005981D01*
X007569Y005986D01*
X007539Y005988D01*
X007510Y005986D01*
X007480Y005980D01*
X007452Y005971D01*
X007425Y005958D01*
X007400Y005942D01*
X007377Y005923D01*
X007357Y005901D01*
X006757Y005901D02*
X006777Y005923D01*
X006800Y005942D01*
X006825Y005958D01*
X006852Y005971D01*
X006880Y005980D01*
X006910Y005986D01*
X006939Y005988D01*
X006969Y005986D01*
X006998Y005981D01*
X007027Y005972D01*
X007054Y005959D01*
X007079Y005943D01*
X007102Y005924D01*
X007122Y005902D01*
X007140Y005878D01*
X007154Y005852D01*
X007165Y005824D01*
X007173Y005795D01*
X007177Y005766D01*
X007177Y005736D01*
X007173Y005707D01*
X007165Y005678D01*
X007154Y005650D01*
X007140Y005624D01*
X007122Y005600D01*
X007102Y005578D01*
X007079Y005559D01*
X007054Y005543D01*
X007027Y005530D01*
X006998Y005521D01*
X006969Y005516D01*
X006939Y005514D01*
X006910Y005516D01*
X006880Y005522D01*
X006852Y005531D01*
X006825Y005544D01*
X006800Y005560D01*
X006777Y005579D01*
X006757Y005601D01*
D16*
X011254Y009531D02*
X011299Y009531D01*
X011299Y009704D01*
X011306Y009721D01*
X011316Y009736D01*
X011331Y009741D01*
X011341Y009746D01*
X011381Y009746D01*
X011399Y009731D01*
X011409Y009716D01*
X011411Y009711D01*
X011411Y009531D01*
X011456Y009531D01*
X011456Y009711D01*
X011469Y009729D01*
X011481Y009739D01*
X011501Y009749D01*
X011531Y009749D01*
X011549Y009741D01*
X011559Y009731D01*
X011566Y009719D01*
X011574Y009704D01*
X011574Y009529D01*
X011616Y009529D01*
X011616Y009701D01*
X011606Y009736D01*
X011591Y009761D01*
X011569Y009779D01*
X011536Y009791D01*
X011496Y009791D01*
X011476Y009784D01*
X011451Y009769D01*
X011441Y009759D01*
X011431Y009759D01*
X011419Y009766D01*
X011404Y009779D01*
X011386Y009789D01*
X011374Y009791D01*
X011339Y009791D01*
X011321Y009786D01*
X011301Y009776D01*
X011284Y009761D01*
X011271Y009746D01*
X011261Y009724D01*
X011256Y009709D01*
X011254Y009686D01*
X011254Y009531D01*
X011681Y009629D02*
X011681Y009686D01*
X011689Y009714D01*
X011699Y009734D01*
X011736Y009771D01*
X011764Y009786D01*
X011791Y009791D01*
X011834Y009791D01*
X011861Y009781D01*
X011889Y009764D01*
X011911Y009741D01*
X011926Y009719D01*
X011936Y009681D01*
X011936Y009634D01*
X011931Y009616D01*
X011924Y009596D01*
X011914Y009579D01*
X011896Y009561D01*
X011876Y009544D01*
X011856Y009534D01*
X011831Y009526D01*
X011821Y009526D01*
X011819Y009526D02*
X011786Y009526D01*
X011764Y009531D01*
X011739Y009541D01*
X011716Y009561D01*
X011699Y009586D01*
X011686Y009604D01*
X011681Y009629D01*
X011729Y009631D02*
X011729Y009684D01*
X011736Y009704D01*
X011749Y009724D01*
X011764Y009739D01*
X011779Y009746D01*
X011786Y009749D01*
X011826Y009749D01*
X011844Y009744D01*
X011864Y009731D01*
X011874Y009719D01*
X011886Y009699D01*
X011891Y009684D01*
X011891Y009634D01*
X011881Y009611D01*
X011869Y009591D01*
X011851Y009576D01*
X011834Y009566D01*
X011794Y009566D01*
X011801Y009564D02*
X011781Y009569D01*
X011761Y009579D01*
X011749Y009591D01*
X011736Y009609D01*
X011731Y009621D01*
X011729Y009631D01*
X011989Y009571D02*
X012039Y009571D01*
X012056Y009576D01*
X012079Y009586D01*
X012096Y009604D01*
X012109Y009621D01*
X012114Y009634D01*
X012116Y009639D01*
X012116Y009679D01*
X012106Y009694D01*
X012094Y009716D01*
X012071Y009731D01*
X012056Y009739D01*
X012031Y009744D01*
X011989Y009744D01*
X011989Y009786D01*
X012039Y009786D01*
X012061Y009784D01*
X012084Y009776D01*
X012109Y009761D01*
X012126Y009744D01*
X012139Y009729D01*
X012149Y009709D01*
X012156Y009689D01*
X012161Y009671D01*
X012161Y009641D01*
X012156Y009616D01*
X012144Y009591D01*
X012131Y009576D01*
X012116Y009561D01*
X012096Y009546D01*
X012079Y009539D01*
X012059Y009534D01*
X012031Y009529D01*
X011989Y009529D01*
X011989Y009571D01*
X012004Y009556D02*
X012059Y009561D01*
X012096Y009581D01*
X012126Y009624D01*
X012129Y009689D01*
X012104Y009724D01*
X012059Y009756D01*
X012004Y009759D01*
X012004Y009774D01*
X012059Y009771D01*
X012106Y009744D01*
X012144Y009694D01*
X012144Y009626D01*
X012116Y009579D01*
X012066Y009546D01*
X011999Y009541D01*
X012031Y009529D02*
X012034Y009529D01*
X012239Y009544D02*
X012239Y009561D01*
X012244Y009571D01*
X012256Y009584D01*
X012279Y009584D01*
X012289Y009576D01*
X012296Y009566D01*
X012296Y009546D01*
X012294Y009539D01*
X012284Y009529D01*
X012274Y009526D01*
X012256Y009544D01*
X012254Y009561D01*
X012266Y009571D01*
X012279Y009561D01*
X012276Y009546D01*
X012269Y009554D01*
X012269Y009526D02*
X012259Y009526D01*
X012251Y009529D01*
X012241Y009536D01*
X012239Y009544D01*
X012384Y009531D02*
X012384Y009671D01*
X012389Y009696D01*
X012396Y009716D01*
X012411Y009744D01*
X012431Y009764D01*
X012461Y009781D01*
X012481Y009789D01*
X012496Y009791D01*
X012536Y009791D01*
X012561Y009784D01*
X012584Y009774D01*
X012606Y009754D01*
X012624Y009731D01*
X012634Y009709D01*
X012641Y009684D01*
X012641Y009634D01*
X012629Y009596D01*
X012609Y009566D01*
X012591Y009549D01*
X012569Y009539D01*
X012539Y009526D01*
X012496Y009526D01*
X012449Y009541D01*
X012444Y009544D01*
X012436Y009544D01*
X012426Y009531D01*
X012419Y009531D01*
X012414Y009531D02*
X012384Y009531D01*
X012396Y009539D02*
X012401Y009676D01*
X012424Y009736D01*
X012454Y009759D01*
X012499Y009774D01*
X012544Y009774D01*
X012584Y009756D01*
X012619Y009709D01*
X012626Y009676D01*
X012624Y009624D01*
X012584Y009561D01*
X012536Y009539D01*
X012494Y009544D01*
X012451Y009561D01*
X012431Y009554D01*
X012416Y009544D01*
X012416Y009554D01*
X012446Y009571D01*
X012411Y009561D01*
X012421Y009584D01*
X012411Y009584D01*
X012419Y009684D01*
X012446Y009741D01*
X012504Y009761D01*
X012561Y009754D01*
X012601Y009716D01*
X012611Y009641D01*
X012596Y009599D01*
X012566Y009564D01*
X012494Y009549D01*
X012489Y009564D02*
X012469Y009571D01*
X012451Y009584D01*
X012449Y009586D01*
X012441Y009579D01*
X012434Y009584D02*
X012431Y009586D01*
X012429Y009591D01*
X012431Y009686D01*
X012436Y009699D01*
X012446Y009719D01*
X012464Y009736D01*
X012484Y009746D01*
X012491Y009749D01*
X012534Y009749D01*
X012556Y009741D01*
X012574Y009729D01*
X012586Y009711D01*
X012596Y009694D01*
X012596Y009624D01*
X012586Y009609D01*
X012569Y009584D01*
X012549Y009569D01*
X012531Y009564D01*
X012489Y009564D01*
X012699Y009574D02*
X012699Y009616D01*
X012706Y009636D01*
X012724Y009651D01*
X012831Y009699D01*
X012841Y009709D01*
X012844Y009714D01*
X012844Y009731D01*
X012839Y009741D01*
X012836Y009744D01*
X012829Y009746D01*
X012711Y009746D01*
X012711Y009786D01*
X012824Y009786D01*
X012846Y009781D01*
X012861Y009774D01*
X012876Y009759D01*
X012886Y009744D01*
X012889Y009726D01*
X012889Y009711D01*
X012881Y009694D01*
X012869Y009676D01*
X012831Y009651D01*
X012754Y009619D01*
X012744Y009606D01*
X012739Y009594D01*
X012749Y009581D01*
X012761Y009571D01*
X012889Y009571D01*
X012889Y009531D01*
X012774Y009531D01*
X012734Y009539D01*
X012714Y009551D01*
X012699Y009574D01*
X012714Y009576D02*
X012721Y009626D01*
X012744Y009649D01*
X012849Y009694D01*
X012861Y009714D01*
X012851Y009744D01*
X012836Y009759D01*
X012726Y009761D01*
X012724Y009771D01*
X012836Y009769D01*
X012866Y009754D01*
X012871Y009706D01*
X012846Y009676D01*
X012741Y009629D01*
X012731Y009599D01*
X012726Y009579D01*
X012751Y009561D01*
X012761Y009556D02*
X012876Y009556D01*
X012881Y009554D01*
X012854Y009551D01*
X012879Y009544D02*
X012751Y009546D01*
X012761Y009556D01*
X012744Y009546D02*
X012714Y009576D01*
X012886Y009534D02*
X012889Y009531D01*
X012966Y009576D02*
X012984Y009556D01*
X013001Y009544D01*
X013021Y009534D01*
X013044Y009526D01*
X013094Y009526D01*
X013114Y009531D01*
X013139Y009541D01*
X013159Y009556D01*
X013176Y009576D01*
X013194Y009606D01*
X013201Y009631D01*
X013204Y009656D01*
X013199Y009686D01*
X013191Y009714D01*
X013166Y009751D01*
X013141Y009771D01*
X013114Y009786D01*
X013096Y009791D01*
X013049Y009791D01*
X013021Y009784D01*
X012999Y009771D01*
X012981Y009756D01*
X012964Y009736D01*
X012949Y009714D01*
X013119Y009619D01*
X013116Y009619D02*
X013136Y009649D01*
X013021Y009716D01*
X013024Y009729D01*
X013031Y009741D01*
X013044Y009749D01*
X013096Y009749D01*
X013119Y009736D01*
X013139Y009716D01*
X013146Y009704D01*
X013154Y009694D01*
X013156Y009664D01*
X013156Y009641D01*
X013146Y009616D01*
X013134Y009591D01*
X013114Y009579D01*
X013099Y009571D01*
X013091Y009566D01*
X013051Y009566D01*
X013036Y009574D01*
X013019Y009586D01*
X013004Y009601D01*
X012994Y009619D01*
X012986Y009649D01*
X012941Y009641D01*
X012951Y009609D01*
X012966Y009576D01*
X012984Y009576D02*
X012959Y009634D01*
X012976Y009631D02*
X012991Y009589D01*
X013039Y009559D01*
X013054Y009551D01*
X013096Y009551D01*
X013144Y009576D01*
X013171Y009639D01*
X013166Y009699D01*
X013146Y009734D01*
X013104Y009759D01*
X013051Y009761D01*
X013024Y009749D01*
X013011Y009731D01*
X013006Y009714D01*
X013119Y009649D01*
X013116Y009634D01*
X012969Y009719D01*
X013004Y009759D01*
X012991Y009719D01*
X013004Y009741D02*
X013044Y009779D01*
X013061Y009779D01*
X013099Y009779D02*
X013161Y009741D01*
X013179Y009699D01*
X013186Y009631D01*
X013156Y009569D01*
X013096Y009539D01*
X013041Y009539D01*
X012984Y009576D01*
X013011Y009764D02*
X013099Y009776D01*
X013251Y009789D02*
X013251Y009746D01*
X013321Y009746D01*
X013329Y009744D01*
X013329Y009606D01*
X013321Y009591D01*
X013314Y009584D01*
X013304Y009576D01*
X013289Y009569D01*
X013254Y009569D01*
X013254Y009529D01*
X013279Y009529D01*
X013284Y009529D02*
X013266Y009541D01*
X013304Y009549D01*
X013336Y009559D01*
X013351Y009586D01*
X013364Y009616D01*
X013364Y009841D01*
X013344Y009844D01*
X013346Y009614D01*
X013324Y009569D01*
X013264Y009551D01*
X013284Y009529D02*
X013304Y009534D01*
X013326Y009539D01*
X013349Y009551D01*
X013364Y009574D01*
X013376Y009609D01*
X013376Y009856D01*
X013329Y009856D01*
X013329Y009796D01*
X013331Y009789D01*
X013251Y009789D01*
X013264Y009774D02*
X013334Y009774D01*
X013336Y009759D02*
X013264Y009756D01*
X013264Y009774D01*
X013451Y009904D02*
X013451Y009531D01*
X013496Y009531D01*
X013496Y009534D02*
X013496Y009904D01*
X013451Y009904D01*
X013464Y009891D02*
X013464Y009541D01*
X013481Y009541D02*
X013484Y009891D01*
X013464Y009891D01*
X013574Y009864D02*
X013576Y009874D01*
X013586Y009884D01*
X013594Y009889D01*
X013609Y009889D01*
X013619Y009881D01*
X013626Y009869D01*
X013626Y009854D01*
X013621Y009844D01*
X013611Y009834D01*
X013601Y009834D01*
X013591Y009864D01*
X013601Y009874D01*
X013611Y009866D01*
X013609Y009849D01*
X013601Y009836D02*
X013594Y009834D01*
X013584Y009839D01*
X013579Y009846D01*
X013574Y009856D01*
X013574Y009864D01*
X013579Y009786D02*
X013624Y009786D01*
X013624Y009531D01*
X013579Y009531D01*
X013579Y009786D01*
X013596Y009774D02*
X013591Y009544D01*
X013606Y009544D01*
X013611Y009774D01*
X013711Y009719D02*
X013726Y009741D01*
X013746Y009764D01*
X013766Y009776D01*
X013794Y009789D01*
X013809Y009791D01*
X013851Y009791D01*
X013884Y009781D01*
X013906Y009769D01*
X013924Y009751D01*
X013939Y009731D01*
X013949Y009714D01*
X013956Y009681D01*
X013956Y009636D01*
X013951Y009616D01*
X013941Y009591D01*
X013926Y009569D01*
X013904Y009546D01*
X013854Y009526D01*
X013811Y009526D01*
X013764Y009541D01*
X013746Y009546D01*
X013746Y009501D01*
X013761Y009484D01*
X013781Y009466D01*
X013801Y009456D01*
X013821Y009451D01*
X013851Y009451D01*
X013901Y009464D01*
X013911Y009424D01*
X013849Y009406D01*
X013819Y009406D01*
X013784Y009411D01*
X013761Y009424D01*
X013736Y009441D01*
X013716Y009466D01*
X013706Y009491D01*
X013699Y009519D01*
X013699Y009676D01*
X013704Y009696D01*
X013711Y009719D01*
X013719Y009696D02*
X013754Y009751D01*
X013796Y009771D01*
X013841Y009776D01*
X013894Y009756D01*
X013936Y009706D01*
X013939Y009631D01*
X013926Y009599D01*
X013894Y009554D01*
X013826Y009534D01*
X013746Y009556D01*
X013746Y009579D01*
X013811Y009549D01*
X013869Y009556D01*
X013909Y009591D01*
X013924Y009644D01*
X013916Y009711D01*
X013886Y009746D01*
X013851Y009761D01*
X013799Y009756D01*
X013759Y009744D01*
X013734Y009696D01*
X013734Y009689D02*
X013731Y009494D01*
X013779Y009444D01*
X013836Y009436D01*
X013891Y009449D01*
X013904Y009439D02*
X013836Y009421D01*
X013776Y009429D01*
X013734Y009469D01*
X013716Y009506D01*
X013716Y009686D01*
X013734Y009689D01*
X013746Y009689D02*
X013746Y009596D01*
X013741Y009599D02*
X013769Y009581D01*
X013801Y009569D01*
X013809Y009566D01*
X013851Y009566D01*
X013874Y009576D01*
X013891Y009596D01*
X013909Y009629D01*
X013911Y009694D01*
X013909Y009691D02*
X013901Y009706D01*
X013889Y009721D01*
X013876Y009734D01*
X013859Y009746D01*
X013841Y009749D01*
X013804Y009749D01*
X013784Y009739D01*
X013764Y009724D01*
X013751Y009704D01*
X013746Y009689D01*
D17*
X011596Y009701D02*
X011594Y009551D01*
X011596Y009701D02*
X011561Y009756D01*
X011524Y009771D01*
X011471Y009756D01*
X011439Y009731D01*
X011434Y009544D01*
X011274Y009551D02*
X011276Y009706D01*
X011304Y009751D01*
X011354Y009766D01*
X011391Y009764D01*
X011424Y009736D01*
M02*
