G75*
G70*
%OFA0B0*%
%FSLAX24Y24*%
%IPPOS*%
%LPD*%
%AMOC8*
5,1,8,0,0,1.08239X$1,22.5*
%
%ADD10C,0.0050*%
%ADD11C,0.0004*%
%ADD12C,0.0433*%
%ADD13C,0.0500*%
%ADD14C,0.0709*%
%ADD15C,0.0984*%
%ADD16C,0.0240*%
%ADD17C,0.0080*%
%ADD18C,0.0220*%
%ADD19C,0.0100*%
%ADD20C,0.0200*%
%ADD21C,0.0240*%
%ADD22C,0.0390*%
%ADD23C,0.0300*%
%ADD24C,0.0280*%
D10*
X000929Y000534D02*
X015972Y000534D01*
X015972Y000562D01*
X015976Y000590D01*
X015983Y000617D01*
X015994Y000643D01*
X016008Y000667D01*
X016025Y000689D01*
X016045Y000709D01*
X016067Y000726D01*
X016091Y000740D01*
X016117Y000751D01*
X016144Y000758D01*
X016172Y000762D01*
X016322Y000762D01*
X016350Y000758D01*
X016377Y000751D01*
X016403Y000740D01*
X016427Y000726D01*
X016449Y000709D01*
X016469Y000689D01*
X016486Y000667D01*
X016500Y000643D01*
X016511Y000617D01*
X016518Y000590D01*
X016522Y000562D01*
X016522Y000534D01*
X021709Y000534D01*
X021709Y000562D01*
X021713Y000590D01*
X021720Y000617D01*
X021731Y000643D01*
X021745Y000667D01*
X021762Y000689D01*
X021782Y000709D01*
X021804Y000726D01*
X021828Y000740D01*
X021854Y000751D01*
X021881Y000758D01*
X021909Y000762D01*
X022059Y000762D01*
X022088Y000758D01*
X022115Y000751D01*
X022141Y000741D01*
X022166Y000727D01*
X022189Y000710D01*
X022209Y000690D01*
X022227Y000668D01*
X022241Y000643D01*
X022253Y000617D01*
X022260Y000590D01*
X022264Y000562D01*
X022265Y000534D01*
X022264Y000534D02*
X024328Y000534D01*
X024327Y000533D02*
X024374Y000530D01*
X024420Y000531D01*
X024466Y000536D01*
X024512Y000544D01*
X024556Y000557D01*
X024600Y000573D01*
X024642Y000592D01*
X024682Y000615D01*
X024720Y000641D01*
X024756Y000671D01*
X024790Y000703D01*
X024821Y000737D01*
X024848Y000775D01*
X024873Y000814D01*
X024894Y000855D01*
X024912Y000898D01*
X024926Y000942D01*
X024936Y000987D01*
X024943Y001033D01*
X024943Y001034D02*
X024943Y017752D01*
X024943Y017753D02*
X024936Y017798D01*
X024926Y017844D01*
X024911Y017888D01*
X024894Y017930D01*
X024872Y017971D01*
X024848Y018011D01*
X024820Y018048D01*
X024789Y018082D01*
X024756Y018114D01*
X024720Y018143D01*
X024682Y018170D01*
X024641Y018192D01*
X024599Y018212D01*
X024556Y018228D01*
X024511Y018240D01*
X024466Y018248D01*
X024420Y018253D01*
X024374Y018254D01*
X024327Y018251D01*
X024328Y018250D02*
X000929Y018250D01*
X000930Y018250D02*
X000889Y018243D01*
X000849Y018233D01*
X000809Y018219D01*
X000772Y018201D01*
X000736Y018180D01*
X000702Y018156D01*
X000671Y018129D01*
X000642Y018099D01*
X000616Y018066D01*
X000593Y018032D01*
X000574Y017995D01*
X000558Y017956D01*
X000546Y017917D01*
X000537Y017876D01*
X000532Y017835D01*
X000531Y017793D01*
X000534Y017752D01*
X000534Y001034D01*
X000531Y000993D01*
X000532Y000951D01*
X000537Y000910D01*
X000545Y000869D01*
X000558Y000829D01*
X000574Y000791D01*
X000593Y000754D01*
X000616Y000719D01*
X000642Y000686D01*
X000670Y000656D01*
X000702Y000629D01*
X000736Y000604D01*
X000772Y000583D01*
X000809Y000565D01*
X000848Y000551D01*
X000889Y000541D01*
X000930Y000534D01*
X009437Y007981D02*
X009399Y008165D01*
X009352Y008348D01*
X009296Y008528D01*
X009232Y008705D01*
X009159Y008878D01*
X009077Y009048D01*
X008988Y009214D01*
X008890Y009375D01*
X008785Y009532D01*
X008672Y009683D01*
X008552Y009828D01*
X008425Y009967D01*
X008291Y010100D01*
X008151Y010226D01*
X008005Y010345D01*
X007854Y010457D01*
X007697Y010562D01*
X007535Y010659D01*
X007369Y010747D01*
X007199Y010828D01*
X007025Y010900D01*
X006847Y010964D01*
X006667Y011019D01*
X006484Y011065D01*
X004578Y011065D01*
X004548Y011067D01*
X004518Y011072D01*
X004489Y011081D01*
X004462Y011094D01*
X004436Y011109D01*
X004412Y011128D01*
X004391Y011149D01*
X004372Y011173D01*
X004357Y011199D01*
X004344Y011226D01*
X004335Y011255D01*
X004330Y011285D01*
X004328Y011315D01*
X004328Y013595D01*
X004326Y013649D01*
X004320Y013702D01*
X004311Y013754D01*
X004298Y013806D01*
X004281Y013857D01*
X004260Y013907D01*
X004236Y013954D01*
X004209Y014000D01*
X004178Y014044D01*
X004145Y014086D01*
X004108Y014125D01*
X004069Y014162D01*
X004027Y014195D01*
X003983Y014226D01*
X003937Y014253D01*
X003890Y014277D01*
X003840Y014298D01*
X003789Y014315D01*
X003737Y014328D01*
X003685Y014337D01*
X003632Y014343D01*
X003578Y014345D01*
X002387Y014345D01*
X002341Y014350D01*
X002296Y014359D01*
X002251Y014371D01*
X002207Y014386D01*
X002165Y014405D01*
X002124Y014428D01*
X002085Y014453D01*
X002048Y014481D01*
X002014Y014512D01*
X001982Y014546D01*
X001953Y014582D01*
X001927Y014621D01*
X001903Y014661D01*
X001884Y014703D01*
X001867Y014746D01*
X001854Y014791D01*
X001844Y014836D01*
X001838Y014882D01*
X001836Y014928D01*
X001837Y014975D01*
X001837Y016756D01*
X001839Y016801D01*
X001845Y016847D01*
X001854Y016891D01*
X001867Y016935D01*
X001883Y016977D01*
X001903Y017018D01*
X001927Y017057D01*
X001953Y017094D01*
X001982Y017129D01*
X002014Y017161D01*
X002049Y017190D01*
X002086Y017216D01*
X002125Y017240D01*
X002166Y017260D01*
X002208Y017276D01*
X002252Y017289D01*
X002296Y017298D01*
X002342Y017304D01*
X002387Y017306D01*
X005733Y017306D01*
X005733Y016215D01*
X005078Y016215D01*
X005055Y016217D01*
X005032Y016222D01*
X005010Y016231D01*
X004990Y016244D01*
X004972Y016259D01*
X004957Y016277D01*
X004944Y016297D01*
X004935Y016319D01*
X004930Y016342D01*
X004928Y016365D01*
X004928Y016665D01*
X004926Y016688D01*
X004921Y016711D01*
X004912Y016733D01*
X004899Y016753D01*
X004884Y016771D01*
X004866Y016786D01*
X004846Y016799D01*
X004824Y016808D01*
X004801Y016813D01*
X004778Y016815D01*
X002928Y016815D01*
X002883Y016813D01*
X002837Y016807D01*
X002793Y016798D01*
X002749Y016785D01*
X002707Y016769D01*
X002666Y016749D01*
X002627Y016725D01*
X002590Y016699D01*
X002555Y016670D01*
X002523Y016638D01*
X002494Y016603D01*
X002468Y016566D01*
X002444Y016527D01*
X002424Y016486D01*
X002408Y016444D01*
X002395Y016400D01*
X002386Y016356D01*
X002380Y016310D01*
X002378Y016265D01*
X002378Y015495D01*
X002380Y015450D01*
X002386Y015404D01*
X002395Y015360D01*
X002408Y015316D01*
X002424Y015274D01*
X002444Y015233D01*
X002468Y015194D01*
X002494Y015157D01*
X002523Y015122D01*
X002555Y015090D01*
X002590Y015061D01*
X002627Y015035D01*
X002666Y015011D01*
X002707Y014991D01*
X002749Y014975D01*
X002793Y014962D01*
X002837Y014953D01*
X002883Y014947D01*
X002928Y014945D01*
X004178Y014945D01*
X004232Y014943D01*
X004285Y014937D01*
X004337Y014928D01*
X004389Y014915D01*
X004440Y014898D01*
X004490Y014877D01*
X004537Y014853D01*
X004583Y014826D01*
X004627Y014795D01*
X004669Y014762D01*
X004708Y014725D01*
X004745Y014686D01*
X004778Y014644D01*
X004809Y014600D01*
X004836Y014554D01*
X004860Y014507D01*
X004881Y014457D01*
X004898Y014406D01*
X004911Y014354D01*
X004920Y014302D01*
X004926Y014249D01*
X004928Y014195D01*
X004928Y011915D01*
X004930Y011885D01*
X004935Y011855D01*
X004944Y011826D01*
X004957Y011799D01*
X004972Y011773D01*
X004991Y011749D01*
X005012Y011728D01*
X005036Y011709D01*
X005062Y011694D01*
X005089Y011681D01*
X005118Y011672D01*
X005148Y011667D01*
X005178Y011665D01*
X006878Y011665D01*
X007228Y012515D02*
X006378Y012515D01*
X006348Y012517D01*
X006318Y012522D01*
X006289Y012531D01*
X006262Y012544D01*
X006236Y012559D01*
X006212Y012578D01*
X006191Y012599D01*
X006172Y012623D01*
X006157Y012649D01*
X006144Y012676D01*
X006135Y012705D01*
X006130Y012735D01*
X006128Y012765D01*
X006128Y013765D01*
X006130Y013795D01*
X006135Y013825D01*
X006144Y013854D01*
X006157Y013881D01*
X006172Y013907D01*
X006191Y013931D01*
X006212Y013952D01*
X006236Y013971D01*
X006262Y013986D01*
X006289Y013999D01*
X006318Y014008D01*
X006348Y014013D01*
X006378Y014015D01*
X006978Y014015D01*
X007008Y014017D01*
X007038Y014022D01*
X007067Y014031D01*
X007094Y014044D01*
X007120Y014059D01*
X007144Y014078D01*
X007165Y014099D01*
X007184Y014123D01*
X007199Y014149D01*
X007212Y014176D01*
X007221Y014205D01*
X007226Y014235D01*
X007228Y014265D01*
X007228Y015965D01*
X007226Y015995D01*
X007221Y016025D01*
X007212Y016054D01*
X007199Y016081D01*
X007184Y016107D01*
X007165Y016131D01*
X007144Y016152D01*
X007120Y016171D01*
X007094Y016186D01*
X007067Y016199D01*
X007038Y016208D01*
X007008Y016213D01*
X006978Y016215D01*
X006521Y016215D01*
X006521Y017306D01*
X007568Y017306D01*
X007569Y017306D02*
X007599Y017304D01*
X007628Y017299D01*
X007657Y017291D01*
X007684Y017279D01*
X007710Y017263D01*
X007734Y017245D01*
X007755Y017224D01*
X007774Y017201D01*
X007790Y017175D01*
X007802Y017148D01*
X007811Y017119D01*
X007817Y017090D01*
X007819Y017060D01*
X007818Y017060D02*
X007818Y013156D01*
X010657Y011256D02*
X016908Y011256D01*
X016908Y010259D01*
X010328Y010259D01*
X009928Y008965D02*
X010960Y008965D01*
X010960Y007981D01*
X009437Y007981D01*
X011747Y008965D02*
X011747Y002142D01*
X011747Y002141D02*
X011748Y002112D01*
X011752Y002083D01*
X011760Y002054D01*
X011771Y002027D01*
X011786Y002001D01*
X011803Y001977D01*
X011823Y001955D01*
X011846Y001936D01*
X011871Y001920D01*
X011897Y001907D01*
X011925Y001897D01*
X011954Y001891D01*
X011984Y001888D01*
X011983Y001888D02*
X015972Y001888D01*
X015972Y001860D01*
X015976Y001832D01*
X015983Y001805D01*
X015994Y001779D01*
X016008Y001755D01*
X016025Y001733D01*
X016045Y001713D01*
X016067Y001696D01*
X016091Y001682D01*
X016117Y001671D01*
X016144Y001664D01*
X016172Y001660D01*
X016322Y001660D01*
X016350Y001664D01*
X016377Y001671D01*
X016403Y001682D01*
X016427Y001696D01*
X016449Y001713D01*
X016469Y001733D01*
X016486Y001755D01*
X016500Y001779D01*
X016511Y001805D01*
X016518Y001832D01*
X016522Y001860D01*
X016522Y001888D01*
X021709Y001888D01*
X021709Y001860D01*
X021713Y001832D01*
X021720Y001805D01*
X021731Y001779D01*
X021745Y001755D01*
X021762Y001733D01*
X021782Y001713D01*
X021804Y001696D01*
X021828Y001682D01*
X021854Y001671D01*
X021881Y001664D01*
X021909Y001660D01*
X022059Y001660D01*
X022088Y001664D01*
X022115Y001671D01*
X022141Y001681D01*
X022166Y001695D01*
X022189Y001712D01*
X022209Y001732D01*
X022227Y001754D01*
X022241Y001779D01*
X022253Y001805D01*
X022260Y001832D01*
X022264Y001860D01*
X022265Y001888D01*
X022264Y001888D02*
X023464Y001888D01*
X023497Y001890D01*
X023530Y001896D01*
X023562Y001905D01*
X023592Y001918D01*
X023621Y001935D01*
X023648Y001954D01*
X023673Y001976D01*
X023695Y002001D01*
X023714Y002028D01*
X023730Y002058D01*
X023742Y002088D01*
X023751Y002120D01*
X023756Y002153D01*
X023758Y002186D01*
X023758Y006464D01*
X021278Y006464D01*
X021278Y005715D01*
X021282Y005676D01*
X021290Y005637D01*
X021301Y005600D01*
X021315Y005563D01*
X021333Y005528D01*
X021355Y005495D01*
X021379Y005464D01*
X021406Y005435D01*
X021435Y005409D01*
X021467Y005386D01*
X021500Y005365D01*
X021536Y005348D01*
X021573Y005334D01*
X021611Y005324D01*
X021649Y005317D01*
X021689Y005314D01*
X021728Y005315D01*
X022828Y005315D01*
X022827Y005316D02*
X022863Y005311D01*
X022899Y005303D01*
X022933Y005291D01*
X022967Y005276D01*
X022998Y005258D01*
X023028Y005237D01*
X023055Y005213D01*
X023080Y005186D01*
X023102Y005157D01*
X023121Y005126D01*
X023137Y005094D01*
X023150Y005059D01*
X023160Y005024D01*
X023166Y004988D01*
X023168Y004952D01*
X023167Y004916D01*
X023167Y004915D02*
X023167Y002977D01*
X023165Y002944D01*
X023160Y002912D01*
X023151Y002880D01*
X023138Y002849D01*
X023122Y002821D01*
X023103Y002794D01*
X023081Y002769D01*
X023056Y002747D01*
X023029Y002728D01*
X023001Y002712D01*
X022970Y002699D01*
X022938Y002690D01*
X022906Y002685D01*
X022873Y002683D01*
X021424Y002565D02*
X016564Y002479D01*
X016534Y002481D01*
X016504Y002486D01*
X016475Y002495D01*
X016448Y002508D01*
X016422Y002523D01*
X016398Y002542D01*
X016377Y002563D01*
X016358Y002587D01*
X016343Y002613D01*
X016330Y002640D01*
X016321Y002669D01*
X016316Y002699D01*
X016314Y002729D01*
X016314Y003798D01*
X015645Y003798D01*
X015622Y003799D01*
X015599Y003796D01*
X015576Y003790D01*
X015555Y003780D01*
X015535Y003768D01*
X015517Y003753D01*
X015502Y003736D01*
X015489Y003716D01*
X015479Y003695D01*
X015472Y003673D01*
X015469Y003650D01*
X015468Y003649D02*
X015467Y003616D01*
X015462Y003583D01*
X015453Y003551D01*
X015442Y003520D01*
X015427Y003490D01*
X015409Y003462D01*
X015388Y003436D01*
X015365Y003412D01*
X015340Y003391D01*
X015312Y003372D01*
X015282Y003357D01*
X015251Y003345D01*
X015219Y003336D01*
X015186Y003330D01*
X015153Y003328D01*
X014493Y003328D01*
X014436Y003302D01*
X014377Y003280D01*
X014317Y003262D01*
X014255Y003248D01*
X014193Y003237D01*
X014131Y003230D01*
X014068Y003226D01*
X014005Y003227D01*
X013942Y003231D01*
X013880Y003239D01*
X013818Y003251D01*
X013757Y003267D01*
X013697Y003286D01*
X013639Y003309D01*
X013582Y003335D01*
X013526Y003365D01*
X013473Y003398D01*
X013421Y003434D01*
X013372Y003473D01*
X013326Y003515D01*
X013281Y003560D01*
X013240Y003608D01*
X013202Y003658D01*
X013167Y003710D01*
X013135Y003764D01*
X013106Y003820D01*
X013081Y003878D01*
X013059Y003937D01*
X013041Y003997D01*
X013027Y004058D01*
X013016Y004120D01*
X013009Y004183D01*
X013006Y004246D01*
X013007Y004308D01*
X013011Y004371D01*
X013020Y004434D01*
X013032Y004495D01*
X013048Y004556D01*
X013067Y004616D01*
X013090Y004675D01*
X013117Y004732D01*
X013147Y004787D01*
X013180Y004840D01*
X013216Y004892D01*
X013256Y004941D01*
X013298Y004987D01*
X013343Y005031D01*
X013391Y005072D01*
X013441Y005110D01*
X013928Y005738D02*
X015028Y005738D01*
X015028Y005288D01*
X015029Y005288D02*
X015028Y005264D01*
X015031Y005241D01*
X015038Y005219D01*
X015047Y005197D01*
X015059Y005177D01*
X015075Y005160D01*
X015092Y005144D01*
X015112Y005131D01*
X015133Y005121D01*
X015155Y005114D01*
X015178Y005111D01*
X015178Y005110D02*
X015318Y005110D01*
X015341Y005106D01*
X015363Y005100D01*
X015384Y005091D01*
X015403Y005078D01*
X015421Y005063D01*
X015436Y005046D01*
X015448Y005027D01*
X015458Y005006D01*
X015464Y004984D01*
X015468Y004961D01*
X015468Y004938D01*
X015468Y004876D01*
X015469Y004876D02*
X015468Y004853D01*
X015471Y004830D01*
X015477Y004808D01*
X015486Y004787D01*
X015498Y004767D01*
X015512Y004749D01*
X015529Y004733D01*
X015548Y004720D01*
X015569Y004710D01*
X015591Y004703D01*
X015614Y004699D01*
X015613Y004698D02*
X016314Y004698D01*
X016314Y006881D01*
X016314Y006880D02*
X016310Y006913D01*
X016303Y006944D01*
X016293Y006975D01*
X016279Y007005D01*
X016262Y007032D01*
X016242Y007058D01*
X016219Y007081D01*
X016193Y007101D01*
X016166Y007119D01*
X016137Y007133D01*
X016106Y007144D01*
X016074Y007152D01*
X016042Y007155D01*
X016010Y007156D01*
X016009Y007156D02*
X015014Y007156D01*
X014979Y007160D01*
X014944Y007169D01*
X014910Y007180D01*
X014878Y007195D01*
X014847Y007214D01*
X014819Y007236D01*
X014793Y007260D01*
X014770Y007287D01*
X014749Y007316D01*
X014732Y007348D01*
X014718Y007381D01*
X014708Y007415D01*
X014701Y007450D01*
X014698Y007485D01*
X014699Y007521D01*
X014699Y008765D01*
X014700Y008765D02*
X014697Y008792D01*
X014690Y008819D01*
X014680Y008845D01*
X014666Y008869D01*
X014650Y008891D01*
X014630Y008911D01*
X014609Y008928D01*
X014585Y008942D01*
X014560Y008953D01*
X014533Y008960D01*
X014506Y008964D01*
X014478Y008965D01*
X011747Y008965D01*
X013928Y005738D02*
X013910Y005678D01*
X013888Y005619D01*
X013862Y005562D01*
X013833Y005506D01*
X013801Y005453D01*
X013765Y005401D01*
X013727Y005351D01*
X013686Y005304D01*
X013641Y005259D01*
X013595Y005218D01*
X013545Y005179D01*
X013494Y005143D01*
X013440Y005110D01*
X010657Y011256D02*
X010530Y011434D01*
X010394Y011605D01*
X010250Y011770D01*
X010099Y011928D01*
X009940Y012078D01*
X009774Y012221D01*
X009601Y012356D01*
X009422Y012482D01*
X009238Y012599D01*
X009047Y012707D01*
X008852Y012806D01*
X008653Y012896D01*
X008449Y012976D01*
X008242Y013046D01*
X008031Y013106D01*
X007818Y013156D01*
X003728Y015815D02*
X003728Y015965D01*
X003726Y016004D01*
X003720Y016043D01*
X003711Y016081D01*
X003698Y016118D01*
X003681Y016154D01*
X003661Y016187D01*
X003637Y016219D01*
X003611Y016248D01*
X003582Y016274D01*
X003550Y016298D01*
X003517Y016318D01*
X003481Y016335D01*
X003444Y016348D01*
X003406Y016357D01*
X003367Y016363D01*
X003328Y016365D01*
X003289Y016363D01*
X003250Y016357D01*
X003212Y016348D01*
X003175Y016335D01*
X003139Y016318D01*
X003106Y016298D01*
X003074Y016274D01*
X003045Y016248D01*
X003019Y016219D01*
X002995Y016187D01*
X002975Y016154D01*
X002958Y016118D01*
X002945Y016081D01*
X002936Y016043D01*
X002930Y016004D01*
X002928Y015965D01*
X002928Y015815D01*
X002930Y015776D01*
X002936Y015737D01*
X002945Y015699D01*
X002958Y015662D01*
X002975Y015626D01*
X002995Y015593D01*
X003019Y015561D01*
X003045Y015532D01*
X003074Y015506D01*
X003106Y015482D01*
X003139Y015462D01*
X003175Y015445D01*
X003212Y015432D01*
X003250Y015423D01*
X003289Y015417D01*
X003328Y015415D01*
X003367Y015417D01*
X003406Y015423D01*
X003444Y015432D01*
X003481Y015445D01*
X003517Y015462D01*
X003550Y015482D01*
X003582Y015506D01*
X003611Y015532D01*
X003637Y015561D01*
X003661Y015593D01*
X003681Y015626D01*
X003698Y015662D01*
X003711Y015699D01*
X003720Y015737D01*
X003726Y015776D01*
X003728Y015815D01*
X007228Y012515D02*
X007443Y012468D01*
X007655Y012410D01*
X007864Y012342D01*
X008070Y012264D01*
X008271Y012176D01*
X008469Y012079D01*
X008661Y011972D01*
X008847Y011856D01*
X009028Y011730D01*
X009203Y011597D01*
X009371Y011455D01*
X009532Y011305D01*
X009685Y011147D01*
X009831Y010983D01*
X009968Y010811D01*
X010097Y010633D01*
X010217Y010449D01*
X010328Y010259D01*
X009928Y008965D02*
X009877Y009137D01*
X009818Y009307D01*
X009751Y009474D01*
X009675Y009637D01*
X009592Y009797D01*
X009501Y009952D01*
X009403Y010102D01*
X009298Y010248D01*
X009185Y010388D01*
X009066Y010523D01*
X008941Y010652D01*
X008809Y010774D01*
X008671Y010890D01*
X008528Y010999D01*
X008380Y011101D01*
X008227Y011195D01*
X008070Y011282D01*
X007909Y011362D01*
X007744Y011433D01*
X007576Y011496D01*
X007404Y011551D01*
X007231Y011598D01*
X007055Y011636D01*
X006878Y011665D01*
X017695Y011256D02*
X017695Y010259D01*
X021028Y010259D01*
X021058Y010258D01*
X021087Y010253D01*
X021116Y010244D01*
X021143Y010232D01*
X021169Y010217D01*
X021192Y010199D01*
X021214Y010178D01*
X021232Y010155D01*
X021248Y010130D01*
X021261Y010103D01*
X021270Y010074D01*
X021276Y010045D01*
X021278Y010015D01*
X021278Y007252D01*
X023758Y007252D01*
X023758Y010915D01*
X023757Y010916D02*
X023756Y010951D01*
X023751Y010985D01*
X023742Y011019D01*
X023730Y011052D01*
X023715Y011084D01*
X023696Y011114D01*
X023674Y011141D01*
X023650Y011166D01*
X023623Y011189D01*
X023594Y011208D01*
X023563Y011225D01*
X023531Y011238D01*
X023497Y011248D01*
X023462Y011254D01*
X023427Y011256D01*
X023428Y011256D02*
X017695Y011256D01*
X021424Y002565D02*
X022150Y002608D01*
X022873Y002683D01*
D11*
X020956Y002742D02*
X020956Y002986D01*
X020955Y002986D02*
X020953Y003006D01*
X020948Y003025D01*
X020939Y003043D01*
X020927Y003059D01*
X020912Y003072D01*
X020895Y003083D01*
X020877Y003090D01*
X020857Y003094D01*
X020837Y003094D01*
X020817Y003090D01*
X020799Y003083D01*
X020782Y003072D01*
X020767Y003059D01*
X020755Y003043D01*
X020746Y003025D01*
X020741Y003006D01*
X020739Y002986D01*
X020739Y002742D01*
X020741Y002722D01*
X020746Y002703D01*
X020755Y002685D01*
X020767Y002669D01*
X020782Y002656D01*
X020799Y002645D01*
X020817Y002638D01*
X020837Y002634D01*
X020857Y002634D01*
X020877Y002638D01*
X020895Y002645D01*
X020912Y002656D01*
X020927Y002669D01*
X020939Y002685D01*
X020948Y002703D01*
X020953Y002722D01*
X020955Y002742D01*
X020956Y004238D02*
X020956Y004483D01*
X020955Y004483D02*
X020953Y004503D01*
X020948Y004522D01*
X020939Y004540D01*
X020927Y004556D01*
X020912Y004569D01*
X020895Y004580D01*
X020877Y004587D01*
X020857Y004591D01*
X020837Y004591D01*
X020817Y004587D01*
X020799Y004580D01*
X020782Y004569D01*
X020767Y004556D01*
X020755Y004540D01*
X020746Y004522D01*
X020741Y004503D01*
X020739Y004483D01*
X020739Y004238D01*
X020741Y004218D01*
X020746Y004199D01*
X020755Y004181D01*
X020767Y004165D01*
X020782Y004152D01*
X020799Y004141D01*
X020817Y004134D01*
X020837Y004130D01*
X020857Y004130D01*
X020877Y004134D01*
X020895Y004141D01*
X020912Y004152D01*
X020927Y004165D01*
X020939Y004181D01*
X020948Y004199D01*
X020953Y004218D01*
X020955Y004238D01*
X017554Y004238D02*
X017554Y004483D01*
X017552Y004503D01*
X017547Y004522D01*
X017538Y004540D01*
X017526Y004556D01*
X017511Y004569D01*
X017494Y004580D01*
X017476Y004587D01*
X017456Y004591D01*
X017436Y004591D01*
X017416Y004587D01*
X017398Y004580D01*
X017381Y004569D01*
X017366Y004556D01*
X017354Y004540D01*
X017345Y004522D01*
X017340Y004503D01*
X017338Y004483D01*
X017338Y004238D01*
X017340Y004218D01*
X017345Y004199D01*
X017354Y004181D01*
X017366Y004165D01*
X017381Y004152D01*
X017398Y004141D01*
X017416Y004134D01*
X017436Y004130D01*
X017456Y004130D01*
X017476Y004134D01*
X017494Y004141D01*
X017511Y004152D01*
X017526Y004165D01*
X017538Y004181D01*
X017547Y004199D01*
X017552Y004218D01*
X017554Y004238D01*
X017554Y002986D02*
X017554Y002742D01*
X017552Y002722D01*
X017547Y002703D01*
X017538Y002685D01*
X017526Y002669D01*
X017511Y002656D01*
X017494Y002645D01*
X017476Y002638D01*
X017456Y002634D01*
X017436Y002634D01*
X017416Y002638D01*
X017398Y002645D01*
X017381Y002656D01*
X017366Y002669D01*
X017354Y002685D01*
X017345Y002703D01*
X017340Y002722D01*
X017338Y002742D01*
X017338Y002986D01*
X017340Y003006D01*
X017345Y003025D01*
X017354Y003043D01*
X017366Y003059D01*
X017381Y003072D01*
X017398Y003083D01*
X017416Y003090D01*
X017436Y003094D01*
X017456Y003094D01*
X017476Y003090D01*
X017494Y003083D01*
X017511Y003072D01*
X017526Y003059D01*
X017538Y003043D01*
X017547Y003025D01*
X017552Y003006D01*
X017554Y002986D01*
D12*
X017446Y002744D02*
X017446Y002744D01*
X017446Y002980D01*
X017446Y002980D01*
X017446Y002744D01*
X017446Y004241D02*
X017446Y004241D01*
X017446Y004477D01*
X017446Y004477D01*
X017446Y004241D01*
X020847Y004241D02*
X020847Y004241D01*
X020847Y004477D01*
X020847Y004477D01*
X020847Y004241D01*
X020847Y002744D02*
X020847Y002744D01*
X020847Y002980D01*
X020847Y002980D01*
X020847Y002744D01*
D13*
X014468Y004240D03*
D14*
X014477Y005728D03*
D15*
X014710Y008279D03*
X021725Y005319D03*
D16*
X022484Y004034D03*
X022484Y003704D03*
X020383Y003935D03*
X020083Y003935D03*
X017964Y003709D03*
X016960Y003762D03*
X016784Y002734D03*
X014797Y003670D03*
X014584Y003980D03*
X013398Y004190D03*
X013398Y004490D03*
X014323Y005340D03*
X014623Y005340D03*
X016760Y005514D03*
X018653Y005726D03*
X018653Y005996D03*
X018953Y005996D03*
X018953Y005726D03*
X018953Y006266D03*
X018953Y006536D03*
X018653Y006536D03*
X018653Y006266D03*
X019284Y006934D03*
X020009Y007314D03*
X018603Y008216D03*
X018303Y008216D03*
X018303Y008516D03*
X018303Y008816D03*
X018603Y008816D03*
X018603Y008516D03*
X018984Y009646D03*
X020064Y009646D03*
X020308Y010015D03*
X020608Y010015D03*
X020908Y010015D03*
X017200Y007314D03*
X015084Y007929D03*
X015084Y008629D03*
X012958Y009965D03*
X012658Y009965D03*
X012358Y009965D03*
X012058Y009965D03*
X011758Y009965D03*
X011458Y009965D03*
X011158Y009965D03*
X010858Y009965D03*
X010558Y009965D03*
X008215Y013484D03*
X005658Y013385D03*
X005658Y013035D03*
X005658Y012685D03*
X005658Y012335D03*
X005658Y013735D03*
X019823Y005823D03*
D17*
X019604Y006029D02*
X016579Y006029D01*
X016579Y006107D02*
X019726Y006107D01*
X019763Y006123D02*
X019653Y006077D01*
X019568Y005993D01*
X019523Y005882D01*
X019523Y005763D01*
X019568Y005653D01*
X019653Y005568D01*
X019763Y005523D01*
X019882Y005523D01*
X019993Y005568D01*
X020077Y005653D01*
X020089Y005682D01*
X020127Y005704D01*
X020127Y005704D01*
X020127Y005704D01*
X020239Y005897D01*
X020239Y007119D01*
X020263Y007144D01*
X020309Y007254D01*
X020309Y007373D01*
X020263Y007484D01*
X020179Y007568D01*
X020068Y007614D01*
X019949Y007614D01*
X019839Y007568D01*
X019754Y007484D01*
X019709Y007373D01*
X019709Y007254D01*
X019754Y007144D01*
X019779Y007119D01*
X019779Y006123D01*
X019763Y006123D01*
X019779Y006186D02*
X016579Y006186D01*
X016579Y006264D02*
X019779Y006264D01*
X019779Y006343D02*
X016579Y006343D01*
X016579Y006421D02*
X019779Y006421D01*
X019779Y006500D02*
X016579Y006500D01*
X016579Y006578D02*
X019779Y006578D01*
X019779Y006657D02*
X019399Y006657D01*
X019454Y006679D02*
X019538Y006764D01*
X019584Y006874D01*
X019584Y006993D01*
X019538Y007104D01*
X019514Y007128D01*
X019770Y007128D01*
X019779Y007049D02*
X019561Y007049D01*
X019584Y006971D02*
X019779Y006971D01*
X019779Y006892D02*
X019584Y006892D01*
X019559Y006814D02*
X019779Y006814D01*
X019779Y006735D02*
X019509Y006735D01*
X019454Y006679D02*
X019343Y006634D01*
X019224Y006634D01*
X019114Y006679D01*
X019029Y006764D01*
X018984Y006874D01*
X018984Y006993D01*
X019029Y007104D01*
X019054Y007128D01*
X019054Y009350D01*
X019043Y009346D01*
X018924Y009346D01*
X018814Y009391D01*
X018729Y009476D01*
X018684Y009586D01*
X018684Y009705D01*
X018729Y009816D01*
X018814Y009900D01*
X018924Y009946D01*
X019043Y009946D01*
X019154Y009900D01*
X019178Y009876D01*
X019869Y009876D01*
X019894Y009900D01*
X020004Y009946D01*
X020123Y009946D01*
X020234Y009900D01*
X020318Y009816D01*
X020364Y009705D01*
X020364Y009586D01*
X020318Y009476D01*
X020234Y009391D01*
X020123Y009346D01*
X020004Y009346D01*
X019894Y009391D01*
X019869Y009416D01*
X019514Y009416D01*
X019514Y007128D01*
X019514Y007206D02*
X019729Y007206D01*
X019709Y007285D02*
X019514Y007285D01*
X019514Y007363D02*
X019709Y007363D01*
X019737Y007442D02*
X019514Y007442D01*
X019514Y007520D02*
X019791Y007520D01*
X019913Y007599D02*
X019514Y007599D01*
X019514Y007677D02*
X021013Y007677D01*
X021013Y007599D02*
X020105Y007599D01*
X020226Y007520D02*
X021013Y007520D01*
X021013Y007442D02*
X020280Y007442D01*
X020309Y007363D02*
X021013Y007363D01*
X021013Y007285D02*
X020309Y007285D01*
X020289Y007206D02*
X021013Y007206D01*
X021013Y007200D02*
X021017Y007190D01*
X021017Y006527D01*
X021013Y006517D01*
X021013Y005760D01*
X021010Y005752D01*
X021013Y005707D01*
X021013Y005662D01*
X021016Y005655D01*
X021021Y005562D01*
X021098Y005403D01*
X021093Y005368D01*
X021093Y005359D01*
X021120Y005359D01*
X021141Y005315D01*
X021182Y005279D01*
X021093Y005279D01*
X021093Y005269D01*
X021109Y005171D01*
X021139Y005076D01*
X021184Y004987D01*
X021243Y004907D01*
X021313Y004836D01*
X021394Y004778D01*
X021482Y004733D01*
X021577Y004702D01*
X021675Y004686D01*
X021685Y004686D01*
X021685Y005047D01*
X021736Y005050D01*
X021765Y005050D01*
X021765Y004686D01*
X021775Y004686D01*
X021873Y004702D01*
X021968Y004733D01*
X022056Y004778D01*
X022137Y004836D01*
X022207Y004907D01*
X022266Y004987D01*
X022298Y005050D01*
X022811Y005050D01*
X022827Y005047D01*
X022863Y005028D01*
X022890Y004997D01*
X022902Y004959D01*
X022902Y004926D01*
X022899Y004884D01*
X022902Y004874D01*
X022902Y002977D01*
X022902Y002971D01*
X022897Y002961D01*
X022889Y002953D01*
X022887Y002952D01*
X022857Y002948D01*
X022821Y002948D01*
X022808Y002942D01*
X022129Y002872D01*
X021416Y002830D01*
X021244Y002827D01*
X021244Y003059D01*
X021197Y003174D01*
X021971Y003174D01*
X021972Y003172D01*
X022066Y003174D01*
X022159Y003174D01*
X022161Y003175D01*
X022163Y003175D01*
X022228Y003242D01*
X022294Y003308D01*
X022294Y003311D01*
X022395Y003416D01*
X022424Y003404D01*
X022543Y003404D01*
X022654Y003449D01*
X022738Y003534D01*
X022784Y003644D01*
X022784Y003763D01*
X022740Y003869D01*
X022784Y003974D01*
X022784Y004093D01*
X022738Y004204D01*
X022654Y004288D01*
X022543Y004334D01*
X022424Y004334D01*
X022314Y004288D01*
X022289Y004264D01*
X022238Y004264D01*
X021813Y003839D01*
X018235Y003839D01*
X018218Y003879D01*
X018134Y003963D01*
X018023Y004009D01*
X017904Y004009D01*
X017794Y003963D01*
X017709Y003879D01*
X017664Y003768D01*
X017664Y003649D01*
X017670Y003634D01*
X017231Y003634D01*
X017260Y003703D01*
X017260Y003822D01*
X017227Y003902D01*
X017367Y003844D01*
X017525Y003844D01*
X017670Y003904D01*
X017782Y004016D01*
X017842Y004162D01*
X017842Y004556D01*
X017782Y004701D01*
X017670Y004813D01*
X017525Y004873D01*
X017367Y004873D01*
X017221Y004813D01*
X017110Y004701D01*
X017049Y004556D01*
X017049Y004162D01*
X017105Y004027D01*
X017020Y004062D01*
X016914Y004062D01*
X016914Y005253D01*
X016930Y005259D01*
X017014Y005344D01*
X017060Y005454D01*
X017060Y005573D01*
X017014Y005684D01*
X016930Y005768D01*
X016820Y005814D01*
X016700Y005814D01*
X016590Y005768D01*
X016579Y005757D01*
X016579Y006835D01*
X016581Y006841D01*
X016579Y006887D01*
X016579Y006933D01*
X016576Y006940D01*
X016573Y007004D01*
X016478Y007204D01*
X016315Y007352D01*
X016315Y007352D01*
X016106Y007426D01*
X016003Y007421D01*
X015030Y007421D01*
X015019Y007423D01*
X014993Y007436D01*
X014973Y007459D01*
X014964Y007486D01*
X014964Y007511D01*
X014968Y007554D01*
X014964Y007564D01*
X014964Y007626D01*
X015018Y007604D01*
X015149Y007604D01*
X015271Y007654D01*
X015363Y007747D01*
X015414Y007868D01*
X015414Y008694D01*
X015384Y008767D01*
X015384Y008915D01*
X016970Y008915D01*
X016970Y007508D01*
X016945Y007484D01*
X016900Y007373D01*
X016900Y007254D01*
X016945Y007144D01*
X017030Y007059D01*
X017140Y007014D01*
X017259Y007014D01*
X017370Y007059D01*
X017454Y007144D01*
X017500Y007254D01*
X017500Y007373D01*
X017454Y007484D01*
X017430Y007508D01*
X017430Y008915D01*
X017477Y008915D01*
X017550Y008885D01*
X017989Y008885D01*
X018111Y008935D01*
X018203Y009028D01*
X018254Y009150D01*
X018254Y009281D01*
X018203Y009402D01*
X018111Y009495D01*
X017989Y009545D01*
X017550Y009545D01*
X017477Y009515D01*
X010331Y009515D01*
X010328Y009523D01*
X010328Y009525D01*
X010306Y009578D01*
X010284Y009632D01*
X010283Y009633D01*
X010168Y009921D01*
X010168Y009921D01*
X009777Y010553D01*
X009282Y011106D01*
X009282Y011106D01*
X009282Y011106D01*
X008698Y011566D01*
X008044Y011916D01*
X008193Y011916D01*
X008234Y011900D02*
X008872Y011516D01*
X009433Y011028D01*
X009901Y010449D01*
X010090Y010140D01*
X010103Y010109D01*
X010114Y010098D01*
X010121Y010085D01*
X010151Y010061D01*
X010178Y010034D01*
X010192Y010028D01*
X010204Y010019D01*
X010240Y010008D01*
X010275Y009994D01*
X010290Y009994D01*
X010305Y009990D01*
X010343Y009994D01*
X016960Y009994D01*
X016966Y009996D01*
X017637Y009996D01*
X017642Y009994D01*
X020977Y009994D01*
X020978Y009993D01*
X021013Y009994D01*
X021013Y007200D01*
X021017Y007128D02*
X020247Y007128D01*
X020239Y007049D02*
X021017Y007049D01*
X021017Y006971D02*
X020239Y006971D01*
X020239Y006892D02*
X021017Y006892D01*
X021017Y006814D02*
X020239Y006814D01*
X020239Y006735D02*
X021017Y006735D01*
X021017Y006657D02*
X020239Y006657D01*
X020239Y006578D02*
X021017Y006578D01*
X021013Y006500D02*
X020239Y006500D01*
X020239Y006421D02*
X021013Y006421D01*
X021013Y006343D02*
X020239Y006343D01*
X020239Y006264D02*
X021013Y006264D01*
X021013Y006186D02*
X020239Y006186D01*
X020239Y006107D02*
X021013Y006107D01*
X021013Y006029D02*
X020239Y006029D01*
X020239Y005950D02*
X021013Y005950D01*
X021013Y005872D02*
X020224Y005872D01*
X020179Y005793D02*
X021013Y005793D01*
X021012Y005715D02*
X020133Y005715D01*
X020060Y005636D02*
X021017Y005636D01*
X021021Y005562D02*
X021021Y005562D01*
X021024Y005558D02*
X019967Y005558D01*
X019678Y005558D02*
X017060Y005558D01*
X017060Y005479D02*
X021062Y005479D01*
X021098Y005401D02*
X017038Y005401D01*
X016993Y005322D02*
X021138Y005322D01*
X021141Y005315D02*
X021141Y005315D01*
X021097Y005244D02*
X016914Y005244D01*
X016914Y005165D02*
X021110Y005165D01*
X021136Y005087D02*
X016914Y005087D01*
X016914Y005008D02*
X021174Y005008D01*
X021226Y004930D02*
X016914Y004930D01*
X016914Y004851D02*
X017314Y004851D01*
X017181Y004773D02*
X016914Y004773D01*
X016914Y004694D02*
X017107Y004694D01*
X017074Y004616D02*
X016914Y004616D01*
X016914Y004537D02*
X017049Y004537D01*
X017049Y004459D02*
X016914Y004459D01*
X016914Y004380D02*
X017049Y004380D01*
X017049Y004302D02*
X016914Y004302D01*
X016914Y004223D02*
X017049Y004223D01*
X017056Y004145D02*
X016914Y004145D01*
X016914Y004066D02*
X017089Y004066D01*
X017257Y003831D02*
X017690Y003831D01*
X017675Y003909D02*
X017740Y003909D01*
X017754Y003988D02*
X017853Y003988D01*
X017803Y004066D02*
X020490Y004066D01*
X020511Y004016D02*
X020623Y003904D01*
X020769Y003844D01*
X020926Y003844D01*
X021072Y003904D01*
X021184Y004016D01*
X021244Y004162D01*
X021244Y004556D01*
X021184Y004701D01*
X021072Y004813D01*
X020926Y004873D01*
X020769Y004873D01*
X020623Y004813D01*
X020511Y004701D01*
X020451Y004556D01*
X020451Y004162D01*
X020511Y004016D01*
X020539Y003988D02*
X018074Y003988D01*
X018187Y003909D02*
X020618Y003909D01*
X020458Y004145D02*
X017835Y004145D01*
X017842Y004223D02*
X020451Y004223D01*
X020451Y004302D02*
X017842Y004302D01*
X017842Y004380D02*
X020451Y004380D01*
X020451Y004459D02*
X017842Y004459D01*
X017842Y004537D02*
X020451Y004537D01*
X020476Y004616D02*
X017817Y004616D01*
X017785Y004694D02*
X020508Y004694D01*
X020583Y004773D02*
X017711Y004773D01*
X017578Y004851D02*
X020715Y004851D01*
X020979Y004851D02*
X021299Y004851D01*
X021404Y004773D02*
X021112Y004773D01*
X021186Y004694D02*
X021627Y004694D01*
X021685Y004694D02*
X021765Y004694D01*
X021824Y004694D02*
X022902Y004694D01*
X022902Y004616D02*
X021219Y004616D01*
X021244Y004537D02*
X022902Y004537D01*
X022902Y004459D02*
X021244Y004459D01*
X021244Y004380D02*
X022902Y004380D01*
X022902Y004302D02*
X022621Y004302D01*
X022718Y004223D02*
X022902Y004223D01*
X022902Y004145D02*
X022762Y004145D01*
X022784Y004066D02*
X022902Y004066D01*
X022902Y003988D02*
X022784Y003988D01*
X022757Y003909D02*
X022902Y003909D01*
X022902Y003831D02*
X022756Y003831D01*
X022784Y003752D02*
X022902Y003752D01*
X022902Y003674D02*
X022784Y003674D01*
X022763Y003595D02*
X022902Y003595D01*
X022902Y003517D02*
X022721Y003517D01*
X022627Y003438D02*
X022902Y003438D01*
X022902Y003360D02*
X022341Y003360D01*
X022266Y003281D02*
X022902Y003281D01*
X022902Y003203D02*
X022189Y003203D01*
X022288Y002889D02*
X021244Y002889D01*
X021244Y002967D02*
X022900Y002967D01*
X022902Y003046D02*
X021244Y003046D01*
X021217Y003124D02*
X022902Y003124D01*
X021884Y003909D02*
X021077Y003909D01*
X021155Y003988D02*
X021962Y003988D01*
X022041Y004066D02*
X021204Y004066D01*
X021237Y004145D02*
X022119Y004145D01*
X022198Y004223D02*
X021244Y004223D01*
X021244Y004302D02*
X022347Y004302D01*
X022046Y004773D02*
X022902Y004773D01*
X022902Y004851D02*
X022152Y004851D01*
X022224Y004930D02*
X022902Y004930D01*
X022881Y005008D02*
X022276Y005008D01*
X021765Y005008D02*
X021685Y005008D01*
X021685Y004930D02*
X021765Y004930D01*
X021765Y004851D02*
X021685Y004851D01*
X021685Y004773D02*
X021765Y004773D01*
X024023Y004773D02*
X024678Y004773D01*
X024678Y004851D02*
X024023Y004851D01*
X024023Y004930D02*
X024678Y004930D01*
X024678Y005008D02*
X024023Y005008D01*
X024023Y005087D02*
X024678Y005087D01*
X024678Y005165D02*
X024023Y005165D01*
X024023Y005244D02*
X024678Y005244D01*
X024678Y005322D02*
X024023Y005322D01*
X024023Y005401D02*
X024678Y005401D01*
X024678Y005479D02*
X024023Y005479D01*
X024023Y005558D02*
X024678Y005558D01*
X024678Y005636D02*
X024023Y005636D01*
X024023Y005715D02*
X024678Y005715D01*
X024678Y005793D02*
X024023Y005793D01*
X024023Y005872D02*
X024678Y005872D01*
X024678Y005950D02*
X024023Y005950D01*
X024023Y006029D02*
X024678Y006029D01*
X024678Y006107D02*
X024023Y006107D01*
X024023Y006186D02*
X024678Y006186D01*
X024678Y006264D02*
X024023Y006264D01*
X024023Y006343D02*
X024678Y006343D01*
X024678Y006421D02*
X024027Y006421D01*
X024027Y006379D02*
X024027Y007337D01*
X024023Y007342D01*
X024023Y010913D01*
X024025Y011030D01*
X023937Y011252D01*
X023937Y011252D01*
X023771Y011424D01*
X023771Y011424D01*
X023551Y011519D01*
X023483Y011520D01*
X023481Y011521D01*
X023430Y011521D01*
X023379Y011522D01*
X023377Y011521D01*
X017775Y011521D01*
X016817Y011521D01*
X016817Y011521D01*
X010798Y011521D01*
X010668Y011712D01*
X010161Y012255D01*
X009578Y012714D01*
X009578Y012714D01*
X008931Y013078D01*
X008236Y013339D01*
X008236Y013339D01*
X008083Y013371D01*
X008083Y017009D01*
X008084Y017010D01*
X008083Y017061D01*
X008083Y017113D01*
X008083Y017114D01*
X008082Y017200D01*
X007943Y017437D01*
X007943Y017437D01*
X007943Y017437D01*
X007703Y017572D01*
X007567Y017571D01*
X006468Y017571D01*
X006463Y017569D01*
X005791Y017569D01*
X005786Y017571D01*
X002225Y017571D01*
X001926Y017447D01*
X001926Y017447D01*
X001696Y017217D01*
X001572Y016918D01*
X001572Y014984D01*
X001561Y014823D01*
X001670Y014500D01*
X001894Y014243D01*
X002200Y014092D01*
X002326Y014084D01*
X002335Y014080D01*
X002378Y014080D01*
X002422Y014077D01*
X002431Y014080D01*
X003578Y014080D01*
X003654Y014074D01*
X003798Y014027D01*
X003921Y013938D01*
X004010Y013815D01*
X004057Y013671D01*
X004063Y013595D01*
X004063Y011213D01*
X004141Y011023D01*
X004286Y010879D01*
X004286Y010879D01*
X004475Y010800D01*
X006450Y010800D01*
X006716Y010728D01*
X007272Y010500D01*
X007783Y010182D01*
X008233Y009784D01*
X008612Y009317D01*
X008907Y008793D01*
X009111Y008227D01*
X000799Y008227D01*
X000799Y008305D02*
X009083Y008305D01*
X009111Y008227D02*
X009172Y007953D01*
X009172Y007928D01*
X009182Y007906D01*
X009186Y007882D01*
X009202Y007858D01*
X009213Y007831D01*
X009230Y007814D01*
X009243Y007793D01*
X009267Y007777D01*
X009287Y007756D01*
X009310Y007747D01*
X009330Y007733D01*
X009358Y007727D01*
X009385Y007716D01*
X009409Y007716D01*
X009433Y007711D01*
X009461Y007716D01*
X011012Y007716D01*
X011013Y007716D01*
X011482Y007716D01*
X011482Y002146D01*
X011478Y002049D01*
X011550Y001859D01*
X011688Y001711D01*
X011873Y001627D01*
X011926Y001625D01*
X011931Y001623D01*
X011979Y001623D01*
X012027Y001621D01*
X012031Y001623D01*
X015768Y001623D01*
X015780Y001610D01*
X015780Y000812D01*
X015768Y000799D01*
X000952Y000799D01*
X000924Y000805D01*
X000861Y000840D01*
X000816Y000897D01*
X000796Y000967D01*
X000796Y000976D01*
X000799Y000981D01*
X000799Y001018D01*
X000803Y001055D01*
X000799Y001071D01*
X000799Y017715D01*
X000803Y017730D01*
X000799Y017767D01*
X000799Y017805D01*
X000797Y017810D01*
X000796Y017819D01*
X000816Y017888D01*
X000861Y017944D01*
X000924Y017979D01*
X000952Y017985D01*
X024289Y017985D01*
X024303Y017981D01*
X024342Y017985D01*
X024381Y017985D01*
X024385Y017987D01*
X024413Y017987D01*
X024524Y017954D01*
X024613Y017882D01*
X024668Y017781D01*
X024678Y017732D01*
X024678Y001054D01*
X024668Y001004D01*
X024613Y000903D01*
X024524Y000830D01*
X024413Y000797D01*
X024384Y000797D01*
X024381Y000799D01*
X024341Y000799D01*
X024303Y000803D01*
X024289Y000799D01*
X022529Y000799D01*
X022529Y001623D01*
X023412Y001623D01*
X023413Y001623D01*
X023465Y001623D01*
X023517Y001623D01*
X023518Y001623D01*
X023578Y001624D01*
X023783Y001711D01*
X023940Y001870D01*
X024024Y002076D01*
X024023Y002187D01*
X024023Y006375D01*
X024027Y006379D01*
X024027Y006500D02*
X024678Y006500D01*
X024678Y006578D02*
X024027Y006578D01*
X024027Y006657D02*
X024678Y006657D01*
X024678Y006735D02*
X024027Y006735D01*
X024027Y006814D02*
X024678Y006814D01*
X024678Y006892D02*
X024027Y006892D01*
X024027Y006971D02*
X024678Y006971D01*
X024678Y007049D02*
X024027Y007049D01*
X024027Y007128D02*
X024678Y007128D01*
X024678Y007206D02*
X024027Y007206D01*
X024027Y007285D02*
X024678Y007285D01*
X024678Y007363D02*
X024023Y007363D01*
X024023Y007442D02*
X024678Y007442D01*
X024678Y007520D02*
X024023Y007520D01*
X024023Y007599D02*
X024678Y007599D01*
X024678Y007677D02*
X024023Y007677D01*
X024023Y007756D02*
X024678Y007756D01*
X024678Y007834D02*
X024023Y007834D01*
X024023Y007913D02*
X024678Y007913D01*
X024678Y007991D02*
X024023Y007991D01*
X024023Y008070D02*
X024678Y008070D01*
X024678Y008148D02*
X024023Y008148D01*
X024023Y008227D02*
X024678Y008227D01*
X024678Y008305D02*
X024023Y008305D01*
X024023Y008384D02*
X024678Y008384D01*
X024678Y008462D02*
X024023Y008462D01*
X024023Y008541D02*
X024678Y008541D01*
X024678Y008619D02*
X024023Y008619D01*
X024023Y008698D02*
X024678Y008698D01*
X024678Y008776D02*
X024023Y008776D01*
X024023Y008855D02*
X024678Y008855D01*
X024678Y008933D02*
X024023Y008933D01*
X024023Y009012D02*
X024678Y009012D01*
X024678Y009090D02*
X024023Y009090D01*
X024023Y009169D02*
X024678Y009169D01*
X024678Y009247D02*
X024023Y009247D01*
X024023Y009326D02*
X024678Y009326D01*
X024678Y009404D02*
X024023Y009404D01*
X024023Y009483D02*
X024678Y009483D01*
X024678Y009561D02*
X024023Y009561D01*
X024023Y009640D02*
X024678Y009640D01*
X024678Y009718D02*
X024023Y009718D01*
X024023Y009797D02*
X024678Y009797D01*
X024678Y009875D02*
X024023Y009875D01*
X024023Y009954D02*
X024678Y009954D01*
X024678Y010032D02*
X024023Y010032D01*
X024023Y010111D02*
X024678Y010111D01*
X024678Y010189D02*
X024023Y010189D01*
X024023Y010268D02*
X024678Y010268D01*
X024678Y010346D02*
X024023Y010346D01*
X024023Y010425D02*
X024678Y010425D01*
X024678Y010503D02*
X024023Y010503D01*
X024023Y010582D02*
X024678Y010582D01*
X024678Y010660D02*
X024023Y010660D01*
X024023Y010739D02*
X024678Y010739D01*
X024678Y010817D02*
X024023Y010817D01*
X024023Y010896D02*
X024678Y010896D01*
X024678Y010974D02*
X024024Y010974D01*
X024025Y011030D02*
X024025Y011030D01*
X024016Y011053D02*
X024678Y011053D01*
X024678Y011131D02*
X023985Y011131D01*
X023954Y011210D02*
X024678Y011210D01*
X024678Y011288D02*
X023902Y011288D01*
X023826Y011367D02*
X024678Y011367D01*
X024678Y011445D02*
X023721Y011445D01*
X023551Y011519D02*
X023551Y011519D01*
X024678Y011524D02*
X010796Y011524D01*
X010742Y011602D02*
X024678Y011602D01*
X024678Y011681D02*
X010689Y011681D01*
X010623Y011759D02*
X024678Y011759D01*
X024678Y011838D02*
X010550Y011838D01*
X010477Y011916D02*
X024678Y011916D01*
X024678Y011995D02*
X010404Y011995D01*
X010331Y012073D02*
X024678Y012073D01*
X024678Y012152D02*
X010257Y012152D01*
X010184Y012230D02*
X024678Y012230D01*
X024678Y012309D02*
X010093Y012309D01*
X010161Y012255D02*
X010161Y012255D01*
X010161Y012255D01*
X009993Y012387D02*
X024678Y012387D01*
X024678Y012466D02*
X009893Y012466D01*
X009793Y012544D02*
X024678Y012544D01*
X024678Y012623D02*
X009693Y012623D01*
X009594Y012701D02*
X024678Y012701D01*
X024678Y012780D02*
X009461Y012780D01*
X009321Y012858D02*
X024678Y012858D01*
X024678Y012937D02*
X009182Y012937D01*
X009043Y013015D02*
X024678Y013015D01*
X024678Y013094D02*
X008889Y013094D01*
X008931Y013078D02*
X008931Y013078D01*
X008680Y013172D02*
X024678Y013172D01*
X024678Y013251D02*
X008472Y013251D01*
X008263Y013329D02*
X024678Y013329D01*
X024678Y013408D02*
X008083Y013408D01*
X008083Y013486D02*
X024678Y013486D01*
X024678Y013565D02*
X008083Y013565D01*
X008083Y013643D02*
X024678Y013643D01*
X024678Y013722D02*
X008083Y013722D01*
X008083Y013800D02*
X024678Y013800D01*
X024678Y013879D02*
X008083Y013879D01*
X008083Y013957D02*
X024678Y013957D01*
X024678Y014036D02*
X008083Y014036D01*
X008083Y014114D02*
X024678Y014114D01*
X024678Y014193D02*
X008083Y014193D01*
X008083Y014271D02*
X024678Y014271D01*
X024678Y014350D02*
X008083Y014350D01*
X008083Y014428D02*
X024678Y014428D01*
X024678Y014507D02*
X008083Y014507D01*
X008083Y014585D02*
X024678Y014585D01*
X024678Y014664D02*
X008083Y014664D01*
X008083Y014742D02*
X024678Y014742D01*
X024678Y014821D02*
X008083Y014821D01*
X008083Y014899D02*
X024678Y014899D01*
X024678Y014978D02*
X008083Y014978D01*
X008083Y015056D02*
X024678Y015056D01*
X024678Y015135D02*
X008083Y015135D01*
X008083Y015213D02*
X024678Y015213D01*
X024678Y015292D02*
X008083Y015292D01*
X008083Y015370D02*
X024678Y015370D01*
X024678Y015449D02*
X008083Y015449D01*
X008083Y015527D02*
X024678Y015527D01*
X024678Y015606D02*
X008083Y015606D01*
X008083Y015684D02*
X024678Y015684D01*
X024678Y015763D02*
X008083Y015763D01*
X008083Y015841D02*
X024678Y015841D01*
X024678Y015920D02*
X008083Y015920D01*
X008083Y015998D02*
X024678Y015998D01*
X024678Y016077D02*
X008083Y016077D01*
X008083Y016155D02*
X024678Y016155D01*
X024678Y016234D02*
X008083Y016234D01*
X008083Y016312D02*
X024678Y016312D01*
X024678Y016391D02*
X008083Y016391D01*
X008083Y016469D02*
X024678Y016469D01*
X024678Y016548D02*
X008083Y016548D01*
X008083Y016626D02*
X024678Y016626D01*
X024678Y016705D02*
X008083Y016705D01*
X008083Y016783D02*
X024678Y016783D01*
X024678Y016862D02*
X008083Y016862D01*
X008083Y016940D02*
X024678Y016940D01*
X024678Y017019D02*
X008084Y017019D01*
X008083Y017097D02*
X024678Y017097D01*
X024678Y017176D02*
X008082Y017176D01*
X008082Y017200D02*
X008082Y017200D01*
X008050Y017254D02*
X024678Y017254D01*
X024678Y017333D02*
X008004Y017333D01*
X007958Y017411D02*
X024678Y017411D01*
X024678Y017490D02*
X007849Y017490D01*
X007710Y017568D02*
X024678Y017568D01*
X024678Y017647D02*
X000799Y017647D01*
X000802Y017725D02*
X024678Y017725D01*
X024656Y017804D02*
X000799Y017804D01*
X000815Y017882D02*
X024613Y017882D01*
X024502Y017961D02*
X000891Y017961D01*
X000799Y017568D02*
X002219Y017568D01*
X002030Y017490D02*
X000799Y017490D01*
X000799Y017411D02*
X001890Y017411D01*
X001812Y017333D02*
X000799Y017333D01*
X000799Y017254D02*
X001733Y017254D01*
X001696Y017217D02*
X001696Y017217D01*
X001679Y017176D02*
X000799Y017176D01*
X000799Y017097D02*
X001647Y017097D01*
X001614Y017019D02*
X000799Y017019D01*
X000799Y016940D02*
X001582Y016940D01*
X001572Y016862D02*
X000799Y016862D01*
X000799Y016783D02*
X001572Y016783D01*
X001572Y016705D02*
X000799Y016705D01*
X000799Y016626D02*
X001572Y016626D01*
X001572Y016548D02*
X000799Y016548D01*
X000799Y016469D02*
X001572Y016469D01*
X001572Y016391D02*
X000799Y016391D01*
X000799Y016312D02*
X001572Y016312D01*
X001572Y016234D02*
X000799Y016234D01*
X000799Y016155D02*
X001572Y016155D01*
X001572Y016077D02*
X000799Y016077D01*
X000799Y015998D02*
X001572Y015998D01*
X001572Y015920D02*
X000799Y015920D01*
X000799Y015841D02*
X001572Y015841D01*
X001572Y015763D02*
X000799Y015763D01*
X000799Y015684D02*
X001572Y015684D01*
X001572Y015606D02*
X000799Y015606D01*
X000799Y015527D02*
X001572Y015527D01*
X001572Y015449D02*
X000799Y015449D01*
X000799Y015370D02*
X001572Y015370D01*
X001572Y015292D02*
X000799Y015292D01*
X000799Y015213D02*
X001572Y015213D01*
X001572Y015135D02*
X000799Y015135D01*
X000799Y015056D02*
X001572Y015056D01*
X001572Y014978D02*
X000799Y014978D01*
X000799Y014899D02*
X001567Y014899D01*
X001561Y014823D02*
X001561Y014823D01*
X001562Y014821D02*
X000799Y014821D01*
X000799Y014742D02*
X001588Y014742D01*
X001615Y014664D02*
X000799Y014664D01*
X000799Y014585D02*
X001641Y014585D01*
X001668Y014507D02*
X000799Y014507D01*
X000799Y014428D02*
X001733Y014428D01*
X001670Y014500D02*
X001670Y014500D01*
X001801Y014350D02*
X000799Y014350D01*
X000799Y014271D02*
X001870Y014271D01*
X001894Y014243D02*
X001894Y014243D01*
X001997Y014193D02*
X000799Y014193D01*
X000799Y014114D02*
X002155Y014114D01*
X002200Y014092D02*
X002200Y014092D01*
X000799Y014036D02*
X003772Y014036D01*
X003894Y013957D02*
X000799Y013957D01*
X000799Y013879D02*
X003964Y013879D01*
X004015Y013800D02*
X000799Y013800D01*
X000799Y013722D02*
X004040Y013722D01*
X004059Y013643D02*
X000799Y013643D01*
X000799Y013565D02*
X004063Y013565D01*
X004063Y013486D02*
X000799Y013486D01*
X000799Y013408D02*
X004063Y013408D01*
X004063Y013329D02*
X000799Y013329D01*
X000799Y013251D02*
X004063Y013251D01*
X004063Y013172D02*
X000799Y013172D01*
X000799Y013094D02*
X004063Y013094D01*
X004063Y013015D02*
X000799Y013015D01*
X000799Y012937D02*
X004063Y012937D01*
X004063Y012858D02*
X000799Y012858D01*
X000799Y012780D02*
X004063Y012780D01*
X004063Y012701D02*
X000799Y012701D01*
X000799Y012623D02*
X004063Y012623D01*
X004063Y012544D02*
X000799Y012544D01*
X000799Y012466D02*
X004063Y012466D01*
X004063Y012387D02*
X000799Y012387D01*
X000799Y012309D02*
X004063Y012309D01*
X004063Y012230D02*
X000799Y012230D01*
X000799Y012152D02*
X004063Y012152D01*
X004063Y012073D02*
X000799Y012073D01*
X000799Y011995D02*
X004063Y011995D01*
X004063Y011916D02*
X000799Y011916D01*
X000799Y011838D02*
X004063Y011838D01*
X004063Y011759D02*
X000799Y011759D01*
X000799Y011681D02*
X004063Y011681D01*
X004063Y011602D02*
X000799Y011602D01*
X000799Y011524D02*
X004063Y011524D01*
X004063Y011445D02*
X000799Y011445D01*
X000799Y011367D02*
X004063Y011367D01*
X004063Y011288D02*
X000799Y011288D01*
X000799Y011210D02*
X004064Y011210D01*
X004097Y011131D02*
X000799Y011131D01*
X000799Y011053D02*
X004129Y011053D01*
X004141Y011023D02*
X004141Y011023D01*
X004190Y010974D02*
X000799Y010974D01*
X000799Y010896D02*
X004269Y010896D01*
X004434Y010817D02*
X000799Y010817D01*
X000799Y010739D02*
X006677Y010739D01*
X006882Y010660D02*
X000799Y010660D01*
X000799Y010582D02*
X007073Y010582D01*
X007264Y010503D02*
X000799Y010503D01*
X000799Y010425D02*
X007393Y010425D01*
X007519Y010346D02*
X000799Y010346D01*
X000799Y010268D02*
X007645Y010268D01*
X007772Y010189D02*
X000799Y010189D01*
X000799Y010111D02*
X007864Y010111D01*
X007953Y010032D02*
X000799Y010032D01*
X000799Y009954D02*
X008041Y009954D01*
X008130Y009875D02*
X000799Y009875D01*
X000799Y009797D02*
X008219Y009797D01*
X008287Y009718D02*
X000799Y009718D01*
X000799Y009640D02*
X008350Y009640D01*
X008414Y009561D02*
X000799Y009561D01*
X000799Y009483D02*
X008477Y009483D01*
X008541Y009404D02*
X000799Y009404D01*
X000799Y009326D02*
X008604Y009326D01*
X008651Y009247D02*
X000799Y009247D01*
X000799Y009169D02*
X008695Y009169D01*
X008739Y009090D02*
X000799Y009090D01*
X000799Y009012D02*
X008783Y009012D01*
X008828Y008933D02*
X000799Y008933D01*
X000799Y008855D02*
X008872Y008855D01*
X008913Y008776D02*
X000799Y008776D01*
X000799Y008698D02*
X008941Y008698D01*
X008969Y008619D02*
X000799Y008619D01*
X000799Y008541D02*
X008998Y008541D01*
X009026Y008462D02*
X000799Y008462D01*
X000799Y008384D02*
X009054Y008384D01*
X009128Y008148D02*
X000799Y008148D01*
X000799Y008070D02*
X009146Y008070D01*
X009164Y007991D02*
X000799Y007991D01*
X000799Y007913D02*
X009179Y007913D01*
X009211Y007834D02*
X000799Y007834D01*
X000799Y007756D02*
X009288Y007756D01*
X010313Y009561D02*
X018694Y009561D01*
X018684Y009640D02*
X010280Y009640D01*
X010249Y009718D02*
X018689Y009718D01*
X018722Y009797D02*
X010218Y009797D01*
X010186Y009875D02*
X018789Y009875D01*
X018726Y009483D02*
X018123Y009483D01*
X018201Y009404D02*
X018801Y009404D01*
X019054Y009326D02*
X018235Y009326D01*
X018254Y009247D02*
X019054Y009247D01*
X019054Y009169D02*
X018254Y009169D01*
X018229Y009090D02*
X019054Y009090D01*
X019054Y009012D02*
X018187Y009012D01*
X018105Y008933D02*
X019054Y008933D01*
X019054Y008855D02*
X017430Y008855D01*
X017430Y008776D02*
X019054Y008776D01*
X019054Y008698D02*
X017430Y008698D01*
X017430Y008619D02*
X019054Y008619D01*
X019054Y008541D02*
X017430Y008541D01*
X017430Y008462D02*
X019054Y008462D01*
X019054Y008384D02*
X017430Y008384D01*
X017430Y008305D02*
X019054Y008305D01*
X019054Y008227D02*
X017430Y008227D01*
X017430Y008148D02*
X019054Y008148D01*
X019054Y008070D02*
X017430Y008070D01*
X017430Y007991D02*
X019054Y007991D01*
X019054Y007913D02*
X017430Y007913D01*
X017430Y007834D02*
X019054Y007834D01*
X019054Y007756D02*
X017430Y007756D01*
X017430Y007677D02*
X019054Y007677D01*
X019054Y007599D02*
X017430Y007599D01*
X017430Y007520D02*
X019054Y007520D01*
X019054Y007442D02*
X017471Y007442D01*
X017500Y007363D02*
X019054Y007363D01*
X019054Y007285D02*
X017500Y007285D01*
X017480Y007206D02*
X019054Y007206D01*
X019053Y007128D02*
X017438Y007128D01*
X017345Y007049D02*
X019007Y007049D01*
X018984Y006971D02*
X016574Y006971D01*
X016573Y007004D02*
X016573Y007004D01*
X016551Y007049D02*
X017054Y007049D01*
X016961Y007128D02*
X016514Y007128D01*
X016478Y007204D02*
X016478Y007204D01*
X016476Y007206D02*
X016919Y007206D01*
X016900Y007285D02*
X016389Y007285D01*
X016283Y007363D02*
X016900Y007363D01*
X016928Y007442D02*
X014988Y007442D01*
X014965Y007520D02*
X016970Y007520D01*
X016970Y007599D02*
X014964Y007599D01*
X015294Y007677D02*
X016970Y007677D01*
X016970Y007756D02*
X015367Y007756D01*
X015400Y007834D02*
X016970Y007834D01*
X016970Y007913D02*
X015414Y007913D01*
X015414Y007991D02*
X016970Y007991D01*
X016970Y008070D02*
X015414Y008070D01*
X015414Y008148D02*
X016970Y008148D01*
X016970Y008227D02*
X015414Y008227D01*
X015414Y008305D02*
X016970Y008305D01*
X016970Y008384D02*
X015414Y008384D01*
X015414Y008462D02*
X016970Y008462D01*
X016970Y008541D02*
X015414Y008541D01*
X015414Y008619D02*
X016970Y008619D01*
X016970Y008698D02*
X015412Y008698D01*
X015384Y008776D02*
X016970Y008776D01*
X016970Y008855D02*
X015384Y008855D01*
X016106Y007426D02*
X016106Y007426D01*
X016579Y006892D02*
X018984Y006892D01*
X019009Y006814D02*
X016579Y006814D01*
X016579Y006735D02*
X019058Y006735D01*
X019168Y006657D02*
X016579Y006657D01*
X016660Y006604D02*
X016660Y005860D01*
X016484Y005684D01*
X016484Y004384D01*
X016384Y004284D01*
X015234Y004284D01*
X015034Y004084D01*
X015034Y003734D01*
X014890Y003690D01*
X014797Y003670D01*
X014677Y003640D01*
X014643Y003680D02*
X014754Y003726D01*
X014838Y003810D01*
X014884Y003921D01*
X014884Y004040D01*
X014867Y004080D01*
X014898Y004155D01*
X014898Y004326D01*
X014833Y004484D01*
X014712Y004605D01*
X014554Y004670D01*
X014382Y004670D01*
X014224Y004605D01*
X014103Y004484D01*
X014038Y004326D01*
X014038Y004155D01*
X014103Y003997D01*
X014224Y003876D01*
X014318Y003837D01*
X014329Y003810D01*
X014414Y003726D01*
X014524Y003680D01*
X014643Y003680D01*
X014538Y003593D02*
X014531Y003596D01*
X014486Y003593D01*
X014440Y003593D01*
X014433Y003590D01*
X014426Y003590D01*
X014385Y003570D01*
X014366Y003563D01*
X014259Y003522D01*
X014007Y003492D01*
X013759Y003546D01*
X013541Y003677D01*
X013378Y003872D01*
X013287Y004109D01*
X013277Y004363D01*
X013350Y004606D01*
X013497Y004813D01*
X013589Y004890D01*
X013721Y004965D01*
X013965Y005206D01*
X013965Y005206D01*
X013965Y005206D01*
X014090Y005420D01*
X014100Y005406D01*
X014155Y005351D01*
X014218Y005305D01*
X014287Y005270D01*
X014361Y005246D01*
X014437Y005234D01*
X014437Y005473D01*
X014517Y005473D01*
X014517Y005234D01*
X014593Y005246D01*
X014667Y005270D01*
X014736Y005305D01*
X014763Y005324D01*
X014763Y005299D01*
X014754Y005196D01*
X014852Y004988D01*
X014852Y004988D01*
X015041Y004856D01*
X015115Y004850D01*
X015125Y004845D01*
X015167Y004845D01*
X015198Y004843D01*
X015193Y004789D01*
X015193Y004789D01*
X015287Y004580D01*
X015473Y004446D01*
X015548Y004439D01*
X015560Y004433D01*
X015600Y004433D01*
X015639Y004429D01*
X015652Y004433D01*
X016366Y004433D01*
X016454Y004469D01*
X016454Y004229D01*
X016388Y004164D01*
X016288Y004063D01*
X015656Y004063D01*
X015553Y004072D01*
X015345Y003975D01*
X015345Y003975D01*
X015345Y003975D01*
X015214Y003787D01*
X015214Y003787D01*
X015207Y003712D01*
X015202Y003700D01*
X015203Y003660D01*
X015201Y003633D01*
X015194Y003617D01*
X015180Y003602D01*
X015161Y003594D01*
X015150Y003593D01*
X014538Y003593D01*
X014532Y003595D02*
X015163Y003595D01*
X015203Y003674D02*
X013548Y003674D01*
X013479Y003752D02*
X014388Y003752D01*
X014321Y003831D02*
X013413Y003831D01*
X013364Y003909D02*
X014191Y003909D01*
X014113Y003988D02*
X013334Y003988D01*
X013303Y004066D02*
X014075Y004066D01*
X014042Y004145D02*
X013285Y004145D01*
X013282Y004223D02*
X014038Y004223D01*
X014038Y004302D02*
X013279Y004302D01*
X013282Y004380D02*
X014060Y004380D01*
X014093Y004459D02*
X013306Y004459D01*
X013329Y004537D02*
X014157Y004537D01*
X014250Y004616D02*
X013357Y004616D01*
X013413Y004694D02*
X015235Y004694D01*
X015271Y004616D02*
X014686Y004616D01*
X014779Y004537D02*
X015346Y004537D01*
X015287Y004580D02*
X015287Y004580D01*
X015455Y004459D02*
X014843Y004459D01*
X014876Y004380D02*
X016454Y004380D01*
X016454Y004302D02*
X014898Y004302D01*
X014898Y004223D02*
X016448Y004223D01*
X016369Y004145D02*
X014894Y004145D01*
X014873Y004066D02*
X015540Y004066D01*
X015553Y004072D02*
X015553Y004072D01*
X015621Y004066D02*
X016291Y004066D01*
X016428Y004459D02*
X016454Y004459D01*
X015473Y004446D02*
X015473Y004446D01*
X015200Y004773D02*
X013469Y004773D01*
X013543Y004851D02*
X015099Y004851D01*
X015041Y004856D02*
X015041Y004856D01*
X014935Y004930D02*
X013659Y004930D01*
X013721Y004965D02*
X013721Y004965D01*
X013764Y005008D02*
X014842Y005008D01*
X014852Y004988D02*
X014852Y004988D01*
X014806Y005087D02*
X013844Y005087D01*
X013923Y005165D02*
X014769Y005165D01*
X014754Y005196D02*
X014754Y005196D01*
X014758Y005244D02*
X014581Y005244D01*
X014517Y005244D02*
X014437Y005244D01*
X014374Y005244D02*
X013987Y005244D01*
X014033Y005322D02*
X014194Y005322D01*
X014105Y005401D02*
X014079Y005401D01*
X014437Y005401D02*
X014517Y005401D01*
X014517Y005322D02*
X014437Y005322D01*
X014760Y005322D02*
X014763Y005322D01*
X014884Y003988D02*
X015373Y003988D01*
X015299Y003909D02*
X014879Y003909D01*
X014846Y003831D02*
X015245Y003831D01*
X015211Y003752D02*
X014780Y003752D01*
X014524Y003595D02*
X013678Y003595D01*
X013895Y003517D02*
X014215Y003517D01*
X015780Y001554D02*
X000799Y001554D01*
X000799Y001476D02*
X015780Y001476D01*
X015780Y001397D02*
X000799Y001397D01*
X000799Y001319D02*
X015780Y001319D01*
X015780Y001240D02*
X000799Y001240D01*
X000799Y001162D02*
X015780Y001162D01*
X015780Y001083D02*
X000799Y001083D01*
X000799Y001005D02*
X015780Y001005D01*
X015780Y000926D02*
X000808Y000926D01*
X000855Y000848D02*
X015780Y000848D01*
X017248Y003674D02*
X017664Y003674D01*
X017664Y003752D02*
X017260Y003752D01*
X017034Y005636D02*
X019585Y005636D01*
X019543Y005715D02*
X016983Y005715D01*
X016869Y005793D02*
X019523Y005793D01*
X019523Y005872D02*
X016579Y005872D01*
X016579Y005950D02*
X019551Y005950D01*
X019514Y007756D02*
X021013Y007756D01*
X021013Y007834D02*
X019514Y007834D01*
X019514Y007913D02*
X021013Y007913D01*
X021013Y007991D02*
X019514Y007991D01*
X019514Y008070D02*
X021013Y008070D01*
X021013Y008148D02*
X019514Y008148D01*
X019514Y008227D02*
X021013Y008227D01*
X021013Y008305D02*
X019514Y008305D01*
X019514Y008384D02*
X021013Y008384D01*
X021013Y008462D02*
X019514Y008462D01*
X019514Y008541D02*
X021013Y008541D01*
X021013Y008619D02*
X019514Y008619D01*
X019514Y008698D02*
X021013Y008698D01*
X021013Y008776D02*
X019514Y008776D01*
X019514Y008855D02*
X021013Y008855D01*
X021013Y008933D02*
X019514Y008933D01*
X019514Y009012D02*
X021013Y009012D01*
X021013Y009090D02*
X019514Y009090D01*
X019514Y009169D02*
X021013Y009169D01*
X021013Y009247D02*
X019514Y009247D01*
X019514Y009326D02*
X021013Y009326D01*
X021013Y009404D02*
X020247Y009404D01*
X020321Y009483D02*
X021013Y009483D01*
X021013Y009561D02*
X020353Y009561D01*
X020364Y009640D02*
X021013Y009640D01*
X021013Y009718D02*
X020358Y009718D01*
X020326Y009797D02*
X021013Y009797D01*
X021013Y009875D02*
X020258Y009875D01*
X019881Y009404D02*
X019514Y009404D01*
X021013Y009954D02*
X010148Y009954D01*
X010183Y010032D02*
X010099Y010032D01*
X010102Y010111D02*
X010050Y010111D01*
X010060Y010189D02*
X010002Y010189D01*
X010012Y010268D02*
X009953Y010268D01*
X009964Y010346D02*
X009904Y010346D01*
X009916Y010425D02*
X009856Y010425D01*
X009857Y010503D02*
X009807Y010503D01*
X009777Y010553D02*
X009777Y010553D01*
X009794Y010582D02*
X009750Y010582D01*
X009730Y010660D02*
X009680Y010660D01*
X009667Y010739D02*
X009610Y010739D01*
X009603Y010817D02*
X009540Y010817D01*
X009540Y010896D02*
X009470Y010896D01*
X009477Y010974D02*
X009400Y010974D01*
X009404Y011053D02*
X009329Y011053D01*
X009314Y011131D02*
X009250Y011131D01*
X009224Y011210D02*
X009150Y011210D01*
X009134Y011288D02*
X009050Y011288D01*
X009044Y011367D02*
X008951Y011367D01*
X008954Y011445D02*
X008851Y011445D01*
X008860Y011524D02*
X008751Y011524D01*
X008698Y011566D02*
X008698Y011566D01*
X008729Y011602D02*
X008630Y011602D01*
X008599Y011681D02*
X008483Y011681D01*
X008469Y011759D02*
X008337Y011759D01*
X008338Y011838D02*
X008190Y011838D01*
X008234Y011900D02*
X007539Y012168D01*
X007197Y012250D01*
X006275Y012250D01*
X006086Y012329D01*
X006086Y012329D01*
X005941Y012473D01*
X005941Y012473D01*
X005863Y012663D01*
X005863Y013868D01*
X005941Y014057D01*
X005941Y014057D01*
X006086Y014202D01*
X006086Y014202D01*
X006275Y014280D01*
X006963Y014280D01*
X006963Y015950D01*
X006468Y015950D01*
X006371Y015991D01*
X006353Y016009D01*
X005901Y016009D01*
X005883Y015991D01*
X005786Y015950D01*
X005508Y015950D01*
X005542Y015869D01*
X005542Y015719D01*
X005485Y015582D01*
X005467Y015564D01*
X005467Y012233D01*
X005468Y012230D01*
X007280Y012230D01*
X007316Y012152D02*
X007581Y012152D01*
X007567Y012073D02*
X007785Y012073D01*
X007806Y011995D02*
X007989Y011995D01*
X008044Y011916D02*
X007338Y012149D01*
X007008Y012196D01*
X006987Y012205D01*
X006949Y012205D01*
X006912Y012210D01*
X006890Y012205D01*
X005576Y012205D01*
X005565Y012208D01*
X005517Y012205D01*
X005496Y012205D01*
X005485Y012208D01*
X005474Y012218D01*
X005468Y012230D01*
X005467Y012309D02*
X006134Y012309D01*
X006027Y012387D02*
X005467Y012387D01*
X005467Y012466D02*
X005949Y012466D01*
X005912Y012544D02*
X005467Y012544D01*
X005467Y012623D02*
X005879Y012623D01*
X005863Y012701D02*
X005467Y012701D01*
X005467Y012780D02*
X005863Y012780D01*
X005863Y012858D02*
X005467Y012858D01*
X005467Y012937D02*
X005863Y012937D01*
X005863Y013015D02*
X005467Y013015D01*
X005467Y013094D02*
X005863Y013094D01*
X005863Y013172D02*
X005467Y013172D01*
X005467Y013251D02*
X005863Y013251D01*
X005863Y013329D02*
X005467Y013329D01*
X005467Y013408D02*
X005863Y013408D01*
X005863Y013486D02*
X005467Y013486D01*
X005467Y013565D02*
X005863Y013565D01*
X005863Y013643D02*
X005467Y013643D01*
X005467Y013722D02*
X005863Y013722D01*
X005863Y013800D02*
X005467Y013800D01*
X005467Y013879D02*
X005867Y013879D01*
X005900Y013957D02*
X005467Y013957D01*
X005467Y014036D02*
X005932Y014036D01*
X005999Y014114D02*
X005467Y014114D01*
X005467Y014193D02*
X006077Y014193D01*
X006254Y014271D02*
X005467Y014271D01*
X005467Y014350D02*
X006963Y014350D01*
X006963Y014428D02*
X005467Y014428D01*
X005467Y014507D02*
X006963Y014507D01*
X006963Y014585D02*
X005467Y014585D01*
X005467Y014664D02*
X006963Y014664D01*
X006963Y014742D02*
X005467Y014742D01*
X005467Y014821D02*
X006963Y014821D01*
X006963Y014899D02*
X005467Y014899D01*
X005467Y014978D02*
X006963Y014978D01*
X006963Y015056D02*
X005467Y015056D01*
X005467Y015135D02*
X006963Y015135D01*
X006963Y015213D02*
X005467Y015213D01*
X005467Y015292D02*
X006963Y015292D01*
X006963Y015370D02*
X005467Y015370D01*
X005467Y015449D02*
X006963Y015449D01*
X006963Y015527D02*
X005467Y015527D01*
X005495Y015606D02*
X006963Y015606D01*
X006963Y015684D02*
X005528Y015684D01*
X005542Y015763D02*
X006963Y015763D01*
X006963Y015841D02*
X005542Y015841D01*
X005521Y015920D02*
X006963Y015920D01*
X006363Y015998D02*
X005891Y015998D01*
X007703Y017572D02*
X007703Y017572D01*
X007338Y012149D02*
X007338Y012149D01*
X008044Y011916D02*
X008044Y011916D01*
X011482Y007677D02*
X000799Y007677D01*
X000799Y007599D02*
X011482Y007599D01*
X011482Y007520D02*
X000799Y007520D01*
X000799Y007442D02*
X011482Y007442D01*
X011482Y007363D02*
X000799Y007363D01*
X000799Y007285D02*
X011482Y007285D01*
X011482Y007206D02*
X000799Y007206D01*
X000799Y007128D02*
X011482Y007128D01*
X011482Y007049D02*
X000799Y007049D01*
X000799Y006971D02*
X011482Y006971D01*
X011482Y006892D02*
X000799Y006892D01*
X000799Y006814D02*
X011482Y006814D01*
X011482Y006735D02*
X000799Y006735D01*
X000799Y006657D02*
X011482Y006657D01*
X011482Y006578D02*
X000799Y006578D01*
X000799Y006500D02*
X011482Y006500D01*
X011482Y006421D02*
X000799Y006421D01*
X000799Y006343D02*
X011482Y006343D01*
X011482Y006264D02*
X000799Y006264D01*
X000799Y006186D02*
X011482Y006186D01*
X011482Y006107D02*
X000799Y006107D01*
X000799Y006029D02*
X011482Y006029D01*
X011482Y005950D02*
X000799Y005950D01*
X000799Y005872D02*
X011482Y005872D01*
X011482Y005793D02*
X000799Y005793D01*
X000799Y005715D02*
X011482Y005715D01*
X011482Y005636D02*
X000799Y005636D01*
X000799Y005558D02*
X011482Y005558D01*
X011482Y005479D02*
X000799Y005479D01*
X000799Y005401D02*
X011482Y005401D01*
X011482Y005322D02*
X000799Y005322D01*
X000799Y005244D02*
X011482Y005244D01*
X011482Y005165D02*
X000799Y005165D01*
X000799Y005087D02*
X011482Y005087D01*
X011482Y005008D02*
X000799Y005008D01*
X000799Y004930D02*
X011482Y004930D01*
X011482Y004851D02*
X000799Y004851D01*
X000799Y004773D02*
X011482Y004773D01*
X011482Y004694D02*
X000799Y004694D01*
X000799Y004616D02*
X011482Y004616D01*
X011482Y004537D02*
X000799Y004537D01*
X000799Y004459D02*
X011482Y004459D01*
X011482Y004380D02*
X000799Y004380D01*
X000799Y004302D02*
X011482Y004302D01*
X011482Y004223D02*
X000799Y004223D01*
X000799Y004145D02*
X011482Y004145D01*
X011482Y004066D02*
X000799Y004066D01*
X000799Y003988D02*
X011482Y003988D01*
X011482Y003909D02*
X000799Y003909D01*
X000799Y003831D02*
X011482Y003831D01*
X011482Y003752D02*
X000799Y003752D01*
X000799Y003674D02*
X011482Y003674D01*
X011482Y003595D02*
X000799Y003595D01*
X000799Y003517D02*
X011482Y003517D01*
X011482Y003438D02*
X000799Y003438D01*
X000799Y003360D02*
X011482Y003360D01*
X011482Y003281D02*
X000799Y003281D01*
X000799Y003203D02*
X011482Y003203D01*
X011482Y003124D02*
X000799Y003124D01*
X000799Y003046D02*
X011482Y003046D01*
X011482Y002967D02*
X000799Y002967D01*
X000799Y002889D02*
X011482Y002889D01*
X011482Y002810D02*
X000799Y002810D01*
X000799Y002732D02*
X011482Y002732D01*
X011482Y002653D02*
X000799Y002653D01*
X000799Y002575D02*
X011482Y002575D01*
X011482Y002496D02*
X000799Y002496D01*
X000799Y002418D02*
X011482Y002418D01*
X011482Y002339D02*
X000799Y002339D01*
X000799Y002261D02*
X011482Y002261D01*
X011482Y002182D02*
X000799Y002182D01*
X000799Y002104D02*
X011480Y002104D01*
X011478Y002049D02*
X011478Y002049D01*
X011487Y002025D02*
X000799Y002025D01*
X000799Y001947D02*
X011517Y001947D01*
X011546Y001868D02*
X000799Y001868D01*
X000799Y001790D02*
X011614Y001790D01*
X011550Y001859D02*
X011550Y001859D01*
X011688Y001711D02*
X000799Y001711D01*
X000799Y001633D02*
X011860Y001633D01*
X011873Y001627D02*
X011873Y001627D01*
X011688Y001711D02*
X011688Y001711D01*
X016579Y005793D02*
X016651Y005793D01*
X022529Y001554D02*
X024678Y001554D01*
X024678Y001476D02*
X022529Y001476D01*
X022529Y001397D02*
X024678Y001397D01*
X024678Y001319D02*
X022529Y001319D01*
X022529Y001240D02*
X024678Y001240D01*
X024678Y001162D02*
X022529Y001162D01*
X022529Y001083D02*
X024678Y001083D01*
X024668Y001005D02*
X022529Y001005D01*
X022529Y000926D02*
X024626Y000926D01*
X024545Y000848D02*
X022529Y000848D01*
X023578Y001624D02*
X023578Y001624D01*
X023598Y001633D02*
X024678Y001633D01*
X024678Y001711D02*
X023783Y001711D01*
X023783Y001711D01*
X023861Y001790D02*
X024678Y001790D01*
X024678Y001868D02*
X023938Y001868D01*
X023940Y001870D02*
X023940Y001870D01*
X023971Y001947D02*
X024678Y001947D01*
X024678Y002025D02*
X024003Y002025D01*
X024024Y002076D02*
X024024Y002076D01*
X024023Y002104D02*
X024678Y002104D01*
X024678Y002182D02*
X024023Y002182D01*
X024023Y002261D02*
X024678Y002261D01*
X024678Y002339D02*
X024023Y002339D01*
X024023Y002418D02*
X024678Y002418D01*
X024678Y002496D02*
X024023Y002496D01*
X024023Y002575D02*
X024678Y002575D01*
X024678Y002653D02*
X024023Y002653D01*
X024023Y002732D02*
X024678Y002732D01*
X024678Y002810D02*
X024023Y002810D01*
X024023Y002889D02*
X024678Y002889D01*
X024678Y002967D02*
X024023Y002967D01*
X024023Y003046D02*
X024678Y003046D01*
X024678Y003124D02*
X024023Y003124D01*
X024023Y003203D02*
X024678Y003203D01*
X024678Y003281D02*
X024023Y003281D01*
X024023Y003360D02*
X024678Y003360D01*
X024678Y003438D02*
X024023Y003438D01*
X024023Y003517D02*
X024678Y003517D01*
X024678Y003595D02*
X024023Y003595D01*
X024023Y003674D02*
X024678Y003674D01*
X024678Y003752D02*
X024023Y003752D01*
X024023Y003831D02*
X024678Y003831D01*
X024678Y003909D02*
X024023Y003909D01*
X024023Y003988D02*
X024678Y003988D01*
X024678Y004066D02*
X024023Y004066D01*
X024023Y004145D02*
X024678Y004145D01*
X024678Y004223D02*
X024023Y004223D01*
X024023Y004302D02*
X024678Y004302D01*
X024678Y004380D02*
X024023Y004380D01*
X024023Y004459D02*
X024678Y004459D01*
X024678Y004537D02*
X024023Y004537D01*
X024023Y004616D02*
X024678Y004616D01*
X024678Y004694D02*
X024023Y004694D01*
X017775Y011521D02*
X017775Y011521D01*
D18*
X016660Y007354D03*
X016660Y007104D03*
X016660Y006854D03*
X016660Y006604D03*
D19*
X017200Y007314D02*
X017200Y009199D01*
X017184Y009215D01*
X018984Y009646D02*
X019284Y009646D01*
X019284Y006934D01*
X020009Y007314D02*
X020009Y006009D01*
X020007Y005983D01*
X020001Y005957D01*
X019992Y005932D01*
X019979Y005908D01*
X019964Y005887D01*
X019945Y005868D01*
X019924Y005853D01*
X019900Y005840D01*
X019875Y005831D01*
X019849Y005825D01*
X019823Y005823D01*
X021909Y003609D02*
X022334Y004034D01*
X022484Y004034D01*
X022484Y003704D02*
X022354Y003704D01*
X022064Y003404D01*
X017094Y003404D01*
X017094Y003403D02*
X017073Y003405D01*
X017053Y003410D01*
X017033Y003418D01*
X017015Y003429D01*
X016999Y003442D01*
X016986Y003458D01*
X016975Y003476D01*
X016967Y003496D01*
X016962Y003516D01*
X016960Y003537D01*
X016960Y003762D01*
X016684Y004134D02*
X016484Y003934D01*
X016484Y002984D01*
X016486Y002954D01*
X016491Y002924D01*
X016500Y002895D01*
X016513Y002868D01*
X016528Y002842D01*
X016547Y002818D01*
X016568Y002797D01*
X016592Y002778D01*
X016618Y002763D01*
X016645Y002750D01*
X016674Y002741D01*
X016704Y002736D01*
X016734Y002734D01*
X016784Y002734D01*
X017964Y003709D02*
X018064Y003609D01*
X021909Y003609D01*
X016684Y004134D02*
X016684Y005434D01*
X016760Y005510D01*
X016760Y005514D01*
X014623Y005340D02*
X014477Y005728D01*
X014468Y004240D02*
X014468Y004046D01*
X014584Y003980D01*
X019284Y009646D02*
X020064Y009646D01*
X020884Y010015D02*
X020884Y010044D01*
X020884Y010015D02*
X020908Y010015D01*
D20*
X020884Y010044D02*
X020934Y010044D01*
X020884Y010044D02*
X010174Y010044D01*
D21*
X010028Y009465D02*
X010128Y009215D01*
X015134Y009215D01*
X015084Y009165D01*
X015084Y008629D01*
X015084Y008284D02*
X015029Y008279D01*
X014710Y008279D01*
X015084Y007934D02*
X015084Y007929D01*
X015134Y009215D02*
X017184Y009215D01*
X017615Y009215D01*
X010028Y009465D02*
X010027Y009465D01*
X006928Y011905D02*
X005528Y011905D01*
X005528Y011904D02*
X005493Y011903D01*
X005458Y011906D01*
X005423Y011913D01*
X005389Y011923D01*
X005357Y011936D01*
X005326Y011953D01*
X005297Y011974D01*
X005270Y011997D01*
X005246Y012022D01*
X005224Y012050D01*
X005206Y012080D01*
X005191Y012112D01*
X005179Y012146D01*
X005171Y012180D01*
X005167Y012215D01*
X005167Y015794D01*
X006928Y011905D02*
X007113Y011873D01*
X007296Y011833D01*
X007478Y011785D01*
X007656Y011728D01*
X007832Y011662D01*
X008005Y011588D01*
X008174Y011506D01*
X008338Y011416D01*
X008499Y011318D01*
X008654Y011213D01*
X008804Y011100D01*
X008949Y010981D01*
X009088Y010854D01*
X009220Y010722D01*
X009347Y010583D01*
X009466Y010438D01*
X009579Y010287D01*
X009684Y010132D01*
X009781Y009972D01*
X009871Y009807D01*
X009953Y009638D01*
X010027Y009465D01*
D22*
X005167Y015794D03*
D23*
X015084Y008629D02*
X015084Y008284D01*
X015084Y007934D01*
X017615Y009215D02*
X017924Y009215D01*
D24*
X017924Y009215D03*
X017624Y009215D03*
M02*
