G75*
G70*
%OFA0B0*%
%FSLAX24Y24*%
%IPPOS*%
%LPD*%
%AMOC8*
5,1,8,0,0,1.08239X$1,22.5*
%
%ADD10C,0.0050*%
%ADD11R,0.0197X0.0220*%
%ADD12R,0.0315X0.0472*%
%ADD13R,0.0250X0.0472*%
%ADD14C,0.0004*%
%ADD15C,0.0433*%
%ADD16R,0.0220X0.0197*%
%ADD17C,0.0450*%
%ADD18C,0.0709*%
%ADD19R,0.0600X0.0236*%
%ADD20R,0.1450X0.0350*%
%ADD21C,0.0512*%
%ADD22R,0.0197X0.0250*%
%ADD23R,0.0551X0.0236*%
%ADD24R,0.0551X0.1181*%
%ADD25R,0.0551X0.0906*%
%ADD26R,0.0250X0.0354*%
%ADD27C,0.0984*%
%ADD28C,0.0240*%
%ADD29C,0.0080*%
%ADD30C,0.0400*%
%ADD31C,0.0100*%
%ADD32C,0.0220*%
%ADD33C,0.0120*%
%ADD34C,0.0140*%
%ADD35C,0.0200*%
%ADD36C,0.0070*%
%ADD37C,0.0240*%
%ADD38C,0.0230*%
%ADD39C,0.0390*%
%ADD40C,0.0160*%
%ADD41C,0.0280*%
%ADD42C,0.0300*%
D10*
X000929Y000534D02*
X015972Y000534D01*
X015972Y000562D01*
X015976Y000590D01*
X015983Y000617D01*
X015994Y000643D01*
X016008Y000667D01*
X016025Y000689D01*
X016045Y000709D01*
X016067Y000726D01*
X016091Y000740D01*
X016117Y000751D01*
X016144Y000758D01*
X016172Y000762D01*
X016322Y000762D01*
X016350Y000758D01*
X016377Y000751D01*
X016403Y000740D01*
X016427Y000726D01*
X016449Y000709D01*
X016469Y000689D01*
X016486Y000667D01*
X016500Y000643D01*
X016511Y000617D01*
X016518Y000590D01*
X016522Y000562D01*
X016522Y000534D01*
X021709Y000534D01*
X021709Y000562D01*
X021713Y000590D01*
X021720Y000617D01*
X021731Y000643D01*
X021745Y000667D01*
X021762Y000689D01*
X021782Y000709D01*
X021804Y000726D01*
X021828Y000740D01*
X021854Y000751D01*
X021881Y000758D01*
X021909Y000762D01*
X022059Y000762D01*
X022088Y000758D01*
X022115Y000751D01*
X022141Y000741D01*
X022166Y000727D01*
X022189Y000710D01*
X022209Y000690D01*
X022227Y000668D01*
X022241Y000643D01*
X022253Y000617D01*
X022260Y000590D01*
X022264Y000562D01*
X022265Y000534D01*
X022264Y000534D02*
X024328Y000534D01*
X024327Y000533D02*
X024374Y000530D01*
X024420Y000531D01*
X024466Y000536D01*
X024512Y000544D01*
X024556Y000557D01*
X024600Y000573D01*
X024642Y000592D01*
X024682Y000615D01*
X024720Y000641D01*
X024756Y000671D01*
X024790Y000703D01*
X024821Y000737D01*
X024848Y000775D01*
X024873Y000814D01*
X024894Y000855D01*
X024912Y000898D01*
X024926Y000942D01*
X024936Y000987D01*
X024943Y001033D01*
X024943Y001034D02*
X024943Y017752D01*
X024943Y017753D02*
X024936Y017798D01*
X024926Y017844D01*
X024911Y017888D01*
X024894Y017930D01*
X024872Y017971D01*
X024848Y018011D01*
X024820Y018048D01*
X024789Y018082D01*
X024756Y018114D01*
X024720Y018143D01*
X024682Y018170D01*
X024641Y018192D01*
X024599Y018212D01*
X024556Y018228D01*
X024511Y018240D01*
X024466Y018248D01*
X024420Y018253D01*
X024374Y018254D01*
X024327Y018251D01*
X024328Y018250D02*
X000929Y018250D01*
X000930Y018250D02*
X000889Y018243D01*
X000849Y018233D01*
X000809Y018219D01*
X000772Y018201D01*
X000736Y018180D01*
X000702Y018156D01*
X000671Y018129D01*
X000642Y018099D01*
X000616Y018066D01*
X000593Y018032D01*
X000574Y017995D01*
X000558Y017956D01*
X000546Y017917D01*
X000537Y017876D01*
X000532Y017835D01*
X000531Y017793D01*
X000534Y017752D01*
X000534Y001034D01*
X000531Y000993D01*
X000532Y000951D01*
X000537Y000910D01*
X000545Y000869D01*
X000558Y000829D01*
X000574Y000791D01*
X000593Y000754D01*
X000616Y000719D01*
X000642Y000686D01*
X000670Y000656D01*
X000702Y000629D01*
X000736Y000604D01*
X000772Y000583D01*
X000809Y000565D01*
X000848Y000551D01*
X000889Y000541D01*
X000930Y000534D01*
X009437Y007981D02*
X009399Y008165D01*
X009352Y008348D01*
X009296Y008528D01*
X009232Y008705D01*
X009159Y008878D01*
X009077Y009048D01*
X008988Y009214D01*
X008890Y009375D01*
X008785Y009532D01*
X008672Y009683D01*
X008552Y009828D01*
X008425Y009967D01*
X008291Y010100D01*
X008151Y010226D01*
X008005Y010345D01*
X007854Y010457D01*
X007697Y010562D01*
X007535Y010659D01*
X007369Y010747D01*
X007199Y010828D01*
X007025Y010900D01*
X006847Y010964D01*
X006667Y011019D01*
X006484Y011065D01*
X004578Y011065D01*
X004548Y011067D01*
X004518Y011072D01*
X004489Y011081D01*
X004462Y011094D01*
X004436Y011109D01*
X004412Y011128D01*
X004391Y011149D01*
X004372Y011173D01*
X004357Y011199D01*
X004344Y011226D01*
X004335Y011255D01*
X004330Y011285D01*
X004328Y011315D01*
X004328Y013595D01*
X004326Y013649D01*
X004320Y013702D01*
X004311Y013754D01*
X004298Y013806D01*
X004281Y013857D01*
X004260Y013907D01*
X004236Y013954D01*
X004209Y014000D01*
X004178Y014044D01*
X004145Y014086D01*
X004108Y014125D01*
X004069Y014162D01*
X004027Y014195D01*
X003983Y014226D01*
X003937Y014253D01*
X003890Y014277D01*
X003840Y014298D01*
X003789Y014315D01*
X003737Y014328D01*
X003685Y014337D01*
X003632Y014343D01*
X003578Y014345D01*
X002387Y014345D01*
X002341Y014350D01*
X002296Y014359D01*
X002251Y014371D01*
X002207Y014386D01*
X002165Y014405D01*
X002124Y014428D01*
X002085Y014453D01*
X002048Y014481D01*
X002014Y014512D01*
X001982Y014546D01*
X001953Y014582D01*
X001927Y014621D01*
X001903Y014661D01*
X001884Y014703D01*
X001867Y014746D01*
X001854Y014791D01*
X001844Y014836D01*
X001838Y014882D01*
X001836Y014928D01*
X001837Y014975D01*
X001837Y016756D01*
X001839Y016801D01*
X001845Y016847D01*
X001854Y016891D01*
X001867Y016935D01*
X001883Y016977D01*
X001903Y017018D01*
X001927Y017057D01*
X001953Y017094D01*
X001982Y017129D01*
X002014Y017161D01*
X002049Y017190D01*
X002086Y017216D01*
X002125Y017240D01*
X002166Y017260D01*
X002208Y017276D01*
X002252Y017289D01*
X002296Y017298D01*
X002342Y017304D01*
X002387Y017306D01*
X005733Y017306D01*
X005733Y016215D01*
X005078Y016215D01*
X005055Y016217D01*
X005032Y016222D01*
X005010Y016231D01*
X004990Y016244D01*
X004972Y016259D01*
X004957Y016277D01*
X004944Y016297D01*
X004935Y016319D01*
X004930Y016342D01*
X004928Y016365D01*
X004928Y016665D01*
X004926Y016688D01*
X004921Y016711D01*
X004912Y016733D01*
X004899Y016753D01*
X004884Y016771D01*
X004866Y016786D01*
X004846Y016799D01*
X004824Y016808D01*
X004801Y016813D01*
X004778Y016815D01*
X002928Y016815D01*
X002883Y016813D01*
X002837Y016807D01*
X002793Y016798D01*
X002749Y016785D01*
X002707Y016769D01*
X002666Y016749D01*
X002627Y016725D01*
X002590Y016699D01*
X002555Y016670D01*
X002523Y016638D01*
X002494Y016603D01*
X002468Y016566D01*
X002444Y016527D01*
X002424Y016486D01*
X002408Y016444D01*
X002395Y016400D01*
X002386Y016356D01*
X002380Y016310D01*
X002378Y016265D01*
X002378Y015495D01*
X002380Y015450D01*
X002386Y015404D01*
X002395Y015360D01*
X002408Y015316D01*
X002424Y015274D01*
X002444Y015233D01*
X002468Y015194D01*
X002494Y015157D01*
X002523Y015122D01*
X002555Y015090D01*
X002590Y015061D01*
X002627Y015035D01*
X002666Y015011D01*
X002707Y014991D01*
X002749Y014975D01*
X002793Y014962D01*
X002837Y014953D01*
X002883Y014947D01*
X002928Y014945D01*
X004178Y014945D01*
X004232Y014943D01*
X004285Y014937D01*
X004337Y014928D01*
X004389Y014915D01*
X004440Y014898D01*
X004490Y014877D01*
X004537Y014853D01*
X004583Y014826D01*
X004627Y014795D01*
X004669Y014762D01*
X004708Y014725D01*
X004745Y014686D01*
X004778Y014644D01*
X004809Y014600D01*
X004836Y014554D01*
X004860Y014507D01*
X004881Y014457D01*
X004898Y014406D01*
X004911Y014354D01*
X004920Y014302D01*
X004926Y014249D01*
X004928Y014195D01*
X004928Y011915D01*
X004930Y011885D01*
X004935Y011855D01*
X004944Y011826D01*
X004957Y011799D01*
X004972Y011773D01*
X004991Y011749D01*
X005012Y011728D01*
X005036Y011709D01*
X005062Y011694D01*
X005089Y011681D01*
X005118Y011672D01*
X005148Y011667D01*
X005178Y011665D01*
X006878Y011665D01*
X007228Y012515D02*
X006378Y012515D01*
X006348Y012517D01*
X006318Y012522D01*
X006289Y012531D01*
X006262Y012544D01*
X006236Y012559D01*
X006212Y012578D01*
X006191Y012599D01*
X006172Y012623D01*
X006157Y012649D01*
X006144Y012676D01*
X006135Y012705D01*
X006130Y012735D01*
X006128Y012765D01*
X006128Y013765D01*
X006130Y013795D01*
X006135Y013825D01*
X006144Y013854D01*
X006157Y013881D01*
X006172Y013907D01*
X006191Y013931D01*
X006212Y013952D01*
X006236Y013971D01*
X006262Y013986D01*
X006289Y013999D01*
X006318Y014008D01*
X006348Y014013D01*
X006378Y014015D01*
X006978Y014015D01*
X007008Y014017D01*
X007038Y014022D01*
X007067Y014031D01*
X007094Y014044D01*
X007120Y014059D01*
X007144Y014078D01*
X007165Y014099D01*
X007184Y014123D01*
X007199Y014149D01*
X007212Y014176D01*
X007221Y014205D01*
X007226Y014235D01*
X007228Y014265D01*
X007228Y015965D01*
X007226Y015995D01*
X007221Y016025D01*
X007212Y016054D01*
X007199Y016081D01*
X007184Y016107D01*
X007165Y016131D01*
X007144Y016152D01*
X007120Y016171D01*
X007094Y016186D01*
X007067Y016199D01*
X007038Y016208D01*
X007008Y016213D01*
X006978Y016215D01*
X006521Y016215D01*
X006521Y017306D01*
X007568Y017306D01*
X007569Y017306D02*
X007599Y017304D01*
X007628Y017299D01*
X007657Y017291D01*
X007684Y017279D01*
X007710Y017263D01*
X007734Y017245D01*
X007755Y017224D01*
X007774Y017201D01*
X007790Y017175D01*
X007802Y017148D01*
X007811Y017119D01*
X007817Y017090D01*
X007819Y017060D01*
X007818Y017060D02*
X007818Y013156D01*
X010657Y011256D02*
X016908Y011256D01*
X016908Y010259D01*
X010328Y010259D01*
X009928Y008965D02*
X010960Y008965D01*
X010960Y007981D01*
X009437Y007981D01*
X011747Y008965D02*
X011747Y002142D01*
X011747Y002141D02*
X011748Y002112D01*
X011752Y002083D01*
X011760Y002054D01*
X011771Y002027D01*
X011786Y002001D01*
X011803Y001977D01*
X011823Y001955D01*
X011846Y001936D01*
X011871Y001920D01*
X011897Y001907D01*
X011925Y001897D01*
X011954Y001891D01*
X011984Y001888D01*
X011983Y001888D02*
X015972Y001888D01*
X015972Y001860D01*
X015976Y001832D01*
X015983Y001805D01*
X015994Y001779D01*
X016008Y001755D01*
X016025Y001733D01*
X016045Y001713D01*
X016067Y001696D01*
X016091Y001682D01*
X016117Y001671D01*
X016144Y001664D01*
X016172Y001660D01*
X016322Y001660D01*
X016350Y001664D01*
X016377Y001671D01*
X016403Y001682D01*
X016427Y001696D01*
X016449Y001713D01*
X016469Y001733D01*
X016486Y001755D01*
X016500Y001779D01*
X016511Y001805D01*
X016518Y001832D01*
X016522Y001860D01*
X016522Y001888D01*
X021709Y001888D01*
X021709Y001860D01*
X021713Y001832D01*
X021720Y001805D01*
X021731Y001779D01*
X021745Y001755D01*
X021762Y001733D01*
X021782Y001713D01*
X021804Y001696D01*
X021828Y001682D01*
X021854Y001671D01*
X021881Y001664D01*
X021909Y001660D01*
X022059Y001660D01*
X022088Y001664D01*
X022115Y001671D01*
X022141Y001681D01*
X022166Y001695D01*
X022189Y001712D01*
X022209Y001732D01*
X022227Y001754D01*
X022241Y001779D01*
X022253Y001805D01*
X022260Y001832D01*
X022264Y001860D01*
X022265Y001888D01*
X022264Y001888D02*
X023464Y001888D01*
X023497Y001890D01*
X023530Y001896D01*
X023562Y001905D01*
X023592Y001918D01*
X023621Y001935D01*
X023648Y001954D01*
X023673Y001976D01*
X023695Y002001D01*
X023714Y002028D01*
X023730Y002058D01*
X023742Y002088D01*
X023751Y002120D01*
X023756Y002153D01*
X023758Y002186D01*
X023758Y006464D01*
X021278Y006464D01*
X021278Y005715D01*
X021282Y005676D01*
X021290Y005637D01*
X021301Y005600D01*
X021315Y005563D01*
X021333Y005528D01*
X021355Y005495D01*
X021379Y005464D01*
X021406Y005435D01*
X021435Y005409D01*
X021467Y005386D01*
X021500Y005365D01*
X021536Y005348D01*
X021573Y005334D01*
X021611Y005324D01*
X021649Y005317D01*
X021689Y005314D01*
X021728Y005315D01*
X022828Y005315D01*
X022827Y005316D02*
X022863Y005311D01*
X022899Y005303D01*
X022933Y005291D01*
X022967Y005276D01*
X022998Y005258D01*
X023028Y005237D01*
X023055Y005213D01*
X023080Y005186D01*
X023102Y005157D01*
X023121Y005126D01*
X023137Y005094D01*
X023150Y005059D01*
X023160Y005024D01*
X023166Y004988D01*
X023168Y004952D01*
X023167Y004916D01*
X023167Y004915D02*
X023167Y002977D01*
X023165Y002944D01*
X023160Y002912D01*
X023151Y002880D01*
X023138Y002849D01*
X023122Y002821D01*
X023103Y002794D01*
X023081Y002769D01*
X023056Y002747D01*
X023029Y002728D01*
X023001Y002712D01*
X022970Y002699D01*
X022938Y002690D01*
X022906Y002685D01*
X022873Y002683D01*
X021424Y002565D02*
X016564Y002479D01*
X016534Y002481D01*
X016504Y002486D01*
X016475Y002495D01*
X016448Y002508D01*
X016422Y002523D01*
X016398Y002542D01*
X016377Y002563D01*
X016358Y002587D01*
X016343Y002613D01*
X016330Y002640D01*
X016321Y002669D01*
X016316Y002699D01*
X016314Y002729D01*
X016314Y003798D01*
X015645Y003798D01*
X015622Y003799D01*
X015599Y003796D01*
X015576Y003790D01*
X015555Y003780D01*
X015535Y003768D01*
X015517Y003753D01*
X015502Y003736D01*
X015489Y003716D01*
X015479Y003695D01*
X015472Y003673D01*
X015469Y003650D01*
X015468Y003649D02*
X015467Y003616D01*
X015462Y003583D01*
X015453Y003551D01*
X015442Y003520D01*
X015427Y003490D01*
X015409Y003462D01*
X015388Y003436D01*
X015365Y003412D01*
X015340Y003391D01*
X015312Y003372D01*
X015282Y003357D01*
X015251Y003345D01*
X015219Y003336D01*
X015186Y003330D01*
X015153Y003328D01*
X014493Y003328D01*
X014436Y003302D01*
X014377Y003280D01*
X014317Y003262D01*
X014255Y003248D01*
X014193Y003237D01*
X014131Y003230D01*
X014068Y003226D01*
X014005Y003227D01*
X013942Y003231D01*
X013880Y003239D01*
X013818Y003251D01*
X013757Y003267D01*
X013697Y003286D01*
X013639Y003309D01*
X013582Y003335D01*
X013526Y003365D01*
X013473Y003398D01*
X013421Y003434D01*
X013372Y003473D01*
X013326Y003515D01*
X013281Y003560D01*
X013240Y003608D01*
X013202Y003658D01*
X013167Y003710D01*
X013135Y003764D01*
X013106Y003820D01*
X013081Y003878D01*
X013059Y003937D01*
X013041Y003997D01*
X013027Y004058D01*
X013016Y004120D01*
X013009Y004183D01*
X013006Y004246D01*
X013007Y004308D01*
X013011Y004371D01*
X013020Y004434D01*
X013032Y004495D01*
X013048Y004556D01*
X013067Y004616D01*
X013090Y004675D01*
X013117Y004732D01*
X013147Y004787D01*
X013180Y004840D01*
X013216Y004892D01*
X013256Y004941D01*
X013298Y004987D01*
X013343Y005031D01*
X013391Y005072D01*
X013441Y005110D01*
X013928Y005738D02*
X015028Y005738D01*
X015028Y005288D01*
X015029Y005288D02*
X015028Y005264D01*
X015031Y005241D01*
X015038Y005219D01*
X015047Y005197D01*
X015059Y005177D01*
X015075Y005160D01*
X015092Y005144D01*
X015112Y005131D01*
X015133Y005121D01*
X015155Y005114D01*
X015178Y005111D01*
X015178Y005110D02*
X015318Y005110D01*
X015341Y005106D01*
X015363Y005100D01*
X015384Y005091D01*
X015403Y005078D01*
X015421Y005063D01*
X015436Y005046D01*
X015448Y005027D01*
X015458Y005006D01*
X015464Y004984D01*
X015468Y004961D01*
X015468Y004938D01*
X015468Y004876D01*
X015469Y004876D02*
X015468Y004853D01*
X015471Y004830D01*
X015477Y004808D01*
X015486Y004787D01*
X015498Y004767D01*
X015512Y004749D01*
X015529Y004733D01*
X015548Y004720D01*
X015569Y004710D01*
X015591Y004703D01*
X015614Y004699D01*
X015613Y004698D02*
X016314Y004698D01*
X016314Y006881D01*
X016314Y006880D02*
X016310Y006913D01*
X016303Y006944D01*
X016293Y006975D01*
X016279Y007005D01*
X016262Y007032D01*
X016242Y007058D01*
X016219Y007081D01*
X016193Y007101D01*
X016166Y007119D01*
X016137Y007133D01*
X016106Y007144D01*
X016074Y007152D01*
X016042Y007155D01*
X016010Y007156D01*
X016009Y007156D02*
X015014Y007156D01*
X014979Y007160D01*
X014944Y007169D01*
X014910Y007180D01*
X014878Y007195D01*
X014847Y007214D01*
X014819Y007236D01*
X014793Y007260D01*
X014770Y007287D01*
X014749Y007316D01*
X014732Y007348D01*
X014718Y007381D01*
X014708Y007415D01*
X014701Y007450D01*
X014698Y007485D01*
X014699Y007521D01*
X014699Y008765D01*
X014700Y008765D02*
X014697Y008792D01*
X014690Y008819D01*
X014680Y008845D01*
X014666Y008869D01*
X014650Y008891D01*
X014630Y008911D01*
X014609Y008928D01*
X014585Y008942D01*
X014560Y008953D01*
X014533Y008960D01*
X014506Y008964D01*
X014478Y008965D01*
X011747Y008965D01*
X013928Y005738D02*
X013910Y005678D01*
X013888Y005619D01*
X013862Y005562D01*
X013833Y005506D01*
X013801Y005453D01*
X013765Y005401D01*
X013727Y005351D01*
X013686Y005304D01*
X013641Y005259D01*
X013595Y005218D01*
X013545Y005179D01*
X013494Y005143D01*
X013440Y005110D01*
X010657Y011256D02*
X010530Y011434D01*
X010394Y011605D01*
X010250Y011770D01*
X010099Y011928D01*
X009940Y012078D01*
X009774Y012221D01*
X009601Y012356D01*
X009422Y012482D01*
X009238Y012599D01*
X009047Y012707D01*
X008852Y012806D01*
X008653Y012896D01*
X008449Y012976D01*
X008242Y013046D01*
X008031Y013106D01*
X007818Y013156D01*
X003728Y015815D02*
X003728Y015965D01*
X003726Y016004D01*
X003720Y016043D01*
X003711Y016081D01*
X003698Y016118D01*
X003681Y016154D01*
X003661Y016187D01*
X003637Y016219D01*
X003611Y016248D01*
X003582Y016274D01*
X003550Y016298D01*
X003517Y016318D01*
X003481Y016335D01*
X003444Y016348D01*
X003406Y016357D01*
X003367Y016363D01*
X003328Y016365D01*
X003289Y016363D01*
X003250Y016357D01*
X003212Y016348D01*
X003175Y016335D01*
X003139Y016318D01*
X003106Y016298D01*
X003074Y016274D01*
X003045Y016248D01*
X003019Y016219D01*
X002995Y016187D01*
X002975Y016154D01*
X002958Y016118D01*
X002945Y016081D01*
X002936Y016043D01*
X002930Y016004D01*
X002928Y015965D01*
X002928Y015815D01*
X002930Y015776D01*
X002936Y015737D01*
X002945Y015699D01*
X002958Y015662D01*
X002975Y015626D01*
X002995Y015593D01*
X003019Y015561D01*
X003045Y015532D01*
X003074Y015506D01*
X003106Y015482D01*
X003139Y015462D01*
X003175Y015445D01*
X003212Y015432D01*
X003250Y015423D01*
X003289Y015417D01*
X003328Y015415D01*
X003367Y015417D01*
X003406Y015423D01*
X003444Y015432D01*
X003481Y015445D01*
X003517Y015462D01*
X003550Y015482D01*
X003582Y015506D01*
X003611Y015532D01*
X003637Y015561D01*
X003661Y015593D01*
X003681Y015626D01*
X003698Y015662D01*
X003711Y015699D01*
X003720Y015737D01*
X003726Y015776D01*
X003728Y015815D01*
X007228Y012515D02*
X007443Y012468D01*
X007655Y012410D01*
X007864Y012342D01*
X008070Y012264D01*
X008271Y012176D01*
X008469Y012079D01*
X008661Y011972D01*
X008847Y011856D01*
X009028Y011730D01*
X009203Y011597D01*
X009371Y011455D01*
X009532Y011305D01*
X009685Y011147D01*
X009831Y010983D01*
X009968Y010811D01*
X010097Y010633D01*
X010217Y010449D01*
X010328Y010259D01*
X009928Y008965D02*
X009877Y009137D01*
X009818Y009307D01*
X009751Y009474D01*
X009675Y009637D01*
X009592Y009797D01*
X009501Y009952D01*
X009403Y010102D01*
X009298Y010248D01*
X009185Y010388D01*
X009066Y010523D01*
X008941Y010652D01*
X008809Y010774D01*
X008671Y010890D01*
X008528Y010999D01*
X008380Y011101D01*
X008227Y011195D01*
X008070Y011282D01*
X007909Y011362D01*
X007744Y011433D01*
X007576Y011496D01*
X007404Y011551D01*
X007231Y011598D01*
X007055Y011636D01*
X006878Y011665D01*
X017695Y011256D02*
X017695Y010259D01*
X021028Y010259D01*
X021058Y010258D01*
X021087Y010253D01*
X021116Y010244D01*
X021143Y010232D01*
X021169Y010217D01*
X021192Y010199D01*
X021214Y010178D01*
X021232Y010155D01*
X021248Y010130D01*
X021261Y010103D01*
X021270Y010074D01*
X021276Y010045D01*
X021278Y010015D01*
X021278Y007252D01*
X023758Y007252D01*
X023758Y010915D01*
X023757Y010916D02*
X023756Y010951D01*
X023751Y010985D01*
X023742Y011019D01*
X023730Y011052D01*
X023715Y011084D01*
X023696Y011114D01*
X023674Y011141D01*
X023650Y011166D01*
X023623Y011189D01*
X023594Y011208D01*
X023563Y011225D01*
X023531Y011238D01*
X023497Y011248D01*
X023462Y011254D01*
X023427Y011256D01*
X023428Y011256D02*
X017695Y011256D01*
X021424Y002565D02*
X022150Y002608D01*
X022873Y002683D01*
D11*
X021484Y002875D03*
X021484Y003322D03*
X021484Y003789D03*
X021484Y004235D03*
X016960Y004110D03*
X016600Y004110D03*
X016600Y004557D03*
X016960Y004557D03*
X016960Y003415D03*
X016600Y003415D03*
X016600Y002968D03*
X016960Y002968D03*
X019867Y008614D03*
X019867Y009061D03*
D12*
X019745Y004411D03*
X020229Y004411D03*
X018548Y004411D03*
X018064Y004411D03*
D13*
X018950Y004411D03*
X019343Y004411D03*
D14*
X020739Y004483D02*
X020739Y004238D01*
X020741Y004218D01*
X020746Y004199D01*
X020755Y004181D01*
X020767Y004165D01*
X020782Y004152D01*
X020799Y004141D01*
X020817Y004134D01*
X020837Y004130D01*
X020857Y004130D01*
X020877Y004134D01*
X020895Y004141D01*
X020912Y004152D01*
X020927Y004165D01*
X020939Y004181D01*
X020948Y004199D01*
X020953Y004218D01*
X020955Y004238D01*
X020956Y004238D02*
X020956Y004483D01*
X020955Y004483D02*
X020953Y004503D01*
X020948Y004522D01*
X020939Y004540D01*
X020927Y004556D01*
X020912Y004569D01*
X020895Y004580D01*
X020877Y004587D01*
X020857Y004591D01*
X020837Y004591D01*
X020817Y004587D01*
X020799Y004580D01*
X020782Y004569D01*
X020767Y004556D01*
X020755Y004540D01*
X020746Y004522D01*
X020741Y004503D01*
X020739Y004483D01*
X020739Y002986D02*
X020739Y002742D01*
X020741Y002722D01*
X020746Y002703D01*
X020755Y002685D01*
X020767Y002669D01*
X020782Y002656D01*
X020799Y002645D01*
X020817Y002638D01*
X020837Y002634D01*
X020857Y002634D01*
X020877Y002638D01*
X020895Y002645D01*
X020912Y002656D01*
X020927Y002669D01*
X020939Y002685D01*
X020948Y002703D01*
X020953Y002722D01*
X020955Y002742D01*
X020956Y002742D02*
X020956Y002986D01*
X020955Y002986D02*
X020953Y003006D01*
X020948Y003025D01*
X020939Y003043D01*
X020927Y003059D01*
X020912Y003072D01*
X020895Y003083D01*
X020877Y003090D01*
X020857Y003094D01*
X020837Y003094D01*
X020817Y003090D01*
X020799Y003083D01*
X020782Y003072D01*
X020767Y003059D01*
X020755Y003043D01*
X020746Y003025D01*
X020741Y003006D01*
X020739Y002986D01*
X017554Y002986D02*
X017554Y002742D01*
X017552Y002722D01*
X017547Y002703D01*
X017538Y002685D01*
X017526Y002669D01*
X017511Y002656D01*
X017494Y002645D01*
X017476Y002638D01*
X017456Y002634D01*
X017436Y002634D01*
X017416Y002638D01*
X017398Y002645D01*
X017381Y002656D01*
X017366Y002669D01*
X017354Y002685D01*
X017345Y002703D01*
X017340Y002722D01*
X017338Y002742D01*
X017338Y002986D01*
X017340Y003006D01*
X017345Y003025D01*
X017354Y003043D01*
X017366Y003059D01*
X017381Y003072D01*
X017398Y003083D01*
X017416Y003090D01*
X017436Y003094D01*
X017456Y003094D01*
X017476Y003090D01*
X017494Y003083D01*
X017511Y003072D01*
X017526Y003059D01*
X017538Y003043D01*
X017547Y003025D01*
X017552Y003006D01*
X017554Y002986D01*
X017554Y004238D02*
X017554Y004483D01*
X017552Y004503D01*
X017547Y004522D01*
X017538Y004540D01*
X017526Y004556D01*
X017511Y004569D01*
X017494Y004580D01*
X017476Y004587D01*
X017456Y004591D01*
X017436Y004591D01*
X017416Y004587D01*
X017398Y004580D01*
X017381Y004569D01*
X017366Y004556D01*
X017354Y004540D01*
X017345Y004522D01*
X017340Y004503D01*
X017338Y004483D01*
X017338Y004238D01*
X017340Y004218D01*
X017345Y004199D01*
X017354Y004181D01*
X017366Y004165D01*
X017381Y004152D01*
X017398Y004141D01*
X017416Y004134D01*
X017436Y004130D01*
X017456Y004130D01*
X017476Y004134D01*
X017494Y004141D01*
X017511Y004152D01*
X017526Y004165D01*
X017538Y004181D01*
X017547Y004199D01*
X017552Y004218D01*
X017554Y004238D01*
D15*
X017446Y004477D02*
X017446Y004477D01*
X017446Y004241D01*
X017446Y004241D01*
X017446Y004477D01*
X017446Y002980D02*
X017446Y002980D01*
X017446Y002744D01*
X017446Y002744D01*
X017446Y002980D01*
X020847Y002980D02*
X020847Y002980D01*
X020847Y002744D01*
X020847Y002744D01*
X020847Y002980D01*
X020847Y004477D02*
X020847Y004477D01*
X020847Y004241D01*
X020847Y004241D01*
X020847Y004477D01*
D16*
X019726Y007314D03*
X019280Y007314D03*
X018826Y007314D03*
X018380Y007314D03*
X017926Y007314D03*
X017480Y007314D03*
X017370Y009646D03*
X017817Y009646D03*
X018250Y009646D03*
X018697Y009646D03*
X019350Y009646D03*
X019797Y009646D03*
X014191Y004650D03*
X014191Y004290D03*
X014191Y003930D03*
X014191Y003570D03*
X013745Y003570D03*
X013745Y003930D03*
X013745Y004290D03*
X013745Y004650D03*
D17*
X015168Y004640D03*
X015168Y003840D03*
D18*
X014477Y005728D03*
D19*
X005334Y014918D03*
X005334Y015312D03*
D20*
X006378Y015924D03*
X006378Y014307D03*
D21*
X022710Y004466D03*
X022710Y003316D03*
D22*
X016660Y005844D03*
X016660Y006284D03*
D23*
X017760Y006323D03*
X017760Y006823D03*
X017760Y005823D03*
X017760Y005323D03*
X019846Y005323D03*
X019846Y005823D03*
X019846Y006323D03*
X019846Y006823D03*
D24*
X018803Y006073D03*
D25*
X019152Y008483D03*
X017754Y008483D03*
D26*
X020350Y008358D03*
X020897Y008358D03*
X020897Y008977D03*
X020350Y008977D03*
X020350Y009596D03*
X020897Y009596D03*
D27*
X021725Y005319D03*
X014710Y008279D03*
D28*
X015084Y008629D03*
X015084Y007929D03*
X017200Y007314D03*
X018303Y008216D03*
X018603Y008216D03*
X018603Y008516D03*
X018603Y008816D03*
X018303Y008816D03*
X018303Y008516D03*
X018984Y009646D03*
X020064Y009646D03*
X020308Y010015D03*
X020608Y010015D03*
X020908Y010015D03*
X020009Y007314D03*
X019284Y006934D03*
X018953Y006536D03*
X018953Y006266D03*
X018653Y006266D03*
X018653Y006536D03*
X018653Y005996D03*
X018653Y005726D03*
X018953Y005726D03*
X018953Y005996D03*
X019823Y005823D03*
X020083Y003935D03*
X020383Y003935D03*
X022484Y004034D03*
X022484Y003704D03*
X017964Y003709D03*
X016960Y003762D03*
X016784Y002734D03*
X014797Y003670D03*
X014584Y003980D03*
X013398Y004190D03*
X013398Y004490D03*
X014323Y005340D03*
X014623Y005340D03*
X016760Y005514D03*
X012958Y009965D03*
X012658Y009965D03*
X012358Y009965D03*
X012058Y009965D03*
X011758Y009965D03*
X011458Y009965D03*
X011158Y009965D03*
X010858Y009965D03*
X010558Y009965D03*
X008215Y013484D03*
X005658Y013385D03*
X005658Y013035D03*
X005658Y012685D03*
X005658Y012335D03*
X005658Y013735D03*
D29*
X005863Y013722D02*
X005193Y013722D01*
X005193Y013800D02*
X005863Y013800D01*
X005863Y013868D02*
X005863Y012663D01*
X005941Y012473D01*
X006086Y012329D01*
X006086Y012329D01*
X006275Y012250D01*
X007197Y012250D01*
X007539Y012168D01*
X008234Y011900D01*
X008872Y011516D01*
X009433Y011028D01*
X009901Y010449D01*
X010090Y010140D01*
X010103Y010109D01*
X010114Y010098D01*
X010121Y010085D01*
X010151Y010061D01*
X010178Y010034D01*
X010192Y010028D01*
X010204Y010019D01*
X010240Y010008D01*
X010275Y009994D01*
X010290Y009994D01*
X010305Y009990D01*
X010343Y009994D01*
X016960Y009994D01*
X016966Y009996D01*
X017637Y009996D01*
X017642Y009994D01*
X020977Y009994D01*
X020978Y009993D01*
X021013Y009994D01*
X021013Y009913D01*
X020920Y009913D01*
X020920Y009618D01*
X020875Y009618D01*
X020875Y009913D01*
X020754Y009913D01*
X020718Y009903D01*
X020686Y009885D01*
X020660Y009859D01*
X020654Y009849D01*
X020550Y009953D01*
X020151Y009953D01*
X020138Y009940D01*
X020123Y009946D01*
X020004Y009946D01*
X019952Y009924D01*
X019612Y009924D01*
X019545Y009857D01*
X019514Y009875D01*
X019479Y009884D01*
X019360Y009884D01*
X019360Y009655D01*
X019341Y009655D01*
X019341Y009884D01*
X019222Y009884D01*
X019186Y009875D01*
X019182Y009872D01*
X019154Y009900D01*
X019043Y009946D01*
X018924Y009946D01*
X018872Y009924D01*
X018512Y009924D01*
X018474Y009885D01*
X018435Y009924D01*
X018066Y009924D01*
X018034Y009892D01*
X018002Y009924D01*
X017632Y009924D01*
X017565Y009857D01*
X017534Y009875D01*
X017499Y009884D01*
X017380Y009884D01*
X017380Y009655D01*
X017361Y009655D01*
X017361Y009884D01*
X017242Y009884D01*
X017206Y009875D01*
X017174Y009856D01*
X017148Y009830D01*
X017130Y009798D01*
X017120Y009763D01*
X017120Y009655D01*
X017361Y009655D01*
X017361Y009636D01*
X017120Y009636D01*
X017120Y009529D01*
X017130Y009493D01*
X017148Y009461D01*
X017174Y009435D01*
X017206Y009417D01*
X017242Y009407D01*
X017349Y009407D01*
X017344Y009402D01*
X017294Y009281D01*
X017294Y009150D01*
X017336Y009048D01*
X017299Y009010D01*
X017299Y007956D01*
X017404Y007850D01*
X018104Y007850D01*
X018210Y007956D01*
X018210Y008915D01*
X018696Y008915D01*
X018696Y007956D01*
X018802Y007850D01*
X019502Y007850D01*
X019548Y007896D01*
X019851Y007592D01*
X019542Y007592D01*
X019474Y007525D01*
X019444Y007543D01*
X019408Y007552D01*
X019289Y007552D01*
X019289Y007323D01*
X019270Y007323D01*
X019270Y007304D01*
X019076Y007304D01*
X018836Y007304D01*
X018836Y007075D01*
X018955Y007075D01*
X018990Y007085D01*
X019022Y007103D01*
X019048Y007129D01*
X019053Y007137D01*
X019057Y007131D01*
X019029Y007104D01*
X018984Y006993D01*
X018984Y006874D01*
X019013Y006803D01*
X018843Y006803D01*
X018843Y006113D01*
X018763Y006113D01*
X018763Y006803D01*
X018614Y006803D01*
X018614Y007085D01*
X018632Y007103D01*
X018662Y007085D01*
X018698Y007075D01*
X018817Y007075D01*
X018817Y007304D01*
X018836Y007304D01*
X018836Y007323D01*
X019270Y007323D01*
X019270Y007552D01*
X019151Y007552D01*
X019116Y007543D01*
X019084Y007524D01*
X019058Y007498D01*
X019053Y007490D01*
X019048Y007498D01*
X019022Y007524D01*
X018990Y007543D01*
X018955Y007552D01*
X018836Y007552D01*
X018836Y007323D01*
X018817Y007323D01*
X018817Y007552D01*
X018698Y007552D01*
X018662Y007543D01*
X018632Y007525D01*
X018564Y007592D01*
X018195Y007592D01*
X018153Y007550D01*
X018111Y007592D01*
X017742Y007592D01*
X017703Y007553D01*
X017664Y007592D01*
X017311Y007592D01*
X017259Y007614D01*
X017140Y007614D01*
X017030Y007568D01*
X016945Y007484D01*
X016900Y007373D01*
X016900Y007254D01*
X016945Y007144D01*
X017030Y007059D01*
X017140Y007014D01*
X017259Y007014D01*
X017311Y007035D01*
X017324Y007035D01*
X017304Y007015D01*
X017304Y007012D01*
X017194Y006948D01*
X017079Y006749D01*
X017079Y006054D01*
X016939Y005914D01*
X016939Y006044D01*
X016885Y006097D01*
X016889Y006105D01*
X016899Y006141D01*
X016899Y006275D01*
X016669Y006275D01*
X016669Y006293D01*
X016651Y006293D01*
X016651Y006549D01*
X016579Y006549D01*
X016579Y006835D01*
X016581Y006841D01*
X016579Y006887D01*
X016579Y006933D01*
X016576Y006940D01*
X016573Y007004D01*
X016478Y007204D01*
X016315Y007352D01*
X016315Y007352D01*
X016106Y007426D01*
X016003Y007421D01*
X015030Y007421D01*
X015019Y007423D01*
X014993Y007436D01*
X014973Y007459D01*
X014964Y007486D01*
X014964Y007511D01*
X014968Y007554D01*
X014964Y007564D01*
X014964Y007653D01*
X015024Y007629D01*
X015143Y007629D01*
X015254Y007674D01*
X015338Y007759D01*
X015384Y007869D01*
X015384Y007988D01*
X015351Y008068D01*
X015382Y008145D01*
X015382Y008412D01*
X015351Y008489D01*
X015384Y008569D01*
X015384Y008688D01*
X015338Y008799D01*
X015254Y008883D01*
X015143Y008929D01*
X015024Y008929D01*
X014961Y008902D01*
X014942Y008910D01*
X014878Y009044D01*
X014737Y009171D01*
X014559Y009235D01*
X014559Y009235D01*
X014471Y009230D01*
X011694Y009230D01*
X011672Y009221D01*
X011034Y009221D01*
X011012Y009230D01*
X010131Y009230D01*
X010084Y009407D01*
X009743Y010101D01*
X009743Y010101D01*
X009274Y010716D01*
X008695Y011229D01*
X008028Y011620D01*
X007298Y011874D01*
X006948Y011923D01*
X006931Y011930D01*
X006896Y011930D01*
X006863Y011935D01*
X006844Y011930D01*
X005193Y011930D01*
X005193Y014356D01*
X005094Y014660D01*
X005315Y014660D01*
X005315Y014899D01*
X005353Y014899D01*
X005353Y014937D01*
X005774Y014937D01*
X005774Y015055D01*
X005769Y015074D01*
X005814Y015119D01*
X005814Y015505D01*
X005750Y015569D01*
X006963Y015569D01*
X006963Y014662D01*
X005657Y014662D01*
X005688Y014670D01*
X005720Y014688D01*
X005746Y014714D01*
X005764Y014746D01*
X005774Y014782D01*
X005774Y014899D01*
X006963Y014899D01*
X006963Y014821D02*
X005774Y014821D01*
X005774Y014899D02*
X005353Y014899D01*
X005353Y014660D01*
X005577Y014660D01*
X005473Y014556D01*
X005473Y014057D01*
X005578Y013952D01*
X005898Y013952D01*
X005863Y013868D01*
X005867Y013879D02*
X005193Y013879D01*
X005193Y013957D02*
X005573Y013957D01*
X005494Y014036D02*
X005193Y014036D01*
X005193Y014114D02*
X005473Y014114D01*
X005473Y014193D02*
X005193Y014193D01*
X005193Y014271D02*
X005473Y014271D01*
X005473Y014350D02*
X005193Y014350D01*
X005169Y014428D02*
X005473Y014428D01*
X005473Y014507D02*
X005144Y014507D01*
X005118Y014585D02*
X005502Y014585D01*
X005353Y014664D02*
X005315Y014664D01*
X005315Y014742D02*
X005353Y014742D01*
X005353Y014821D02*
X005315Y014821D01*
X005315Y014899D02*
X005353Y014899D01*
X005665Y014664D02*
X006963Y014664D01*
X006963Y014742D02*
X005762Y014742D01*
X005774Y014978D02*
X006963Y014978D01*
X006963Y015056D02*
X005773Y015056D01*
X005814Y015135D02*
X006963Y015135D01*
X006963Y015213D02*
X005814Y015213D01*
X005814Y015292D02*
X006963Y015292D01*
X006963Y015370D02*
X005814Y015370D01*
X005814Y015449D02*
X006963Y015449D01*
X006963Y015527D02*
X005791Y015527D01*
X003921Y013938D02*
X003798Y014027D01*
X003654Y014074D01*
X003578Y014080D01*
X002431Y014080D01*
X002422Y014077D01*
X002378Y014080D01*
X002335Y014080D01*
X002326Y014084D01*
X002200Y014092D01*
X002200Y014092D01*
X001894Y014243D01*
X001894Y014243D01*
X001670Y014500D01*
X001670Y014500D01*
X001561Y014823D01*
X001561Y014823D01*
X001572Y014984D01*
X001572Y016918D01*
X001696Y017217D01*
X001696Y017217D01*
X001926Y017447D01*
X001926Y017447D01*
X002225Y017571D01*
X005786Y017571D01*
X005791Y017569D01*
X006463Y017569D01*
X006468Y017571D01*
X007567Y017571D01*
X007703Y017572D01*
X007703Y017572D01*
X007943Y017437D01*
X007943Y017437D01*
X007943Y017437D01*
X008082Y017200D01*
X008082Y017200D01*
X008083Y017114D01*
X008083Y017113D01*
X008083Y017061D01*
X008084Y017010D01*
X008083Y017009D01*
X008083Y013371D01*
X008236Y013339D01*
X008236Y013339D01*
X008931Y013078D01*
X008931Y013078D01*
X009578Y012714D01*
X009578Y012714D01*
X010161Y012255D01*
X010161Y012255D01*
X010161Y012255D01*
X010668Y011712D01*
X010798Y011521D01*
X016817Y011521D01*
X016817Y011521D01*
X017775Y011521D01*
X017775Y011521D01*
X023377Y011521D01*
X023379Y011522D01*
X023430Y011521D01*
X023481Y011521D01*
X023483Y011520D01*
X023551Y011519D01*
X023551Y011519D01*
X023771Y011424D01*
X023771Y011424D01*
X023937Y011252D01*
X023937Y011252D01*
X024025Y011030D01*
X024025Y011030D01*
X024023Y010913D01*
X024023Y007342D01*
X024027Y007337D01*
X024027Y006379D01*
X024023Y006375D01*
X024023Y002187D01*
X024024Y002076D01*
X024024Y002076D01*
X023940Y001870D01*
X023940Y001870D01*
X023783Y001711D01*
X023783Y001711D01*
X023578Y001624D01*
X023578Y001624D01*
X023518Y001623D01*
X023517Y001623D01*
X023465Y001623D01*
X023413Y001623D01*
X023412Y001623D01*
X022529Y001623D01*
X022529Y000799D01*
X024289Y000799D01*
X024303Y000803D01*
X024341Y000799D01*
X024381Y000799D01*
X024384Y000797D01*
X024413Y000797D01*
X024524Y000830D01*
X024613Y000903D01*
X024668Y001004D01*
X024678Y001054D01*
X024678Y017732D01*
X024668Y017781D01*
X024613Y017882D01*
X024524Y017954D01*
X024413Y017987D01*
X024385Y017987D01*
X024381Y017985D01*
X024342Y017985D01*
X024303Y017981D01*
X024289Y017985D01*
X000952Y017985D01*
X000924Y017979D01*
X000861Y017944D01*
X000816Y017888D01*
X000796Y017819D01*
X000797Y017810D01*
X000799Y017805D01*
X000799Y017767D01*
X000803Y017730D01*
X000799Y017715D01*
X000799Y001071D01*
X000803Y001055D01*
X000799Y001018D01*
X000799Y000981D01*
X000796Y000976D01*
X000796Y000967D01*
X000816Y000897D01*
X000861Y000840D01*
X000924Y000805D01*
X000952Y000799D01*
X015768Y000799D01*
X015780Y000812D01*
X015780Y001610D01*
X015768Y001623D01*
X012031Y001623D01*
X012027Y001621D01*
X011979Y001623D01*
X011931Y001623D01*
X011926Y001625D01*
X011873Y001627D01*
X011873Y001627D01*
X011688Y001711D01*
X011688Y001711D01*
X011550Y001859D01*
X011550Y001859D01*
X011478Y002049D01*
X011478Y002049D01*
X011482Y002146D01*
X011482Y007716D01*
X011013Y007716D01*
X011012Y007716D01*
X009461Y007716D01*
X009433Y007711D01*
X009409Y007716D01*
X009385Y007716D01*
X009358Y007727D01*
X009330Y007733D01*
X009310Y007747D01*
X009287Y007756D01*
X009267Y007777D01*
X009243Y007793D01*
X009230Y007814D01*
X009213Y007831D01*
X009202Y007858D01*
X009186Y007882D01*
X009182Y007906D01*
X009172Y007928D01*
X009172Y007953D01*
X009111Y008227D01*
X006401Y008227D01*
X006401Y008305D02*
X009083Y008305D01*
X009111Y008227D02*
X008907Y008793D01*
X008612Y009317D01*
X008233Y009784D01*
X007783Y010182D01*
X007272Y010500D01*
X006716Y010728D01*
X006450Y010800D01*
X004475Y010800D01*
X004286Y010879D01*
X004286Y010879D01*
X004141Y011023D01*
X004141Y011023D01*
X004063Y011213D01*
X004063Y013595D01*
X004057Y013671D01*
X004010Y013815D01*
X003921Y013938D01*
X003894Y013957D02*
X000799Y013957D01*
X000799Y013879D02*
X003964Y013879D01*
X004015Y013800D02*
X000799Y013800D01*
X000799Y013722D02*
X004040Y013722D01*
X004059Y013643D02*
X000799Y013643D01*
X000799Y013565D02*
X004063Y013565D01*
X004063Y013486D02*
X000799Y013486D01*
X000799Y013408D02*
X004063Y013408D01*
X004063Y013329D02*
X000799Y013329D01*
X000799Y013251D02*
X004063Y013251D01*
X004063Y013172D02*
X000799Y013172D01*
X000799Y013094D02*
X004063Y013094D01*
X004063Y013015D02*
X000799Y013015D01*
X000799Y012937D02*
X004063Y012937D01*
X004063Y012858D02*
X000799Y012858D01*
X000799Y012780D02*
X004063Y012780D01*
X004063Y012701D02*
X000799Y012701D01*
X000799Y012623D02*
X004063Y012623D01*
X004063Y012544D02*
X000799Y012544D01*
X000799Y012466D02*
X004063Y012466D01*
X004063Y012387D02*
X000799Y012387D01*
X000799Y012309D02*
X004063Y012309D01*
X004063Y012230D02*
X000799Y012230D01*
X000799Y012152D02*
X004063Y012152D01*
X004063Y012073D02*
X000799Y012073D01*
X000799Y011995D02*
X004063Y011995D01*
X004063Y011916D02*
X000799Y011916D01*
X000799Y011838D02*
X004063Y011838D01*
X004063Y011759D02*
X000799Y011759D01*
X000799Y011681D02*
X004063Y011681D01*
X004063Y011602D02*
X000799Y011602D01*
X000799Y011524D02*
X004063Y011524D01*
X004063Y011445D02*
X000799Y011445D01*
X000799Y011367D02*
X004063Y011367D01*
X004063Y011288D02*
X000799Y011288D01*
X000799Y011210D02*
X004064Y011210D01*
X004097Y011131D02*
X000799Y011131D01*
X000799Y011053D02*
X004129Y011053D01*
X004190Y010974D02*
X000799Y010974D01*
X000799Y010896D02*
X004269Y010896D01*
X004434Y010817D02*
X000799Y010817D01*
X000799Y010739D02*
X006677Y010739D01*
X006882Y010660D02*
X000799Y010660D01*
X000799Y010582D02*
X007073Y010582D01*
X007264Y010503D02*
X000799Y010503D01*
X000799Y010425D02*
X007393Y010425D01*
X007519Y010346D02*
X000799Y010346D01*
X000799Y010268D02*
X007645Y010268D01*
X007772Y010189D02*
X000799Y010189D01*
X000799Y010111D02*
X007864Y010111D01*
X007953Y010032D02*
X000799Y010032D01*
X000799Y009954D02*
X008041Y009954D01*
X008130Y009875D02*
X000799Y009875D01*
X000799Y009797D02*
X008219Y009797D01*
X008287Y009718D02*
X000799Y009718D01*
X000799Y009640D02*
X008350Y009640D01*
X008414Y009561D02*
X000799Y009561D01*
X000799Y009483D02*
X008477Y009483D01*
X008541Y009404D02*
X000799Y009404D01*
X000799Y009326D02*
X008604Y009326D01*
X008651Y009247D02*
X000799Y009247D01*
X000799Y009169D02*
X008695Y009169D01*
X008739Y009090D02*
X000799Y009090D01*
X000799Y009012D02*
X008783Y009012D01*
X008828Y008933D02*
X000799Y008933D01*
X000799Y008855D02*
X008872Y008855D01*
X008913Y008776D02*
X000799Y008776D01*
X000799Y008698D02*
X004493Y008698D01*
X004441Y008646D02*
X004441Y008127D01*
X004380Y008276D01*
X004217Y008343D01*
X004054Y008276D01*
X003987Y008113D01*
X004054Y007950D01*
X004217Y007883D01*
X004380Y007950D01*
X004441Y008099D01*
X004441Y006997D01*
X004547Y006891D01*
X006296Y006891D01*
X006401Y006997D01*
X006401Y008646D01*
X006296Y008751D01*
X004547Y008751D01*
X004441Y008646D01*
X004441Y008619D02*
X000799Y008619D01*
X000799Y008541D02*
X004441Y008541D01*
X004441Y008462D02*
X000799Y008462D01*
X000799Y008384D02*
X004441Y008384D01*
X004441Y008305D02*
X004308Y008305D01*
X004400Y008227D02*
X004441Y008227D01*
X004433Y008148D02*
X004441Y008148D01*
X004429Y008070D02*
X004441Y008070D01*
X004441Y007991D02*
X004397Y007991D01*
X004441Y007913D02*
X004289Y007913D01*
X004145Y007913D02*
X000799Y007913D01*
X000799Y007991D02*
X004037Y007991D01*
X004005Y008070D02*
X000799Y008070D01*
X000799Y008148D02*
X004002Y008148D01*
X004034Y008227D02*
X000799Y008227D01*
X000799Y008305D02*
X004126Y008305D01*
X004441Y007834D02*
X000799Y007834D01*
X000799Y007756D02*
X004441Y007756D01*
X004441Y007677D02*
X000799Y007677D01*
X000799Y007599D02*
X004441Y007599D01*
X004441Y007520D02*
X000799Y007520D01*
X000799Y007442D02*
X004441Y007442D01*
X004441Y007363D02*
X000799Y007363D01*
X000799Y007285D02*
X004441Y007285D01*
X004441Y007206D02*
X000799Y007206D01*
X000799Y007128D02*
X004441Y007128D01*
X004441Y007049D02*
X000799Y007049D01*
X000799Y006971D02*
X004468Y006971D01*
X004546Y006892D02*
X000799Y006892D01*
X000799Y006814D02*
X011482Y006814D01*
X011482Y006892D02*
X006297Y006892D01*
X006375Y006971D02*
X011482Y006971D01*
X011482Y007049D02*
X006401Y007049D01*
X006401Y007128D02*
X011482Y007128D01*
X011482Y007206D02*
X006401Y007206D01*
X006401Y007285D02*
X011482Y007285D01*
X011482Y007363D02*
X006401Y007363D01*
X006401Y007442D02*
X011482Y007442D01*
X011482Y007520D02*
X006401Y007520D01*
X006401Y007599D02*
X011482Y007599D01*
X011482Y007677D02*
X006401Y007677D01*
X006401Y007756D02*
X009288Y007756D01*
X009211Y007834D02*
X006401Y007834D01*
X006401Y007913D02*
X009179Y007913D01*
X009164Y007991D02*
X006401Y007991D01*
X006401Y008070D02*
X009146Y008070D01*
X009128Y008148D02*
X006401Y008148D01*
X006401Y008384D02*
X009054Y008384D01*
X009026Y008462D02*
X006401Y008462D01*
X006401Y008541D02*
X008998Y008541D01*
X008969Y008619D02*
X006401Y008619D01*
X006350Y008698D02*
X008941Y008698D01*
X010127Y009247D02*
X017294Y009247D01*
X017294Y009169D02*
X014740Y009169D01*
X014737Y009171D02*
X014737Y009171D01*
X014827Y009090D02*
X017318Y009090D01*
X017300Y009012D02*
X014893Y009012D01*
X014878Y009044D02*
X014878Y009044D01*
X014931Y008933D02*
X017299Y008933D01*
X017299Y008855D02*
X015282Y008855D01*
X015347Y008776D02*
X017299Y008776D01*
X017299Y008698D02*
X015380Y008698D01*
X015384Y008619D02*
X017299Y008619D01*
X017299Y008541D02*
X015372Y008541D01*
X015362Y008462D02*
X017299Y008462D01*
X017299Y008384D02*
X015382Y008384D01*
X015382Y008305D02*
X017299Y008305D01*
X017299Y008227D02*
X015382Y008227D01*
X015382Y008148D02*
X017299Y008148D01*
X017299Y008070D02*
X015351Y008070D01*
X015382Y007991D02*
X017299Y007991D01*
X017341Y007913D02*
X015384Y007913D01*
X015369Y007834D02*
X019609Y007834D01*
X019687Y007756D02*
X015335Y007756D01*
X015257Y007677D02*
X019766Y007677D01*
X019844Y007599D02*
X017295Y007599D01*
X017104Y007599D02*
X014964Y007599D01*
X014965Y007520D02*
X016982Y007520D01*
X016928Y007442D02*
X014988Y007442D01*
X016106Y007426D02*
X016106Y007426D01*
X016283Y007363D02*
X016900Y007363D01*
X016900Y007285D02*
X016389Y007285D01*
X016476Y007206D02*
X016919Y007206D01*
X016961Y007128D02*
X016514Y007128D01*
X016478Y007204D02*
X016478Y007204D01*
X016551Y007049D02*
X017054Y007049D01*
X017194Y006948D02*
X017194Y006948D01*
X017194Y006948D01*
X017232Y006971D02*
X016574Y006971D01*
X016573Y007004D02*
X016573Y007004D01*
X016579Y006892D02*
X017161Y006892D01*
X017116Y006814D02*
X016579Y006814D01*
X016579Y006735D02*
X017079Y006735D01*
X017079Y006657D02*
X016579Y006657D01*
X016579Y006578D02*
X017079Y006578D01*
X017079Y006500D02*
X016866Y006500D01*
X016871Y006495D02*
X016845Y006521D01*
X016813Y006539D01*
X016777Y006549D01*
X016669Y006549D01*
X016669Y006293D01*
X016899Y006293D01*
X016899Y006427D01*
X016889Y006463D01*
X016871Y006495D01*
X016899Y006421D02*
X017079Y006421D01*
X017079Y006343D02*
X016899Y006343D01*
X016899Y006264D02*
X017079Y006264D01*
X017079Y006186D02*
X016899Y006186D01*
X016890Y006107D02*
X017079Y006107D01*
X017053Y006029D02*
X016939Y006029D01*
X016939Y005950D02*
X016975Y005950D01*
X016660Y006284D02*
X016660Y006604D01*
X016651Y006500D02*
X016669Y006500D01*
X016669Y006421D02*
X016651Y006421D01*
X016651Y006343D02*
X016669Y006343D01*
X017355Y005079D02*
X017410Y005025D01*
X018110Y005025D01*
X018215Y005130D01*
X018215Y005190D01*
X018279Y005254D01*
X018414Y005388D01*
X018414Y005399D01*
X018415Y005396D01*
X018441Y005370D01*
X018473Y005352D01*
X018509Y005342D01*
X018763Y005342D01*
X018763Y006033D01*
X018843Y006033D01*
X018843Y005342D01*
X019024Y005342D01*
X019024Y005234D01*
X018637Y005234D01*
X018637Y005234D01*
X018459Y005160D01*
X018322Y005023D01*
X018248Y004845D01*
X018248Y004785D01*
X018240Y004787D01*
X018103Y004787D01*
X018103Y004450D01*
X018025Y004450D01*
X018025Y004787D01*
X017888Y004787D01*
X017852Y004778D01*
X017820Y004759D01*
X017794Y004733D01*
X017778Y004705D01*
X017670Y004813D01*
X017525Y004873D01*
X017367Y004873D01*
X017221Y004813D01*
X017194Y004786D01*
X017190Y004790D01*
X017190Y004915D01*
X017355Y005079D01*
X017283Y005008D02*
X018316Y005008D01*
X018322Y005023D02*
X018322Y005023D01*
X018386Y005087D02*
X018172Y005087D01*
X018215Y005165D02*
X018472Y005165D01*
X018347Y005322D02*
X019024Y005322D01*
X019024Y005244D02*
X018269Y005244D01*
X018283Y004930D02*
X017205Y004930D01*
X017190Y004851D02*
X017314Y004851D01*
X017578Y004851D02*
X018251Y004851D01*
X018103Y004773D02*
X018025Y004773D01*
X018025Y004694D02*
X018103Y004694D01*
X018103Y004616D02*
X018025Y004616D01*
X018025Y004537D02*
X018103Y004537D01*
X018103Y004459D02*
X018025Y004459D01*
X018025Y004372D02*
X018103Y004372D01*
X018103Y004035D01*
X018240Y004035D01*
X018268Y004043D01*
X018316Y003995D01*
X018737Y003995D01*
X018819Y003742D01*
X018819Y003742D01*
X019008Y003482D01*
X019268Y003293D01*
X019573Y003194D01*
X019829Y003194D01*
X020506Y003194D01*
X020451Y003059D01*
X020451Y002813D01*
X017842Y002766D01*
X017842Y003059D01*
X017782Y003205D01*
X017670Y003317D01*
X017525Y003377D01*
X017367Y003377D01*
X017257Y003331D01*
X017429Y003504D01*
X017744Y003504D01*
X017794Y003454D01*
X017904Y003409D01*
X018023Y003409D01*
X018134Y003454D01*
X018218Y003539D01*
X018264Y003649D01*
X018264Y003768D01*
X018218Y003879D01*
X018134Y003963D01*
X018023Y004009D01*
X017904Y004009D01*
X017795Y003964D01*
X017730Y003964D01*
X017782Y004016D01*
X017807Y004076D01*
X017820Y004063D01*
X017852Y004044D01*
X017888Y004035D01*
X018025Y004035D01*
X018025Y004372D01*
X018025Y004302D02*
X018103Y004302D01*
X018103Y004223D02*
X018025Y004223D01*
X018025Y004145D02*
X018103Y004145D01*
X018103Y004066D02*
X018025Y004066D01*
X018074Y003988D02*
X018739Y003988D01*
X018765Y003909D02*
X018187Y003909D01*
X018238Y003831D02*
X018790Y003831D01*
X018816Y003752D02*
X018264Y003752D01*
X018264Y003674D02*
X018868Y003674D01*
X018925Y003595D02*
X018241Y003595D01*
X018196Y003517D02*
X018982Y003517D01*
X019008Y003482D02*
X019008Y003482D01*
X019008Y003482D01*
X019068Y003438D02*
X018095Y003438D01*
X017833Y003438D02*
X017363Y003438D01*
X017325Y003360D02*
X017285Y003360D01*
X017567Y003360D02*
X019176Y003360D01*
X019268Y003293D02*
X019268Y003293D01*
X019304Y003281D02*
X017706Y003281D01*
X017783Y003203D02*
X019545Y003203D01*
X019775Y003840D02*
X019688Y003871D01*
X019620Y003933D01*
X019590Y003995D01*
X019977Y003995D01*
X020025Y004043D01*
X020053Y004035D01*
X020191Y004035D01*
X020191Y004372D01*
X020268Y004372D01*
X020268Y004035D01*
X020405Y004035D01*
X020441Y004044D01*
X020473Y004063D01*
X020486Y004076D01*
X020511Y004016D01*
X020623Y003904D01*
X020769Y003844D01*
X020926Y003844D01*
X021072Y003904D01*
X021184Y004016D01*
X021244Y004162D01*
X021244Y004556D01*
X021184Y004701D01*
X021072Y004813D01*
X020926Y004873D01*
X020769Y004873D01*
X020623Y004813D01*
X020515Y004705D01*
X020499Y004733D01*
X020473Y004759D01*
X020441Y004778D01*
X020405Y004787D01*
X020268Y004787D01*
X020268Y004450D01*
X020191Y004450D01*
X020191Y004787D01*
X020053Y004787D01*
X020045Y004785D01*
X020045Y004824D01*
X019967Y005012D01*
X019957Y005023D01*
X020267Y005023D01*
X020541Y005112D01*
X020541Y005112D01*
X020775Y005281D01*
X020775Y005281D01*
X020775Y005281D01*
X020945Y005515D01*
X021012Y005722D01*
X021013Y005707D01*
X021013Y005662D01*
X021016Y005655D01*
X021021Y005562D01*
X021098Y005403D01*
X021093Y005368D01*
X021093Y005359D01*
X021120Y005359D01*
X021141Y005315D01*
X021182Y005279D01*
X021093Y005279D01*
X021093Y005269D01*
X021109Y005171D01*
X021139Y005076D01*
X021184Y004987D01*
X021243Y004907D01*
X021313Y004836D01*
X021394Y004778D01*
X021482Y004733D01*
X021577Y004702D01*
X021675Y004686D01*
X021685Y004686D01*
X021685Y005047D01*
X021736Y005050D01*
X021765Y005050D01*
X021765Y004686D01*
X021775Y004686D01*
X021873Y004702D01*
X021968Y004733D01*
X022056Y004778D01*
X022137Y004836D01*
X022207Y004907D01*
X022266Y004987D01*
X022298Y005050D01*
X022811Y005050D01*
X022827Y005047D01*
X022863Y005028D01*
X022890Y004997D01*
X022902Y004959D01*
X022902Y004926D01*
X022899Y004884D01*
X022902Y004874D01*
X022902Y004858D01*
X022797Y004902D01*
X022623Y004902D01*
X022463Y004836D01*
X022341Y004713D01*
X022274Y004553D01*
X022274Y004379D01*
X022313Y004287D01*
X022229Y004204D01*
X022184Y004093D01*
X022184Y003974D01*
X022227Y003869D01*
X022184Y003763D01*
X022184Y003644D01*
X022229Y003534D01*
X022299Y003464D01*
X022274Y003403D01*
X022274Y003229D01*
X022341Y003069D01*
X022463Y002946D01*
X022540Y002915D01*
X022129Y002872D01*
X021722Y002848D01*
X021722Y002866D01*
X021493Y002866D01*
X021493Y002884D01*
X021722Y002884D01*
X021722Y003003D01*
X021713Y003039D01*
X021695Y003070D01*
X021762Y003137D01*
X021762Y003506D01*
X021713Y003555D01*
X021762Y003604D01*
X021762Y003973D01*
X021695Y004041D01*
X021713Y004071D01*
X021722Y004107D01*
X021722Y004226D01*
X021493Y004226D01*
X021493Y004245D01*
X021474Y004245D01*
X021474Y004226D01*
X021245Y004226D01*
X021245Y004107D01*
X021255Y004071D01*
X021273Y004041D01*
X021205Y003973D01*
X021205Y003839D01*
X019922Y003839D01*
X019916Y003843D01*
X019828Y003839D01*
X019814Y003839D01*
X019775Y003840D01*
X019646Y003909D02*
X020618Y003909D01*
X020539Y003988D02*
X019593Y003988D01*
X020191Y004066D02*
X020268Y004066D01*
X020268Y004145D02*
X020191Y004145D01*
X020191Y004223D02*
X020268Y004223D01*
X020268Y004302D02*
X020191Y004302D01*
X020191Y004459D02*
X020268Y004459D01*
X020268Y004537D02*
X020191Y004537D01*
X020191Y004616D02*
X020268Y004616D01*
X020268Y004694D02*
X020191Y004694D01*
X020191Y004773D02*
X020268Y004773D01*
X020450Y004773D02*
X020583Y004773D01*
X020715Y004851D02*
X020034Y004851D01*
X020001Y004930D02*
X021226Y004930D01*
X021174Y005008D02*
X019969Y005008D01*
X019967Y005012D02*
X019967Y005012D01*
X020464Y005087D02*
X021136Y005087D01*
X021110Y005165D02*
X020615Y005165D01*
X020723Y005244D02*
X021097Y005244D01*
X021141Y005315D02*
X021141Y005315D01*
X021138Y005322D02*
X020804Y005322D01*
X020862Y005401D02*
X021098Y005401D01*
X021062Y005479D02*
X020919Y005479D01*
X020945Y005515D02*
X020945Y005515D01*
X020958Y005558D02*
X021024Y005558D01*
X021021Y005562D02*
X021021Y005562D01*
X021017Y005636D02*
X020984Y005636D01*
X021009Y005715D02*
X021012Y005715D01*
X021685Y005008D02*
X021765Y005008D01*
X021765Y004930D02*
X021685Y004930D01*
X021685Y004851D02*
X021765Y004851D01*
X021765Y004773D02*
X021685Y004773D01*
X021685Y004694D02*
X021765Y004694D01*
X021824Y004694D02*
X022333Y004694D01*
X022300Y004616D02*
X021219Y004616D01*
X021244Y004537D02*
X022274Y004537D01*
X022274Y004459D02*
X021666Y004459D01*
X021668Y004457D02*
X021636Y004476D01*
X021601Y004485D01*
X021493Y004485D01*
X021493Y004245D01*
X021722Y004245D01*
X021722Y004364D01*
X021713Y004399D01*
X021694Y004431D01*
X021668Y004457D01*
X021718Y004380D02*
X022274Y004380D01*
X022306Y004302D02*
X021722Y004302D01*
X021722Y004223D02*
X022249Y004223D01*
X022205Y004145D02*
X021722Y004145D01*
X021710Y004066D02*
X022184Y004066D01*
X022184Y003988D02*
X021748Y003988D01*
X021762Y003909D02*
X022211Y003909D01*
X022212Y003831D02*
X021762Y003831D01*
X021762Y003752D02*
X022184Y003752D01*
X022184Y003674D02*
X021762Y003674D01*
X021753Y003595D02*
X022204Y003595D01*
X022246Y003517D02*
X021752Y003517D01*
X021762Y003438D02*
X022289Y003438D01*
X022274Y003360D02*
X021762Y003360D01*
X021762Y003281D02*
X022274Y003281D01*
X022285Y003203D02*
X021762Y003203D01*
X021749Y003124D02*
X022318Y003124D01*
X022364Y003046D02*
X021709Y003046D01*
X021722Y002967D02*
X022442Y002967D01*
X022288Y002889D02*
X021722Y002889D01*
X021474Y002884D02*
X021474Y002866D01*
X021245Y002866D01*
X021245Y002827D01*
X021244Y002827D01*
X021244Y003059D01*
X021216Y003126D01*
X021273Y003070D01*
X021255Y003039D01*
X021245Y003003D01*
X021245Y002884D01*
X021474Y002884D01*
X021245Y002889D02*
X021244Y002889D01*
X021244Y002967D02*
X021245Y002967D01*
X021244Y003046D02*
X021259Y003046D01*
X021217Y003124D02*
X021218Y003124D01*
X020478Y003124D02*
X017816Y003124D01*
X017842Y003046D02*
X020451Y003046D01*
X020451Y002967D02*
X017842Y002967D01*
X017842Y002889D02*
X020451Y002889D01*
X020315Y002810D02*
X017842Y002810D01*
X017853Y003988D02*
X017754Y003988D01*
X017803Y004066D02*
X017817Y004066D01*
X016984Y004061D02*
X016984Y004111D01*
X016960Y004110D02*
X016984Y004061D01*
X017711Y004773D02*
X017844Y004773D01*
X018763Y005401D02*
X018843Y005401D01*
X018843Y005479D02*
X018763Y005479D01*
X018763Y005558D02*
X018843Y005558D01*
X018843Y005636D02*
X018763Y005636D01*
X018763Y005715D02*
X018843Y005715D01*
X018843Y005793D02*
X018763Y005793D01*
X018763Y005872D02*
X018843Y005872D01*
X018843Y005950D02*
X018763Y005950D01*
X018763Y006029D02*
X018843Y006029D01*
X018843Y006186D02*
X018763Y006186D01*
X018763Y006264D02*
X018843Y006264D01*
X018843Y006343D02*
X018763Y006343D01*
X018763Y006421D02*
X018843Y006421D01*
X018843Y006500D02*
X018763Y006500D01*
X018763Y006578D02*
X018843Y006578D01*
X018843Y006657D02*
X018763Y006657D01*
X018763Y006735D02*
X018843Y006735D01*
X019009Y006814D02*
X018614Y006814D01*
X018614Y006892D02*
X018984Y006892D01*
X018984Y006971D02*
X018614Y006971D01*
X018614Y007049D02*
X019007Y007049D01*
X019047Y007128D02*
X019053Y007128D01*
X018836Y007128D02*
X018817Y007128D01*
X018817Y007206D02*
X018836Y007206D01*
X018836Y007285D02*
X018817Y007285D01*
X018817Y007363D02*
X018836Y007363D01*
X018836Y007442D02*
X018817Y007442D01*
X018817Y007520D02*
X018836Y007520D01*
X019026Y007520D02*
X019080Y007520D01*
X019270Y007520D02*
X019289Y007520D01*
X019289Y007442D02*
X019270Y007442D01*
X019270Y007363D02*
X019289Y007363D01*
X018739Y007913D02*
X018167Y007913D01*
X018210Y007991D02*
X018696Y007991D01*
X018696Y008070D02*
X018210Y008070D01*
X018210Y008148D02*
X018696Y008148D01*
X018696Y008227D02*
X018210Y008227D01*
X018210Y008305D02*
X018696Y008305D01*
X018696Y008384D02*
X018210Y008384D01*
X018210Y008462D02*
X018696Y008462D01*
X018696Y008541D02*
X018210Y008541D01*
X018210Y008619D02*
X018696Y008619D01*
X018696Y008698D02*
X018210Y008698D01*
X018210Y008776D02*
X018696Y008776D01*
X018696Y008855D02*
X018210Y008855D01*
X017346Y009404D02*
X010085Y009404D01*
X010084Y009407D02*
X010084Y009407D01*
X010106Y009326D02*
X017312Y009326D01*
X017136Y009483D02*
X010047Y009483D01*
X010008Y009561D02*
X017120Y009561D01*
X017120Y009718D02*
X009931Y009718D01*
X009970Y009640D02*
X017361Y009640D01*
X017361Y009718D02*
X017380Y009718D01*
X017380Y009797D02*
X017361Y009797D01*
X017361Y009875D02*
X017380Y009875D01*
X017532Y009875D02*
X017584Y009875D01*
X017209Y009875D02*
X009854Y009875D01*
X009893Y009797D02*
X017130Y009797D01*
X019178Y009875D02*
X019189Y009875D01*
X019341Y009875D02*
X019360Y009875D01*
X019360Y009797D02*
X019341Y009797D01*
X019341Y009718D02*
X019360Y009718D01*
X019512Y009875D02*
X019564Y009875D01*
X020627Y009875D02*
X020677Y009875D01*
X020875Y009875D02*
X020920Y009875D01*
X020920Y009797D02*
X020875Y009797D01*
X020875Y009718D02*
X020920Y009718D01*
X020920Y009640D02*
X020875Y009640D01*
X020875Y009573D02*
X020920Y009573D01*
X020920Y009294D01*
X020920Y008999D01*
X020875Y008999D01*
X020875Y009573D01*
X020875Y009561D02*
X020920Y009561D01*
X020920Y009483D02*
X020875Y009483D01*
X020875Y009404D02*
X020920Y009404D01*
X020920Y009326D02*
X020875Y009326D01*
X020875Y009247D02*
X020920Y009247D01*
X020920Y009169D02*
X020875Y009169D01*
X020875Y009090D02*
X020920Y009090D01*
X020920Y009012D02*
X020875Y009012D01*
X020875Y008954D02*
X020920Y008954D01*
X020920Y008380D01*
X020875Y008380D01*
X020875Y008660D01*
X020875Y008954D01*
X020875Y008933D02*
X020920Y008933D01*
X020920Y008855D02*
X020875Y008855D01*
X020875Y008776D02*
X020920Y008776D01*
X020920Y008698D02*
X020875Y008698D01*
X020875Y008619D02*
X020920Y008619D01*
X020920Y008541D02*
X020875Y008541D01*
X020875Y008462D02*
X020920Y008462D01*
X020920Y008384D02*
X020875Y008384D01*
X020875Y008335D02*
X020920Y008335D01*
X020920Y008041D01*
X021013Y008041D01*
X021013Y007844D01*
X020988Y007904D01*
X020851Y008041D01*
X020875Y008041D01*
X020875Y008335D01*
X020875Y008305D02*
X020920Y008305D01*
X020920Y008227D02*
X020875Y008227D01*
X020875Y008148D02*
X020920Y008148D01*
X020920Y008070D02*
X020875Y008070D01*
X020900Y007991D02*
X021013Y007991D01*
X021013Y007913D02*
X020979Y007913D01*
X021013Y009954D02*
X009815Y009954D01*
X009777Y010032D02*
X010183Y010032D01*
X010102Y010111D02*
X009736Y010111D01*
X009676Y010189D02*
X010060Y010189D01*
X010012Y010268D02*
X009616Y010268D01*
X009556Y010346D02*
X009964Y010346D01*
X009916Y010425D02*
X009497Y010425D01*
X009437Y010503D02*
X009857Y010503D01*
X009794Y010582D02*
X009377Y010582D01*
X009317Y010660D02*
X009730Y010660D01*
X009667Y010739D02*
X009249Y010739D01*
X009274Y010716D02*
X009274Y010716D01*
X009160Y010817D02*
X009603Y010817D01*
X009540Y010896D02*
X009072Y010896D01*
X008983Y010974D02*
X009477Y010974D01*
X009404Y011053D02*
X008894Y011053D01*
X008806Y011131D02*
X009314Y011131D01*
X009224Y011210D02*
X008717Y011210D01*
X008695Y011229D02*
X008695Y011229D01*
X008594Y011288D02*
X009134Y011288D01*
X009044Y011367D02*
X008460Y011367D01*
X008326Y011445D02*
X008954Y011445D01*
X008860Y011524D02*
X008192Y011524D01*
X008058Y011602D02*
X008729Y011602D01*
X008599Y011681D02*
X007852Y011681D01*
X007627Y011759D02*
X008469Y011759D01*
X008338Y011838D02*
X007401Y011838D01*
X007581Y012152D02*
X005193Y012152D01*
X005193Y012230D02*
X007280Y012230D01*
X006995Y011916D02*
X008193Y011916D01*
X007989Y011995D02*
X005193Y011995D01*
X005193Y012073D02*
X007785Y012073D01*
X008889Y013094D02*
X024678Y013094D01*
X024678Y013172D02*
X008680Y013172D01*
X008472Y013251D02*
X024678Y013251D01*
X024678Y013329D02*
X008263Y013329D01*
X008083Y013408D02*
X024678Y013408D01*
X024678Y013486D02*
X008083Y013486D01*
X008083Y013565D02*
X024678Y013565D01*
X024678Y013643D02*
X008083Y013643D01*
X008083Y013722D02*
X024678Y013722D01*
X024678Y013800D02*
X008083Y013800D01*
X008083Y013879D02*
X024678Y013879D01*
X024678Y013957D02*
X008083Y013957D01*
X008083Y014036D02*
X024678Y014036D01*
X024678Y014114D02*
X008083Y014114D01*
X008083Y014193D02*
X024678Y014193D01*
X024678Y014271D02*
X008083Y014271D01*
X008083Y014350D02*
X024678Y014350D01*
X024678Y014428D02*
X008083Y014428D01*
X008083Y014507D02*
X024678Y014507D01*
X024678Y014585D02*
X008083Y014585D01*
X008083Y014664D02*
X024678Y014664D01*
X024678Y014742D02*
X008083Y014742D01*
X008083Y014821D02*
X024678Y014821D01*
X024678Y014899D02*
X008083Y014899D01*
X008083Y014978D02*
X024678Y014978D01*
X024678Y015056D02*
X008083Y015056D01*
X008083Y015135D02*
X024678Y015135D01*
X024678Y015213D02*
X008083Y015213D01*
X008083Y015292D02*
X024678Y015292D01*
X024678Y015370D02*
X008083Y015370D01*
X008083Y015449D02*
X024678Y015449D01*
X024678Y015527D02*
X008083Y015527D01*
X008083Y015606D02*
X024678Y015606D01*
X024678Y015684D02*
X008083Y015684D01*
X008083Y015763D02*
X024678Y015763D01*
X024678Y015841D02*
X008083Y015841D01*
X008083Y015920D02*
X024678Y015920D01*
X024678Y015998D02*
X008083Y015998D01*
X008083Y016077D02*
X024678Y016077D01*
X024678Y016155D02*
X008083Y016155D01*
X008083Y016234D02*
X024678Y016234D01*
X024678Y016312D02*
X008083Y016312D01*
X008083Y016391D02*
X024678Y016391D01*
X024678Y016469D02*
X008083Y016469D01*
X008083Y016548D02*
X024678Y016548D01*
X024678Y016626D02*
X008083Y016626D01*
X008083Y016705D02*
X024678Y016705D01*
X024678Y016783D02*
X008083Y016783D01*
X008083Y016862D02*
X024678Y016862D01*
X024678Y016940D02*
X008083Y016940D01*
X008084Y017019D02*
X024678Y017019D01*
X024678Y017097D02*
X008083Y017097D01*
X008082Y017176D02*
X024678Y017176D01*
X024678Y017254D02*
X008050Y017254D01*
X008004Y017333D02*
X024678Y017333D01*
X024678Y017411D02*
X007958Y017411D01*
X007849Y017490D02*
X024678Y017490D01*
X024678Y017568D02*
X007710Y017568D01*
X003772Y014036D02*
X000799Y014036D01*
X000799Y014114D02*
X002155Y014114D01*
X001997Y014193D02*
X000799Y014193D01*
X000799Y014271D02*
X001870Y014271D01*
X001801Y014350D02*
X000799Y014350D01*
X000799Y014428D02*
X001733Y014428D01*
X001668Y014507D02*
X000799Y014507D01*
X000799Y014585D02*
X001641Y014585D01*
X001615Y014664D02*
X000799Y014664D01*
X000799Y014742D02*
X001588Y014742D01*
X001562Y014821D02*
X000799Y014821D01*
X000799Y014899D02*
X001567Y014899D01*
X001572Y014978D02*
X000799Y014978D01*
X000799Y015056D02*
X001572Y015056D01*
X001572Y015135D02*
X000799Y015135D01*
X000799Y015213D02*
X001572Y015213D01*
X001572Y015292D02*
X000799Y015292D01*
X000799Y015370D02*
X001572Y015370D01*
X001572Y015449D02*
X000799Y015449D01*
X000799Y015527D02*
X001572Y015527D01*
X001572Y015606D02*
X000799Y015606D01*
X000799Y015684D02*
X001572Y015684D01*
X001572Y015763D02*
X000799Y015763D01*
X000799Y015841D02*
X001572Y015841D01*
X001572Y015920D02*
X000799Y015920D01*
X000799Y015998D02*
X001572Y015998D01*
X001572Y016077D02*
X000799Y016077D01*
X000799Y016155D02*
X001572Y016155D01*
X001572Y016234D02*
X000799Y016234D01*
X000799Y016312D02*
X001572Y016312D01*
X001572Y016391D02*
X000799Y016391D01*
X000799Y016469D02*
X001572Y016469D01*
X001572Y016548D02*
X000799Y016548D01*
X000799Y016626D02*
X001572Y016626D01*
X001572Y016705D02*
X000799Y016705D01*
X000799Y016783D02*
X001572Y016783D01*
X001572Y016862D02*
X000799Y016862D01*
X000799Y016940D02*
X001582Y016940D01*
X001614Y017019D02*
X000799Y017019D01*
X000799Y017097D02*
X001647Y017097D01*
X001679Y017176D02*
X000799Y017176D01*
X000799Y017254D02*
X001733Y017254D01*
X001812Y017333D02*
X000799Y017333D01*
X000799Y017411D02*
X001890Y017411D01*
X002030Y017490D02*
X000799Y017490D01*
X000799Y017568D02*
X002219Y017568D01*
X000891Y017961D02*
X024502Y017961D01*
X024613Y017882D02*
X000815Y017882D01*
X000799Y017804D02*
X024656Y017804D01*
X024678Y017725D02*
X000802Y017725D01*
X000799Y017647D02*
X024678Y017647D01*
X024678Y013015D02*
X009043Y013015D01*
X009182Y012937D02*
X024678Y012937D01*
X024678Y012858D02*
X009321Y012858D01*
X009461Y012780D02*
X024678Y012780D01*
X024678Y012701D02*
X009594Y012701D01*
X009693Y012623D02*
X024678Y012623D01*
X024678Y012544D02*
X009793Y012544D01*
X009893Y012466D02*
X024678Y012466D01*
X024678Y012387D02*
X009993Y012387D01*
X010093Y012309D02*
X024678Y012309D01*
X024678Y012230D02*
X010184Y012230D01*
X010257Y012152D02*
X024678Y012152D01*
X024678Y012073D02*
X010331Y012073D01*
X010404Y011995D02*
X024678Y011995D01*
X024678Y011916D02*
X010477Y011916D01*
X010550Y011838D02*
X024678Y011838D01*
X024678Y011759D02*
X010623Y011759D01*
X010689Y011681D02*
X024678Y011681D01*
X024678Y011602D02*
X010742Y011602D01*
X010796Y011524D02*
X024678Y011524D01*
X024678Y011445D02*
X023721Y011445D01*
X023826Y011367D02*
X024678Y011367D01*
X024678Y011288D02*
X023902Y011288D01*
X023954Y011210D02*
X024678Y011210D01*
X024678Y011131D02*
X023985Y011131D01*
X024016Y011053D02*
X024678Y011053D01*
X024678Y010974D02*
X024024Y010974D01*
X024023Y010896D02*
X024678Y010896D01*
X024678Y010817D02*
X024023Y010817D01*
X024023Y010739D02*
X024678Y010739D01*
X024678Y010660D02*
X024023Y010660D01*
X024023Y010582D02*
X024678Y010582D01*
X024678Y010503D02*
X024023Y010503D01*
X024023Y010425D02*
X024678Y010425D01*
X024678Y010346D02*
X024023Y010346D01*
X024023Y010268D02*
X024678Y010268D01*
X024678Y010189D02*
X024023Y010189D01*
X024023Y010111D02*
X024678Y010111D01*
X024678Y010032D02*
X024023Y010032D01*
X024023Y009954D02*
X024678Y009954D01*
X024678Y009875D02*
X024023Y009875D01*
X024023Y009797D02*
X024678Y009797D01*
X024678Y009718D02*
X024023Y009718D01*
X024023Y009640D02*
X024678Y009640D01*
X024678Y009561D02*
X024023Y009561D01*
X024023Y009483D02*
X024678Y009483D01*
X024678Y009404D02*
X024023Y009404D01*
X024023Y009326D02*
X024678Y009326D01*
X024678Y009247D02*
X024023Y009247D01*
X024023Y009169D02*
X024678Y009169D01*
X024678Y009090D02*
X024023Y009090D01*
X024023Y009012D02*
X024678Y009012D01*
X024678Y008933D02*
X024023Y008933D01*
X024023Y008855D02*
X024678Y008855D01*
X024678Y008776D02*
X024023Y008776D01*
X024023Y008698D02*
X024678Y008698D01*
X024678Y008619D02*
X024023Y008619D01*
X024023Y008541D02*
X024678Y008541D01*
X024678Y008462D02*
X024023Y008462D01*
X024023Y008384D02*
X024678Y008384D01*
X024678Y008305D02*
X024023Y008305D01*
X024023Y008227D02*
X024678Y008227D01*
X024678Y008148D02*
X024023Y008148D01*
X024023Y008070D02*
X024678Y008070D01*
X024678Y007991D02*
X024023Y007991D01*
X024023Y007913D02*
X024678Y007913D01*
X024678Y007834D02*
X024023Y007834D01*
X024023Y007756D02*
X024678Y007756D01*
X024678Y007677D02*
X024023Y007677D01*
X024023Y007599D02*
X024678Y007599D01*
X024678Y007520D02*
X024023Y007520D01*
X024023Y007442D02*
X024678Y007442D01*
X024678Y007363D02*
X024023Y007363D01*
X024027Y007285D02*
X024678Y007285D01*
X024678Y007206D02*
X024027Y007206D01*
X024027Y007128D02*
X024678Y007128D01*
X024678Y007049D02*
X024027Y007049D01*
X024027Y006971D02*
X024678Y006971D01*
X024678Y006892D02*
X024027Y006892D01*
X024027Y006814D02*
X024678Y006814D01*
X024678Y006735D02*
X024027Y006735D01*
X024027Y006657D02*
X024678Y006657D01*
X024678Y006578D02*
X024027Y006578D01*
X024027Y006500D02*
X024678Y006500D01*
X024678Y006421D02*
X024027Y006421D01*
X024023Y006343D02*
X024678Y006343D01*
X024678Y006264D02*
X024023Y006264D01*
X024023Y006186D02*
X024678Y006186D01*
X024678Y006107D02*
X024023Y006107D01*
X024023Y006029D02*
X024678Y006029D01*
X024678Y005950D02*
X024023Y005950D01*
X024023Y005872D02*
X024678Y005872D01*
X024678Y005793D02*
X024023Y005793D01*
X024023Y005715D02*
X024678Y005715D01*
X024678Y005636D02*
X024023Y005636D01*
X024023Y005558D02*
X024678Y005558D01*
X024678Y005479D02*
X024023Y005479D01*
X024023Y005401D02*
X024678Y005401D01*
X024678Y005322D02*
X024023Y005322D01*
X024023Y005244D02*
X024678Y005244D01*
X024678Y005165D02*
X024023Y005165D01*
X024023Y005087D02*
X024678Y005087D01*
X024678Y005008D02*
X024023Y005008D01*
X024023Y004930D02*
X024678Y004930D01*
X024678Y004851D02*
X024023Y004851D01*
X024023Y004773D02*
X024678Y004773D01*
X024678Y004694D02*
X024023Y004694D01*
X024023Y004616D02*
X024678Y004616D01*
X024678Y004537D02*
X024023Y004537D01*
X024023Y004459D02*
X024678Y004459D01*
X024678Y004380D02*
X024023Y004380D01*
X024023Y004302D02*
X024678Y004302D01*
X024678Y004223D02*
X024023Y004223D01*
X024023Y004145D02*
X024678Y004145D01*
X024678Y004066D02*
X024023Y004066D01*
X024023Y003988D02*
X024678Y003988D01*
X024678Y003909D02*
X024023Y003909D01*
X024023Y003831D02*
X024678Y003831D01*
X024678Y003752D02*
X024023Y003752D01*
X024023Y003674D02*
X024678Y003674D01*
X024678Y003595D02*
X024023Y003595D01*
X024023Y003517D02*
X024678Y003517D01*
X024678Y003438D02*
X024023Y003438D01*
X024023Y003360D02*
X024678Y003360D01*
X024678Y003281D02*
X024023Y003281D01*
X024023Y003203D02*
X024678Y003203D01*
X024678Y003124D02*
X024023Y003124D01*
X024023Y003046D02*
X024678Y003046D01*
X024678Y002967D02*
X024023Y002967D01*
X024023Y002889D02*
X024678Y002889D01*
X024678Y002810D02*
X024023Y002810D01*
X024023Y002732D02*
X024678Y002732D01*
X024678Y002653D02*
X024023Y002653D01*
X024023Y002575D02*
X024678Y002575D01*
X024678Y002496D02*
X024023Y002496D01*
X024023Y002418D02*
X024678Y002418D01*
X024678Y002339D02*
X024023Y002339D01*
X024023Y002261D02*
X024678Y002261D01*
X024678Y002182D02*
X024023Y002182D01*
X024023Y002104D02*
X024678Y002104D01*
X024678Y002025D02*
X024003Y002025D01*
X023971Y001947D02*
X024678Y001947D01*
X024678Y001868D02*
X023938Y001868D01*
X023861Y001790D02*
X024678Y001790D01*
X024678Y001711D02*
X023783Y001711D01*
X023598Y001633D02*
X024678Y001633D01*
X024678Y001554D02*
X022529Y001554D01*
X022529Y001476D02*
X024678Y001476D01*
X024678Y001397D02*
X022529Y001397D01*
X022529Y001319D02*
X024678Y001319D01*
X024678Y001240D02*
X022529Y001240D01*
X022529Y001162D02*
X024678Y001162D01*
X024678Y001083D02*
X022529Y001083D01*
X022529Y001005D02*
X024668Y001005D01*
X024626Y000926D02*
X022529Y000926D01*
X022529Y000848D02*
X024545Y000848D01*
X021205Y003909D02*
X021077Y003909D01*
X021155Y003988D02*
X021220Y003988D01*
X021204Y004066D02*
X021258Y004066D01*
X021245Y004145D02*
X021237Y004145D01*
X021244Y004223D02*
X021245Y004223D01*
X021245Y004245D02*
X021474Y004245D01*
X021474Y004485D01*
X021367Y004485D01*
X021331Y004476D01*
X021299Y004457D01*
X021273Y004431D01*
X021255Y004399D01*
X021245Y004364D01*
X021245Y004245D01*
X021244Y004302D02*
X021245Y004302D01*
X021244Y004380D02*
X021250Y004380D01*
X021244Y004459D02*
X021301Y004459D01*
X021474Y004459D02*
X021493Y004459D01*
X021493Y004380D02*
X021474Y004380D01*
X021474Y004302D02*
X021493Y004302D01*
X021627Y004694D02*
X021186Y004694D01*
X021112Y004773D02*
X021404Y004773D01*
X021299Y004851D02*
X020979Y004851D01*
X020490Y004066D02*
X020476Y004066D01*
X022046Y004773D02*
X022400Y004773D01*
X022501Y004851D02*
X022152Y004851D01*
X022224Y004930D02*
X022902Y004930D01*
X022881Y005008D02*
X022276Y005008D01*
X015780Y001554D02*
X000799Y001554D01*
X000799Y001476D02*
X015780Y001476D01*
X015780Y001397D02*
X000799Y001397D01*
X000799Y001319D02*
X015780Y001319D01*
X015780Y001240D02*
X000799Y001240D01*
X000799Y001162D02*
X015780Y001162D01*
X015780Y001083D02*
X000799Y001083D01*
X000799Y001005D02*
X015780Y001005D01*
X015780Y000926D02*
X000808Y000926D01*
X000855Y000848D02*
X015780Y000848D01*
X014842Y003593D02*
X014538Y003593D01*
X014531Y003596D01*
X014486Y003593D01*
X014441Y003593D01*
X014441Y003687D01*
X014438Y003700D01*
X014476Y003700D01*
X014524Y003680D01*
X014643Y003680D01*
X014754Y003726D01*
X014770Y003743D01*
X014825Y003611D01*
X014842Y003593D01*
X014840Y003595D02*
X014532Y003595D01*
X014524Y003595D02*
X014441Y003595D01*
X014441Y003674D02*
X014799Y003674D01*
X013754Y004300D02*
X013735Y004300D01*
X013735Y004641D01*
X013495Y004641D01*
X013495Y004533D01*
X013504Y004498D01*
X013520Y004470D01*
X013504Y004443D01*
X013495Y004407D01*
X013495Y004300D01*
X013735Y004300D01*
X013735Y004281D01*
X013495Y004281D01*
X013495Y004173D01*
X013501Y004150D01*
X013455Y004103D01*
X013455Y003781D01*
X013378Y003872D01*
X013287Y004109D01*
X013277Y004363D01*
X013350Y004606D01*
X013497Y004813D01*
X013522Y004833D01*
X013504Y004803D01*
X013495Y004767D01*
X013495Y004660D01*
X013735Y004660D01*
X013735Y004889D01*
X013616Y004889D01*
X013581Y004879D01*
X013567Y004871D01*
X013589Y004890D01*
X013721Y004965D01*
X013965Y005206D01*
X013965Y005206D01*
X014090Y005420D01*
X014100Y005406D01*
X014155Y005351D01*
X014218Y005305D01*
X014287Y005270D01*
X014361Y005246D01*
X014437Y005234D01*
X014437Y005473D01*
X014517Y005473D01*
X014517Y005234D01*
X014593Y005246D01*
X014667Y005270D01*
X014736Y005305D01*
X014763Y005324D01*
X014763Y005299D01*
X014754Y005196D01*
X014852Y004988D01*
X014852Y004988D01*
X014905Y004951D01*
X014835Y004880D01*
X014424Y004880D01*
X014376Y004929D01*
X014007Y004929D01*
X013939Y004862D01*
X013909Y004879D01*
X013873Y004889D01*
X013754Y004889D01*
X013754Y004660D01*
X013735Y004660D01*
X013735Y004641D01*
X013754Y004641D01*
X013754Y004412D01*
X013754Y004300D01*
X013754Y004302D02*
X013735Y004302D01*
X013735Y004380D02*
X013754Y004380D01*
X013754Y004459D02*
X013735Y004459D01*
X013735Y004537D02*
X013754Y004537D01*
X013754Y004616D02*
X013735Y004616D01*
X013735Y004694D02*
X013754Y004694D01*
X013754Y004773D02*
X013735Y004773D01*
X013735Y004851D02*
X013754Y004851D01*
X013721Y004965D02*
X013721Y004965D01*
X013764Y005008D02*
X014842Y005008D01*
X014852Y004988D02*
X014852Y004988D01*
X014885Y004930D02*
X013659Y004930D01*
X013496Y004773D02*
X013469Y004773D01*
X013495Y004694D02*
X013413Y004694D01*
X013357Y004616D02*
X013495Y004616D01*
X013495Y004537D02*
X013329Y004537D01*
X013306Y004459D02*
X013513Y004459D01*
X013495Y004380D02*
X013282Y004380D01*
X013279Y004302D02*
X013495Y004302D01*
X013495Y004223D02*
X013282Y004223D01*
X013285Y004145D02*
X013496Y004145D01*
X013455Y004066D02*
X013303Y004066D01*
X013334Y003988D02*
X013455Y003988D01*
X013455Y003909D02*
X013364Y003909D01*
X013413Y003831D02*
X013455Y003831D01*
X013844Y005087D02*
X014806Y005087D01*
X014769Y005165D02*
X013923Y005165D01*
X013987Y005244D02*
X014374Y005244D01*
X014437Y005244D02*
X014517Y005244D01*
X014581Y005244D02*
X014758Y005244D01*
X014754Y005196D02*
X014754Y005196D01*
X014760Y005322D02*
X014763Y005322D01*
X014517Y005322D02*
X014437Y005322D01*
X014437Y005401D02*
X014517Y005401D01*
X014194Y005322D02*
X014033Y005322D01*
X014079Y005401D02*
X014105Y005401D01*
X011482Y005401D02*
X000799Y005401D01*
X000799Y005479D02*
X011482Y005479D01*
X011482Y005558D02*
X000799Y005558D01*
X000799Y005636D02*
X011482Y005636D01*
X011482Y005715D02*
X000799Y005715D01*
X000799Y005793D02*
X011482Y005793D01*
X011482Y005872D02*
X000799Y005872D01*
X000799Y005950D02*
X011482Y005950D01*
X011482Y006029D02*
X000799Y006029D01*
X000799Y006107D02*
X011482Y006107D01*
X011482Y006186D02*
X000799Y006186D01*
X000799Y006264D02*
X011482Y006264D01*
X011482Y006343D02*
X000799Y006343D01*
X000799Y006421D02*
X011482Y006421D01*
X011482Y006500D02*
X000799Y006500D01*
X000799Y006578D02*
X011482Y006578D01*
X011482Y006657D02*
X000799Y006657D01*
X000799Y006735D02*
X011482Y006735D01*
X011482Y005322D02*
X000799Y005322D01*
X000799Y005244D02*
X011482Y005244D01*
X011482Y005165D02*
X000799Y005165D01*
X000799Y005087D02*
X011482Y005087D01*
X011482Y005008D02*
X000799Y005008D01*
X000799Y004930D02*
X011482Y004930D01*
X011482Y004851D02*
X000799Y004851D01*
X000799Y004773D02*
X011482Y004773D01*
X011482Y004694D02*
X000799Y004694D01*
X000799Y004616D02*
X011482Y004616D01*
X011482Y004537D02*
X000799Y004537D01*
X000799Y004459D02*
X011482Y004459D01*
X011482Y004380D02*
X000799Y004380D01*
X000799Y004302D02*
X011482Y004302D01*
X011482Y004223D02*
X000799Y004223D01*
X000799Y004145D02*
X011482Y004145D01*
X011482Y004066D02*
X000799Y004066D01*
X000799Y003988D02*
X011482Y003988D01*
X011482Y003909D02*
X000799Y003909D01*
X000799Y003831D02*
X011482Y003831D01*
X011482Y003752D02*
X000799Y003752D01*
X000799Y003674D02*
X011482Y003674D01*
X011482Y003595D02*
X000799Y003595D01*
X000799Y003517D02*
X011482Y003517D01*
X011482Y003438D02*
X000799Y003438D01*
X000799Y003360D02*
X011482Y003360D01*
X011482Y003281D02*
X000799Y003281D01*
X000799Y003203D02*
X011482Y003203D01*
X011482Y003124D02*
X000799Y003124D01*
X000799Y003046D02*
X011482Y003046D01*
X011482Y002967D02*
X000799Y002967D01*
X000799Y002889D02*
X011482Y002889D01*
X011482Y002810D02*
X000799Y002810D01*
X000799Y002732D02*
X011482Y002732D01*
X011482Y002653D02*
X000799Y002653D01*
X000799Y002575D02*
X011482Y002575D01*
X011482Y002496D02*
X000799Y002496D01*
X000799Y002418D02*
X011482Y002418D01*
X011482Y002339D02*
X000799Y002339D01*
X000799Y002261D02*
X011482Y002261D01*
X011482Y002182D02*
X000799Y002182D01*
X000799Y002104D02*
X011480Y002104D01*
X011487Y002025D02*
X000799Y002025D01*
X000799Y001947D02*
X011517Y001947D01*
X011546Y001868D02*
X000799Y001868D01*
X000799Y001790D02*
X011614Y001790D01*
X011688Y001711D02*
X000799Y001711D01*
X000799Y001633D02*
X011860Y001633D01*
X006134Y012309D02*
X005193Y012309D01*
X005193Y012387D02*
X006027Y012387D01*
X005949Y012466D02*
X005193Y012466D01*
X005193Y012544D02*
X005912Y012544D01*
X005941Y012473D02*
X005941Y012473D01*
X005879Y012623D02*
X005193Y012623D01*
X005193Y012701D02*
X005863Y012701D01*
X005863Y012780D02*
X005193Y012780D01*
X005193Y012858D02*
X005863Y012858D01*
X005863Y012937D02*
X005193Y012937D01*
X005193Y013015D02*
X005863Y013015D01*
X005863Y013094D02*
X005193Y013094D01*
X005193Y013172D02*
X005863Y013172D01*
X005863Y013251D02*
X005193Y013251D01*
X005193Y013329D02*
X005863Y013329D01*
X005863Y013408D02*
X005193Y013408D01*
X005193Y013486D02*
X005863Y013486D01*
X005863Y013565D02*
X005193Y013565D01*
X005193Y013643D02*
X005863Y013643D01*
D30*
X005358Y013935D02*
X005358Y014795D01*
D31*
X005534Y014654D02*
X005684Y014654D01*
X017200Y007314D02*
X017480Y007314D01*
X017926Y007314D02*
X017926Y007291D01*
X018184Y007034D01*
X018184Y006484D01*
X018034Y006334D01*
X017771Y006334D01*
X017760Y006323D01*
X017309Y006634D02*
X017311Y006660D01*
X017316Y006686D01*
X017324Y006711D01*
X017336Y006734D01*
X017350Y006756D01*
X017368Y006775D01*
X017387Y006793D01*
X017409Y006807D01*
X017432Y006819D01*
X017457Y006827D01*
X017483Y006832D01*
X017509Y006834D01*
X017771Y006834D01*
X017760Y006823D01*
X017771Y006834D02*
X017984Y006834D01*
X018384Y006409D02*
X018184Y006209D01*
X018184Y005484D01*
X018023Y005323D01*
X017760Y005323D01*
X017284Y005334D02*
X016960Y005010D01*
X016960Y004557D01*
X016600Y004557D02*
X016600Y004950D01*
X017084Y005434D01*
X017084Y005734D01*
X017309Y005959D01*
X017309Y006634D01*
X016660Y005844D02*
X016660Y005614D01*
X016760Y005514D01*
X017284Y005634D02*
X017284Y005334D01*
X017284Y005634D02*
X017473Y005823D01*
X017760Y005823D01*
X018384Y006409D02*
X018384Y007310D01*
X018380Y007314D01*
X019284Y006934D02*
X019395Y006823D01*
X019846Y006823D01*
X019726Y007314D02*
X020009Y007314D01*
X019846Y005823D02*
X019823Y005823D01*
X019343Y004411D02*
X019343Y004049D01*
X018950Y004208D02*
X018950Y004411D01*
X018950Y004208D02*
X018952Y004152D01*
X018958Y004096D01*
X018968Y004041D01*
X018982Y003987D01*
X018999Y003934D01*
X019021Y003882D01*
X019046Y003832D01*
X019074Y003784D01*
X019106Y003738D01*
X019141Y003695D01*
X019180Y003654D01*
X019221Y003615D01*
X019264Y003580D01*
X019310Y003548D01*
X019358Y003520D01*
X019408Y003495D01*
X019460Y003473D01*
X019513Y003456D01*
X019567Y003442D01*
X019622Y003432D01*
X019678Y003426D01*
X019734Y003424D01*
X021382Y003424D01*
X021484Y003322D01*
X021304Y003609D02*
X021484Y003789D01*
X021304Y003609D02*
X019834Y003609D01*
X019791Y003608D01*
X019748Y003612D01*
X019706Y003620D01*
X019664Y003631D01*
X019624Y003646D01*
X019585Y003665D01*
X019549Y003688D01*
X019514Y003713D01*
X019482Y003742D01*
X019453Y003774D01*
X019427Y003808D01*
X019404Y003844D01*
X019384Y003883D01*
X019368Y003923D01*
X019356Y003964D01*
X019348Y004006D01*
X019344Y004049D01*
X017964Y003709D02*
X017959Y003709D01*
X017934Y003734D01*
X017234Y003734D01*
X017234Y003884D01*
X017006Y004111D01*
X016984Y004111D01*
X016960Y004111D01*
X016960Y004107D01*
X016960Y003762D02*
X016600Y003762D01*
X016600Y004110D01*
X016600Y004111D01*
X016600Y003762D02*
X016600Y003415D01*
X016960Y003415D02*
X017015Y003415D01*
X017234Y003634D01*
X017234Y003734D01*
X016960Y002968D02*
X016784Y002968D01*
X016600Y002968D01*
X016784Y002968D02*
X016784Y002734D01*
X015168Y003840D02*
X014718Y004290D01*
X014191Y004290D01*
X014191Y003930D02*
X014534Y003930D01*
X014584Y003980D01*
X014797Y003670D02*
X014740Y003614D01*
X014254Y003614D01*
X014230Y003590D01*
X014211Y003590D01*
X014191Y003570D01*
X013745Y003570D02*
X013745Y003930D01*
X014191Y004650D02*
X015158Y004650D01*
X015168Y004640D01*
X014323Y005340D02*
X014477Y005728D01*
X017817Y009646D02*
X018250Y009646D01*
X018697Y009646D02*
X018984Y009646D01*
X019797Y009646D02*
X020064Y009646D01*
X020300Y009646D01*
X020350Y009596D01*
X020908Y010015D02*
X020908Y010044D01*
X022710Y004466D02*
X022710Y004260D01*
X022484Y004034D01*
X022484Y003704D02*
X022710Y003477D01*
X022710Y003316D01*
D32*
X016660Y006604D03*
X016660Y006854D03*
X016660Y007104D03*
X016660Y007354D03*
D33*
X020897Y008120D02*
X020897Y008358D01*
D34*
X020897Y008120D02*
X021034Y008034D01*
X021034Y005434D01*
X021042Y005406D01*
X021054Y005380D01*
X021069Y005355D01*
X021088Y005333D01*
X021109Y005313D01*
X021132Y005296D01*
X021158Y005283D01*
X021185Y005273D01*
X021213Y005266D01*
X021242Y005263D01*
X021271Y005264D01*
X021299Y005269D01*
X021725Y005319D01*
D35*
X020934Y010044D02*
X020908Y010044D01*
X010174Y010044D01*
D36*
X015168Y004640D02*
X015475Y004334D01*
X016884Y004334D01*
X016960Y004257D01*
X016960Y004111D01*
X016600Y004111D02*
X016500Y004186D01*
X015468Y004186D01*
X015168Y003840D01*
D37*
X018548Y004411D02*
X018548Y004748D01*
X018550Y004774D01*
X018556Y004800D01*
X018565Y004825D01*
X018578Y004849D01*
X018593Y004870D01*
X018612Y004889D01*
X018633Y004904D01*
X018657Y004917D01*
X018682Y004926D01*
X018708Y004932D01*
X018734Y004934D01*
X019324Y004934D01*
X019534Y004934D01*
X019324Y004934D02*
X019324Y006584D01*
X019326Y006613D01*
X019331Y006641D01*
X019340Y006669D01*
X019351Y006695D01*
X019366Y006720D01*
X019384Y006742D01*
X019405Y006763D01*
X019427Y006781D01*
X019452Y006796D01*
X019478Y006807D01*
X019506Y006816D01*
X019534Y006821D01*
X019563Y006823D01*
X020123Y006323D02*
X020154Y006325D01*
X020185Y006331D01*
X020216Y006340D01*
X020244Y006353D01*
X020271Y006369D01*
X020296Y006389D01*
X020318Y006411D01*
X020338Y006436D01*
X020354Y006463D01*
X020367Y006491D01*
X020376Y006522D01*
X020382Y006553D01*
X020384Y006584D01*
X020384Y007484D01*
X019385Y008483D01*
X019152Y008483D01*
X019171Y008486D01*
X019190Y008485D01*
X019209Y008481D01*
X019227Y008474D01*
X019243Y008464D01*
X019257Y008451D01*
X019269Y008436D01*
X019278Y008419D01*
X019284Y008401D01*
X019284Y008254D01*
X019867Y008600D02*
X019867Y008614D01*
X019867Y008600D02*
X020234Y008234D01*
X020234Y008241D01*
X020350Y008358D01*
X020350Y008300D01*
X020234Y008234D02*
X020734Y007734D01*
X020734Y005934D01*
X020732Y005886D01*
X020726Y005838D01*
X020717Y005791D01*
X020704Y005745D01*
X020687Y005700D01*
X020667Y005657D01*
X020644Y005615D01*
X020617Y005575D01*
X020588Y005537D01*
X020555Y005502D01*
X020520Y005469D01*
X020482Y005440D01*
X020442Y005413D01*
X020400Y005390D01*
X020357Y005370D01*
X020312Y005353D01*
X020266Y005340D01*
X020219Y005331D01*
X020171Y005325D01*
X020123Y005323D01*
X019846Y005323D01*
X019745Y004722D02*
X019745Y004411D01*
X019745Y004722D02*
X019743Y004750D01*
X019738Y004777D01*
X019729Y004803D01*
X019717Y004827D01*
X019701Y004850D01*
X019683Y004871D01*
X019662Y004889D01*
X019640Y004905D01*
X019615Y004917D01*
X019589Y004926D01*
X019562Y004931D01*
X019534Y004933D01*
X019846Y006323D02*
X020123Y006323D01*
X017754Y008483D02*
X017754Y009215D01*
X017924Y009215D01*
X019867Y009215D01*
X020350Y008977D01*
X019867Y009061D02*
X019867Y009215D01*
X005167Y015337D02*
X005167Y015794D01*
D38*
X019563Y006823D02*
X019846Y006823D01*
D39*
X005167Y015794D03*
D40*
X005167Y015337D02*
X005334Y015337D01*
X005334Y015312D01*
D41*
X017624Y009215D03*
X017924Y009215D03*
D42*
X017624Y009215D01*
M02*
