%
M48
M72
T01C0.0100
T02C0.0120
T03C0.0160
T04C0.0260
T05C0.0492
%
T01
X16194Y5806
X16748Y5165
X16978Y5415
T02
X13159Y5547
X13303Y5990
X13778Y6165
X14578Y4915
X16778Y3735
X17128Y3735
X18118Y3417
X18418Y3417
X18718Y3417
X18868Y3167
X18568Y3167
X18268Y3167
X16778Y2715
X17284Y4934
X17284Y5284
X16978Y5744
X16660Y6465
X17018Y6717
X17018Y7017
X16718Y7017
X16168Y8067
X16168Y8367
X16168Y8667
X16168Y8967
X16168Y9267
X15084Y8629
X15084Y7929
X19218Y7867
X19218Y8167
X20018Y8517
X20318Y8517
X20618Y8517
X20634Y6262
X20634Y5762
X21334Y5034
X21725Y4834
X22134Y5034
X22528Y4615
X22528Y3715
X22168Y3217
X21868Y3217
X21568Y3217
X19745Y4198
X8215Y13484
X5658Y13410
X5658Y13110
X5658Y12810
T03
X16839Y8368
X17409Y9589
X18884Y9234
T04
X19184Y6834
X18698Y5212
X19905Y5212
X5167Y15794
T05
X14710Y8279
X21725Y5319
M30
