G75*
G70*
%OFA0B0*%
%FSLAX24Y24*%
%IPPOS*%
%LPD*%
%AMOC8*
5,1,8,0,0,1.08239X$1,22.5*
%
%ADD10C,0.0050*%
%ADD11C,0.0080*%
%ADD12C,0.0100*%
%ADD13C,0.0060*%
%ADD14C,0.0004*%
%ADD15C,0.0120*%
%ADD16C,0.0020*%
%ADD17C,0.0040*%
D10*
X000929Y000534D02*
X024328Y000534D01*
X024327Y000533D02*
X024374Y000530D01*
X024420Y000531D01*
X024466Y000536D01*
X024512Y000544D01*
X024556Y000557D01*
X024600Y000573D01*
X024642Y000592D01*
X024682Y000615D01*
X024720Y000641D01*
X024756Y000671D01*
X024790Y000703D01*
X024821Y000737D01*
X024848Y000775D01*
X024873Y000814D01*
X024894Y000855D01*
X024912Y000898D01*
X024926Y000942D01*
X024936Y000987D01*
X024943Y001033D01*
X024943Y001034D02*
X024943Y017752D01*
X024943Y017753D02*
X024936Y017798D01*
X024926Y017844D01*
X024911Y017888D01*
X024894Y017930D01*
X024872Y017971D01*
X024848Y018011D01*
X024820Y018048D01*
X024789Y018082D01*
X024756Y018114D01*
X024720Y018143D01*
X024682Y018170D01*
X024641Y018192D01*
X024599Y018212D01*
X024556Y018228D01*
X024511Y018240D01*
X024466Y018248D01*
X024420Y018253D01*
X024374Y018254D01*
X024327Y018251D01*
X024328Y018250D02*
X000929Y018250D01*
X000930Y018250D02*
X000889Y018243D01*
X000849Y018233D01*
X000809Y018219D01*
X000772Y018201D01*
X000736Y018180D01*
X000702Y018156D01*
X000671Y018129D01*
X000642Y018099D01*
X000616Y018066D01*
X000593Y018032D01*
X000574Y017995D01*
X000558Y017956D01*
X000546Y017917D01*
X000537Y017876D01*
X000532Y017835D01*
X000531Y017793D01*
X000534Y017752D01*
X000534Y001034D01*
X000531Y000993D01*
X000532Y000951D01*
X000537Y000910D01*
X000545Y000869D01*
X000558Y000829D01*
X000574Y000791D01*
X000593Y000754D01*
X000616Y000719D01*
X000642Y000686D01*
X000670Y000656D01*
X000702Y000629D01*
X000736Y000604D01*
X000772Y000583D01*
X000809Y000565D01*
X000848Y000551D01*
X000889Y000541D01*
X000930Y000534D01*
X009437Y007981D02*
X009399Y008165D01*
X009352Y008348D01*
X009296Y008528D01*
X009232Y008705D01*
X009159Y008878D01*
X009077Y009048D01*
X008988Y009214D01*
X008890Y009375D01*
X008785Y009532D01*
X008672Y009683D01*
X008552Y009828D01*
X008425Y009967D01*
X008291Y010100D01*
X008151Y010226D01*
X008005Y010345D01*
X007854Y010457D01*
X007697Y010562D01*
X007535Y010659D01*
X007369Y010747D01*
X007199Y010828D01*
X007025Y010900D01*
X006847Y010964D01*
X006667Y011019D01*
X006484Y011065D01*
X004578Y011065D01*
X004548Y011067D01*
X004518Y011072D01*
X004489Y011081D01*
X004462Y011094D01*
X004436Y011109D01*
X004412Y011128D01*
X004391Y011149D01*
X004372Y011173D01*
X004357Y011199D01*
X004344Y011226D01*
X004335Y011255D01*
X004330Y011285D01*
X004328Y011315D01*
X004328Y013595D01*
X004326Y013649D01*
X004320Y013702D01*
X004311Y013754D01*
X004298Y013806D01*
X004281Y013857D01*
X004260Y013907D01*
X004236Y013954D01*
X004209Y014000D01*
X004178Y014044D01*
X004145Y014086D01*
X004108Y014125D01*
X004069Y014162D01*
X004027Y014195D01*
X003983Y014226D01*
X003937Y014253D01*
X003890Y014277D01*
X003840Y014298D01*
X003789Y014315D01*
X003737Y014328D01*
X003685Y014337D01*
X003632Y014343D01*
X003578Y014345D01*
X002387Y014345D01*
X002341Y014350D01*
X002296Y014359D01*
X002251Y014371D01*
X002207Y014386D01*
X002165Y014405D01*
X002124Y014428D01*
X002085Y014453D01*
X002048Y014481D01*
X002014Y014512D01*
X001982Y014546D01*
X001953Y014582D01*
X001927Y014621D01*
X001903Y014661D01*
X001884Y014703D01*
X001867Y014746D01*
X001854Y014791D01*
X001844Y014836D01*
X001838Y014882D01*
X001836Y014928D01*
X001837Y014975D01*
X001837Y016756D01*
X001839Y016801D01*
X001845Y016847D01*
X001854Y016891D01*
X001867Y016935D01*
X001883Y016977D01*
X001903Y017018D01*
X001927Y017057D01*
X001953Y017094D01*
X001982Y017129D01*
X002014Y017161D01*
X002049Y017190D01*
X002086Y017216D01*
X002125Y017240D01*
X002166Y017260D01*
X002208Y017276D01*
X002252Y017289D01*
X002296Y017298D01*
X002342Y017304D01*
X002387Y017306D01*
X005733Y017306D01*
X005733Y016215D01*
X005078Y016215D01*
X005055Y016217D01*
X005032Y016222D01*
X005010Y016231D01*
X004990Y016244D01*
X004972Y016259D01*
X004957Y016277D01*
X004944Y016297D01*
X004935Y016319D01*
X004930Y016342D01*
X004928Y016365D01*
X004928Y016665D01*
X004926Y016688D01*
X004921Y016711D01*
X004912Y016733D01*
X004899Y016753D01*
X004884Y016771D01*
X004866Y016786D01*
X004846Y016799D01*
X004824Y016808D01*
X004801Y016813D01*
X004778Y016815D01*
X002928Y016815D01*
X002883Y016813D01*
X002837Y016807D01*
X002793Y016798D01*
X002749Y016785D01*
X002707Y016769D01*
X002666Y016749D01*
X002627Y016725D01*
X002590Y016699D01*
X002555Y016670D01*
X002523Y016638D01*
X002494Y016603D01*
X002468Y016566D01*
X002444Y016527D01*
X002424Y016486D01*
X002408Y016444D01*
X002395Y016400D01*
X002386Y016356D01*
X002380Y016310D01*
X002378Y016265D01*
X002378Y015495D01*
X002380Y015450D01*
X002386Y015404D01*
X002395Y015360D01*
X002408Y015316D01*
X002424Y015274D01*
X002444Y015233D01*
X002468Y015194D01*
X002494Y015157D01*
X002523Y015122D01*
X002555Y015090D01*
X002590Y015061D01*
X002627Y015035D01*
X002666Y015011D01*
X002707Y014991D01*
X002749Y014975D01*
X002793Y014962D01*
X002837Y014953D01*
X002883Y014947D01*
X002928Y014945D01*
X004178Y014945D01*
X004232Y014943D01*
X004285Y014937D01*
X004337Y014928D01*
X004389Y014915D01*
X004440Y014898D01*
X004490Y014877D01*
X004537Y014853D01*
X004583Y014826D01*
X004627Y014795D01*
X004669Y014762D01*
X004708Y014725D01*
X004745Y014686D01*
X004778Y014644D01*
X004809Y014600D01*
X004836Y014554D01*
X004860Y014507D01*
X004881Y014457D01*
X004898Y014406D01*
X004911Y014354D01*
X004920Y014302D01*
X004926Y014249D01*
X004928Y014195D01*
X004928Y011915D01*
X004930Y011885D01*
X004935Y011855D01*
X004944Y011826D01*
X004957Y011799D01*
X004972Y011773D01*
X004991Y011749D01*
X005012Y011728D01*
X005036Y011709D01*
X005062Y011694D01*
X005089Y011681D01*
X005118Y011672D01*
X005148Y011667D01*
X005178Y011665D01*
X006878Y011665D01*
X007228Y012515D02*
X006378Y012515D01*
X006348Y012517D01*
X006318Y012522D01*
X006289Y012531D01*
X006262Y012544D01*
X006236Y012559D01*
X006212Y012578D01*
X006191Y012599D01*
X006172Y012623D01*
X006157Y012649D01*
X006144Y012676D01*
X006135Y012705D01*
X006130Y012735D01*
X006128Y012765D01*
X006128Y013765D01*
X006130Y013795D01*
X006135Y013825D01*
X006144Y013854D01*
X006157Y013881D01*
X006172Y013907D01*
X006191Y013931D01*
X006212Y013952D01*
X006236Y013971D01*
X006262Y013986D01*
X006289Y013999D01*
X006318Y014008D01*
X006348Y014013D01*
X006378Y014015D01*
X006978Y014015D01*
X007008Y014017D01*
X007038Y014022D01*
X007067Y014031D01*
X007094Y014044D01*
X007120Y014059D01*
X007144Y014078D01*
X007165Y014099D01*
X007184Y014123D01*
X007199Y014149D01*
X007212Y014176D01*
X007221Y014205D01*
X007226Y014235D01*
X007228Y014265D01*
X007228Y015965D01*
X007226Y015995D01*
X007221Y016025D01*
X007212Y016054D01*
X007199Y016081D01*
X007184Y016107D01*
X007165Y016131D01*
X007144Y016152D01*
X007120Y016171D01*
X007094Y016186D01*
X007067Y016199D01*
X007038Y016208D01*
X007008Y016213D01*
X006978Y016215D01*
X006521Y016215D01*
X006521Y017306D01*
X007568Y017306D01*
X007569Y017306D02*
X007599Y017304D01*
X007628Y017299D01*
X007657Y017291D01*
X007684Y017279D01*
X007710Y017263D01*
X007734Y017245D01*
X007755Y017224D01*
X007774Y017201D01*
X007790Y017175D01*
X007802Y017148D01*
X007811Y017119D01*
X007817Y017090D01*
X007819Y017060D01*
X007818Y017060D02*
X007818Y013156D01*
X009141Y013171D02*
X009141Y013071D01*
X009241Y012971D01*
X009363Y012971D02*
X009563Y012971D01*
X009363Y013171D01*
X009363Y013221D01*
X009413Y013271D01*
X009513Y013271D01*
X009563Y013221D01*
X009678Y013271D02*
X009778Y013171D01*
X009778Y013071D01*
X009678Y012971D01*
X009241Y013271D02*
X009141Y013171D01*
X009786Y013521D02*
X009836Y013521D01*
X009836Y013571D01*
X009786Y013571D01*
X009786Y013521D01*
X009886Y013421D01*
X010108Y013521D02*
X010108Y013671D01*
X010008Y013771D01*
X010008Y013821D01*
X010108Y013671D02*
X010208Y013771D01*
X010208Y013821D01*
X010330Y013771D02*
X010330Y013671D01*
X010380Y013621D01*
X010531Y013621D01*
X010531Y013521D02*
X010531Y013821D01*
X010380Y013821D01*
X010330Y013771D01*
X010430Y013621D02*
X010330Y013521D01*
X010323Y013271D02*
X010323Y012971D01*
X010545Y013021D02*
X010545Y013271D01*
X010423Y013271D02*
X010222Y013271D01*
X010545Y013021D02*
X010595Y012971D01*
X010695Y012971D01*
X010745Y013021D01*
X010745Y013271D01*
X010867Y013221D02*
X010917Y013271D01*
X011017Y013271D01*
X011067Y013221D01*
X011067Y013021D01*
X011017Y012971D01*
X010917Y012971D01*
X010867Y013021D01*
X010853Y013521D02*
X010653Y013521D01*
X010753Y013671D02*
X010853Y013671D01*
X010853Y013821D02*
X010853Y013521D01*
X011075Y013521D02*
X011075Y013821D01*
X011175Y013821D02*
X010975Y013821D01*
X010853Y013821D02*
X010653Y013821D01*
X011297Y013821D02*
X011497Y013821D01*
X011397Y013821D02*
X011397Y013521D01*
X011619Y013521D02*
X011619Y013721D01*
X011720Y013821D01*
X011820Y013721D01*
X011820Y013521D01*
X011942Y013571D02*
X011992Y013521D01*
X012142Y013521D01*
X012142Y013821D01*
X011992Y013821D01*
X011942Y013771D01*
X011942Y013721D01*
X011992Y013671D01*
X012142Y013671D01*
X011992Y013671D02*
X011942Y013621D01*
X011942Y013571D01*
X011820Y013671D02*
X011619Y013671D01*
X011712Y013271D02*
X011512Y012971D01*
X011512Y013271D01*
X011712Y013271D02*
X011712Y012971D01*
X011834Y012971D02*
X011834Y013171D01*
X011934Y013271D01*
X012034Y013171D01*
X012034Y012971D01*
X012156Y013021D02*
X012206Y012971D01*
X012306Y012971D01*
X012356Y013021D01*
X012356Y013221D01*
X012306Y013271D01*
X012206Y013271D01*
X012156Y013221D01*
X012034Y013121D02*
X011834Y013121D01*
X012586Y013571D02*
X012586Y013771D01*
X012636Y013821D01*
X012786Y013821D01*
X012786Y013521D01*
X012636Y013521D01*
X012586Y013571D01*
X012909Y013521D02*
X012909Y013821D01*
X013109Y013821D02*
X012909Y013521D01*
X013109Y013521D02*
X013109Y013821D01*
X013231Y013721D02*
X013231Y013521D01*
X013231Y013671D02*
X013431Y013671D01*
X013431Y013721D02*
X013431Y013521D01*
X013445Y013271D02*
X013445Y013221D01*
X013545Y013121D01*
X013545Y012971D01*
X013545Y013121D02*
X013645Y013221D01*
X013645Y013271D01*
X013323Y013221D02*
X013323Y013021D01*
X013273Y012971D01*
X013173Y012971D01*
X013123Y013021D01*
X013123Y013221D01*
X013173Y013271D01*
X013273Y013271D01*
X013323Y013221D01*
X013001Y013271D02*
X013001Y013021D01*
X012951Y012971D01*
X012851Y012971D01*
X012801Y013021D01*
X012801Y013271D01*
X013231Y013721D02*
X013331Y013821D01*
X013431Y013721D01*
X013875Y013771D02*
X013925Y013821D01*
X014026Y013821D01*
X014076Y013771D01*
X014076Y013571D01*
X014026Y013521D01*
X013925Y013521D01*
X013875Y013571D01*
X014198Y013671D02*
X014398Y013671D01*
X014520Y013621D02*
X014520Y013571D01*
X014570Y013521D01*
X014720Y013521D01*
X014720Y013821D01*
X014570Y013821D01*
X014520Y013771D01*
X014520Y013721D01*
X014570Y013671D01*
X014720Y013671D01*
X014842Y013621D02*
X014842Y013571D01*
X014892Y013521D01*
X014992Y013521D01*
X015042Y013571D01*
X014992Y013671D02*
X015042Y013721D01*
X015042Y013771D01*
X014992Y013821D01*
X014892Y013821D01*
X014842Y013771D01*
X014892Y013671D02*
X014842Y013621D01*
X014892Y013671D02*
X014992Y013671D01*
X015164Y013571D02*
X015215Y013521D01*
X015315Y013521D01*
X015365Y013571D01*
X015365Y013821D01*
X015164Y013821D02*
X015164Y013571D01*
X015157Y013271D02*
X015157Y012971D01*
X014934Y012971D02*
X014934Y013271D01*
X015057Y013271D02*
X015257Y013271D01*
X014934Y013121D02*
X014734Y013121D01*
X014612Y013121D02*
X014512Y013121D01*
X014612Y012971D02*
X014412Y012971D01*
X014290Y012971D02*
X014290Y013271D01*
X014090Y012971D01*
X014090Y013271D01*
X014412Y013271D02*
X014612Y013271D01*
X014612Y012971D01*
X014734Y012971D02*
X014734Y013271D01*
X014520Y013621D02*
X014570Y013671D01*
X015694Y013021D02*
X015744Y013021D01*
X015744Y012971D01*
X015694Y012971D01*
X015694Y013021D01*
X015694Y012971D02*
X015794Y012871D01*
X015916Y012971D02*
X016116Y012971D01*
X016116Y013271D01*
X015916Y013271D01*
X016016Y013121D02*
X016116Y013121D01*
X016238Y013121D02*
X016338Y013121D01*
X016238Y013121D02*
X016238Y013021D01*
X016288Y012971D01*
X016388Y012971D01*
X016438Y013021D01*
X016438Y013221D01*
X016388Y013271D01*
X016288Y013271D01*
X016238Y013221D01*
X016231Y013521D02*
X016231Y013821D01*
X016331Y013821D02*
X016131Y013821D01*
X016009Y013821D02*
X016009Y013521D01*
X016009Y013671D02*
X015809Y013671D01*
X015809Y013821D02*
X015809Y013521D01*
X016446Y013521D02*
X016546Y013521D01*
X016496Y013521D02*
X016496Y013821D01*
X016546Y013821D02*
X016446Y013821D01*
X016668Y013821D02*
X016668Y013521D01*
X016769Y013621D01*
X016869Y013521D01*
X016869Y013821D01*
X017313Y013771D02*
X017313Y013571D01*
X017363Y013521D01*
X017513Y013521D01*
X017513Y013821D01*
X017363Y013821D01*
X017313Y013771D01*
X017635Y013771D02*
X017635Y013671D01*
X017685Y013621D01*
X017835Y013621D01*
X017735Y013621D02*
X017635Y013521D01*
X017835Y013521D02*
X017835Y013821D01*
X017685Y013821D01*
X017635Y013771D01*
X017958Y013721D02*
X017958Y013521D01*
X017958Y013671D02*
X018158Y013671D01*
X018158Y013721D02*
X018058Y013821D01*
X017958Y013721D01*
X018158Y013721D02*
X018158Y013521D01*
X018280Y013571D02*
X018330Y013521D01*
X018430Y013521D01*
X018480Y013571D01*
X018480Y013771D01*
X018430Y013821D01*
X018330Y013821D01*
X018280Y013771D01*
X018280Y013571D01*
X018322Y013271D02*
X018372Y013221D01*
X018372Y013021D01*
X018322Y012971D01*
X018222Y012971D01*
X018172Y013021D01*
X018172Y013221D01*
X018222Y013271D01*
X018322Y013271D01*
X018494Y013271D02*
X018694Y013271D01*
X018594Y013271D02*
X018594Y012971D01*
X018587Y012671D02*
X018387Y012671D01*
X018487Y012671D02*
X018487Y012371D01*
X018265Y012371D02*
X018265Y012671D01*
X018265Y012521D02*
X018064Y012521D01*
X018064Y012671D02*
X018064Y012371D01*
X017942Y012371D02*
X017842Y012371D01*
X017892Y012371D02*
X017892Y012671D01*
X017942Y012671D02*
X017842Y012671D01*
X017728Y012671D02*
X017527Y012371D01*
X017527Y012671D01*
X017405Y012621D02*
X017405Y012421D01*
X017355Y012371D01*
X017255Y012371D01*
X017205Y012421D01*
X017205Y012521D01*
X017305Y012521D01*
X017205Y012621D02*
X017255Y012671D01*
X017355Y012671D01*
X017405Y012621D01*
X017728Y012671D02*
X017728Y012371D01*
X017678Y012971D02*
X017577Y012971D01*
X017527Y013021D01*
X017405Y012971D02*
X017405Y013271D01*
X017527Y013221D02*
X017577Y013271D01*
X017678Y013271D01*
X017728Y013221D01*
X017728Y013021D01*
X017678Y012971D01*
X017405Y013121D02*
X017205Y013121D01*
X017083Y013121D02*
X016883Y013121D01*
X016883Y013171D02*
X016883Y012971D01*
X016761Y012971D02*
X016761Y013271D01*
X016611Y013271D01*
X016561Y013221D01*
X016561Y013121D01*
X016611Y013071D01*
X016761Y013071D01*
X016661Y013071D02*
X016561Y012971D01*
X016883Y013171D02*
X016983Y013271D01*
X017083Y013171D01*
X017083Y012971D01*
X017205Y012971D02*
X017205Y013271D01*
X018602Y013571D02*
X018652Y013521D01*
X018802Y013521D01*
X018802Y013821D01*
X018652Y013821D01*
X018602Y013771D01*
X018602Y013721D01*
X018652Y013671D01*
X018802Y013671D01*
X018652Y013671D02*
X018602Y013621D01*
X018602Y013571D01*
X019139Y013271D02*
X019339Y013271D01*
X019239Y013271D02*
X019239Y012971D01*
X019461Y012971D02*
X019561Y013071D01*
X019511Y013071D02*
X019661Y013071D01*
X019661Y012971D02*
X019661Y013271D01*
X019511Y013271D01*
X019461Y013221D01*
X019461Y013121D01*
X019511Y013071D01*
X019783Y013121D02*
X019983Y013121D01*
X019983Y013171D02*
X019983Y012971D01*
X019783Y012971D02*
X019783Y013171D01*
X019883Y013271D01*
X019983Y013171D01*
X020106Y013271D02*
X020306Y013271D01*
X020206Y013271D02*
X020206Y012971D01*
X020428Y013021D02*
X020478Y012971D01*
X020578Y012971D01*
X020628Y013021D01*
X020578Y013121D02*
X020478Y013121D01*
X020428Y013071D01*
X020428Y013021D01*
X020578Y013121D02*
X020628Y013171D01*
X020628Y013221D01*
X020578Y013271D01*
X020478Y013271D01*
X020428Y013221D01*
X020636Y013521D02*
X020636Y013821D01*
X020736Y013821D02*
X020536Y013821D01*
X020858Y013771D02*
X020908Y013821D01*
X021008Y013821D01*
X021058Y013771D01*
X021058Y013721D01*
X021008Y013671D01*
X020908Y013671D01*
X020858Y013621D01*
X020858Y013571D01*
X020908Y013521D01*
X021008Y013521D01*
X021058Y013571D01*
X021180Y013521D02*
X021380Y013521D01*
X021380Y013821D01*
X021180Y013821D01*
X021280Y013671D02*
X021380Y013671D01*
X021503Y013821D02*
X021703Y013821D01*
X021603Y013821D02*
X021603Y013521D01*
X021595Y013271D02*
X021595Y012971D01*
X021395Y012971D01*
X021273Y012971D02*
X021072Y012971D01*
X021273Y012971D02*
X021273Y013271D01*
X021710Y013271D02*
X021810Y013271D01*
X021760Y013271D02*
X021760Y012971D01*
X021810Y012971D02*
X021710Y012971D01*
X021932Y012971D02*
X021932Y013271D01*
X022132Y013271D02*
X022132Y012971D01*
X022032Y013071D01*
X021932Y012971D01*
X021982Y012671D02*
X022082Y012671D01*
X022132Y012621D01*
X022132Y012571D01*
X022082Y012521D01*
X021982Y012521D01*
X021932Y012471D01*
X021932Y012421D01*
X021982Y012371D01*
X022082Y012371D01*
X022132Y012421D01*
X022254Y012371D02*
X022254Y012671D01*
X022454Y012671D02*
X022254Y012371D01*
X022454Y012371D02*
X022454Y012671D01*
X022569Y012671D02*
X022669Y012671D01*
X022619Y012671D02*
X022619Y012371D01*
X022669Y012371D02*
X022569Y012371D01*
X023113Y012421D02*
X023113Y012621D01*
X023164Y012671D01*
X023314Y012671D01*
X023314Y012371D01*
X023164Y012371D01*
X023113Y012421D01*
X023436Y012371D02*
X023436Y012671D01*
X023636Y012671D02*
X023436Y012371D01*
X023636Y012371D02*
X023636Y012671D01*
X023758Y012571D02*
X023758Y012371D01*
X023758Y012521D02*
X023958Y012521D01*
X023958Y012571D02*
X023858Y012671D01*
X023758Y012571D01*
X023958Y012571D02*
X023958Y012371D01*
X023958Y012971D02*
X023858Y013071D01*
X023758Y012971D01*
X023758Y013271D01*
X023636Y013271D02*
X023636Y012971D01*
X023636Y013121D02*
X023436Y013121D01*
X023436Y013271D02*
X023436Y012971D01*
X023314Y012971D02*
X023214Y012971D01*
X023264Y012971D02*
X023264Y013271D01*
X023314Y013271D02*
X023214Y013271D01*
X023099Y013221D02*
X023099Y013021D01*
X023049Y012971D01*
X022949Y012971D01*
X022899Y013021D01*
X022777Y012971D02*
X022777Y013271D01*
X022899Y013221D02*
X022949Y013271D01*
X023049Y013271D01*
X023099Y013221D01*
X023164Y013521D02*
X023114Y013571D01*
X023164Y013521D02*
X023264Y013521D01*
X023314Y013571D01*
X023314Y013771D01*
X023264Y013821D01*
X023164Y013821D01*
X023114Y013771D01*
X022992Y013771D02*
X022992Y013571D01*
X022942Y013521D01*
X022842Y013521D01*
X022792Y013571D01*
X022792Y013771D01*
X022842Y013821D01*
X022942Y013821D01*
X022992Y013771D01*
X023436Y013821D02*
X023636Y013821D01*
X023636Y013521D01*
X023436Y013521D01*
X023536Y013671D02*
X023636Y013671D01*
X023758Y013621D02*
X023758Y013571D01*
X023809Y013521D01*
X023909Y013521D01*
X023959Y013571D01*
X023909Y013671D02*
X023959Y013721D01*
X023959Y013771D01*
X023909Y013821D01*
X023809Y013821D01*
X023758Y013771D01*
X023809Y013671D02*
X023758Y013621D01*
X023809Y013671D02*
X023909Y013671D01*
X023958Y013271D02*
X023958Y012971D01*
X024503Y013571D02*
X024403Y013671D01*
X024503Y013771D01*
X024603Y013771D02*
X024503Y013671D01*
X024603Y013571D01*
X023858Y014521D02*
X023858Y014821D01*
X023958Y014821D02*
X023758Y014821D01*
X023636Y014821D02*
X023636Y014521D01*
X023636Y014671D02*
X023436Y014671D01*
X023314Y014671D02*
X023214Y014671D01*
X023314Y014821D02*
X023314Y014521D01*
X023113Y014521D01*
X023113Y014821D02*
X023314Y014821D01*
X023436Y014821D02*
X023436Y014521D01*
X023422Y015071D02*
X023422Y015371D01*
X023271Y015371D01*
X023221Y015321D01*
X023221Y015221D01*
X023271Y015171D01*
X023422Y015171D01*
X023321Y015171D02*
X023221Y015071D01*
X023099Y015121D02*
X023049Y015071D01*
X022949Y015071D01*
X022899Y015121D01*
X022899Y015171D01*
X022949Y015221D01*
X023049Y015221D01*
X023099Y015271D01*
X023099Y015321D01*
X023049Y015371D01*
X022949Y015371D01*
X022899Y015321D01*
X022777Y015371D02*
X022577Y015371D01*
X022677Y015371D02*
X022677Y015071D01*
X022669Y014821D02*
X022519Y014821D01*
X022469Y014771D01*
X022469Y014721D01*
X022519Y014671D01*
X022669Y014671D01*
X022669Y014521D02*
X022669Y014821D01*
X022519Y014671D02*
X022469Y014621D01*
X022469Y014571D01*
X022519Y014521D01*
X022669Y014521D01*
X022347Y014571D02*
X022347Y014771D01*
X022297Y014821D01*
X022197Y014821D01*
X022147Y014771D01*
X022147Y014571D01*
X022197Y014521D01*
X022297Y014521D01*
X022347Y014571D01*
X022025Y014521D02*
X022025Y014721D01*
X021924Y014821D01*
X021824Y014721D01*
X021824Y014521D01*
X021702Y014521D02*
X021702Y014821D01*
X021552Y014821D01*
X021502Y014771D01*
X021502Y014671D01*
X021552Y014621D01*
X021702Y014621D01*
X021602Y014621D02*
X021502Y014521D01*
X021380Y014521D02*
X021380Y014821D01*
X021230Y014821D01*
X021180Y014771D01*
X021180Y014571D01*
X021230Y014521D01*
X021380Y014521D01*
X021824Y014671D02*
X022025Y014671D01*
X021982Y015071D02*
X021932Y015121D01*
X021982Y015071D02*
X022082Y015071D01*
X022132Y015121D01*
X022132Y015321D01*
X022082Y015371D01*
X021982Y015371D01*
X021932Y015321D01*
X021810Y015371D02*
X021810Y015121D01*
X021760Y015071D01*
X021660Y015071D01*
X021610Y015121D01*
X021610Y015371D01*
X021488Y015371D02*
X021288Y015371D01*
X021388Y015371D02*
X021388Y015071D01*
X020843Y015371D02*
X020643Y015371D01*
X020743Y015371D02*
X020743Y015071D01*
X020521Y015071D02*
X020521Y015371D01*
X020521Y015221D02*
X020321Y015221D01*
X020199Y015221D02*
X020099Y015221D01*
X020199Y015071D02*
X019999Y015071D01*
X020199Y015071D02*
X020199Y015371D01*
X019999Y015371D01*
X020321Y015371D02*
X020321Y015071D01*
X020263Y014821D02*
X020213Y014771D01*
X020213Y014671D01*
X020263Y014621D01*
X020413Y014621D01*
X020413Y014521D02*
X020413Y014821D01*
X020263Y014821D01*
X020091Y014771D02*
X020091Y014571D01*
X020041Y014521D01*
X019941Y014521D01*
X019891Y014571D01*
X019891Y014771D01*
X019941Y014821D01*
X020041Y014821D01*
X020091Y014771D01*
X020313Y014621D02*
X020213Y014521D01*
X020535Y014821D02*
X020735Y014821D01*
X020735Y014521D01*
X020735Y014671D02*
X020635Y014671D01*
X019769Y014521D02*
X019769Y014821D01*
X019669Y014721D01*
X019568Y014821D01*
X019568Y014521D01*
X019124Y014821D02*
X018924Y014821D01*
X019024Y014821D02*
X019024Y014521D01*
X018802Y014521D02*
X018802Y014821D01*
X018802Y014671D02*
X018602Y014671D01*
X018480Y014671D02*
X018379Y014671D01*
X018480Y014521D02*
X018279Y014521D01*
X018480Y014521D02*
X018480Y014821D01*
X018279Y014821D01*
X017835Y014821D02*
X017835Y014521D01*
X017835Y014671D02*
X017735Y014671D01*
X017835Y014821D02*
X017635Y014821D01*
X017513Y014821D02*
X017513Y014521D01*
X017513Y014621D02*
X017363Y014621D01*
X017313Y014671D01*
X017313Y014771D01*
X017363Y014821D01*
X017513Y014821D01*
X017413Y014621D02*
X017313Y014521D01*
X017190Y014521D02*
X017190Y014721D01*
X017090Y014821D01*
X016990Y014721D01*
X016990Y014521D01*
X016868Y014521D02*
X016868Y014821D01*
X016768Y014721D01*
X016668Y014821D01*
X016668Y014521D01*
X016546Y014521D02*
X016546Y014821D01*
X016346Y014821D01*
X016446Y014671D02*
X016546Y014671D01*
X016546Y014521D02*
X016346Y014521D01*
X016990Y014671D02*
X017190Y014671D01*
X016983Y015071D02*
X017083Y015171D01*
X017083Y015271D01*
X016983Y015371D01*
X016869Y015271D02*
X016769Y015371D01*
X016769Y015071D01*
X016869Y015071D02*
X016668Y015071D01*
X016546Y015071D02*
X016446Y015171D01*
X016446Y015271D01*
X016546Y015371D01*
X016009Y015271D02*
X016009Y015071D01*
X016009Y015221D02*
X015809Y015221D01*
X015809Y015271D02*
X015809Y015071D01*
X015687Y015071D02*
X015687Y015371D01*
X015487Y015071D01*
X015487Y015371D01*
X015365Y015371D02*
X015215Y015371D01*
X015164Y015321D01*
X015164Y015121D01*
X015215Y015071D01*
X015365Y015071D01*
X015365Y015371D01*
X015809Y015271D02*
X015909Y015371D01*
X016009Y015271D01*
X016009Y016121D02*
X015809Y016121D01*
X015687Y016171D02*
X015637Y016121D01*
X015537Y016121D01*
X015487Y016171D01*
X015487Y016221D01*
X015537Y016271D01*
X015637Y016271D01*
X015687Y016321D01*
X015687Y016371D01*
X015637Y016421D01*
X015537Y016421D01*
X015487Y016371D01*
X015365Y016371D02*
X015365Y016321D01*
X015315Y016271D01*
X015215Y016271D01*
X015164Y016221D01*
X015164Y016171D01*
X015215Y016121D01*
X015315Y016121D01*
X015365Y016171D01*
X015365Y016371D02*
X015315Y016421D01*
X015215Y016421D01*
X015164Y016371D01*
X015042Y016421D02*
X014842Y016421D01*
X014720Y016421D02*
X014720Y016171D01*
X014670Y016121D01*
X014570Y016121D01*
X014520Y016171D01*
X014520Y016421D01*
X014398Y016421D02*
X014398Y016121D01*
X014198Y016121D01*
X013753Y016121D02*
X013653Y016121D01*
X013703Y016121D02*
X013703Y016421D01*
X013753Y016421D02*
X013653Y016421D01*
X013538Y016421D02*
X013338Y016121D01*
X013338Y016421D01*
X013216Y016371D02*
X013216Y016321D01*
X013166Y016271D01*
X013066Y016271D01*
X013016Y016221D01*
X013016Y016171D01*
X013066Y016121D01*
X013166Y016121D01*
X013216Y016171D01*
X013216Y016371D02*
X013166Y016421D01*
X013066Y016421D01*
X013016Y016371D01*
X012894Y016421D02*
X012694Y016421D01*
X012794Y016421D02*
X012794Y016121D01*
X012572Y016121D02*
X012572Y016321D01*
X012472Y016421D01*
X012371Y016321D01*
X012371Y016121D01*
X012249Y016121D02*
X012049Y016121D01*
X011927Y016121D02*
X011727Y016121D01*
X011605Y016121D02*
X011605Y016321D01*
X011505Y016421D01*
X011405Y016321D01*
X011405Y016121D01*
X011405Y016271D02*
X011605Y016271D01*
X011927Y016421D02*
X011927Y016121D01*
X012249Y016121D02*
X012249Y016421D01*
X012371Y016271D02*
X012572Y016271D01*
X013538Y016121D02*
X013538Y016421D01*
X014942Y016271D02*
X015042Y016271D01*
X015042Y016121D02*
X015042Y016421D01*
X015809Y016421D02*
X016009Y016421D01*
X016009Y016121D01*
X016131Y016171D02*
X016181Y016121D01*
X016281Y016121D01*
X016331Y016171D01*
X016331Y016371D01*
X016281Y016421D01*
X016181Y016421D01*
X016131Y016371D01*
X016009Y016271D02*
X015909Y016271D01*
X016454Y016171D02*
X016504Y016121D01*
X016604Y016121D01*
X016654Y016171D01*
X016654Y016371D01*
X016604Y016421D01*
X016504Y016421D01*
X016454Y016371D01*
X016776Y016421D02*
X016776Y016171D01*
X016826Y016121D01*
X016926Y016121D01*
X016976Y016171D01*
X016976Y016421D01*
X017098Y016371D02*
X017148Y016421D01*
X017248Y016421D01*
X017298Y016371D01*
X017298Y016321D01*
X017248Y016271D01*
X017148Y016271D01*
X017098Y016221D01*
X017098Y016171D01*
X017148Y016121D01*
X017248Y016121D01*
X017298Y016171D01*
X017743Y016121D02*
X017743Y016321D01*
X017843Y016421D01*
X017943Y016321D01*
X017943Y016121D01*
X017943Y016271D02*
X017743Y016271D01*
X018387Y016271D02*
X018437Y016221D01*
X018587Y016221D01*
X018487Y016221D02*
X018387Y016121D01*
X018387Y016271D02*
X018387Y016371D01*
X018437Y016421D01*
X018587Y016421D01*
X018587Y016121D01*
X018709Y016171D02*
X018709Y016371D01*
X018760Y016421D01*
X018860Y016421D01*
X018910Y016371D01*
X018910Y016171D01*
X018860Y016121D01*
X018760Y016121D01*
X018709Y016171D01*
X019032Y016421D02*
X019232Y016421D01*
X019232Y016121D01*
X019232Y016271D02*
X019132Y016271D01*
X019676Y016121D02*
X019876Y016121D01*
X019876Y016421D01*
X019676Y016421D01*
X019776Y016271D02*
X019876Y016271D01*
X019999Y016171D02*
X019999Y016371D01*
X020049Y016421D01*
X020199Y016421D01*
X020199Y016121D01*
X020049Y016121D01*
X019999Y016171D01*
X020314Y016121D02*
X020414Y016121D01*
X020364Y016121D02*
X020364Y016421D01*
X020414Y016421D02*
X020314Y016421D01*
X020536Y016421D02*
X020536Y016171D01*
X020586Y016121D01*
X020686Y016121D01*
X020736Y016171D01*
X020736Y016421D01*
X020858Y016371D02*
X020908Y016421D01*
X021008Y016421D01*
X021058Y016371D01*
X021058Y016171D01*
X021008Y016121D01*
X020908Y016121D01*
X020858Y016171D01*
X020858Y016271D01*
X020958Y016271D01*
X021503Y016121D02*
X021703Y016121D01*
X021703Y016421D01*
X021503Y016421D01*
X021603Y016271D02*
X021703Y016271D01*
X021825Y016271D02*
X022025Y016271D01*
X022025Y016121D02*
X022025Y016421D01*
X022147Y016421D02*
X022347Y016421D01*
X022247Y016421D02*
X022247Y016121D01*
X021825Y016121D02*
X021825Y016421D01*
X022792Y016371D02*
X022792Y016171D01*
X022842Y016121D01*
X022992Y016121D01*
X022992Y016421D01*
X022842Y016421D01*
X022792Y016371D01*
X023114Y016321D02*
X023114Y016121D01*
X023114Y016271D02*
X023314Y016271D01*
X023314Y016321D02*
X023214Y016421D01*
X023114Y016321D01*
X023314Y016321D02*
X023314Y016121D01*
X023436Y016121D02*
X023636Y016121D01*
X023636Y016421D01*
X023436Y016421D01*
X023536Y016271D02*
X023636Y016271D01*
X023758Y016271D02*
X023758Y016371D01*
X023809Y016421D01*
X023959Y016421D01*
X023959Y016121D01*
X023959Y016221D02*
X023809Y016221D01*
X023758Y016271D01*
X023859Y016221D02*
X023758Y016121D01*
X024403Y016171D02*
X024603Y016371D01*
X024603Y016271D02*
X024403Y016271D01*
X024403Y016371D02*
X024603Y016171D01*
X024503Y016171D02*
X024503Y016371D01*
X024503Y015321D02*
X024403Y015221D01*
X024503Y015121D01*
X024503Y015221D02*
X024603Y015121D01*
X024503Y015221D02*
X024603Y015321D01*
X023959Y015371D02*
X023959Y015071D01*
X023959Y015221D02*
X023859Y015221D01*
X023959Y015371D02*
X023758Y015371D01*
X023636Y015371D02*
X023536Y015371D01*
X023586Y015371D02*
X023586Y015071D01*
X023636Y015071D02*
X023536Y015071D01*
X022670Y013821D02*
X022469Y013521D01*
X022469Y013821D01*
X022347Y013821D02*
X022197Y013821D01*
X022147Y013771D01*
X022147Y013571D01*
X022197Y013521D01*
X022347Y013521D01*
X022347Y013821D01*
X022670Y013821D02*
X022670Y013521D01*
X022576Y013271D02*
X022576Y012971D01*
X022576Y013121D02*
X022777Y013121D01*
X021982Y012671D02*
X021932Y012621D01*
X021810Y012671D02*
X021610Y012671D01*
X021710Y012671D02*
X021710Y012371D01*
X021487Y012371D02*
X021487Y012571D01*
X021387Y012671D01*
X021287Y012571D01*
X021287Y012371D01*
X021165Y012371D02*
X020965Y012371D01*
X020843Y012371D02*
X020643Y012371D01*
X020843Y012371D02*
X020843Y012671D01*
X021165Y012671D02*
X021165Y012371D01*
X021287Y012521D02*
X021487Y012521D01*
X020198Y012521D02*
X020098Y012521D01*
X020198Y012371D02*
X019998Y012371D01*
X019876Y012471D02*
X019776Y012371D01*
X019676Y012471D01*
X019676Y012671D01*
X019554Y012671D02*
X019554Y012371D01*
X019354Y012371D01*
X019231Y012371D02*
X019231Y012671D01*
X019081Y012671D01*
X019031Y012621D01*
X019031Y012521D01*
X019081Y012471D01*
X019231Y012471D01*
X019131Y012471D02*
X019031Y012371D01*
X018809Y012371D02*
X018809Y012521D01*
X018709Y012621D01*
X018709Y012671D01*
X018809Y012521D02*
X018909Y012621D01*
X018909Y012671D01*
X019354Y012671D02*
X019554Y012671D01*
X019554Y012521D02*
X019454Y012521D01*
X019876Y012471D02*
X019876Y012671D01*
X019998Y012671D02*
X020198Y012671D01*
X020198Y012371D01*
X019991Y013521D02*
X019991Y013821D01*
X020091Y013821D02*
X019891Y013821D01*
X019769Y013821D02*
X019769Y013521D01*
X019769Y013671D02*
X019569Y013671D01*
X019447Y013671D02*
X019347Y013671D01*
X019447Y013521D02*
X019247Y013521D01*
X019447Y013521D02*
X019447Y013821D01*
X019247Y013821D01*
X019569Y013821D02*
X019569Y013521D01*
X018602Y014521D02*
X018602Y014821D01*
X018545Y015071D02*
X018495Y015121D01*
X018495Y015321D01*
X018545Y015371D01*
X018695Y015371D01*
X018695Y015071D01*
X018545Y015071D01*
X018373Y015121D02*
X018323Y015071D01*
X018222Y015071D01*
X018172Y015121D01*
X018172Y015221D01*
X018272Y015221D01*
X018172Y015321D02*
X018222Y015371D01*
X018323Y015371D01*
X018373Y015321D01*
X018373Y015121D01*
X018810Y015071D02*
X018910Y015071D01*
X018860Y015071D02*
X018860Y015371D01*
X018910Y015371D02*
X018810Y015371D01*
X019032Y015321D02*
X019032Y015221D01*
X019082Y015171D01*
X019232Y015171D01*
X019232Y015071D02*
X019232Y015371D01*
X019082Y015371D01*
X019032Y015321D01*
X019132Y015171D02*
X019032Y015071D01*
X019354Y015121D02*
X019404Y015071D01*
X019554Y015071D01*
X019554Y015371D01*
X019404Y015371D01*
X019354Y015321D01*
X019354Y015271D01*
X019404Y015221D01*
X019554Y015221D01*
X019404Y015221D02*
X019354Y015171D01*
X019354Y015121D01*
X018050Y015071D02*
X017850Y015071D01*
X017728Y015121D02*
X017678Y015071D01*
X017578Y015071D01*
X017528Y015121D01*
X017528Y015171D01*
X017578Y015221D01*
X017678Y015221D01*
X017728Y015271D01*
X017728Y015321D01*
X017678Y015371D01*
X017578Y015371D01*
X017528Y015321D01*
X017850Y015371D02*
X018050Y015371D01*
X018050Y015071D01*
X018050Y015221D02*
X017950Y015221D01*
X014720Y015271D02*
X014670Y015221D01*
X014570Y015221D01*
X014520Y015171D01*
X014520Y015121D01*
X014570Y015071D01*
X014670Y015071D01*
X014720Y015121D01*
X014720Y015271D02*
X014720Y015321D01*
X014670Y015371D01*
X014570Y015371D01*
X014520Y015321D01*
X014398Y015371D02*
X014398Y015071D01*
X014198Y015071D01*
X014076Y015071D02*
X014076Y015371D01*
X013925Y015371D01*
X013875Y015321D01*
X013875Y015221D01*
X013925Y015171D01*
X014076Y015171D01*
X014298Y015221D02*
X014398Y015221D01*
X014398Y015371D02*
X014198Y015371D01*
X013753Y015271D02*
X013753Y015071D01*
X013753Y015221D02*
X013553Y015221D01*
X013553Y015271D02*
X013553Y015071D01*
X013431Y015071D02*
X013431Y015371D01*
X013281Y015371D01*
X013231Y015321D01*
X013231Y015221D01*
X013281Y015171D01*
X013431Y015171D01*
X013331Y015171D02*
X013231Y015071D01*
X013109Y015071D02*
X013109Y015271D01*
X013009Y015371D01*
X012909Y015271D01*
X012909Y015071D01*
X012909Y015221D02*
X013109Y015221D01*
X012786Y015371D02*
X012586Y015371D01*
X012686Y015371D02*
X012686Y015071D01*
X012464Y015071D02*
X012464Y015371D01*
X012264Y015371D01*
X012364Y015221D02*
X012464Y015221D01*
X012464Y015071D02*
X012264Y015071D01*
X013553Y015271D02*
X013653Y015371D01*
X013753Y015271D01*
X011282Y016421D02*
X011082Y016421D01*
X011182Y016421D02*
X011182Y016121D01*
X010960Y016121D02*
X010860Y016121D01*
X010910Y016121D02*
X010910Y016421D01*
X010960Y016421D02*
X010860Y016421D01*
X010745Y016371D02*
X010745Y016171D01*
X010695Y016121D01*
X010595Y016121D01*
X010545Y016171D01*
X010545Y016371D01*
X010595Y016421D01*
X010695Y016421D01*
X010745Y016371D01*
X010423Y016421D02*
X010223Y016121D01*
X010223Y016421D01*
X010423Y016421D02*
X010423Y016121D01*
X006521Y016315D02*
X005733Y016315D01*
X006423Y016558D02*
X006437Y016515D01*
X003728Y015965D02*
X003728Y015815D01*
X003726Y015776D01*
X003720Y015737D01*
X003711Y015699D01*
X003698Y015662D01*
X003681Y015626D01*
X003661Y015593D01*
X003637Y015561D01*
X003611Y015532D01*
X003582Y015506D01*
X003550Y015482D01*
X003517Y015462D01*
X003481Y015445D01*
X003444Y015432D01*
X003406Y015423D01*
X003367Y015417D01*
X003328Y015415D01*
X003289Y015417D01*
X003250Y015423D01*
X003212Y015432D01*
X003175Y015445D01*
X003139Y015462D01*
X003106Y015482D01*
X003074Y015506D01*
X003045Y015532D01*
X003019Y015561D01*
X002995Y015593D01*
X002975Y015626D01*
X002958Y015662D01*
X002945Y015699D01*
X002936Y015737D01*
X002930Y015776D01*
X002928Y015815D01*
X002928Y015965D01*
X002930Y016004D01*
X002936Y016043D01*
X002945Y016081D01*
X002958Y016118D01*
X002975Y016154D01*
X002995Y016187D01*
X003019Y016219D01*
X003045Y016248D01*
X003074Y016274D01*
X003106Y016298D01*
X003139Y016318D01*
X003175Y016335D01*
X003212Y016348D01*
X003250Y016357D01*
X003289Y016363D01*
X003328Y016365D01*
X003367Y016363D01*
X003406Y016357D01*
X003444Y016348D01*
X003481Y016335D01*
X003517Y016318D01*
X003550Y016298D01*
X003582Y016274D01*
X003611Y016248D01*
X003637Y016219D01*
X003661Y016187D01*
X003681Y016154D01*
X003698Y016118D01*
X003711Y016081D01*
X003720Y016043D01*
X003726Y016004D01*
X003728Y015965D01*
X010657Y011256D02*
X016908Y011256D01*
X016908Y010259D01*
X010328Y010259D01*
X011709Y009704D02*
X011751Y009754D01*
X011774Y009769D01*
X011836Y009769D01*
X011889Y009734D01*
X011911Y009689D01*
X011911Y009629D01*
X011891Y009591D01*
X011869Y009564D01*
X011836Y009549D01*
X011801Y009541D02*
X011736Y009569D01*
X011704Y009631D01*
X011709Y009704D01*
X011747Y008965D02*
X011747Y002142D01*
X011747Y002141D02*
X011748Y002112D01*
X011752Y002083D01*
X011760Y002054D01*
X011771Y002027D01*
X011786Y002001D01*
X011803Y001977D01*
X011823Y001955D01*
X011846Y001936D01*
X011871Y001920D01*
X011897Y001907D01*
X011925Y001897D01*
X011954Y001891D01*
X011984Y001888D01*
X011983Y001888D02*
X023464Y001888D01*
X023497Y001890D01*
X023530Y001896D01*
X023562Y001905D01*
X023592Y001918D01*
X023621Y001935D01*
X023648Y001954D01*
X023673Y001976D01*
X023695Y002001D01*
X023714Y002028D01*
X023730Y002058D01*
X023742Y002088D01*
X023751Y002120D01*
X023756Y002153D01*
X023758Y002186D01*
X023758Y006464D01*
X021278Y006464D01*
X021278Y005715D01*
X021282Y005676D01*
X021290Y005637D01*
X021301Y005600D01*
X021315Y005563D01*
X021333Y005528D01*
X021355Y005495D01*
X021379Y005464D01*
X021406Y005435D01*
X021435Y005409D01*
X021467Y005386D01*
X021500Y005365D01*
X021536Y005348D01*
X021573Y005334D01*
X021611Y005324D01*
X021649Y005317D01*
X021689Y005314D01*
X021728Y005315D01*
X022828Y005315D01*
X022827Y005316D02*
X022863Y005311D01*
X022899Y005303D01*
X022933Y005291D01*
X022967Y005276D01*
X022998Y005258D01*
X023028Y005237D01*
X023055Y005213D01*
X023080Y005186D01*
X023102Y005157D01*
X023121Y005126D01*
X023137Y005094D01*
X023150Y005059D01*
X023160Y005024D01*
X023166Y004988D01*
X023168Y004952D01*
X023167Y004916D01*
X023167Y004915D02*
X023167Y002977D01*
X023165Y002944D01*
X023160Y002912D01*
X023151Y002880D01*
X023138Y002849D01*
X023122Y002821D01*
X023103Y002794D01*
X023081Y002769D01*
X023056Y002747D01*
X023029Y002728D01*
X023001Y002712D01*
X022970Y002699D01*
X022938Y002690D01*
X022906Y002685D01*
X022873Y002683D01*
X021424Y002565D02*
X016564Y002479D01*
X016534Y002481D01*
X016504Y002486D01*
X016475Y002495D01*
X016448Y002508D01*
X016422Y002523D01*
X016398Y002542D01*
X016377Y002563D01*
X016358Y002587D01*
X016343Y002613D01*
X016330Y002640D01*
X016321Y002669D01*
X016316Y002699D01*
X016314Y002729D01*
X016314Y005167D01*
X015468Y005167D01*
X015468Y004899D01*
X015463Y004867D01*
X015455Y004835D01*
X015443Y004805D01*
X015428Y004776D01*
X015410Y004749D01*
X015389Y004724D01*
X015365Y004701D01*
X015339Y004682D01*
X015311Y004665D01*
X015281Y004652D01*
X015250Y004642D01*
X015218Y004636D01*
X015186Y004633D01*
X015153Y004634D01*
X014444Y004634D01*
X014386Y004609D01*
X014326Y004587D01*
X014265Y004570D01*
X014203Y004556D01*
X014141Y004546D01*
X014078Y004539D01*
X014014Y004537D01*
X013951Y004539D01*
X013887Y004544D01*
X013825Y004553D01*
X013763Y004566D01*
X013701Y004583D01*
X013641Y004604D01*
X013583Y004628D01*
X013526Y004656D01*
X013470Y004687D01*
X013417Y004721D01*
X013366Y004759D01*
X013317Y004800D01*
X013271Y004844D01*
X013228Y004890D01*
X013188Y004939D01*
X013150Y004990D01*
X013116Y005044D01*
X013086Y005099D01*
X013058Y005157D01*
X013035Y005216D01*
X013015Y005276D01*
X012998Y005337D01*
X012986Y005399D01*
X012977Y005462D01*
X012972Y005525D01*
X012971Y005589D01*
X012974Y005652D01*
X012981Y005715D01*
X012991Y005778D01*
X013006Y005840D01*
X013024Y005901D01*
X013046Y005960D01*
X013072Y006018D01*
X013101Y006075D01*
X013133Y006129D01*
X013169Y006182D01*
X013208Y006232D01*
X013249Y006280D01*
X013294Y006325D01*
X013341Y006367D01*
X013342Y006367D02*
X014917Y006367D01*
X014916Y006367D02*
X014935Y006395D01*
X014956Y006421D01*
X014980Y006444D01*
X015007Y006464D01*
X015036Y006481D01*
X015067Y006495D01*
X015099Y006505D01*
X015132Y006511D01*
X015165Y006514D01*
X015199Y006513D01*
X015232Y006508D01*
X015264Y006499D01*
X015296Y006487D01*
X015325Y006471D01*
X015353Y006452D01*
X015378Y006430D01*
X015401Y006406D01*
X015421Y006378D01*
X015437Y006349D01*
X015450Y006318D01*
X015460Y006286D01*
X015466Y006253D01*
X015468Y006220D01*
X015468Y005956D01*
X016314Y005956D01*
X016314Y006881D01*
X016314Y006880D02*
X016310Y006913D01*
X016303Y006944D01*
X016293Y006975D01*
X016279Y007005D01*
X016262Y007032D01*
X016242Y007058D01*
X016219Y007081D01*
X016193Y007101D01*
X016166Y007119D01*
X016137Y007133D01*
X016106Y007144D01*
X016074Y007152D01*
X016042Y007155D01*
X016010Y007156D01*
X016009Y007156D02*
X015014Y007156D01*
X014979Y007160D01*
X014944Y007169D01*
X014910Y007180D01*
X014878Y007195D01*
X014847Y007214D01*
X014819Y007236D01*
X014793Y007260D01*
X014770Y007287D01*
X014749Y007316D01*
X014732Y007348D01*
X014718Y007381D01*
X014708Y007415D01*
X014701Y007450D01*
X014698Y007485D01*
X014699Y007521D01*
X014699Y008765D01*
X014700Y008765D02*
X014697Y008792D01*
X014690Y008819D01*
X014680Y008845D01*
X014666Y008869D01*
X014650Y008891D01*
X014630Y008911D01*
X014609Y008928D01*
X014585Y008942D01*
X014560Y008953D01*
X014533Y008960D01*
X014506Y008964D01*
X014478Y008965D01*
X011747Y008965D01*
X011753Y008896D02*
X010965Y008896D01*
X010960Y008965D02*
X010960Y007981D01*
X009437Y007981D01*
X009928Y008965D02*
X010960Y008965D01*
X011048Y008774D02*
X011062Y008731D01*
X012724Y009604D02*
X012724Y009624D01*
X013784Y009444D02*
X013814Y009424D01*
X016902Y010322D02*
X017690Y010322D01*
X017695Y010259D02*
X017695Y011256D01*
X023428Y011256D01*
X023427Y011256D02*
X023462Y011254D01*
X023497Y011248D01*
X023531Y011238D01*
X023563Y011225D01*
X023594Y011208D01*
X023623Y011189D01*
X023650Y011166D01*
X023674Y011141D01*
X023696Y011114D01*
X023715Y011084D01*
X023730Y011052D01*
X023742Y011019D01*
X023751Y010985D01*
X023756Y010951D01*
X023757Y010916D01*
X023758Y010915D02*
X023758Y007252D01*
X021278Y007252D01*
X021278Y010015D01*
X021276Y010045D01*
X021270Y010074D01*
X021261Y010103D01*
X021248Y010130D01*
X021232Y010155D01*
X021214Y010178D01*
X021192Y010199D01*
X021169Y010217D01*
X021143Y010232D01*
X021116Y010244D01*
X021087Y010253D01*
X021058Y010258D01*
X021028Y010259D01*
X017695Y010259D01*
X017606Y010443D02*
X017592Y010486D01*
X021373Y007252D02*
X021373Y006464D01*
X021574Y006548D02*
X021617Y006562D01*
X019994Y005626D02*
X019107Y005626D01*
X019102Y005619D02*
X019146Y005694D01*
X019203Y005760D01*
X019269Y005815D01*
X019343Y005859D01*
X019424Y005888D01*
X019509Y005903D01*
X019595Y005903D01*
X019680Y005888D01*
X019760Y005859D01*
X019835Y005815D01*
X019901Y005760D01*
X019956Y005693D01*
X019999Y005618D01*
X020028Y005536D01*
X020043Y005450D01*
X020042Y005363D01*
X020026Y005278D01*
X019996Y005196D01*
X019952Y005121D01*
X019896Y005055D01*
X019830Y005000D01*
X019755Y004957D01*
X019675Y004927D01*
X019590Y004913D01*
X019504Y004913D01*
X019419Y004927D01*
X019338Y004957D01*
X019264Y005000D01*
X019198Y005055D01*
X019142Y005122D01*
X019099Y005198D01*
X019070Y005280D01*
X019056Y005365D01*
X019056Y005452D01*
X019072Y005538D01*
X019102Y005619D01*
X019087Y005578D02*
X020013Y005578D01*
X020029Y005529D02*
X019071Y005529D01*
X019062Y005481D02*
X020038Y005481D01*
X020043Y005432D02*
X019056Y005432D01*
X019056Y005384D02*
X020042Y005384D01*
X020037Y005335D02*
X019061Y005335D01*
X019069Y005287D02*
X020028Y005287D01*
X020012Y005238D02*
X019085Y005238D01*
X019104Y005190D02*
X019992Y005190D01*
X019964Y005141D02*
X019132Y005141D01*
X019167Y005093D02*
X019928Y005093D01*
X019883Y005044D02*
X019211Y005044D01*
X019271Y004996D02*
X019823Y004996D01*
X019729Y004947D02*
X019365Y004947D01*
X019135Y005675D02*
X019967Y005675D01*
X019931Y005723D02*
X019171Y005723D01*
X019217Y005772D02*
X019887Y005772D01*
X019827Y005820D02*
X019277Y005820D01*
X019371Y005869D02*
X019732Y005869D01*
X017512Y005869D02*
X016526Y005869D01*
X016526Y005912D02*
X016542Y005998D01*
X016572Y006079D01*
X016616Y006154D01*
X016673Y006220D01*
X016739Y006275D01*
X016813Y006319D01*
X016894Y006348D01*
X016979Y006363D01*
X017065Y006363D01*
X017150Y006348D01*
X017230Y006319D01*
X017305Y006275D01*
X017371Y006220D01*
X017426Y006153D01*
X017469Y006078D01*
X017498Y005996D01*
X017513Y005910D01*
X017512Y005823D01*
X017496Y005738D01*
X017466Y005656D01*
X017422Y005581D01*
X017366Y005515D01*
X017300Y005460D01*
X017225Y005417D01*
X017145Y005387D01*
X017060Y005373D01*
X016974Y005373D01*
X016889Y005387D01*
X016808Y005417D01*
X016734Y005460D01*
X016668Y005515D01*
X016612Y005582D01*
X016569Y005658D01*
X016540Y005740D01*
X016526Y005825D01*
X016526Y005912D01*
X016527Y005917D02*
X017512Y005917D01*
X017503Y005966D02*
X016536Y005966D01*
X016548Y006014D02*
X017492Y006014D01*
X017474Y006063D02*
X016566Y006063D01*
X016591Y006111D02*
X017450Y006111D01*
X017421Y006160D02*
X016621Y006160D01*
X016663Y006208D02*
X017381Y006208D01*
X017327Y006257D02*
X016716Y006257D01*
X016790Y006305D02*
X017253Y006305D01*
X017117Y006354D02*
X016927Y006354D01*
X016527Y005820D02*
X017512Y005820D01*
X017503Y005772D02*
X016535Y005772D01*
X016546Y005723D02*
X017491Y005723D01*
X017473Y005675D02*
X016563Y005675D01*
X016587Y005626D02*
X017448Y005626D01*
X017419Y005578D02*
X016616Y005578D01*
X016656Y005529D02*
X017378Y005529D01*
X017325Y005481D02*
X016709Y005481D01*
X016782Y005432D02*
X017252Y005432D01*
X017123Y005384D02*
X016910Y005384D01*
X016979Y004063D02*
X017065Y004063D01*
X017150Y004048D01*
X017230Y004019D01*
X017305Y003975D01*
X017371Y003920D01*
X017426Y003853D01*
X017469Y003778D01*
X017498Y003696D01*
X017513Y003610D01*
X017512Y003523D01*
X017496Y003438D01*
X017466Y003356D01*
X017422Y003281D01*
X017366Y003215D01*
X017300Y003160D01*
X017225Y003117D01*
X017145Y003087D01*
X017060Y003073D01*
X016974Y003073D01*
X016889Y003087D01*
X016808Y003117D01*
X016734Y003160D01*
X016668Y003215D01*
X016612Y003282D01*
X016569Y003358D01*
X016540Y003440D01*
X016526Y003525D01*
X016526Y003612D01*
X016542Y003698D01*
X016572Y003779D01*
X016616Y003854D01*
X016673Y003920D01*
X016739Y003975D01*
X016813Y004019D01*
X016894Y004048D01*
X016979Y004063D01*
X016833Y004026D02*
X017211Y004026D01*
X017302Y003977D02*
X016742Y003977D01*
X016683Y003929D02*
X017361Y003929D01*
X017404Y003880D02*
X016639Y003880D01*
X016603Y003832D02*
X017438Y003832D01*
X017466Y003783D02*
X016575Y003783D01*
X016556Y003735D02*
X017484Y003735D01*
X017500Y003686D02*
X016540Y003686D01*
X016531Y003638D02*
X017508Y003638D01*
X017513Y003589D02*
X016526Y003589D01*
X016526Y003541D02*
X017512Y003541D01*
X017506Y003492D02*
X016531Y003492D01*
X016540Y003444D02*
X017498Y003444D01*
X017481Y003395D02*
X016556Y003395D01*
X016576Y003347D02*
X017460Y003347D01*
X017432Y003298D02*
X016603Y003298D01*
X016639Y003250D02*
X017395Y003250D01*
X017349Y003201D02*
X016684Y003201D01*
X016746Y003153D02*
X017287Y003153D01*
X017191Y003104D02*
X016843Y003104D01*
X010657Y011256D02*
X010530Y011434D01*
X010394Y011605D01*
X010250Y011770D01*
X010099Y011928D01*
X009940Y012078D01*
X009774Y012221D01*
X009601Y012356D01*
X009422Y012482D01*
X009238Y012599D01*
X009047Y012707D01*
X008852Y012806D01*
X008653Y012896D01*
X008449Y012976D01*
X008242Y013046D01*
X008031Y013106D01*
X007818Y013156D01*
X007228Y012515D02*
X007443Y012468D01*
X007655Y012410D01*
X007864Y012342D01*
X008070Y012264D01*
X008271Y012176D01*
X008469Y012079D01*
X008661Y011972D01*
X008847Y011856D01*
X009028Y011730D01*
X009203Y011597D01*
X009371Y011455D01*
X009532Y011305D01*
X009685Y011147D01*
X009831Y010983D01*
X009968Y010811D01*
X010097Y010633D01*
X010217Y010449D01*
X010328Y010259D01*
X009928Y008965D02*
X009877Y009137D01*
X009818Y009307D01*
X009751Y009474D01*
X009675Y009637D01*
X009592Y009797D01*
X009501Y009952D01*
X009403Y010102D01*
X009298Y010248D01*
X009185Y010388D01*
X009066Y010523D01*
X008941Y010652D01*
X008809Y010774D01*
X008671Y010890D01*
X008528Y010999D01*
X008380Y011101D01*
X008227Y011195D01*
X008070Y011282D01*
X007909Y011362D01*
X007744Y011433D01*
X007576Y011496D01*
X007404Y011551D01*
X007231Y011598D01*
X007055Y011636D01*
X006878Y011665D01*
X021424Y002565D02*
X022150Y002608D01*
X022873Y002683D01*
D11*
X021645Y006548D02*
X021958Y006757D01*
X021921Y006776D02*
X021604Y006550D01*
X021976Y006885D02*
X021594Y007161D01*
X021643Y007163D02*
X021712Y007130D01*
X021997Y006922D01*
X022096Y007114D02*
X022098Y007140D01*
X022104Y007166D01*
X022113Y007190D01*
X022126Y007213D01*
X022142Y007234D01*
X022161Y007252D01*
X022182Y007268D01*
X022206Y007280D01*
X022230Y007288D01*
X022256Y007293D01*
X022283Y007294D01*
X022309Y007291D01*
X022334Y007284D01*
X022358Y007274D01*
X022381Y007260D01*
X022401Y007244D01*
X022418Y007224D01*
X022433Y007202D01*
X022444Y007178D01*
X022452Y007153D01*
X022456Y007127D01*
X022456Y007101D01*
X022452Y007075D01*
X022444Y007050D01*
X022433Y007026D01*
X022418Y007004D01*
X022401Y006984D01*
X022381Y006968D01*
X022358Y006954D01*
X022334Y006944D01*
X022309Y006937D01*
X022283Y006934D01*
X022256Y006935D01*
X022230Y006940D01*
X022206Y006948D01*
X022182Y006960D01*
X022161Y006976D01*
X022142Y006994D01*
X022126Y007015D01*
X022113Y007038D01*
X022104Y007062D01*
X022098Y007088D01*
X022096Y007114D01*
X022097Y006598D02*
X022099Y006624D01*
X022105Y006650D01*
X022114Y006674D01*
X022127Y006697D01*
X022143Y006718D01*
X022162Y006736D01*
X022183Y006752D01*
X022207Y006764D01*
X022231Y006772D01*
X022257Y006777D01*
X022284Y006778D01*
X022310Y006775D01*
X022335Y006768D01*
X022359Y006758D01*
X022382Y006744D01*
X022402Y006728D01*
X022419Y006708D01*
X022434Y006686D01*
X022445Y006662D01*
X022453Y006637D01*
X022457Y006611D01*
X022457Y006585D01*
X022453Y006559D01*
X022445Y006534D01*
X022434Y006510D01*
X022419Y006488D01*
X022402Y006468D01*
X022382Y006452D01*
X022359Y006438D01*
X022335Y006428D01*
X022310Y006421D01*
X022284Y006418D01*
X022257Y006419D01*
X022231Y006424D01*
X022207Y006432D01*
X022183Y006444D01*
X022162Y006460D01*
X022143Y006478D01*
X022127Y006499D01*
X022114Y006522D01*
X022105Y006546D01*
X022099Y006572D01*
X022097Y006598D01*
X022529Y006859D02*
X022531Y006894D01*
X022537Y006928D01*
X022546Y006961D01*
X022560Y006994D01*
X022577Y007024D01*
X022597Y007052D01*
X022620Y007078D01*
X022646Y007101D01*
X022674Y007121D01*
X022704Y007138D01*
X022737Y007152D01*
X022770Y007161D01*
X022804Y007167D01*
X022839Y007169D01*
X022874Y007167D01*
X022908Y007161D01*
X022941Y007152D01*
X022974Y007138D01*
X023004Y007121D01*
X023032Y007101D01*
X023058Y007078D01*
X023081Y007052D01*
X023101Y007024D01*
X023118Y006994D01*
X023132Y006961D01*
X023141Y006928D01*
X023147Y006894D01*
X023149Y006859D01*
X023147Y006824D01*
X023141Y006790D01*
X023132Y006757D01*
X023118Y006724D01*
X023101Y006694D01*
X023081Y006666D01*
X023058Y006640D01*
X023032Y006617D01*
X023004Y006597D01*
X022974Y006580D01*
X022941Y006566D01*
X022908Y006557D01*
X022874Y006551D01*
X022839Y006549D01*
X022804Y006551D01*
X022770Y006557D01*
X022737Y006566D01*
X022704Y006580D01*
X022674Y006597D01*
X022646Y006617D01*
X022620Y006640D01*
X022597Y006666D01*
X022577Y006694D01*
X022560Y006724D01*
X022546Y006757D01*
X022537Y006790D01*
X022531Y006824D01*
X022529Y006859D01*
X017604Y010473D02*
X017378Y010790D01*
X017397Y010827D02*
X017606Y010514D01*
X017269Y010845D02*
X016993Y010463D01*
X016991Y010512D02*
X017024Y010581D01*
X017232Y010866D01*
X016860Y011145D02*
X016862Y011171D01*
X016868Y011197D01*
X016877Y011221D01*
X016890Y011244D01*
X016906Y011265D01*
X016925Y011283D01*
X016946Y011299D01*
X016970Y011311D01*
X016994Y011319D01*
X017020Y011324D01*
X017047Y011325D01*
X017073Y011322D01*
X017098Y011315D01*
X017122Y011305D01*
X017145Y011291D01*
X017165Y011275D01*
X017182Y011255D01*
X017197Y011233D01*
X017208Y011209D01*
X017216Y011184D01*
X017220Y011158D01*
X017220Y011132D01*
X017216Y011106D01*
X017208Y011081D01*
X017197Y011057D01*
X017182Y011035D01*
X017165Y011015D01*
X017145Y010999D01*
X017122Y010985D01*
X017098Y010975D01*
X017073Y010968D01*
X017047Y010965D01*
X017020Y010966D01*
X016994Y010971D01*
X016970Y010979D01*
X016946Y010991D01*
X016925Y011007D01*
X016906Y011025D01*
X016890Y011046D01*
X016877Y011069D01*
X016868Y011093D01*
X016862Y011119D01*
X016860Y011145D01*
X017376Y011146D02*
X017378Y011172D01*
X017384Y011198D01*
X017393Y011222D01*
X017406Y011245D01*
X017422Y011266D01*
X017441Y011284D01*
X017462Y011300D01*
X017486Y011312D01*
X017510Y011320D01*
X017536Y011325D01*
X017563Y011326D01*
X017589Y011323D01*
X017614Y011316D01*
X017638Y011306D01*
X017661Y011292D01*
X017681Y011276D01*
X017698Y011256D01*
X017713Y011234D01*
X017724Y011210D01*
X017732Y011185D01*
X017736Y011159D01*
X017736Y011133D01*
X017732Y011107D01*
X017724Y011082D01*
X017713Y011058D01*
X017698Y011036D01*
X017681Y011016D01*
X017661Y011000D01*
X017638Y010986D01*
X017614Y010976D01*
X017589Y010969D01*
X017563Y010966D01*
X017536Y010967D01*
X017510Y010972D01*
X017486Y010980D01*
X017462Y010992D01*
X017441Y011008D01*
X017422Y011026D01*
X017406Y011047D01*
X017393Y011070D01*
X017384Y011094D01*
X017378Y011120D01*
X017376Y011146D01*
X016985Y011714D02*
X016987Y011749D01*
X016993Y011783D01*
X017002Y011816D01*
X017016Y011849D01*
X017033Y011879D01*
X017053Y011907D01*
X017076Y011933D01*
X017102Y011956D01*
X017130Y011976D01*
X017160Y011993D01*
X017193Y012007D01*
X017226Y012016D01*
X017260Y012022D01*
X017295Y012024D01*
X017330Y012022D01*
X017364Y012016D01*
X017397Y012007D01*
X017430Y011993D01*
X017460Y011976D01*
X017488Y011956D01*
X017514Y011933D01*
X017537Y011907D01*
X017557Y011879D01*
X017574Y011849D01*
X017588Y011816D01*
X017597Y011783D01*
X017603Y011749D01*
X017605Y011714D01*
X017603Y011679D01*
X017597Y011645D01*
X017588Y011612D01*
X017574Y011579D01*
X017557Y011549D01*
X017537Y011521D01*
X017514Y011495D01*
X017488Y011472D01*
X017460Y011452D01*
X017430Y011435D01*
X017397Y011421D01*
X017364Y011412D01*
X017330Y011406D01*
X017295Y011404D01*
X017260Y011406D01*
X017226Y011412D01*
X017193Y011421D01*
X017160Y011435D01*
X017130Y011452D01*
X017102Y011472D01*
X017076Y011495D01*
X017053Y011521D01*
X017033Y011549D01*
X017016Y011579D01*
X017002Y011612D01*
X016993Y011645D01*
X016987Y011679D01*
X016985Y011714D01*
X011661Y008754D02*
X011385Y008372D01*
X011422Y008351D02*
X011630Y008636D01*
X011663Y008705D01*
X011276Y008427D02*
X011050Y008744D01*
X011048Y008703D02*
X011257Y008390D01*
X010918Y008071D02*
X010920Y008097D01*
X010926Y008123D01*
X010935Y008147D01*
X010948Y008170D01*
X010964Y008191D01*
X010983Y008209D01*
X011004Y008225D01*
X011028Y008237D01*
X011052Y008245D01*
X011078Y008250D01*
X011105Y008251D01*
X011131Y008248D01*
X011156Y008241D01*
X011180Y008231D01*
X011203Y008217D01*
X011223Y008201D01*
X011240Y008181D01*
X011255Y008159D01*
X011266Y008135D01*
X011274Y008110D01*
X011278Y008084D01*
X011278Y008058D01*
X011274Y008032D01*
X011266Y008007D01*
X011255Y007983D01*
X011240Y007961D01*
X011223Y007941D01*
X011203Y007925D01*
X011180Y007911D01*
X011156Y007901D01*
X011131Y007894D01*
X011105Y007891D01*
X011078Y007892D01*
X011052Y007897D01*
X011028Y007905D01*
X011004Y007917D01*
X010983Y007933D01*
X010964Y007951D01*
X010948Y007972D01*
X010935Y007995D01*
X010926Y008019D01*
X010920Y008045D01*
X010918Y008071D01*
X011434Y008072D02*
X011436Y008098D01*
X011442Y008124D01*
X011451Y008148D01*
X011464Y008171D01*
X011480Y008192D01*
X011499Y008210D01*
X011520Y008226D01*
X011544Y008238D01*
X011568Y008246D01*
X011594Y008251D01*
X011621Y008252D01*
X011647Y008249D01*
X011672Y008242D01*
X011696Y008232D01*
X011719Y008218D01*
X011739Y008202D01*
X011756Y008182D01*
X011771Y008160D01*
X011782Y008136D01*
X011790Y008111D01*
X011794Y008085D01*
X011794Y008059D01*
X011790Y008033D01*
X011782Y008008D01*
X011771Y007984D01*
X011756Y007962D01*
X011739Y007942D01*
X011719Y007926D01*
X011696Y007912D01*
X011672Y007902D01*
X011647Y007895D01*
X011621Y007892D01*
X011594Y007893D01*
X011568Y007898D01*
X011544Y007906D01*
X011520Y007918D01*
X011499Y007934D01*
X011480Y007952D01*
X011464Y007973D01*
X011451Y007996D01*
X011442Y008020D01*
X011436Y008046D01*
X011434Y008072D01*
X011049Y007504D02*
X011051Y007539D01*
X011057Y007573D01*
X011066Y007606D01*
X011080Y007639D01*
X011097Y007669D01*
X011117Y007697D01*
X011140Y007723D01*
X011166Y007746D01*
X011194Y007766D01*
X011224Y007783D01*
X011257Y007797D01*
X011290Y007806D01*
X011324Y007812D01*
X011359Y007814D01*
X011394Y007812D01*
X011428Y007806D01*
X011461Y007797D01*
X011494Y007783D01*
X011524Y007766D01*
X011552Y007746D01*
X011578Y007723D01*
X011601Y007697D01*
X011621Y007669D01*
X011638Y007639D01*
X011652Y007606D01*
X011661Y007573D01*
X011667Y007539D01*
X011669Y007504D01*
X011667Y007469D01*
X011661Y007435D01*
X011652Y007402D01*
X011638Y007369D01*
X011621Y007339D01*
X011601Y007311D01*
X011578Y007285D01*
X011552Y007262D01*
X011524Y007242D01*
X011494Y007225D01*
X011461Y007211D01*
X011428Y007202D01*
X011394Y007196D01*
X011359Y007194D01*
X011324Y007196D01*
X011290Y007202D01*
X011257Y007211D01*
X011224Y007225D01*
X011194Y007242D01*
X011166Y007262D01*
X011140Y007285D01*
X011117Y007311D01*
X011097Y007339D01*
X011080Y007369D01*
X011066Y007402D01*
X011057Y007435D01*
X011051Y007469D01*
X011049Y007504D01*
X015674Y005564D02*
X015676Y005599D01*
X015682Y005633D01*
X015691Y005666D01*
X015705Y005699D01*
X015722Y005729D01*
X015742Y005757D01*
X015765Y005783D01*
X015791Y005806D01*
X015819Y005826D01*
X015849Y005843D01*
X015882Y005857D01*
X015915Y005866D01*
X015949Y005872D01*
X015984Y005874D01*
X016019Y005872D01*
X016053Y005866D01*
X016086Y005857D01*
X016119Y005843D01*
X016149Y005826D01*
X016177Y005806D01*
X016203Y005783D01*
X016226Y005757D01*
X016246Y005729D01*
X016263Y005699D01*
X016277Y005666D01*
X016286Y005633D01*
X016292Y005599D01*
X016294Y005564D01*
X016292Y005529D01*
X016286Y005495D01*
X016277Y005462D01*
X016263Y005429D01*
X016246Y005399D01*
X016226Y005371D01*
X016203Y005345D01*
X016177Y005322D01*
X016149Y005302D01*
X016119Y005285D01*
X016086Y005271D01*
X016053Y005262D01*
X016019Y005256D01*
X015984Y005254D01*
X015949Y005256D01*
X015915Y005262D01*
X015882Y005271D01*
X015849Y005285D01*
X015819Y005302D01*
X015791Y005322D01*
X015765Y005345D01*
X015742Y005371D01*
X015722Y005399D01*
X015705Y005429D01*
X015691Y005462D01*
X015682Y005495D01*
X015676Y005529D01*
X015674Y005564D01*
X006127Y005011D02*
X006127Y004591D01*
X005917Y004591D01*
X005847Y004661D01*
X005847Y004731D01*
X005917Y004801D01*
X006127Y004801D01*
X005917Y004801D02*
X005847Y004871D01*
X005847Y004941D01*
X005917Y005011D01*
X006127Y005011D01*
X005667Y005011D02*
X005667Y004941D01*
X005527Y004801D01*
X005527Y004591D01*
X005527Y004801D02*
X005387Y004941D01*
X005387Y005011D01*
X004827Y005011D02*
X004827Y004591D01*
X004547Y004591D02*
X004547Y005011D01*
X004367Y004941D02*
X004367Y004661D01*
X004297Y004591D01*
X004157Y004591D01*
X004087Y004661D01*
X004547Y004591D02*
X004827Y005011D01*
X004367Y004941D02*
X004297Y005011D01*
X004157Y005011D01*
X004087Y004941D01*
X003527Y004941D02*
X003527Y004871D01*
X003457Y004801D01*
X003317Y004801D01*
X003247Y004731D01*
X003247Y004661D01*
X003317Y004591D01*
X003457Y004591D01*
X003527Y004661D01*
X003067Y004591D02*
X003067Y004871D01*
X002927Y005011D01*
X002787Y004871D01*
X002787Y004591D01*
X002787Y004801D02*
X003067Y004801D01*
X003247Y004941D02*
X003317Y005011D01*
X003457Y005011D01*
X003527Y004941D01*
X005824Y016535D02*
X006100Y016917D01*
X006063Y016938D02*
X005855Y016653D01*
X005822Y016584D01*
X006209Y016862D02*
X006435Y016545D01*
X006437Y016586D02*
X006228Y016899D01*
X006207Y017218D02*
X006209Y017244D01*
X006215Y017270D01*
X006224Y017294D01*
X006237Y017317D01*
X006253Y017338D01*
X006272Y017356D01*
X006293Y017372D01*
X006317Y017384D01*
X006341Y017392D01*
X006367Y017397D01*
X006394Y017398D01*
X006420Y017395D01*
X006445Y017388D01*
X006469Y017378D01*
X006492Y017364D01*
X006512Y017348D01*
X006529Y017328D01*
X006544Y017306D01*
X006555Y017282D01*
X006563Y017257D01*
X006567Y017231D01*
X006567Y017205D01*
X006563Y017179D01*
X006555Y017154D01*
X006544Y017130D01*
X006529Y017108D01*
X006512Y017088D01*
X006492Y017072D01*
X006469Y017058D01*
X006445Y017048D01*
X006420Y017041D01*
X006394Y017038D01*
X006367Y017039D01*
X006341Y017044D01*
X006317Y017052D01*
X006293Y017064D01*
X006272Y017080D01*
X006253Y017098D01*
X006237Y017119D01*
X006224Y017142D01*
X006215Y017166D01*
X006209Y017192D01*
X006207Y017218D01*
X005691Y017217D02*
X005693Y017243D01*
X005699Y017269D01*
X005708Y017293D01*
X005721Y017316D01*
X005737Y017337D01*
X005756Y017355D01*
X005777Y017371D01*
X005801Y017383D01*
X005825Y017391D01*
X005851Y017396D01*
X005878Y017397D01*
X005904Y017394D01*
X005929Y017387D01*
X005953Y017377D01*
X005976Y017363D01*
X005996Y017347D01*
X006013Y017327D01*
X006028Y017305D01*
X006039Y017281D01*
X006047Y017256D01*
X006051Y017230D01*
X006051Y017204D01*
X006047Y017178D01*
X006039Y017153D01*
X006028Y017129D01*
X006013Y017107D01*
X005996Y017087D01*
X005976Y017071D01*
X005953Y017057D01*
X005929Y017047D01*
X005904Y017040D01*
X005878Y017037D01*
X005851Y017038D01*
X005825Y017043D01*
X005801Y017051D01*
X005777Y017063D01*
X005756Y017079D01*
X005737Y017097D01*
X005721Y017118D01*
X005708Y017141D01*
X005699Y017165D01*
X005693Y017191D01*
X005691Y017217D01*
X005816Y017784D02*
X005818Y017819D01*
X005824Y017853D01*
X005833Y017886D01*
X005847Y017919D01*
X005864Y017949D01*
X005884Y017977D01*
X005907Y018003D01*
X005933Y018026D01*
X005961Y018046D01*
X005991Y018063D01*
X006024Y018077D01*
X006057Y018086D01*
X006091Y018092D01*
X006126Y018094D01*
X006161Y018092D01*
X006195Y018086D01*
X006228Y018077D01*
X006261Y018063D01*
X006291Y018046D01*
X006319Y018026D01*
X006345Y018003D01*
X006368Y017977D01*
X006388Y017949D01*
X006405Y017919D01*
X006419Y017886D01*
X006428Y017853D01*
X006434Y017819D01*
X006436Y017784D01*
X006434Y017749D01*
X006428Y017715D01*
X006419Y017682D01*
X006405Y017649D01*
X006388Y017619D01*
X006368Y017591D01*
X006345Y017565D01*
X006319Y017542D01*
X006291Y017522D01*
X006261Y017505D01*
X006228Y017491D01*
X006195Y017482D01*
X006161Y017476D01*
X006126Y017474D01*
X006091Y017476D01*
X006057Y017482D01*
X006024Y017491D01*
X005991Y017505D01*
X005961Y017522D01*
X005933Y017542D01*
X005907Y017565D01*
X005884Y017591D01*
X005864Y017619D01*
X005847Y017649D01*
X005833Y017682D01*
X005824Y017715D01*
X005818Y017749D01*
X005816Y017784D01*
X008712Y017057D02*
X008992Y017057D01*
X008852Y017057D02*
X008852Y017478D01*
X008992Y017337D01*
X009312Y017478D02*
X009312Y017057D01*
X009452Y017057D02*
X009172Y017057D01*
X009632Y017197D02*
X009913Y017197D01*
X009913Y017337D02*
X009632Y017337D01*
X009452Y017337D02*
X009312Y017478D01*
X010093Y017407D02*
X010093Y017267D01*
X010163Y017197D01*
X010373Y017197D01*
X010373Y017057D02*
X010373Y017478D01*
X010163Y017478D01*
X010093Y017407D01*
X010553Y017407D02*
X010553Y017337D01*
X010693Y017197D01*
X010693Y017127D02*
X010693Y017057D01*
X010553Y017407D02*
X010623Y017478D01*
X010763Y017478D01*
X010833Y017407D01*
X011014Y017478D02*
X011294Y017057D01*
X011474Y017057D02*
X011474Y017478D01*
X011614Y017337D01*
X011754Y017478D01*
X011754Y017057D01*
X011934Y017127D02*
X011934Y017407D01*
X012004Y017478D01*
X012144Y017478D01*
X012215Y017407D01*
X012215Y017127D01*
X012144Y017057D01*
X012004Y017057D01*
X011934Y017127D01*
X012395Y017127D02*
X012465Y017057D01*
X012605Y017057D01*
X012675Y017127D01*
X012675Y017407D01*
X012605Y017478D01*
X012465Y017478D01*
X012395Y017407D01*
X012835Y017127D02*
X012835Y017057D01*
X012905Y017057D01*
X012905Y017127D01*
X012835Y017127D01*
X013085Y017057D02*
X013085Y017337D01*
X013225Y017478D01*
X013366Y017337D01*
X013366Y017057D01*
X013546Y017127D02*
X013616Y017057D01*
X013756Y017057D01*
X013826Y017127D01*
X013756Y017267D02*
X013826Y017337D01*
X013826Y017407D01*
X013756Y017478D01*
X013616Y017478D01*
X013546Y017407D01*
X013616Y017267D02*
X013546Y017197D01*
X013546Y017127D01*
X013616Y017267D02*
X013756Y017267D01*
X014006Y017057D02*
X014286Y017057D01*
X014286Y017478D01*
X014006Y017478D01*
X014146Y017267D02*
X014286Y017267D01*
X014607Y017057D02*
X014607Y017478D01*
X014747Y017478D02*
X014466Y017478D01*
X014927Y017057D02*
X015207Y017057D01*
X015207Y017478D01*
X015374Y017478D02*
X015514Y017478D01*
X015444Y017478D02*
X015444Y017057D01*
X015514Y017057D02*
X015374Y017057D01*
X015694Y017127D02*
X015694Y017267D01*
X015834Y017267D01*
X015694Y017127D02*
X015764Y017057D01*
X015904Y017057D01*
X015974Y017127D01*
X015974Y017407D01*
X015904Y017478D01*
X015764Y017478D01*
X015694Y017407D01*
X016135Y017127D02*
X016135Y017057D01*
X016205Y017057D01*
X016205Y017127D01*
X016135Y017127D01*
X016385Y017267D02*
X016385Y017407D01*
X016455Y017478D01*
X016665Y017478D01*
X016665Y017057D01*
X016665Y017197D02*
X016455Y017197D01*
X016385Y017267D01*
X016845Y017127D02*
X016915Y017057D01*
X017055Y017057D01*
X017125Y017127D01*
X017125Y017407D01*
X017055Y017478D01*
X016915Y017478D01*
X016845Y017407D01*
X016845Y017127D01*
X017306Y017057D02*
X017306Y017478D01*
X017306Y017267D02*
X017586Y017267D01*
X017766Y017197D02*
X017766Y017127D01*
X017836Y017057D01*
X017976Y017057D01*
X018046Y017127D01*
X017976Y017267D02*
X017836Y017267D01*
X017766Y017197D01*
X017766Y017407D02*
X017836Y017478D01*
X017976Y017478D01*
X018046Y017407D01*
X018046Y017337D01*
X017976Y017267D01*
X017586Y017057D02*
X017586Y017478D01*
X018226Y017478D02*
X018507Y017057D01*
X018687Y017478D02*
X018967Y017057D01*
X019127Y017057D02*
X019127Y017127D01*
X019197Y017127D01*
X019197Y017057D01*
X019127Y017057D01*
X019127Y017267D02*
X019197Y017267D01*
X019197Y017337D01*
X019127Y017337D01*
X019127Y017267D01*
X019377Y017197D02*
X019377Y017127D01*
X019447Y017057D01*
X019587Y017057D01*
X019658Y017127D01*
X019587Y017267D02*
X019658Y017337D01*
X019658Y017407D01*
X019587Y017478D01*
X019447Y017478D01*
X019377Y017407D01*
X019447Y017267D02*
X019377Y017197D01*
X019447Y017267D02*
X019587Y017267D01*
X019838Y017267D02*
X019838Y017407D01*
X019908Y017478D01*
X020118Y017478D01*
X020118Y017057D01*
X020118Y017197D02*
X019908Y017197D01*
X019838Y017267D01*
X020298Y017478D02*
X020578Y017478D01*
X020438Y017478D02*
X020438Y017057D01*
X020899Y017057D02*
X020899Y017478D01*
X021039Y017478D02*
X020758Y017478D01*
X021219Y017478D02*
X021219Y017057D01*
X021219Y017267D02*
X021499Y017267D01*
X021499Y017057D02*
X021499Y017478D01*
X022120Y017337D02*
X022120Y017267D01*
X022190Y017267D01*
X022190Y017337D01*
X022120Y017337D01*
X022120Y017127D02*
X022120Y017057D01*
X022190Y017057D01*
X022190Y017127D01*
X022120Y017127D01*
X022370Y017057D02*
X022650Y017057D01*
X022650Y017478D01*
X022370Y017478D01*
X022510Y017267D02*
X022650Y017267D01*
X022830Y017127D02*
X022900Y017057D01*
X023110Y017057D01*
X023110Y017478D01*
X022900Y017478D01*
X022830Y017407D01*
X022830Y017127D01*
X023277Y017057D02*
X023417Y017057D01*
X023347Y017057D02*
X023347Y017478D01*
X023417Y017478D02*
X023277Y017478D01*
X023598Y017478D02*
X023598Y017127D01*
X023668Y017057D01*
X023808Y017057D01*
X023878Y017127D01*
X023878Y017478D01*
X024058Y017407D02*
X024128Y017478D01*
X024268Y017478D01*
X024338Y017407D01*
X024338Y017127D01*
X024268Y017057D01*
X024128Y017057D01*
X024058Y017127D01*
X024058Y017267D01*
X024198Y017267D01*
X013366Y017267D02*
X013085Y017267D01*
D12*
X008699Y016825D02*
X024399Y016825D01*
X008257Y006551D02*
X008257Y004551D01*
X008255Y004528D01*
X008250Y004505D01*
X008241Y004483D01*
X008228Y004463D01*
X008213Y004445D01*
X008195Y004430D01*
X008175Y004417D01*
X008153Y004408D01*
X008130Y004403D01*
X008107Y004401D01*
X002557Y004401D01*
X002534Y004403D01*
X002511Y004408D01*
X002489Y004417D01*
X002469Y004430D01*
X002451Y004445D01*
X002436Y004463D01*
X002423Y004483D01*
X002414Y004505D01*
X002409Y004528D01*
X002407Y004551D01*
X002407Y006551D01*
X002409Y006574D01*
X002414Y006597D01*
X002423Y006619D01*
X002436Y006639D01*
X002451Y006657D01*
X002469Y006672D01*
X002489Y006685D01*
X002511Y006694D01*
X002534Y006699D01*
X002557Y006701D01*
X008107Y006701D01*
X008130Y006699D01*
X008153Y006694D01*
X008175Y006685D01*
X008195Y006672D01*
X008213Y006657D01*
X008228Y006639D01*
X008241Y006619D01*
X008250Y006597D01*
X008255Y006574D01*
X008257Y006551D01*
X006550Y005751D02*
X006552Y005804D01*
X006558Y005856D01*
X006568Y005908D01*
X006581Y005959D01*
X006599Y006009D01*
X006620Y006058D01*
X006645Y006105D01*
X006673Y006149D01*
X006704Y006192D01*
X006739Y006232D01*
X006776Y006269D01*
X006816Y006304D01*
X006859Y006335D01*
X006904Y006363D01*
X006950Y006388D01*
X006999Y006409D01*
X007049Y006427D01*
X007100Y006440D01*
X007152Y006450D01*
X007204Y006456D01*
X007257Y006458D01*
X007310Y006456D01*
X007362Y006450D01*
X007414Y006440D01*
X007465Y006427D01*
X007515Y006409D01*
X007564Y006388D01*
X007611Y006363D01*
X007655Y006335D01*
X007698Y006304D01*
X007738Y006269D01*
X007775Y006232D01*
X007810Y006192D01*
X007841Y006149D01*
X007869Y006104D01*
X007894Y006058D01*
X007915Y006009D01*
X007933Y005959D01*
X007946Y005908D01*
X007956Y005856D01*
X007962Y005804D01*
X007964Y005751D01*
X007962Y005698D01*
X007956Y005646D01*
X007946Y005594D01*
X007933Y005543D01*
X007915Y005493D01*
X007894Y005444D01*
X007869Y005397D01*
X007841Y005353D01*
X007810Y005310D01*
X007775Y005270D01*
X007738Y005233D01*
X007698Y005198D01*
X007655Y005167D01*
X007610Y005139D01*
X007564Y005114D01*
X007515Y005093D01*
X007465Y005075D01*
X007414Y005062D01*
X007362Y005052D01*
X007310Y005046D01*
X007257Y005044D01*
X007204Y005046D01*
X007152Y005052D01*
X007100Y005062D01*
X007049Y005075D01*
X006999Y005093D01*
X006950Y005114D01*
X006903Y005139D01*
X006859Y005167D01*
X006816Y005198D01*
X006776Y005233D01*
X006739Y005270D01*
X006704Y005310D01*
X006673Y005353D01*
X006645Y005398D01*
X006620Y005444D01*
X006599Y005493D01*
X006581Y005543D01*
X006568Y005594D01*
X006558Y005646D01*
X006552Y005698D01*
X006550Y005751D01*
X006457Y005201D02*
X002407Y005201D01*
X003277Y005661D02*
X003246Y005646D01*
X003213Y005634D01*
X003179Y005627D01*
X003144Y005623D01*
X003110Y005622D01*
X003075Y005626D01*
X003041Y005634D01*
X003008Y005645D01*
X002977Y005660D01*
X002947Y005678D01*
X002920Y005700D01*
X002895Y005724D01*
X002873Y005751D01*
X002854Y005781D01*
X002839Y005812D01*
X002827Y005844D01*
X002819Y005878D01*
X002815Y005913D01*
X002814Y005948D01*
X002818Y005982D01*
X002825Y006016D01*
X002836Y006049D01*
X002851Y006081D01*
X002869Y006111D01*
X002890Y006138D01*
X002914Y006163D01*
X002941Y006185D01*
X002970Y006204D01*
X003001Y006220D01*
X003034Y006232D01*
X003068Y006240D01*
X003102Y006245D01*
X003137Y006246D01*
X003172Y006243D01*
X003206Y006236D01*
X003239Y006225D01*
X003270Y006211D01*
X003300Y006193D01*
X003328Y006172D01*
X003353Y006148D01*
X003376Y006121D01*
X003395Y006092D01*
X003411Y006061D01*
X003423Y006029D01*
X003432Y005995D01*
X003437Y005961D01*
X003517Y005961D02*
X003397Y005841D01*
X003317Y005981D01*
X003517Y005961D01*
X002616Y005951D02*
X002618Y005997D01*
X002624Y006042D01*
X002633Y006087D01*
X002647Y006131D01*
X002664Y006174D01*
X002685Y006215D01*
X002709Y006254D01*
X002736Y006291D01*
X002766Y006325D01*
X002800Y006357D01*
X002835Y006386D01*
X002873Y006412D01*
X002913Y006434D01*
X002955Y006453D01*
X002999Y006468D01*
X003043Y006480D01*
X003088Y006488D01*
X003134Y006492D01*
X003180Y006492D01*
X003226Y006488D01*
X003271Y006480D01*
X003315Y006468D01*
X003359Y006453D01*
X003401Y006434D01*
X003441Y006412D01*
X003479Y006386D01*
X003514Y006357D01*
X003548Y006325D01*
X003578Y006291D01*
X003605Y006254D01*
X003629Y006215D01*
X003650Y006174D01*
X003667Y006131D01*
X003681Y006087D01*
X003690Y006042D01*
X003696Y005997D01*
X003698Y005951D01*
X003696Y005905D01*
X003690Y005860D01*
X003681Y005815D01*
X003667Y005771D01*
X003650Y005728D01*
X003629Y005687D01*
X003605Y005648D01*
X003578Y005611D01*
X003548Y005577D01*
X003514Y005545D01*
X003479Y005516D01*
X003441Y005490D01*
X003401Y005468D01*
X003359Y005449D01*
X003315Y005434D01*
X003271Y005422D01*
X003226Y005414D01*
X003180Y005410D01*
X003134Y005410D01*
X003088Y005414D01*
X003043Y005422D01*
X002999Y005434D01*
X002955Y005449D01*
X002913Y005468D01*
X002873Y005490D01*
X002835Y005516D01*
X002800Y005545D01*
X002766Y005577D01*
X002736Y005611D01*
X002709Y005648D01*
X002685Y005687D01*
X002664Y005728D01*
X002647Y005771D01*
X002633Y005815D01*
X002624Y005860D01*
X002618Y005905D01*
X002616Y005951D01*
X003977Y005721D02*
X004937Y006161D01*
X004457Y006161D02*
X004457Y006241D01*
X004357Y006101D02*
X004373Y006114D01*
X004391Y006125D01*
X004410Y006132D01*
X004431Y006136D01*
X004451Y006135D01*
X004472Y006132D01*
X004491Y006124D01*
X004509Y006113D01*
X004524Y006099D01*
X004537Y006083D01*
X004546Y006065D01*
X004552Y006045D01*
X004555Y006024D01*
X004554Y006004D01*
X004549Y005984D01*
X004540Y005965D01*
X004529Y005948D01*
X004514Y005933D01*
X004497Y005921D01*
X003916Y005951D02*
X003918Y005997D01*
X003924Y006042D01*
X003933Y006087D01*
X003947Y006131D01*
X003964Y006174D01*
X003985Y006215D01*
X004009Y006254D01*
X004036Y006291D01*
X004066Y006325D01*
X004100Y006357D01*
X004135Y006386D01*
X004173Y006412D01*
X004213Y006434D01*
X004255Y006453D01*
X004299Y006468D01*
X004343Y006480D01*
X004388Y006488D01*
X004434Y006492D01*
X004480Y006492D01*
X004526Y006488D01*
X004571Y006480D01*
X004615Y006468D01*
X004659Y006453D01*
X004701Y006434D01*
X004741Y006412D01*
X004779Y006386D01*
X004814Y006357D01*
X004848Y006325D01*
X004878Y006291D01*
X004905Y006254D01*
X004929Y006215D01*
X004950Y006174D01*
X004967Y006131D01*
X004981Y006087D01*
X004990Y006042D01*
X004996Y005997D01*
X004998Y005951D01*
X004996Y005905D01*
X004990Y005860D01*
X004981Y005815D01*
X004967Y005771D01*
X004950Y005728D01*
X004929Y005687D01*
X004905Y005648D01*
X004878Y005611D01*
X004848Y005577D01*
X004814Y005545D01*
X004779Y005516D01*
X004741Y005490D01*
X004701Y005468D01*
X004659Y005449D01*
X004615Y005434D01*
X004571Y005422D01*
X004526Y005414D01*
X004480Y005410D01*
X004434Y005410D01*
X004388Y005414D01*
X004343Y005422D01*
X004299Y005434D01*
X004255Y005449D01*
X004213Y005468D01*
X004173Y005490D01*
X004135Y005516D01*
X004100Y005545D01*
X004066Y005577D01*
X004036Y005611D01*
X004009Y005648D01*
X003985Y005687D01*
X003964Y005728D01*
X003947Y005771D01*
X003933Y005815D01*
X003924Y005860D01*
X003918Y005905D01*
X003916Y005951D01*
X004396Y005701D02*
X004380Y005713D01*
X004365Y005728D01*
X004354Y005745D01*
X004345Y005764D01*
X004340Y005784D01*
X004338Y005805D01*
X004340Y005826D01*
X004345Y005846D01*
X004354Y005865D01*
X004365Y005882D01*
X004380Y005897D01*
X004397Y005909D01*
X004415Y005918D01*
X004435Y005924D01*
X004456Y005927D01*
X004476Y005926D01*
X004497Y005921D01*
X004577Y005741D02*
X004562Y005724D01*
X004545Y005709D01*
X004526Y005698D01*
X004505Y005689D01*
X004483Y005684D01*
X004461Y005683D01*
X004439Y005686D01*
X004417Y005692D01*
X004397Y005701D01*
X004457Y005681D02*
X004457Y005601D01*
X005627Y005871D02*
X005627Y006031D01*
X005837Y006031D01*
X005837Y005871D01*
X005767Y005871D01*
X005767Y005601D01*
X005697Y005601D01*
X005697Y005871D01*
X005627Y005871D01*
X005717Y005931D02*
X005717Y005981D01*
X005216Y005951D02*
X005218Y005997D01*
X005224Y006042D01*
X005233Y006087D01*
X005247Y006131D01*
X005264Y006174D01*
X005285Y006215D01*
X005309Y006254D01*
X005336Y006291D01*
X005366Y006325D01*
X005400Y006357D01*
X005435Y006386D01*
X005473Y006412D01*
X005513Y006434D01*
X005555Y006453D01*
X005599Y006468D01*
X005643Y006480D01*
X005688Y006488D01*
X005734Y006492D01*
X005780Y006492D01*
X005826Y006488D01*
X005871Y006480D01*
X005915Y006468D01*
X005959Y006453D01*
X006001Y006434D01*
X006041Y006412D01*
X006079Y006386D01*
X006114Y006357D01*
X006148Y006325D01*
X006178Y006291D01*
X006205Y006254D01*
X006229Y006215D01*
X006250Y006174D01*
X006267Y006131D01*
X006281Y006087D01*
X006290Y006042D01*
X006296Y005997D01*
X006298Y005951D01*
X006296Y005905D01*
X006290Y005860D01*
X006281Y005815D01*
X006267Y005771D01*
X006250Y005728D01*
X006229Y005687D01*
X006205Y005648D01*
X006178Y005611D01*
X006148Y005577D01*
X006114Y005545D01*
X006079Y005516D01*
X006041Y005490D01*
X006001Y005468D01*
X005959Y005449D01*
X005915Y005434D01*
X005871Y005422D01*
X005826Y005414D01*
X005780Y005410D01*
X005734Y005410D01*
X005688Y005414D01*
X005643Y005422D01*
X005599Y005434D01*
X005555Y005449D01*
X005513Y005468D01*
X005473Y005490D01*
X005435Y005516D01*
X005400Y005545D01*
X005366Y005577D01*
X005336Y005611D01*
X005309Y005648D01*
X005285Y005687D01*
X005264Y005728D01*
X005247Y005771D01*
X005233Y005815D01*
X005224Y005860D01*
X005218Y005905D01*
X005216Y005951D01*
X005717Y005931D02*
X005787Y005931D01*
X005787Y006001D01*
X005797Y006001D01*
X005687Y006231D02*
X005689Y006244D01*
X005694Y006257D01*
X005703Y006268D01*
X005714Y006275D01*
X005727Y006280D01*
X005740Y006281D01*
X005754Y006278D01*
X005766Y006272D01*
X005776Y006263D01*
X005783Y006251D01*
X005787Y006238D01*
X005787Y006224D01*
X005783Y006211D01*
X005776Y006199D01*
X005766Y006190D01*
X005754Y006184D01*
X005740Y006181D01*
X005727Y006182D01*
X005714Y006187D01*
X005703Y006194D01*
X005694Y006205D01*
X005689Y006218D01*
X005687Y006231D01*
X006457Y005201D02*
X006488Y005151D01*
X006522Y005103D01*
X006559Y005058D01*
X006598Y005015D01*
X006641Y004974D01*
X006686Y004937D01*
X006733Y004902D01*
X006782Y004870D01*
X006834Y004842D01*
X006887Y004817D01*
X006941Y004795D01*
X006997Y004776D01*
X007053Y004762D01*
X007111Y004751D01*
X007169Y004743D01*
X007228Y004739D01*
X007286Y004739D01*
X007345Y004743D01*
X007403Y004751D01*
X007461Y004762D01*
X007517Y004776D01*
X007573Y004795D01*
X007627Y004817D01*
X007680Y004842D01*
X007732Y004870D01*
X007781Y004902D01*
X007828Y004937D01*
X007873Y004974D01*
X007916Y005015D01*
X007955Y005058D01*
X007992Y005103D01*
X008026Y005151D01*
X008057Y005201D01*
X008257Y005201D01*
D13*
X011239Y007344D02*
X011359Y007344D01*
X011359Y007704D01*
X011479Y007584D01*
X011479Y007344D02*
X011379Y007344D01*
X011359Y007344D01*
X015428Y008434D02*
X015655Y008434D01*
X015541Y008434D02*
X015541Y008094D01*
X015796Y008151D02*
X015796Y008434D01*
X016023Y008434D02*
X016023Y008151D01*
X015966Y008094D01*
X015853Y008094D01*
X015796Y008151D01*
X016165Y008151D02*
X016165Y008378D01*
X016221Y008434D01*
X016335Y008434D01*
X016391Y008378D01*
X016391Y008151D01*
X016335Y008094D01*
X016221Y008094D01*
X016165Y008151D01*
X016533Y008434D02*
X016760Y008434D01*
X016646Y008434D02*
X016646Y008094D01*
X016901Y008094D02*
X016901Y008321D01*
X017015Y008434D01*
X017128Y008321D01*
X017128Y008094D01*
X017269Y008151D02*
X017326Y008094D01*
X017496Y008094D01*
X017496Y008434D01*
X017326Y008434D01*
X017269Y008378D01*
X017269Y008321D01*
X017326Y008264D01*
X017496Y008264D01*
X017326Y008264D02*
X017269Y008207D01*
X017269Y008151D01*
X017128Y008264D02*
X016901Y008264D01*
X016850Y009489D02*
X016650Y009489D01*
X016750Y009489D02*
X016750Y009789D01*
X016850Y009689D01*
X016981Y009589D02*
X016981Y009789D01*
X016981Y009589D02*
X017081Y009489D01*
X017181Y009589D01*
X017181Y009789D01*
X017644Y009739D02*
X017644Y009689D01*
X017694Y009639D01*
X017644Y009589D01*
X017644Y009539D01*
X017694Y009489D01*
X017794Y009489D01*
X017844Y009539D01*
X017975Y009539D02*
X018025Y009489D01*
X018126Y009489D01*
X018176Y009539D01*
X017975Y009739D01*
X017975Y009539D01*
X017975Y009739D02*
X018025Y009789D01*
X018126Y009789D01*
X018176Y009739D01*
X018176Y009539D01*
X018307Y009789D02*
X018507Y009489D01*
X018638Y009539D02*
X018638Y009589D01*
X018688Y009639D01*
X018739Y009639D01*
X018688Y009639D02*
X018638Y009689D01*
X018638Y009739D01*
X018688Y009789D01*
X018789Y009789D01*
X018839Y009739D01*
X018970Y009739D02*
X019020Y009789D01*
X019120Y009789D01*
X019170Y009739D01*
X019301Y009739D02*
X019502Y009539D01*
X019452Y009489D01*
X019351Y009489D01*
X019301Y009539D01*
X019301Y009739D01*
X019351Y009789D01*
X019452Y009789D01*
X019502Y009739D01*
X019502Y009539D01*
X019633Y009489D02*
X019833Y009489D01*
X019633Y009689D01*
X019633Y009739D01*
X019683Y009789D01*
X019783Y009789D01*
X019833Y009739D01*
X019170Y009489D02*
X018970Y009689D01*
X018970Y009739D01*
X018839Y009539D02*
X018789Y009489D01*
X018688Y009489D01*
X018638Y009539D01*
X018970Y009489D02*
X019170Y009489D01*
X017844Y009739D02*
X017794Y009789D01*
X017694Y009789D01*
X017644Y009739D01*
X017694Y009639D02*
X017744Y009639D01*
X016518Y009539D02*
X016468Y009539D01*
X016468Y009489D01*
X016518Y009489D01*
X016518Y009539D01*
X016352Y009539D02*
X016352Y009589D01*
X016302Y009639D01*
X016202Y009639D01*
X016152Y009589D01*
X016152Y009539D01*
X016202Y009489D01*
X016302Y009489D01*
X016352Y009539D01*
X016302Y009639D02*
X016352Y009689D01*
X016352Y009739D01*
X016302Y009789D01*
X016202Y009789D01*
X016152Y009739D01*
X016152Y009689D01*
X016202Y009639D01*
X017175Y011554D02*
X017295Y011554D01*
X017295Y011914D01*
X017415Y011794D01*
X017415Y011554D02*
X017315Y011554D01*
X017295Y011554D01*
X022839Y007059D02*
X022959Y006939D01*
X022839Y007059D02*
X022839Y006699D01*
X022719Y006699D01*
X022839Y006699D02*
X022859Y006699D01*
X022959Y006699D01*
X022191Y004753D02*
X022077Y004753D01*
X022021Y004696D01*
X022021Y004583D02*
X022134Y004583D01*
X022021Y004583D02*
X022021Y004470D01*
X022077Y004413D01*
X022191Y004413D01*
X022248Y004470D01*
X022248Y004696D01*
X022191Y004753D01*
X021879Y004753D02*
X021879Y004413D01*
X021652Y004413D02*
X021652Y004753D01*
X021511Y004753D02*
X021341Y004753D01*
X021284Y004696D01*
X021284Y004470D01*
X021341Y004413D01*
X021511Y004413D01*
X021511Y004753D01*
X021879Y004753D02*
X021652Y004413D01*
X016104Y005404D02*
X015864Y005644D01*
X015864Y005704D01*
X015924Y005764D01*
X016044Y005764D01*
X016104Y005704D01*
X016104Y005404D02*
X015864Y005404D01*
X006699Y014334D02*
X006359Y014334D01*
X006359Y014504D01*
X006416Y014561D01*
X006472Y014561D01*
X006529Y014504D01*
X006529Y014334D01*
X006529Y014504D02*
X006586Y014561D01*
X006643Y014561D01*
X006699Y014504D01*
X006699Y014334D01*
X006586Y014702D02*
X006359Y014702D01*
X006529Y014702D02*
X006529Y014929D01*
X006586Y014929D02*
X006359Y014929D01*
X006586Y014929D02*
X006699Y014816D01*
X006586Y014702D01*
X006699Y015070D02*
X006699Y015297D01*
X006699Y015184D02*
X006359Y015184D01*
X006359Y015439D02*
X006359Y015552D01*
X006359Y015495D02*
X006699Y015495D01*
X006699Y015439D02*
X006699Y015552D01*
X006699Y015684D02*
X006359Y015911D01*
X006699Y015911D01*
X006699Y015684D02*
X006359Y015684D01*
X006246Y017624D02*
X006146Y017624D01*
X006126Y017624D01*
X006006Y017624D01*
X006126Y017624D02*
X006126Y017984D01*
X006246Y017864D01*
D14*
X017338Y004483D02*
X017338Y004238D01*
X017340Y004218D01*
X017345Y004199D01*
X017354Y004181D01*
X017366Y004165D01*
X017381Y004152D01*
X017398Y004141D01*
X017416Y004134D01*
X017436Y004130D01*
X017456Y004130D01*
X017476Y004134D01*
X017494Y004141D01*
X017511Y004152D01*
X017526Y004165D01*
X017538Y004181D01*
X017547Y004199D01*
X017552Y004218D01*
X017554Y004238D01*
X017554Y004483D01*
X017552Y004503D01*
X017547Y004522D01*
X017538Y004540D01*
X017526Y004556D01*
X017511Y004569D01*
X017494Y004580D01*
X017476Y004587D01*
X017456Y004591D01*
X017436Y004591D01*
X017416Y004587D01*
X017398Y004580D01*
X017381Y004569D01*
X017366Y004556D01*
X017354Y004540D01*
X017345Y004522D01*
X017340Y004503D01*
X017338Y004483D01*
X017338Y002986D02*
X017338Y002742D01*
X017340Y002722D01*
X017345Y002703D01*
X017354Y002685D01*
X017366Y002669D01*
X017381Y002656D01*
X017398Y002645D01*
X017416Y002638D01*
X017436Y002634D01*
X017456Y002634D01*
X017476Y002638D01*
X017494Y002645D01*
X017511Y002656D01*
X017526Y002669D01*
X017538Y002685D01*
X017547Y002703D01*
X017552Y002722D01*
X017554Y002742D01*
X017554Y002986D01*
X017552Y003006D01*
X017547Y003025D01*
X017538Y003043D01*
X017526Y003059D01*
X017511Y003072D01*
X017494Y003083D01*
X017476Y003090D01*
X017456Y003094D01*
X017436Y003094D01*
X017416Y003090D01*
X017398Y003083D01*
X017381Y003072D01*
X017366Y003059D01*
X017354Y003043D01*
X017345Y003025D01*
X017340Y003006D01*
X017338Y002986D01*
X020739Y002986D02*
X020739Y002742D01*
X020741Y002722D01*
X020746Y002703D01*
X020755Y002685D01*
X020767Y002669D01*
X020782Y002656D01*
X020799Y002645D01*
X020817Y002638D01*
X020837Y002634D01*
X020857Y002634D01*
X020877Y002638D01*
X020895Y002645D01*
X020912Y002656D01*
X020927Y002669D01*
X020939Y002685D01*
X020948Y002703D01*
X020953Y002722D01*
X020955Y002742D01*
X020956Y002742D02*
X020956Y002986D01*
X020955Y002986D02*
X020953Y003006D01*
X020948Y003025D01*
X020939Y003043D01*
X020927Y003059D01*
X020912Y003072D01*
X020895Y003083D01*
X020877Y003090D01*
X020857Y003094D01*
X020837Y003094D01*
X020817Y003090D01*
X020799Y003083D01*
X020782Y003072D01*
X020767Y003059D01*
X020755Y003043D01*
X020746Y003025D01*
X020741Y003006D01*
X020739Y002986D01*
X020739Y004238D02*
X020739Y004483D01*
X020741Y004503D01*
X020746Y004522D01*
X020755Y004540D01*
X020767Y004556D01*
X020782Y004569D01*
X020799Y004580D01*
X020817Y004587D01*
X020837Y004591D01*
X020857Y004591D01*
X020877Y004587D01*
X020895Y004580D01*
X020912Y004569D01*
X020927Y004556D01*
X020939Y004540D01*
X020948Y004522D01*
X020953Y004503D01*
X020955Y004483D01*
X020956Y004483D02*
X020956Y004238D01*
X020955Y004238D02*
X020953Y004218D01*
X020948Y004199D01*
X020939Y004181D01*
X020927Y004165D01*
X020912Y004152D01*
X020895Y004141D01*
X020877Y004134D01*
X020857Y004130D01*
X020837Y004130D01*
X020817Y004134D01*
X020799Y004141D01*
X020782Y004152D01*
X020767Y004165D01*
X020755Y004181D01*
X020746Y004199D01*
X020741Y004218D01*
X020739Y004238D01*
D15*
X014068Y005297D02*
X014068Y005547D01*
X013868Y005547D01*
X014068Y005547D02*
X014068Y005797D01*
X007357Y005901D02*
X007377Y005923D01*
X007400Y005942D01*
X007425Y005958D01*
X007452Y005971D01*
X007480Y005980D01*
X007510Y005986D01*
X007539Y005988D01*
X007569Y005986D01*
X007598Y005981D01*
X007627Y005972D01*
X007654Y005959D01*
X007679Y005943D01*
X007702Y005924D01*
X007722Y005902D01*
X007740Y005878D01*
X007754Y005852D01*
X007765Y005824D01*
X007773Y005795D01*
X007777Y005766D01*
X007777Y005736D01*
X007773Y005707D01*
X007765Y005678D01*
X007754Y005650D01*
X007740Y005624D01*
X007722Y005600D01*
X007702Y005578D01*
X007679Y005559D01*
X007654Y005543D01*
X007627Y005530D01*
X007598Y005521D01*
X007569Y005516D01*
X007539Y005514D01*
X007510Y005516D01*
X007480Y005522D01*
X007452Y005531D01*
X007425Y005544D01*
X007400Y005560D01*
X007377Y005579D01*
X007357Y005601D01*
X006757Y005601D02*
X006777Y005579D01*
X006800Y005560D01*
X006825Y005544D01*
X006852Y005531D01*
X006880Y005522D01*
X006910Y005516D01*
X006939Y005514D01*
X006969Y005516D01*
X006998Y005521D01*
X007027Y005530D01*
X007054Y005543D01*
X007079Y005559D01*
X007102Y005578D01*
X007122Y005600D01*
X007140Y005624D01*
X007154Y005650D01*
X007165Y005678D01*
X007173Y005707D01*
X007177Y005736D01*
X007177Y005766D01*
X007173Y005795D01*
X007165Y005824D01*
X007154Y005852D01*
X007140Y005878D01*
X007122Y005902D01*
X007102Y005924D01*
X007079Y005943D01*
X007054Y005959D01*
X007027Y005972D01*
X006998Y005981D01*
X006969Y005986D01*
X006939Y005988D01*
X006910Y005986D01*
X006880Y005980D01*
X006852Y005971D01*
X006825Y005958D01*
X006800Y005942D01*
X006777Y005923D01*
X006757Y005901D01*
D16*
X010879Y008072D02*
X010881Y008101D01*
X010887Y008130D01*
X010896Y008157D01*
X010909Y008183D01*
X010926Y008207D01*
X010945Y008229D01*
X010968Y008248D01*
X010992Y008263D01*
X011019Y008275D01*
X011046Y008284D01*
X011075Y008289D01*
X011104Y008290D01*
X011133Y008287D01*
X011162Y008280D01*
X011189Y008270D01*
X011214Y008256D01*
X011238Y008238D01*
X011259Y008218D01*
X011277Y008195D01*
X011292Y008170D01*
X011303Y008144D01*
X011311Y008115D01*
X011315Y008087D01*
X011315Y008057D01*
X011311Y008029D01*
X011303Y008000D01*
X011292Y007974D01*
X011277Y007949D01*
X011259Y007926D01*
X011238Y007906D01*
X011214Y007888D01*
X011189Y007874D01*
X011162Y007864D01*
X011133Y007857D01*
X011104Y007854D01*
X011075Y007855D01*
X011046Y007860D01*
X011019Y007869D01*
X010992Y007881D01*
X010968Y007896D01*
X010945Y007915D01*
X010926Y007937D01*
X010909Y007961D01*
X010896Y007987D01*
X010887Y008014D01*
X010881Y008043D01*
X010879Y008072D01*
X010958Y008071D02*
X010960Y008094D01*
X010966Y008116D01*
X010975Y008138D01*
X010988Y008157D01*
X011003Y008174D01*
X011021Y008188D01*
X011042Y008199D01*
X011064Y008207D01*
X011086Y008211D01*
X011110Y008211D01*
X011132Y008207D01*
X011154Y008199D01*
X011175Y008188D01*
X011193Y008174D01*
X011208Y008157D01*
X011221Y008138D01*
X011230Y008116D01*
X011236Y008094D01*
X011238Y008071D01*
X011236Y008048D01*
X011230Y008026D01*
X011221Y008004D01*
X011208Y007985D01*
X011193Y007968D01*
X011175Y007954D01*
X011154Y007943D01*
X011132Y007935D01*
X011110Y007931D01*
X011086Y007931D01*
X011064Y007935D01*
X011042Y007943D01*
X011021Y007954D01*
X011003Y007968D01*
X010988Y007985D01*
X010975Y008004D01*
X010966Y008026D01*
X010960Y008048D01*
X010958Y008071D01*
X011248Y008236D02*
X011666Y008812D01*
X011686Y008785D01*
X011699Y008748D01*
X011700Y008716D01*
X011694Y008685D01*
X011682Y008653D01*
X011657Y008611D01*
X011429Y008301D01*
X011420Y008303D02*
X011411Y008320D01*
X011423Y008292D02*
X011462Y008240D01*
X011368Y008186D02*
X011368Y008182D01*
X011396Y008145D01*
X011368Y008186D02*
X011359Y008189D01*
X011349Y008188D01*
X011315Y008139D01*
X011316Y008299D02*
X011318Y008312D01*
X011324Y008324D01*
X011333Y008333D01*
X011344Y008340D01*
X011357Y008343D01*
X011370Y008342D01*
X011382Y008337D01*
X011392Y008329D01*
X011400Y008318D01*
X011404Y008306D01*
X011404Y008292D01*
X011400Y008280D01*
X011392Y008269D01*
X011382Y008261D01*
X011370Y008256D01*
X011357Y008255D01*
X011344Y008258D01*
X011333Y008265D01*
X011324Y008274D01*
X011318Y008286D01*
X011316Y008299D01*
X011338Y008348D02*
X011352Y008355D01*
X011324Y008430D02*
X011047Y008812D01*
X011032Y008794D01*
X011021Y008772D01*
X011014Y008749D01*
X011012Y008713D01*
X011019Y008685D01*
X011029Y008659D01*
X011041Y008635D01*
X011254Y008336D01*
X011324Y008430D01*
X011474Y008072D02*
X011476Y008095D01*
X011482Y008117D01*
X011491Y008139D01*
X011504Y008158D01*
X011519Y008175D01*
X011537Y008189D01*
X011558Y008200D01*
X011580Y008208D01*
X011602Y008212D01*
X011626Y008212D01*
X011648Y008208D01*
X011670Y008200D01*
X011691Y008189D01*
X011709Y008175D01*
X011724Y008158D01*
X011737Y008139D01*
X011746Y008117D01*
X011752Y008095D01*
X011754Y008072D01*
X011752Y008049D01*
X011746Y008027D01*
X011737Y008005D01*
X011724Y007986D01*
X011709Y007969D01*
X011691Y007955D01*
X011670Y007944D01*
X011648Y007936D01*
X011626Y007932D01*
X011602Y007932D01*
X011580Y007936D01*
X011558Y007944D01*
X011537Y007955D01*
X011519Y007969D01*
X011504Y007986D01*
X011491Y008005D01*
X011482Y008027D01*
X011476Y008049D01*
X011474Y008072D01*
X011397Y008071D02*
X011399Y008100D01*
X011405Y008129D01*
X011414Y008156D01*
X011427Y008182D01*
X011444Y008206D01*
X011463Y008228D01*
X011486Y008247D01*
X011510Y008262D01*
X011537Y008274D01*
X011564Y008283D01*
X011593Y008288D01*
X011622Y008289D01*
X011651Y008286D01*
X011680Y008279D01*
X011707Y008269D01*
X011732Y008255D01*
X011756Y008237D01*
X011777Y008217D01*
X011795Y008194D01*
X011810Y008169D01*
X011821Y008143D01*
X011829Y008114D01*
X011833Y008086D01*
X011833Y008056D01*
X011829Y008028D01*
X011821Y007999D01*
X011810Y007973D01*
X011795Y007948D01*
X011777Y007925D01*
X011756Y007905D01*
X011732Y007887D01*
X011707Y007873D01*
X011680Y007863D01*
X011651Y007856D01*
X011622Y007853D01*
X011593Y007854D01*
X011564Y007859D01*
X011537Y007868D01*
X011510Y007880D01*
X011486Y007895D01*
X011463Y007914D01*
X011444Y007936D01*
X011427Y007960D01*
X011414Y007986D01*
X011405Y008013D01*
X011399Y008042D01*
X011397Y008071D01*
X011411Y009531D02*
X011456Y009531D01*
X011456Y009711D01*
X011469Y009729D01*
X011481Y009739D01*
X011501Y009749D01*
X011531Y009749D01*
X011549Y009741D01*
X011559Y009731D01*
X011566Y009719D01*
X011574Y009704D01*
X011574Y009529D01*
X011616Y009529D01*
X011616Y009701D01*
X011606Y009736D01*
X011591Y009761D01*
X011569Y009779D01*
X011536Y009791D01*
X011496Y009791D01*
X011476Y009784D01*
X011451Y009769D01*
X011441Y009759D01*
X011431Y009759D01*
X011419Y009766D01*
X011404Y009779D01*
X011386Y009789D01*
X011374Y009791D01*
X011339Y009791D01*
X011321Y009786D01*
X011301Y009776D01*
X011284Y009761D01*
X011271Y009746D01*
X011261Y009724D01*
X011256Y009709D01*
X011254Y009686D01*
X011254Y009531D01*
X011299Y009531D01*
X011299Y009704D01*
X011306Y009721D01*
X011316Y009736D01*
X011331Y009741D01*
X011341Y009746D01*
X011381Y009746D01*
X011399Y009731D01*
X011409Y009716D01*
X011411Y009711D01*
X011411Y009531D01*
X011686Y009604D02*
X011681Y009629D01*
X011681Y009686D01*
X011689Y009714D01*
X011699Y009734D01*
X011736Y009771D01*
X011764Y009786D01*
X011791Y009791D01*
X011834Y009791D01*
X011861Y009781D01*
X011889Y009764D01*
X011911Y009741D01*
X011926Y009719D01*
X011936Y009681D01*
X011936Y009634D01*
X011931Y009616D01*
X011924Y009596D01*
X011914Y009579D01*
X011896Y009561D01*
X011876Y009544D01*
X011856Y009534D01*
X011831Y009526D01*
X011821Y009526D01*
X011819Y009526D02*
X011786Y009526D01*
X011764Y009531D01*
X011739Y009541D01*
X011716Y009561D01*
X011699Y009586D01*
X011686Y009604D01*
X011731Y009621D02*
X011729Y009631D01*
X011729Y009684D01*
X011736Y009704D01*
X011749Y009724D01*
X011764Y009739D01*
X011779Y009746D01*
X011786Y009749D01*
X011826Y009749D01*
X011844Y009744D01*
X011864Y009731D01*
X011874Y009719D01*
X011886Y009699D01*
X011891Y009684D01*
X011891Y009634D01*
X011881Y009611D01*
X011869Y009591D01*
X011851Y009576D01*
X011834Y009566D01*
X011794Y009566D01*
X011801Y009564D02*
X011781Y009569D01*
X011761Y009579D01*
X011749Y009591D01*
X011736Y009609D01*
X011731Y009621D01*
X011989Y009571D02*
X012039Y009571D01*
X012056Y009576D01*
X012079Y009586D01*
X012096Y009604D01*
X012109Y009621D01*
X012114Y009634D01*
X012116Y009639D01*
X012116Y009679D01*
X012106Y009694D01*
X012094Y009716D01*
X012071Y009731D01*
X012056Y009739D01*
X012031Y009744D01*
X011989Y009744D01*
X011989Y009786D01*
X012039Y009786D01*
X012061Y009784D01*
X012084Y009776D01*
X012109Y009761D01*
X012126Y009744D01*
X012139Y009729D01*
X012149Y009709D01*
X012156Y009689D01*
X012161Y009671D01*
X012161Y009641D01*
X012156Y009616D01*
X012144Y009591D01*
X012131Y009576D01*
X012116Y009561D01*
X012096Y009546D01*
X012079Y009539D01*
X012059Y009534D01*
X012031Y009529D01*
X011989Y009529D01*
X011989Y009571D01*
X012004Y009556D02*
X012059Y009561D01*
X012096Y009581D01*
X012126Y009624D01*
X012129Y009689D01*
X012104Y009724D01*
X012059Y009756D01*
X012004Y009759D01*
X012004Y009774D01*
X012059Y009771D01*
X012106Y009744D01*
X012144Y009694D01*
X012144Y009626D01*
X012116Y009579D01*
X012066Y009546D01*
X011999Y009541D01*
X012031Y009529D02*
X012034Y009529D01*
X012239Y009544D02*
X012239Y009561D01*
X012244Y009571D01*
X012256Y009584D01*
X012279Y009584D01*
X012289Y009576D01*
X012296Y009566D01*
X012296Y009546D01*
X012294Y009539D01*
X012284Y009529D01*
X012274Y009526D01*
X012256Y009544D01*
X012254Y009561D01*
X012266Y009571D01*
X012279Y009561D01*
X012276Y009546D01*
X012269Y009554D01*
X012269Y009526D02*
X012259Y009526D01*
X012251Y009529D01*
X012241Y009536D01*
X012239Y009544D01*
X012384Y009531D02*
X012384Y009671D01*
X012389Y009696D01*
X012396Y009716D01*
X012411Y009744D01*
X012431Y009764D01*
X012461Y009781D01*
X012481Y009789D01*
X012496Y009791D01*
X012536Y009791D01*
X012561Y009784D01*
X012584Y009774D01*
X012606Y009754D01*
X012624Y009731D01*
X012634Y009709D01*
X012641Y009684D01*
X012641Y009634D01*
X012629Y009596D01*
X012609Y009566D01*
X012591Y009549D01*
X012569Y009539D01*
X012539Y009526D01*
X012496Y009526D01*
X012449Y009541D01*
X012444Y009544D01*
X012436Y009544D01*
X012426Y009531D01*
X012419Y009531D01*
X012414Y009531D02*
X012384Y009531D01*
X012396Y009539D02*
X012401Y009676D01*
X012424Y009736D01*
X012454Y009759D01*
X012499Y009774D01*
X012544Y009774D01*
X012584Y009756D01*
X012619Y009709D01*
X012626Y009676D01*
X012624Y009624D01*
X012584Y009561D01*
X012536Y009539D01*
X012494Y009544D01*
X012451Y009561D01*
X012431Y009554D01*
X012416Y009544D01*
X012416Y009554D01*
X012446Y009571D01*
X012411Y009561D01*
X012421Y009584D01*
X012411Y009584D01*
X012419Y009684D01*
X012446Y009741D01*
X012504Y009761D01*
X012561Y009754D01*
X012601Y009716D01*
X012611Y009641D01*
X012596Y009599D01*
X012566Y009564D01*
X012494Y009549D01*
X012489Y009564D02*
X012469Y009571D01*
X012451Y009584D01*
X012449Y009586D01*
X012441Y009579D01*
X012434Y009584D02*
X012431Y009586D01*
X012429Y009591D01*
X012431Y009686D01*
X012436Y009699D01*
X012446Y009719D01*
X012464Y009736D01*
X012484Y009746D01*
X012491Y009749D01*
X012534Y009749D01*
X012556Y009741D01*
X012574Y009729D01*
X012586Y009711D01*
X012596Y009694D01*
X012596Y009624D01*
X012586Y009609D01*
X012569Y009584D01*
X012549Y009569D01*
X012531Y009564D01*
X012489Y009564D01*
X012699Y009574D02*
X012699Y009616D01*
X012706Y009636D01*
X012724Y009651D01*
X012831Y009699D01*
X012841Y009709D01*
X012844Y009714D01*
X012844Y009731D01*
X012839Y009741D01*
X012836Y009744D01*
X012829Y009746D01*
X012711Y009746D01*
X012711Y009786D01*
X012824Y009786D01*
X012846Y009781D01*
X012861Y009774D01*
X012876Y009759D01*
X012886Y009744D01*
X012889Y009726D01*
X012889Y009711D01*
X012881Y009694D01*
X012869Y009676D01*
X012831Y009651D01*
X012754Y009619D01*
X012744Y009606D01*
X012739Y009594D01*
X012749Y009581D01*
X012761Y009571D01*
X012889Y009571D01*
X012889Y009531D01*
X012774Y009531D01*
X012734Y009539D01*
X012714Y009551D01*
X012699Y009574D01*
X012714Y009576D02*
X012721Y009626D01*
X012744Y009649D01*
X012849Y009694D01*
X012861Y009714D01*
X012851Y009744D01*
X012836Y009759D01*
X012726Y009761D01*
X012724Y009771D01*
X012836Y009769D01*
X012866Y009754D01*
X012871Y009706D01*
X012846Y009676D01*
X012741Y009629D01*
X012731Y009599D01*
X012726Y009579D01*
X012751Y009561D01*
X012761Y009556D02*
X012876Y009556D01*
X012881Y009554D01*
X012854Y009551D01*
X012879Y009544D02*
X012751Y009546D01*
X012761Y009556D01*
X012744Y009546D02*
X012714Y009576D01*
X012886Y009534D02*
X012889Y009531D01*
X012966Y009576D02*
X012984Y009556D01*
X013001Y009544D01*
X013021Y009534D01*
X013044Y009526D01*
X013094Y009526D01*
X013114Y009531D01*
X013139Y009541D01*
X013159Y009556D01*
X013176Y009576D01*
X013194Y009606D01*
X013201Y009631D01*
X013204Y009656D01*
X013199Y009686D01*
X013191Y009714D01*
X013166Y009751D01*
X013141Y009771D01*
X013114Y009786D01*
X013096Y009791D01*
X013049Y009791D01*
X013021Y009784D01*
X012999Y009771D01*
X012981Y009756D01*
X012964Y009736D01*
X012949Y009714D01*
X013105Y009625D01*
X013105Y009626D02*
X013125Y009656D01*
X013021Y009716D01*
X013024Y009729D01*
X013031Y009741D01*
X013044Y009749D01*
X013096Y009749D01*
X013119Y009736D01*
X013139Y009716D01*
X013146Y009704D01*
X013154Y009694D01*
X013156Y009664D01*
X013156Y009641D01*
X013146Y009616D01*
X013134Y009591D01*
X013114Y009579D01*
X013099Y009571D01*
X013091Y009566D01*
X013051Y009566D01*
X013036Y009574D01*
X013019Y009586D01*
X013004Y009601D01*
X012994Y009619D01*
X012986Y009649D01*
X012941Y009641D01*
X012951Y009609D01*
X012966Y009576D01*
X012984Y009576D02*
X012959Y009634D01*
X012976Y009631D02*
X012991Y009589D01*
X013039Y009559D01*
X013054Y009551D01*
X013096Y009551D01*
X013144Y009576D01*
X013171Y009639D01*
X013166Y009699D01*
X013146Y009734D01*
X013104Y009759D01*
X013051Y009761D01*
X013024Y009749D01*
X013011Y009731D01*
X013006Y009714D01*
X013119Y009649D01*
X013111Y009637D01*
X012969Y009719D01*
X013004Y009759D01*
X012991Y009719D01*
X013004Y009741D02*
X013044Y009779D01*
X013061Y009779D01*
X013099Y009779D02*
X013161Y009741D01*
X013179Y009699D01*
X013186Y009631D01*
X013156Y009569D01*
X013096Y009539D01*
X013041Y009539D01*
X012984Y009576D01*
X013011Y009764D02*
X013099Y009776D01*
X013251Y009789D02*
X013251Y009746D01*
X013321Y009746D01*
X013329Y009744D01*
X013329Y009606D01*
X013321Y009591D01*
X013314Y009584D01*
X013304Y009576D01*
X013289Y009569D01*
X013254Y009569D01*
X013254Y009529D01*
X013279Y009529D01*
X013284Y009529D02*
X013266Y009541D01*
X013304Y009549D01*
X013336Y009559D01*
X013351Y009586D01*
X013364Y009616D01*
X013364Y009841D01*
X013344Y009844D01*
X013346Y009614D01*
X013324Y009569D01*
X013264Y009551D01*
X013284Y009529D02*
X013304Y009534D01*
X013326Y009539D01*
X013349Y009551D01*
X013364Y009574D01*
X013376Y009609D01*
X013376Y009856D01*
X013329Y009856D01*
X013329Y009796D01*
X013331Y009789D01*
X013251Y009789D01*
X013264Y009774D02*
X013334Y009774D01*
X013336Y009759D02*
X013264Y009756D01*
X013264Y009774D01*
X013451Y009904D02*
X013451Y009531D01*
X013496Y009531D01*
X013496Y009534D02*
X013496Y009904D01*
X013451Y009904D01*
X013464Y009891D02*
X013464Y009541D01*
X013481Y009541D02*
X013484Y009891D01*
X013464Y009891D01*
X013574Y009864D02*
X013576Y009874D01*
X013586Y009884D01*
X013594Y009889D01*
X013609Y009889D01*
X013619Y009881D01*
X013626Y009869D01*
X013626Y009854D01*
X013621Y009844D01*
X013611Y009834D01*
X013601Y009834D01*
X013591Y009864D01*
X013601Y009874D01*
X013611Y009866D01*
X013609Y009849D01*
X013601Y009836D02*
X013594Y009834D01*
X013584Y009839D01*
X013579Y009846D01*
X013574Y009856D01*
X013574Y009864D01*
X013579Y009786D02*
X013624Y009786D01*
X013624Y009531D01*
X013579Y009531D01*
X013579Y009786D01*
X013596Y009774D02*
X013591Y009544D01*
X013606Y009544D01*
X013611Y009774D01*
X013711Y009719D02*
X013726Y009741D01*
X013746Y009764D01*
X013766Y009776D01*
X013794Y009789D01*
X013809Y009791D01*
X013851Y009791D01*
X013884Y009781D01*
X013906Y009769D01*
X013924Y009751D01*
X013939Y009731D01*
X013949Y009714D01*
X013956Y009681D01*
X013956Y009636D01*
X013951Y009616D01*
X013941Y009591D01*
X013926Y009569D01*
X013904Y009546D01*
X013854Y009526D01*
X013811Y009526D01*
X013764Y009541D01*
X013746Y009546D01*
X013746Y009501D01*
X013761Y009484D01*
X013781Y009466D01*
X013801Y009456D01*
X013821Y009451D01*
X013851Y009451D01*
X013901Y009464D01*
X013911Y009424D01*
X013849Y009406D01*
X013819Y009406D01*
X013784Y009411D01*
X013761Y009424D01*
X013736Y009441D01*
X013716Y009466D01*
X013706Y009491D01*
X013699Y009519D01*
X013699Y009676D01*
X013704Y009696D01*
X013711Y009719D01*
X013719Y009696D02*
X013754Y009751D01*
X013796Y009771D01*
X013841Y009776D01*
X013894Y009756D01*
X013936Y009706D01*
X013939Y009631D01*
X013926Y009599D01*
X013894Y009554D01*
X013826Y009534D01*
X013746Y009556D01*
X013746Y009579D01*
X013811Y009549D01*
X013869Y009556D01*
X013909Y009591D01*
X013924Y009644D01*
X013916Y009711D01*
X013886Y009746D01*
X013851Y009761D01*
X013799Y009756D01*
X013759Y009744D01*
X013734Y009696D01*
X013734Y009689D02*
X013731Y009494D01*
X013779Y009444D01*
X013836Y009436D01*
X013891Y009449D01*
X013904Y009439D02*
X013836Y009421D01*
X013776Y009429D01*
X013734Y009469D01*
X013716Y009506D01*
X013716Y009686D01*
X013734Y009689D01*
X013746Y009689D02*
X013746Y009596D01*
X013741Y009599D02*
X013769Y009581D01*
X013801Y009569D01*
X013809Y009566D01*
X013851Y009566D01*
X013874Y009576D01*
X013891Y009596D01*
X013909Y009629D01*
X013911Y009694D01*
X013909Y009691D02*
X013901Y009706D01*
X013889Y009721D01*
X013876Y009734D01*
X013859Y009746D01*
X013841Y009749D01*
X013804Y009749D01*
X013784Y009739D01*
X013764Y009724D01*
X013751Y009704D01*
X013746Y009689D01*
X016955Y010469D02*
X016968Y010432D01*
X016988Y010405D01*
X017406Y010981D01*
X017400Y010881D02*
X017613Y010582D01*
X017625Y010558D01*
X017635Y010532D01*
X017642Y010504D01*
X017640Y010468D01*
X017633Y010445D01*
X017622Y010423D01*
X017607Y010405D01*
X017330Y010787D01*
X017400Y010881D01*
X017316Y010869D02*
X017302Y010862D01*
X017250Y010918D02*
X017252Y010931D01*
X017258Y010943D01*
X017267Y010952D01*
X017278Y010959D01*
X017291Y010962D01*
X017304Y010961D01*
X017316Y010956D01*
X017326Y010948D01*
X017334Y010937D01*
X017338Y010925D01*
X017338Y010911D01*
X017334Y010899D01*
X017326Y010888D01*
X017316Y010880D01*
X017304Y010875D01*
X017291Y010874D01*
X017278Y010877D01*
X017267Y010884D01*
X017258Y010893D01*
X017252Y010905D01*
X017250Y010918D01*
X017234Y010914D02*
X017243Y010897D01*
X017225Y010916D02*
X016997Y010606D01*
X016972Y010564D01*
X016960Y010532D01*
X016954Y010501D01*
X016955Y010469D01*
X017231Y010925D02*
X017192Y010977D01*
X017286Y011031D02*
X017286Y011035D01*
X017258Y011072D01*
X017286Y011031D02*
X017295Y011028D01*
X017305Y011029D01*
X017339Y011078D01*
X017416Y011146D02*
X017418Y011169D01*
X017424Y011191D01*
X017433Y011213D01*
X017446Y011232D01*
X017461Y011249D01*
X017479Y011263D01*
X017500Y011274D01*
X017522Y011282D01*
X017544Y011286D01*
X017568Y011286D01*
X017590Y011282D01*
X017612Y011274D01*
X017633Y011263D01*
X017651Y011249D01*
X017666Y011232D01*
X017679Y011213D01*
X017688Y011191D01*
X017694Y011169D01*
X017696Y011146D01*
X017694Y011123D01*
X017688Y011101D01*
X017679Y011079D01*
X017666Y011060D01*
X017651Y011043D01*
X017633Y011029D01*
X017612Y011018D01*
X017590Y011010D01*
X017568Y011006D01*
X017544Y011006D01*
X017522Y011010D01*
X017500Y011018D01*
X017479Y011029D01*
X017461Y011043D01*
X017446Y011060D01*
X017433Y011079D01*
X017424Y011101D01*
X017418Y011123D01*
X017416Y011146D01*
X017339Y011145D02*
X017341Y011174D01*
X017347Y011203D01*
X017356Y011230D01*
X017369Y011256D01*
X017386Y011280D01*
X017405Y011302D01*
X017428Y011321D01*
X017452Y011336D01*
X017479Y011348D01*
X017506Y011357D01*
X017535Y011362D01*
X017564Y011363D01*
X017593Y011360D01*
X017622Y011353D01*
X017649Y011343D01*
X017674Y011329D01*
X017698Y011311D01*
X017719Y011291D01*
X017737Y011268D01*
X017752Y011243D01*
X017763Y011217D01*
X017771Y011188D01*
X017775Y011160D01*
X017775Y011130D01*
X017771Y011102D01*
X017763Y011073D01*
X017752Y011047D01*
X017737Y011022D01*
X017719Y010999D01*
X017698Y010979D01*
X017674Y010961D01*
X017649Y010947D01*
X017622Y010937D01*
X017593Y010930D01*
X017564Y010927D01*
X017535Y010928D01*
X017506Y010933D01*
X017479Y010942D01*
X017452Y010954D01*
X017428Y010969D01*
X017405Y010988D01*
X017386Y011010D01*
X017369Y011034D01*
X017356Y011060D01*
X017347Y011087D01*
X017341Y011116D01*
X017339Y011145D01*
X016900Y011145D02*
X016902Y011168D01*
X016908Y011190D01*
X016917Y011212D01*
X016930Y011231D01*
X016945Y011248D01*
X016963Y011262D01*
X016984Y011273D01*
X017006Y011281D01*
X017028Y011285D01*
X017052Y011285D01*
X017074Y011281D01*
X017096Y011273D01*
X017117Y011262D01*
X017135Y011248D01*
X017150Y011231D01*
X017163Y011212D01*
X017172Y011190D01*
X017178Y011168D01*
X017180Y011145D01*
X017178Y011122D01*
X017172Y011100D01*
X017163Y011078D01*
X017150Y011059D01*
X017135Y011042D01*
X017117Y011028D01*
X017096Y011017D01*
X017074Y011009D01*
X017052Y011005D01*
X017028Y011005D01*
X017006Y011009D01*
X016984Y011017D01*
X016963Y011028D01*
X016945Y011042D01*
X016930Y011059D01*
X016917Y011078D01*
X016908Y011100D01*
X016902Y011122D01*
X016900Y011145D01*
X016821Y011146D02*
X016823Y011175D01*
X016829Y011204D01*
X016838Y011231D01*
X016851Y011257D01*
X016868Y011281D01*
X016887Y011303D01*
X016910Y011322D01*
X016934Y011337D01*
X016961Y011349D01*
X016988Y011358D01*
X017017Y011363D01*
X017046Y011364D01*
X017075Y011361D01*
X017104Y011354D01*
X017131Y011344D01*
X017156Y011330D01*
X017180Y011312D01*
X017201Y011292D01*
X017219Y011269D01*
X017234Y011244D01*
X017245Y011218D01*
X017253Y011189D01*
X017257Y011161D01*
X017257Y011131D01*
X017253Y011103D01*
X017245Y011074D01*
X017234Y011048D01*
X017219Y011023D01*
X017201Y011000D01*
X017180Y010980D01*
X017156Y010962D01*
X017131Y010948D01*
X017104Y010938D01*
X017075Y010931D01*
X017046Y010928D01*
X017017Y010929D01*
X016988Y010934D01*
X016961Y010943D01*
X016934Y010955D01*
X016910Y010970D01*
X016887Y010989D01*
X016868Y011011D01*
X016851Y011035D01*
X016838Y011061D01*
X016829Y011088D01*
X016823Y011117D01*
X016821Y011146D01*
X021536Y007166D02*
X022112Y006748D01*
X022012Y006754D02*
X021713Y006541D01*
X021689Y006529D01*
X021663Y006519D01*
X021635Y006512D01*
X021599Y006514D01*
X021576Y006521D01*
X021554Y006532D01*
X021536Y006547D01*
X021918Y006824D01*
X022012Y006754D01*
X022000Y006838D02*
X021993Y006852D01*
X022005Y006860D02*
X022007Y006873D01*
X022013Y006885D01*
X022022Y006894D01*
X022033Y006901D01*
X022046Y006904D01*
X022059Y006903D01*
X022071Y006898D01*
X022081Y006890D01*
X022089Y006879D01*
X022093Y006867D01*
X022093Y006853D01*
X022089Y006841D01*
X022081Y006830D01*
X022071Y006822D01*
X022059Y006817D01*
X022046Y006816D01*
X022033Y006819D01*
X022022Y006826D01*
X022013Y006835D01*
X022007Y006847D01*
X022005Y006860D01*
X022028Y006911D02*
X022045Y006920D01*
X022047Y006929D02*
X021737Y007157D01*
X021695Y007182D01*
X021663Y007194D01*
X021632Y007200D01*
X021600Y007199D01*
X021563Y007186D01*
X021536Y007166D01*
X022056Y006923D02*
X022108Y006962D01*
X022162Y006868D02*
X022166Y006868D01*
X022203Y006896D01*
X022162Y006868D02*
X022159Y006859D01*
X022160Y006849D01*
X022209Y006815D01*
X022137Y006598D02*
X022139Y006621D01*
X022145Y006643D01*
X022154Y006665D01*
X022167Y006684D01*
X022182Y006701D01*
X022200Y006715D01*
X022221Y006726D01*
X022243Y006734D01*
X022265Y006738D01*
X022289Y006738D01*
X022311Y006734D01*
X022333Y006726D01*
X022354Y006715D01*
X022372Y006701D01*
X022387Y006684D01*
X022400Y006665D01*
X022409Y006643D01*
X022415Y006621D01*
X022417Y006598D01*
X022415Y006575D01*
X022409Y006553D01*
X022400Y006531D01*
X022387Y006512D01*
X022372Y006495D01*
X022354Y006481D01*
X022333Y006470D01*
X022311Y006462D01*
X022289Y006458D01*
X022265Y006458D01*
X022243Y006462D01*
X022221Y006470D01*
X022200Y006481D01*
X022182Y006495D01*
X022167Y006512D01*
X022154Y006531D01*
X022145Y006553D01*
X022139Y006575D01*
X022137Y006598D01*
X022058Y006597D02*
X022060Y006626D01*
X022066Y006655D01*
X022075Y006682D01*
X022088Y006708D01*
X022105Y006732D01*
X022124Y006754D01*
X022147Y006773D01*
X022171Y006788D01*
X022198Y006800D01*
X022225Y006809D01*
X022254Y006814D01*
X022283Y006815D01*
X022312Y006812D01*
X022341Y006805D01*
X022368Y006795D01*
X022393Y006781D01*
X022417Y006763D01*
X022438Y006743D01*
X022456Y006720D01*
X022471Y006695D01*
X022482Y006669D01*
X022490Y006640D01*
X022494Y006612D01*
X022494Y006582D01*
X022490Y006554D01*
X022482Y006525D01*
X022471Y006499D01*
X022456Y006474D01*
X022438Y006451D01*
X022417Y006431D01*
X022393Y006413D01*
X022368Y006399D01*
X022341Y006389D01*
X022312Y006382D01*
X022283Y006379D01*
X022254Y006380D01*
X022225Y006385D01*
X022198Y006394D01*
X022171Y006406D01*
X022147Y006421D01*
X022124Y006440D01*
X022105Y006462D01*
X022088Y006486D01*
X022075Y006512D01*
X022066Y006539D01*
X022060Y006568D01*
X022058Y006597D01*
X022136Y007114D02*
X022138Y007137D01*
X022144Y007159D01*
X022153Y007181D01*
X022166Y007200D01*
X022181Y007217D01*
X022199Y007231D01*
X022220Y007242D01*
X022242Y007250D01*
X022264Y007254D01*
X022288Y007254D01*
X022310Y007250D01*
X022332Y007242D01*
X022353Y007231D01*
X022371Y007217D01*
X022386Y007200D01*
X022399Y007181D01*
X022408Y007159D01*
X022414Y007137D01*
X022416Y007114D01*
X022414Y007091D01*
X022408Y007069D01*
X022399Y007047D01*
X022386Y007028D01*
X022371Y007011D01*
X022353Y006997D01*
X022332Y006986D01*
X022310Y006978D01*
X022288Y006974D01*
X022264Y006974D01*
X022242Y006978D01*
X022220Y006986D01*
X022199Y006997D01*
X022181Y007011D01*
X022166Y007028D01*
X022153Y007047D01*
X022144Y007069D01*
X022138Y007091D01*
X022136Y007114D01*
X022059Y007115D02*
X022061Y007144D01*
X022067Y007173D01*
X022076Y007200D01*
X022089Y007226D01*
X022106Y007250D01*
X022125Y007272D01*
X022148Y007291D01*
X022172Y007306D01*
X022199Y007318D01*
X022226Y007327D01*
X022255Y007332D01*
X022284Y007333D01*
X022313Y007330D01*
X022342Y007323D01*
X022369Y007313D01*
X022394Y007299D01*
X022418Y007281D01*
X022439Y007261D01*
X022457Y007238D01*
X022472Y007213D01*
X022483Y007187D01*
X022491Y007158D01*
X022495Y007130D01*
X022495Y007100D01*
X022491Y007072D01*
X022483Y007043D01*
X022472Y007017D01*
X022457Y006992D01*
X022439Y006969D01*
X022418Y006949D01*
X022394Y006931D01*
X022369Y006917D01*
X022342Y006907D01*
X022313Y006900D01*
X022284Y006897D01*
X022255Y006898D01*
X022226Y006903D01*
X022199Y006912D01*
X022172Y006924D01*
X022148Y006939D01*
X022125Y006958D01*
X022106Y006980D01*
X022089Y007004D01*
X022076Y007030D01*
X022067Y007057D01*
X022061Y007086D01*
X022059Y007115D01*
X006453Y016495D02*
X006464Y016517D01*
X006471Y016540D01*
X006473Y016576D01*
X006466Y016604D01*
X006456Y016630D01*
X006444Y016654D01*
X006231Y016953D01*
X006161Y016859D01*
X006438Y016477D01*
X006453Y016495D01*
X006147Y016941D02*
X006133Y016934D01*
X006081Y016990D02*
X006083Y017003D01*
X006089Y017015D01*
X006098Y017024D01*
X006109Y017031D01*
X006122Y017034D01*
X006135Y017033D01*
X006147Y017028D01*
X006157Y017020D01*
X006165Y017009D01*
X006169Y016997D01*
X006169Y016983D01*
X006165Y016971D01*
X006157Y016960D01*
X006147Y016952D01*
X006135Y016947D01*
X006122Y016946D01*
X006109Y016949D01*
X006098Y016956D01*
X006089Y016965D01*
X006083Y016977D01*
X006081Y016990D01*
X006065Y016986D02*
X006074Y016969D01*
X006056Y016988D02*
X005828Y016678D01*
X005803Y016636D01*
X005791Y016604D01*
X005785Y016573D01*
X005786Y016541D01*
X005799Y016504D01*
X005819Y016477D01*
X006237Y017053D01*
X006136Y017101D02*
X006126Y017100D01*
X006117Y017103D01*
X006117Y017107D01*
X006089Y017144D01*
X006136Y017101D02*
X006170Y017150D01*
X006023Y017049D02*
X006062Y016997D01*
X005731Y017217D02*
X005733Y017240D01*
X005739Y017262D01*
X005748Y017284D01*
X005761Y017303D01*
X005776Y017320D01*
X005794Y017334D01*
X005815Y017345D01*
X005837Y017353D01*
X005859Y017357D01*
X005883Y017357D01*
X005905Y017353D01*
X005927Y017345D01*
X005948Y017334D01*
X005966Y017320D01*
X005981Y017303D01*
X005994Y017284D01*
X006003Y017262D01*
X006009Y017240D01*
X006011Y017217D01*
X006009Y017194D01*
X006003Y017172D01*
X005994Y017150D01*
X005981Y017131D01*
X005966Y017114D01*
X005948Y017100D01*
X005927Y017089D01*
X005905Y017081D01*
X005883Y017077D01*
X005859Y017077D01*
X005837Y017081D01*
X005815Y017089D01*
X005794Y017100D01*
X005776Y017114D01*
X005761Y017131D01*
X005748Y017150D01*
X005739Y017172D01*
X005733Y017194D01*
X005731Y017217D01*
X005652Y017218D02*
X005654Y017247D01*
X005660Y017276D01*
X005669Y017303D01*
X005682Y017329D01*
X005699Y017353D01*
X005718Y017375D01*
X005741Y017394D01*
X005765Y017409D01*
X005792Y017421D01*
X005819Y017430D01*
X005848Y017435D01*
X005877Y017436D01*
X005906Y017433D01*
X005935Y017426D01*
X005962Y017416D01*
X005987Y017402D01*
X006011Y017384D01*
X006032Y017364D01*
X006050Y017341D01*
X006065Y017316D01*
X006076Y017290D01*
X006084Y017261D01*
X006088Y017233D01*
X006088Y017203D01*
X006084Y017175D01*
X006076Y017146D01*
X006065Y017120D01*
X006050Y017095D01*
X006032Y017072D01*
X006011Y017052D01*
X005987Y017034D01*
X005962Y017020D01*
X005935Y017010D01*
X005906Y017003D01*
X005877Y017000D01*
X005848Y017001D01*
X005819Y017006D01*
X005792Y017015D01*
X005765Y017027D01*
X005741Y017042D01*
X005718Y017061D01*
X005699Y017083D01*
X005682Y017107D01*
X005669Y017133D01*
X005660Y017160D01*
X005654Y017189D01*
X005652Y017218D01*
X006247Y017218D02*
X006249Y017241D01*
X006255Y017263D01*
X006264Y017285D01*
X006277Y017304D01*
X006292Y017321D01*
X006310Y017335D01*
X006331Y017346D01*
X006353Y017354D01*
X006375Y017358D01*
X006399Y017358D01*
X006421Y017354D01*
X006443Y017346D01*
X006464Y017335D01*
X006482Y017321D01*
X006497Y017304D01*
X006510Y017285D01*
X006519Y017263D01*
X006525Y017241D01*
X006527Y017218D01*
X006525Y017195D01*
X006519Y017173D01*
X006510Y017151D01*
X006497Y017132D01*
X006482Y017115D01*
X006464Y017101D01*
X006443Y017090D01*
X006421Y017082D01*
X006399Y017078D01*
X006375Y017078D01*
X006353Y017082D01*
X006331Y017090D01*
X006310Y017101D01*
X006292Y017115D01*
X006277Y017132D01*
X006264Y017151D01*
X006255Y017173D01*
X006249Y017195D01*
X006247Y017218D01*
X006170Y017217D02*
X006172Y017246D01*
X006178Y017275D01*
X006187Y017302D01*
X006200Y017328D01*
X006217Y017352D01*
X006236Y017374D01*
X006259Y017393D01*
X006283Y017408D01*
X006310Y017420D01*
X006337Y017429D01*
X006366Y017434D01*
X006395Y017435D01*
X006424Y017432D01*
X006453Y017425D01*
X006480Y017415D01*
X006505Y017401D01*
X006529Y017383D01*
X006550Y017363D01*
X006568Y017340D01*
X006583Y017315D01*
X006594Y017289D01*
X006602Y017260D01*
X006606Y017232D01*
X006606Y017202D01*
X006602Y017174D01*
X006594Y017145D01*
X006583Y017119D01*
X006568Y017094D01*
X006550Y017071D01*
X006529Y017051D01*
X006505Y017033D01*
X006480Y017019D01*
X006453Y017009D01*
X006424Y017002D01*
X006395Y016999D01*
X006366Y017000D01*
X006337Y017005D01*
X006310Y017014D01*
X006283Y017026D01*
X006259Y017041D01*
X006236Y017060D01*
X006217Y017082D01*
X006200Y017106D01*
X006187Y017132D01*
X006178Y017159D01*
X006172Y017188D01*
X006170Y017217D01*
D17*
X006171Y017122D02*
X006130Y017060D01*
X006173Y017032D01*
X006177Y017052D01*
X006162Y017072D01*
X006121Y017083D02*
X006082Y017120D01*
X006044Y017058D01*
X006070Y017015D01*
X006107Y017054D01*
X006081Y017038D01*
X006069Y017056D01*
X006092Y017073D01*
X006171Y017122D02*
X006212Y017049D01*
X006183Y016999D01*
X011471Y009756D02*
X011524Y009771D01*
X011561Y009756D01*
X011596Y009701D01*
X011594Y009551D01*
X011434Y009544D02*
X011439Y009731D01*
X011471Y009756D01*
X011424Y009736D02*
X011391Y009764D01*
X011354Y009766D01*
X011304Y009751D01*
X011276Y009706D01*
X011274Y009551D01*
X011302Y008290D02*
X011273Y008240D01*
X011314Y008167D01*
X011355Y008229D01*
X011312Y008257D01*
X011308Y008237D01*
X011323Y008217D01*
X011364Y008206D02*
X011403Y008169D01*
X011441Y008231D01*
X011415Y008274D01*
X011378Y008235D01*
X011404Y008251D01*
X011416Y008233D01*
X011393Y008216D01*
X017213Y010986D02*
X017239Y010943D01*
X017276Y010982D01*
X017250Y010966D01*
X017238Y010984D01*
X017261Y011001D01*
X017290Y011011D02*
X017251Y011048D01*
X017213Y010986D01*
X017299Y010988D02*
X017342Y010960D01*
X017346Y010980D01*
X017331Y011000D01*
X017299Y010988D02*
X017340Y011050D01*
X017381Y010977D01*
X017352Y010927D01*
X022074Y006915D02*
X022113Y006878D01*
X022097Y006904D01*
X022115Y006916D01*
X022132Y006893D01*
X022142Y006864D02*
X022179Y006903D01*
X022117Y006941D01*
X022074Y006915D01*
X022119Y006855D02*
X022091Y006812D01*
X022111Y006808D01*
X022131Y006823D01*
X022119Y006855D02*
X022181Y006814D01*
X022108Y006773D01*
X022058Y006802D01*
M02*
